  0
SECTION
  2
HEADER
  9
$ANGBASE
  50
0.0
  9
$ANGDIR
  70
1
  9
$MEASUREMENT
  70
1
  0
ENDSEC
  0
SECTION
  2
TABLES
  0
TABLE
  2
LTYPE
  70
4
  0
LTYPE
  5
40F
  2
CONTINUOUS
  70
0
  3
Solid line
  72
65
  73
0
  40
0.0
  0
LTYPE
  5
410
  2
DASHDOT
 70
0
  3
Dash Dot ____ _ ____ _
 72
65
 73
4
 40
2.0
 49
1.25
 49
-0.25
 49
0.25
 49
-0.25
  0
LTYPE
  5
411
  2
DASHED
 70
0
  3
Dashed __ __ __ __ __
 72
65
 73
2
 40
0.75
 49
0.5
 49
-0.25
  0
LTYPE
  5
43B
  2
DOTTED
 70
0
  3
Dotted .  .  .  .
 72
65
 73
2
 40
0.2
 49
0.0
 49
-0.2
  0
ENDTAB
  0
TABLE
  2
STYLE
  70
4
  0
STYLE
  2
KICAD
  70
0
  40
0
  41
1
  42
1
  50
0
  71
0
  3
isocp.shx
  0
STYLE
  2
KICADB
  70
0
  40
0
  41
1
  42
1
  50
0
  71
0
  3
isocp.shx
  0
STYLE
  2
KICADI
  70
0
  40
0
  41
1
  42
1
  50
15
  71
0
  3
isocp.shx
  0
STYLE
  2
KICADBI
  70
0
  40
0
  41
1
  42
1
  50
15
  71
0
  3
isocp.shx
  0
ENDTAB
  0
TABLE
  2
LAYER
  70
1
  0
LAYER
  2
BLACK
  70
0
  62
7
  6
CONTINUOUS
  0
ENDTAB
  0
ENDSEC
  0
SECTION
  2
ENTITIES
0
LINE
8
BLACK
6
CONTINUOUS
10
99.7849999999999966
20
-100.8649999999999949
11
98.7849999999999966
21
-100.8649999999999949
0
LINE
8
BLACK
6
CONTINUOUS
10
98.7849999999999966
20
-100.8649999999999949
11
98.7849999999999966
21
-99.8649999999999949
0
LINE
8
BLACK
6
CONTINUOUS
10
98.7849999999999966
20
-99.8649999999999949
11
99.7849999999999966
21
-99.8649999999999949
0
LINE
8
BLACK
6
CONTINUOUS
10
99.7849999999999966
20
-99.8649999999999949
11
99.7849999999999966
21
-100.8649999999999949
0
LINE
8
BLACK
6
CONTINUOUS
10
101.4808869999999956
20
-99.8780789999999996
11
101.5579379999999929
21
-99.92956199999999
0
LINE
8
BLACK
6
CONTINUOUS
10
101.5579379999999929
20
-99.92956199999999
11
101.6094209999999975
21
-100.0066130000000015
0
LINE
8
BLACK
6
CONTINUOUS
10
101.6094209999999975
20
-100.0066130000000015
11
101.6274999999999977
21
-100.0974999999999966
0
LINE
8
BLACK
6
CONTINUOUS
10
101.6274999999999977
20
-100.0974999999999966
11
101.6274999999999977
21
-100.5724999999999909
0
LINE
8
BLACK
6
CONTINUOUS
10
101.6274999999999977
20
-100.5724999999999909
11
101.6094209999999975
21
-100.6633870000000002
0
LINE
8
BLACK
6
CONTINUOUS
10
101.6094209999999975
20
-100.6633870000000002
11
101.5579379999999929
21
-100.7404379999999975
0
LINE
8
BLACK
6
CONTINUOUS
10
101.5579379999999929
20
-100.7404379999999975
11
101.4808869999999956
21
-100.7919210000000021
0
LINE
8
BLACK
6
CONTINUOUS
10
101.4808869999999956
20
-100.7919210000000021
11
101.3900000000000006
21
-100.8100000000000023
0
LINE
8
BLACK
6
CONTINUOUS
10
101.3900000000000006
20
-100.8100000000000023
11
100.789999999999992
21
-100.8100000000000023
0
LINE
8
BLACK
6
CONTINUOUS
10
100.789999999999992
20
-100.8100000000000023
11
100.699112999999997
21
-100.7919210000000021
0
LINE
8
BLACK
6
CONTINUOUS
10
100.699112999999997
20
-100.7919210000000021
11
100.6220619999999997
21
-100.7404379999999975
0
LINE
8
BLACK
6
CONTINUOUS
10
100.6220619999999997
20
-100.7404379999999975
11
100.5705789999999951
21
-100.6633870000000002
0
LINE
8
BLACK
6
CONTINUOUS
10
100.5705789999999951
20
-100.6633870000000002
11
100.5524999999999949
21
-100.5724999999999909
0
LINE
8
BLACK
6
CONTINUOUS
10
100.5524999999999949
20
-100.5724999999999909
11
100.5524999999999949
21
-100.0974999999999966
0
LINE
8
BLACK
6
CONTINUOUS
10
100.5524999999999949
20
-100.0974999999999966
11
100.5705789999999951
21
-100.0066130000000015
0
LINE
8
BLACK
6
CONTINUOUS
10
100.5705789999999951
20
-100.0066130000000015
11
100.6220619999999997
21
-99.92956199999999
0
LINE
8
BLACK
6
CONTINUOUS
10
100.6220619999999997
20
-99.92956199999999
11
100.699112999999997
21
-99.8780789999999996
0
LINE
8
BLACK
6
CONTINUOUS
10
100.699112999999997
20
-99.8780789999999996
11
100.789999999999992
21
-99.8599999999999994
0
LINE
8
BLACK
6
CONTINUOUS
10
100.789999999999992
20
-99.8599999999999994
11
101.3900000000000006
21
-99.8599999999999994
0
LINE
8
BLACK
6
CONTINUOUS
10
101.3900000000000006
20
-99.8599999999999994
11
101.4808869999999956
21
-99.8780789999999996
0
LINE
8
BLACK
6
CONTINUOUS
10
103.2058869999999899
20
-99.8780789999999996
11
103.2829380000000015
21
-99.92956199999999
0
LINE
8
BLACK
6
CONTINUOUS
10
103.2829380000000015
20
-99.92956199999999
11
103.3344209999999919
21
-100.0066130000000015
0
LINE
8
BLACK
6
CONTINUOUS
10
103.3344209999999919
20
-100.0066130000000015
11
103.352499999999992
21
-100.0974999999999966
0
LINE
8
BLACK
6
CONTINUOUS
10
103.352499999999992
20
-100.0974999999999966
11
103.352499999999992
21
-100.5724999999999909
0
LINE
8
BLACK
6
CONTINUOUS
10
103.352499999999992
20
-100.5724999999999909
11
103.3344209999999919
21
-100.6633870000000002
0
LINE
8
BLACK
6
CONTINUOUS
10
103.3344209999999919
20
-100.6633870000000002
11
103.2829380000000015
21
-100.7404379999999975
0
LINE
8
BLACK
6
CONTINUOUS
10
103.2829380000000015
20
-100.7404379999999975
11
103.2058869999999899
21
-100.7919210000000021
0
LINE
8
BLACK
6
CONTINUOUS
10
103.2058869999999899
20
-100.7919210000000021
11
103.1149999999999949
21
-100.8100000000000023
0
LINE
8
BLACK
6
CONTINUOUS
10
103.1149999999999949
20
-100.8100000000000023
11
102.5150000000000006
21
-100.8100000000000023
0
LINE
8
BLACK
6
CONTINUOUS
10
102.5150000000000006
20
-100.8100000000000023
11
102.4241129999999913
21
-100.7919210000000021
0
LINE
8
BLACK
6
CONTINUOUS
10
102.4241129999999913
20
-100.7919210000000021
11
102.347061999999994
21
-100.7404379999999975
0
LINE
8
BLACK
6
CONTINUOUS
10
102.347061999999994
20
-100.7404379999999975
11
102.2955789999999894
21
-100.6633870000000002
0
LINE
8
BLACK
6
CONTINUOUS
10
102.2955789999999894
20
-100.6633870000000002
11
102.2774999999999892
21
-100.5724999999999909
0
LINE
8
BLACK
6
CONTINUOUS
10
102.2774999999999892
20
-100.5724999999999909
11
102.2774999999999892
21
-100.0974999999999966
0
LINE
8
BLACK
6
CONTINUOUS
10
102.2774999999999892
20
-100.0974999999999966
11
102.2955789999999894
21
-100.0066130000000015
0
LINE
8
BLACK
6
CONTINUOUS
10
102.2955789999999894
20
-100.0066130000000015
11
102.347061999999994
21
-99.92956199999999
0
LINE
8
BLACK
6
CONTINUOUS
10
102.347061999999994
20
-99.92956199999999
11
102.4241129999999913
21
-99.8780789999999996
0
LINE
8
BLACK
6
CONTINUOUS
10
102.4241129999999913
20
-99.8780789999999996
11
102.5150000000000006
21
-99.8599999999999994
0
LINE
8
BLACK
6
CONTINUOUS
10
102.5150000000000006
20
-99.8599999999999994
11
103.1149999999999949
21
-99.8599999999999994
0
LINE
8
BLACK
6
CONTINUOUS
10
103.1149999999999949
20
-99.8599999999999994
11
103.2058869999999899
21
-99.8780789999999996
0
LINE
8
BLACK
6
CONTINUOUS
10
104.6949999999999932
20
-100.7349999999999994
11
103.6949999999999932
21
-100.7349999999999994
0
LINE
8
BLACK
6
CONTINUOUS
10
103.6949999999999932
20
-100.7349999999999994
11
103.6949999999999932
21
-99.7349999999999994
0
LINE
8
BLACK
6
CONTINUOUS
10
103.6949999999999932
20
-99.7349999999999994
11
104.6949999999999932
21
-99.7349999999999994
0
LINE
8
BLACK
6
CONTINUOUS
10
104.6949999999999932
20
-99.7349999999999994
11
104.6949999999999932
21
-100.7349999999999994
0
LINE
8
BLACK
6
CONTINUOUS
10
122.5899999999999892
20
-99.8699999999999903
11
121.5899999999999892
21
-99.8699999999999903
0
LINE
8
BLACK
6
CONTINUOUS
10
121.5899999999999892
20
-99.8699999999999903
11
121.5899999999999892
21
-98.8699999999999903
0
LINE
8
BLACK
6
CONTINUOUS
10
121.5899999999999892
20
-98.8699999999999903
11
122.5899999999999892
21
-98.8699999999999903
0
LINE
8
BLACK
6
CONTINUOUS
10
122.5899999999999892
20
-98.8699999999999903
11
122.5899999999999892
21
-99.8699999999999903
0
LINE
8
BLACK
6
CONTINUOUS
10
109.9200000000000017
20
-99.8299999999999983
11
108.2199999999999989
21
-99.8299999999999983
0
LINE
8
BLACK
6
CONTINUOUS
10
108.2199999999999989
20
-99.8299999999999983
11
108.2199999999999989
21
-98.9299999999999926
0
LINE
8
BLACK
6
CONTINUOUS
10
108.2199999999999989
20
-98.9299999999999926
11
109.9200000000000017
21
-98.9299999999999926
0
LINE
8
BLACK
6
CONTINUOUS
10
109.9200000000000017
20
-98.9299999999999926
11
109.9200000000000017
21
-99.8299999999999983
0
LINE
8
BLACK
6
CONTINUOUS
10
112.1099999999999994
20
-99.8299999999999983
11
111.1099999999999994
21
-99.8299999999999983
0
LINE
8
BLACK
6
CONTINUOUS
10
111.1099999999999994
20
-99.8299999999999983
11
111.1099999999999994
21
-98.8299999999999983
0
LINE
8
BLACK
6
CONTINUOUS
10
111.1099999999999994
20
-98.8299999999999983
11
112.1099999999999994
21
-98.8299999999999983
0
LINE
8
BLACK
6
CONTINUOUS
10
112.1099999999999994
20
-98.8299999999999983
11
112.1099999999999994
21
-99.8299999999999983
0
LINE
8
BLACK
6
CONTINUOUS
10
113.4158869999999979
20
-98.8930790000000002
11
113.4929379999999952
21
-98.9445619999999906
0
LINE
8
BLACK
6
CONTINUOUS
10
113.4929379999999952
20
-98.9445619999999906
11
113.5444209999999998
21
-99.0216130000000021
0
LINE
8
BLACK
6
CONTINUOUS
10
113.5444209999999998
20
-99.0216130000000021
11
113.5625
21
-99.1124999999999972
0
LINE
8
BLACK
6
CONTINUOUS
10
113.5625
20
-99.1124999999999972
11
113.5625
21
-99.5874999999999915
0
LINE
8
BLACK
6
CONTINUOUS
10
113.5625
20
-99.5874999999999915
11
113.5444209999999998
21
-99.6783870000000007
0
LINE
8
BLACK
6
CONTINUOUS
10
113.5444209999999998
20
-99.6783870000000007
11
113.4929379999999952
21
-99.7554379999999981
0
LINE
8
BLACK
6
CONTINUOUS
10
113.4929379999999952
20
-99.7554379999999981
11
113.4158869999999979
21
-99.8069209999999885
0
LINE
8
BLACK
6
CONTINUOUS
10
113.4158869999999979
20
-99.8069209999999885
11
113.3249999999999886
21
-99.8249999999999886
0
LINE
8
BLACK
6
CONTINUOUS
10
113.3249999999999886
20
-99.8249999999999886
11
112.8249999999999886
21
-99.8249999999999886
0
LINE
8
BLACK
6
CONTINUOUS
10
112.8249999999999886
20
-99.8249999999999886
11
112.7341129999999936
21
-99.8069209999999885
0
LINE
8
BLACK
6
CONTINUOUS
10
112.7341129999999936
20
-99.8069209999999885
11
112.6570619999999963
21
-99.7554379999999981
0
LINE
8
BLACK
6
CONTINUOUS
10
112.6570619999999963
20
-99.7554379999999981
11
112.6055789999999917
21
-99.6783870000000007
0
LINE
8
BLACK
6
CONTINUOUS
10
112.6055789999999917
20
-99.6783870000000007
11
112.5874999999999915
21
-99.5874999999999915
0
LINE
8
BLACK
6
CONTINUOUS
10
112.5874999999999915
20
-99.5874999999999915
11
112.5874999999999915
21
-99.1124999999999972
0
LINE
8
BLACK
6
CONTINUOUS
10
112.5874999999999915
20
-99.1124999999999972
11
112.6055789999999917
21
-99.0216130000000021
0
LINE
8
BLACK
6
CONTINUOUS
10
112.6055789999999917
20
-99.0216130000000021
11
112.6570619999999963
21
-98.9445619999999906
0
LINE
8
BLACK
6
CONTINUOUS
10
112.6570619999999963
20
-98.9445619999999906
11
112.7341129999999936
21
-98.8930790000000002
0
LINE
8
BLACK
6
CONTINUOUS
10
112.7341129999999936
20
-98.8930790000000002
11
112.8249999999999886
21
-98.875
0
LINE
8
BLACK
6
CONTINUOUS
10
112.8249999999999886
20
-98.875
11
113.3249999999999886
21
-98.875
0
LINE
8
BLACK
6
CONTINUOUS
10
113.3249999999999886
20
-98.875
11
113.4158869999999979
21
-98.8930790000000002
0
LINE
8
BLACK
6
CONTINUOUS
10
115.2408870000000007
20
-98.8930790000000002
11
115.3179379999999981
21
-98.9445619999999906
0
LINE
8
BLACK
6
CONTINUOUS
10
115.3179379999999981
20
-98.9445619999999906
11
115.3694209999999885
21
-99.0216130000000021
0
LINE
8
BLACK
6
CONTINUOUS
10
115.3694209999999885
20
-99.0216130000000021
11
115.3874999999999886
21
-99.1124999999999972
0
LINE
8
BLACK
6
CONTINUOUS
10
115.3874999999999886
20
-99.1124999999999972
11
115.3874999999999886
21
-99.5874999999999915
0
LINE
8
BLACK
6
CONTINUOUS
10
115.3874999999999886
20
-99.5874999999999915
11
115.3694209999999885
21
-99.6783870000000007
0
LINE
8
BLACK
6
CONTINUOUS
10
115.3694209999999885
20
-99.6783870000000007
11
115.3179379999999981
21
-99.7554379999999981
0
LINE
8
BLACK
6
CONTINUOUS
10
115.3179379999999981
20
-99.7554379999999981
11
115.2408870000000007
21
-99.8069209999999885
0
LINE
8
BLACK
6
CONTINUOUS
10
115.2408870000000007
20
-99.8069209999999885
11
115.1499999999999915
21
-99.8249999999999886
0
LINE
8
BLACK
6
CONTINUOUS
10
115.1499999999999915
20
-99.8249999999999886
11
114.6499999999999915
21
-99.8249999999999886
0
LINE
8
BLACK
6
CONTINUOUS
10
114.6499999999999915
20
-99.8249999999999886
11
114.5591129999999964
21
-99.8069209999999885
0
LINE
8
BLACK
6
CONTINUOUS
10
114.5591129999999964
20
-99.8069209999999885
11
114.4820619999999991
21
-99.7554379999999981
0
LINE
8
BLACK
6
CONTINUOUS
10
114.4820619999999991
20
-99.7554379999999981
11
114.4305789999999945
21
-99.6783870000000007
0
LINE
8
BLACK
6
CONTINUOUS
10
114.4305789999999945
20
-99.6783870000000007
11
114.4124999999999943
21
-99.5874999999999915
0
LINE
8
BLACK
6
CONTINUOUS
10
114.4124999999999943
20
-99.5874999999999915
11
114.4124999999999943
21
-99.1124999999999972
0
LINE
8
BLACK
6
CONTINUOUS
10
114.4124999999999943
20
-99.1124999999999972
11
114.4305789999999945
21
-99.0216130000000021
0
LINE
8
BLACK
6
CONTINUOUS
10
114.4305789999999945
20
-99.0216130000000021
11
114.4820619999999991
21
-98.9445619999999906
0
LINE
8
BLACK
6
CONTINUOUS
10
114.4820619999999991
20
-98.9445619999999906
11
114.5591129999999964
21
-98.8930790000000002
0
LINE
8
BLACK
6
CONTINUOUS
10
114.5591129999999964
20
-98.8930790000000002
11
114.6499999999999915
21
-98.875
0
LINE
8
BLACK
6
CONTINUOUS
10
114.6499999999999915
20
-98.875
11
115.1499999999999915
21
-98.875
0
LINE
8
BLACK
6
CONTINUOUS
10
115.1499999999999915
20
-98.875
11
115.2408870000000007
21
-98.8930790000000002
0
LINE
8
BLACK
6
CONTINUOUS
10
118.9499999999999886
20
-99.6400000000000006
11
117.9499999999999886
21
-99.6400000000000006
0
LINE
8
BLACK
6
CONTINUOUS
10
117.9499999999999886
20
-99.6400000000000006
11
117.9499999999999886
21
-98.6400000000000006
0
LINE
8
BLACK
6
CONTINUOUS
10
117.9499999999999886
20
-98.6400000000000006
11
118.9499999999999886
21
-98.6400000000000006
0
LINE
8
BLACK
6
CONTINUOUS
10
118.9499999999999886
20
-98.6400000000000006
11
118.9499999999999886
21
-99.6400000000000006
0
LINE
8
BLACK
6
CONTINUOUS
10
116.9399999999999977
20
-99.6199999999999903
11
115.9399999999999977
21
-99.6199999999999903
0
LINE
8
BLACK
6
CONTINUOUS
10
115.9399999999999977
20
-99.6199999999999903
11
115.9399999999999977
21
-98.6199999999999903
0
LINE
8
BLACK
6
CONTINUOUS
10
115.9399999999999977
20
-98.6199999999999903
11
116.9399999999999977
21
-98.6199999999999903
0
LINE
8
BLACK
6
CONTINUOUS
10
116.9399999999999977
20
-98.6199999999999903
11
116.9399999999999977
21
-99.6199999999999903
0
LINE
8
BLACK
6
CONTINUOUS
10
124.1783870000000007
20
-98.2555789999999973
11
124.2554379999999981
21
-98.3070620000000019
0
LINE
8
BLACK
6
CONTINUOUS
10
124.2554379999999981
20
-98.3070620000000019
11
124.3069209999999885
21
-98.3841129999999993
0
LINE
8
BLACK
6
CONTINUOUS
10
124.3069209999999885
20
-98.3841129999999993
11
124.3249999999999886
21
-98.4749999999999943
0
LINE
8
BLACK
6
CONTINUOUS
10
124.3249999999999886
20
-98.4749999999999943
11
124.3249999999999886
21
-99.0749999999999886
0
LINE
8
BLACK
6
CONTINUOUS
10
124.3249999999999886
20
-99.0749999999999886
11
124.3069209999999885
21
-99.1658869999999979
0
LINE
8
BLACK
6
CONTINUOUS
10
124.3069209999999885
20
-99.1658869999999979
11
124.2554379999999981
21
-99.2429379999999952
0
LINE
8
BLACK
6
CONTINUOUS
10
124.2554379999999981
20
-99.2429379999999952
11
124.1783870000000007
21
-99.2944209999999998
0
LINE
8
BLACK
6
CONTINUOUS
10
124.1783870000000007
20
-99.2944209999999998
11
124.0874999999999915
21
-99.3125
0
LINE
8
BLACK
6
CONTINUOUS
10
124.0874999999999915
20
-99.3125
11
123.6124999999999972
21
-99.3125
0
LINE
8
BLACK
6
CONTINUOUS
10
123.6124999999999972
20
-99.3125
11
123.5216129999999879
21
-99.2944209999999998
0
LINE
8
BLACK
6
CONTINUOUS
10
123.5216129999999879
20
-99.2944209999999998
11
123.4445619999999906
21
-99.2429379999999952
0
LINE
8
BLACK
6
CONTINUOUS
10
123.4445619999999906
20
-99.2429379999999952
11
123.3930790000000002
21
-99.1658869999999979
0
LINE
8
BLACK
6
CONTINUOUS
10
123.3930790000000002
20
-99.1658869999999979
11
123.375
21
-99.0749999999999886
0
LINE
8
BLACK
6
CONTINUOUS
10
123.375
20
-99.0749999999999886
11
123.375
21
-98.4749999999999943
0
LINE
8
BLACK
6
CONTINUOUS
10
123.375
20
-98.4749999999999943
11
123.3930790000000002
21
-98.3841129999999993
0
LINE
8
BLACK
6
CONTINUOUS
10
123.3930790000000002
20
-98.3841129999999993
11
123.4445619999999906
21
-98.3070620000000019
0
LINE
8
BLACK
6
CONTINUOUS
10
123.4445619999999906
20
-98.3070620000000019
11
123.5216129999999879
21
-98.2555789999999973
0
LINE
8
BLACK
6
CONTINUOUS
10
123.5216129999999879
20
-98.2555789999999973
11
123.6124999999999972
21
-98.2374999999999972
0
LINE
8
BLACK
6
CONTINUOUS
10
123.6124999999999972
20
-98.2374999999999972
11
124.0874999999999915
21
-98.2374999999999972
0
LINE
8
BLACK
6
CONTINUOUS
10
124.0874999999999915
20
-98.2374999999999972
11
124.1783870000000007
21
-98.2555789999999973
0
LINE
8
BLACK
6
CONTINUOUS
10
101.4508869999999945
20
-98.3780789999999996
11
101.5279379999999918
21
-98.42956199999999
0
LINE
8
BLACK
6
CONTINUOUS
10
101.5279379999999918
20
-98.42956199999999
11
101.5794209999999964
21
-98.5066130000000015
0
LINE
8
BLACK
6
CONTINUOUS
10
101.5794209999999964
20
-98.5066130000000015
11
101.5974999999999966
21
-98.5974999999999966
0
LINE
8
BLACK
6
CONTINUOUS
10
101.5974999999999966
20
-98.5974999999999966
11
101.5974999999999966
21
-99.0724999999999909
0
LINE
8
BLACK
6
CONTINUOUS
10
101.5974999999999966
20
-99.0724999999999909
11
101.5794209999999964
21
-99.1633870000000002
0
LINE
8
BLACK
6
CONTINUOUS
10
101.5794209999999964
20
-99.1633870000000002
11
101.5279379999999918
21
-99.2404379999999975
0
LINE
8
BLACK
6
CONTINUOUS
10
101.5279379999999918
20
-99.2404379999999975
11
101.4508869999999945
21
-99.2919210000000021
0
LINE
8
BLACK
6
CONTINUOUS
10
101.4508869999999945
20
-99.2919210000000021
11
101.3599999999999994
21
-99.3100000000000023
0
LINE
8
BLACK
6
CONTINUOUS
10
101.3599999999999994
20
-99.3100000000000023
11
100.8599999999999994
21
-99.3100000000000023
0
LINE
8
BLACK
6
CONTINUOUS
10
100.8599999999999994
20
-99.3100000000000023
11
100.7691129999999902
21
-99.2919210000000021
0
LINE
8
BLACK
6
CONTINUOUS
10
100.7691129999999902
20
-99.2919210000000021
11
100.6920619999999928
21
-99.2404379999999975
0
LINE
8
BLACK
6
CONTINUOUS
10
100.6920619999999928
20
-99.2404379999999975
11
100.6405790000000025
21
-99.1633870000000002
0
LINE
8
BLACK
6
CONTINUOUS
10
100.6405790000000025
20
-99.1633870000000002
11
100.6225000000000023
21
-99.0724999999999909
0
LINE
8
BLACK
6
CONTINUOUS
10
100.6225000000000023
20
-99.0724999999999909
11
100.6225000000000023
21
-98.5974999999999966
0
LINE
8
BLACK
6
CONTINUOUS
10
100.6225000000000023
20
-98.5974999999999966
11
100.6405790000000025
21
-98.5066130000000015
0
LINE
8
BLACK
6
CONTINUOUS
10
100.6405790000000025
20
-98.5066130000000015
11
100.6920619999999928
21
-98.42956199999999
0
LINE
8
BLACK
6
CONTINUOUS
10
100.6920619999999928
20
-98.42956199999999
11
100.7691129999999902
21
-98.3780789999999996
0
LINE
8
BLACK
6
CONTINUOUS
10
100.7691129999999902
20
-98.3780789999999996
11
100.8599999999999994
21
-98.3599999999999994
0
LINE
8
BLACK
6
CONTINUOUS
10
100.8599999999999994
20
-98.3599999999999994
11
101.3599999999999994
21
-98.3599999999999994
0
LINE
8
BLACK
6
CONTINUOUS
10
101.3599999999999994
20
-98.3599999999999994
11
101.4508869999999945
21
-98.3780789999999996
0
LINE
8
BLACK
6
CONTINUOUS
10
103.2758869999999973
20
-98.3780789999999996
11
103.3529379999999946
21
-98.42956199999999
0
LINE
8
BLACK
6
CONTINUOUS
10
103.3529379999999946
20
-98.42956199999999
11
103.4044209999999993
21
-98.5066130000000015
0
LINE
8
BLACK
6
CONTINUOUS
10
103.4044209999999993
20
-98.5066130000000015
11
103.4224999999999994
21
-98.5974999999999966
0
LINE
8
BLACK
6
CONTINUOUS
10
103.4224999999999994
20
-98.5974999999999966
11
103.4224999999999994
21
-99.0724999999999909
0
LINE
8
BLACK
6
CONTINUOUS
10
103.4224999999999994
20
-99.0724999999999909
11
103.4044209999999993
21
-99.1633870000000002
0
LINE
8
BLACK
6
CONTINUOUS
10
103.4044209999999993
20
-99.1633870000000002
11
103.3529379999999946
21
-99.2404379999999975
0
LINE
8
BLACK
6
CONTINUOUS
10
103.3529379999999946
20
-99.2404379999999975
11
103.2758869999999973
21
-99.2919210000000021
0
LINE
8
BLACK
6
CONTINUOUS
10
103.2758869999999973
20
-99.2919210000000021
11
103.1850000000000023
21
-99.3100000000000023
0
LINE
8
BLACK
6
CONTINUOUS
10
103.1850000000000023
20
-99.3100000000000023
11
102.6850000000000023
21
-99.3100000000000023
0
LINE
8
BLACK
6
CONTINUOUS
10
102.6850000000000023
20
-99.3100000000000023
11
102.594112999999993
21
-99.2919210000000021
0
LINE
8
BLACK
6
CONTINUOUS
10
102.594112999999993
20
-99.2919210000000021
11
102.5170619999999957
21
-99.2404379999999975
0
LINE
8
BLACK
6
CONTINUOUS
10
102.5170619999999957
20
-99.2404379999999975
11
102.4655789999999911
21
-99.1633870000000002
0
LINE
8
BLACK
6
CONTINUOUS
10
102.4655789999999911
20
-99.1633870000000002
11
102.4474999999999909
21
-99.0724999999999909
0
LINE
8
BLACK
6
CONTINUOUS
10
102.4474999999999909
20
-99.0724999999999909
11
102.4474999999999909
21
-98.5974999999999966
0
LINE
8
BLACK
6
CONTINUOUS
10
102.4474999999999909
20
-98.5974999999999966
11
102.4655789999999911
21
-98.5066130000000015
0
LINE
8
BLACK
6
CONTINUOUS
10
102.4655789999999911
20
-98.5066130000000015
11
102.5170619999999957
21
-98.42956199999999
0
LINE
8
BLACK
6
CONTINUOUS
10
102.5170619999999957
20
-98.42956199999999
11
102.594112999999993
21
-98.3780789999999996
0
LINE
8
BLACK
6
CONTINUOUS
10
102.594112999999993
20
-98.3780789999999996
11
102.6850000000000023
21
-98.3599999999999994
0
LINE
8
BLACK
6
CONTINUOUS
10
102.6850000000000023
20
-98.3599999999999994
11
103.1850000000000023
21
-98.3599999999999994
0
LINE
8
BLACK
6
CONTINUOUS
10
103.1850000000000023
20
-98.3599999999999994
11
103.2758869999999973
21
-98.3780789999999996
0
LINE
8
BLACK
6
CONTINUOUS
10
113.2074029999999993
20
-97.2889179999999953
11
113.2560659999999899
21
-97.3214339999999964
0
LINE
8
BLACK
6
CONTINUOUS
10
113.2560659999999899
20
-97.3214339999999964
11
113.288581999999991
21
-97.3700970000000012
0
LINE
8
BLACK
6
CONTINUOUS
10
113.288581999999991
20
-97.3700970000000012
11
113.2999999999999972
21
-97.4274999999999949
0
LINE
8
BLACK
6
CONTINUOUS
10
113.2999999999999972
20
-97.4274999999999949
11
113.2999999999999972
21
-98.602499999999992
0
LINE
8
BLACK
6
CONTINUOUS
10
113.2999999999999972
20
-98.602499999999992
11
113.288581999999991
21
-98.6599029999999999
0
LINE
8
BLACK
6
CONTINUOUS
10
113.288581999999991
20
-98.6599029999999999
11
113.2560659999999899
21
-98.7085659999999905
0
LINE
8
BLACK
6
CONTINUOUS
10
113.2560659999999899
20
-98.7085659999999905
11
113.2074029999999993
21
-98.7410819999999916
0
LINE
8
BLACK
6
CONTINUOUS
10
113.2074029999999993
20
-98.7410819999999916
11
113.1499999999999915
21
-98.7524999999999977
0
LINE
8
BLACK
6
CONTINUOUS
10
113.1499999999999915
20
-98.7524999999999977
11
112.8499999999999943
21
-98.7524999999999977
0
LINE
8
BLACK
6
CONTINUOUS
10
112.8499999999999943
20
-98.7524999999999977
11
112.7925970000000007
21
-98.7410819999999916
0
LINE
8
BLACK
6
CONTINUOUS
10
112.7925970000000007
20
-98.7410819999999916
11
112.7439339999999959
21
-98.7085659999999905
0
LINE
8
BLACK
6
CONTINUOUS
10
112.7439339999999959
20
-98.7085659999999905
11
112.7114179999999948
21
-98.6599029999999999
0
LINE
8
BLACK
6
CONTINUOUS
10
112.7114179999999948
20
-98.6599029999999999
11
112.6999999999999886
21
-98.602499999999992
0
LINE
8
BLACK
6
CONTINUOUS
10
112.6999999999999886
20
-98.602499999999992
11
112.6999999999999886
21
-97.4274999999999949
0
LINE
8
BLACK
6
CONTINUOUS
10
112.6999999999999886
20
-97.4274999999999949
11
112.7114179999999948
21
-97.3700970000000012
0
LINE
8
BLACK
6
CONTINUOUS
10
112.7114179999999948
20
-97.3700970000000012
11
112.7439339999999959
21
-97.3214339999999964
0
LINE
8
BLACK
6
CONTINUOUS
10
112.7439339999999959
20
-97.3214339999999964
11
112.7925970000000007
21
-97.2889179999999953
0
LINE
8
BLACK
6
CONTINUOUS
10
112.7925970000000007
20
-97.2889179999999953
11
112.8499999999999943
21
-97.2774999999999892
0
LINE
8
BLACK
6
CONTINUOUS
10
112.8499999999999943
20
-97.2774999999999892
11
113.1499999999999915
21
-97.2774999999999892
0
LINE
8
BLACK
6
CONTINUOUS
10
113.1499999999999915
20
-97.2774999999999892
11
113.2074029999999993
21
-97.2889179999999953
0
LINE
8
BLACK
6
CONTINUOUS
10
115.1074029999999908
20
-97.2889179999999953
11
115.1560659999999956
21
-97.3214339999999964
0
LINE
8
BLACK
6
CONTINUOUS
10
115.1560659999999956
20
-97.3214339999999964
11
115.1885819999999967
21
-97.3700970000000012
0
LINE
8
BLACK
6
CONTINUOUS
10
115.1885819999999967
20
-97.3700970000000012
11
115.1999999999999886
21
-97.4274999999999949
0
LINE
8
BLACK
6
CONTINUOUS
10
115.1999999999999886
20
-97.4274999999999949
11
115.1999999999999886
21
-98.602499999999992
0
LINE
8
BLACK
6
CONTINUOUS
10
115.1999999999999886
20
-98.602499999999992
11
115.1885819999999967
21
-98.6599029999999999
0
LINE
8
BLACK
6
CONTINUOUS
10
115.1885819999999967
20
-98.6599029999999999
11
115.1560659999999956
21
-98.7085659999999905
0
LINE
8
BLACK
6
CONTINUOUS
10
115.1560659999999956
20
-98.7085659999999905
11
115.1074029999999908
21
-98.7410819999999916
0
LINE
8
BLACK
6
CONTINUOUS
10
115.1074029999999908
20
-98.7410819999999916
11
115.0499999999999972
21
-98.7524999999999977
0
LINE
8
BLACK
6
CONTINUOUS
10
115.0499999999999972
20
-98.7524999999999977
11
114.75
21
-98.7524999999999977
0
LINE
8
BLACK
6
CONTINUOUS
10
114.75
20
-98.7524999999999977
11
114.6925969999999921
21
-98.7410819999999916
0
LINE
8
BLACK
6
CONTINUOUS
10
114.6925969999999921
20
-98.7410819999999916
11
114.6439340000000016
21
-98.7085659999999905
0
LINE
8
BLACK
6
CONTINUOUS
10
114.6439340000000016
20
-98.7085659999999905
11
114.6114180000000005
21
-98.6599029999999999
0
LINE
8
BLACK
6
CONTINUOUS
10
114.6114180000000005
20
-98.6599029999999999
11
114.5999999999999943
21
-98.602499999999992
0
LINE
8
BLACK
6
CONTINUOUS
10
114.5999999999999943
20
-98.602499999999992
11
114.5999999999999943
21
-97.4274999999999949
0
LINE
8
BLACK
6
CONTINUOUS
10
114.5999999999999943
20
-97.4274999999999949
11
114.6114180000000005
21
-97.3700970000000012
0
LINE
8
BLACK
6
CONTINUOUS
10
114.6114180000000005
20
-97.3700970000000012
11
114.6439340000000016
21
-97.3214339999999964
0
LINE
8
BLACK
6
CONTINUOUS
10
114.6439340000000016
20
-97.3214339999999964
11
114.6925969999999921
21
-97.2889179999999953
0
LINE
8
BLACK
6
CONTINUOUS
10
114.6925969999999921
20
-97.2889179999999953
11
114.75
21
-97.2774999999999892
0
LINE
8
BLACK
6
CONTINUOUS
10
114.75
20
-97.2774999999999892
11
115.0499999999999972
21
-97.2774999999999892
0
LINE
8
BLACK
6
CONTINUOUS
10
115.0499999999999972
20
-97.2774999999999892
11
115.1074029999999908
21
-97.2889179999999953
0
LINE
8
BLACK
6
CONTINUOUS
10
104.3483869999999882
20
-97.7055790000000002
11
104.4254379999999998
21
-97.7570619999999906
0
LINE
8
BLACK
6
CONTINUOUS
10
104.4254379999999998
20
-97.7570619999999906
11
104.4769209999999902
21
-97.8341130000000021
0
LINE
8
BLACK
6
CONTINUOUS
10
104.4769209999999902
20
-97.8341130000000021
11
104.4949999999999903
21
-97.9249999999999972
0
LINE
8
BLACK
6
CONTINUOUS
10
104.4949999999999903
20
-97.9249999999999972
11
104.4949999999999903
21
-98.4249999999999972
0
LINE
8
BLACK
6
CONTINUOUS
10
104.4949999999999903
20
-98.4249999999999972
11
104.4769209999999902
21
-98.5158869999999922
0
LINE
8
BLACK
6
CONTINUOUS
10
104.4769209999999902
20
-98.5158869999999922
11
104.4254379999999998
21
-98.5929379999999895
0
LINE
8
BLACK
6
CONTINUOUS
10
104.4254379999999998
20
-98.5929379999999895
11
104.3483869999999882
21
-98.6444209999999941
0
LINE
8
BLACK
6
CONTINUOUS
10
104.3483869999999882
20
-98.6444209999999941
11
104.2574999999999932
21
-98.6624999999999943
0
LINE
8
BLACK
6
CONTINUOUS
10
104.2574999999999932
20
-98.6624999999999943
11
103.7824999999999989
21
-98.6624999999999943
0
LINE
8
BLACK
6
CONTINUOUS
10
103.7824999999999989
20
-98.6624999999999943
11
103.6916129999999896
21
-98.6444209999999941
0
LINE
8
BLACK
6
CONTINUOUS
10
103.6916129999999896
20
-98.6444209999999941
11
103.6145619999999923
21
-98.5929379999999895
0
LINE
8
BLACK
6
CONTINUOUS
10
103.6145619999999923
20
-98.5929379999999895
11
103.5630790000000019
21
-98.5158869999999922
0
LINE
8
BLACK
6
CONTINUOUS
10
103.5630790000000019
20
-98.5158869999999922
11
103.5450000000000017
21
-98.4249999999999972
0
LINE
8
BLACK
6
CONTINUOUS
10
103.5450000000000017
20
-98.4249999999999972
11
103.5450000000000017
21
-97.9249999999999972
0
LINE
8
BLACK
6
CONTINUOUS
10
103.5450000000000017
20
-97.9249999999999972
11
103.5630790000000019
21
-97.8341130000000021
0
LINE
8
BLACK
6
CONTINUOUS
10
103.5630790000000019
20
-97.8341130000000021
11
103.6145619999999923
21
-97.7570619999999906
0
LINE
8
BLACK
6
CONTINUOUS
10
103.6145619999999923
20
-97.7570619999999906
11
103.6916129999999896
21
-97.7055790000000002
0
LINE
8
BLACK
6
CONTINUOUS
10
103.6916129999999896
20
-97.7055790000000002
11
103.7824999999999989
21
-97.6875
0
LINE
8
BLACK
6
CONTINUOUS
10
103.7824999999999989
20
-97.6875
11
104.2574999999999932
21
-97.6875
0
LINE
8
BLACK
6
CONTINUOUS
10
104.2574999999999932
20
-97.6875
11
104.3483869999999882
21
-97.7055790000000002
0
LINE
8
BLACK
6
CONTINUOUS
10
107.3399999999999892
20
-98.1499999999999915
11
106.3399999999999892
21
-98.1499999999999915
0
LINE
8
BLACK
6
CONTINUOUS
10
106.3399999999999892
20
-98.1499999999999915
11
106.3399999999999892
21
-97.1499999999999915
0
LINE
8
BLACK
6
CONTINUOUS
10
106.3399999999999892
20
-97.1499999999999915
11
107.3399999999999892
21
-97.1499999999999915
0
LINE
8
BLACK
6
CONTINUOUS
10
107.3399999999999892
20
-97.1499999999999915
11
107.3399999999999892
21
-98.1499999999999915
0
LINE
8
BLACK
6
CONTINUOUS
10
122.6711039999999997
20
-97.0796270000000021
11
122.7440989999999914
21
-97.1284009999999967
0
LINE
8
BLACK
6
CONTINUOUS
10
122.7440989999999914
20
-97.1284009999999967
11
122.7928730000000002
21
-97.2013960000000026
0
LINE
8
BLACK
6
CONTINUOUS
10
122.7928730000000002
20
-97.2013960000000026
11
122.8099999999999881
21
-97.2874999999999943
0
LINE
8
BLACK
6
CONTINUOUS
10
122.8099999999999881
20
-97.2874999999999943
11
122.8099999999999881
21
-97.7374999999999972
0
LINE
8
BLACK
6
CONTINUOUS
10
122.8099999999999881
20
-97.7374999999999972
11
122.7928730000000002
21
-97.8236039999999889
0
LINE
8
BLACK
6
CONTINUOUS
10
122.7928730000000002
20
-97.8236039999999889
11
122.7440989999999914
21
-97.8965989999999948
0
LINE
8
BLACK
6
CONTINUOUS
10
122.7440989999999914
20
-97.8965989999999948
11
122.6711039999999997
21
-97.9453729999999894
0
LINE
8
BLACK
6
CONTINUOUS
10
122.6711039999999997
20
-97.9453729999999894
11
122.5849999999999937
21
-97.9624999999999915
0
LINE
8
BLACK
6
CONTINUOUS
10
122.5849999999999937
20
-97.9624999999999915
11
121.7349999999999994
21
-97.9624999999999915
0
LINE
8
BLACK
6
CONTINUOUS
10
121.7349999999999994
20
-97.9624999999999915
11
121.6488959999999935
21
-97.9453729999999894
0
LINE
8
BLACK
6
CONTINUOUS
10
121.6488959999999935
20
-97.9453729999999894
11
121.5759009999999876
21
-97.8965989999999948
0
LINE
8
BLACK
6
CONTINUOUS
10
121.5759009999999876
20
-97.8965989999999948
11
121.527126999999993
21
-97.8236039999999889
0
LINE
8
BLACK
6
CONTINUOUS
10
121.527126999999993
20
-97.8236039999999889
11
121.5099999999999909
21
-97.7374999999999972
0
LINE
8
BLACK
6
CONTINUOUS
10
121.5099999999999909
20
-97.7374999999999972
11
121.5099999999999909
21
-97.2874999999999943
0
LINE
8
BLACK
6
CONTINUOUS
10
121.5099999999999909
20
-97.2874999999999943
11
121.527126999999993
21
-97.2013960000000026
0
LINE
8
BLACK
6
CONTINUOUS
10
121.527126999999993
20
-97.2013960000000026
11
121.5759009999999876
21
-97.1284009999999967
0
LINE
8
BLACK
6
CONTINUOUS
10
121.5759009999999876
20
-97.1284009999999967
11
121.6488959999999935
21
-97.0796270000000021
0
LINE
8
BLACK
6
CONTINUOUS
10
121.6488959999999935
20
-97.0796270000000021
11
121.7349999999999994
21
-97.0625
0
LINE
8
BLACK
6
CONTINUOUS
10
121.7349999999999994
20
-97.0625
11
122.5849999999999937
21
-97.0625
0
LINE
8
BLACK
6
CONTINUOUS
10
122.5849999999999937
20
-97.0625
11
122.6711039999999997
21
-97.0796270000000021
0
LINE
8
BLACK
6
CONTINUOUS
10
100.4608869999999996
20
-96.9980789999999899
11
100.5379379999999969
21
-97.0495619999999946
0
LINE
8
BLACK
6
CONTINUOUS
10
100.5379379999999969
20
-97.0495619999999946
11
100.5894210000000015
21
-97.1266129999999919
0
LINE
8
BLACK
6
CONTINUOUS
10
100.5894210000000015
20
-97.1266129999999919
11
100.6075000000000017
21
-97.2175000000000011
0
LINE
8
BLACK
6
CONTINUOUS
10
100.6075000000000017
20
-97.2175000000000011
11
100.6075000000000017
21
-97.6924999999999955
0
LINE
8
BLACK
6
CONTINUOUS
10
100.6075000000000017
20
-97.6924999999999955
11
100.5894210000000015
21
-97.7833869999999905
0
LINE
8
BLACK
6
CONTINUOUS
10
100.5894210000000015
20
-97.7833869999999905
11
100.5379379999999969
21
-97.860438000000002
0
LINE
8
BLACK
6
CONTINUOUS
10
100.5379379999999969
20
-97.860438000000002
11
100.4608869999999996
21
-97.9119209999999924
0
LINE
8
BLACK
6
CONTINUOUS
10
100.4608869999999996
20
-97.9119209999999924
11
100.3699999999999903
21
-97.9299999999999926
0
LINE
8
BLACK
6
CONTINUOUS
10
100.3699999999999903
20
-97.9299999999999926
11
99.8699999999999903
21
-97.9299999999999926
0
LINE
8
BLACK
6
CONTINUOUS
10
99.8699999999999903
20
-97.9299999999999926
11
99.7791129999999953
21
-97.9119209999999924
0
LINE
8
BLACK
6
CONTINUOUS
10
99.7791129999999953
20
-97.9119209999999924
11
99.702061999999998
21
-97.860438000000002
0
LINE
8
BLACK
6
CONTINUOUS
10
99.702061999999998
20
-97.860438000000002
11
99.6505789999999934
21
-97.7833869999999905
0
LINE
8
BLACK
6
CONTINUOUS
10
99.6505789999999934
20
-97.7833869999999905
11
99.6324999999999932
21
-97.6924999999999955
0
LINE
8
BLACK
6
CONTINUOUS
10
99.6324999999999932
20
-97.6924999999999955
11
99.6324999999999932
21
-97.2175000000000011
0
LINE
8
BLACK
6
CONTINUOUS
10
99.6324999999999932
20
-97.2175000000000011
11
99.6505789999999934
21
-97.1266129999999919
0
LINE
8
BLACK
6
CONTINUOUS
10
99.6505789999999934
20
-97.1266129999999919
11
99.702061999999998
21
-97.0495619999999946
0
LINE
8
BLACK
6
CONTINUOUS
10
99.702061999999998
20
-97.0495619999999946
11
99.7791129999999953
21
-96.9980789999999899
0
LINE
8
BLACK
6
CONTINUOUS
10
99.7791129999999953
20
-96.9980789999999899
11
99.8699999999999903
21
-96.9799999999999898
0
LINE
8
BLACK
6
CONTINUOUS
10
99.8699999999999903
20
-96.9799999999999898
11
100.3699999999999903
21
-96.9799999999999898
0
LINE
8
BLACK
6
CONTINUOUS
10
100.3699999999999903
20
-96.9799999999999898
11
100.4608869999999996
21
-96.9980789999999899
0
LINE
8
BLACK
6
CONTINUOUS
10
102.2858870000000024
20
-96.9980789999999899
11
102.3629379999999998
21
-97.0495619999999946
0
LINE
8
BLACK
6
CONTINUOUS
10
102.3629379999999998
20
-97.0495619999999946
11
102.4144209999999902
21
-97.1266129999999919
0
LINE
8
BLACK
6
CONTINUOUS
10
102.4144209999999902
20
-97.1266129999999919
11
102.4324999999999903
21
-97.2175000000000011
0
LINE
8
BLACK
6
CONTINUOUS
10
102.4324999999999903
20
-97.2175000000000011
11
102.4324999999999903
21
-97.6924999999999955
0
LINE
8
BLACK
6
CONTINUOUS
10
102.4324999999999903
20
-97.6924999999999955
11
102.4144209999999902
21
-97.7833869999999905
0
LINE
8
BLACK
6
CONTINUOUS
10
102.4144209999999902
20
-97.7833869999999905
11
102.3629379999999998
21
-97.860438000000002
0
LINE
8
BLACK
6
CONTINUOUS
10
102.3629379999999998
20
-97.860438000000002
11
102.2858870000000024
21
-97.9119209999999924
0
LINE
8
BLACK
6
CONTINUOUS
10
102.2858870000000024
20
-97.9119209999999924
11
102.1949999999999932
21
-97.9299999999999926
0
LINE
8
BLACK
6
CONTINUOUS
10
102.1949999999999932
20
-97.9299999999999926
11
101.6949999999999932
21
-97.9299999999999926
0
LINE
8
BLACK
6
CONTINUOUS
10
101.6949999999999932
20
-97.9299999999999926
11
101.6041129999999981
21
-97.9119209999999924
0
LINE
8
BLACK
6
CONTINUOUS
10
101.6041129999999981
20
-97.9119209999999924
11
101.5270620000000008
21
-97.860438000000002
0
LINE
8
BLACK
6
CONTINUOUS
10
101.5270620000000008
20
-97.860438000000002
11
101.4755789999999962
21
-97.7833869999999905
0
LINE
8
BLACK
6
CONTINUOUS
10
101.4755789999999962
20
-97.7833869999999905
11
101.457499999999996
21
-97.6924999999999955
0
LINE
8
BLACK
6
CONTINUOUS
10
101.457499999999996
20
-97.6924999999999955
11
101.457499999999996
21
-97.2175000000000011
0
LINE
8
BLACK
6
CONTINUOUS
10
101.457499999999996
20
-97.2175000000000011
11
101.4755789999999962
21
-97.1266129999999919
0
LINE
8
BLACK
6
CONTINUOUS
10
101.4755789999999962
20
-97.1266129999999919
11
101.5270620000000008
21
-97.0495619999999946
0
LINE
8
BLACK
6
CONTINUOUS
10
101.5270620000000008
20
-97.0495619999999946
11
101.6041129999999981
21
-96.9980789999999899
0
LINE
8
BLACK
6
CONTINUOUS
10
101.6041129999999981
20
-96.9980789999999899
11
101.6949999999999932
21
-96.9799999999999898
0
LINE
8
BLACK
6
CONTINUOUS
10
101.6949999999999932
20
-96.9799999999999898
11
102.1949999999999932
21
-96.9799999999999898
0
LINE
8
BLACK
6
CONTINUOUS
10
102.1949999999999932
20
-96.9799999999999898
11
102.2858870000000024
21
-96.9980789999999899
0
LINE
8
BLACK
6
CONTINUOUS
10
124.1383869999999945
20
-95.5030789999999996
11
124.2154379999999918
21
-95.55456199999999
0
LINE
8
BLACK
6
CONTINUOUS
10
124.2154379999999918
20
-95.55456199999999
11
124.2669209999999964
21
-95.6316130000000015
0
LINE
8
BLACK
6
CONTINUOUS
10
124.2669209999999964
20
-95.6316130000000015
11
124.2849999999999966
21
-95.7224999999999966
0
LINE
8
BLACK
6
CONTINUOUS
10
124.2849999999999966
20
-95.7224999999999966
11
124.2849999999999966
21
-96.3224999999999909
0
LINE
8
BLACK
6
CONTINUOUS
10
124.2849999999999966
20
-96.3224999999999909
11
124.2669209999999964
21
-96.4133870000000002
0
LINE
8
BLACK
6
CONTINUOUS
10
124.2669209999999964
20
-96.4133870000000002
11
124.2154379999999918
21
-96.4904379999999975
0
LINE
8
BLACK
6
CONTINUOUS
10
124.2154379999999918
20
-96.4904379999999975
11
124.1606429999999932
21
-96.527048999999991
0
LINE
8
BLACK
6
CONTINUOUS
10
124.1606429999999932
20
-96.527048999999991
11
124.1783870000000007
21
-96.5305789999999888
0
LINE
8
BLACK
6
CONTINUOUS
10
124.1783870000000007
20
-96.5305789999999888
11
124.2554379999999981
21
-96.5820619999999934
0
LINE
8
BLACK
6
CONTINUOUS
10
124.2554379999999981
20
-96.5820619999999934
11
124.3069209999999885
21
-96.6591129999999907
0
LINE
8
BLACK
6
CONTINUOUS
10
124.3069209999999885
20
-96.6591129999999907
11
124.3249999999999886
21
-96.75
0
LINE
8
BLACK
6
CONTINUOUS
10
124.3249999999999886
20
-96.75
11
124.3249999999999886
21
-97.3499999999999943
0
LINE
8
BLACK
6
CONTINUOUS
10
124.3249999999999886
20
-97.3499999999999943
11
124.3069209999999885
21
-97.4408869999999894
0
LINE
8
BLACK
6
CONTINUOUS
10
124.3069209999999885
20
-97.4408869999999894
11
124.2554379999999981
21
-97.5179380000000009
0
LINE
8
BLACK
6
CONTINUOUS
10
124.2554379999999981
20
-97.5179380000000009
11
124.1783870000000007
21
-97.5694209999999913
0
LINE
8
BLACK
6
CONTINUOUS
10
124.1783870000000007
20
-97.5694209999999913
11
124.0874999999999915
21
-97.5874999999999915
0
LINE
8
BLACK
6
CONTINUOUS
10
124.0874999999999915
20
-97.5874999999999915
11
123.6124999999999972
21
-97.5874999999999915
0
LINE
8
BLACK
6
CONTINUOUS
10
123.6124999999999972
20
-97.5874999999999915
11
123.5216129999999879
21
-97.5694209999999913
0
LINE
8
BLACK
6
CONTINUOUS
10
123.5216129999999879
20
-97.5694209999999913
11
123.4445619999999906
21
-97.5179380000000009
0
LINE
8
BLACK
6
CONTINUOUS
10
123.4445619999999906
20
-97.5179380000000009
11
123.3930790000000002
21
-97.4408869999999894
0
LINE
8
BLACK
6
CONTINUOUS
10
123.3930790000000002
20
-97.4408869999999894
11
123.375
21
-97.3499999999999943
0
LINE
8
BLACK
6
CONTINUOUS
10
123.375
20
-97.3499999999999943
11
123.375
21
-96.75
0
LINE
8
BLACK
6
CONTINUOUS
10
123.375
20
-96.75
11
123.3930790000000002
21
-96.6591129999999907
0
LINE
8
BLACK
6
CONTINUOUS
10
123.3930790000000002
20
-96.6591129999999907
11
123.4445619999999906
21
-96.5820619999999934
0
LINE
8
BLACK
6
CONTINUOUS
10
123.4445619999999906
20
-96.5820619999999934
11
123.4993559999999917
21
-96.5454500000000024
0
LINE
8
BLACK
6
CONTINUOUS
10
123.4993559999999917
20
-96.5454500000000024
11
123.4816129999999958
21
-96.5419210000000021
0
LINE
8
BLACK
6
CONTINUOUS
10
123.4816129999999958
20
-96.5419210000000021
11
123.4045619999999985
21
-96.4904379999999975
0
LINE
8
BLACK
6
CONTINUOUS
10
123.4045619999999985
20
-96.4904379999999975
11
123.3530789999999939
21
-96.4133870000000002
0
LINE
8
BLACK
6
CONTINUOUS
10
123.3530789999999939
20
-96.4133870000000002
11
123.3349999999999937
21
-96.3224999999999909
0
LINE
8
BLACK
6
CONTINUOUS
10
123.3349999999999937
20
-96.3224999999999909
11
123.3349999999999937
21
-95.7224999999999966
0
LINE
8
BLACK
6
CONTINUOUS
10
123.3349999999999937
20
-95.7224999999999966
11
123.3530789999999939
21
-95.6316130000000015
0
LINE
8
BLACK
6
CONTINUOUS
10
123.3530789999999939
20
-95.6316130000000015
11
123.4045619999999985
21
-95.55456199999999
0
LINE
8
BLACK
6
CONTINUOUS
10
123.4045619999999985
20
-95.55456199999999
11
123.4816129999999958
21
-95.5030789999999996
0
LINE
8
BLACK
6
CONTINUOUS
10
123.4816129999999958
20
-95.5030789999999996
11
123.5724999999999909
21
-95.4849999999999994
0
LINE
8
BLACK
6
CONTINUOUS
10
123.5724999999999909
20
-95.4849999999999994
11
124.0474999999999994
21
-95.4849999999999994
0
LINE
8
BLACK
6
CONTINUOUS
10
124.0474999999999994
20
-95.4849999999999994
11
124.1383869999999945
21
-95.5030789999999996
0
LINE
8
BLACK
6
CONTINUOUS
10
111.8483869999999882
20
-96.2555789999999973
11
111.9254379999999998
21
-96.3070620000000019
0
LINE
8
BLACK
6
CONTINUOUS
10
111.9254379999999998
20
-96.3070620000000019
11
111.9769209999999902
21
-96.3841129999999993
0
LINE
8
BLACK
6
CONTINUOUS
10
111.9769209999999902
20
-96.3841129999999993
11
111.9949999999999903
21
-96.4749999999999943
0
LINE
8
BLACK
6
CONTINUOUS
10
111.9949999999999903
20
-96.4749999999999943
11
111.9949999999999903
21
-96.9749999999999943
0
LINE
8
BLACK
6
CONTINUOUS
10
111.9949999999999903
20
-96.9749999999999943
11
111.9769209999999902
21
-97.0658869999999894
0
LINE
8
BLACK
6
CONTINUOUS
10
111.9769209999999902
20
-97.0658869999999894
11
111.9254379999999998
21
-97.1429380000000009
0
LINE
8
BLACK
6
CONTINUOUS
10
111.9254379999999998
20
-97.1429380000000009
11
111.8483869999999882
21
-97.1944209999999913
0
LINE
8
BLACK
6
CONTINUOUS
10
111.8483869999999882
20
-97.1944209999999913
11
111.7574999999999932
21
-97.2124999999999915
0
LINE
8
BLACK
6
CONTINUOUS
10
111.7574999999999932
20
-97.2124999999999915
11
111.2824999999999989
21
-97.2124999999999915
0
LINE
8
BLACK
6
CONTINUOUS
10
111.2824999999999989
20
-97.2124999999999915
11
111.1916129999999896
21
-97.1944209999999913
0
LINE
8
BLACK
6
CONTINUOUS
10
111.1916129999999896
20
-97.1944209999999913
11
111.1145619999999923
21
-97.1429380000000009
0
LINE
8
BLACK
6
CONTINUOUS
10
111.1145619999999923
20
-97.1429380000000009
11
111.0630790000000019
21
-97.0658869999999894
0
LINE
8
BLACK
6
CONTINUOUS
10
111.0630790000000019
20
-97.0658869999999894
11
111.0450000000000017
21
-96.9749999999999943
0
LINE
8
BLACK
6
CONTINUOUS
10
111.0450000000000017
20
-96.9749999999999943
11
111.0450000000000017
21
-96.4749999999999943
0
LINE
8
BLACK
6
CONTINUOUS
10
111.0450000000000017
20
-96.4749999999999943
11
111.0630790000000019
21
-96.3841129999999993
0
LINE
8
BLACK
6
CONTINUOUS
10
111.0630790000000019
20
-96.3841129999999993
11
111.1145619999999923
21
-96.3070620000000019
0
LINE
8
BLACK
6
CONTINUOUS
10
111.1145619999999923
20
-96.3070620000000019
11
111.1916129999999896
21
-96.2555789999999973
0
LINE
8
BLACK
6
CONTINUOUS
10
111.1916129999999896
20
-96.2555789999999973
11
111.2824999999999989
21
-96.2374999999999972
0
LINE
8
BLACK
6
CONTINUOUS
10
111.2824999999999989
20
-96.2374999999999972
11
111.7574999999999932
21
-96.2374999999999972
0
LINE
8
BLACK
6
CONTINUOUS
10
111.7574999999999932
20
-96.2374999999999972
11
111.8483869999999882
21
-96.2555789999999973
0
LINE
8
BLACK
6
CONTINUOUS
10
121.3349999999999937
20
-95.5625
11
122.8099999999999881
21
-95.5625
0
LINE
8
BLACK
6
CONTINUOUS
10
122.8099999999999881
20
-95.5625
11
122.8099999999999881
21
-96.4624999999999915
0
LINE
8
BLACK
6
CONTINUOUS
10
122.8099999999999881
20
-96.4624999999999915
11
121.3349999999999937
21
-96.4624999999999915
0
LINE
8
BLACK
6
CONTINUOUS
10
121.3349999999999937
20
-96.4624999999999915
11
121.3349999999999937
21
-96.8789999999999907
0
LINE
8
BLACK
6
CONTINUOUS
10
121.3349999999999937
20
-96.8789999999999907
11
118.2099999999999937
21
-96.8789999999999907
0
LINE
8
BLACK
6
CONTINUOUS
10
118.2099999999999937
20
-96.8789999999999907
11
118.2099999999999937
21
-95.1460000000000008
0
LINE
8
BLACK
6
CONTINUOUS
10
118.2099999999999937
20
-95.1460000000000008
11
121.3349999999999937
21
-95.1460000000000008
0
LINE
8
BLACK
6
CONTINUOUS
10
121.3349999999999937
20
-95.1460000000000008
11
121.3349999999999937
21
-95.5625
0
LINE
8
BLACK
6
CONTINUOUS
10
114.157402999999988
20
-95.4139179999999953
11
114.2060659999999928
21
-95.4464339999999964
0
LINE
8
BLACK
6
CONTINUOUS
10
114.2060659999999928
20
-95.4464339999999964
11
114.2385819999999939
21
-95.4950970000000012
0
LINE
8
BLACK
6
CONTINUOUS
10
114.2385819999999939
20
-95.4950970000000012
11
114.25
21
-95.5524999999999949
0
LINE
8
BLACK
6
CONTINUOUS
10
114.25
20
-95.5524999999999949
11
114.25
21
-96.727499999999992
0
LINE
8
BLACK
6
CONTINUOUS
10
114.25
20
-96.727499999999992
11
114.2385819999999939
21
-96.7849029999999999
0
LINE
8
BLACK
6
CONTINUOUS
10
114.2385819999999939
20
-96.7849029999999999
11
114.2060659999999928
21
-96.8335659999999905
0
LINE
8
BLACK
6
CONTINUOUS
10
114.2060659999999928
20
-96.8335659999999905
11
114.157402999999988
21
-96.8660819999999916
0
LINE
8
BLACK
6
CONTINUOUS
10
114.157402999999988
20
-96.8660819999999916
11
114.0999999999999943
21
-96.8774999999999977
0
LINE
8
BLACK
6
CONTINUOUS
10
114.0999999999999943
20
-96.8774999999999977
11
113.7999999999999972
21
-96.8774999999999977
0
LINE
8
BLACK
6
CONTINUOUS
10
113.7999999999999972
20
-96.8774999999999977
11
113.7425969999999893
21
-96.8660819999999916
0
LINE
8
BLACK
6
CONTINUOUS
10
113.7425969999999893
20
-96.8660819999999916
11
113.6939339999999987
21
-96.8335659999999905
0
LINE
8
BLACK
6
CONTINUOUS
10
113.6939339999999987
20
-96.8335659999999905
11
113.6614179999999976
21
-96.7849029999999999
0
LINE
8
BLACK
6
CONTINUOUS
10
113.6614179999999976
20
-96.7849029999999999
11
113.6499999999999915
21
-96.727499999999992
0
LINE
8
BLACK
6
CONTINUOUS
10
113.6499999999999915
20
-96.727499999999992
11
113.6499999999999915
21
-95.5524999999999949
0
LINE
8
BLACK
6
CONTINUOUS
10
113.6499999999999915
20
-95.5524999999999949
11
113.6614179999999976
21
-95.4950970000000012
0
LINE
8
BLACK
6
CONTINUOUS
10
113.6614179999999976
20
-95.4950970000000012
11
113.6939339999999987
21
-95.4464339999999964
0
LINE
8
BLACK
6
CONTINUOUS
10
113.6939339999999987
20
-95.4464339999999964
11
113.7425969999999893
21
-95.4139179999999953
0
LINE
8
BLACK
6
CONTINUOUS
10
113.7425969999999893
20
-95.4139179999999953
11
113.7999999999999972
21
-95.4024999999999892
0
LINE
8
BLACK
6
CONTINUOUS
10
113.7999999999999972
20
-95.4024999999999892
11
114.0999999999999943
21
-95.4024999999999892
0
LINE
8
BLACK
6
CONTINUOUS
10
114.0999999999999943
20
-95.4024999999999892
11
114.157402999999988
21
-95.4139179999999953
0
LINE
8
BLACK
6
CONTINUOUS
10
104.3483869999999882
20
-95.8805789999999973
11
104.4254379999999998
21
-95.9320620000000019
0
LINE
8
BLACK
6
CONTINUOUS
10
104.4254379999999998
20
-95.9320620000000019
11
104.4769209999999902
21
-96.0091129999999993
0
LINE
8
BLACK
6
CONTINUOUS
10
104.4769209999999902
20
-96.0091129999999993
11
104.4949999999999903
21
-96.0999999999999943
0
LINE
8
BLACK
6
CONTINUOUS
10
104.4949999999999903
20
-96.0999999999999943
11
104.4949999999999903
21
-96.5999999999999943
0
LINE
8
BLACK
6
CONTINUOUS
10
104.4949999999999903
20
-96.5999999999999943
11
104.4769209999999902
21
-96.6908869999999894
0
LINE
8
BLACK
6
CONTINUOUS
10
104.4769209999999902
20
-96.6908869999999894
11
104.4254379999999998
21
-96.7679380000000009
0
LINE
8
BLACK
6
CONTINUOUS
10
104.4254379999999998
20
-96.7679380000000009
11
104.3483869999999882
21
-96.8194209999999913
0
LINE
8
BLACK
6
CONTINUOUS
10
104.3483869999999882
20
-96.8194209999999913
11
104.2574999999999932
21
-96.8374999999999915
0
LINE
8
BLACK
6
CONTINUOUS
10
104.2574999999999932
20
-96.8374999999999915
11
103.7824999999999989
21
-96.8374999999999915
0
LINE
8
BLACK
6
CONTINUOUS
10
103.7824999999999989
20
-96.8374999999999915
11
103.6916129999999896
21
-96.8194209999999913
0
LINE
8
BLACK
6
CONTINUOUS
10
103.6916129999999896
20
-96.8194209999999913
11
103.6145619999999923
21
-96.7679380000000009
0
LINE
8
BLACK
6
CONTINUOUS
10
103.6145619999999923
20
-96.7679380000000009
11
103.5630790000000019
21
-96.6908869999999894
0
LINE
8
BLACK
6
CONTINUOUS
10
103.5630790000000019
20
-96.6908869999999894
11
103.5450000000000017
21
-96.5999999999999943
0
LINE
8
BLACK
6
CONTINUOUS
10
103.5450000000000017
20
-96.5999999999999943
11
103.5450000000000017
21
-96.0999999999999943
0
LINE
8
BLACK
6
CONTINUOUS
10
103.5450000000000017
20
-96.0999999999999943
11
103.5630790000000019
21
-96.0091129999999993
0
LINE
8
BLACK
6
CONTINUOUS
10
103.5630790000000019
20
-96.0091129999999993
11
103.6145619999999923
21
-95.9320620000000019
0
LINE
8
BLACK
6
CONTINUOUS
10
103.6145619999999923
20
-95.9320620000000019
11
103.6916129999999896
21
-95.8805789999999973
0
LINE
8
BLACK
6
CONTINUOUS
10
103.6916129999999896
20
-95.8805789999999973
11
103.7824999999999989
21
-95.8624999999999972
0
LINE
8
BLACK
6
CONTINUOUS
10
103.7824999999999989
20
-95.8624999999999972
11
104.2574999999999932
21
-95.8624999999999972
0
LINE
8
BLACK
6
CONTINUOUS
10
104.2574999999999932
20
-95.8624999999999972
11
104.3483869999999882
21
-95.8805789999999973
0
LINE
8
BLACK
6
CONTINUOUS
10
99.4124029999999976
20
-95.2989180000000005
11
99.4610660000000024
21
-95.3314340000000016
0
LINE
8
BLACK
6
CONTINUOUS
10
99.4610660000000024
20
-95.3314340000000016
11
99.4935819999999893
21
-95.3800969999999921
0
LINE
8
BLACK
6
CONTINUOUS
10
99.4935819999999893
20
-95.3800969999999921
11
99.5049999999999955
21
-95.4375
0
LINE
8
BLACK
6
CONTINUOUS
10
99.5049999999999955
20
-95.4375
11
99.5049999999999955
21
-96.4624999999999915
0
LINE
8
BLACK
6
CONTINUOUS
10
99.5049999999999955
20
-96.4624999999999915
11
99.4935819999999893
21
-96.5199029999999993
0
LINE
8
BLACK
6
CONTINUOUS
10
99.4935819999999893
20
-96.5199029999999993
11
99.4610660000000024
21
-96.5685659999999899
0
LINE
8
BLACK
6
CONTINUOUS
10
99.4610660000000024
20
-96.5685659999999899
11
99.4124029999999976
21
-96.601081999999991
0
LINE
8
BLACK
6
CONTINUOUS
10
99.4124029999999976
20
-96.601081999999991
11
99.3549999999999898
21
-96.6124999999999972
0
LINE
8
BLACK
6
CONTINUOUS
10
99.3549999999999898
20
-96.6124999999999972
11
99.0549999999999926
21
-96.6124999999999972
0
LINE
8
BLACK
6
CONTINUOUS
10
99.0549999999999926
20
-96.6124999999999972
11
98.997596999999999
21
-96.601081999999991
0
LINE
8
BLACK
6
CONTINUOUS
10
98.997596999999999
20
-96.601081999999991
11
98.9489339999999942
21
-96.5685659999999899
0
LINE
8
BLACK
6
CONTINUOUS
10
98.9489339999999942
20
-96.5685659999999899
11
98.9164179999999931
21
-96.5199029999999993
0
LINE
8
BLACK
6
CONTINUOUS
10
98.9164179999999931
20
-96.5199029999999993
11
98.9050000000000011
21
-96.4624999999999915
0
LINE
8
BLACK
6
CONTINUOUS
10
98.9050000000000011
20
-96.4624999999999915
11
98.9050000000000011
21
-95.4375
0
LINE
8
BLACK
6
CONTINUOUS
10
98.9050000000000011
20
-95.4375
11
98.9164179999999931
21
-95.3800969999999921
0
LINE
8
BLACK
6
CONTINUOUS
10
98.9164179999999931
20
-95.3800969999999921
11
98.9489339999999942
21
-95.3314340000000016
0
LINE
8
BLACK
6
CONTINUOUS
10
98.9489339999999942
20
-95.3314340000000016
11
98.997596999999999
21
-95.2989180000000005
0
LINE
8
BLACK
6
CONTINUOUS
10
98.997596999999999
20
-95.2989180000000005
11
99.0549999999999926
21
-95.2874999999999943
0
LINE
8
BLACK
6
CONTINUOUS
10
99.0549999999999926
20
-95.2874999999999943
11
99.3549999999999898
21
-95.2874999999999943
0
LINE
8
BLACK
6
CONTINUOUS
10
99.3549999999999898
20
-95.2874999999999943
11
99.4124029999999976
21
-95.2989180000000005
0
LINE
8
BLACK
6
CONTINUOUS
10
101.3124029999999891
20
-95.2989180000000005
11
101.3610659999999939
21
-95.3314340000000016
0
LINE
8
BLACK
6
CONTINUOUS
10
101.3610659999999939
20
-95.3314340000000016
11
101.393581999999995
21
-95.3800969999999921
0
LINE
8
BLACK
6
CONTINUOUS
10
101.393581999999995
20
-95.3800969999999921
11
101.4050000000000011
21
-95.4375
0
LINE
8
BLACK
6
CONTINUOUS
10
101.4050000000000011
20
-95.4375
11
101.4050000000000011
21
-96.4624999999999915
0
LINE
8
BLACK
6
CONTINUOUS
10
101.4050000000000011
20
-96.4624999999999915
11
101.393581999999995
21
-96.5199029999999993
0
LINE
8
BLACK
6
CONTINUOUS
10
101.393581999999995
20
-96.5199029999999993
11
101.3610659999999939
21
-96.5685659999999899
0
LINE
8
BLACK
6
CONTINUOUS
10
101.3610659999999939
20
-96.5685659999999899
11
101.3124029999999891
21
-96.601081999999991
0
LINE
8
BLACK
6
CONTINUOUS
10
101.3124029999999891
20
-96.601081999999991
11
101.2549999999999955
21
-96.6124999999999972
0
LINE
8
BLACK
6
CONTINUOUS
10
101.2549999999999955
20
-96.6124999999999972
11
100.9549999999999983
21
-96.6124999999999972
0
LINE
8
BLACK
6
CONTINUOUS
10
100.9549999999999983
20
-96.6124999999999972
11
100.8975969999999904
21
-96.601081999999991
0
LINE
8
BLACK
6
CONTINUOUS
10
100.8975969999999904
20
-96.601081999999991
11
100.8489339999999999
21
-96.5685659999999899
0
LINE
8
BLACK
6
CONTINUOUS
10
100.8489339999999999
20
-96.5685659999999899
11
100.8164179999999988
21
-96.5199029999999993
0
LINE
8
BLACK
6
CONTINUOUS
10
100.8164179999999988
20
-96.5199029999999993
11
100.8049999999999926
21
-96.4624999999999915
0
LINE
8
BLACK
6
CONTINUOUS
10
100.8049999999999926
20
-96.4624999999999915
11
100.8049999999999926
21
-95.4375
0
LINE
8
BLACK
6
CONTINUOUS
10
100.8049999999999926
20
-95.4375
11
100.8164179999999988
21
-95.3800969999999921
0
LINE
8
BLACK
6
CONTINUOUS
10
100.8164179999999988
20
-95.3800969999999921
11
100.8489339999999999
21
-95.3314340000000016
0
LINE
8
BLACK
6
CONTINUOUS
10
100.8489339999999999
20
-95.3314340000000016
11
100.8975969999999904
21
-95.2989180000000005
0
LINE
8
BLACK
6
CONTINUOUS
10
100.8975969999999904
20
-95.2989180000000005
11
100.9549999999999983
21
-95.2874999999999943
0
LINE
8
BLACK
6
CONTINUOUS
10
100.9549999999999983
20
-95.2874999999999943
11
101.2549999999999955
21
-95.2874999999999943
0
LINE
8
BLACK
6
CONTINUOUS
10
101.2549999999999955
20
-95.2874999999999943
11
101.3124029999999891
21
-95.2989180000000005
0
LINE
8
BLACK
6
CONTINUOUS
10
109.9200000000000017
20
-96.4299999999999926
11
108.2199999999999989
21
-96.4299999999999926
0
LINE
8
BLACK
6
CONTINUOUS
10
108.2199999999999989
20
-96.4299999999999926
11
108.2199999999999989
21
-95.5300000000000011
0
LINE
8
BLACK
6
CONTINUOUS
10
108.2199999999999989
20
-95.5300000000000011
11
109.9200000000000017
21
-95.5300000000000011
0
LINE
8
BLACK
6
CONTINUOUS
10
109.9200000000000017
20
-95.5300000000000011
11
109.9200000000000017
21
-96.4299999999999926
0
LINE
8
BLACK
6
CONTINUOUS
10
104.3633869999999888
20
-94.8280790000000025
11
104.4404380000000003
21
-94.8795619999999928
0
LINE
8
BLACK
6
CONTINUOUS
10
104.4404380000000003
20
-94.8795619999999928
11
104.4919209999999907
21
-94.9566129999999902
0
LINE
8
BLACK
6
CONTINUOUS
10
104.4919209999999907
20
-94.9566129999999902
11
104.5099999999999909
21
-95.0474999999999994
0
LINE
8
BLACK
6
CONTINUOUS
10
104.5099999999999909
20
-95.0474999999999994
11
104.5099999999999909
21
-95.6225000000000023
0
LINE
8
BLACK
6
CONTINUOUS
10
104.5099999999999909
20
-95.6225000000000023
11
104.4919209999999907
21
-95.7133869999999973
0
LINE
8
BLACK
6
CONTINUOUS
10
104.4919209999999907
20
-95.7133869999999973
11
104.4404380000000003
21
-95.7904379999999946
0
LINE
8
BLACK
6
CONTINUOUS
10
104.4404380000000003
20
-95.7904379999999946
11
104.3633869999999888
21
-95.8419209999999993
0
LINE
8
BLACK
6
CONTINUOUS
10
104.3633869999999888
20
-95.8419209999999993
11
104.2724999999999937
21
-95.8599999999999994
0
LINE
8
BLACK
6
CONTINUOUS
10
104.2724999999999937
20
-95.8599999999999994
11
103.7974999999999994
21
-95.8599999999999994
0
LINE
8
BLACK
6
CONTINUOUS
10
103.7974999999999994
20
-95.8599999999999994
11
103.7066129999999902
21
-95.8419209999999993
0
LINE
8
BLACK
6
CONTINUOUS
10
103.7066129999999902
20
-95.8419209999999993
11
103.6295619999999928
21
-95.7904379999999946
0
LINE
8
BLACK
6
CONTINUOUS
10
103.6295619999999928
20
-95.7904379999999946
11
103.5780789999999882
21
-95.7133869999999973
0
LINE
8
BLACK
6
CONTINUOUS
10
103.5780789999999882
20
-95.7133869999999973
11
103.5600000000000023
21
-95.6225000000000023
0
LINE
8
BLACK
6
CONTINUOUS
10
103.5600000000000023
20
-95.6225000000000023
11
103.5600000000000023
21
-95.0474999999999994
0
LINE
8
BLACK
6
CONTINUOUS
10
103.5600000000000023
20
-95.0474999999999994
11
103.5780789999999882
21
-94.9566129999999902
0
LINE
8
BLACK
6
CONTINUOUS
10
103.5780789999999882
20
-94.9566129999999902
11
103.6295619999999928
21
-94.8795619999999928
0
LINE
8
BLACK
6
CONTINUOUS
10
103.6295619999999928
20
-94.8795619999999928
11
103.7066129999999902
21
-94.8280790000000025
0
LINE
8
BLACK
6
CONTINUOUS
10
103.7066129999999902
20
-94.8280790000000025
11
103.7974999999999994
21
-94.8100000000000023
0
LINE
8
BLACK
6
CONTINUOUS
10
103.7974999999999994
20
-94.8100000000000023
11
104.2724999999999937
21
-94.8100000000000023
0
LINE
8
BLACK
6
CONTINUOUS
10
104.2724999999999937
20
-94.8100000000000023
11
104.3633869999999888
21
-94.8280790000000025
0
LINE
8
BLACK
6
CONTINUOUS
10
102.9033869999999951
20
-94.7980790000000013
11
102.9804379999999924
21
-94.8495619999999917
0
LINE
8
BLACK
6
CONTINUOUS
10
102.9804379999999924
20
-94.8495619999999917
11
103.031920999999997
21
-94.926612999999989
0
LINE
8
BLACK
6
CONTINUOUS
10
103.031920999999997
20
-94.926612999999989
11
103.0499999999999972
21
-95.0174999999999983
0
LINE
8
BLACK
6
CONTINUOUS
10
103.0499999999999972
20
-95.0174999999999983
11
103.0499999999999972
21
-95.5925000000000011
0
LINE
8
BLACK
6
CONTINUOUS
10
103.0499999999999972
20
-95.5925000000000011
11
103.031920999999997
21
-95.6833869999999962
0
LINE
8
BLACK
6
CONTINUOUS
10
103.031920999999997
20
-95.6833869999999962
11
102.9804379999999924
21
-95.7604379999999935
0
LINE
8
BLACK
6
CONTINUOUS
10
102.9804379999999924
20
-95.7604379999999935
11
102.9033869999999951
21
-95.8119209999999981
0
LINE
8
BLACK
6
CONTINUOUS
10
102.9033869999999951
20
-95.8119209999999981
11
102.8125
21
-95.8299999999999983
0
LINE
8
BLACK
6
CONTINUOUS
10
102.8125
20
-95.8299999999999983
11
102.3374999999999915
21
-95.8299999999999983
0
LINE
8
BLACK
6
CONTINUOUS
10
102.3374999999999915
20
-95.8299999999999983
11
102.2466129999999964
21
-95.8119209999999981
0
LINE
8
BLACK
6
CONTINUOUS
10
102.2466129999999964
20
-95.8119209999999981
11
102.1695619999999991
21
-95.7604379999999935
0
LINE
8
BLACK
6
CONTINUOUS
10
102.1695619999999991
20
-95.7604379999999935
11
102.1180789999999945
21
-95.6833869999999962
0
LINE
8
BLACK
6
CONTINUOUS
10
102.1180789999999945
20
-95.6833869999999962
11
102.0999999999999943
21
-95.5925000000000011
0
LINE
8
BLACK
6
CONTINUOUS
10
102.0999999999999943
20
-95.5925000000000011
11
102.0999999999999943
21
-95.0174999999999983
0
LINE
8
BLACK
6
CONTINUOUS
10
102.0999999999999943
20
-95.0174999999999983
11
102.1180789999999945
21
-94.926612999999989
0
LINE
8
BLACK
6
CONTINUOUS
10
102.1180789999999945
20
-94.926612999999989
11
102.1695619999999991
21
-94.8495619999999917
0
LINE
8
BLACK
6
CONTINUOUS
10
102.1695619999999991
20
-94.8495619999999917
11
102.2466129999999964
21
-94.7980790000000013
0
LINE
8
BLACK
6
CONTINUOUS
10
102.2466129999999964
20
-94.7980790000000013
11
102.3374999999999915
21
-94.7800000000000011
0
LINE
8
BLACK
6
CONTINUOUS
10
102.3374999999999915
20
-94.7800000000000011
11
102.8125
21
-94.7800000000000011
0
LINE
8
BLACK
6
CONTINUOUS
10
102.8125
20
-94.7800000000000011
11
102.9033869999999951
21
-94.7980790000000013
0
LINE
8
BLACK
6
CONTINUOUS
10
111.8483869999999882
20
-94.4305789999999945
11
111.9254379999999998
21
-94.4820619999999991
0
LINE
8
BLACK
6
CONTINUOUS
10
111.9254379999999998
20
-94.4820619999999991
11
111.9769209999999902
21
-94.5591129999999964
0
LINE
8
BLACK
6
CONTINUOUS
10
111.9769209999999902
20
-94.5591129999999964
11
111.9949999999999903
21
-94.6499999999999915
0
LINE
8
BLACK
6
CONTINUOUS
10
111.9949999999999903
20
-94.6499999999999915
11
111.9949999999999903
21
-95.1499999999999915
0
LINE
8
BLACK
6
CONTINUOUS
10
111.9949999999999903
20
-95.1499999999999915
11
111.9769209999999902
21
-95.2408870000000007
0
LINE
8
BLACK
6
CONTINUOUS
10
111.9769209999999902
20
-95.2408870000000007
11
111.9254379999999998
21
-95.3179379999999981
0
LINE
8
BLACK
6
CONTINUOUS
10
111.9254379999999998
20
-95.3179379999999981
11
111.8483869999999882
21
-95.3694210000000027
0
LINE
8
BLACK
6
CONTINUOUS
10
111.8483869999999882
20
-95.3694210000000027
11
111.7574999999999932
21
-95.3874999999999886
0
LINE
8
BLACK
6
CONTINUOUS
10
111.7574999999999932
20
-95.3874999999999886
11
111.2824999999999989
21
-95.3874999999999886
0
LINE
8
BLACK
6
CONTINUOUS
10
111.2824999999999989
20
-95.3874999999999886
11
111.1916129999999896
21
-95.3694210000000027
0
LINE
8
BLACK
6
CONTINUOUS
10
111.1916129999999896
20
-95.3694210000000027
11
111.1145619999999923
21
-95.3179379999999981
0
LINE
8
BLACK
6
CONTINUOUS
10
111.1145619999999923
20
-95.3179379999999981
11
111.0630790000000019
21
-95.2408870000000007
0
LINE
8
BLACK
6
CONTINUOUS
10
111.0630790000000019
20
-95.2408870000000007
11
111.0450000000000017
21
-95.1499999999999915
0
LINE
8
BLACK
6
CONTINUOUS
10
111.0450000000000017
20
-95.1499999999999915
11
111.0450000000000017
21
-94.6499999999999915
0
LINE
8
BLACK
6
CONTINUOUS
10
111.0450000000000017
20
-94.6499999999999915
11
111.0630790000000019
21
-94.5591129999999964
0
LINE
8
BLACK
6
CONTINUOUS
10
111.0630790000000019
20
-94.5591129999999964
11
111.1145619999999923
21
-94.4820619999999991
0
LINE
8
BLACK
6
CONTINUOUS
10
111.1145619999999923
20
-94.4820619999999991
11
111.1916129999999896
21
-94.4305789999999945
0
LINE
8
BLACK
6
CONTINUOUS
10
111.1916129999999896
20
-94.4305789999999945
11
111.2824999999999989
21
-94.4124999999999943
0
LINE
8
BLACK
6
CONTINUOUS
10
111.2824999999999989
20
-94.4124999999999943
11
111.7574999999999932
21
-94.4124999999999943
0
LINE
8
BLACK
6
CONTINUOUS
10
111.7574999999999932
20
-94.4124999999999943
11
111.8483869999999882
21
-94.4305789999999945
0
LINE
8
BLACK
6
CONTINUOUS
10
107.3599999999999994
20
-95.3499999999999943
11
106.3599999999999994
21
-95.3499999999999943
0
LINE
8
BLACK
6
CONTINUOUS
10
106.3599999999999994
20
-95.3499999999999943
11
106.3599999999999994
21
-94.3499999999999943
0
LINE
8
BLACK
6
CONTINUOUS
10
106.3599999999999994
20
-94.3499999999999943
11
107.3599999999999994
21
-94.3499999999999943
0
LINE
8
BLACK
6
CONTINUOUS
10
107.3599999999999994
20
-94.3499999999999943
11
107.3599999999999994
21
-95.3499999999999943
0
LINE
8
BLACK
6
CONTINUOUS
10
122.6711039999999997
20
-94.0796270000000021
11
122.7440989999999914
21
-94.1284009999999967
0
LINE
8
BLACK
6
CONTINUOUS
10
122.7440989999999914
20
-94.1284009999999967
11
122.7928730000000002
21
-94.2013960000000026
0
LINE
8
BLACK
6
CONTINUOUS
10
122.7928730000000002
20
-94.2013960000000026
11
122.8099999999999881
21
-94.2874999999999943
0
LINE
8
BLACK
6
CONTINUOUS
10
122.8099999999999881
20
-94.2874999999999943
11
122.8099999999999881
21
-94.7374999999999972
0
LINE
8
BLACK
6
CONTINUOUS
10
122.8099999999999881
20
-94.7374999999999972
11
122.7928730000000002
21
-94.8236039999999889
0
LINE
8
BLACK
6
CONTINUOUS
10
122.7928730000000002
20
-94.8236039999999889
11
122.7440989999999914
21
-94.8965989999999948
0
LINE
8
BLACK
6
CONTINUOUS
10
122.7440989999999914
20
-94.8965989999999948
11
122.6711039999999997
21
-94.9453729999999894
0
LINE
8
BLACK
6
CONTINUOUS
10
122.6711039999999997
20
-94.9453729999999894
11
122.5849999999999937
21
-94.9624999999999915
0
LINE
8
BLACK
6
CONTINUOUS
10
122.5849999999999937
20
-94.9624999999999915
11
121.7349999999999994
21
-94.9624999999999915
0
LINE
8
BLACK
6
CONTINUOUS
10
121.7349999999999994
20
-94.9624999999999915
11
121.6488959999999935
21
-94.9453729999999894
0
LINE
8
BLACK
6
CONTINUOUS
10
121.6488959999999935
20
-94.9453729999999894
11
121.5759009999999876
21
-94.8965989999999948
0
LINE
8
BLACK
6
CONTINUOUS
10
121.5759009999999876
20
-94.8965989999999948
11
121.527126999999993
21
-94.8236039999999889
0
LINE
8
BLACK
6
CONTINUOUS
10
121.527126999999993
20
-94.8236039999999889
11
121.5099999999999909
21
-94.7374999999999972
0
LINE
8
BLACK
6
CONTINUOUS
10
121.5099999999999909
20
-94.7374999999999972
11
121.5099999999999909
21
-94.2874999999999943
0
LINE
8
BLACK
6
CONTINUOUS
10
121.5099999999999909
20
-94.2874999999999943
11
121.527126999999993
21
-94.2013960000000026
0
LINE
8
BLACK
6
CONTINUOUS
10
121.527126999999993
20
-94.2013960000000026
11
121.5759009999999876
21
-94.1284009999999967
0
LINE
8
BLACK
6
CONTINUOUS
10
121.5759009999999876
20
-94.1284009999999967
11
121.6488959999999935
21
-94.0796270000000021
0
LINE
8
BLACK
6
CONTINUOUS
10
121.6488959999999935
20
-94.0796270000000021
11
121.7349999999999994
21
-94.0625
0
LINE
8
BLACK
6
CONTINUOUS
10
121.7349999999999994
20
-94.0625
11
122.5849999999999937
21
-94.0625
0
LINE
8
BLACK
6
CONTINUOUS
10
122.5849999999999937
20
-94.0625
11
122.6711039999999997
21
-94.0796270000000021
0
LINE
8
BLACK
6
CONTINUOUS
10
124.1383869999999945
20
-93.7780789999999911
11
124.2154379999999918
21
-93.8295619999999957
0
LINE
8
BLACK
6
CONTINUOUS
10
124.2154379999999918
20
-93.8295619999999957
11
124.2669209999999964
21
-93.906612999999993
0
LINE
8
BLACK
6
CONTINUOUS
10
124.2669209999999964
20
-93.906612999999993
11
124.2849999999999966
21
-93.9975000000000023
0
LINE
8
BLACK
6
CONTINUOUS
10
124.2849999999999966
20
-93.9975000000000023
11
124.2849999999999966
21
-94.5974999999999966
0
LINE
8
BLACK
6
CONTINUOUS
10
124.2849999999999966
20
-94.5974999999999966
11
124.2669209999999964
21
-94.6883869999999916
0
LINE
8
BLACK
6
CONTINUOUS
10
124.2669209999999964
20
-94.6883869999999916
11
124.2154379999999918
21
-94.765437999999989
0
LINE
8
BLACK
6
CONTINUOUS
10
124.2154379999999918
20
-94.765437999999989
11
124.1383869999999945
21
-94.8169209999999936
0
LINE
8
BLACK
6
CONTINUOUS
10
124.1383869999999945
20
-94.8169209999999936
11
124.0474999999999994
21
-94.8349999999999937
0
LINE
8
BLACK
6
CONTINUOUS
10
124.0474999999999994
20
-94.8349999999999937
11
123.5724999999999909
21
-94.8349999999999937
0
LINE
8
BLACK
6
CONTINUOUS
10
123.5724999999999909
20
-94.8349999999999937
11
123.4816129999999958
21
-94.8169209999999936
0
LINE
8
BLACK
6
CONTINUOUS
10
123.4816129999999958
20
-94.8169209999999936
11
123.4045619999999985
21
-94.765437999999989
0
LINE
8
BLACK
6
CONTINUOUS
10
123.4045619999999985
20
-94.765437999999989
11
123.3530789999999939
21
-94.6883869999999916
0
LINE
8
BLACK
6
CONTINUOUS
10
123.3530789999999939
20
-94.6883869999999916
11
123.3349999999999937
21
-94.5974999999999966
0
LINE
8
BLACK
6
CONTINUOUS
10
123.3349999999999937
20
-94.5974999999999966
11
123.3349999999999937
21
-93.9975000000000023
0
LINE
8
BLACK
6
CONTINUOUS
10
123.3349999999999937
20
-93.9975000000000023
11
123.3530789999999939
21
-93.906612999999993
0
LINE
8
BLACK
6
CONTINUOUS
10
123.3530789999999939
20
-93.906612999999993
11
123.4045619999999985
21
-93.8295619999999957
0
LINE
8
BLACK
6
CONTINUOUS
10
123.4045619999999985
20
-93.8295619999999957
11
123.4816129999999958
21
-93.7780789999999911
0
LINE
8
BLACK
6
CONTINUOUS
10
123.4816129999999958
20
-93.7780789999999911
11
123.5724999999999909
21
-93.7599999999999909
0
LINE
8
BLACK
6
CONTINUOUS
10
123.5724999999999909
20
-93.7599999999999909
11
124.0474999999999994
21
-93.7599999999999909
0
LINE
8
BLACK
6
CONTINUOUS
10
124.0474999999999994
20
-93.7599999999999909
11
124.1383869999999945
21
-93.7780789999999911
0
LINE
8
BLACK
6
CONTINUOUS
10
99.4124029999999976
20
-93.0239179999999948
11
99.4610660000000024
21
-93.0564339999999959
0
LINE
8
BLACK
6
CONTINUOUS
10
99.4610660000000024
20
-93.0564339999999959
11
99.4935819999999893
21
-93.1050970000000007
0
LINE
8
BLACK
6
CONTINUOUS
10
99.4935819999999893
20
-93.1050970000000007
11
99.5049999999999955
21
-93.1624999999999943
0
LINE
8
BLACK
6
CONTINUOUS
10
99.5049999999999955
20
-93.1624999999999943
11
99.5049999999999955
21
-94.1875
0
LINE
8
BLACK
6
CONTINUOUS
10
99.5049999999999955
20
-94.1875
11
99.4935819999999893
21
-94.2449029999999937
0
LINE
8
BLACK
6
CONTINUOUS
10
99.4935819999999893
20
-94.2449029999999937
11
99.4610660000000024
21
-94.2935659999999984
0
LINE
8
BLACK
6
CONTINUOUS
10
99.4610660000000024
20
-94.2935659999999984
11
99.4124029999999976
21
-94.3260819999999995
0
LINE
8
BLACK
6
CONTINUOUS
10
99.4124029999999976
20
-94.3260819999999995
11
99.3549999999999898
21
-94.3374999999999915
0
LINE
8
BLACK
6
CONTINUOUS
10
99.3549999999999898
20
-94.3374999999999915
11
99.0549999999999926
21
-94.3374999999999915
0
LINE
8
BLACK
6
CONTINUOUS
10
99.0549999999999926
20
-94.3374999999999915
11
98.997596999999999
21
-94.3260819999999995
0
LINE
8
BLACK
6
CONTINUOUS
10
98.997596999999999
20
-94.3260819999999995
11
98.9489339999999942
21
-94.2935659999999984
0
LINE
8
BLACK
6
CONTINUOUS
10
98.9489339999999942
20
-94.2935659999999984
11
98.9164179999999931
21
-94.2449029999999937
0
LINE
8
BLACK
6
CONTINUOUS
10
98.9164179999999931
20
-94.2449029999999937
11
98.9050000000000011
21
-94.1875
0
LINE
8
BLACK
6
CONTINUOUS
10
98.9050000000000011
20
-94.1875
11
98.9050000000000011
21
-93.1624999999999943
0
LINE
8
BLACK
6
CONTINUOUS
10
98.9050000000000011
20
-93.1624999999999943
11
98.9164179999999931
21
-93.1050970000000007
0
LINE
8
BLACK
6
CONTINUOUS
10
98.9164179999999931
20
-93.1050970000000007
11
98.9489339999999942
21
-93.0564339999999959
0
LINE
8
BLACK
6
CONTINUOUS
10
98.9489339999999942
20
-93.0564339999999959
11
98.997596999999999
21
-93.0239179999999948
0
LINE
8
BLACK
6
CONTINUOUS
10
98.997596999999999
20
-93.0239179999999948
11
99.0549999999999926
21
-93.0125000000000028
0
LINE
8
BLACK
6
CONTINUOUS
10
99.0549999999999926
20
-93.0125000000000028
11
99.3549999999999898
21
-93.0125000000000028
0
LINE
8
BLACK
6
CONTINUOUS
10
99.3549999999999898
20
-93.0125000000000028
11
99.4124029999999976
21
-93.0239179999999948
0
LINE
8
BLACK
6
CONTINUOUS
10
100.3624030000000005
20
-93.0239179999999948
11
100.411065999999991
21
-93.0564339999999959
0
LINE
8
BLACK
6
CONTINUOUS
10
100.411065999999991
20
-93.0564339999999959
11
100.4435819999999921
21
-93.1050970000000007
0
LINE
8
BLACK
6
CONTINUOUS
10
100.4435819999999921
20
-93.1050970000000007
11
100.4549999999999983
21
-93.1624999999999943
0
LINE
8
BLACK
6
CONTINUOUS
10
100.4549999999999983
20
-93.1624999999999943
11
100.4549999999999983
21
-94.1875
0
LINE
8
BLACK
6
CONTINUOUS
10
100.4549999999999983
20
-94.1875
11
100.4435819999999921
21
-94.2449029999999937
0
LINE
8
BLACK
6
CONTINUOUS
10
100.4435819999999921
20
-94.2449029999999937
11
100.411065999999991
21
-94.2935659999999984
0
LINE
8
BLACK
6
CONTINUOUS
10
100.411065999999991
20
-94.2935659999999984
11
100.3624030000000005
21
-94.3260819999999995
0
LINE
8
BLACK
6
CONTINUOUS
10
100.3624030000000005
20
-94.3260819999999995
11
100.3049999999999926
21
-94.3374999999999915
0
LINE
8
BLACK
6
CONTINUOUS
10
100.3049999999999926
20
-94.3374999999999915
11
100.0049999999999955
21
-94.3374999999999915
0
LINE
8
BLACK
6
CONTINUOUS
10
100.0049999999999955
20
-94.3374999999999915
11
99.9475970000000018
21
-94.3260819999999995
0
LINE
8
BLACK
6
CONTINUOUS
10
99.9475970000000018
20
-94.3260819999999995
11
99.898933999999997
21
-94.2935659999999984
0
LINE
8
BLACK
6
CONTINUOUS
10
99.898933999999997
20
-94.2935659999999984
11
99.8664179999999959
21
-94.2449029999999937
0
LINE
8
BLACK
6
CONTINUOUS
10
99.8664179999999959
20
-94.2449029999999937
11
99.8549999999999898
21
-94.1875
0
LINE
8
BLACK
6
CONTINUOUS
10
99.8549999999999898
20
-94.1875
11
99.8549999999999898
21
-93.1624999999999943
0
LINE
8
BLACK
6
CONTINUOUS
10
99.8549999999999898
20
-93.1624999999999943
11
99.8664179999999959
21
-93.1050970000000007
0
LINE
8
BLACK
6
CONTINUOUS
10
99.8664179999999959
20
-93.1050970000000007
11
99.898933999999997
21
-93.0564339999999959
0
LINE
8
BLACK
6
CONTINUOUS
10
99.898933999999997
20
-93.0564339999999959
11
99.9475970000000018
21
-93.0239179999999948
0
LINE
8
BLACK
6
CONTINUOUS
10
99.9475970000000018
20
-93.0239179999999948
11
100.0049999999999955
21
-93.0125000000000028
0
LINE
8
BLACK
6
CONTINUOUS
10
100.0049999999999955
20
-93.0125000000000028
11
100.3049999999999926
21
-93.0125000000000028
0
LINE
8
BLACK
6
CONTINUOUS
10
100.3049999999999926
20
-93.0125000000000028
11
100.3624030000000005
21
-93.0239179999999948
0
LINE
8
BLACK
6
CONTINUOUS
10
101.3124029999999891
20
-93.0239179999999948
11
101.3610659999999939
21
-93.0564339999999959
0
LINE
8
BLACK
6
CONTINUOUS
10
101.3610659999999939
20
-93.0564339999999959
11
101.393581999999995
21
-93.1050970000000007
0
LINE
8
BLACK
6
CONTINUOUS
10
101.393581999999995
20
-93.1050970000000007
11
101.4050000000000011
21
-93.1624999999999943
0
LINE
8
BLACK
6
CONTINUOUS
10
101.4050000000000011
20
-93.1624999999999943
11
101.4050000000000011
21
-94.1875
0
LINE
8
BLACK
6
CONTINUOUS
10
101.4050000000000011
20
-94.1875
11
101.393581999999995
21
-94.2449029999999937
0
LINE
8
BLACK
6
CONTINUOUS
10
101.393581999999995
20
-94.2449029999999937
11
101.3610659999999939
21
-94.2935659999999984
0
LINE
8
BLACK
6
CONTINUOUS
10
101.3610659999999939
20
-94.2935659999999984
11
101.3124029999999891
21
-94.3260819999999995
0
LINE
8
BLACK
6
CONTINUOUS
10
101.3124029999999891
20
-94.3260819999999995
11
101.2549999999999955
21
-94.3374999999999915
0
LINE
8
BLACK
6
CONTINUOUS
10
101.2549999999999955
20
-94.3374999999999915
11
100.9549999999999983
21
-94.3374999999999915
0
LINE
8
BLACK
6
CONTINUOUS
10
100.9549999999999983
20
-94.3374999999999915
11
100.8975969999999904
21
-94.3260819999999995
0
LINE
8
BLACK
6
CONTINUOUS
10
100.8975969999999904
20
-94.3260819999999995
11
100.8489339999999999
21
-94.2935659999999984
0
LINE
8
BLACK
6
CONTINUOUS
10
100.8489339999999999
20
-94.2935659999999984
11
100.8164179999999988
21
-94.2449029999999937
0
LINE
8
BLACK
6
CONTINUOUS
10
100.8164179999999988
20
-94.2449029999999937
11
100.8049999999999926
21
-94.1875
0
LINE
8
BLACK
6
CONTINUOUS
10
100.8049999999999926
20
-94.1875
11
100.8049999999999926
21
-93.1624999999999943
0
LINE
8
BLACK
6
CONTINUOUS
10
100.8049999999999926
20
-93.1624999999999943
11
100.8164179999999988
21
-93.1050970000000007
0
LINE
8
BLACK
6
CONTINUOUS
10
100.8164179999999988
20
-93.1050970000000007
11
100.8489339999999999
21
-93.0564339999999959
0
LINE
8
BLACK
6
CONTINUOUS
10
100.8489339999999999
20
-93.0564339999999959
11
100.8975969999999904
21
-93.0239179999999948
0
LINE
8
BLACK
6
CONTINUOUS
10
100.8975969999999904
20
-93.0239179999999948
11
100.9549999999999983
21
-93.0125000000000028
0
LINE
8
BLACK
6
CONTINUOUS
10
100.9549999999999983
20
-93.0125000000000028
11
101.2549999999999955
21
-93.0125000000000028
0
LINE
8
BLACK
6
CONTINUOUS
10
101.2549999999999955
20
-93.0125000000000028
11
101.3124029999999891
21
-93.0239179999999948
0
LINE
8
BLACK
6
CONTINUOUS
10
104.3633869999999888
20
-93.0780790000000025
11
104.4404380000000003
21
-93.1295619999999928
0
LINE
8
BLACK
6
CONTINUOUS
10
104.4404380000000003
20
-93.1295619999999928
11
104.4919209999999907
21
-93.2066129999999902
0
LINE
8
BLACK
6
CONTINUOUS
10
104.4919209999999907
20
-93.2066129999999902
11
104.5099999999999909
21
-93.2974999999999994
0
LINE
8
BLACK
6
CONTINUOUS
10
104.5099999999999909
20
-93.2974999999999994
11
104.5099999999999909
21
-93.8725000000000023
0
LINE
8
BLACK
6
CONTINUOUS
10
104.5099999999999909
20
-93.8725000000000023
11
104.4919209999999907
21
-93.9633869999999973
0
LINE
8
BLACK
6
CONTINUOUS
10
104.4919209999999907
20
-93.9633869999999973
11
104.4404380000000003
21
-94.0404379999999946
0
LINE
8
BLACK
6
CONTINUOUS
10
104.4404380000000003
20
-94.0404379999999946
11
104.3633869999999888
21
-94.0919209999999993
0
LINE
8
BLACK
6
CONTINUOUS
10
104.3633869999999888
20
-94.0919209999999993
11
104.2724999999999937
21
-94.1099999999999994
0
LINE
8
BLACK
6
CONTINUOUS
10
104.2724999999999937
20
-94.1099999999999994
11
103.7974999999999994
21
-94.1099999999999994
0
LINE
8
BLACK
6
CONTINUOUS
10
103.7974999999999994
20
-94.1099999999999994
11
103.7066129999999902
21
-94.0919209999999993
0
LINE
8
BLACK
6
CONTINUOUS
10
103.7066129999999902
20
-94.0919209999999993
11
103.6295619999999928
21
-94.0404379999999946
0
LINE
8
BLACK
6
CONTINUOUS
10
103.6295619999999928
20
-94.0404379999999946
11
103.5780789999999882
21
-93.9633869999999973
0
LINE
8
BLACK
6
CONTINUOUS
10
103.5780789999999882
20
-93.9633869999999973
11
103.5600000000000023
21
-93.8725000000000023
0
LINE
8
BLACK
6
CONTINUOUS
10
103.5600000000000023
20
-93.8725000000000023
11
103.5600000000000023
21
-93.2974999999999994
0
LINE
8
BLACK
6
CONTINUOUS
10
103.5600000000000023
20
-93.2974999999999994
11
103.5780789999999882
21
-93.2066129999999902
0
LINE
8
BLACK
6
CONTINUOUS
10
103.5780789999999882
20
-93.2066129999999902
11
103.6295619999999928
21
-93.1295619999999928
0
LINE
8
BLACK
6
CONTINUOUS
10
103.6295619999999928
20
-93.1295619999999928
11
103.7066129999999902
21
-93.0780790000000025
0
LINE
8
BLACK
6
CONTINUOUS
10
103.7066129999999902
20
-93.0780790000000025
11
103.7974999999999994
21
-93.0600000000000023
0
LINE
8
BLACK
6
CONTINUOUS
10
103.7974999999999994
20
-93.0600000000000023
11
104.2724999999999937
21
-93.0600000000000023
0
LINE
8
BLACK
6
CONTINUOUS
10
104.2724999999999937
20
-93.0600000000000023
11
104.3633869999999888
21
-93.0780790000000025
0
LINE
8
BLACK
6
CONTINUOUS
10
109.8999999999999915
20
-94.1099999999999994
11
108.1999999999999886
21
-94.1099999999999994
0
LINE
8
BLACK
6
CONTINUOUS
10
108.1999999999999886
20
-94.1099999999999994
11
108.1999999999999886
21
-93.2099999999999937
0
LINE
8
BLACK
6
CONTINUOUS
10
108.1999999999999886
20
-93.2099999999999937
11
109.8999999999999915
21
-93.2099999999999937
0
LINE
8
BLACK
6
CONTINUOUS
10
109.8999999999999915
20
-93.2099999999999937
11
109.8999999999999915
21
-94.1099999999999994
0
LINE
8
BLACK
6
CONTINUOUS
10
102.9033869999999951
20
-93.0480790000000013
11
102.9804379999999924
21
-93.0995619999999917
0
LINE
8
BLACK
6
CONTINUOUS
10
102.9804379999999924
20
-93.0995619999999917
11
103.031920999999997
21
-93.176612999999989
0
LINE
8
BLACK
6
CONTINUOUS
10
103.031920999999997
20
-93.176612999999989
11
103.0499999999999972
21
-93.2674999999999983
0
LINE
8
BLACK
6
CONTINUOUS
10
103.0499999999999972
20
-93.2674999999999983
11
103.0499999999999972
21
-93.8425000000000011
0
LINE
8
BLACK
6
CONTINUOUS
10
103.0499999999999972
20
-93.8425000000000011
11
103.031920999999997
21
-93.9333869999999962
0
LINE
8
BLACK
6
CONTINUOUS
10
103.031920999999997
20
-93.9333869999999962
11
102.9804379999999924
21
-94.0104379999999935
0
LINE
8
BLACK
6
CONTINUOUS
10
102.9804379999999924
20
-94.0104379999999935
11
102.9033869999999951
21
-94.0619209999999981
0
LINE
8
BLACK
6
CONTINUOUS
10
102.9033869999999951
20
-94.0619209999999981
11
102.8125
21
-94.0799999999999983
0
LINE
8
BLACK
6
CONTINUOUS
10
102.8125
20
-94.0799999999999983
11
102.3374999999999915
21
-94.0799999999999983
0
LINE
8
BLACK
6
CONTINUOUS
10
102.3374999999999915
20
-94.0799999999999983
11
102.2466129999999964
21
-94.0619209999999981
0
LINE
8
BLACK
6
CONTINUOUS
10
102.2466129999999964
20
-94.0619209999999981
11
102.1695619999999991
21
-94.0104379999999935
0
LINE
8
BLACK
6
CONTINUOUS
10
102.1695619999999991
20
-94.0104379999999935
11
102.1180789999999945
21
-93.9333869999999962
0
LINE
8
BLACK
6
CONTINUOUS
10
102.1180789999999945
20
-93.9333869999999962
11
102.0999999999999943
21
-93.8425000000000011
0
LINE
8
BLACK
6
CONTINUOUS
10
102.0999999999999943
20
-93.8425000000000011
11
102.0999999999999943
21
-93.2674999999999983
0
LINE
8
BLACK
6
CONTINUOUS
10
102.0999999999999943
20
-93.2674999999999983
11
102.1180789999999945
21
-93.176612999999989
0
LINE
8
BLACK
6
CONTINUOUS
10
102.1180789999999945
20
-93.176612999999989
11
102.1695619999999991
21
-93.0995619999999917
0
LINE
8
BLACK
6
CONTINUOUS
10
102.1695619999999991
20
-93.0995619999999917
11
102.2466129999999964
21
-93.0480790000000013
0
LINE
8
BLACK
6
CONTINUOUS
10
102.2466129999999964
20
-93.0480790000000013
11
102.3374999999999915
21
-93.0300000000000011
0
LINE
8
BLACK
6
CONTINUOUS
10
102.3374999999999915
20
-93.0300000000000011
11
102.8125
21
-93.0300000000000011
0
LINE
8
BLACK
6
CONTINUOUS
10
102.8125
20
-93.0300000000000011
11
102.9033869999999951
21
-93.0480790000000013
0
LINE
8
BLACK
6
CONTINUOUS
10
111.8058869999999985
20
-92.6730790000000013
11
111.8829379999999958
21
-92.7245619999999917
0
LINE
8
BLACK
6
CONTINUOUS
10
111.8829379999999958
20
-92.7245619999999917
11
111.9344210000000004
21
-92.801612999999989
0
LINE
8
BLACK
6
CONTINUOUS
10
111.9344210000000004
20
-92.801612999999989
11
111.9525000000000006
21
-92.8924999999999983
0
LINE
8
BLACK
6
CONTINUOUS
10
111.9525000000000006
20
-92.8924999999999983
11
111.9525000000000006
21
-93.3924999999999983
0
LINE
8
BLACK
6
CONTINUOUS
10
111.9525000000000006
20
-93.3924999999999983
11
111.9344210000000004
21
-93.4833869999999933
0
LINE
8
BLACK
6
CONTINUOUS
10
111.9344210000000004
20
-93.4833869999999933
11
111.8829379999999958
21
-93.5604379999999907
0
LINE
8
BLACK
6
CONTINUOUS
10
111.8829379999999958
20
-93.5604379999999907
11
111.8058869999999985
21
-93.6119209999999953
0
LINE
8
BLACK
6
CONTINUOUS
10
111.8058869999999985
20
-93.6119209999999953
11
111.7149999999999892
21
-93.6299999999999955
0
LINE
8
BLACK
6
CONTINUOUS
10
111.7149999999999892
20
-93.6299999999999955
11
111.2399999999999949
21
-93.6299999999999955
0
LINE
8
BLACK
6
CONTINUOUS
10
111.2399999999999949
20
-93.6299999999999955
11
111.1491129999999998
21
-93.6119209999999953
0
LINE
8
BLACK
6
CONTINUOUS
10
111.1491129999999998
20
-93.6119209999999953
11
111.0720619999999883
21
-93.5604379999999907
0
LINE
8
BLACK
6
CONTINUOUS
10
111.0720619999999883
20
-93.5604379999999907
11
111.0205789999999979
21
-93.4833869999999933
0
LINE
8
BLACK
6
CONTINUOUS
10
111.0205789999999979
20
-93.4833869999999933
11
111.0024999999999977
21
-93.3924999999999983
0
LINE
8
BLACK
6
CONTINUOUS
10
111.0024999999999977
20
-93.3924999999999983
11
111.0024999999999977
21
-92.8924999999999983
0
LINE
8
BLACK
6
CONTINUOUS
10
111.0024999999999977
20
-92.8924999999999983
11
111.0205789999999979
21
-92.801612999999989
0
LINE
8
BLACK
6
CONTINUOUS
10
111.0205789999999979
20
-92.801612999999989
11
111.0720619999999883
21
-92.7245619999999917
0
LINE
8
BLACK
6
CONTINUOUS
10
111.0720619999999883
20
-92.7245619999999917
11
111.1491129999999998
21
-92.6730790000000013
0
LINE
8
BLACK
6
CONTINUOUS
10
111.1491129999999998
20
-92.6730790000000013
11
111.2399999999999949
21
-92.6550000000000011
0
LINE
8
BLACK
6
CONTINUOUS
10
111.2399999999999949
20
-92.6550000000000011
11
111.7149999999999892
21
-92.6550000000000011
0
LINE
8
BLACK
6
CONTINUOUS
10
111.7149999999999892
20
-92.6550000000000011
11
111.8058869999999985
21
-92.6730790000000013
0
LINE
8
BLACK
6
CONTINUOUS
10
113.4649029999999925
20
-92.9214180000000027
11
113.5135659999999973
21
-92.9539339999999896
0
LINE
8
BLACK
6
CONTINUOUS
10
113.5135659999999973
20
-92.9539339999999896
11
113.5460819999999984
21
-93.0025969999999944
0
LINE
8
BLACK
6
CONTINUOUS
10
113.5460819999999984
20
-93.0025969999999944
11
113.5574999999999903
21
-93.0600000000000023
0
LINE
8
BLACK
6
CONTINUOUS
10
113.5574999999999903
20
-93.0600000000000023
11
113.5574999999999903
21
-93.3599999999999994
0
LINE
8
BLACK
6
CONTINUOUS
10
113.5574999999999903
20
-93.3599999999999994
11
113.5460819999999984
21
-93.4174029999999931
0
LINE
8
BLACK
6
CONTINUOUS
10
113.5460819999999984
20
-93.4174029999999931
11
113.5135659999999973
21
-93.4660659999999979
0
LINE
8
BLACK
6
CONTINUOUS
10
113.5135659999999973
20
-93.4660659999999979
11
113.4649029999999925
21
-93.498581999999999
0
LINE
8
BLACK
6
CONTINUOUS
10
113.4649029999999925
20
-93.498581999999999
11
113.4074999999999989
21
-93.5099999999999909
0
LINE
8
BLACK
6
CONTINUOUS
10
113.4074999999999989
20
-93.5099999999999909
11
112.2325000000000017
21
-93.5099999999999909
0
LINE
8
BLACK
6
CONTINUOUS
10
112.2325000000000017
20
-93.5099999999999909
11
112.1750969999999938
21
-93.498581999999999
0
LINE
8
BLACK
6
CONTINUOUS
10
112.1750969999999938
20
-93.498581999999999
11
112.1264339999999891
21
-93.4660659999999979
0
LINE
8
BLACK
6
CONTINUOUS
10
112.1264339999999891
20
-93.4660659999999979
11
112.093917999999988
21
-93.4174029999999931
0
LINE
8
BLACK
6
CONTINUOUS
10
112.093917999999988
20
-93.4174029999999931
11
112.082499999999996
21
-93.3599999999999994
0
LINE
8
BLACK
6
CONTINUOUS
10
112.082499999999996
20
-93.3599999999999994
11
112.082499999999996
21
-93.0600000000000023
0
LINE
8
BLACK
6
CONTINUOUS
10
112.082499999999996
20
-93.0600000000000023
11
112.093917999999988
21
-93.0025969999999944
0
LINE
8
BLACK
6
CONTINUOUS
10
112.093917999999988
20
-93.0025969999999944
11
112.1264339999999891
21
-92.9539339999999896
0
LINE
8
BLACK
6
CONTINUOUS
10
112.1264339999999891
20
-92.9539339999999896
11
112.1750969999999938
21
-92.9214180000000027
0
LINE
8
BLACK
6
CONTINUOUS
10
112.1750969999999938
20
-92.9214180000000027
11
112.2325000000000017
21
-92.9099999999999966
0
LINE
8
BLACK
6
CONTINUOUS
10
112.2325000000000017
20
-92.9099999999999966
11
113.4074999999999989
21
-92.9099999999999966
0
LINE
8
BLACK
6
CONTINUOUS
10
113.4074999999999989
20
-92.9099999999999966
11
113.4649029999999925
21
-92.9214180000000027
0
LINE
8
BLACK
6
CONTINUOUS
10
119.8106709999999993
20
-91.3690299999999951
11
119.8917769999999905
21
-91.423222999999993
0
LINE
8
BLACK
6
CONTINUOUS
10
119.8917769999999905
20
-91.423222999999993
11
119.9459699999999884
21
-91.5043289999999985
0
LINE
8
BLACK
6
CONTINUOUS
10
119.9459699999999884
20
-91.5043289999999985
11
119.9649999999999892
21
-91.5999999999999943
0
LINE
8
BLACK
6
CONTINUOUS
10
119.9649999999999892
20
-91.5999999999999943
11
119.9649999999999892
21
-93.
0
LINE
8
BLACK
6
CONTINUOUS
10
119.9649999999999892
20
-93.
11
119.9459699999999884
21
-93.0956709999999958
0
LINE
8
BLACK
6
CONTINUOUS
10
119.9459699999999884
20
-93.0956709999999958
11
119.8917769999999905
21
-93.1767770000000013
0
LINE
8
BLACK
6
CONTINUOUS
10
119.8917769999999905
20
-93.1767770000000013
11
119.8106709999999993
21
-93.2309699999999992
0
LINE
8
BLACK
6
CONTINUOUS
10
119.8106709999999993
20
-93.2309699999999992
11
119.7149999999999892
21
-93.25
0
LINE
8
BLACK
6
CONTINUOUS
10
119.7149999999999892
20
-93.25
11
118.7650000000000006
21
-93.25
0
LINE
8
BLACK
6
CONTINUOUS
10
118.7650000000000006
20
-93.25
11
118.6693289999999905
21
-93.2309699999999992
0
LINE
8
BLACK
6
CONTINUOUS
10
118.6693289999999905
20
-93.2309699999999992
11
118.5882229999999993
21
-93.1767770000000013
0
LINE
8
BLACK
6
CONTINUOUS
10
118.5882229999999993
20
-93.1767770000000013
11
118.5340300000000013
21
-93.0956709999999958
0
LINE
8
BLACK
6
CONTINUOUS
10
118.5340300000000013
20
-93.0956709999999958
11
118.5150000000000006
21
-93.
0
LINE
8
BLACK
6
CONTINUOUS
10
118.5150000000000006
20
-93.
11
118.5150000000000006
21
-92.8100000000000023
0
LINE
8
BLACK
6
CONTINUOUS
10
118.5150000000000006
20
-92.8100000000000023
11
117.5300000000000011
21
-92.8100000000000023
0
LINE
8
BLACK
6
CONTINUOUS
10
117.5300000000000011
20
-92.8100000000000023
11
117.5300000000000011
21
-91.8100000000000023
0
LINE
8
BLACK
6
CONTINUOUS
10
117.5300000000000011
20
-91.8100000000000023
11
118.5150000000000006
21
-91.8100000000000023
0
LINE
8
BLACK
6
CONTINUOUS
10
118.5150000000000006
20
-91.8100000000000023
11
118.5150000000000006
21
-91.5999999999999943
0
LINE
8
BLACK
6
CONTINUOUS
10
118.5150000000000006
20
-91.5999999999999943
11
118.5340300000000013
21
-91.5043289999999985
0
LINE
8
BLACK
6
CONTINUOUS
10
118.5340300000000013
20
-91.5043289999999985
11
118.5882229999999993
21
-91.423222999999993
0
LINE
8
BLACK
6
CONTINUOUS
10
118.5882229999999993
20
-91.423222999999993
11
118.6693289999999905
21
-91.3690299999999951
0
LINE
8
BLACK
6
CONTINUOUS
10
118.6693289999999905
20
-91.3690299999999951
11
118.7650000000000006
21
-91.3499999999999943
0
LINE
8
BLACK
6
CONTINUOUS
10
118.7650000000000006
20
-91.3499999999999943
11
119.7149999999999892
21
-91.3499999999999943
0
LINE
8
BLACK
6
CONTINUOUS
10
119.7149999999999892
20
-91.3499999999999943
11
119.8106709999999993
21
-91.3690299999999951
0
LINE
8
BLACK
6
CONTINUOUS
10
124.2106709999999907
20
-91.3690299999999951
11
124.2917769999999962
21
-91.423222999999993
0
LINE
8
BLACK
6
CONTINUOUS
10
124.2917769999999962
20
-91.423222999999993
11
124.3459699999999941
21
-91.5043289999999985
0
LINE
8
BLACK
6
CONTINUOUS
10
124.3459699999999941
20
-91.5043289999999985
11
124.3649999999999949
21
-91.5999999999999943
0
LINE
8
BLACK
6
CONTINUOUS
10
124.3649999999999949
20
-91.5999999999999943
11
124.3649999999999949
21
-93.
0
LINE
8
BLACK
6
CONTINUOUS
10
124.3649999999999949
20
-93.
11
124.3459699999999941
21
-93.0956709999999958
0
LINE
8
BLACK
6
CONTINUOUS
10
124.3459699999999941
20
-93.0956709999999958
11
124.2917769999999962
21
-93.1767770000000013
0
LINE
8
BLACK
6
CONTINUOUS
10
124.2917769999999962
20
-93.1767770000000013
11
124.2106709999999907
21
-93.2309699999999992
0
LINE
8
BLACK
6
CONTINUOUS
10
124.2106709999999907
20
-93.2309699999999992
11
124.1149999999999949
21
-93.25
0
LINE
8
BLACK
6
CONTINUOUS
10
124.1149999999999949
20
-93.25
11
123.164999999999992
21
-93.25
0
LINE
8
BLACK
6
CONTINUOUS
10
123.164999999999992
20
-93.25
11
123.0693289999999962
21
-93.2309699999999992
0
LINE
8
BLACK
6
CONTINUOUS
10
123.0693289999999962
20
-93.2309699999999992
11
122.9882229999999907
21
-93.1767770000000013
0
LINE
8
BLACK
6
CONTINUOUS
10
122.9882229999999907
20
-93.1767770000000013
11
122.9340299999999928
21
-93.0956709999999958
0
LINE
8
BLACK
6
CONTINUOUS
10
122.9340299999999928
20
-93.0956709999999958
11
122.914999999999992
21
-93.
0
LINE
8
BLACK
6
CONTINUOUS
10
122.914999999999992
20
-93.
11
122.914999999999992
21
-91.5999999999999943
0
LINE
8
BLACK
6
CONTINUOUS
10
122.914999999999992
20
-91.5999999999999943
11
122.9340299999999928
21
-91.5043289999999985
0
LINE
8
BLACK
6
CONTINUOUS
10
122.9340299999999928
20
-91.5043289999999985
11
122.9882229999999907
21
-91.423222999999993
0
LINE
8
BLACK
6
CONTINUOUS
10
122.9882229999999907
20
-91.423222999999993
11
123.0693289999999962
21
-91.3690299999999951
0
LINE
8
BLACK
6
CONTINUOUS
10
123.0693289999999962
20
-91.3690299999999951
11
123.164999999999992
21
-91.3499999999999943
0
LINE
8
BLACK
6
CONTINUOUS
10
123.164999999999992
20
-91.3499999999999943
11
124.1149999999999949
21
-91.3499999999999943
0
LINE
8
BLACK
6
CONTINUOUS
10
124.1149999999999949
20
-91.3499999999999943
11
124.2106709999999907
21
-91.3690299999999951
0
LINE
8
BLACK
6
CONTINUOUS
10
106.9283870000000007
20
-92.1505789999999934
11
107.0054379999999981
21
-92.202061999999998
0
LINE
8
BLACK
6
CONTINUOUS
10
107.0054379999999981
20
-92.202061999999998
11
107.0569209999999885
21
-92.2791129999999953
0
LINE
8
BLACK
6
CONTINUOUS
10
107.0569209999999885
20
-92.2791129999999953
11
107.0749999999999886
21
-92.3699999999999903
0
LINE
8
BLACK
6
CONTINUOUS
10
107.0749999999999886
20
-92.3699999999999903
11
107.0749999999999886
21
-92.8699999999999903
0
LINE
8
BLACK
6
CONTINUOUS
10
107.0749999999999886
20
-92.8699999999999903
11
107.0569209999999885
21
-92.9608869999999996
0
LINE
8
BLACK
6
CONTINUOUS
10
107.0569209999999885
20
-92.9608869999999996
11
107.0054379999999981
21
-93.0379379999999969
0
LINE
8
BLACK
6
CONTINUOUS
10
107.0054379999999981
20
-93.0379379999999969
11
106.9283870000000007
21
-93.0894210000000015
0
LINE
8
BLACK
6
CONTINUOUS
10
106.9283870000000007
20
-93.0894210000000015
11
106.8374999999999915
21
-93.1075000000000017
0
LINE
8
BLACK
6
CONTINUOUS
10
106.8374999999999915
20
-93.1075000000000017
11
106.3624999999999972
21
-93.1075000000000017
0
LINE
8
BLACK
6
CONTINUOUS
10
106.3624999999999972
20
-93.1075000000000017
11
106.2716130000000021
21
-93.0894210000000015
0
LINE
8
BLACK
6
CONTINUOUS
10
106.2716130000000021
20
-93.0894210000000015
11
106.1945619999999906
21
-93.0379379999999969
0
LINE
8
BLACK
6
CONTINUOUS
10
106.1945619999999906
20
-93.0379379999999969
11
106.1430790000000002
21
-92.9608869999999996
0
LINE
8
BLACK
6
CONTINUOUS
10
106.1430790000000002
20
-92.9608869999999996
11
106.125
21
-92.8699999999999903
0
LINE
8
BLACK
6
CONTINUOUS
10
106.125
20
-92.8699999999999903
11
106.125
21
-92.3699999999999903
0
LINE
8
BLACK
6
CONTINUOUS
10
106.125
20
-92.3699999999999903
11
106.1430790000000002
21
-92.2791129999999953
0
LINE
8
BLACK
6
CONTINUOUS
10
106.1430790000000002
20
-92.2791129999999953
11
106.1945619999999906
21
-92.202061999999998
0
LINE
8
BLACK
6
CONTINUOUS
10
106.1945619999999906
20
-92.202061999999998
11
106.2716130000000021
21
-92.1505789999999934
0
LINE
8
BLACK
6
CONTINUOUS
10
106.2716130000000021
20
-92.1505789999999934
11
106.3624999999999972
21
-92.1324999999999932
0
LINE
8
BLACK
6
CONTINUOUS
10
106.3624999999999972
20
-92.1324999999999932
11
106.8374999999999915
21
-92.1324999999999932
0
LINE
8
BLACK
6
CONTINUOUS
10
106.8374999999999915
20
-92.1324999999999932
11
106.9283870000000007
21
-92.1505789999999934
0
LINE
8
BLACK
6
CONTINUOUS
10
104.6049999999999898
20
-92.7849999999999966
11
103.6049999999999898
21
-92.7849999999999966
0
LINE
8
BLACK
6
CONTINUOUS
10
103.6049999999999898
20
-92.7849999999999966
11
103.6049999999999898
21
-91.7849999999999966
0
LINE
8
BLACK
6
CONTINUOUS
10
103.6049999999999898
20
-91.7849999999999966
11
104.6049999999999898
21
-91.7849999999999966
0
LINE
8
BLACK
6
CONTINUOUS
10
104.6049999999999898
20
-91.7849999999999966
11
104.6049999999999898
21
-92.7849999999999966
0
LINE
8
BLACK
6
CONTINUOUS
10
116.9099999999999966
20
-92.75
11
115.9099999999999966
21
-92.75
0
LINE
8
BLACK
6
CONTINUOUS
10
115.9099999999999966
20
-92.75
11
115.9099999999999966
21
-91.75
0
LINE
8
BLACK
6
CONTINUOUS
10
115.9099999999999966
20
-91.75
11
116.9099999999999966
21
-91.75
0
LINE
8
BLACK
6
CONTINUOUS
10
116.9099999999999966
20
-91.75
11
116.9099999999999966
21
-92.75
0
LINE
8
BLACK
6
CONTINUOUS
10
115.3399029999999925
20
-91.9714179999999999
11
115.3885659999999973
21
-92.003934000000001
0
LINE
8
BLACK
6
CONTINUOUS
10
115.3885659999999973
20
-92.003934000000001
11
115.4210819999999984
21
-92.0525969999999916
0
LINE
8
BLACK
6
CONTINUOUS
10
115.4210819999999984
20
-92.0525969999999916
11
115.4324999999999903
21
-92.1099999999999994
0
LINE
8
BLACK
6
CONTINUOUS
10
115.4324999999999903
20
-92.1099999999999994
11
115.4324999999999903
21
-92.4099999999999966
0
LINE
8
BLACK
6
CONTINUOUS
10
115.4324999999999903
20
-92.4099999999999966
11
115.4210819999999984
21
-92.4674029999999902
0
LINE
8
BLACK
6
CONTINUOUS
10
115.4210819999999984
20
-92.4674029999999902
11
115.3885659999999973
21
-92.516065999999995
0
LINE
8
BLACK
6
CONTINUOUS
10
115.3885659999999973
20
-92.516065999999995
11
115.3399029999999925
21
-92.5485819999999961
0
LINE
8
BLACK
6
CONTINUOUS
10
115.3399029999999925
20
-92.5485819999999961
11
115.2824999999999989
21
-92.5600000000000023
0
LINE
8
BLACK
6
CONTINUOUS
10
115.2824999999999989
20
-92.5600000000000023
11
114.1075000000000017
21
-92.5600000000000023
0
LINE
8
BLACK
6
CONTINUOUS
10
114.1075000000000017
20
-92.5600000000000023
11
114.0500969999999938
21
-92.5485819999999961
0
LINE
8
BLACK
6
CONTINUOUS
10
114.0500969999999938
20
-92.5485819999999961
11
114.0014339999999891
21
-92.516065999999995
0
LINE
8
BLACK
6
CONTINUOUS
10
114.0014339999999891
20
-92.516065999999995
11
113.968917999999988
21
-92.4674029999999902
0
LINE
8
BLACK
6
CONTINUOUS
10
113.968917999999988
20
-92.4674029999999902
11
113.957499999999996
21
-92.4099999999999966
0
LINE
8
BLACK
6
CONTINUOUS
10
113.957499999999996
20
-92.4099999999999966
11
113.957499999999996
21
-92.1099999999999994
0
LINE
8
BLACK
6
CONTINUOUS
10
113.957499999999996
20
-92.1099999999999994
11
113.968917999999988
21
-92.0525969999999916
0
LINE
8
BLACK
6
CONTINUOUS
10
113.968917999999988
20
-92.0525969999999916
11
114.0014339999999891
21
-92.003934000000001
0
LINE
8
BLACK
6
CONTINUOUS
10
114.0014339999999891
20
-92.003934000000001
11
114.0500969999999938
21
-91.9714179999999999
0
LINE
8
BLACK
6
CONTINUOUS
10
114.0500969999999938
20
-91.9714179999999999
11
114.1075000000000017
21
-91.9599999999999937
0
LINE
8
BLACK
6
CONTINUOUS
10
114.1075000000000017
20
-91.9599999999999937
11
115.2824999999999989
21
-91.9599999999999937
0
LINE
8
BLACK
6
CONTINUOUS
10
115.2824999999999989
20
-91.9599999999999937
11
115.3399029999999925
21
-91.9714179999999999
0
LINE
8
BLACK
6
CONTINUOUS
10
99.7858870000000024
20
-91.5480790000000013
11
99.8629379999999998
21
-91.5995619999999917
0
LINE
8
BLACK
6
CONTINUOUS
10
99.8629379999999998
20
-91.5995619999999917
11
99.9144209999999902
21
-91.676612999999989
0
LINE
8
BLACK
6
CONTINUOUS
10
99.9144209999999902
20
-91.676612999999989
11
99.9324999999999903
21
-91.7674999999999983
0
LINE
8
BLACK
6
CONTINUOUS
10
99.9324999999999903
20
-91.7674999999999983
11
99.9324999999999903
21
-92.2424999999999926
0
LINE
8
BLACK
6
CONTINUOUS
10
99.9324999999999903
20
-92.2424999999999926
11
99.9144209999999902
21
-92.3333870000000019
0
LINE
8
BLACK
6
CONTINUOUS
10
99.9144209999999902
20
-92.3333870000000019
11
99.8629379999999998
21
-92.4104379999999992
0
LINE
8
BLACK
6
CONTINUOUS
10
99.8629379999999998
20
-92.4104379999999992
11
99.7858870000000024
21
-92.4619209999999896
0
LINE
8
BLACK
6
CONTINUOUS
10
99.7858870000000024
20
-92.4619209999999896
11
99.6949999999999932
21
-92.4799999999999898
0
LINE
8
BLACK
6
CONTINUOUS
10
99.6949999999999932
20
-92.4799999999999898
11
99.0949999999999989
21
-92.4799999999999898
0
LINE
8
BLACK
6
CONTINUOUS
10
99.0949999999999989
20
-92.4799999999999898
11
99.0041129999999896
21
-92.4619209999999896
0
LINE
8
BLACK
6
CONTINUOUS
10
99.0041129999999896
20
-92.4619209999999896
11
98.9270619999999923
21
-92.4104379999999992
0
LINE
8
BLACK
6
CONTINUOUS
10
98.9270619999999923
20
-92.4104379999999992
11
98.8755790000000019
21
-92.3333870000000019
0
LINE
8
BLACK
6
CONTINUOUS
10
98.8755790000000019
20
-92.3333870000000019
11
98.8575000000000017
21
-92.2424999999999926
0
LINE
8
BLACK
6
CONTINUOUS
10
98.8575000000000017
20
-92.2424999999999926
11
98.8575000000000017
21
-91.7674999999999983
0
LINE
8
BLACK
6
CONTINUOUS
10
98.8575000000000017
20
-91.7674999999999983
11
98.8755790000000019
21
-91.676612999999989
0
LINE
8
BLACK
6
CONTINUOUS
10
98.8755790000000019
20
-91.676612999999989
11
98.9270619999999923
21
-91.5995619999999917
0
LINE
8
BLACK
6
CONTINUOUS
10
98.9270619999999923
20
-91.5995619999999917
11
99.0041129999999896
21
-91.5480790000000013
0
LINE
8
BLACK
6
CONTINUOUS
10
99.0041129999999896
20
-91.5480790000000013
11
99.0949999999999989
21
-91.5300000000000011
0
LINE
8
BLACK
6
CONTINUOUS
10
99.0949999999999989
20
-91.5300000000000011
11
99.6949999999999932
21
-91.5300000000000011
0
LINE
8
BLACK
6
CONTINUOUS
10
99.6949999999999932
20
-91.5300000000000011
11
99.7858870000000024
21
-91.5480790000000013
0
LINE
8
BLACK
6
CONTINUOUS
10
101.5108869999999968
20
-91.5480790000000013
11
101.5879379999999941
21
-91.5995619999999917
0
LINE
8
BLACK
6
CONTINUOUS
10
101.5879379999999941
20
-91.5995619999999917
11
101.6394209999999987
21
-91.676612999999989
0
LINE
8
BLACK
6
CONTINUOUS
10
101.6394209999999987
20
-91.676612999999989
11
101.6574999999999989
21
-91.7674999999999983
0
LINE
8
BLACK
6
CONTINUOUS
10
101.6574999999999989
20
-91.7674999999999983
11
101.6574999999999989
21
-92.2424999999999926
0
LINE
8
BLACK
6
CONTINUOUS
10
101.6574999999999989
20
-92.2424999999999926
11
101.6394209999999987
21
-92.3333870000000019
0
LINE
8
BLACK
6
CONTINUOUS
10
101.6394209999999987
20
-92.3333870000000019
11
101.5879379999999941
21
-92.4104379999999992
0
LINE
8
BLACK
6
CONTINUOUS
10
101.5879379999999941
20
-92.4104379999999992
11
101.5108869999999968
21
-92.4619209999999896
0
LINE
8
BLACK
6
CONTINUOUS
10
101.5108869999999968
20
-92.4619209999999896
11
101.4200000000000017
21
-92.4799999999999898
0
LINE
8
BLACK
6
CONTINUOUS
10
101.4200000000000017
20
-92.4799999999999898
11
100.8199999999999932
21
-92.4799999999999898
0
LINE
8
BLACK
6
CONTINUOUS
10
100.8199999999999932
20
-92.4799999999999898
11
100.7291129999999981
21
-92.4619209999999896
0
LINE
8
BLACK
6
CONTINUOUS
10
100.7291129999999981
20
-92.4619209999999896
11
100.6520620000000008
21
-92.4104379999999992
0
LINE
8
BLACK
6
CONTINUOUS
10
100.6520620000000008
20
-92.4104379999999992
11
100.6005789999999962
21
-92.3333870000000019
0
LINE
8
BLACK
6
CONTINUOUS
10
100.6005789999999962
20
-92.3333870000000019
11
100.582499999999996
21
-92.2424999999999926
0
LINE
8
BLACK
6
CONTINUOUS
10
100.582499999999996
20
-92.2424999999999926
11
100.582499999999996
21
-91.7674999999999983
0
LINE
8
BLACK
6
CONTINUOUS
10
100.582499999999996
20
-91.7674999999999983
11
100.6005789999999962
21
-91.676612999999989
0
LINE
8
BLACK
6
CONTINUOUS
10
100.6005789999999962
20
-91.676612999999989
11
100.6520620000000008
21
-91.5995619999999917
0
LINE
8
BLACK
6
CONTINUOUS
10
100.6520620000000008
20
-91.5995619999999917
11
100.7291129999999981
21
-91.5480790000000013
0
LINE
8
BLACK
6
CONTINUOUS
10
100.7291129999999981
20
-91.5480790000000013
11
100.8199999999999932
21
-91.5300000000000011
0
LINE
8
BLACK
6
CONTINUOUS
10
100.8199999999999932
20
-91.5300000000000011
11
101.4200000000000017
21
-91.5300000000000011
0
LINE
8
BLACK
6
CONTINUOUS
10
101.4200000000000017
20
-91.5300000000000011
11
101.5108869999999968
21
-91.5480790000000013
0
LINE
8
BLACK
6
CONTINUOUS
10
103.0549999999999926
20
-91.9449999999999932
11
102.0549999999999926
21
-91.9449999999999932
0
LINE
8
BLACK
6
CONTINUOUS
10
102.0549999999999926
20
-91.9449999999999932
11
102.0549999999999926
21
-90.9449999999999932
0
LINE
8
BLACK
6
CONTINUOUS
10
102.0549999999999926
20
-90.9449999999999932
11
103.0549999999999926
21
-90.9449999999999932
0
LINE
8
BLACK
6
CONTINUOUS
10
103.0549999999999926
20
-90.9449999999999932
11
103.0549999999999926
21
-91.9449999999999932
0
LINE
8
BLACK
6
CONTINUOUS
10
111.8058869999999985
20
-90.8480789999999985
11
111.8829379999999958
21
-90.8995619999999889
0
LINE
8
BLACK
6
CONTINUOUS
10
111.8829379999999958
20
-90.8995619999999889
11
111.9344210000000004
21
-90.9766130000000004
0
LINE
8
BLACK
6
CONTINUOUS
10
111.9344210000000004
20
-90.9766130000000004
11
111.9525000000000006
21
-91.0674999999999955
0
LINE
8
BLACK
6
CONTINUOUS
10
111.9525000000000006
20
-91.0674999999999955
11
111.9525000000000006
21
-91.5674999999999955
0
LINE
8
BLACK
6
CONTINUOUS
10
111.9525000000000006
20
-91.5674999999999955
11
111.9344210000000004
21
-91.6583869999999905
0
LINE
8
BLACK
6
CONTINUOUS
10
111.9344210000000004
20
-91.6583869999999905
11
111.8829379999999958
21
-91.735438000000002
0
LINE
8
BLACK
6
CONTINUOUS
10
111.8829379999999958
20
-91.735438000000002
11
111.8058869999999985
21
-91.7869209999999924
0
LINE
8
BLACK
6
CONTINUOUS
10
111.8058869999999985
20
-91.7869209999999924
11
111.7149999999999892
21
-91.8049999999999926
0
LINE
8
BLACK
6
CONTINUOUS
10
111.7149999999999892
20
-91.8049999999999926
11
111.2399999999999949
21
-91.8049999999999926
0
LINE
8
BLACK
6
CONTINUOUS
10
111.2399999999999949
20
-91.8049999999999926
11
111.1491129999999998
21
-91.7869209999999924
0
LINE
8
BLACK
6
CONTINUOUS
10
111.1491129999999998
20
-91.7869209999999924
11
111.0720619999999883
21
-91.735438000000002
0
LINE
8
BLACK
6
CONTINUOUS
10
111.0720619999999883
20
-91.735438000000002
11
111.0205789999999979
21
-91.6583869999999905
0
LINE
8
BLACK
6
CONTINUOUS
10
111.0205789999999979
20
-91.6583869999999905
11
111.0024999999999977
21
-91.5674999999999955
0
LINE
8
BLACK
6
CONTINUOUS
10
111.0024999999999977
20
-91.5674999999999955
11
111.0024999999999977
21
-91.0674999999999955
0
LINE
8
BLACK
6
CONTINUOUS
10
111.0024999999999977
20
-91.0674999999999955
11
111.0205789999999979
21
-90.9766130000000004
0
LINE
8
BLACK
6
CONTINUOUS
10
111.0205789999999979
20
-90.9766130000000004
11
111.0720619999999883
21
-90.8995619999999889
0
LINE
8
BLACK
6
CONTINUOUS
10
111.0720619999999883
20
-90.8995619999999889
11
111.1491129999999998
21
-90.8480789999999985
0
LINE
8
BLACK
6
CONTINUOUS
10
111.1491129999999998
20
-90.8480789999999985
11
111.2399999999999949
21
-90.8299999999999983
0
LINE
8
BLACK
6
CONTINUOUS
10
111.2399999999999949
20
-90.8299999999999983
11
111.7149999999999892
21
-90.8299999999999983
0
LINE
8
BLACK
6
CONTINUOUS
10
111.7149999999999892
20
-90.8299999999999983
11
111.8058869999999985
21
-90.8480789999999985
0
LINE
8
BLACK
6
CONTINUOUS
10
113.4649029999999925
20
-91.0214179999999971
11
113.5135659999999973
21
-91.0539339999999982
0
LINE
8
BLACK
6
CONTINUOUS
10
113.5135659999999973
20
-91.0539339999999982
11
113.5460819999999984
21
-91.1025970000000029
0
LINE
8
BLACK
6
CONTINUOUS
10
113.5460819999999984
20
-91.1025970000000029
11
113.5574999999999903
21
-91.1599999999999966
0
LINE
8
BLACK
6
CONTINUOUS
10
113.5574999999999903
20
-91.1599999999999966
11
113.5574999999999903
21
-91.4599999999999937
0
LINE
8
BLACK
6
CONTINUOUS
10
113.5574999999999903
20
-91.4599999999999937
11
113.5460819999999984
21
-91.5174030000000016
0
LINE
8
BLACK
6
CONTINUOUS
10
113.5460819999999984
20
-91.5174030000000016
11
113.5135659999999973
21
-91.5660659999999922
0
LINE
8
BLACK
6
CONTINUOUS
10
113.5135659999999973
20
-91.5660659999999922
11
113.4649029999999925
21
-91.5985819999999933
0
LINE
8
BLACK
6
CONTINUOUS
10
113.4649029999999925
20
-91.5985819999999933
11
113.4074999999999989
21
-91.6099999999999994
0
LINE
8
BLACK
6
CONTINUOUS
10
113.4074999999999989
20
-91.6099999999999994
11
112.2325000000000017
21
-91.6099999999999994
0
LINE
8
BLACK
6
CONTINUOUS
10
112.2325000000000017
20
-91.6099999999999994
11
112.1750969999999938
21
-91.5985819999999933
0
LINE
8
BLACK
6
CONTINUOUS
10
112.1750969999999938
20
-91.5985819999999933
11
112.1264339999999891
21
-91.5660659999999922
0
LINE
8
BLACK
6
CONTINUOUS
10
112.1264339999999891
20
-91.5660659999999922
11
112.093917999999988
21
-91.5174030000000016
0
LINE
8
BLACK
6
CONTINUOUS
10
112.093917999999988
20
-91.5174030000000016
11
112.082499999999996
21
-91.4599999999999937
0
LINE
8
BLACK
6
CONTINUOUS
10
112.082499999999996
20
-91.4599999999999937
11
112.082499999999996
21
-91.1599999999999966
0
LINE
8
BLACK
6
CONTINUOUS
10
112.082499999999996
20
-91.1599999999999966
11
112.093917999999988
21
-91.1025970000000029
0
LINE
8
BLACK
6
CONTINUOUS
10
112.093917999999988
20
-91.1025970000000029
11
112.1264339999999891
21
-91.0539339999999982
0
LINE
8
BLACK
6
CONTINUOUS
10
112.1264339999999891
20
-91.0539339999999982
11
112.1750969999999938
21
-91.0214179999999971
0
LINE
8
BLACK
6
CONTINUOUS
10
112.1750969999999938
20
-91.0214179999999971
11
112.2325000000000017
21
-91.0099999999999909
0
LINE
8
BLACK
6
CONTINUOUS
10
112.2325000000000017
20
-91.0099999999999909
11
113.4074999999999989
21
-91.0099999999999909
0
LINE
8
BLACK
6
CONTINUOUS
10
113.4074999999999989
20
-91.0099999999999909
11
113.4649029999999925
21
-91.0214179999999971
0
LINE
8
BLACK
6
CONTINUOUS
10
106.9283870000000007
20
-90.3255789999999905
11
107.0054379999999981
21
-90.3770619999999951
0
LINE
8
BLACK
6
CONTINUOUS
10
107.0054379999999981
20
-90.3770619999999951
11
107.0569209999999885
21
-90.4541129999999924
0
LINE
8
BLACK
6
CONTINUOUS
10
107.0569209999999885
20
-90.4541129999999924
11
107.0749999999999886
21
-90.5450000000000017
0
LINE
8
BLACK
6
CONTINUOUS
10
107.0749999999999886
20
-90.5450000000000017
11
107.0749999999999886
21
-91.0450000000000017
0
LINE
8
BLACK
6
CONTINUOUS
10
107.0749999999999886
20
-91.0450000000000017
11
107.0569209999999885
21
-91.1358869999999968
0
LINE
8
BLACK
6
CONTINUOUS
10
107.0569209999999885
20
-91.1358869999999968
11
107.0054379999999981
21
-91.2129379999999941
0
LINE
8
BLACK
6
CONTINUOUS
10
107.0054379999999981
20
-91.2129379999999941
11
106.9283870000000007
21
-91.2644209999999987
0
LINE
8
BLACK
6
CONTINUOUS
10
106.9283870000000007
20
-91.2644209999999987
11
106.8374999999999915
21
-91.2824999999999989
0
LINE
8
BLACK
6
CONTINUOUS
10
106.8374999999999915
20
-91.2824999999999989
11
106.3624999999999972
21
-91.2824999999999989
0
LINE
8
BLACK
6
CONTINUOUS
10
106.3624999999999972
20
-91.2824999999999989
11
106.2716130000000021
21
-91.2644209999999987
0
LINE
8
BLACK
6
CONTINUOUS
10
106.2716130000000021
20
-91.2644209999999987
11
106.1945619999999906
21
-91.2129379999999941
0
LINE
8
BLACK
6
CONTINUOUS
10
106.1945619999999906
20
-91.2129379999999941
11
106.1430790000000002
21
-91.1358869999999968
0
LINE
8
BLACK
6
CONTINUOUS
10
106.1430790000000002
20
-91.1358869999999968
11
106.125
21
-91.0450000000000017
0
LINE
8
BLACK
6
CONTINUOUS
10
106.125
20
-91.0450000000000017
11
106.125
21
-90.5450000000000017
0
LINE
8
BLACK
6
CONTINUOUS
10
106.125
20
-90.5450000000000017
11
106.1430790000000002
21
-90.4541129999999924
0
LINE
8
BLACK
6
CONTINUOUS
10
106.1430790000000002
20
-90.4541129999999924
11
106.1945619999999906
21
-90.3770619999999951
0
LINE
8
BLACK
6
CONTINUOUS
10
106.1945619999999906
20
-90.3770619999999951
11
106.2716130000000021
21
-90.3255789999999905
0
LINE
8
BLACK
6
CONTINUOUS
10
106.2716130000000021
20
-90.3255789999999905
11
106.3624999999999972
21
-90.3074999999999903
0
LINE
8
BLACK
6
CONTINUOUS
10
106.3624999999999972
20
-90.3074999999999903
11
106.8374999999999915
21
-90.3074999999999903
0
LINE
8
BLACK
6
CONTINUOUS
10
106.8374999999999915
20
-90.3074999999999903
11
106.9283870000000007
21
-90.3255789999999905
0
LINE
8
BLACK
6
CONTINUOUS
10
109.8999999999999915
20
-90.7099999999999937
11
108.1999999999999886
21
-90.7099999999999937
0
LINE
8
BLACK
6
CONTINUOUS
10
108.1999999999999886
20
-90.7099999999999937
11
108.1999999999999886
21
-89.8100000000000023
0
LINE
8
BLACK
6
CONTINUOUS
10
108.1999999999999886
20
-89.8100000000000023
11
109.8999999999999915
21
-89.8100000000000023
0
LINE
8
BLACK
6
CONTINUOUS
10
109.8999999999999915
20
-89.8100000000000023
11
109.8999999999999915
21
-90.7099999999999937
  0
ENDSEC
  0
EOF
