  0
SECTION
  2
HEADER
  9
$ANGBASE
  50
0.0
  9
$ANGDIR
  70
1
  9
$MEASUREMENT
  70
1
  0
ENDSEC
  0
SECTION
  2
TABLES
  0
TABLE
  2
LTYPE
  70
4
  0
LTYPE
  5
40F
  2
CONTINUOUS
  70
0
  3
Solid line
  72
65
  73
0
  40
0.0
  0
LTYPE
  5
410
  2
DASHDOT
 70
0
  3
Dash Dot ____ _ ____ _
 72
65
 73
4
 40
2.0
 49
1.25
 49
-0.25
 49
0.25
 49
-0.25
  0
LTYPE
  5
411
  2
DASHED
 70
0
  3
Dashed __ __ __ __ __
 72
65
 73
2
 40
0.75
 49
0.5
 49
-0.25
  0
LTYPE
  5
43B
  2
DOTTED
 70
0
  3
Dotted .  .  .  .
 72
65
 73
2
 40
0.2
 49
0.0
 49
-0.2
  0
ENDTAB
  0
TABLE
  2
STYLE
  70
4
  0
STYLE
  2
KICAD
  70
0
  40
0
  41
1
  42
1
  50
0
  71
0
  3
isocp.shx
  0
STYLE
  2
KICADB
  70
0
  40
0
  41
1
  42
1
  50
0
  71
0
  3
isocp.shx
  0
STYLE
  2
KICADI
  70
0
  40
0
  41
1
  42
1
  50
15
  71
0
  3
isocp.shx
  0
STYLE
  2
KICADBI
  70
0
  40
0
  41
1
  42
1
  50
15
  71
0
  3
isocp.shx
  0
ENDTAB
  0
TABLE
  2
LAYER
  70
1
  0
LAYER
  2
BLACK
  70
0
  62
7
  6
CONTINUOUS
  0
ENDTAB
  0
ENDSEC
  0
SECTION
  2
ENTITIES
0
LINE
8
BLACK
6
CONTINUOUS
10
124.874566999999999
20
-89.4919029999999935
11
124.8880969999999877
21
-89.5054329999999965
0
LINE
8
BLACK
6
CONTINUOUS
10
124.8880969999999877
20
-89.5054329999999965
11
124.8900000000000006
21
-89.5150000000000006
0
LINE
8
BLACK
6
CONTINUOUS
10
124.8900000000000006
20
-89.5150000000000006
11
124.8900000000000006
21
-101.2049999999999983
0
LINE
8
BLACK
6
CONTINUOUS
10
124.8900000000000006
20
-101.2049999999999983
11
124.8880969999999877
21
-101.2145670000000024
0
LINE
8
BLACK
6
CONTINUOUS
10
124.8880969999999877
20
-101.2145670000000024
11
124.874566999999999
21
-101.2280969999999911
0
LINE
8
BLACK
6
CONTINUOUS
10
124.874566999999999
20
-101.2280969999999911
11
124.8649999999999949
21
-101.2299999999999898
0
LINE
8
BLACK
6
CONTINUOUS
10
124.8649999999999949
20
-101.2299999999999898
11
98.144999999999996
21
-101.2299999999999898
0
LINE
8
BLACK
6
CONTINUOUS
10
98.144999999999996
20
-101.2299999999999898
11
98.1354329999999919
21
-101.2280969999999911
0
LINE
8
BLACK
6
CONTINUOUS
10
98.1354329999999919
20
-101.2280969999999911
11
98.121902999999989
21
-101.2145670000000024
0
LINE
8
BLACK
6
CONTINUOUS
10
98.121902999999989
20
-101.2145670000000024
11
98.1199999999999903
21
-101.2049999999999983
0
LINE
8
BLACK
6
CONTINUOUS
10
98.1199999999999903
20
-101.2049999999999983
11
98.1199999999999903
21
-89.5150000000000006
0
LINE
8
BLACK
6
CONTINUOUS
10
98.1199999999999903
20
-89.5150000000000006
11
98.121902999999989
21
-89.5054329999999965
0
LINE
8
BLACK
6
CONTINUOUS
10
98.121902999999989
20
-89.5054329999999965
11
98.1354329999999919
21
-89.4919029999999935
0
LINE
8
BLACK
6
CONTINUOUS
10
98.1354329999999919
20
-89.4919029999999935
11
98.144999999999996
21
-89.4899999999999949
0
LINE
8
BLACK
6
CONTINUOUS
10
98.144999999999996
20
-89.4899999999999949
11
124.8649999999999949
21
-89.4899999999999949
0
LINE
8
BLACK
6
CONTINUOUS
10
124.8649999999999949
20
-89.4899999999999949
11
124.874566999999999
21
-89.4919029999999935
0
LINE
8
BLACK
6
CONTINUOUS
10
98.1700000000000017
20
-89.539999999999992
11
98.1700000000000017
21
-101.1799999999999926
0
LINE
8
BLACK
6
CONTINUOUS
10
98.1700000000000017
20
-101.1799999999999926
11
124.8399999999999892
21
-101.1799999999999926
0
LINE
8
BLACK
6
CONTINUOUS
10
124.8399999999999892
20
-101.1799999999999926
11
124.8399999999999892
21
-89.539999999999992
0
LINE
8
BLACK
6
CONTINUOUS
10
124.8399999999999892
20
-89.539999999999992
11
98.1700000000000017
21
-89.539999999999992
  0
ENDSEC
  0
EOF
