  0
SECTION
  2
HEADER
  9
$ANGBASE
  50
0.0
  9
$ANGDIR
  70
1
  9
$MEASUREMENT
  70
1
  0
ENDSEC
  0
SECTION
  2
TABLES
  0
TABLE
  2
LTYPE
  70
4
  0
LTYPE
  5
40F
  2
CONTINUOUS
  70
0
  3
Solid line
  72
65
  73
0
  40
0.0
  0
LTYPE
  5
410
  2
DASHDOT
 70
0
  3
Dash Dot ____ _ ____ _
 72
65
 73
4
 40
2.0
 49
1.25
 49
-0.25
 49
0.25
 49
-0.25
  0
LTYPE
  5
411
  2
DASHED
 70
0
  3
Dashed __ __ __ __ __
 72
65
 73
2
 40
0.75
 49
0.5
 49
-0.25
  0
LTYPE
  5
43B
  2
DOTTED
 70
0
  3
Dotted .  .  .  .
 72
65
 73
2
 40
0.2
 49
0.0
 49
-0.2
  0
ENDTAB
  0
TABLE
  2
STYLE
  70
4
  0
STYLE
  2
KICAD
  70
0
  40
0
  41
1
  42
1
  50
0
  71
0
  3
isocp.shx
  0
STYLE
  2
KICADB
  70
0
  40
0
  41
1
  42
1
  50
0
  71
0
  3
isocp.shx
  0
STYLE
  2
KICADI
  70
0
  40
0
  41
1
  42
1
  50
15
  71
0
  3
isocp.shx
  0
STYLE
  2
KICADBI
  70
0
  40
0
  41
1
  42
1
  50
15
  71
0
  3
isocp.shx
  0
ENDTAB
  0
TABLE
  2
LAYER
  70
1
  0
LAYER
  2
BLACK
  70
0
  62
7
  6
CONTINUOUS
  0
ENDTAB
  0
ENDSEC
  0
SECTION
  2
ENTITIES
0
LINE
8
BLACK
6
CONTINUOUS
10
182.6451339999999846
20
-72.737805999999992
11
182.6721939999999904
21
-72.7648659999999978
0
LINE
8
BLACK
6
CONTINUOUS
10
182.6721939999999904
20
-72.7648659999999978
11
182.6759999999999877
21
-72.7839999999999918
0
LINE
8
BLACK
6
CONTINUOUS
10
182.6759999999999877
20
-72.7839999999999918
11
182.6759999999999877
21
-97.9889999999999901
0
LINE
8
BLACK
6
CONTINUOUS
10
182.6759999999999877
20
-97.9889999999999901
11
182.6721939999999904
21
-98.0081339999999983
0
LINE
8
BLACK
6
CONTINUOUS
10
182.6721939999999904
20
-98.0081339999999983
11
182.6451339999999846
21
-98.03519399999999
0
LINE
8
BLACK
6
CONTINUOUS
10
182.6451339999999846
20
-98.03519399999999
11
182.6260000000000048
21
-98.0390000000000015
0
LINE
8
BLACK
6
CONTINUOUS
10
182.6260000000000048
20
-98.0390000000000015
11
152.2210000000000036
21
-98.0390000000000015
0
LINE
8
BLACK
6
CONTINUOUS
10
152.2210000000000036
20
-98.0390000000000015
11
152.2018659999999954
21
-98.03519399999999
0
LINE
8
BLACK
6
CONTINUOUS
10
152.2018659999999954
20
-98.03519399999999
11
152.1748059999999896
21
-98.0081339999999983
0
LINE
8
BLACK
6
CONTINUOUS
10
152.1748059999999896
20
-98.0081339999999983
11
152.1709999999999923
21
-97.9889999999999901
0
LINE
8
BLACK
6
CONTINUOUS
10
152.1709999999999923
20
-97.9889999999999901
11
152.1709999999999923
21
-72.7839999999999918
0
LINE
8
BLACK
6
CONTINUOUS
10
152.1709999999999923
20
-72.7839999999999918
11
152.1748059999999896
21
-72.7648659999999978
0
LINE
8
BLACK
6
CONTINUOUS
10
152.1748059999999896
20
-72.7648659999999978
11
152.2018659999999954
21
-72.737805999999992
0
LINE
8
BLACK
6
CONTINUOUS
10
152.2018659999999954
20
-72.737805999999992
11
152.2210000000000036
21
-72.7339999999999947
0
LINE
8
BLACK
6
CONTINUOUS
10
152.2210000000000036
20
-72.7339999999999947
11
182.6260000000000048
21
-72.7339999999999947
0
LINE
8
BLACK
6
CONTINUOUS
10
182.6260000000000048
20
-72.7339999999999947
11
182.6451339999999846
21
-72.737805999999992
0
LINE
8
BLACK
6
CONTINUOUS
10
152.2709999999999866
20
-72.8340000000000032
11
152.2709999999999866
21
-97.938999999999993
0
LINE
8
BLACK
6
CONTINUOUS
10
152.2709999999999866
20
-97.938999999999993
11
182.5759999999999934
21
-97.938999999999993
0
LINE
8
BLACK
6
CONTINUOUS
10
182.5759999999999934
20
-97.938999999999993
11
182.5759999999999934
21
-72.8340000000000032
0
LINE
8
BLACK
6
CONTINUOUS
10
182.5759999999999934
20
-72.8340000000000032
11
152.2709999999999866
21
-72.8340000000000032
  0
ENDSEC
  0
EOF
