  0
SECTION
  2
HEADER
  9
$ANGBASE
  50
0.0
  9
$ANGDIR
  70
1
  9
$MEASUREMENT
  70
1
  0
ENDSEC
  0
SECTION
  2
TABLES
  0
TABLE
  2
LTYPE
  70
4
  0
LTYPE
  5
40F
  2
CONTINUOUS
  70
0
  3
Solid line
  72
65
  73
0
  40
0.0
  0
LTYPE
  5
410
  2
DASHDOT
 70
0
  3
Dash Dot ____ _ ____ _
 72
65
 73
4
 40
2.0
 49
1.25
 49
-0.25
 49
0.25
 49
-0.25
  0
LTYPE
  5
411
  2
DASHED
 70
0
  3
Dashed __ __ __ __ __
 72
65
 73
2
 40
0.75
 49
0.5
 49
-0.25
  0
LTYPE
  5
43B
  2
DOTTED
 70
0
  3
Dotted .  .  .  .
 72
65
 73
2
 40
0.2
 49
0.0
 49
-0.2
  0
ENDTAB
  0
TABLE
  2
STYLE
  70
4
  0
STYLE
  2
KICAD
  70
0
  40
0
  41
1
  42
1
  50
0
  71
0
  3
isocp.shx
  0
STYLE
  2
KICADB
  70
0
  40
0
  41
1
  42
1
  50
0
  71
0
  3
isocp.shx
  0
STYLE
  2
KICADI
  70
0
  40
0
  41
1
  42
1
  50
15
  71
0
  3
isocp.shx
  0
STYLE
  2
KICADBI
  70
0
  40
0
  41
1
  42
1
  50
15
  71
0
  3
isocp.shx
  0
ENDTAB
  0
TABLE
  2
LAYER
  70
1
  0
LAYER
  2
BLACK
  70
0
  62
7
  6
CONTINUOUS
  0
ENDTAB
  0
ENDSEC
  0
SECTION
  2
ENTITIES
0
LINE
8
BLACK
6
CONTINUOUS
10
177.002
20
-166.007
11
285.002
21
-166.007
0
LINE
8
BLACK
6
CONTINUOUS
10
285.002
20
-166.007
11
285.002
21
-198.007
0
LINE
8
BLACK
6
CONTINUOUS
10
285.002
20
-198.007
11
177.002
21
-198.007
0
LINE
8
BLACK
6
CONTINUOUS
10
177.002
20
-198.007
11
177.002
21
-166.007
0
LINE
8
BLACK
6
CONTINUOUS
10
10
20
-10
11
287.002
21
-10
0
LINE
8
BLACK
6
CONTINUOUS
10
287.002
20
-10
11
287.002
21
-200.007
0
LINE
8
BLACK
6
CONTINUOUS
10
287.002
20
-200.007
11
10
21
-200.007
0
LINE
8
BLACK
6
CONTINUOUS
10
10
20
-200.007
11
10
21
-10
0
LINE
8
BLACK
6
CONTINUOUS
10
12
20
-12
11
285.002
21
-12
0
LINE
8
BLACK
6
CONTINUOUS
10
285.002
20
-12
11
285.002
21
-198.007
0
LINE
8
BLACK
6
CONTINUOUS
10
285.002
20
-198.007
11
12
21
-198.007
0
LINE
8
BLACK
6
CONTINUOUS
10
12
20
-198.007
11
12
21
-12
0
LINE
8
BLACK
6
CONTINUOUS
10
60
20
-12
11
60
21
-10
0
LINE
8
BLACK
6
CONTINUOUS
10
110
20
-12
11
110
21
-10
0
LINE
8
BLACK
6
CONTINUOUS
10
160
20
-12
11
160
21
-10
0
LINE
8
BLACK
6
CONTINUOUS
10
210
20
-12
11
210
21
-10
0
LINE
8
BLACK
6
CONTINUOUS
10
260
20
-12
11
260
21
-10
0
LINE
8
BLACK
6
CONTINUOUS
10
36.0892
20
-11.5936
11
35.3463
21
-11.5936
0
LINE
8
BLACK
6
CONTINUOUS
10
35.7177
20
-11.5936
11
35.7177
21
-10.2936
0
LINE
8
BLACK
6
CONTINUOUS
10
35.7177
20
-10.2936
11
35.5939
21
-10.4793
0
LINE
8
BLACK
6
CONTINUOUS
10
35.5939
20
-10.4793
11
35.4701
21
-10.6031
0
LINE
8
BLACK
6
CONTINUOUS
10
35.4701
20
-10.6031
11
35.3463
21
-10.665
0
LINE
8
BLACK
6
CONTINUOUS
10
85.3463
20
-10.4174
11
85.4082
21
-10.3555
0
LINE
8
BLACK
6
CONTINUOUS
10
85.4082
20
-10.3555
11
85.532
21
-10.2936
0
LINE
8
BLACK
6
CONTINUOUS
10
85.532
20
-10.2936
11
85.8415
21
-10.2936
0
LINE
8
BLACK
6
CONTINUOUS
10
85.8415
20
-10.2936
11
85.9654
21
-10.3555
0
LINE
8
BLACK
6
CONTINUOUS
10
85.9654
20
-10.3555
11
86.0273
21
-10.4174
0
LINE
8
BLACK
6
CONTINUOUS
10
86.0273
20
-10.4174
11
86.0892
21
-10.5412
0
LINE
8
BLACK
6
CONTINUOUS
10
86.0892
20
-10.5412
11
86.0892
21
-10.665
0
LINE
8
BLACK
6
CONTINUOUS
10
86.0892
20
-10.665
11
86.0273
21
-10.8507
0
LINE
8
BLACK
6
CONTINUOUS
10
86.0273
20
-10.8507
11
85.2844
21
-11.5936
0
LINE
8
BLACK
6
CONTINUOUS
10
85.2844
20
-11.5936
11
86.0892
21
-11.5936
0
LINE
8
BLACK
6
CONTINUOUS
10
135.284
20
-10.2936
11
136.089
21
-10.2936
0
LINE
8
BLACK
6
CONTINUOUS
10
136.089
20
-10.2936
11
135.656
21
-10.7888
0
LINE
8
BLACK
6
CONTINUOUS
10
135.656
20
-10.7888
11
135.842
21
-10.7888
0
LINE
8
BLACK
6
CONTINUOUS
10
135.842
20
-10.7888
11
135.965
21
-10.8507
0
LINE
8
BLACK
6
CONTINUOUS
10
135.965
20
-10.8507
11
136.027
21
-10.9127
0
LINE
8
BLACK
6
CONTINUOUS
10
136.027
20
-10.9127
11
136.089
21
-11.0365
0
LINE
8
BLACK
6
CONTINUOUS
10
136.089
20
-11.0365
11
136.089
21
-11.346
0
LINE
8
BLACK
6
CONTINUOUS
10
136.089
20
-11.346
11
136.027
21
-11.4698
0
LINE
8
BLACK
6
CONTINUOUS
10
136.027
20
-11.4698
11
135.965
21
-11.5317
0
LINE
8
BLACK
6
CONTINUOUS
10
135.965
20
-11.5317
11
135.842
21
-11.5936
0
LINE
8
BLACK
6
CONTINUOUS
10
135.842
20
-11.5936
11
135.47
21
-11.5936
0
LINE
8
BLACK
6
CONTINUOUS
10
135.47
20
-11.5936
11
135.346
21
-11.5317
0
LINE
8
BLACK
6
CONTINUOUS
10
135.346
20
-11.5317
11
135.284
21
-11.4698
0
LINE
8
BLACK
6
CONTINUOUS
10
185.965
20
-10.7269
11
185.965
21
-11.5936
0
LINE
8
BLACK
6
CONTINUOUS
10
185.656
20
-10.2317
11
185.346
21
-11.1603
0
LINE
8
BLACK
6
CONTINUOUS
10
185.346
20
-11.1603
11
186.151
21
-11.1603
0
LINE
8
BLACK
6
CONTINUOUS
10
236.027
20
-10.2936
11
235.408
21
-10.2936
0
LINE
8
BLACK
6
CONTINUOUS
10
235.408
20
-10.2936
11
235.346
21
-10.9127
0
LINE
8
BLACK
6
CONTINUOUS
10
235.346
20
-10.9127
11
235.408
21
-10.8507
0
LINE
8
BLACK
6
CONTINUOUS
10
235.408
20
-10.8507
11
235.532
21
-10.7888
0
LINE
8
BLACK
6
CONTINUOUS
10
235.532
20
-10.7888
11
235.842
21
-10.7888
0
LINE
8
BLACK
6
CONTINUOUS
10
235.842
20
-10.7888
11
235.965
21
-10.8507
0
LINE
8
BLACK
6
CONTINUOUS
10
235.965
20
-10.8507
11
236.027
21
-10.9127
0
LINE
8
BLACK
6
CONTINUOUS
10
236.027
20
-10.9127
11
236.089
21
-11.0365
0
LINE
8
BLACK
6
CONTINUOUS
10
236.089
20
-11.0365
11
236.089
21
-11.346
0
LINE
8
BLACK
6
CONTINUOUS
10
236.089
20
-11.346
11
236.027
21
-11.4698
0
LINE
8
BLACK
6
CONTINUOUS
10
236.027
20
-11.4698
11
235.965
21
-11.5317
0
LINE
8
BLACK
6
CONTINUOUS
10
235.965
20
-11.5317
11
235.842
21
-11.5936
0
LINE
8
BLACK
6
CONTINUOUS
10
235.842
20
-11.5936
11
235.532
21
-11.5936
0
LINE
8
BLACK
6
CONTINUOUS
10
235.532
20
-11.5936
11
235.408
21
-11.5317
0
LINE
8
BLACK
6
CONTINUOUS
10
235.408
20
-11.5317
11
235.346
21
-11.4698
0
LINE
8
BLACK
6
CONTINUOUS
10
285.965
20
-10.2936
11
285.718
21
-10.2936
0
LINE
8
BLACK
6
CONTINUOUS
10
285.718
20
-10.2936
11
285.594
21
-10.3555
0
LINE
8
BLACK
6
CONTINUOUS
10
285.594
20
-10.3555
11
285.532
21
-10.4174
0
LINE
8
BLACK
6
CONTINUOUS
10
285.532
20
-10.4174
11
285.408
21
-10.6031
0
LINE
8
BLACK
6
CONTINUOUS
10
285.408
20
-10.6031
11
285.346
21
-10.8507
0
LINE
8
BLACK
6
CONTINUOUS
10
285.346
20
-10.8507
11
285.346
21
-11.346
0
LINE
8
BLACK
6
CONTINUOUS
10
285.346
20
-11.346
11
285.408
21
-11.4698
0
LINE
8
BLACK
6
CONTINUOUS
10
285.408
20
-11.4698
11
285.47
21
-11.5317
0
LINE
8
BLACK
6
CONTINUOUS
10
285.47
20
-11.5317
11
285.594
21
-11.5936
0
LINE
8
BLACK
6
CONTINUOUS
10
285.594
20
-11.5936
11
285.842
21
-11.5936
0
LINE
8
BLACK
6
CONTINUOUS
10
285.842
20
-11.5936
11
285.965
21
-11.5317
0
LINE
8
BLACK
6
CONTINUOUS
10
285.965
20
-11.5317
11
286.027
21
-11.4698
0
LINE
8
BLACK
6
CONTINUOUS
10
286.027
20
-11.4698
11
286.089
21
-11.346
0
LINE
8
BLACK
6
CONTINUOUS
10
286.089
20
-11.346
11
286.089
21
-11.0365
0
LINE
8
BLACK
6
CONTINUOUS
10
286.089
20
-11.0365
11
286.027
21
-10.9127
0
LINE
8
BLACK
6
CONTINUOUS
10
286.027
20
-10.9127
11
285.965
21
-10.8507
0
LINE
8
BLACK
6
CONTINUOUS
10
285.965
20
-10.8507
11
285.842
21
-10.7888
0
LINE
8
BLACK
6
CONTINUOUS
10
285.842
20
-10.7888
11
285.594
21
-10.7888
0
LINE
8
BLACK
6
CONTINUOUS
10
285.594
20
-10.7888
11
285.47
21
-10.8507
0
LINE
8
BLACK
6
CONTINUOUS
10
285.47
20
-10.8507
11
285.408
21
-10.9127
0
LINE
8
BLACK
6
CONTINUOUS
10
285.408
20
-10.9127
11
285.346
21
-11.0365
0
LINE
8
BLACK
6
CONTINUOUS
10
60
20
-198.007
11
60
21
-200.007
0
LINE
8
BLACK
6
CONTINUOUS
10
110
20
-198.007
11
110
21
-200.007
0
LINE
8
BLACK
6
CONTINUOUS
10
160
20
-198.007
11
160
21
-200.007
0
LINE
8
BLACK
6
CONTINUOUS
10
210
20
-198.007
11
210
21
-200.007
0
LINE
8
BLACK
6
CONTINUOUS
10
260
20
-198.007
11
260
21
-200.007
0
LINE
8
BLACK
6
CONTINUOUS
10
36.0892
20
-199.601
11
35.3463
21
-199.601
0
LINE
8
BLACK
6
CONTINUOUS
10
35.7177
20
-199.601
11
35.7177
21
-198.301
0
LINE
8
BLACK
6
CONTINUOUS
10
35.7177
20
-198.301
11
35.5939
21
-198.487
0
LINE
8
BLACK
6
CONTINUOUS
10
35.5939
20
-198.487
11
35.4701
21
-198.61
0
LINE
8
BLACK
6
CONTINUOUS
10
35.4701
20
-198.61
11
35.3463
21
-198.672
0
LINE
8
BLACK
6
CONTINUOUS
10
85.3463
20
-198.425
11
85.4082
21
-198.363
0
LINE
8
BLACK
6
CONTINUOUS
10
85.4082
20
-198.363
11
85.532
21
-198.301
0
LINE
8
BLACK
6
CONTINUOUS
10
85.532
20
-198.301
11
85.8415
21
-198.301
0
LINE
8
BLACK
6
CONTINUOUS
10
85.8415
20
-198.301
11
85.9654
21
-198.363
0
LINE
8
BLACK
6
CONTINUOUS
10
85.9654
20
-198.363
11
86.0273
21
-198.425
0
LINE
8
BLACK
6
CONTINUOUS
10
86.0273
20
-198.425
11
86.0892
21
-198.548
0
LINE
8
BLACK
6
CONTINUOUS
10
86.0892
20
-198.548
11
86.0892
21
-198.672
0
LINE
8
BLACK
6
CONTINUOUS
10
86.0892
20
-198.672
11
86.0273
21
-198.858
0
LINE
8
BLACK
6
CONTINUOUS
10
86.0273
20
-198.858
11
85.2844
21
-199.601
0
LINE
8
BLACK
6
CONTINUOUS
10
85.2844
20
-199.601
11
86.0892
21
-199.601
0
LINE
8
BLACK
6
CONTINUOUS
10
135.284
20
-198.301
11
136.089
21
-198.301
0
LINE
8
BLACK
6
CONTINUOUS
10
136.089
20
-198.301
11
135.656
21
-198.796
0
LINE
8
BLACK
6
CONTINUOUS
10
135.656
20
-198.796
11
135.842
21
-198.796
0
LINE
8
BLACK
6
CONTINUOUS
10
135.842
20
-198.796
11
135.965
21
-198.858
0
LINE
8
BLACK
6
CONTINUOUS
10
135.965
20
-198.858
11
136.027
21
-198.92
0
LINE
8
BLACK
6
CONTINUOUS
10
136.027
20
-198.92
11
136.089
21
-199.044
0
LINE
8
BLACK
6
CONTINUOUS
10
136.089
20
-199.044
11
136.089
21
-199.353
0
LINE
8
BLACK
6
CONTINUOUS
10
136.089
20
-199.353
11
136.027
21
-199.477
0
LINE
8
BLACK
6
CONTINUOUS
10
136.027
20
-199.477
11
135.965
21
-199.539
0
LINE
8
BLACK
6
CONTINUOUS
10
135.965
20
-199.539
11
135.842
21
-199.601
0
LINE
8
BLACK
6
CONTINUOUS
10
135.842
20
-199.601
11
135.47
21
-199.601
0
LINE
8
BLACK
6
CONTINUOUS
10
135.47
20
-199.601
11
135.346
21
-199.539
0
LINE
8
BLACK
6
CONTINUOUS
10
135.346
20
-199.539
11
135.284
21
-199.477
0
LINE
8
BLACK
6
CONTINUOUS
10
185.965
20
-198.734
11
185.965
21
-199.601
0
LINE
8
BLACK
6
CONTINUOUS
10
185.656
20
-198.239
11
185.346
21
-199.167
0
LINE
8
BLACK
6
CONTINUOUS
10
185.346
20
-199.167
11
186.151
21
-199.167
0
LINE
8
BLACK
6
CONTINUOUS
10
236.027
20
-198.301
11
235.408
21
-198.301
0
LINE
8
BLACK
6
CONTINUOUS
10
235.408
20
-198.301
11
235.346
21
-198.92
0
LINE
8
BLACK
6
CONTINUOUS
10
235.346
20
-198.92
11
235.408
21
-198.858
0
LINE
8
BLACK
6
CONTINUOUS
10
235.408
20
-198.858
11
235.532
21
-198.796
0
LINE
8
BLACK
6
CONTINUOUS
10
235.532
20
-198.796
11
235.842
21
-198.796
0
LINE
8
BLACK
6
CONTINUOUS
10
235.842
20
-198.796
11
235.965
21
-198.858
0
LINE
8
BLACK
6
CONTINUOUS
10
235.965
20
-198.858
11
236.027
21
-198.92
0
LINE
8
BLACK
6
CONTINUOUS
10
236.027
20
-198.92
11
236.089
21
-199.044
0
LINE
8
BLACK
6
CONTINUOUS
10
236.089
20
-199.044
11
236.089
21
-199.353
0
LINE
8
BLACK
6
CONTINUOUS
10
236.089
20
-199.353
11
236.027
21
-199.477
0
LINE
8
BLACK
6
CONTINUOUS
10
236.027
20
-199.477
11
235.965
21
-199.539
0
LINE
8
BLACK
6
CONTINUOUS
10
235.965
20
-199.539
11
235.842
21
-199.601
0
LINE
8
BLACK
6
CONTINUOUS
10
235.842
20
-199.601
11
235.532
21
-199.601
0
LINE
8
BLACK
6
CONTINUOUS
10
235.532
20
-199.601
11
235.408
21
-199.539
0
LINE
8
BLACK
6
CONTINUOUS
10
235.408
20
-199.539
11
235.346
21
-199.477
0
LINE
8
BLACK
6
CONTINUOUS
10
285.965
20
-198.301
11
285.718
21
-198.301
0
LINE
8
BLACK
6
CONTINUOUS
10
285.718
20
-198.301
11
285.594
21
-198.363
0
LINE
8
BLACK
6
CONTINUOUS
10
285.594
20
-198.363
11
285.532
21
-198.425
0
LINE
8
BLACK
6
CONTINUOUS
10
285.532
20
-198.425
11
285.408
21
-198.61
0
LINE
8
BLACK
6
CONTINUOUS
10
285.408
20
-198.61
11
285.346
21
-198.858
0
LINE
8
BLACK
6
CONTINUOUS
10
285.346
20
-198.858
11
285.346
21
-199.353
0
LINE
8
BLACK
6
CONTINUOUS
10
285.346
20
-199.353
11
285.408
21
-199.477
0
LINE
8
BLACK
6
CONTINUOUS
10
285.408
20
-199.477
11
285.47
21
-199.539
0
LINE
8
BLACK
6
CONTINUOUS
10
285.47
20
-199.539
11
285.594
21
-199.601
0
LINE
8
BLACK
6
CONTINUOUS
10
285.594
20
-199.601
11
285.842
21
-199.601
0
LINE
8
BLACK
6
CONTINUOUS
10
285.842
20
-199.601
11
285.965
21
-199.539
0
LINE
8
BLACK
6
CONTINUOUS
10
285.965
20
-199.539
11
286.027
21
-199.477
0
LINE
8
BLACK
6
CONTINUOUS
10
286.027
20
-199.477
11
286.089
21
-199.353
0
LINE
8
BLACK
6
CONTINUOUS
10
286.089
20
-199.353
11
286.089
21
-199.044
0
LINE
8
BLACK
6
CONTINUOUS
10
286.089
20
-199.044
11
286.027
21
-198.92
0
LINE
8
BLACK
6
CONTINUOUS
10
286.027
20
-198.92
11
285.965
21
-198.858
0
LINE
8
BLACK
6
CONTINUOUS
10
285.965
20
-198.858
11
285.842
21
-198.796
0
LINE
8
BLACK
6
CONTINUOUS
10
285.842
20
-198.796
11
285.594
21
-198.796
0
LINE
8
BLACK
6
CONTINUOUS
10
285.594
20
-198.796
11
285.47
21
-198.858
0
LINE
8
BLACK
6
CONTINUOUS
10
285.47
20
-198.858
11
285.408
21
-198.92
0
LINE
8
BLACK
6
CONTINUOUS
10
285.408
20
-198.92
11
285.346
21
-199.044
0
LINE
8
BLACK
6
CONTINUOUS
10
10
20
-60
11
12
21
-60
0
LINE
8
BLACK
6
CONTINUOUS
10
10
20
-110
11
12
21
-110
0
LINE
8
BLACK
6
CONTINUOUS
10
10
20
-160
11
12
21
-160
0
LINE
8
BLACK
6
CONTINUOUS
10
10.6905
20
-35.2222
11
11.3095
21
-35.2222
0
LINE
8
BLACK
6
CONTINUOUS
10
10.5667
20
-35.5936
11
11
21
-34.2936
0
LINE
8
BLACK
6
CONTINUOUS
10
11
20
-34.2936
11
11.4333
21
-35.5936
0
LINE
8
BLACK
6
CONTINUOUS
10
11.0929
20
-84.9127
11
11.2786
21
-84.9746
0
LINE
8
BLACK
6
CONTINUOUS
10
11.2786
20
-84.9746
11
11.3405
21
-85.0365
0
LINE
8
BLACK
6
CONTINUOUS
10
11.3405
20
-85.0365
11
11.4024
21
-85.1603
0
LINE
8
BLACK
6
CONTINUOUS
10
11.4024
20
-85.1603
11
11.4024
21
-85.346
0
LINE
8
BLACK
6
CONTINUOUS
10
11.4024
20
-85.346
11
11.3405
21
-85.4698
0
LINE
8
BLACK
6
CONTINUOUS
10
11.3405
20
-85.4698
11
11.2786
21
-85.5317
0
LINE
8
BLACK
6
CONTINUOUS
10
11.2786
20
-85.5317
11
11.1548
21
-85.5936
0
LINE
8
BLACK
6
CONTINUOUS
10
11.1548
20
-85.5936
11
10.6595
21
-85.5936
0
LINE
8
BLACK
6
CONTINUOUS
10
10.6595
20
-85.5936
11
10.6595
21
-84.2936
0
LINE
8
BLACK
6
CONTINUOUS
10
10.6595
20
-84.2936
11
11.0929
21
-84.2936
0
LINE
8
BLACK
6
CONTINUOUS
10
11.0929
20
-84.2936
11
11.2167
21
-84.3555
0
LINE
8
BLACK
6
CONTINUOUS
10
11.2167
20
-84.3555
11
11.2786
21
-84.4174
0
LINE
8
BLACK
6
CONTINUOUS
10
11.2786
20
-84.4174
11
11.3405
21
-84.5412
0
LINE
8
BLACK
6
CONTINUOUS
10
11.3405
20
-84.5412
11
11.3405
21
-84.665
0
LINE
8
BLACK
6
CONTINUOUS
10
11.3405
20
-84.665
11
11.2786
21
-84.7888
0
LINE
8
BLACK
6
CONTINUOUS
10
11.2786
20
-84.7888
11
11.2167
21
-84.8507
0
LINE
8
BLACK
6
CONTINUOUS
10
11.2167
20
-84.8507
11
11.0929
21
-84.9127
0
LINE
8
BLACK
6
CONTINUOUS
10
11.0929
20
-84.9127
11
10.6595
21
-84.9127
0
LINE
8
BLACK
6
CONTINUOUS
10
11.4024
20
-135.47
11
11.3405
21
-135.532
0
LINE
8
BLACK
6
CONTINUOUS
10
11.3405
20
-135.532
11
11.1548
21
-135.594
0
LINE
8
BLACK
6
CONTINUOUS
10
11.1548
20
-135.594
11
11.031
21
-135.594
0
LINE
8
BLACK
6
CONTINUOUS
10
11.031
20
-135.594
11
10.8452
21
-135.532
0
LINE
8
BLACK
6
CONTINUOUS
10
10.8452
20
-135.532
11
10.7214
21
-135.408
0
LINE
8
BLACK
6
CONTINUOUS
10
10.7214
20
-135.408
11
10.6595
21
-135.284
0
LINE
8
BLACK
6
CONTINUOUS
10
10.6595
20
-135.284
11
10.5976
21
-135.036
0
LINE
8
BLACK
6
CONTINUOUS
10
10.5976
20
-135.036
11
10.5976
21
-134.851
0
LINE
8
BLACK
6
CONTINUOUS
10
10.5976
20
-134.851
11
10.6595
21
-134.603
0
LINE
8
BLACK
6
CONTINUOUS
10
10.6595
20
-134.603
11
10.7214
21
-134.479
0
LINE
8
BLACK
6
CONTINUOUS
10
10.7214
20
-134.479
11
10.8452
21
-134.356
0
LINE
8
BLACK
6
CONTINUOUS
10
10.8452
20
-134.356
11
11.031
21
-134.294
0
LINE
8
BLACK
6
CONTINUOUS
10
11.031
20
-134.294
11
11.1548
21
-134.294
0
LINE
8
BLACK
6
CONTINUOUS
10
11.1548
20
-134.294
11
11.3405
21
-134.356
0
LINE
8
BLACK
6
CONTINUOUS
10
11.3405
20
-134.356
11
11.4024
21
-134.417
0
LINE
8
BLACK
6
CONTINUOUS
10
10.6595
20
-185.594
11
10.6595
21
-184.294
0
LINE
8
BLACK
6
CONTINUOUS
10
10.6595
20
-184.294
11
10.969
21
-184.294
0
LINE
8
BLACK
6
CONTINUOUS
10
10.969
20
-184.294
11
11.1548
21
-184.356
0
LINE
8
BLACK
6
CONTINUOUS
10
11.1548
20
-184.356
11
11.2786
21
-184.479
0
LINE
8
BLACK
6
CONTINUOUS
10
11.2786
20
-184.479
11
11.3405
21
-184.603
0
LINE
8
BLACK
6
CONTINUOUS
10
11.3405
20
-184.603
11
11.4024
21
-184.851
0
LINE
8
BLACK
6
CONTINUOUS
10
11.4024
20
-184.851
11
11.4024
21
-185.036
0
LINE
8
BLACK
6
CONTINUOUS
10
11.4024
20
-185.036
11
11.3405
21
-185.284
0
LINE
8
BLACK
6
CONTINUOUS
10
11.3405
20
-185.284
11
11.2786
21
-185.408
0
LINE
8
BLACK
6
CONTINUOUS
10
11.2786
20
-185.408
11
11.1548
21
-185.532
0
LINE
8
BLACK
6
CONTINUOUS
10
11.1548
20
-185.532
11
10.969
21
-185.594
0
LINE
8
BLACK
6
CONTINUOUS
10
10.969
20
-185.594
11
10.6595
21
-185.594
0
LINE
8
BLACK
6
CONTINUOUS
10
287.002
20
-60
11
285.002
21
-60
0
LINE
8
BLACK
6
CONTINUOUS
10
287.002
20
-110
11
285.002
21
-110
0
LINE
8
BLACK
6
CONTINUOUS
10
287.002
20
-160
11
285.002
21
-160
0
LINE
8
BLACK
6
CONTINUOUS
10
285.693
20
-35.2222
11
286.312
21
-35.2222
0
LINE
8
BLACK
6
CONTINUOUS
10
285.569
20
-35.5936
11
286.002
21
-34.2936
0
LINE
8
BLACK
6
CONTINUOUS
10
286.002
20
-34.2936
11
286.436
21
-35.5936
0
LINE
8
BLACK
6
CONTINUOUS
10
286.095
20
-84.9127
11
286.281
21
-84.9746
0
LINE
8
BLACK
6
CONTINUOUS
10
286.281
20
-84.9746
11
286.343
21
-85.0365
0
LINE
8
BLACK
6
CONTINUOUS
10
286.343
20
-85.0365
11
286.405
21
-85.1603
0
LINE
8
BLACK
6
CONTINUOUS
10
286.405
20
-85.1603
11
286.405
21
-85.346
0
LINE
8
BLACK
6
CONTINUOUS
10
286.405
20
-85.346
11
286.343
21
-85.4698
0
LINE
8
BLACK
6
CONTINUOUS
10
286.343
20
-85.4698
11
286.281
21
-85.5317
0
LINE
8
BLACK
6
CONTINUOUS
10
286.281
20
-85.5317
11
286.157
21
-85.5936
0
LINE
8
BLACK
6
CONTINUOUS
10
286.157
20
-85.5936
11
285.662
21
-85.5936
0
LINE
8
BLACK
6
CONTINUOUS
10
285.662
20
-85.5936
11
285.662
21
-84.2936
0
LINE
8
BLACK
6
CONTINUOUS
10
285.662
20
-84.2936
11
286.095
21
-84.2936
0
LINE
8
BLACK
6
CONTINUOUS
10
286.095
20
-84.2936
11
286.219
21
-84.3555
0
LINE
8
BLACK
6
CONTINUOUS
10
286.219
20
-84.3555
11
286.281
21
-84.4174
0
LINE
8
BLACK
6
CONTINUOUS
10
286.281
20
-84.4174
11
286.343
21
-84.5412
0
LINE
8
BLACK
6
CONTINUOUS
10
286.343
20
-84.5412
11
286.343
21
-84.665
0
LINE
8
BLACK
6
CONTINUOUS
10
286.343
20
-84.665
11
286.281
21
-84.7888
0
LINE
8
BLACK
6
CONTINUOUS
10
286.281
20
-84.7888
11
286.219
21
-84.8507
0
LINE
8
BLACK
6
CONTINUOUS
10
286.219
20
-84.8507
11
286.095
21
-84.9127
0
LINE
8
BLACK
6
CONTINUOUS
10
286.095
20
-84.9127
11
285.662
21
-84.9127
0
LINE
8
BLACK
6
CONTINUOUS
10
286.405
20
-135.47
11
286.343
21
-135.532
0
LINE
8
BLACK
6
CONTINUOUS
10
286.343
20
-135.532
11
286.157
21
-135.594
0
LINE
8
BLACK
6
CONTINUOUS
10
286.157
20
-135.594
11
286.033
21
-135.594
0
LINE
8
BLACK
6
CONTINUOUS
10
286.033
20
-135.594
11
285.847
21
-135.532
0
LINE
8
BLACK
6
CONTINUOUS
10
285.847
20
-135.532
11
285.724
21
-135.408
0
LINE
8
BLACK
6
CONTINUOUS
10
285.724
20
-135.408
11
285.662
21
-135.284
0
LINE
8
BLACK
6
CONTINUOUS
10
285.662
20
-135.284
11
285.6
21
-135.036
0
LINE
8
BLACK
6
CONTINUOUS
10
285.6
20
-135.036
11
285.6
21
-134.851
0
LINE
8
BLACK
6
CONTINUOUS
10
285.6
20
-134.851
11
285.662
21
-134.603
0
LINE
8
BLACK
6
CONTINUOUS
10
285.662
20
-134.603
11
285.724
21
-134.479
0
LINE
8
BLACK
6
CONTINUOUS
10
285.724
20
-134.479
11
285.847
21
-134.356
0
LINE
8
BLACK
6
CONTINUOUS
10
285.847
20
-134.356
11
286.033
21
-134.294
0
LINE
8
BLACK
6
CONTINUOUS
10
286.033
20
-134.294
11
286.157
21
-134.294
0
LINE
8
BLACK
6
CONTINUOUS
10
286.157
20
-134.294
11
286.343
21
-134.356
0
LINE
8
BLACK
6
CONTINUOUS
10
286.343
20
-134.356
11
286.405
21
-134.417
0
LINE
8
BLACK
6
CONTINUOUS
10
285.662
20
-185.594
11
285.662
21
-184.294
0
LINE
8
BLACK
6
CONTINUOUS
10
285.662
20
-184.294
11
285.971
21
-184.294
0
LINE
8
BLACK
6
CONTINUOUS
10
285.971
20
-184.294
11
286.157
21
-184.356
0
LINE
8
BLACK
6
CONTINUOUS
10
286.157
20
-184.356
11
286.281
21
-184.479
0
LINE
8
BLACK
6
CONTINUOUS
10
286.281
20
-184.479
11
286.343
21
-184.603
0
LINE
8
BLACK
6
CONTINUOUS
10
286.343
20
-184.603
11
286.405
21
-184.851
0
LINE
8
BLACK
6
CONTINUOUS
10
286.405
20
-184.851
11
286.405
21
-185.036
0
LINE
8
BLACK
6
CONTINUOUS
10
286.405
20
-185.036
11
286.343
21
-185.284
0
LINE
8
BLACK
6
CONTINUOUS
10
286.343
20
-185.284
11
286.281
21
-185.408
0
LINE
8
BLACK
6
CONTINUOUS
10
286.281
20
-185.408
11
286.157
21
-185.532
0
LINE
8
BLACK
6
CONTINUOUS
10
286.157
20
-185.532
11
285.971
21
-185.594
0
LINE
8
BLACK
6
CONTINUOUS
10
285.971
20
-185.594
11
285.662
21
-185.594
0
LINE
8
BLACK
6
CONTINUOUS
10
200.458
20
-193.793
11
200.458
21
-192.293
0
LINE
8
BLACK
6
CONTINUOUS
10
200.458
20
-192.293
11
200.815
21
-192.293
0
LINE
8
BLACK
6
CONTINUOUS
10
200.815
20
-192.293
11
201.029
21
-192.365
0
LINE
8
BLACK
6
CONTINUOUS
10
201.029
20
-192.365
11
201.172
21
-192.508
0
LINE
8
BLACK
6
CONTINUOUS
10
201.172
20
-192.508
11
201.244
21
-192.65
0
LINE
8
BLACK
6
CONTINUOUS
10
201.244
20
-192.65
11
201.315
21
-192.936
0
LINE
8
BLACK
6
CONTINUOUS
10
201.315
20
-192.936
11
201.315
21
-193.15
0
LINE
8
BLACK
6
CONTINUOUS
10
201.315
20
-193.15
11
201.244
21
-193.436
0
LINE
8
BLACK
6
CONTINUOUS
10
201.244
20
-193.436
11
201.172
21
-193.579
0
LINE
8
BLACK
6
CONTINUOUS
10
201.172
20
-193.579
11
201.029
21
-193.722
0
LINE
8
BLACK
6
CONTINUOUS
10
201.029
20
-193.722
11
200.815
21
-193.793
0
LINE
8
BLACK
6
CONTINUOUS
10
200.815
20
-193.793
11
200.458
21
-193.793
0
LINE
8
BLACK
6
CONTINUOUS
10
202.601
20
-193.793
11
202.601
21
-193.008
0
LINE
8
BLACK
6
CONTINUOUS
10
202.601
20
-193.008
11
202.529
21
-192.865
0
LINE
8
BLACK
6
CONTINUOUS
10
202.529
20
-192.865
11
202.387
21
-192.793
0
LINE
8
BLACK
6
CONTINUOUS
10
202.387
20
-192.793
11
202.101
21
-192.793
0
LINE
8
BLACK
6
CONTINUOUS
10
202.101
20
-192.793
11
201.958
21
-192.865
0
LINE
8
BLACK
6
CONTINUOUS
10
202.601
20
-193.722
11
202.458
21
-193.793
0
LINE
8
BLACK
6
CONTINUOUS
10
202.458
20
-193.793
11
202.101
21
-193.793
0
LINE
8
BLACK
6
CONTINUOUS
10
202.101
20
-193.793
11
201.958
21
-193.722
0
LINE
8
BLACK
6
CONTINUOUS
10
201.958
20
-193.722
11
201.887
21
-193.579
0
LINE
8
BLACK
6
CONTINUOUS
10
201.887
20
-193.579
11
201.887
21
-193.436
0
LINE
8
BLACK
6
CONTINUOUS
10
201.887
20
-193.436
11
201.958
21
-193.293
0
LINE
8
BLACK
6
CONTINUOUS
10
201.958
20
-193.293
11
202.101
21
-193.222
0
LINE
8
BLACK
6
CONTINUOUS
10
202.101
20
-193.222
11
202.458
21
-193.222
0
LINE
8
BLACK
6
CONTINUOUS
10
202.458
20
-193.222
11
202.601
21
-193.15
0
LINE
8
BLACK
6
CONTINUOUS
10
203.101
20
-192.793
11
203.672
21
-192.793
0
LINE
8
BLACK
6
CONTINUOUS
10
203.315
20
-192.293
11
203.315
21
-193.579
0
LINE
8
BLACK
6
CONTINUOUS
10
203.315
20
-193.579
11
203.387
21
-193.722
0
LINE
8
BLACK
6
CONTINUOUS
10
203.387
20
-193.722
11
203.529
21
-193.793
0
LINE
8
BLACK
6
CONTINUOUS
10
203.529
20
-193.793
11
203.672
21
-193.793
0
LINE
8
BLACK
6
CONTINUOUS
10
204.744
20
-193.722
11
204.601
21
-193.793
0
LINE
8
BLACK
6
CONTINUOUS
10
204.601
20
-193.793
11
204.315
21
-193.793
0
LINE
8
BLACK
6
CONTINUOUS
10
204.315
20
-193.793
11
204.172
21
-193.722
0
LINE
8
BLACK
6
CONTINUOUS
10
204.172
20
-193.722
11
204.101
21
-193.579
0
LINE
8
BLACK
6
CONTINUOUS
10
204.101
20
-193.579
11
204.101
21
-193.008
0
LINE
8
BLACK
6
CONTINUOUS
10
204.101
20
-193.008
11
204.172
21
-192.865
0
LINE
8
BLACK
6
CONTINUOUS
10
204.172
20
-192.865
11
204.315
21
-192.793
0
LINE
8
BLACK
6
CONTINUOUS
10
204.315
20
-192.793
11
204.601
21
-192.793
0
LINE
8
BLACK
6
CONTINUOUS
10
204.601
20
-192.793
11
204.744
21
-192.865
0
LINE
8
BLACK
6
CONTINUOUS
10
204.744
20
-192.865
11
204.815
21
-193.008
0
LINE
8
BLACK
6
CONTINUOUS
10
204.815
20
-193.008
11
204.815
21
-193.15
0
LINE
8
BLACK
6
CONTINUOUS
10
204.815
20
-193.15
11
204.101
21
-193.293
0
LINE
8
BLACK
6
CONTINUOUS
10
205.458
20
-193.65
11
205.529
21
-193.722
0
LINE
8
BLACK
6
CONTINUOUS
10
205.529
20
-193.722
11
205.458
21
-193.793
0
LINE
8
BLACK
6
CONTINUOUS
10
205.458
20
-193.793
11
205.387
21
-193.722
0
LINE
8
BLACK
6
CONTINUOUS
10
205.387
20
-193.722
11
205.458
21
-193.65
0
LINE
8
BLACK
6
CONTINUOUS
10
205.458
20
-193.65
11
205.458
21
-193.793
0
LINE
8
BLACK
6
CONTINUOUS
10
205.458
20
-192.865
11
205.529
21
-192.936
0
LINE
8
BLACK
6
CONTINUOUS
10
205.529
20
-192.936
11
205.458
21
-193.008
0
LINE
8
BLACK
6
CONTINUOUS
10
205.458
20
-193.008
11
205.387
21
-192.936
0
LINE
8
BLACK
6
CONTINUOUS
10
205.387
20
-192.936
11
205.458
21
-192.865
0
LINE
8
BLACK
6
CONTINUOUS
10
205.458
20
-192.865
11
205.458
21
-193.008
0
LINE
8
BLACK
6
CONTINUOUS
10
177.002
20
-194.507
11
285.002
21
-194.507
0
LINE
8
BLACK
6
CONTINUOUS
10
178.458
20
-196.593
11
178.458
21
-195.093
0
LINE
8
BLACK
6
CONTINUOUS
10
179.315
20
-196.593
11
178.672
21
-195.736
0
LINE
8
BLACK
6
CONTINUOUS
10
179.315
20
-195.093
11
178.458
21
-195.95
0
LINE
8
BLACK
6
CONTINUOUS
10
179.958
20
-196.593
11
179.958
21
-195.593
0
LINE
8
BLACK
6
CONTINUOUS
10
179.958
20
-195.093
11
179.887
21
-195.165
0
LINE
8
BLACK
6
CONTINUOUS
10
179.887
20
-195.165
11
179.958
21
-195.236
0
LINE
8
BLACK
6
CONTINUOUS
10
179.958
20
-195.236
11
180.029
21
-195.165
0
LINE
8
BLACK
6
CONTINUOUS
10
180.029
20
-195.165
11
179.958
21
-195.093
0
LINE
8
BLACK
6
CONTINUOUS
10
179.958
20
-195.093
11
179.958
21
-195.236
0
LINE
8
BLACK
6
CONTINUOUS
10
181.529
20
-196.45
11
181.458
21
-196.522
0
LINE
8
BLACK
6
CONTINUOUS
10
181.458
20
-196.522
11
181.244
21
-196.593
0
LINE
8
BLACK
6
CONTINUOUS
10
181.244
20
-196.593
11
181.101
21
-196.593
0
LINE
8
BLACK
6
CONTINUOUS
10
181.101
20
-196.593
11
180.887
21
-196.522
0
LINE
8
BLACK
6
CONTINUOUS
10
180.887
20
-196.522
11
180.744
21
-196.379
0
LINE
8
BLACK
6
CONTINUOUS
10
180.744
20
-196.379
11
180.672
21
-196.236
0
LINE
8
BLACK
6
CONTINUOUS
10
180.672
20
-196.236
11
180.601
21
-195.95
0
LINE
8
BLACK
6
CONTINUOUS
10
180.601
20
-195.95
11
180.601
21
-195.736
0
LINE
8
BLACK
6
CONTINUOUS
10
180.601
20
-195.736
11
180.672
21
-195.45
0
LINE
8
BLACK
6
CONTINUOUS
10
180.672
20
-195.45
11
180.744
21
-195.308
0
LINE
8
BLACK
6
CONTINUOUS
10
180.744
20
-195.308
11
180.887
21
-195.165
0
LINE
8
BLACK
6
CONTINUOUS
10
180.887
20
-195.165
11
181.101
21
-195.093
0
LINE
8
BLACK
6
CONTINUOUS
10
181.101
20
-195.093
11
181.244
21
-195.093
0
LINE
8
BLACK
6
CONTINUOUS
10
181.244
20
-195.093
11
181.458
21
-195.165
0
LINE
8
BLACK
6
CONTINUOUS
10
181.458
20
-195.165
11
181.529
21
-195.236
0
LINE
8
BLACK
6
CONTINUOUS
10
182.815
20
-196.593
11
182.815
21
-195.808
0
LINE
8
BLACK
6
CONTINUOUS
10
182.815
20
-195.808
11
182.744
21
-195.665
0
LINE
8
BLACK
6
CONTINUOUS
10
182.744
20
-195.665
11
182.601
21
-195.593
0
LINE
8
BLACK
6
CONTINUOUS
10
182.601
20
-195.593
11
182.315
21
-195.593
0
LINE
8
BLACK
6
CONTINUOUS
10
182.315
20
-195.593
11
182.172
21
-195.665
0
LINE
8
BLACK
6
CONTINUOUS
10
182.815
20
-196.522
11
182.672
21
-196.593
0
LINE
8
BLACK
6
CONTINUOUS
10
182.672
20
-196.593
11
182.315
21
-196.593
0
LINE
8
BLACK
6
CONTINUOUS
10
182.315
20
-196.593
11
182.172
21
-196.522
0
LINE
8
BLACK
6
CONTINUOUS
10
182.172
20
-196.522
11
182.101
21
-196.379
0
LINE
8
BLACK
6
CONTINUOUS
10
182.101
20
-196.379
11
182.101
21
-196.236
0
LINE
8
BLACK
6
CONTINUOUS
10
182.101
20
-196.236
11
182.172
21
-196.093
0
LINE
8
BLACK
6
CONTINUOUS
10
182.172
20
-196.093
11
182.315
21
-196.022
0
LINE
8
BLACK
6
CONTINUOUS
10
182.315
20
-196.022
11
182.672
21
-196.022
0
LINE
8
BLACK
6
CONTINUOUS
10
182.672
20
-196.022
11
182.815
21
-195.95
0
LINE
8
BLACK
6
CONTINUOUS
10
184.172
20
-196.593
11
184.172
21
-195.093
0
LINE
8
BLACK
6
CONTINUOUS
10
184.172
20
-196.522
11
184.029
21
-196.593
0
LINE
8
BLACK
6
CONTINUOUS
10
184.029
20
-196.593
11
183.744
21
-196.593
0
LINE
8
BLACK
6
CONTINUOUS
10
183.744
20
-196.593
11
183.601
21
-196.522
0
LINE
8
BLACK
6
CONTINUOUS
10
183.601
20
-196.522
11
183.529
21
-196.45
0
LINE
8
BLACK
6
CONTINUOUS
10
183.529
20
-196.45
11
183.458
21
-196.308
0
LINE
8
BLACK
6
CONTINUOUS
10
183.458
20
-196.308
11
183.458
21
-195.879
0
LINE
8
BLACK
6
CONTINUOUS
10
183.458
20
-195.879
11
183.529
21
-195.736
0
LINE
8
BLACK
6
CONTINUOUS
10
183.529
20
-195.736
11
183.601
21
-195.665
0
LINE
8
BLACK
6
CONTINUOUS
10
183.601
20
-195.665
11
183.744
21
-195.593
0
LINE
8
BLACK
6
CONTINUOUS
10
183.744
20
-195.593
11
184.029
21
-195.593
0
LINE
8
BLACK
6
CONTINUOUS
10
184.029
20
-195.593
11
184.172
21
-195.665
0
LINE
8
BLACK
6
CONTINUOUS
10
186.029
20
-195.808
11
186.529
21
-195.808
0
LINE
8
BLACK
6
CONTINUOUS
10
186.744
20
-196.593
11
186.029
21
-196.593
0
LINE
8
BLACK
6
CONTINUOUS
10
186.029
20
-196.593
11
186.029
21
-195.093
0
LINE
8
BLACK
6
CONTINUOUS
10
186.029
20
-195.093
11
186.744
21
-195.093
0
LINE
8
BLACK
6
CONTINUOUS
10
187.387
20
-196.45
11
187.458
21
-196.522
0
LINE
8
BLACK
6
CONTINUOUS
10
187.458
20
-196.522
11
187.387
21
-196.593
0
LINE
8
BLACK
6
CONTINUOUS
10
187.387
20
-196.593
11
187.315
21
-196.522
0
LINE
8
BLACK
6
CONTINUOUS
10
187.315
20
-196.522
11
187.387
21
-196.45
0
LINE
8
BLACK
6
CONTINUOUS
10
187.387
20
-196.45
11
187.387
21
-196.593
0
LINE
8
BLACK
6
CONTINUOUS
10
188.101
20
-196.593
11
188.101
21
-195.093
0
LINE
8
BLACK
6
CONTINUOUS
10
188.101
20
-195.093
11
188.458
21
-195.093
0
LINE
8
BLACK
6
CONTINUOUS
10
188.458
20
-195.093
11
188.672
21
-195.165
0
LINE
8
BLACK
6
CONTINUOUS
10
188.672
20
-195.165
11
188.815
21
-195.308
0
LINE
8
BLACK
6
CONTINUOUS
10
188.815
20
-195.308
11
188.887
21
-195.45
0
LINE
8
BLACK
6
CONTINUOUS
10
188.887
20
-195.45
11
188.958
21
-195.736
0
LINE
8
BLACK
6
CONTINUOUS
10
188.958
20
-195.736
11
188.958
21
-195.95
0
LINE
8
BLACK
6
CONTINUOUS
10
188.958
20
-195.95
11
188.887
21
-196.236
0
LINE
8
BLACK
6
CONTINUOUS
10
188.887
20
-196.236
11
188.815
21
-196.379
0
LINE
8
BLACK
6
CONTINUOUS
10
188.815
20
-196.379
11
188.672
21
-196.522
0
LINE
8
BLACK
6
CONTINUOUS
10
188.672
20
-196.522
11
188.458
21
-196.593
0
LINE
8
BLACK
6
CONTINUOUS
10
188.458
20
-196.593
11
188.101
21
-196.593
0
LINE
8
BLACK
6
CONTINUOUS
10
189.601
20
-196.45
11
189.672
21
-196.522
0
LINE
8
BLACK
6
CONTINUOUS
10
189.672
20
-196.522
11
189.601
21
-196.593
0
LINE
8
BLACK
6
CONTINUOUS
10
189.601
20
-196.593
11
189.529
21
-196.522
0
LINE
8
BLACK
6
CONTINUOUS
10
189.529
20
-196.522
11
189.601
21
-196.45
0
LINE
8
BLACK
6
CONTINUOUS
10
189.601
20
-196.45
11
189.601
21
-196.593
0
LINE
8
BLACK
6
CONTINUOUS
10
190.244
20
-196.165
11
190.958
21
-196.165
0
LINE
8
BLACK
6
CONTINUOUS
10
190.101
20
-196.593
11
190.601
21
-195.093
0
LINE
8
BLACK
6
CONTINUOUS
10
190.601
20
-195.093
11
191.101
21
-196.593
0
LINE
8
BLACK
6
CONTINUOUS
10
191.601
20
-196.45
11
191.672
21
-196.522
0
LINE
8
BLACK
6
CONTINUOUS
10
191.672
20
-196.522
11
191.601
21
-196.593
0
LINE
8
BLACK
6
CONTINUOUS
10
191.601
20
-196.593
11
191.529
21
-196.522
0
LINE
8
BLACK
6
CONTINUOUS
10
191.529
20
-196.522
11
191.601
21
-196.45
0
LINE
8
BLACK
6
CONTINUOUS
10
191.601
20
-196.45
11
191.601
21
-196.593
0
LINE
8
BLACK
6
CONTINUOUS
10
194.601
20
-196.593
11
194.601
21
-195.093
0
LINE
8
BLACK
6
CONTINUOUS
10
194.744
20
-196.022
11
195.172
21
-196.593
0
LINE
8
BLACK
6
CONTINUOUS
10
195.172
20
-195.593
11
194.601
21
-196.165
0
LINE
8
BLACK
6
CONTINUOUS
10
195.815
20
-196.593
11
195.815
21
-195.593
0
LINE
8
BLACK
6
CONTINUOUS
10
195.815
20
-195.093
11
195.744
21
-195.165
0
LINE
8
BLACK
6
CONTINUOUS
10
195.744
20
-195.165
11
195.815
21
-195.236
0
LINE
8
BLACK
6
CONTINUOUS
10
195.815
20
-195.236
11
195.887
21
-195.165
0
LINE
8
BLACK
6
CONTINUOUS
10
195.887
20
-195.165
11
195.815
21
-195.093
0
LINE
8
BLACK
6
CONTINUOUS
10
195.815
20
-195.093
11
195.815
21
-195.236
0
LINE
8
BLACK
6
CONTINUOUS
10
197.172
20
-196.522
11
197.029
21
-196.593
0
LINE
8
BLACK
6
CONTINUOUS
10
197.029
20
-196.593
11
196.744
21
-196.593
0
LINE
8
BLACK
6
CONTINUOUS
10
196.744
20
-196.593
11
196.601
21
-196.522
0
LINE
8
BLACK
6
CONTINUOUS
10
196.601
20
-196.522
11
196.529
21
-196.45
0
LINE
8
BLACK
6
CONTINUOUS
10
196.529
20
-196.45
11
196.458
21
-196.308
0
LINE
8
BLACK
6
CONTINUOUS
10
196.458
20
-196.308
11
196.458
21
-195.879
0
LINE
8
BLACK
6
CONTINUOUS
10
196.458
20
-195.879
11
196.529
21
-195.736
0
LINE
8
BLACK
6
CONTINUOUS
10
196.529
20
-195.736
11
196.601
21
-195.665
0
LINE
8
BLACK
6
CONTINUOUS
10
196.601
20
-195.665
11
196.744
21
-195.593
0
LINE
8
BLACK
6
CONTINUOUS
10
196.744
20
-195.593
11
197.029
21
-195.593
0
LINE
8
BLACK
6
CONTINUOUS
10
197.029
20
-195.593
11
197.172
21
-195.665
0
LINE
8
BLACK
6
CONTINUOUS
10
198.458
20
-196.593
11
198.458
21
-195.808
0
LINE
8
BLACK
6
CONTINUOUS
10
198.458
20
-195.808
11
198.387
21
-195.665
0
LINE
8
BLACK
6
CONTINUOUS
10
198.387
20
-195.665
11
198.244
21
-195.593
0
LINE
8
BLACK
6
CONTINUOUS
10
198.244
20
-195.593
11
197.958
21
-195.593
0
LINE
8
BLACK
6
CONTINUOUS
10
197.958
20
-195.593
11
197.815
21
-195.665
0
LINE
8
BLACK
6
CONTINUOUS
10
198.458
20
-196.522
11
198.315
21
-196.593
0
LINE
8
BLACK
6
CONTINUOUS
10
198.315
20
-196.593
11
197.958
21
-196.593
0
LINE
8
BLACK
6
CONTINUOUS
10
197.958
20
-196.593
11
197.815
21
-196.522
0
LINE
8
BLACK
6
CONTINUOUS
10
197.815
20
-196.522
11
197.744
21
-196.379
0
LINE
8
BLACK
6
CONTINUOUS
10
197.744
20
-196.379
11
197.744
21
-196.236
0
LINE
8
BLACK
6
CONTINUOUS
10
197.744
20
-196.236
11
197.815
21
-196.093
0
LINE
8
BLACK
6
CONTINUOUS
10
197.815
20
-196.093
11
197.958
21
-196.022
0
LINE
8
BLACK
6
CONTINUOUS
10
197.958
20
-196.022
11
198.315
21
-196.022
0
LINE
8
BLACK
6
CONTINUOUS
10
198.315
20
-196.022
11
198.458
21
-195.95
0
LINE
8
BLACK
6
CONTINUOUS
10
199.815
20
-196.593
11
199.815
21
-195.093
0
LINE
8
BLACK
6
CONTINUOUS
10
199.815
20
-196.522
11
199.672
21
-196.593
0
LINE
8
BLACK
6
CONTINUOUS
10
199.672
20
-196.593
11
199.387
21
-196.593
0
LINE
8
BLACK
6
CONTINUOUS
10
199.387
20
-196.593
11
199.244
21
-196.522
0
LINE
8
BLACK
6
CONTINUOUS
10
199.244
20
-196.522
11
199.172
21
-196.45
0
LINE
8
BLACK
6
CONTINUOUS
10
199.172
20
-196.45
11
199.101
21
-196.308
0
LINE
8
BLACK
6
CONTINUOUS
10
199.101
20
-196.308
11
199.101
21
-195.879
0
LINE
8
BLACK
6
CONTINUOUS
10
199.101
20
-195.879
11
199.172
21
-195.736
0
LINE
8
BLACK
6
CONTINUOUS
10
199.172
20
-195.736
11
199.244
21
-195.665
0
LINE
8
BLACK
6
CONTINUOUS
10
199.244
20
-195.665
11
199.387
21
-195.593
0
LINE
8
BLACK
6
CONTINUOUS
10
199.387
20
-195.593
11
199.672
21
-195.593
0
LINE
8
BLACK
6
CONTINUOUS
10
199.672
20
-195.593
11
199.815
21
-195.665
0
LINE
8
BLACK
6
CONTINUOUS
10
201.529
20
-195.093
11
202.529
21
-195.093
0
LINE
8
BLACK
6
CONTINUOUS
10
202.529
20
-195.093
11
201.887
21
-196.593
0
LINE
8
BLACK
6
CONTINUOUS
10
203.101
20
-196.45
11
203.172
21
-196.522
0
LINE
8
BLACK
6
CONTINUOUS
10
203.172
20
-196.522
11
203.101
21
-196.593
0
LINE
8
BLACK
6
CONTINUOUS
10
203.101
20
-196.593
11
203.029
21
-196.522
0
LINE
8
BLACK
6
CONTINUOUS
10
203.029
20
-196.522
11
203.101
21
-196.45
0
LINE
8
BLACK
6
CONTINUOUS
10
203.101
20
-196.45
11
203.101
21
-196.593
0
LINE
8
BLACK
6
CONTINUOUS
10
204.101
20
-195.093
11
204.244
21
-195.093
0
LINE
8
BLACK
6
CONTINUOUS
10
204.244
20
-195.093
11
204.387
21
-195.165
0
LINE
8
BLACK
6
CONTINUOUS
10
204.387
20
-195.165
11
204.458
21
-195.236
0
LINE
8
BLACK
6
CONTINUOUS
10
204.458
20
-195.236
11
204.529
21
-195.379
0
LINE
8
BLACK
6
CONTINUOUS
10
204.529
20
-195.379
11
204.601
21
-195.665
0
LINE
8
BLACK
6
CONTINUOUS
10
204.601
20
-195.665
11
204.601
21
-196.022
0
LINE
8
BLACK
6
CONTINUOUS
10
204.601
20
-196.022
11
204.529
21
-196.308
0
LINE
8
BLACK
6
CONTINUOUS
10
204.529
20
-196.308
11
204.458
21
-196.45
0
LINE
8
BLACK
6
CONTINUOUS
10
204.458
20
-196.45
11
204.387
21
-196.522
0
LINE
8
BLACK
6
CONTINUOUS
10
204.387
20
-196.522
11
204.244
21
-196.593
0
LINE
8
BLACK
6
CONTINUOUS
10
204.244
20
-196.593
11
204.101
21
-196.593
0
LINE
8
BLACK
6
CONTINUOUS
10
204.101
20
-196.593
11
203.958
21
-196.522
0
LINE
8
BLACK
6
CONTINUOUS
10
203.958
20
-196.522
11
203.887
21
-196.45
0
LINE
8
BLACK
6
CONTINUOUS
10
203.887
20
-196.45
11
203.815
21
-196.308
0
LINE
8
BLACK
6
CONTINUOUS
10
203.815
20
-196.308
11
203.744
21
-196.022
0
LINE
8
BLACK
6
CONTINUOUS
10
203.744
20
-196.022
11
203.744
21
-195.665
0
LINE
8
BLACK
6
CONTINUOUS
10
203.744
20
-195.665
11
203.815
21
-195.379
0
LINE
8
BLACK
6
CONTINUOUS
10
203.815
20
-195.379
11
203.887
21
-195.236
0
LINE
8
BLACK
6
CONTINUOUS
10
203.887
20
-195.236
11
203.958
21
-195.165
0
LINE
8
BLACK
6
CONTINUOUS
10
203.958
20
-195.165
11
204.101
21
-195.093
0
LINE
8
BLACK
6
CONTINUOUS
10
205.244
20
-196.45
11
205.315
21
-196.522
0
LINE
8
BLACK
6
CONTINUOUS
10
205.315
20
-196.522
11
205.244
21
-196.593
0
LINE
8
BLACK
6
CONTINUOUS
10
205.244
20
-196.593
11
205.172
21
-196.522
0
LINE
8
BLACK
6
CONTINUOUS
10
205.172
20
-196.522
11
205.244
21
-196.45
0
LINE
8
BLACK
6
CONTINUOUS
10
205.244
20
-196.45
11
205.244
21
-196.593
0
LINE
8
BLACK
6
CONTINUOUS
10
206.601
20
-195.093
11
206.315
21
-195.093
0
LINE
8
BLACK
6
CONTINUOUS
10
206.315
20
-195.093
11
206.172
21
-195.165
0
LINE
8
BLACK
6
CONTINUOUS
10
206.172
20
-195.165
11
206.101
21
-195.236
0
LINE
8
BLACK
6
CONTINUOUS
10
206.101
20
-195.236
11
205.958
21
-195.45
0
LINE
8
BLACK
6
CONTINUOUS
10
205.958
20
-195.45
11
205.887
21
-195.736
0
LINE
8
BLACK
6
CONTINUOUS
10
205.887
20
-195.736
11
205.887
21
-196.308
0
LINE
8
BLACK
6
CONTINUOUS
10
205.887
20
-196.308
11
205.958
21
-196.45
0
LINE
8
BLACK
6
CONTINUOUS
10
205.958
20
-196.45
11
206.029
21
-196.522
0
LINE
8
BLACK
6
CONTINUOUS
10
206.029
20
-196.522
11
206.172
21
-196.593
0
LINE
8
BLACK
6
CONTINUOUS
10
206.172
20
-196.593
11
206.458
21
-196.593
0
LINE
8
BLACK
6
CONTINUOUS
10
206.458
20
-196.593
11
206.601
21
-196.522
0
LINE
8
BLACK
6
CONTINUOUS
10
206.601
20
-196.522
11
206.672
21
-196.45
0
LINE
8
BLACK
6
CONTINUOUS
10
206.672
20
-196.45
11
206.744
21
-196.308
0
LINE
8
BLACK
6
CONTINUOUS
10
206.744
20
-196.308
11
206.744
21
-195.95
0
LINE
8
BLACK
6
CONTINUOUS
10
206.744
20
-195.95
11
206.672
21
-195.808
0
LINE
8
BLACK
6
CONTINUOUS
10
206.672
20
-195.808
11
206.601
21
-195.736
0
LINE
8
BLACK
6
CONTINUOUS
10
206.601
20
-195.736
11
206.458
21
-195.665
0
LINE
8
BLACK
6
CONTINUOUS
10
206.458
20
-195.665
11
206.172
21
-195.665
0
LINE
8
BLACK
6
CONTINUOUS
10
206.172
20
-195.665
11
206.029
21
-195.736
0
LINE
8
BLACK
6
CONTINUOUS
10
206.029
20
-195.736
11
205.958
21
-195.808
0
LINE
8
BLACK
6
CONTINUOUS
10
205.958
20
-195.808
11
205.887
21
-195.95
0
LINE
8
BLACK
6
CONTINUOUS
10
177.002
20
-191.507
11
285.002
21
-191.507
0
LINE
8
BLACK
6
CONTINUOUS
10
264.414
20
-193.786
11
263.914
21
-193.071
0
LINE
8
BLACK
6
CONTINUOUS
10
263.557
20
-193.786
11
263.557
21
-192.286
0
LINE
8
BLACK
6
CONTINUOUS
10
263.557
20
-192.286
11
264.128
21
-192.286
0
LINE
8
BLACK
6
CONTINUOUS
10
264.128
20
-192.286
11
264.271
21
-192.357
0
LINE
8
BLACK
6
CONTINUOUS
10
264.271
20
-192.357
11
264.342
21
-192.428
0
LINE
8
BLACK
6
CONTINUOUS
10
264.342
20
-192.428
11
264.414
21
-192.571
0
LINE
8
BLACK
6
CONTINUOUS
10
264.414
20
-192.571
11
264.414
21
-192.786
0
LINE
8
BLACK
6
CONTINUOUS
10
264.414
20
-192.786
11
264.342
21
-192.928
0
LINE
8
BLACK
6
CONTINUOUS
10
264.342
20
-192.928
11
264.271
21
-193
0
LINE
8
BLACK
6
CONTINUOUS
10
264.271
20
-193
11
264.128
21
-193.071
0
LINE
8
BLACK
6
CONTINUOUS
10
264.128
20
-193.071
11
263.557
21
-193.071
0
LINE
8
BLACK
6
CONTINUOUS
10
265.628
20
-193.714
11
265.485
21
-193.786
0
LINE
8
BLACK
6
CONTINUOUS
10
265.485
20
-193.786
11
265.2
21
-193.786
0
LINE
8
BLACK
6
CONTINUOUS
10
265.2
20
-193.786
11
265.057
21
-193.714
0
LINE
8
BLACK
6
CONTINUOUS
10
265.057
20
-193.714
11
264.985
21
-193.571
0
LINE
8
BLACK
6
CONTINUOUS
10
264.985
20
-193.571
11
264.985
21
-193
0
LINE
8
BLACK
6
CONTINUOUS
10
264.985
20
-193
11
265.057
21
-192.857
0
LINE
8
BLACK
6
CONTINUOUS
10
265.057
20
-192.857
11
265.2
21
-192.786
0
LINE
8
BLACK
6
CONTINUOUS
10
265.2
20
-192.786
11
265.485
21
-192.786
0
LINE
8
BLACK
6
CONTINUOUS
10
265.485
20
-192.786
11
265.628
21
-192.857
0
LINE
8
BLACK
6
CONTINUOUS
10
265.628
20
-192.857
11
265.7
21
-193
0
LINE
8
BLACK
6
CONTINUOUS
10
265.7
20
-193
11
265.7
21
-193.143
0
LINE
8
BLACK
6
CONTINUOUS
10
265.7
20
-193.143
11
264.985
21
-193.286
0
LINE
8
BLACK
6
CONTINUOUS
10
266.2
20
-192.786
11
266.557
21
-193.786
0
LINE
8
BLACK
6
CONTINUOUS
10
266.557
20
-193.786
11
266.914
21
-192.786
0
LINE
8
BLACK
6
CONTINUOUS
10
267.485
20
-193.643
11
267.557
21
-193.714
0
LINE
8
BLACK
6
CONTINUOUS
10
267.557
20
-193.714
11
267.485
21
-193.786
0
LINE
8
BLACK
6
CONTINUOUS
10
267.485
20
-193.786
11
267.414
21
-193.714
0
LINE
8
BLACK
6
CONTINUOUS
10
267.414
20
-193.714
11
267.485
21
-193.643
0
LINE
8
BLACK
6
CONTINUOUS
10
267.485
20
-193.643
11
267.485
21
-193.786
0
LINE
8
BLACK
6
CONTINUOUS
10
267.485
20
-192.857
11
267.557
21
-192.928
0
LINE
8
BLACK
6
CONTINUOUS
10
267.557
20
-192.928
11
267.485
21
-193
0
LINE
8
BLACK
6
CONTINUOUS
10
267.485
20
-193
11
267.414
21
-192.928
0
LINE
8
BLACK
6
CONTINUOUS
10
267.414
20
-192.928
11
267.485
21
-192.857
0
LINE
8
BLACK
6
CONTINUOUS
10
267.485
20
-192.857
11
267.485
21
-193
0
LINE
8
BLACK
6
CONTINUOUS
10
178.387
20
-193.722
11
178.601
21
-193.793
0
LINE
8
BLACK
6
CONTINUOUS
10
178.601
20
-193.793
11
178.958
21
-193.793
0
LINE
8
BLACK
6
CONTINUOUS
10
178.958
20
-193.793
11
179.101
21
-193.722
0
LINE
8
BLACK
6
CONTINUOUS
10
179.101
20
-193.722
11
179.172
21
-193.65
0
LINE
8
BLACK
6
CONTINUOUS
10
179.172
20
-193.65
11
179.244
21
-193.508
0
LINE
8
BLACK
6
CONTINUOUS
10
179.244
20
-193.508
11
179.244
21
-193.365
0
LINE
8
BLACK
6
CONTINUOUS
10
179.244
20
-193.365
11
179.172
21
-193.222
0
LINE
8
BLACK
6
CONTINUOUS
10
179.172
20
-193.222
11
179.101
21
-193.15
0
LINE
8
BLACK
6
CONTINUOUS
10
179.101
20
-193.15
11
178.958
21
-193.079
0
LINE
8
BLACK
6
CONTINUOUS
10
178.958
20
-193.079
11
178.672
21
-193.008
0
LINE
8
BLACK
6
CONTINUOUS
10
178.672
20
-193.008
11
178.529
21
-192.936
0
LINE
8
BLACK
6
CONTINUOUS
10
178.529
20
-192.936
11
178.458
21
-192.865
0
LINE
8
BLACK
6
CONTINUOUS
10
178.458
20
-192.865
11
178.387
21
-192.722
0
LINE
8
BLACK
6
CONTINUOUS
10
178.387
20
-192.722
11
178.387
21
-192.579
0
LINE
8
BLACK
6
CONTINUOUS
10
178.387
20
-192.579
11
178.458
21
-192.436
0
LINE
8
BLACK
6
CONTINUOUS
10
178.458
20
-192.436
11
178.529
21
-192.365
0
LINE
8
BLACK
6
CONTINUOUS
10
178.529
20
-192.365
11
178.672
21
-192.293
0
LINE
8
BLACK
6
CONTINUOUS
10
178.672
20
-192.293
11
179.029
21
-192.293
0
LINE
8
BLACK
6
CONTINUOUS
10
179.029
20
-192.293
11
179.244
21
-192.365
0
LINE
8
BLACK
6
CONTINUOUS
10
179.887
20
-193.793
11
179.887
21
-192.793
0
LINE
8
BLACK
6
CONTINUOUS
10
179.887
20
-192.293
11
179.815
21
-192.365
0
LINE
8
BLACK
6
CONTINUOUS
10
179.815
20
-192.365
11
179.887
21
-192.436
0
LINE
8
BLACK
6
CONTINUOUS
10
179.887
20
-192.436
11
179.958
21
-192.365
0
LINE
8
BLACK
6
CONTINUOUS
10
179.958
20
-192.365
11
179.887
21
-192.293
0
LINE
8
BLACK
6
CONTINUOUS
10
179.887
20
-192.293
11
179.887
21
-192.436
0
LINE
8
BLACK
6
CONTINUOUS
10
180.458
20
-192.793
11
181.244
21
-192.793
0
LINE
8
BLACK
6
CONTINUOUS
10
181.244
20
-192.793
11
180.458
21
-193.793
0
LINE
8
BLACK
6
CONTINUOUS
10
180.458
20
-193.793
11
181.244
21
-193.793
0
LINE
8
BLACK
6
CONTINUOUS
10
182.387
20
-193.722
11
182.244
21
-193.793
0
LINE
8
BLACK
6
CONTINUOUS
10
182.244
20
-193.793
11
181.958
21
-193.793
0
LINE
8
BLACK
6
CONTINUOUS
10
181.958
20
-193.793
11
181.815
21
-193.722
0
LINE
8
BLACK
6
CONTINUOUS
10
181.815
20
-193.722
11
181.744
21
-193.579
0
LINE
8
BLACK
6
CONTINUOUS
10
181.744
20
-193.579
11
181.744
21
-193.008
0
LINE
8
BLACK
6
CONTINUOUS
10
181.744
20
-193.008
11
181.815
21
-192.865
0
LINE
8
BLACK
6
CONTINUOUS
10
181.815
20
-192.865
11
181.958
21
-192.793
0
LINE
8
BLACK
6
CONTINUOUS
10
181.958
20
-192.793
11
182.244
21
-192.793
0
LINE
8
BLACK
6
CONTINUOUS
10
182.244
20
-192.793
11
182.387
21
-192.865
0
LINE
8
BLACK
6
CONTINUOUS
10
182.387
20
-192.865
11
182.458
21
-193.008
0
LINE
8
BLACK
6
CONTINUOUS
10
182.458
20
-193.008
11
182.458
21
-193.15
0
LINE
8
BLACK
6
CONTINUOUS
10
182.458
20
-193.15
11
181.744
21
-193.293
0
LINE
8
BLACK
6
CONTINUOUS
10
183.101
20
-193.65
11
183.172
21
-193.722
0
LINE
8
BLACK
6
CONTINUOUS
10
183.172
20
-193.722
11
183.101
21
-193.793
0
LINE
8
BLACK
6
CONTINUOUS
10
183.101
20
-193.793
11
183.029
21
-193.722
0
LINE
8
BLACK
6
CONTINUOUS
10
183.029
20
-193.722
11
183.101
21
-193.65
0
LINE
8
BLACK
6
CONTINUOUS
10
183.101
20
-193.65
11
183.101
21
-193.793
0
LINE
8
BLACK
6
CONTINUOUS
10
183.101
20
-192.865
11
183.172
21
-192.936
0
LINE
8
BLACK
6
CONTINUOUS
10
183.172
20
-192.936
11
183.101
21
-193.008
0
LINE
8
BLACK
6
CONTINUOUS
10
183.101
20
-193.008
11
183.029
21
-192.936
0
LINE
8
BLACK
6
CONTINUOUS
10
183.029
20
-192.936
11
183.101
21
-192.865
0
LINE
8
BLACK
6
CONTINUOUS
10
183.101
20
-192.865
11
183.101
21
-193.008
0
LINE
8
BLACK
6
CONTINUOUS
10
184.887
20
-193.365
11
185.601
21
-193.365
0
LINE
8
BLACK
6
CONTINUOUS
10
184.744
20
-193.793
11
185.244
21
-192.293
0
LINE
8
BLACK
6
CONTINUOUS
10
185.244
20
-192.293
11
185.744
21
-193.793
0
LINE
8
BLACK
6
CONTINUOUS
10
186.887
20
-192.793
11
186.887
21
-193.793
0
LINE
8
BLACK
6
CONTINUOUS
10
186.529
20
-192.222
11
186.172
21
-193.293
0
LINE
8
BLACK
6
CONTINUOUS
10
186.172
20
-193.293
11
187.101
21
-193.293
0
LINE
8
BLACK
6
CONTINUOUS
10
263.458
20
-196.593
11
263.458
21
-195.093
0
LINE
8
BLACK
6
CONTINUOUS
10
264.815
20
-196.593
11
264.815
21
-195.093
0
LINE
8
BLACK
6
CONTINUOUS
10
264.815
20
-196.522
11
264.672
21
-196.593
0
LINE
8
BLACK
6
CONTINUOUS
10
264.672
20
-196.593
11
264.387
21
-196.593
0
LINE
8
BLACK
6
CONTINUOUS
10
264.387
20
-196.593
11
264.244
21
-196.522
0
LINE
8
BLACK
6
CONTINUOUS
10
264.244
20
-196.522
11
264.172
21
-196.45
0
LINE
8
BLACK
6
CONTINUOUS
10
264.172
20
-196.45
11
264.101
21
-196.308
0
LINE
8
BLACK
6
CONTINUOUS
10
264.101
20
-196.308
11
264.101
21
-195.879
0
LINE
8
BLACK
6
CONTINUOUS
10
264.101
20
-195.879
11
264.172
21
-195.736
0
LINE
8
BLACK
6
CONTINUOUS
10
264.172
20
-195.736
11
264.244
21
-195.665
0
LINE
8
BLACK
6
CONTINUOUS
10
264.244
20
-195.665
11
264.387
21
-195.593
0
LINE
8
BLACK
6
CONTINUOUS
10
264.387
20
-195.593
11
264.672
21
-195.593
0
LINE
8
BLACK
6
CONTINUOUS
10
264.672
20
-195.593
11
264.815
21
-195.665
0
LINE
8
BLACK
6
CONTINUOUS
10
265.529
20
-196.45
11
265.601
21
-196.522
0
LINE
8
BLACK
6
CONTINUOUS
10
265.601
20
-196.522
11
265.529
21
-196.593
0
LINE
8
BLACK
6
CONTINUOUS
10
265.529
20
-196.593
11
265.458
21
-196.522
0
LINE
8
BLACK
6
CONTINUOUS
10
265.458
20
-196.522
11
265.529
21
-196.45
0
LINE
8
BLACK
6
CONTINUOUS
10
265.529
20
-196.45
11
265.529
21
-196.593
0
LINE
8
BLACK
6
CONTINUOUS
10
265.529
20
-195.665
11
265.601
21
-195.736
0
LINE
8
BLACK
6
CONTINUOUS
10
265.601
20
-195.736
11
265.529
21
-195.808
0
LINE
8
BLACK
6
CONTINUOUS
10
265.529
20
-195.808
11
265.458
21
-195.736
0
LINE
8
BLACK
6
CONTINUOUS
10
265.458
20
-195.736
11
265.529
21
-195.665
0
LINE
8
BLACK
6
CONTINUOUS
10
265.529
20
-195.665
11
265.529
21
-195.808
0
LINE
8
BLACK
6
CONTINUOUS
10
268.172
20
-196.593
11
267.315
21
-196.593
0
LINE
8
BLACK
6
CONTINUOUS
10
267.744
20
-196.593
11
267.744
21
-195.093
0
LINE
8
BLACK
6
CONTINUOUS
10
267.744
20
-195.093
11
267.601
21
-195.308
0
LINE
8
BLACK
6
CONTINUOUS
10
267.601
20
-195.308
11
267.458
21
-195.45
0
LINE
8
BLACK
6
CONTINUOUS
10
267.458
20
-195.45
11
267.315
21
-195.522
0
LINE
8
BLACK
6
CONTINUOUS
10
269.887
20
-195.022
11
268.601
21
-196.95
0
LINE
8
BLACK
6
CONTINUOUS
10
271.172
20
-196.593
11
270.315
21
-196.593
0
LINE
8
BLACK
6
CONTINUOUS
10
270.744
20
-196.593
11
270.744
21
-195.093
0
LINE
8
BLACK
6
CONTINUOUS
10
270.744
20
-195.093
11
270.601
21
-195.308
0
LINE
8
BLACK
6
CONTINUOUS
10
270.601
20
-195.308
11
270.458
21
-195.45
0
LINE
8
BLACK
6
CONTINUOUS
10
270.458
20
-195.45
11
270.315
21
-195.522
0
LINE
8
BLACK
6
CONTINUOUS
10
177.002
20
-187.507
11
285.002
21
-187.507
0
LINE
8
BLACK
6
CONTINUOUS
10
178.694
20
-188.212
11
179.837
21
-188.212
0
LINE
8
BLACK
6
CONTINUOUS
10
179.015
20
-190.212
11
179.265
21
-188.212
0
LINE
8
BLACK
6
CONTINUOUS
10
180.253
20
-190.212
11
180.42
21
-188.878
0
LINE
8
BLACK
6
CONTINUOUS
10
180.503
20
-188.212
11
180.396
21
-188.307
0
LINE
8
BLACK
6
CONTINUOUS
10
180.396
20
-188.307
11
180.48
21
-188.402
0
LINE
8
BLACK
6
CONTINUOUS
10
180.48
20
-188.402
11
180.587
21
-188.307
0
LINE
8
BLACK
6
CONTINUOUS
10
180.587
20
-188.307
11
180.503
21
-188.212
0
LINE
8
BLACK
6
CONTINUOUS
10
180.503
20
-188.212
11
180.48
21
-188.402
0
LINE
8
BLACK
6
CONTINUOUS
10
181.087
20
-188.878
11
181.849
21
-188.878
0
LINE
8
BLACK
6
CONTINUOUS
10
181.456
20
-188.212
11
181.242
21
-189.926
0
LINE
8
BLACK
6
CONTINUOUS
10
181.242
20
-189.926
11
181.313
21
-190.116
0
LINE
8
BLACK
6
CONTINUOUS
10
181.313
20
-190.116
11
181.492
21
-190.212
0
LINE
8
BLACK
6
CONTINUOUS
10
181.492
20
-190.212
11
181.682
21
-190.212
0
LINE
8
BLACK
6
CONTINUOUS
10
182.634
20
-190.212
11
182.456
21
-190.116
0
LINE
8
BLACK
6
CONTINUOUS
10
182.456
20
-190.116
11
182.384
21
-189.926
0
LINE
8
BLACK
6
CONTINUOUS
10
182.384
20
-189.926
11
182.599
21
-188.212
0
LINE
8
BLACK
6
CONTINUOUS
10
184.17
20
-190.116
11
183.968
21
-190.212
0
LINE
8
BLACK
6
CONTINUOUS
10
183.968
20
-190.212
11
183.587
21
-190.212
0
LINE
8
BLACK
6
CONTINUOUS
10
183.587
20
-190.212
11
183.408
21
-190.116
0
LINE
8
BLACK
6
CONTINUOUS
10
183.408
20
-190.116
11
183.337
21
-189.926
0
LINE
8
BLACK
6
CONTINUOUS
10
183.337
20
-189.926
11
183.432
21
-189.164
0
LINE
8
BLACK
6
CONTINUOUS
10
183.432
20
-189.164
11
183.551
21
-188.974
0
LINE
8
BLACK
6
CONTINUOUS
10
183.551
20
-188.974
11
183.753
21
-188.878
0
LINE
8
BLACK
6
CONTINUOUS
10
183.753
20
-188.878
11
184.134
21
-188.878
0
LINE
8
BLACK
6
CONTINUOUS
10
184.134
20
-188.878
11
184.313
21
-188.974
0
LINE
8
BLACK
6
CONTINUOUS
10
184.313
20
-188.974
11
184.384
21
-189.164
0
LINE
8
BLACK
6
CONTINUOUS
10
184.384
20
-189.164
11
184.361
21
-189.354
0
LINE
8
BLACK
6
CONTINUOUS
10
184.361
20
-189.354
11
183.384
21
-189.545
0
LINE
8
BLACK
6
CONTINUOUS
10
185.134
20
-190.021
11
185.218
21
-190.116
0
LINE
8
BLACK
6
CONTINUOUS
10
185.218
20
-190.116
11
185.111
21
-190.212
0
LINE
8
BLACK
6
CONTINUOUS
10
185.111
20
-190.212
11
185.027
21
-190.116
0
LINE
8
BLACK
6
CONTINUOUS
10
185.027
20
-190.116
11
185.134
21
-190.021
0
LINE
8
BLACK
6
CONTINUOUS
10
185.134
20
-190.021
11
185.111
21
-190.212
0
LINE
8
BLACK
6
CONTINUOUS
10
185.265
20
-188.974
11
185.349
21
-189.069
0
LINE
8
BLACK
6
CONTINUOUS
10
185.349
20
-189.069
11
185.242
21
-189.164
0
LINE
8
BLACK
6
CONTINUOUS
10
185.242
20
-189.164
11
185.158
21
-189.069
0
LINE
8
BLACK
6
CONTINUOUS
10
185.158
20
-189.069
11
185.265
21
-188.974
0
LINE
8
BLACK
6
CONTINUOUS
10
185.265
20
-188.974
11
185.242
21
-189.164
0
LINE
8
BLACK
6
CONTINUOUS
10
178.958
20
-185.608
11
178.458
21
-185.608
0
LINE
8
BLACK
6
CONTINUOUS
10
178.458
20
-186.393
11
178.458
21
-184.893
0
LINE
8
BLACK
6
CONTINUOUS
10
178.458
20
-184.893
11
179.172
21
-184.893
0
LINE
8
BLACK
6
CONTINUOUS
10
179.744
20
-186.393
11
179.744
21
-185.393
0
LINE
8
BLACK
6
CONTINUOUS
10
179.744
20
-184.893
11
179.672
21
-184.965
0
LINE
8
BLACK
6
CONTINUOUS
10
179.672
20
-184.965
11
179.744
21
-185.036
0
LINE
8
BLACK
6
CONTINUOUS
10
179.744
20
-185.036
11
179.815
21
-184.965
0
LINE
8
BLACK
6
CONTINUOUS
10
179.815
20
-184.965
11
179.744
21
-184.893
0
LINE
8
BLACK
6
CONTINUOUS
10
179.744
20
-184.893
11
179.744
21
-185.036
0
LINE
8
BLACK
6
CONTINUOUS
10
180.672
20
-186.393
11
180.529
21
-186.322
0
LINE
8
BLACK
6
CONTINUOUS
10
180.529
20
-186.322
11
180.458
21
-186.179
0
LINE
8
BLACK
6
CONTINUOUS
10
180.458
20
-186.179
11
180.458
21
-184.893
0
LINE
8
BLACK
6
CONTINUOUS
10
181.815
20
-186.322
11
181.672
21
-186.393
0
LINE
8
BLACK
6
CONTINUOUS
10
181.672
20
-186.393
11
181.387
21
-186.393
0
LINE
8
BLACK
6
CONTINUOUS
10
181.387
20
-186.393
11
181.244
21
-186.322
0
LINE
8
BLACK
6
CONTINUOUS
10
181.244
20
-186.322
11
181.172
21
-186.179
0
LINE
8
BLACK
6
CONTINUOUS
10
181.172
20
-186.179
11
181.172
21
-185.608
0
LINE
8
BLACK
6
CONTINUOUS
10
181.172
20
-185.608
11
181.244
21
-185.465
0
LINE
8
BLACK
6
CONTINUOUS
10
181.244
20
-185.465
11
181.387
21
-185.393
0
LINE
8
BLACK
6
CONTINUOUS
10
181.387
20
-185.393
11
181.672
21
-185.393
0
LINE
8
BLACK
6
CONTINUOUS
10
181.672
20
-185.393
11
181.815
21
-185.465
0
LINE
8
BLACK
6
CONTINUOUS
10
181.815
20
-185.465
11
181.887
21
-185.608
0
LINE
8
BLACK
6
CONTINUOUS
10
181.887
20
-185.608
11
181.887
21
-185.75
0
LINE
8
BLACK
6
CONTINUOUS
10
181.887
20
-185.75
11
181.172
21
-185.893
0
LINE
8
BLACK
6
CONTINUOUS
10
182.529
20
-186.25
11
182.601
21
-186.322
0
LINE
8
BLACK
6
CONTINUOUS
10
182.601
20
-186.322
11
182.529
21
-186.393
0
LINE
8
BLACK
6
CONTINUOUS
10
182.529
20
-186.393
11
182.458
21
-186.322
0
LINE
8
BLACK
6
CONTINUOUS
10
182.458
20
-186.322
11
182.529
21
-186.25
0
LINE
8
BLACK
6
CONTINUOUS
10
182.529
20
-186.25
11
182.529
21
-186.393
0
LINE
8
BLACK
6
CONTINUOUS
10
182.529
20
-185.465
11
182.601
21
-185.536
0
LINE
8
BLACK
6
CONTINUOUS
10
182.601
20
-185.536
11
182.529
21
-185.608
0
LINE
8
BLACK
6
CONTINUOUS
10
182.529
20
-185.608
11
182.458
21
-185.536
0
LINE
8
BLACK
6
CONTINUOUS
10
182.458
20
-185.536
11
182.529
21
-185.465
0
LINE
8
BLACK
6
CONTINUOUS
10
182.529
20
-185.465
11
182.529
21
-185.608
0
LINE
8
BLACK
6
CONTINUOUS
10
184.315
20
-186.322
11
184.529
21
-186.393
0
LINE
8
BLACK
6
CONTINUOUS
10
184.529
20
-186.393
11
184.887
21
-186.393
0
LINE
8
BLACK
6
CONTINUOUS
10
184.887
20
-186.393
11
185.029
21
-186.322
0
LINE
8
BLACK
6
CONTINUOUS
10
185.029
20
-186.322
11
185.101
21
-186.25
0
LINE
8
BLACK
6
CONTINUOUS
10
185.101
20
-186.25
11
185.172
21
-186.108
0
LINE
8
BLACK
6
CONTINUOUS
10
185.172
20
-186.108
11
185.172
21
-185.965
0
LINE
8
BLACK
6
CONTINUOUS
10
185.172
20
-185.965
11
185.101
21
-185.822
0
LINE
8
BLACK
6
CONTINUOUS
10
185.101
20
-185.822
11
185.029
21
-185.75
0
LINE
8
BLACK
6
CONTINUOUS
10
185.029
20
-185.75
11
184.887
21
-185.679
0
LINE
8
BLACK
6
CONTINUOUS
10
184.887
20
-185.679
11
184.601
21
-185.608
0
LINE
8
BLACK
6
CONTINUOUS
10
184.601
20
-185.608
11
184.458
21
-185.536
0
LINE
8
BLACK
6
CONTINUOUS
10
184.458
20
-185.536
11
184.387
21
-185.465
0
LINE
8
BLACK
6
CONTINUOUS
10
184.387
20
-185.465
11
184.315
21
-185.322
0
LINE
8
BLACK
6
CONTINUOUS
10
184.315
20
-185.322
11
184.315
21
-185.179
0
LINE
8
BLACK
6
CONTINUOUS
10
184.315
20
-185.179
11
184.387
21
-185.036
0
LINE
8
BLACK
6
CONTINUOUS
10
184.387
20
-185.036
11
184.458
21
-184.965
0
LINE
8
BLACK
6
CONTINUOUS
10
184.458
20
-184.965
11
184.601
21
-184.893
0
LINE
8
BLACK
6
CONTINUOUS
10
184.601
20
-184.893
11
184.958
21
-184.893
0
LINE
8
BLACK
6
CONTINUOUS
10
184.958
20
-184.893
11
185.172
21
-184.965
0
LINE
8
BLACK
6
CONTINUOUS
10
185.601
20
-185.393
11
186.172
21
-185.393
0
LINE
8
BLACK
6
CONTINUOUS
10
185.815
20
-184.893
11
185.815
21
-186.179
0
LINE
8
BLACK
6
CONTINUOUS
10
185.815
20
-186.179
11
185.887
21
-186.322
0
LINE
8
BLACK
6
CONTINUOUS
10
185.887
20
-186.322
11
186.029
21
-186.393
0
LINE
8
BLACK
6
CONTINUOUS
10
186.029
20
-186.393
11
186.172
21
-186.393
0
LINE
8
BLACK
6
CONTINUOUS
10
186.672
20
-186.393
11
186.672
21
-185.393
0
LINE
8
BLACK
6
CONTINUOUS
10
186.672
20
-185.536
11
186.744
21
-185.465
0
LINE
8
BLACK
6
CONTINUOUS
10
186.744
20
-185.465
11
186.887
21
-185.393
0
LINE
8
BLACK
6
CONTINUOUS
10
186.887
20
-185.393
11
187.101
21
-185.393
0
LINE
8
BLACK
6
CONTINUOUS
10
187.101
20
-185.393
11
187.244
21
-185.465
0
LINE
8
BLACK
6
CONTINUOUS
10
187.244
20
-185.465
11
187.315
21
-185.608
0
LINE
8
BLACK
6
CONTINUOUS
10
187.315
20
-185.608
11
187.315
21
-186.393
0
LINE
8
BLACK
6
CONTINUOUS
10
187.315
20
-185.608
11
187.387
21
-185.465
0
LINE
8
BLACK
6
CONTINUOUS
10
187.387
20
-185.465
11
187.529
21
-185.393
0
LINE
8
BLACK
6
CONTINUOUS
10
187.529
20
-185.393
11
187.744
21
-185.393
0
LINE
8
BLACK
6
CONTINUOUS
10
187.744
20
-185.393
11
187.887
21
-185.465
0
LINE
8
BLACK
6
CONTINUOUS
10
187.887
20
-185.465
11
187.958
21
-185.608
0
LINE
8
BLACK
6
CONTINUOUS
10
187.958
20
-185.608
11
187.958
21
-186.393
0
LINE
8
BLACK
6
CONTINUOUS
10
188.529
20
-184.893
11
189.458
21
-184.893
0
LINE
8
BLACK
6
CONTINUOUS
10
189.458
20
-184.893
11
188.958
21
-185.465
0
LINE
8
BLACK
6
CONTINUOUS
10
188.958
20
-185.465
11
189.172
21
-185.465
0
LINE
8
BLACK
6
CONTINUOUS
10
189.172
20
-185.465
11
189.315
21
-185.536
0
LINE
8
BLACK
6
CONTINUOUS
10
189.315
20
-185.536
11
189.387
21
-185.608
0
LINE
8
BLACK
6
CONTINUOUS
10
189.387
20
-185.608
11
189.458
21
-185.75
0
LINE
8
BLACK
6
CONTINUOUS
10
189.458
20
-185.75
11
189.458
21
-186.108
0
LINE
8
BLACK
6
CONTINUOUS
10
189.458
20
-186.108
11
189.387
21
-186.25
0
LINE
8
BLACK
6
CONTINUOUS
10
189.387
20
-186.25
11
189.315
21
-186.322
0
LINE
8
BLACK
6
CONTINUOUS
10
189.315
20
-186.322
11
189.172
21
-186.393
0
LINE
8
BLACK
6
CONTINUOUS
10
189.172
20
-186.393
11
188.744
21
-186.393
0
LINE
8
BLACK
6
CONTINUOUS
10
188.744
20
-186.393
11
188.601
21
-186.322
0
LINE
8
BLACK
6
CONTINUOUS
10
188.601
20
-186.322
11
188.529
21
-186.25
0
LINE
8
BLACK
6
CONTINUOUS
10
190.029
20
-185.036
11
190.101
21
-184.965
0
LINE
8
BLACK
6
CONTINUOUS
10
190.101
20
-184.965
11
190.244
21
-184.893
0
LINE
8
BLACK
6
CONTINUOUS
10
190.244
20
-184.893
11
190.601
21
-184.893
0
LINE
8
BLACK
6
CONTINUOUS
10
190.601
20
-184.893
11
190.744
21
-184.965
0
LINE
8
BLACK
6
CONTINUOUS
10
190.744
20
-184.965
11
190.815
21
-185.036
0
LINE
8
BLACK
6
CONTINUOUS
10
190.815
20
-185.036
11
190.887
21
-185.179
0
LINE
8
BLACK
6
CONTINUOUS
10
190.887
20
-185.179
11
190.887
21
-185.322
0
LINE
8
BLACK
6
CONTINUOUS
10
190.887
20
-185.322
11
190.815
21
-185.536
0
LINE
8
BLACK
6
CONTINUOUS
10
190.815
20
-185.536
11
189.958
21
-186.393
0
LINE
8
BLACK
6
CONTINUOUS
10
189.958
20
-186.393
11
190.887
21
-186.393
0
LINE
8
BLACK
6
CONTINUOUS
10
192.029
20
-185.608
11
192.244
21
-185.679
0
LINE
8
BLACK
6
CONTINUOUS
10
192.244
20
-185.679
11
192.315
21
-185.75
0
LINE
8
BLACK
6
CONTINUOUS
10
192.315
20
-185.75
11
192.387
21
-185.893
0
LINE
8
BLACK
6
CONTINUOUS
10
192.387
20
-185.893
11
192.387
21
-186.108
0
LINE
8
BLACK
6
CONTINUOUS
10
192.387
20
-186.108
11
192.315
21
-186.25
0
LINE
8
BLACK
6
CONTINUOUS
10
192.315
20
-186.25
11
192.244
21
-186.322
0
LINE
8
BLACK
6
CONTINUOUS
10
192.244
20
-186.322
11
192.101
21
-186.393
0
LINE
8
BLACK
6
CONTINUOUS
10
192.101
20
-186.393
11
191.529
21
-186.393
0
LINE
8
BLACK
6
CONTINUOUS
10
191.529
20
-186.393
11
191.529
21
-184.893
0
LINE
8
BLACK
6
CONTINUOUS
10
191.529
20
-184.893
11
192.029
21
-184.893
0
LINE
8
BLACK
6
CONTINUOUS
10
192.029
20
-184.893
11
192.172
21
-184.965
0
LINE
8
BLACK
6
CONTINUOUS
10
192.172
20
-184.965
11
192.244
21
-185.036
0
LINE
8
BLACK
6
CONTINUOUS
10
192.244
20
-185.036
11
192.315
21
-185.179
0
LINE
8
BLACK
6
CONTINUOUS
10
192.315
20
-185.179
11
192.315
21
-185.322
0
LINE
8
BLACK
6
CONTINUOUS
10
192.315
20
-185.322
11
192.244
21
-185.465
0
LINE
8
BLACK
6
CONTINUOUS
10
192.244
20
-185.465
11
192.172
21
-185.536
0
LINE
8
BLACK
6
CONTINUOUS
10
192.172
20
-185.536
11
192.029
21
-185.608
0
LINE
8
BLACK
6
CONTINUOUS
10
192.029
20
-185.608
11
191.529
21
-185.608
0
LINE
8
BLACK
6
CONTINUOUS
10
193.244
20
-186.393
11
193.101
21
-186.322
0
LINE
8
BLACK
6
CONTINUOUS
10
193.101
20
-186.322
11
193.029
21
-186.25
0
LINE
8
BLACK
6
CONTINUOUS
10
193.029
20
-186.25
11
192.958
21
-186.108
0
LINE
8
BLACK
6
CONTINUOUS
10
192.958
20
-186.108
11
192.958
21
-185.679
0
LINE
8
BLACK
6
CONTINUOUS
10
192.958
20
-185.679
11
193.029
21
-185.536
0
LINE
8
BLACK
6
CONTINUOUS
10
193.029
20
-185.536
11
193.101
21
-185.465
0
LINE
8
BLACK
6
CONTINUOUS
10
193.101
20
-185.465
11
193.244
21
-185.393
0
LINE
8
BLACK
6
CONTINUOUS
10
193.244
20
-185.393
11
193.458
21
-185.393
0
LINE
8
BLACK
6
CONTINUOUS
10
193.458
20
-185.393
11
193.601
21
-185.465
0
LINE
8
BLACK
6
CONTINUOUS
10
193.601
20
-185.465
11
193.672
21
-185.536
0
LINE
8
BLACK
6
CONTINUOUS
10
193.672
20
-185.536
11
193.744
21
-185.679
0
LINE
8
BLACK
6
CONTINUOUS
10
193.744
20
-185.679
11
193.744
21
-186.108
0
LINE
8
BLACK
6
CONTINUOUS
10
193.744
20
-186.108
11
193.672
21
-186.25
0
LINE
8
BLACK
6
CONTINUOUS
10
193.672
20
-186.25
11
193.601
21
-186.322
0
LINE
8
BLACK
6
CONTINUOUS
10
193.601
20
-186.322
11
193.458
21
-186.393
0
LINE
8
BLACK
6
CONTINUOUS
10
193.458
20
-186.393
11
193.244
21
-186.393
0
LINE
8
BLACK
6
CONTINUOUS
10
195.029
20
-186.393
11
195.029
21
-185.608
0
LINE
8
BLACK
6
CONTINUOUS
10
195.029
20
-185.608
11
194.958
21
-185.465
0
LINE
8
BLACK
6
CONTINUOUS
10
194.958
20
-185.465
11
194.815
21
-185.393
0
LINE
8
BLACK
6
CONTINUOUS
10
194.815
20
-185.393
11
194.529
21
-185.393
0
LINE
8
BLACK
6
CONTINUOUS
10
194.529
20
-185.393
11
194.387
21
-185.465
0
LINE
8
BLACK
6
CONTINUOUS
10
195.029
20
-186.322
11
194.887
21
-186.393
0
LINE
8
BLACK
6
CONTINUOUS
10
194.887
20
-186.393
11
194.529
21
-186.393
0
LINE
8
BLACK
6
CONTINUOUS
10
194.529
20
-186.393
11
194.387
21
-186.322
0
LINE
8
BLACK
6
CONTINUOUS
10
194.387
20
-186.322
11
194.315
21
-186.179
0
LINE
8
BLACK
6
CONTINUOUS
10
194.315
20
-186.179
11
194.315
21
-186.036
0
LINE
8
BLACK
6
CONTINUOUS
10
194.315
20
-186.036
11
194.387
21
-185.893
0
LINE
8
BLACK
6
CONTINUOUS
10
194.387
20
-185.893
11
194.529
21
-185.822
0
LINE
8
BLACK
6
CONTINUOUS
10
194.529
20
-185.822
11
194.887
21
-185.822
0
LINE
8
BLACK
6
CONTINUOUS
10
194.887
20
-185.822
11
195.029
21
-185.75
0
LINE
8
BLACK
6
CONTINUOUS
10
195.744
20
-186.393
11
195.744
21
-185.393
0
LINE
8
BLACK
6
CONTINUOUS
10
195.744
20
-185.679
11
195.815
21
-185.536
0
LINE
8
BLACK
6
CONTINUOUS
10
195.815
20
-185.536
11
195.887
21
-185.465
0
LINE
8
BLACK
6
CONTINUOUS
10
195.887
20
-185.465
11
196.029
21
-185.393
0
LINE
8
BLACK
6
CONTINUOUS
10
196.029
20
-185.393
11
196.172
21
-185.393
0
LINE
8
BLACK
6
CONTINUOUS
10
197.315
20
-186.393
11
197.315
21
-184.893
0
LINE
8
BLACK
6
CONTINUOUS
10
197.315
20
-186.322
11
197.172
21
-186.393
0
LINE
8
BLACK
6
CONTINUOUS
10
197.172
20
-186.393
11
196.887
21
-186.393
0
LINE
8
BLACK
6
CONTINUOUS
10
196.887
20
-186.393
11
196.744
21
-186.322
0
LINE
8
BLACK
6
CONTINUOUS
10
196.744
20
-186.322
11
196.672
21
-186.25
0
LINE
8
BLACK
6
CONTINUOUS
10
196.672
20
-186.25
11
196.601
21
-186.108
0
LINE
8
BLACK
6
CONTINUOUS
10
196.601
20
-186.108
11
196.601
21
-185.679
0
LINE
8
BLACK
6
CONTINUOUS
10
196.601
20
-185.679
11
196.672
21
-185.536
0
LINE
8
BLACK
6
CONTINUOUS
10
196.672
20
-185.536
11
196.744
21
-185.465
0
LINE
8
BLACK
6
CONTINUOUS
10
196.744
20
-185.465
11
196.887
21
-185.393
0
LINE
8
BLACK
6
CONTINUOUS
10
196.887
20
-185.393
11
197.172
21
-185.393
0
LINE
8
BLACK
6
CONTINUOUS
10
197.172
20
-185.393
11
197.315
21
-185.465
0
LINE
8
BLACK
6
CONTINUOUS
10
198.029
20
-186.25
11
198.101
21
-186.322
0
LINE
8
BLACK
6
CONTINUOUS
10
198.101
20
-186.322
11
198.029
21
-186.393
0
LINE
8
BLACK
6
CONTINUOUS
10
198.029
20
-186.393
11
197.958
21
-186.322
0
LINE
8
BLACK
6
CONTINUOUS
10
197.958
20
-186.322
11
198.029
21
-186.25
0
LINE
8
BLACK
6
CONTINUOUS
10
198.029
20
-186.25
11
198.029
21
-186.393
0
LINE
8
BLACK
6
CONTINUOUS
10
198.744
20
-186.393
11
198.744
21
-184.893
0
LINE
8
BLACK
6
CONTINUOUS
10
198.887
20
-185.822
11
199.315
21
-186.393
0
LINE
8
BLACK
6
CONTINUOUS
10
199.315
20
-185.393
11
198.744
21
-185.965
0
LINE
8
BLACK
6
CONTINUOUS
10
199.958
20
-186.393
11
199.958
21
-185.393
0
LINE
8
BLACK
6
CONTINUOUS
10
199.958
20
-184.893
11
199.887
21
-184.965
0
LINE
8
BLACK
6
CONTINUOUS
10
199.887
20
-184.965
11
199.958
21
-185.036
0
LINE
8
BLACK
6
CONTINUOUS
10
199.958
20
-185.036
11
200.029
21
-184.965
0
LINE
8
BLACK
6
CONTINUOUS
10
200.029
20
-184.965
11
199.958
21
-184.893
0
LINE
8
BLACK
6
CONTINUOUS
10
199.958
20
-184.893
11
199.958
21
-185.036
0
LINE
8
BLACK
6
CONTINUOUS
10
201.315
20
-186.322
11
201.172
21
-186.393
0
LINE
8
BLACK
6
CONTINUOUS
10
201.172
20
-186.393
11
200.887
21
-186.393
0
LINE
8
BLACK
6
CONTINUOUS
10
200.887
20
-186.393
11
200.744
21
-186.322
0
LINE
8
BLACK
6
CONTINUOUS
10
200.744
20
-186.322
11
200.672
21
-186.25
0
LINE
8
BLACK
6
CONTINUOUS
10
200.672
20
-186.25
11
200.601
21
-186.108
0
LINE
8
BLACK
6
CONTINUOUS
10
200.601
20
-186.108
11
200.601
21
-185.679
0
LINE
8
BLACK
6
CONTINUOUS
10
200.601
20
-185.679
11
200.672
21
-185.536
0
LINE
8
BLACK
6
CONTINUOUS
10
200.672
20
-185.536
11
200.744
21
-185.465
0
LINE
8
BLACK
6
CONTINUOUS
10
200.744
20
-185.465
11
200.887
21
-185.393
0
LINE
8
BLACK
6
CONTINUOUS
10
200.887
20
-185.393
11
201.172
21
-185.393
0
LINE
8
BLACK
6
CONTINUOUS
10
201.172
20
-185.393
11
201.315
21
-185.465
0
LINE
8
BLACK
6
CONTINUOUS
10
202.601
20
-186.393
11
202.601
21
-185.608
0
LINE
8
BLACK
6
CONTINUOUS
10
202.601
20
-185.608
11
202.529
21
-185.465
0
LINE
8
BLACK
6
CONTINUOUS
10
202.529
20
-185.465
11
202.387
21
-185.393
0
LINE
8
BLACK
6
CONTINUOUS
10
202.387
20
-185.393
11
202.101
21
-185.393
0
LINE
8
BLACK
6
CONTINUOUS
10
202.101
20
-185.393
11
201.958
21
-185.465
0
LINE
8
BLACK
6
CONTINUOUS
10
202.601
20
-186.322
11
202.458
21
-186.393
0
LINE
8
BLACK
6
CONTINUOUS
10
202.458
20
-186.393
11
202.101
21
-186.393
0
LINE
8
BLACK
6
CONTINUOUS
10
202.101
20
-186.393
11
201.958
21
-186.322
0
LINE
8
BLACK
6
CONTINUOUS
10
201.958
20
-186.322
11
201.887
21
-186.179
0
LINE
8
BLACK
6
CONTINUOUS
10
201.887
20
-186.179
11
201.887
21
-186.036
0
LINE
8
BLACK
6
CONTINUOUS
10
201.887
20
-186.036
11
201.958
21
-185.893
0
LINE
8
BLACK
6
CONTINUOUS
10
201.958
20
-185.893
11
202.101
21
-185.822
0
LINE
8
BLACK
6
CONTINUOUS
10
202.101
20
-185.822
11
202.458
21
-185.822
0
LINE
8
BLACK
6
CONTINUOUS
10
202.458
20
-185.822
11
202.601
21
-185.75
0
LINE
8
BLACK
6
CONTINUOUS
10
203.958
20
-186.393
11
203.958
21
-184.893
0
LINE
8
BLACK
6
CONTINUOUS
10
203.958
20
-186.322
11
203.815
21
-186.393
0
LINE
8
BLACK
6
CONTINUOUS
10
203.815
20
-186.393
11
203.529
21
-186.393
0
LINE
8
BLACK
6
CONTINUOUS
10
203.529
20
-186.393
11
203.387
21
-186.322
0
LINE
8
BLACK
6
CONTINUOUS
10
203.387
20
-186.322
11
203.315
21
-186.25
0
LINE
8
BLACK
6
CONTINUOUS
10
203.315
20
-186.25
11
203.244
21
-186.108
0
LINE
8
BLACK
6
CONTINUOUS
10
203.244
20
-186.108
11
203.244
21
-185.679
0
LINE
8
BLACK
6
CONTINUOUS
10
203.244
20
-185.679
11
203.315
21
-185.536
0
LINE
8
BLACK
6
CONTINUOUS
10
203.315
20
-185.536
11
203.387
21
-185.465
0
LINE
8
BLACK
6
CONTINUOUS
10
203.387
20
-185.465
11
203.529
21
-185.393
0
LINE
8
BLACK
6
CONTINUOUS
10
203.529
20
-185.393
11
203.815
21
-185.393
0
LINE
8
BLACK
6
CONTINUOUS
10
203.815
20
-185.393
11
203.958
21
-185.465
0
LINE
8
BLACK
6
CONTINUOUS
10
204.315
20
-186.536
11
205.458
21
-186.536
0
LINE
8
BLACK
6
CONTINUOUS
10
205.815
20
-185.393
11
205.815
21
-186.893
0
LINE
8
BLACK
6
CONTINUOUS
10
205.815
20
-185.465
11
205.958
21
-185.393
0
LINE
8
BLACK
6
CONTINUOUS
10
205.958
20
-185.393
11
206.244
21
-185.393
0
LINE
8
BLACK
6
CONTINUOUS
10
206.244
20
-185.393
11
206.387
21
-185.465
0
LINE
8
BLACK
6
CONTINUOUS
10
206.387
20
-185.465
11
206.458
21
-185.536
0
LINE
8
BLACK
6
CONTINUOUS
10
206.458
20
-185.536
11
206.529
21
-185.679
0
LINE
8
BLACK
6
CONTINUOUS
10
206.529
20
-185.679
11
206.529
21
-186.108
0
LINE
8
BLACK
6
CONTINUOUS
10
206.529
20
-186.108
11
206.458
21
-186.25
0
LINE
8
BLACK
6
CONTINUOUS
10
206.458
20
-186.25
11
206.387
21
-186.322
0
LINE
8
BLACK
6
CONTINUOUS
10
206.387
20
-186.322
11
206.244
21
-186.393
0
LINE
8
BLACK
6
CONTINUOUS
10
206.244
20
-186.393
11
205.958
21
-186.393
0
LINE
8
BLACK
6
CONTINUOUS
10
205.958
20
-186.393
11
205.815
21
-186.322
0
LINE
8
BLACK
6
CONTINUOUS
10
207.815
20
-186.322
11
207.672
21
-186.393
0
LINE
8
BLACK
6
CONTINUOUS
10
207.672
20
-186.393
11
207.387
21
-186.393
0
LINE
8
BLACK
6
CONTINUOUS
10
207.387
20
-186.393
11
207.244
21
-186.322
0
LINE
8
BLACK
6
CONTINUOUS
10
207.244
20
-186.322
11
207.172
21
-186.25
0
LINE
8
BLACK
6
CONTINUOUS
10
207.172
20
-186.25
11
207.101
21
-186.108
0
LINE
8
BLACK
6
CONTINUOUS
10
207.101
20
-186.108
11
207.101
21
-185.679
0
LINE
8
BLACK
6
CONTINUOUS
10
207.101
20
-185.679
11
207.172
21
-185.536
0
LINE
8
BLACK
6
CONTINUOUS
10
207.172
20
-185.536
11
207.244
21
-185.465
0
LINE
8
BLACK
6
CONTINUOUS
10
207.244
20
-185.465
11
207.387
21
-185.393
0
LINE
8
BLACK
6
CONTINUOUS
10
207.387
20
-185.393
11
207.672
21
-185.393
0
LINE
8
BLACK
6
CONTINUOUS
10
207.672
20
-185.393
11
207.815
21
-185.465
0
LINE
8
BLACK
6
CONTINUOUS
10
208.458
20
-186.393
11
208.458
21
-184.893
0
LINE
8
BLACK
6
CONTINUOUS
10
208.458
20
-185.465
11
208.601
21
-185.393
0
LINE
8
BLACK
6
CONTINUOUS
10
208.601
20
-185.393
11
208.887
21
-185.393
0
LINE
8
BLACK
6
CONTINUOUS
10
208.887
20
-185.393
11
209.029
21
-185.465
0
LINE
8
BLACK
6
CONTINUOUS
10
209.029
20
-185.465
11
209.101
21
-185.536
0
LINE
8
BLACK
6
CONTINUOUS
10
209.101
20
-185.536
11
209.172
21
-185.679
0
LINE
8
BLACK
6
CONTINUOUS
10
209.172
20
-185.679
11
209.172
21
-186.108
0
LINE
8
BLACK
6
CONTINUOUS
10
209.172
20
-186.108
11
209.101
21
-186.25
0
LINE
8
BLACK
6
CONTINUOUS
10
209.101
20
-186.25
11
209.029
21
-186.322
0
LINE
8
BLACK
6
CONTINUOUS
10
209.029
20
-186.322
11
208.887
21
-186.393
0
LINE
8
BLACK
6
CONTINUOUS
10
208.887
20
-186.393
11
208.601
21
-186.393
0
LINE
8
BLACK
6
CONTINUOUS
10
208.601
20
-186.393
11
208.458
21
-186.322
0
LINE
8
BLACK
6
CONTINUOUS
10
177.002
20
-181.507
11
285.002
21
-181.507
0
LINE
8
BLACK
6
CONTINUOUS
10
178.387
20
-183.622
11
178.601
21
-183.693
0
LINE
8
BLACK
6
CONTINUOUS
10
178.601
20
-183.693
11
178.958
21
-183.693
0
LINE
8
BLACK
6
CONTINUOUS
10
178.958
20
-183.693
11
179.101
21
-183.622
0
LINE
8
BLACK
6
CONTINUOUS
10
179.101
20
-183.622
11
179.172
21
-183.55
0
LINE
8
BLACK
6
CONTINUOUS
10
179.172
20
-183.55
11
179.244
21
-183.408
0
LINE
8
BLACK
6
CONTINUOUS
10
179.244
20
-183.408
11
179.244
21
-183.265
0
LINE
8
BLACK
6
CONTINUOUS
10
179.244
20
-183.265
11
179.172
21
-183.122
0
LINE
8
BLACK
6
CONTINUOUS
10
179.172
20
-183.122
11
179.101
21
-183.05
0
LINE
8
BLACK
6
CONTINUOUS
10
179.101
20
-183.05
11
178.958
21
-182.979
0
LINE
8
BLACK
6
CONTINUOUS
10
178.958
20
-182.979
11
178.672
21
-182.908
0
LINE
8
BLACK
6
CONTINUOUS
10
178.672
20
-182.908
11
178.529
21
-182.836
0
LINE
8
BLACK
6
CONTINUOUS
10
178.529
20
-182.836
11
178.458
21
-182.765
0
LINE
8
BLACK
6
CONTINUOUS
10
178.458
20
-182.765
11
178.387
21
-182.622
0
LINE
8
BLACK
6
CONTINUOUS
10
178.387
20
-182.622
11
178.387
21
-182.479
0
LINE
8
BLACK
6
CONTINUOUS
10
178.387
20
-182.479
11
178.458
21
-182.336
0
LINE
8
BLACK
6
CONTINUOUS
10
178.458
20
-182.336
11
178.529
21
-182.265
0
LINE
8
BLACK
6
CONTINUOUS
10
178.529
20
-182.265
11
178.672
21
-182.193
0
LINE
8
BLACK
6
CONTINUOUS
10
178.672
20
-182.193
11
179.029
21
-182.193
0
LINE
8
BLACK
6
CONTINUOUS
10
179.029
20
-182.193
11
179.244
21
-182.265
0
LINE
8
BLACK
6
CONTINUOUS
10
179.887
20
-183.693
11
179.887
21
-182.193
0
LINE
8
BLACK
6
CONTINUOUS
10
180.529
20
-183.693
11
180.529
21
-182.908
0
LINE
8
BLACK
6
CONTINUOUS
10
180.529
20
-182.908
11
180.458
21
-182.765
0
LINE
8
BLACK
6
CONTINUOUS
10
180.458
20
-182.765
11
180.315
21
-182.693
0
LINE
8
BLACK
6
CONTINUOUS
10
180.315
20
-182.693
11
180.101
21
-182.693
0
LINE
8
BLACK
6
CONTINUOUS
10
180.101
20
-182.693
11
179.958
21
-182.765
0
LINE
8
BLACK
6
CONTINUOUS
10
179.958
20
-182.765
11
179.887
21
-182.836
0
LINE
8
BLACK
6
CONTINUOUS
10
181.815
20
-183.622
11
181.672
21
-183.693
0
LINE
8
BLACK
6
CONTINUOUS
10
181.672
20
-183.693
11
181.387
21
-183.693
0
LINE
8
BLACK
6
CONTINUOUS
10
181.387
20
-183.693
11
181.244
21
-183.622
0
LINE
8
BLACK
6
CONTINUOUS
10
181.244
20
-183.622
11
181.172
21
-183.479
0
LINE
8
BLACK
6
CONTINUOUS
10
181.172
20
-183.479
11
181.172
21
-182.908
0
LINE
8
BLACK
6
CONTINUOUS
10
181.172
20
-182.908
11
181.244
21
-182.765
0
LINE
8
BLACK
6
CONTINUOUS
10
181.244
20
-182.765
11
181.387
21
-182.693
0
LINE
8
BLACK
6
CONTINUOUS
10
181.387
20
-182.693
11
181.672
21
-182.693
0
LINE
8
BLACK
6
CONTINUOUS
10
181.672
20
-182.693
11
181.815
21
-182.765
0
LINE
8
BLACK
6
CONTINUOUS
10
181.815
20
-182.765
11
181.887
21
-182.908
0
LINE
8
BLACK
6
CONTINUOUS
10
181.887
20
-182.908
11
181.887
21
-183.05
0
LINE
8
BLACK
6
CONTINUOUS
10
181.887
20
-183.05
11
181.172
21
-183.193
0
LINE
8
BLACK
6
CONTINUOUS
10
183.101
20
-183.622
11
182.958
21
-183.693
0
LINE
8
BLACK
6
CONTINUOUS
10
182.958
20
-183.693
11
182.672
21
-183.693
0
LINE
8
BLACK
6
CONTINUOUS
10
182.672
20
-183.693
11
182.529
21
-183.622
0
LINE
8
BLACK
6
CONTINUOUS
10
182.529
20
-183.622
11
182.458
21
-183.479
0
LINE
8
BLACK
6
CONTINUOUS
10
182.458
20
-183.479
11
182.458
21
-182.908
0
LINE
8
BLACK
6
CONTINUOUS
10
182.458
20
-182.908
11
182.529
21
-182.765
0
LINE
8
BLACK
6
CONTINUOUS
10
182.529
20
-182.765
11
182.672
21
-182.693
0
LINE
8
BLACK
6
CONTINUOUS
10
182.672
20
-182.693
11
182.958
21
-182.693
0
LINE
8
BLACK
6
CONTINUOUS
10
182.958
20
-182.693
11
183.101
21
-182.765
0
LINE
8
BLACK
6
CONTINUOUS
10
183.101
20
-182.765
11
183.172
21
-182.908
0
LINE
8
BLACK
6
CONTINUOUS
10
183.172
20
-182.908
11
183.172
21
-183.05
0
LINE
8
BLACK
6
CONTINUOUS
10
183.172
20
-183.05
11
182.458
21
-183.193
0
LINE
8
BLACK
6
CONTINUOUS
10
183.601
20
-182.693
11
184.172
21
-182.693
0
LINE
8
BLACK
6
CONTINUOUS
10
183.815
20
-182.193
11
183.815
21
-183.479
0
LINE
8
BLACK
6
CONTINUOUS
10
183.815
20
-183.479
11
183.887
21
-183.622
0
LINE
8
BLACK
6
CONTINUOUS
10
183.887
20
-183.622
11
184.029
21
-183.693
0
LINE
8
BLACK
6
CONTINUOUS
10
184.029
20
-183.693
11
184.172
21
-183.693
0
LINE
8
BLACK
6
CONTINUOUS
10
184.672
20
-183.55
11
184.744
21
-183.622
0
LINE
8
BLACK
6
CONTINUOUS
10
184.744
20
-183.622
11
184.672
21
-183.693
0
LINE
8
BLACK
6
CONTINUOUS
10
184.672
20
-183.693
11
184.601
21
-183.622
0
LINE
8
BLACK
6
CONTINUOUS
10
184.601
20
-183.622
11
184.672
21
-183.55
0
LINE
8
BLACK
6
CONTINUOUS
10
184.672
20
-183.55
11
184.672
21
-183.693
0
LINE
8
BLACK
6
CONTINUOUS
10
184.672
20
-182.765
11
184.744
21
-182.836
0
LINE
8
BLACK
6
CONTINUOUS
10
184.744
20
-182.836
11
184.672
21
-182.908
0
LINE
8
BLACK
6
CONTINUOUS
10
184.672
20
-182.908
11
184.601
21
-182.836
0
LINE
8
BLACK
6
CONTINUOUS
10
184.601
20
-182.836
11
184.672
21
-182.765
0
LINE
8
BLACK
6
CONTINUOUS
10
184.672
20
-182.765
11
184.672
21
-182.908
0
LINE
8
BLACK
6
CONTINUOUS
10
197.002
20
-191.507
11
197.002
21
-194.507
0
LINE
8
BLACK
6
CONTINUOUS
10
261.002
20
-191.507
11
261.002
21
-198.007
0
LINE
8
BLACK
6
CONTINUOUS
10
182.626
20
-72.734
11
182.661
21
-72.7486
0
LINE
8
BLACK
6
CONTINUOUS
10
182.661
20
-72.7486
11
182.676
21
-72.784
0
LINE
8
BLACK
6
CONTINUOUS
10
182.676
20
-72.784
11
182.676
21
-97.989
0
LINE
8
BLACK
6
CONTINUOUS
10
182.676
20
-97.989
11
182.661
21
-98.0244
0
LINE
8
BLACK
6
CONTINUOUS
10
182.661
20
-98.0244
11
182.626
21
-98.039
0
LINE
8
BLACK
6
CONTINUOUS
10
182.626
20
-98.039
11
152.221
21
-98.039
0
LINE
8
BLACK
6
CONTINUOUS
10
152.221
20
-98.039
11
152.186
21
-98.0244
0
LINE
8
BLACK
6
CONTINUOUS
10
152.186
20
-98.0244
11
152.171
21
-97.989
0
LINE
8
BLACK
6
CONTINUOUS
10
152.171
20
-97.989
11
152.171
21
-72.784
0
LINE
8
BLACK
6
CONTINUOUS
10
152.171
20
-72.784
11
152.186
21
-72.7486
0
LINE
8
BLACK
6
CONTINUOUS
10
152.186
20
-72.7486
11
152.221
21
-72.734
0
LINE
8
BLACK
6
CONTINUOUS
10
152.221
20
-72.734
11
182.626
21
-72.734
0
LINE
8
BLACK
6
CONTINUOUS
10
152.271
20
-72.834
11
152.271
21
-97.939
0
LINE
8
BLACK
6
CONTINUOUS
10
152.271
20
-97.939
11
182.576
21
-97.939
0
LINE
8
BLACK
6
CONTINUOUS
10
182.576
20
-97.939
11
182.576
21
-72.834
0
LINE
8
BLACK
6
CONTINUOUS
10
182.576
20
-72.834
11
152.271
21
-72.834
  0
ENDSEC
  0
EOF
