%TF.GenerationSoftware,KiCad,Pcbnew,7.0.6*%
%TF.CreationDate,2024-08-02T03:26:17+05:00*%
%TF.ProjectId,Stm32Board,53746d33-3242-46f6-9172-642e6b696361,rev?*%
%TF.SameCoordinates,Original*%
%TF.FileFunction,Soldermask,Top*%
%TF.FilePolarity,Negative*%
%FSLAX46Y46*%
G04 Gerber Fmt 4.6, Leading zero omitted, Abs format (unit mm)*
G04 Created by KiCad (PCBNEW 7.0.6) date 2024-08-02 03:26:17*
%MOMM*%
%LPD*%
G01*
G04 APERTURE LIST*
G04 Aperture macros list*
%AMRoundRect*
0 Rectangle with rounded corners*
0 $1 Rounding radius*
0 $2 $3 $4 $5 $6 $7 $8 $9 X,Y pos of 4 corners*
0 Add a 4 corners polygon primitive as box body*
4,1,4,$2,$3,$4,$5,$6,$7,$8,$9,$2,$3,0*
0 Add four circle primitives for the rounded corners*
1,1,$1+$1,$2,$3*
1,1,$1+$1,$4,$5*
1,1,$1+$1,$6,$7*
1,1,$1+$1,$8,$9*
0 Add four rect primitives between the rounded corners*
20,1,$1+$1,$2,$3,$4,$5,0*
20,1,$1+$1,$4,$5,$6,$7,0*
20,1,$1+$1,$6,$7,$8,$9,0*
20,1,$1+$1,$8,$9,$2,$3,0*%
G04 Aperture macros list end*
%ADD10C,1.500000*%
%ADD11C,1.000000*%
%ADD12RoundRect,0.237500X0.237500X-0.300000X0.237500X0.300000X-0.237500X0.300000X-0.237500X-0.300000X0*%
%ADD13R,1.700000X0.900000*%
%ADD14RoundRect,0.237500X0.300000X0.237500X-0.300000X0.237500X-0.300000X-0.237500X0.300000X-0.237500X0*%
%ADD15RoundRect,0.237500X-0.237500X0.300000X-0.237500X-0.300000X0.237500X-0.300000X0.237500X0.300000X0*%
%ADD16R,1.200000X1.400000*%
%ADD17RoundRect,0.237500X-0.300000X-0.237500X0.300000X-0.237500X0.300000X0.237500X-0.300000X0.237500X0*%
%ADD18RoundRect,0.150000X-0.150000X0.512500X-0.150000X-0.512500X0.150000X-0.512500X0.150000X0.512500X0*%
%ADD19RoundRect,0.237500X-0.250000X-0.237500X0.250000X-0.237500X0.250000X0.237500X-0.250000X0.237500X0*%
%ADD20RoundRect,0.250000X-0.450000X0.350000X-0.450000X-0.350000X0.450000X-0.350000X0.450000X0.350000X0*%
%ADD21R,1.380000X0.450000*%
%ADD22R,1.300000X1.650000*%
%ADD23R,1.550000X1.425000*%
%ADD24R,1.900000X1.800000*%
%ADD25R,1.900000X1.000000*%
%ADD26R,0.600000X2.100000*%
%ADD27RoundRect,0.237500X-0.237500X0.250000X-0.237500X-0.250000X0.237500X-0.250000X0.237500X0.250000X0*%
%ADD28RoundRect,0.075000X-0.662500X-0.075000X0.662500X-0.075000X0.662500X0.075000X-0.662500X0.075000X0*%
%ADD29RoundRect,0.075000X-0.075000X-0.662500X0.075000X-0.662500X0.075000X0.662500X-0.075000X0.662500X0*%
%ADD30RoundRect,0.237500X0.237500X-0.250000X0.237500X0.250000X-0.237500X0.250000X-0.237500X-0.250000X0*%
%ADD31RoundRect,0.237500X0.287500X0.237500X-0.287500X0.237500X-0.287500X-0.237500X0.287500X-0.237500X0*%
G04 APERTURE END LIST*
D10*
%TO.C,3.3v CPU*%
X180709000Y-85500000D03*
%TD*%
D11*
%TO.C,ADC_VCC0*%
X155764000Y-91720000D03*
%TD*%
%TO.C,A9*%
X177859000Y-90275000D03*
%TD*%
%TO.C,A5*%
X158039000Y-95850000D03*
%TD*%
D12*
%TO.C,C1*%
X156139000Y-76105000D03*
X156139000Y-74380000D03*
%TD*%
D11*
%TO.C,B11*%
X170759000Y-95790000D03*
%TD*%
%TO.C,A13*%
X172609000Y-79525000D03*
%TD*%
%TO.C,A10*%
X177864000Y-88560000D03*
%TD*%
%TO.C,TP2*%
X159664000Y-83230000D03*
%TD*%
D13*
%TO.C,SW1*%
X155024000Y-86760000D03*
X155024000Y-90160000D03*
%TD*%
D14*
%TO.C,C4*%
X156024000Y-77712000D03*
X154299000Y-77712000D03*
%TD*%
D11*
%TO.C,B7*%
X165779000Y-74575000D03*
%TD*%
D15*
%TO.C,C2*%
X159609000Y-74394000D03*
X159609000Y-76119000D03*
%TD*%
D16*
%TO.C,Y2*%
X154274000Y-79460000D03*
X154274000Y-81660000D03*
X155974000Y-81660000D03*
X155974000Y-79460000D03*
%TD*%
D17*
%TO.C,C5*%
X176509000Y-82787500D03*
X178234000Y-82787500D03*
%TD*%
D11*
%TO.C,A6*%
X160034000Y-96270000D03*
%TD*%
%TO.C,TP36*%
X161384000Y-82900000D03*
%TD*%
D18*
%TO.C,U2*%
X178334000Y-84512500D03*
X177384000Y-84512500D03*
X176434000Y-84512500D03*
X176434000Y-86787500D03*
X178334000Y-86787500D03*
%TD*%
D11*
%TO.C,TP9*%
X180759000Y-87487500D03*
%TD*%
D19*
%TO.C,R2*%
X154469000Y-85360000D03*
X156294000Y-85360000D03*
%TD*%
D11*
%TO.C,A2*%
X159744000Y-92590000D03*
%TD*%
D12*
%TO.C,C9*%
X157454000Y-88965000D03*
X157454000Y-87240000D03*
%TD*%
D11*
%TO.C,B2*%
X167134000Y-96270000D03*
%TD*%
%TO.C,B8*%
X163409000Y-74550000D03*
%TD*%
%TO.C,TP3*%
X165859000Y-79700000D03*
%TD*%
%TO.C,B13*%
X175809000Y-94875000D03*
%TD*%
D14*
%TO.C,C3*%
X156046500Y-83420000D03*
X154321500Y-83420000D03*
%TD*%
D11*
%TO.C,TP39*%
X162646500Y-81112500D03*
%TD*%
%TO.C,B10*%
X169034000Y-95790000D03*
%TD*%
%TO.C,B1*%
X165359000Y-96270000D03*
%TD*%
%TO.C,B9*%
X161584000Y-74550000D03*
%TD*%
D15*
%TO.C,C6*%
X171034000Y-91450000D03*
X171034000Y-93175000D03*
%TD*%
D11*
%TO.C,B6*%
X167554000Y-74550000D03*
%TD*%
D20*
%TO.C,FB1*%
X157644000Y-90650000D03*
X157644000Y-92650000D03*
%TD*%
D21*
%TO.C,J1*%
X177324000Y-78775000D03*
X177324000Y-78125000D03*
X177324000Y-77475000D03*
X177324000Y-76825000D03*
X177324000Y-76175000D03*
D22*
X179984000Y-80850000D03*
D23*
X177409000Y-79962500D03*
D24*
X179984000Y-78625000D03*
D25*
X179984000Y-75925000D03*
D23*
X177409000Y-74987500D03*
D22*
X179984000Y-74100000D03*
%TD*%
D11*
%TO.C,A4*%
X156264000Y-95875000D03*
%TD*%
D26*
%TO.C,Y1*%
X158314000Y-81630000D03*
X158314000Y-74430000D03*
X157414000Y-74430000D03*
X157414000Y-81630000D03*
%TD*%
D11*
%TO.C,B5*%
X169304000Y-74550000D03*
%TD*%
%TO.C,B12*%
X174034000Y-94900000D03*
%TD*%
D27*
%TO.C,R1*%
X165844000Y-76325000D03*
X165844000Y-78150000D03*
%TD*%
D11*
%TO.C,A7*%
X161809000Y-96270000D03*
%TD*%
%TO.C,TP1*%
X175184000Y-76460000D03*
%TD*%
D20*
%TO.C,FB2*%
X175134000Y-79562500D03*
X175134000Y-81562500D03*
%TD*%
D28*
%TO.C,U1*%
X162971500Y-84087500D03*
X162971500Y-84587500D03*
X162971500Y-85087500D03*
X162971500Y-85587500D03*
X162971500Y-86087500D03*
X162971500Y-86587500D03*
X162971500Y-87087500D03*
X162971500Y-87587500D03*
X162971500Y-88087500D03*
X162971500Y-88587500D03*
X162971500Y-89087500D03*
X162971500Y-89587500D03*
D29*
X164384000Y-91000000D03*
X164884000Y-91000000D03*
X165384000Y-91000000D03*
X165884000Y-91000000D03*
X166384000Y-91000000D03*
X166884000Y-91000000D03*
X167384000Y-91000000D03*
X167884000Y-91000000D03*
X168384000Y-91000000D03*
X168884000Y-91000000D03*
X169384000Y-91000000D03*
X169884000Y-91000000D03*
D28*
X171296500Y-89587500D03*
X171296500Y-89087500D03*
X171296500Y-88587500D03*
X171296500Y-88087500D03*
X171296500Y-87587500D03*
X171296500Y-87087500D03*
X171296500Y-86587500D03*
X171296500Y-86087500D03*
X171296500Y-85587500D03*
X171296500Y-85087500D03*
X171296500Y-84587500D03*
X171296500Y-84087500D03*
D29*
X169884000Y-82675000D03*
X169384000Y-82675000D03*
X168884000Y-82675000D03*
X168384000Y-82675000D03*
X167884000Y-82675000D03*
X167384000Y-82675000D03*
X166884000Y-82675000D03*
X166384000Y-82675000D03*
X165884000Y-82675000D03*
X165384000Y-82675000D03*
X164884000Y-82675000D03*
X164384000Y-82675000D03*
%TD*%
D11*
%TO.C,A3*%
X154249000Y-96350000D03*
%TD*%
%TO.C,A0*%
X159814000Y-89140000D03*
%TD*%
D30*
%TO.C,R4*%
X160094000Y-81535000D03*
X160094000Y-79710000D03*
%TD*%
D11*
%TO.C,A8*%
X177809000Y-92050000D03*
%TD*%
%TO.C,B4*%
X171054000Y-74525000D03*
%TD*%
D31*
%TO.C,D1*%
X161924000Y-78320000D03*
X160174000Y-78320000D03*
%TD*%
D11*
%TO.C,B3*%
X172779000Y-74550000D03*
%TD*%
%TO.C,B14*%
X177559000Y-94875000D03*
%TD*%
%TO.C,TP10*%
X181509000Y-83175000D03*
%TD*%
%TO.C,A15*%
X174554000Y-74550000D03*
%TD*%
%TO.C,A1*%
X159784000Y-90810000D03*
%TD*%
%TO.C,B15*%
X179309000Y-94875000D03*
%TD*%
%TO.C,B0*%
X163584000Y-96270000D03*
%TD*%
%TO.C,A14*%
X170509000Y-80700000D03*
%TD*%
M02*
