%TF.GenerationSoftware,KiCad,Pcbnew,7.0.6*%
%TF.CreationDate,2024-08-02T03:26:17+05:00*%
%TF.ProjectId,Stm32Board,53746d33-3242-46f6-9172-642e6b696361,rev?*%
%TF.SameCoordinates,Original*%
%TF.FileFunction,Copper,L1,Top*%
%TF.FilePolarity,Positive*%
%FSLAX46Y46*%
G04 Gerber Fmt 4.6, Leading zero omitted, Abs format (unit mm)*
G04 Created by KiCad (PCBNEW 7.0.6) date 2024-08-02 03:26:17*
%MOMM*%
%LPD*%
G01*
G04 APERTURE LIST*
G04 Aperture macros list*
%AMRoundRect*
0 Rectangle with rounded corners*
0 $1 Rounding radius*
0 $2 $3 $4 $5 $6 $7 $8 $9 X,Y pos of 4 corners*
0 Add a 4 corners polygon primitive as box body*
4,1,4,$2,$3,$4,$5,$6,$7,$8,$9,$2,$3,0*
0 Add four circle primitives for the rounded corners*
1,1,$1+$1,$2,$3*
1,1,$1+$1,$4,$5*
1,1,$1+$1,$6,$7*
1,1,$1+$1,$8,$9*
0 Add four rect primitives between the rounded corners*
20,1,$1+$1,$2,$3,$4,$5,0*
20,1,$1+$1,$4,$5,$6,$7,0*
20,1,$1+$1,$6,$7,$8,$9,0*
20,1,$1+$1,$8,$9,$2,$3,0*%
G04 Aperture macros list end*
%TA.AperFunction,SMDPad,CuDef*%
%ADD10C,1.500000*%
%TD*%
%TA.AperFunction,SMDPad,CuDef*%
%ADD11C,1.000000*%
%TD*%
%TA.AperFunction,SMDPad,CuDef*%
%ADD12RoundRect,0.237500X0.237500X-0.300000X0.237500X0.300000X-0.237500X0.300000X-0.237500X-0.300000X0*%
%TD*%
%TA.AperFunction,SMDPad,CuDef*%
%ADD13R,1.700000X0.900000*%
%TD*%
%TA.AperFunction,SMDPad,CuDef*%
%ADD14RoundRect,0.237500X0.300000X0.237500X-0.300000X0.237500X-0.300000X-0.237500X0.300000X-0.237500X0*%
%TD*%
%TA.AperFunction,SMDPad,CuDef*%
%ADD15RoundRect,0.237500X-0.237500X0.300000X-0.237500X-0.300000X0.237500X-0.300000X0.237500X0.300000X0*%
%TD*%
%TA.AperFunction,SMDPad,CuDef*%
%ADD16R,1.200000X1.400000*%
%TD*%
%TA.AperFunction,SMDPad,CuDef*%
%ADD17RoundRect,0.237500X-0.300000X-0.237500X0.300000X-0.237500X0.300000X0.237500X-0.300000X0.237500X0*%
%TD*%
%TA.AperFunction,SMDPad,CuDef*%
%ADD18RoundRect,0.150000X-0.150000X0.512500X-0.150000X-0.512500X0.150000X-0.512500X0.150000X0.512500X0*%
%TD*%
%TA.AperFunction,SMDPad,CuDef*%
%ADD19RoundRect,0.237500X-0.250000X-0.237500X0.250000X-0.237500X0.250000X0.237500X-0.250000X0.237500X0*%
%TD*%
%TA.AperFunction,SMDPad,CuDef*%
%ADD20RoundRect,0.250000X-0.450000X0.350000X-0.450000X-0.350000X0.450000X-0.350000X0.450000X0.350000X0*%
%TD*%
%TA.AperFunction,SMDPad,CuDef*%
%ADD21R,1.380000X0.450000*%
%TD*%
%TA.AperFunction,SMDPad,CuDef*%
%ADD22R,1.300000X1.650000*%
%TD*%
%TA.AperFunction,SMDPad,CuDef*%
%ADD23R,1.550000X1.425000*%
%TD*%
%TA.AperFunction,SMDPad,CuDef*%
%ADD24R,1.900000X1.800000*%
%TD*%
%TA.AperFunction,SMDPad,CuDef*%
%ADD25R,1.900000X1.000000*%
%TD*%
%TA.AperFunction,SMDPad,CuDef*%
%ADD26R,0.600000X2.100000*%
%TD*%
%TA.AperFunction,SMDPad,CuDef*%
%ADD27RoundRect,0.237500X-0.237500X0.250000X-0.237500X-0.250000X0.237500X-0.250000X0.237500X0.250000X0*%
%TD*%
%TA.AperFunction,SMDPad,CuDef*%
%ADD28RoundRect,0.075000X-0.662500X-0.075000X0.662500X-0.075000X0.662500X0.075000X-0.662500X0.075000X0*%
%TD*%
%TA.AperFunction,SMDPad,CuDef*%
%ADD29RoundRect,0.075000X-0.075000X-0.662500X0.075000X-0.662500X0.075000X0.662500X-0.075000X0.662500X0*%
%TD*%
%TA.AperFunction,SMDPad,CuDef*%
%ADD30RoundRect,0.237500X0.237500X-0.250000X0.237500X0.250000X-0.237500X0.250000X-0.237500X-0.250000X0*%
%TD*%
%TA.AperFunction,SMDPad,CuDef*%
%ADD31RoundRect,0.237500X0.287500X0.237500X-0.287500X0.237500X-0.287500X-0.237500X0.287500X-0.237500X0*%
%TD*%
%TA.AperFunction,Conductor*%
%ADD32C,0.250000*%
%TD*%
%TA.AperFunction,Conductor*%
%ADD33C,0.400000*%
%TD*%
%TA.AperFunction,Conductor*%
%ADD34C,0.500000*%
%TD*%
%TA.AperFunction,Conductor*%
%ADD35C,0.350000*%
%TD*%
G04 APERTURE END LIST*
D10*
%TO.P,3.3v CPU,1,1*%
%TO.N,+3.3V*%
X180709000Y-85500000D03*
%TD*%
D11*
%TO.P,ADC_VCC0,1,1*%
%TO.N,Net-(U1-VDDA)*%
X155764000Y-91720000D03*
%TD*%
%TO.P,A9,1,1*%
%TO.N,Net-(U1-PA9)*%
X177859000Y-90275000D03*
%TD*%
%TO.P,A5,1,1*%
%TO.N,Net-(U1-PA5)*%
X158039000Y-95850000D03*
%TD*%
D12*
%TO.P,C1,1*%
%TO.N,Net-(U1-PC15)*%
X156139000Y-76105000D03*
%TO.P,C1,2*%
%TO.N,GND*%
X156139000Y-74380000D03*
%TD*%
D11*
%TO.P,B11,1,1*%
%TO.N,Net-(U1-PB11)*%
X170759000Y-95790000D03*
%TD*%
%TO.P,A13,1,1*%
%TO.N,Net-(U1-PA13)*%
X172609000Y-79525000D03*
%TD*%
%TO.P,A10,1,1*%
%TO.N,Net-(U1-PA10)*%
X177864000Y-88560000D03*
%TD*%
%TO.P,TP2,1,1*%
%TO.N,Net-(U1-PC13)*%
X159664000Y-83230000D03*
%TD*%
D13*
%TO.P,SW1,1,1*%
%TO.N,Net-(U1-NRST)*%
X155024000Y-86760000D03*
%TO.P,SW1,2,2*%
%TO.N,GND*%
X155024000Y-90160000D03*
%TD*%
D14*
%TO.P,C4,1*%
%TO.N,GND*%
X156024000Y-77712000D03*
%TO.P,C4,2*%
%TO.N,Net-(U1-PH1)*%
X154299000Y-77712000D03*
%TD*%
D11*
%TO.P,B7,1,1*%
%TO.N,Net-(U1-PB7)*%
X165779000Y-74575000D03*
%TD*%
D15*
%TO.P,C2,1*%
%TO.N,GND*%
X159609000Y-74394000D03*
%TO.P,C2,2*%
%TO.N,Net-(U1-PC14)*%
X159609000Y-76119000D03*
%TD*%
D16*
%TO.P,Y2,1,1*%
%TO.N,Net-(U1-PH1)*%
X154274000Y-79460000D03*
%TO.P,Y2,2,2*%
%TO.N,GND*%
X154274000Y-81660000D03*
%TO.P,Y2,3,3*%
%TO.N,Net-(U1-PH0)*%
X155974000Y-81660000D03*
%TO.P,Y2,4,4*%
%TO.N,GND*%
X155974000Y-79460000D03*
%TD*%
D17*
%TO.P,C5,1*%
%TO.N,Net-(U2-CE)*%
X176509000Y-82787500D03*
%TO.P,C5,2*%
%TO.N,GND*%
X178234000Y-82787500D03*
%TD*%
D11*
%TO.P,A6,1,1*%
%TO.N,Net-(U1-PA6)*%
X160034000Y-96270000D03*
%TD*%
%TO.P,TP36,1,1*%
%TO.N,Net-(U1-VLCD)*%
X161384000Y-82900000D03*
%TD*%
D18*
%TO.P,U2,1,VIN*%
%TO.N,Net-(U2-CE)*%
X178334000Y-84512500D03*
%TO.P,U2,2,GND*%
%TO.N,GND*%
X177384000Y-84512500D03*
%TO.P,U2,3,CE*%
%TO.N,Net-(U2-CE)*%
X176434000Y-84512500D03*
%TO.P,U2,4,NC*%
%TO.N,unconnected-(U2-NC-Pad4)*%
X176434000Y-86787500D03*
%TO.P,U2,5,VOUT*%
%TO.N,+3.3V*%
X178334000Y-86787500D03*
%TD*%
D11*
%TO.P,TP9,1,1*%
%TO.N,+3.3V*%
X180759000Y-87487500D03*
%TD*%
D19*
%TO.P,R2,1*%
%TO.N,+3.3V*%
X154469000Y-85360000D03*
%TO.P,R2,2*%
%TO.N,Net-(U1-NRST)*%
X156294000Y-85360000D03*
%TD*%
D11*
%TO.P,A2,1,1*%
%TO.N,Net-(U1-PA2)*%
X159744000Y-92590000D03*
%TD*%
D12*
%TO.P,C9,1*%
%TO.N,Net-(U1-VDDA)*%
X157454000Y-88965000D03*
%TO.P,C9,2*%
%TO.N,GND*%
X157454000Y-87240000D03*
%TD*%
D11*
%TO.P,B2,1,1*%
%TO.N,Net-(U1-PB2)*%
X167134000Y-96270000D03*
%TD*%
%TO.P,B8,1,1*%
%TO.N,Net-(U1-PB8)*%
X163409000Y-74550000D03*
%TD*%
%TO.P,TP3,1,1*%
%TO.N,Net-(U1-BOOT0)*%
X165859000Y-79700000D03*
%TD*%
%TO.P,B13,1,1*%
%TO.N,Net-(U1-PB13)*%
X175809000Y-94875000D03*
%TD*%
D14*
%TO.P,C3,1*%
%TO.N,Net-(U1-PH0)*%
X156046500Y-83420000D03*
%TO.P,C3,2*%
%TO.N,GND*%
X154321500Y-83420000D03*
%TD*%
D11*
%TO.P,TP39,1,1*%
%TO.N,+3.3V*%
X162646500Y-81112500D03*
%TD*%
%TO.P,B10,1,1*%
%TO.N,Net-(U1-PB10)*%
X169034000Y-95790000D03*
%TD*%
%TO.P,B1,1,1*%
%TO.N,Net-(U1-PB1)*%
X165359000Y-96270000D03*
%TD*%
%TO.P,B9,1,1*%
%TO.N,Net-(U1-PB9)*%
X161584000Y-74550000D03*
%TD*%
D15*
%TO.P,C6,1*%
%TO.N,+3.3V*%
X171034000Y-91450000D03*
%TO.P,C6,2*%
%TO.N,GND*%
X171034000Y-93175000D03*
%TD*%
D11*
%TO.P,B6,1,1*%
%TO.N,Net-(U1-PB6)*%
X167554000Y-74550000D03*
%TD*%
D20*
%TO.P,FB1,1*%
%TO.N,Net-(U1-VDDA)*%
X157644000Y-90650000D03*
%TO.P,FB1,2*%
%TO.N,+3.3V*%
X157644000Y-92650000D03*
%TD*%
D21*
%TO.P,J1,1,VBUS*%
%TO.N,+5V*%
X177324000Y-78775000D03*
%TO.P,J1,2,D-*%
%TO.N,Net-(J1-D-)*%
X177324000Y-78125000D03*
%TO.P,J1,3,D+*%
%TO.N,Net-(J1-D+)*%
X177324000Y-77475000D03*
%TO.P,J1,4,ID*%
%TO.N,Net-(J1-ID)*%
X177324000Y-76825000D03*
%TO.P,J1,5,GND*%
%TO.N,GND*%
X177324000Y-76175000D03*
D22*
%TO.P,J1,6,Shield*%
X179984000Y-80850000D03*
D23*
X177409000Y-79962500D03*
D24*
X179984000Y-78625000D03*
D25*
X179984000Y-75925000D03*
D23*
X177409000Y-74987500D03*
D22*
X179984000Y-74100000D03*
%TD*%
D11*
%TO.P,A4,1,1*%
%TO.N,Net-(U1-PA4)*%
X156264000Y-95875000D03*
%TD*%
D26*
%TO.P,Y1,1,1*%
%TO.N,Net-(U1-PC14)*%
X158314000Y-81630000D03*
%TO.P,Y1,2,2*%
%TO.N,GND*%
X158314000Y-74430000D03*
%TO.P,Y1,3,3*%
X157414000Y-74430000D03*
%TO.P,Y1,4,4*%
%TO.N,Net-(U1-PC15)*%
X157414000Y-81630000D03*
%TD*%
D11*
%TO.P,B5,1,1*%
%TO.N,Net-(U1-PB5)*%
X169304000Y-74550000D03*
%TD*%
%TO.P,B12,1,1*%
%TO.N,Net-(U1-PB12)*%
X174034000Y-94900000D03*
%TD*%
D27*
%TO.P,R1,1*%
%TO.N,GND*%
X165844000Y-76325000D03*
%TO.P,R1,2*%
%TO.N,Net-(U1-BOOT0)*%
X165844000Y-78150000D03*
%TD*%
D11*
%TO.P,A7,1,1*%
%TO.N,Net-(U1-PA7)*%
X161809000Y-96270000D03*
%TD*%
%TO.P,TP1,1,1*%
%TO.N,Net-(J1-ID)*%
X175184000Y-76460000D03*
%TD*%
D20*
%TO.P,FB2,1*%
%TO.N,+5V*%
X175134000Y-79562500D03*
%TO.P,FB2,2*%
%TO.N,Net-(U2-CE)*%
X175134000Y-81562500D03*
%TD*%
D28*
%TO.P,U1,1,VLCD*%
%TO.N,Net-(U1-VLCD)*%
X162971500Y-84087500D03*
%TO.P,U1,2,PC13*%
%TO.N,Net-(U1-PC13)*%
X162971500Y-84587500D03*
%TO.P,U1,3,PC14*%
%TO.N,Net-(U1-PC14)*%
X162971500Y-85087500D03*
%TO.P,U1,4,PC15*%
%TO.N,Net-(U1-PC15)*%
X162971500Y-85587500D03*
%TO.P,U1,5,PH0*%
%TO.N,Net-(U1-PH0)*%
X162971500Y-86087500D03*
%TO.P,U1,6,PH1*%
%TO.N,Net-(U1-PH1)*%
X162971500Y-86587500D03*
%TO.P,U1,7,NRST*%
%TO.N,Net-(U1-NRST)*%
X162971500Y-87087500D03*
%TO.P,U1,8,VSSA*%
%TO.N,GND*%
X162971500Y-87587500D03*
%TO.P,U1,9,VDDA*%
%TO.N,Net-(U1-VDDA)*%
X162971500Y-88087500D03*
%TO.P,U1,10,PA0*%
%TO.N,Net-(U1-PA0)*%
X162971500Y-88587500D03*
%TO.P,U1,11,PA1*%
%TO.N,Net-(U1-PA1)*%
X162971500Y-89087500D03*
%TO.P,U1,12,PA2*%
%TO.N,Net-(U1-PA2)*%
X162971500Y-89587500D03*
D29*
%TO.P,U1,13,PA3*%
%TO.N,Net-(U1-PA3)*%
X164384000Y-91000000D03*
%TO.P,U1,14,PA4*%
%TO.N,Net-(U1-PA4)*%
X164884000Y-91000000D03*
%TO.P,U1,15,PA5*%
%TO.N,Net-(U1-PA5)*%
X165384000Y-91000000D03*
%TO.P,U1,16,PA6*%
%TO.N,Net-(U1-PA6)*%
X165884000Y-91000000D03*
%TO.P,U1,17,PA7*%
%TO.N,Net-(U1-PA7)*%
X166384000Y-91000000D03*
%TO.P,U1,18,PB0*%
%TO.N,Net-(U1-PB0)*%
X166884000Y-91000000D03*
%TO.P,U1,19,PB1*%
%TO.N,Net-(U1-PB1)*%
X167384000Y-91000000D03*
%TO.P,U1,20,PB2*%
%TO.N,Net-(U1-PB2)*%
X167884000Y-91000000D03*
%TO.P,U1,21,PB10*%
%TO.N,Net-(U1-PB10)*%
X168384000Y-91000000D03*
%TO.P,U1,22,PB11*%
%TO.N,Net-(U1-PB11)*%
X168884000Y-91000000D03*
%TO.P,U1,23,VSS*%
%TO.N,GND*%
X169384000Y-91000000D03*
%TO.P,U1,24,VDD*%
%TO.N,+3.3V*%
X169884000Y-91000000D03*
D28*
%TO.P,U1,25,PB12*%
%TO.N,Net-(U1-PB12)*%
X171296500Y-89587500D03*
%TO.P,U1,26,PB13*%
%TO.N,Net-(U1-PB13)*%
X171296500Y-89087500D03*
%TO.P,U1,27,PB14*%
%TO.N,Net-(U1-PB14)*%
X171296500Y-88587500D03*
%TO.P,U1,28,PB15*%
%TO.N,Net-(U1-PB15)*%
X171296500Y-88087500D03*
%TO.P,U1,29,PA8*%
%TO.N,Net-(U1-PA8)*%
X171296500Y-87587500D03*
%TO.P,U1,30,PA9*%
%TO.N,Net-(U1-PA9)*%
X171296500Y-87087500D03*
%TO.P,U1,31,PA10*%
%TO.N,Net-(U1-PA10)*%
X171296500Y-86587500D03*
%TO.P,U1,32,PA11*%
%TO.N,Net-(J1-D-)*%
X171296500Y-86087500D03*
%TO.P,U1,33,PA12*%
%TO.N,Net-(J1-D+)*%
X171296500Y-85587500D03*
%TO.P,U1,34,PA13*%
%TO.N,Net-(U1-PA13)*%
X171296500Y-85087500D03*
%TO.P,U1,35,VSS*%
%TO.N,GND*%
X171296500Y-84587500D03*
%TO.P,U1,36,VDD*%
%TO.N,+3.3V*%
X171296500Y-84087500D03*
D29*
%TO.P,U1,37,PA14*%
%TO.N,Net-(U1-PA14)*%
X169884000Y-82675000D03*
%TO.P,U1,38,PA15*%
%TO.N,Net-(U1-PA15)*%
X169384000Y-82675000D03*
%TO.P,U1,39,PB3*%
%TO.N,Net-(U1-PB3)*%
X168884000Y-82675000D03*
%TO.P,U1,40,PB4*%
%TO.N,Net-(U1-PB4)*%
X168384000Y-82675000D03*
%TO.P,U1,41,PB5*%
%TO.N,Net-(U1-PB5)*%
X167884000Y-82675000D03*
%TO.P,U1,42,PB6*%
%TO.N,Net-(U1-PB6)*%
X167384000Y-82675000D03*
%TO.P,U1,43,PB7*%
%TO.N,Net-(U1-PB7)*%
X166884000Y-82675000D03*
%TO.P,U1,44,BOOT0*%
%TO.N,Net-(U1-BOOT0)*%
X166384000Y-82675000D03*
%TO.P,U1,45,PB8*%
%TO.N,Net-(U1-PB8)*%
X165884000Y-82675000D03*
%TO.P,U1,46,PB9*%
%TO.N,Net-(U1-PB9)*%
X165384000Y-82675000D03*
%TO.P,U1,47,VSS*%
%TO.N,GND*%
X164884000Y-82675000D03*
%TO.P,U1,48,VDD*%
%TO.N,+3.3V*%
X164384000Y-82675000D03*
%TD*%
D11*
%TO.P,A3,1,1*%
%TO.N,Net-(U1-PA3)*%
X154249000Y-96350000D03*
%TD*%
%TO.P,A0,1,1*%
%TO.N,Net-(U1-PA0)*%
X159814000Y-89140000D03*
%TD*%
D30*
%TO.P,R4,1*%
%TO.N,Net-(U1-PC13)*%
X160094000Y-81535000D03*
%TO.P,R4,2*%
%TO.N,Net-(D1-A)*%
X160094000Y-79710000D03*
%TD*%
D11*
%TO.P,A8,1,1*%
%TO.N,Net-(U1-PA8)*%
X177809000Y-92050000D03*
%TD*%
%TO.P,B4,1,1*%
%TO.N,Net-(U1-PB4)*%
X171054000Y-74525000D03*
%TD*%
D31*
%TO.P,D1,1,K*%
%TO.N,+3.3V*%
X161924000Y-78320000D03*
%TO.P,D1,2,A*%
%TO.N,Net-(D1-A)*%
X160174000Y-78320000D03*
%TD*%
D11*
%TO.P,B3,1,1*%
%TO.N,Net-(U1-PB3)*%
X172779000Y-74550000D03*
%TD*%
%TO.P,B14,1,1*%
%TO.N,Net-(U1-PB14)*%
X177559000Y-94875000D03*
%TD*%
%TO.P,TP10,1,1*%
%TO.N,GND*%
X181509000Y-83175000D03*
%TD*%
%TO.P,A15,1,1*%
%TO.N,Net-(U1-PA15)*%
X174554000Y-74550000D03*
%TD*%
%TO.P,A1,1,1*%
%TO.N,Net-(U1-PA1)*%
X159784000Y-90810000D03*
%TD*%
%TO.P,B15,1,1*%
%TO.N,Net-(U1-PB15)*%
X179309000Y-94875000D03*
%TD*%
%TO.P,B0,1,1*%
%TO.N,Net-(U1-PB0)*%
X163584000Y-96270000D03*
%TD*%
%TO.P,A14,1,1*%
%TO.N,Net-(U1-PA14)*%
X170509000Y-80700000D03*
%TD*%
D32*
%TO.N,GND*%
X163774685Y-87587500D02*
X162971500Y-87587500D01*
X164034000Y-87328185D02*
X163774685Y-87587500D01*
X161054000Y-80840000D02*
X164034000Y-83820000D01*
X164034000Y-83820000D02*
X164034000Y-87328185D01*
X161054000Y-76415000D02*
X161054000Y-80840000D01*
X163054000Y-77660000D02*
X161809000Y-76415000D01*
X161809000Y-76415000D02*
X161054000Y-76415000D01*
X163054000Y-79869000D02*
X163054000Y-77660000D01*
X164884000Y-81699000D02*
X163054000Y-79869000D01*
X164884000Y-82675000D02*
X164884000Y-81699000D01*
%TO.N,Net-(U1-NRST)*%
X155956000Y-85698000D02*
X156294000Y-85360000D01*
X155956000Y-86106000D02*
X155956000Y-85698000D01*
X155302000Y-86760000D02*
X155956000Y-86106000D01*
X155024000Y-86760000D02*
X155302000Y-86760000D01*
%TO.N,Net-(U1-PH0)*%
X160044812Y-85520000D02*
X160612312Y-86087500D01*
X155994000Y-83367500D02*
X156046500Y-83420000D01*
X160612312Y-86087500D02*
X162971500Y-86087500D01*
X155994000Y-82030000D02*
X155994000Y-83367500D01*
X157031208Y-83420000D02*
X159131208Y-85520000D01*
X159131208Y-85520000D02*
X160044812Y-85520000D01*
X156046500Y-83420000D02*
X157031208Y-83420000D01*
%TO.N,GND*%
X155994000Y-80080000D02*
X154294000Y-81780000D01*
X159609000Y-74394000D02*
X156184000Y-74394000D01*
X172359000Y-81200000D02*
X171434000Y-80275000D01*
X171434000Y-78780000D02*
X175351500Y-74862500D01*
X171296500Y-84587500D02*
X172099685Y-84587500D01*
X171434000Y-80275000D02*
X171434000Y-78780000D01*
X177384000Y-83637500D02*
X177384000Y-84512500D01*
X154294000Y-82030000D02*
X154294000Y-83392500D01*
X175351500Y-74862500D02*
X177284000Y-74862500D01*
X154294000Y-83392500D02*
X154321500Y-83420000D01*
X172359000Y-84328185D02*
X172359000Y-81200000D01*
X177284000Y-74862500D02*
X177409000Y-74987500D01*
X156199000Y-77712000D02*
X156199000Y-79625000D01*
X178234000Y-82787500D02*
X177384000Y-83637500D01*
X172099685Y-84587500D02*
X172359000Y-84328185D01*
%TO.N,Net-(U1-PH1)*%
X153739000Y-80635000D02*
X153349000Y-80635000D01*
X159858416Y-85970000D02*
X160475916Y-86587500D01*
X153788505Y-84220000D02*
X157194812Y-84220000D01*
X153349000Y-83780495D02*
X153788505Y-84220000D01*
X157194812Y-84220000D02*
X158944812Y-85970000D01*
X154294000Y-80080000D02*
X153739000Y-80635000D01*
X160475916Y-86587500D02*
X162971500Y-86587500D01*
X158944812Y-85970000D02*
X159858416Y-85970000D01*
X153349000Y-80635000D02*
X153349000Y-83780495D01*
X154124000Y-77712000D02*
X154124000Y-79660000D01*
%TO.N,Net-(U1-PC14)*%
X159504000Y-84620000D02*
X160417604Y-84620000D01*
X158314000Y-83430000D02*
X159504000Y-84620000D01*
X160417604Y-84620000D02*
X160885104Y-85087500D01*
X158314000Y-81630000D02*
X158314000Y-83430000D01*
X158314000Y-77414000D02*
X158314000Y-81630000D01*
X160885104Y-85087500D02*
X162971500Y-85087500D01*
X159609000Y-76119000D02*
X158314000Y-77414000D01*
%TO.N,Net-(U1-PC15)*%
X157414000Y-77449000D02*
X157414000Y-81630000D01*
X160748708Y-85587500D02*
X162971500Y-85587500D01*
X160231208Y-85070000D02*
X160748708Y-85587500D01*
X159317604Y-85070000D02*
X160231208Y-85070000D01*
X157414000Y-83166396D02*
X159317604Y-85070000D01*
X156134000Y-76169000D02*
X157414000Y-77449000D01*
X157414000Y-81630000D02*
X157414000Y-83166396D01*
%TO.N,Net-(U2-CE)*%
X176509000Y-82787500D02*
X175559000Y-82787500D01*
X176434000Y-82862500D02*
X176509000Y-82787500D01*
X176434000Y-84512500D02*
X176434000Y-82862500D01*
X178084000Y-85662500D02*
X176709000Y-85662500D01*
X178334000Y-85412500D02*
X178084000Y-85662500D01*
X175134000Y-82362500D02*
X175134000Y-81562500D01*
X175559000Y-82787500D02*
X175134000Y-82362500D01*
X178334000Y-84512500D02*
X178334000Y-85412500D01*
X176709000Y-85662500D02*
X176434000Y-85387500D01*
X176434000Y-85387500D02*
X176434000Y-84512500D01*
%TO.N,+3.3V*%
X153324000Y-90600000D02*
X153324000Y-85740000D01*
X169884000Y-91000000D02*
X169884000Y-89860000D01*
X179421500Y-86787500D02*
X180709000Y-85500000D01*
X153704000Y-85360000D02*
X154469000Y-85360000D01*
X161924000Y-78320000D02*
X161924000Y-80390000D01*
X153324000Y-85740000D02*
X153704000Y-85360000D01*
D33*
X169884000Y-84330000D02*
X169884000Y-89860000D01*
D32*
X161924000Y-80390000D02*
X162646500Y-81112500D01*
D34*
X171709000Y-91450000D02*
X171034000Y-91450000D01*
D33*
X169884000Y-89860000D02*
X169654000Y-89630000D01*
D34*
X180759000Y-87487500D02*
X180774000Y-87502500D01*
D35*
X161634000Y-92300000D02*
X163794000Y-90140000D01*
D34*
X172944000Y-96190000D02*
X172724000Y-95970000D01*
D32*
X178334000Y-86787500D02*
X179421500Y-86787500D01*
D34*
X172724000Y-92465000D02*
X171709000Y-91450000D01*
D32*
X171296500Y-84087500D02*
X169641500Y-84087500D01*
D33*
X164993315Y-84087500D02*
X169641500Y-84087500D01*
D32*
X164384000Y-82675000D02*
X164209000Y-82675000D01*
D34*
X172724000Y-95970000D02*
X172724000Y-92465000D01*
D32*
X164384000Y-83478185D02*
X164384000Y-82675000D01*
X164304000Y-89630000D02*
X163794000Y-90140000D01*
D33*
X169654000Y-89630000D02*
X164304000Y-89630000D01*
D32*
X180709000Y-85500000D02*
X180709000Y-87437500D01*
X157644000Y-92650000D02*
X155374000Y-92650000D01*
X180709000Y-87437500D02*
X180759000Y-87487500D01*
D35*
X157644000Y-92650000D02*
X158764000Y-93770000D01*
D32*
X169884000Y-91000000D02*
X170584000Y-91000000D01*
X155374000Y-92650000D02*
X153324000Y-90600000D01*
D35*
X161630498Y-92300000D02*
X161634000Y-92300000D01*
D33*
X169641500Y-84087500D02*
X169884000Y-84330000D01*
D34*
X180774000Y-87502500D02*
X180774000Y-96185000D01*
X180769000Y-96190000D02*
X172944000Y-96190000D01*
D35*
X158764000Y-93770000D02*
X160160498Y-93770000D01*
D32*
X164993315Y-84087500D02*
X164384000Y-83478185D01*
D35*
X160160498Y-93770000D02*
X161630498Y-92300000D01*
D34*
X180774000Y-96185000D02*
X180769000Y-96190000D01*
D32*
X164209000Y-82675000D02*
X162646500Y-81112500D01*
X170584000Y-91000000D02*
X171034000Y-91450000D01*
%TO.N,+5V*%
X177324000Y-78775000D02*
X175921500Y-78775000D01*
X175921500Y-78775000D02*
X175134000Y-79562500D01*
%TO.N,Net-(U1-VDDA)*%
X157454000Y-90460000D02*
X157644000Y-90650000D01*
X156834000Y-90650000D02*
X155764000Y-91720000D01*
X158721500Y-88087500D02*
X162971500Y-88087500D01*
X157844000Y-88965000D02*
X158721500Y-88087500D01*
X157454000Y-88965000D02*
X157454000Y-90460000D01*
X157454000Y-88965000D02*
X157844000Y-88965000D01*
X157644000Y-90650000D02*
X156834000Y-90650000D01*
%TO.N,Net-(U1-BOOT0)*%
X166384000Y-80225000D02*
X165859000Y-79700000D01*
X165859000Y-78165000D02*
X165844000Y-78150000D01*
X166384000Y-82675000D02*
X166384000Y-80225000D01*
X165859000Y-79700000D02*
X165859000Y-78165000D01*
%TO.N,Net-(U1-NRST)*%
X158758416Y-86420000D02*
X157698416Y-85360000D01*
X157698416Y-85360000D02*
X156294000Y-85360000D01*
X160339520Y-87087500D02*
X159672020Y-86420000D01*
X162971500Y-87087500D02*
X160339520Y-87087500D01*
X159672020Y-86420000D02*
X158758416Y-86420000D01*
%TO.N,Net-(J1-ID)*%
X177324000Y-76825000D02*
X175549000Y-76825000D01*
X175549000Y-76825000D02*
X175184000Y-76460000D01*
%TO.N,Net-(U1-PC13)*%
X162971500Y-84587500D02*
X161021500Y-84587500D01*
X161021500Y-84587500D02*
X159664000Y-83230000D01*
X159664000Y-81965000D02*
X160094000Y-81535000D01*
X159664000Y-83230000D02*
X159664000Y-81965000D01*
%TO.N,Net-(U1-PB0)*%
X163584000Y-96040000D02*
X163584000Y-96270000D01*
X164574000Y-95050000D02*
X163584000Y-96040000D01*
X166884000Y-91000000D02*
X166884000Y-93552792D01*
X165386792Y-95050000D02*
X164574000Y-95050000D01*
X166884000Y-93552792D02*
X165386792Y-95050000D01*
%TO.N,Net-(U1-PB1)*%
X165359000Y-96175000D02*
X165359000Y-96270000D01*
X166034000Y-95190000D02*
X166034000Y-95500000D01*
X167384000Y-93840000D02*
X166034000Y-95190000D01*
X167384000Y-91000000D02*
X167384000Y-93840000D01*
X166034000Y-95500000D02*
X165359000Y-96175000D01*
%TO.N,Net-(U1-PB2)*%
X167884000Y-91000000D02*
X167884000Y-94080000D01*
X167134000Y-94830000D02*
X167134000Y-96270000D01*
X167884000Y-94080000D02*
X167134000Y-94830000D01*
%TO.N,Net-(U1-PB3)*%
X172779000Y-75435000D02*
X172779000Y-74550000D01*
X168884000Y-82675000D02*
X168884000Y-79330000D01*
X168884000Y-79330000D02*
X172779000Y-75435000D01*
%TO.N,Net-(U1-PB4)*%
X168384000Y-82675000D02*
X168384000Y-79190000D01*
X171174000Y-76400000D02*
X171174000Y-74215000D01*
X168384000Y-79190000D02*
X171174000Y-76400000D01*
%TO.N,Net-(U1-PB5)*%
X169304000Y-77590000D02*
X169304000Y-74550000D01*
X167884000Y-82675000D02*
X167884000Y-79010000D01*
X167884000Y-79010000D02*
X169304000Y-77590000D01*
%TO.N,Net-(U1-PB6)*%
X167554000Y-74550000D02*
X167554000Y-74360000D01*
X167574000Y-78683604D02*
X167574000Y-74570000D01*
X167554000Y-74360000D02*
X167674000Y-74240000D01*
X167574000Y-74570000D02*
X167554000Y-74550000D01*
X167384000Y-82675000D02*
X167384000Y-78873604D01*
X167384000Y-78873604D02*
X167574000Y-78683604D01*
%TO.N,Net-(U1-PB7)*%
X165779000Y-74575000D02*
X166884000Y-75680000D01*
X165899000Y-74265000D02*
X165779000Y-74385000D01*
X166884000Y-75680000D02*
X166884000Y-82675000D01*
X165779000Y-74385000D02*
X165779000Y-74575000D01*
%TO.N,Net-(U1-PB8)*%
X165884000Y-81157995D02*
X164014000Y-79287995D01*
X165884000Y-82675000D02*
X165884000Y-81157995D01*
X164014000Y-75155000D02*
X163409000Y-74550000D01*
X164014000Y-79287995D02*
X164014000Y-75155000D01*
%TO.N,Net-(U1-PB9)*%
X165384000Y-81294391D02*
X163564000Y-79474391D01*
X163564000Y-79474391D02*
X163564000Y-76530000D01*
X163564000Y-76530000D02*
X161584000Y-74550000D01*
X165384000Y-82675000D02*
X165384000Y-81294391D01*
%TO.N,Net-(U1-PB10)*%
X168384000Y-95140000D02*
X169034000Y-95790000D01*
X168384000Y-91000000D02*
X168384000Y-95140000D01*
%TO.N,Net-(U1-PB11)*%
X168884000Y-93915000D02*
X170759000Y-95790000D01*
X168884000Y-91000000D02*
X168884000Y-93915000D01*
%TO.N,Net-(U1-PB12)*%
X174034000Y-91250000D02*
X174034000Y-94900000D01*
X172371500Y-89587500D02*
X174034000Y-91250000D01*
X171296500Y-89587500D02*
X172371500Y-89587500D01*
%TO.N,Net-(U1-PB13)*%
X172698093Y-89087500D02*
X175084000Y-91473407D01*
X175084000Y-91473407D02*
X175084000Y-94150000D01*
X171296500Y-89087500D02*
X172698093Y-89087500D01*
X175084000Y-94150000D02*
X175809000Y-94875000D01*
%TO.N,Net-(U1-PB14)*%
X171296500Y-88587500D02*
X173073708Y-88587500D01*
X175634000Y-92825000D02*
X177559000Y-94750000D01*
X173073708Y-88587500D02*
X175634000Y-91147792D01*
X177559000Y-94750000D02*
X177559000Y-94875000D01*
X175634000Y-91147792D02*
X175634000Y-92825000D01*
%TO.N,Net-(U1-PB15)*%
X173210104Y-88087500D02*
X176334000Y-91211396D01*
X171296500Y-88087500D02*
X173210104Y-88087500D01*
X176334000Y-91211396D02*
X176334000Y-92200000D01*
X179009000Y-94875000D02*
X179309000Y-94875000D01*
X176334000Y-92200000D02*
X179009000Y-94875000D01*
%TO.N,Net-(U1-PA15)*%
X169384000Y-79530000D02*
X174364000Y-74550000D01*
X169384000Y-82675000D02*
X169384000Y-79530000D01*
X174364000Y-74550000D02*
X174554000Y-74550000D01*
%TO.N,Net-(U1-PA14)*%
X169884000Y-81325000D02*
X170509000Y-80700000D01*
X169884000Y-82675000D02*
X169884000Y-81325000D01*
%TO.N,Net-(U1-PA13)*%
X172923708Y-85087500D02*
X173109000Y-84902208D01*
X171296500Y-85087500D02*
X172923708Y-85087500D01*
X173109000Y-80025000D02*
X172609000Y-79525000D01*
X173109000Y-84902208D02*
X173109000Y-80025000D01*
X171296500Y-85087500D02*
X171309000Y-85100000D01*
%TO.N,Net-(U1-PA10)*%
X171296500Y-86587500D02*
X174071500Y-86587500D01*
X174071500Y-86587500D02*
X176044000Y-88560000D01*
X176044000Y-88560000D02*
X177864000Y-88560000D01*
%TO.N,Net-(U1-PA9)*%
X173935104Y-87087500D02*
X177122604Y-90275000D01*
X171296500Y-87087500D02*
X173935104Y-87087500D01*
X177122604Y-90275000D02*
X177859000Y-90275000D01*
%TO.N,Net-(U1-PA8)*%
X173346500Y-87587500D02*
X177809000Y-92050000D01*
X171296500Y-87587500D02*
X173346500Y-87587500D01*
%TO.N,Net-(U1-PA7)*%
X162144000Y-96270000D02*
X161809000Y-96270000D01*
X166384000Y-93416396D02*
X165200396Y-94600000D01*
X166384000Y-91000000D02*
X166384000Y-93416396D01*
X163814000Y-94600000D02*
X162144000Y-96270000D01*
X165200396Y-94600000D02*
X163814000Y-94600000D01*
%TO.N,Net-(U1-PA6)*%
X162332604Y-95445000D02*
X161135396Y-95445000D01*
X165884000Y-91000000D02*
X165884000Y-93280000D01*
X160860396Y-95720000D02*
X160584000Y-95720000D01*
X165014000Y-94150000D02*
X163627604Y-94150000D01*
X160584000Y-95720000D02*
X160034000Y-96270000D01*
X165884000Y-93280000D02*
X165014000Y-94150000D01*
X163627604Y-94150000D02*
X162332604Y-95445000D01*
X161135396Y-95445000D02*
X160860396Y-95720000D01*
%TO.N,Net-(U1-PA5)*%
X162146208Y-94995000D02*
X160915396Y-94995000D01*
X158664000Y-95270000D02*
X158039000Y-95895000D01*
X160640396Y-95270000D02*
X158664000Y-95270000D01*
X165384000Y-93125000D02*
X164809000Y-93700000D01*
X160915396Y-94995000D02*
X160640396Y-95270000D01*
X163441208Y-93700000D02*
X162146208Y-94995000D01*
X165384000Y-91000000D02*
X165384000Y-93125000D01*
X164809000Y-93700000D02*
X163441208Y-93700000D01*
%TO.N,Net-(U1-PA4)*%
X157319000Y-94820000D02*
X156264000Y-95875000D01*
X164884000Y-91000000D02*
X164909000Y-91025000D01*
X164909000Y-91025000D02*
X164909000Y-92700000D01*
X160454000Y-94820000D02*
X157319000Y-94820000D01*
X164909000Y-92700000D02*
X164359000Y-93250000D01*
X160729000Y-94545000D02*
X160454000Y-94820000D01*
X163254812Y-93250000D02*
X161959812Y-94545000D01*
X164359000Y-93250000D02*
X163254812Y-93250000D01*
X161959812Y-94545000D02*
X160729000Y-94545000D01*
%TO.N,Net-(U1-PA3)*%
X161773416Y-94095000D02*
X160542604Y-94095000D01*
X164384000Y-91000000D02*
X164384000Y-92375000D01*
X156229000Y-94370000D02*
X154249000Y-96350000D01*
X160542604Y-94095000D02*
X160267604Y-94370000D01*
X160267604Y-94370000D02*
X156229000Y-94370000D01*
X164384000Y-92375000D02*
X163959000Y-92800000D01*
X163068416Y-92800000D02*
X161773416Y-94095000D01*
X163959000Y-92800000D02*
X163068416Y-92800000D01*
%TO.N,Net-(U1-PA2)*%
X159744000Y-92180000D02*
X159744000Y-92590000D01*
X162971500Y-89587500D02*
X162336500Y-89587500D01*
X162336500Y-89587500D02*
X159744000Y-92180000D01*
%TO.N,Net-(U1-PA1)*%
X161506500Y-89087500D02*
X159784000Y-90810000D01*
X162971500Y-89087500D02*
X161506500Y-89087500D01*
%TO.N,Net-(U1-PA0)*%
X162971500Y-88587500D02*
X160366500Y-88587500D01*
X160366500Y-88587500D02*
X159814000Y-89140000D01*
%TO.N,Net-(U1-VLCD)*%
X162971500Y-84087500D02*
X161784000Y-82900000D01*
X161784000Y-82900000D02*
X161384000Y-82900000D01*
%TO.N,Net-(J1-D-)*%
X174009000Y-85275000D02*
X173196500Y-86087500D01*
X173196500Y-86087500D02*
X171296500Y-86087500D01*
X177324000Y-78125000D02*
X174659000Y-78125000D01*
X174009000Y-78775000D02*
X174009000Y-85275000D01*
X174659000Y-78125000D02*
X174009000Y-78775000D01*
%TO.N,Net-(J1-D+)*%
X173559000Y-85088604D02*
X173060104Y-85587500D01*
X177324000Y-77475000D02*
X174672604Y-77475000D01*
X173060104Y-85587500D02*
X171296500Y-85587500D01*
X173559000Y-78588604D02*
X173559000Y-85088604D01*
X174672604Y-77475000D02*
X173559000Y-78588604D01*
%TO.N,Net-(D1-A)*%
X160094000Y-78400000D02*
X160174000Y-78320000D01*
X160094000Y-79710000D02*
X160094000Y-78400000D01*
%TD*%
%TA.AperFunction,Conductor*%
%TO.N,GND*%
G36*
X154509648Y-81424352D02*
G01*
X154524000Y-81459000D01*
X154524000Y-82405000D01*
X154525060Y-82406060D01*
X154557148Y-82419352D01*
X154571500Y-82454000D01*
X154571500Y-83621000D01*
X154557148Y-83655648D01*
X154522500Y-83670000D01*
X154120500Y-83670000D01*
X154085852Y-83655648D01*
X154071500Y-83621000D01*
X154071500Y-82900000D01*
X154070439Y-82898939D01*
X154038352Y-82885648D01*
X154024000Y-82851000D01*
X154024000Y-81459000D01*
X154038352Y-81424352D01*
X154073000Y-81410000D01*
X154475000Y-81410000D01*
X154509648Y-81424352D01*
G37*
%TD.AperFunction*%
%TA.AperFunction,Conductor*%
G36*
X156259648Y-77476352D02*
G01*
X156274000Y-77511000D01*
X156274000Y-78678000D01*
X156259648Y-78712648D01*
X156225000Y-78727000D01*
X156224000Y-78727000D01*
X156224000Y-79661000D01*
X156209648Y-79695648D01*
X156175000Y-79710000D01*
X155773000Y-79710000D01*
X155738352Y-79695648D01*
X155724000Y-79661000D01*
X155724000Y-78269000D01*
X155738352Y-78234352D01*
X155773000Y-78220000D01*
X155774000Y-78220000D01*
X155774000Y-77511000D01*
X155788352Y-77476352D01*
X155823000Y-77462000D01*
X156225000Y-77462000D01*
X156259648Y-77476352D01*
G37*
%TD.AperFunction*%
%TA.AperFunction,Conductor*%
G36*
X156824751Y-72861762D02*
G01*
X156859390Y-72876131D01*
X156873724Y-72910786D01*
X156859354Y-72945427D01*
X156854089Y-72949987D01*
X156756811Y-73022811D01*
X156670648Y-73137908D01*
X156620401Y-73272626D01*
X156620401Y-73272627D01*
X156615342Y-73319682D01*
X156597369Y-73352598D01*
X156561385Y-73363163D01*
X156551211Y-73360957D01*
X156526650Y-73352819D01*
X156425649Y-73342500D01*
X156389000Y-73342500D01*
X156389000Y-74130000D01*
X157105000Y-74130000D01*
X157139648Y-74144352D01*
X157154000Y-74179000D01*
X157154000Y-74180000D01*
X158594000Y-74180000D01*
X158603192Y-74170807D01*
X158608352Y-74158352D01*
X158643000Y-74144000D01*
X159359000Y-74144000D01*
X159359000Y-73356500D01*
X159859000Y-73356500D01*
X159859000Y-74144000D01*
X160583999Y-74144000D01*
X160583999Y-74044851D01*
X160573681Y-73943851D01*
X160519452Y-73780196D01*
X160428943Y-73633460D01*
X160307039Y-73511556D01*
X160160303Y-73421047D01*
X159996648Y-73366818D01*
X159895649Y-73356500D01*
X159859000Y-73356500D01*
X159359000Y-73356500D01*
X159359000Y-73356499D01*
X159322352Y-73356500D01*
X159221349Y-73366819D01*
X159178412Y-73381046D01*
X159141008Y-73378321D01*
X159116487Y-73349945D01*
X159114000Y-73334533D01*
X159114000Y-73332165D01*
X159107598Y-73272627D01*
X159107598Y-73272626D01*
X159057351Y-73137908D01*
X158971188Y-73022811D01*
X158875339Y-72951057D01*
X158856203Y-72918804D01*
X158865478Y-72882466D01*
X158897731Y-72863330D01*
X158904716Y-72862831D01*
X178912399Y-72873123D01*
X178947040Y-72887493D01*
X178961374Y-72922148D01*
X178951600Y-72951488D01*
X178890648Y-73032908D01*
X178840401Y-73167626D01*
X178840401Y-73167627D01*
X178834000Y-73227165D01*
X178834000Y-73850000D01*
X181134000Y-73850000D01*
X181134000Y-73227165D01*
X181127598Y-73167627D01*
X181127598Y-73167626D01*
X181077351Y-73032908D01*
X181017225Y-72952591D01*
X181007950Y-72916253D01*
X181027086Y-72884000D01*
X181056475Y-72874226D01*
X181682141Y-72874547D01*
X182510025Y-72874974D01*
X182544666Y-72889344D01*
X182559000Y-72923974D01*
X182559000Y-82861161D01*
X182544648Y-82895809D01*
X182510000Y-82910161D01*
X182475352Y-82895809D01*
X182463110Y-82875385D01*
X182437350Y-82790468D01*
X182437345Y-82790456D01*
X182371077Y-82666476D01*
X182371076Y-82666475D01*
X181862553Y-83174999D01*
X181862553Y-83175000D01*
X182371076Y-83683523D01*
X182371077Y-83683522D01*
X182437345Y-83559543D01*
X182437350Y-83559531D01*
X182463110Y-83474614D01*
X182486902Y-83445624D01*
X182524224Y-83441948D01*
X182553214Y-83465740D01*
X182559000Y-83488838D01*
X182559000Y-97939500D01*
X182544648Y-97974148D01*
X182510000Y-97988500D01*
X152270500Y-97988500D01*
X152235852Y-97974148D01*
X152221500Y-97939500D01*
X152221500Y-90584268D01*
X152943633Y-90584268D01*
X152947385Y-90614371D01*
X152948312Y-90621804D01*
X152948500Y-90624837D01*
X152948500Y-90631114D01*
X152951735Y-90650500D01*
X152952342Y-90654140D01*
X152959133Y-90708625D01*
X152959491Y-90709357D01*
X152963800Y-90722803D01*
X152963935Y-90723610D01*
X152969638Y-90734148D01*
X152990055Y-90771878D01*
X153014171Y-90821207D01*
X153014175Y-90821212D01*
X153014748Y-90821785D01*
X153023191Y-90833106D01*
X153023581Y-90833826D01*
X153063970Y-90871007D01*
X154584157Y-92391195D01*
X155077350Y-92884388D01*
X155083722Y-92892235D01*
X155093911Y-92907829D01*
X155093916Y-92907836D01*
X155123764Y-92931067D01*
X155126040Y-92933078D01*
X155130482Y-92937520D01*
X155149495Y-92951094D01*
X155192811Y-92984809D01*
X155193572Y-92985070D01*
X155206144Y-92991541D01*
X155206801Y-92992010D01*
X155259403Y-93007670D01*
X155311340Y-93025500D01*
X155312156Y-93025500D01*
X155326136Y-93027537D01*
X155326912Y-93027768D01*
X155381756Y-93025500D01*
X155935000Y-93025500D01*
X155969648Y-93039852D01*
X155984000Y-93074500D01*
X155984000Y-94020035D01*
X155970047Y-94054280D01*
X154718417Y-95335245D01*
X154683938Y-95349997D01*
X154683370Y-95350000D01*
X153364000Y-95350000D01*
X153364000Y-96990000D01*
X153363999Y-96990000D01*
X153365085Y-96990001D01*
X153844099Y-96990760D01*
X153870088Y-96998270D01*
X153921310Y-97030456D01*
X154080941Y-97086313D01*
X154249000Y-97105249D01*
X154417059Y-97086313D01*
X154576690Y-97030456D01*
X154625872Y-96999552D01*
X154652016Y-96992042D01*
X159840428Y-97000269D01*
X159856529Y-97003019D01*
X159865941Y-97006313D01*
X160034000Y-97025249D01*
X160202059Y-97006313D01*
X160209719Y-97003632D01*
X160225983Y-97000881D01*
X161623511Y-97003097D01*
X161639614Y-97005848D01*
X161640941Y-97006313D01*
X161809000Y-97025249D01*
X161977059Y-97006313D01*
X161977062Y-97006311D01*
X161979739Y-97005701D01*
X161979787Y-97005914D01*
X161992975Y-97003683D01*
X163411227Y-97005932D01*
X163413931Y-97006086D01*
X163415938Y-97006312D01*
X163415941Y-97006313D01*
X163584000Y-97025249D01*
X163749272Y-97006626D01*
X163752046Y-97006473D01*
X165211582Y-97008787D01*
X165214256Y-97008939D01*
X165359000Y-97025249D01*
X165499637Y-97009401D01*
X165502412Y-97009248D01*
X167011921Y-97011642D01*
X167014595Y-97011794D01*
X167134000Y-97025249D01*
X167250002Y-97012177D01*
X167252777Y-97012024D01*
X171470845Y-97018714D01*
X171468441Y-96043293D01*
X171471190Y-96026996D01*
X171495313Y-95958059D01*
X171514249Y-95790000D01*
X171495313Y-95621941D01*
X171469934Y-95549414D01*
X171467185Y-95533356D01*
X171466195Y-95131101D01*
X171466194Y-95131100D01*
X171134112Y-95130525D01*
X171108127Y-95123014D01*
X171091628Y-95112647D01*
X171086690Y-95109544D01*
X170927059Y-95053687D01*
X170927055Y-95053686D01*
X170927053Y-95053686D01*
X170759000Y-95034751D01*
X170590947Y-95053686D01*
X170590944Y-95053686D01*
X170590941Y-95053687D01*
X170590937Y-95053688D01*
X170588264Y-95054299D01*
X170587948Y-95052917D01*
X170554976Y-95051056D01*
X170541601Y-95041563D01*
X169273852Y-93773813D01*
X169259500Y-93739165D01*
X169259500Y-93425000D01*
X170059001Y-93425000D01*
X170059001Y-93524148D01*
X170069318Y-93625148D01*
X170123547Y-93788803D01*
X170214056Y-93935539D01*
X170335960Y-94057443D01*
X170482696Y-94147952D01*
X170646351Y-94202181D01*
X170747338Y-94212498D01*
X170747362Y-94212499D01*
X170784000Y-94212498D01*
X170784000Y-93425000D01*
X171284000Y-93425000D01*
X171284000Y-94212499D01*
X171320648Y-94212499D01*
X171421648Y-94202181D01*
X171585303Y-94147952D01*
X171732039Y-94057443D01*
X171853943Y-93935539D01*
X171944452Y-93788803D01*
X171998681Y-93625148D01*
X172009000Y-93524149D01*
X172009000Y-93425000D01*
X171284000Y-93425000D01*
X170784000Y-93425000D01*
X170059001Y-93425000D01*
X169259500Y-93425000D01*
X169259500Y-91799136D01*
X169264091Y-91778428D01*
X169266497Y-91773267D01*
X169278259Y-91748045D01*
X169284500Y-91700639D01*
X169284499Y-90299362D01*
X169278259Y-90251955D01*
X169264090Y-90221569D01*
X169230814Y-90150208D01*
X169229178Y-90112741D01*
X169254515Y-90085091D01*
X169275223Y-90080500D01*
X169447101Y-90080500D01*
X169481749Y-90094852D01*
X169494147Y-90107250D01*
X169508499Y-90141898D01*
X169508499Y-90200862D01*
X169503909Y-90221569D01*
X169489740Y-90251955D01*
X169483500Y-90299362D01*
X169483500Y-91700632D01*
X169483501Y-91700638D01*
X169489740Y-91748045D01*
X169538253Y-91852079D01*
X169538254Y-91852081D01*
X169619418Y-91933245D01*
X169619420Y-91933246D01*
X169619421Y-91933247D01*
X169723455Y-91981759D01*
X169770861Y-91988000D01*
X169997138Y-91987999D01*
X170044545Y-91981759D01*
X170148579Y-91933247D01*
X170229747Y-91852079D01*
X170229749Y-91852073D01*
X170231068Y-91850191D01*
X170232634Y-91849192D01*
X170232779Y-91849048D01*
X170232811Y-91849080D01*
X170262693Y-91830034D01*
X170299309Y-91838144D01*
X170317122Y-91861164D01*
X170363786Y-91986275D01*
X170363788Y-91986279D01*
X170447883Y-92098615D01*
X170447884Y-92098616D01*
X170481734Y-92123956D01*
X170500870Y-92156207D01*
X170491596Y-92192545D01*
X170478093Y-92204885D01*
X170335965Y-92292552D01*
X170335960Y-92292556D01*
X170214056Y-92414460D01*
X170123547Y-92561196D01*
X170069318Y-92724851D01*
X170059000Y-92825850D01*
X170059000Y-92925000D01*
X172008999Y-92925000D01*
X172008999Y-92825851D01*
X171998681Y-92724851D01*
X171944452Y-92561196D01*
X171894221Y-92479760D01*
X171888247Y-92442736D01*
X171910202Y-92412331D01*
X171947226Y-92406357D01*
X171970574Y-92419388D01*
X172209147Y-92657961D01*
X172223499Y-92692609D01*
X172223500Y-95910920D01*
X172222380Y-95921335D01*
X172219641Y-95933927D01*
X172223438Y-95987020D01*
X172223500Y-95988752D01*
X172223500Y-96005799D01*
X172225925Y-96022668D01*
X172226112Y-96024406D01*
X172229908Y-96077478D01*
X172229908Y-96077480D01*
X172229909Y-96077483D01*
X172234412Y-96089557D01*
X172237000Y-96099697D01*
X172238835Y-96112460D01*
X172260934Y-96160848D01*
X172261604Y-96162464D01*
X172280202Y-96212328D01*
X172280203Y-96212330D01*
X172280204Y-96212331D01*
X172287929Y-96222651D01*
X172293272Y-96231656D01*
X172298623Y-96243374D01*
X172333457Y-96283575D01*
X172334555Y-96284937D01*
X172344775Y-96298589D01*
X172344778Y-96298592D01*
X172344779Y-96298593D01*
X172356842Y-96310656D01*
X172358022Y-96311924D01*
X172371484Y-96327460D01*
X172392872Y-96352143D01*
X172403713Y-96359110D01*
X172411870Y-96365684D01*
X172548316Y-96502130D01*
X172554888Y-96510285D01*
X172561857Y-96521128D01*
X172602087Y-96555987D01*
X172603340Y-96557154D01*
X172613328Y-96567142D01*
X172615407Y-96569221D01*
X172629055Y-96579438D01*
X172630417Y-96580536D01*
X172670623Y-96615374D01*
X172670625Y-96615376D01*
X172682340Y-96620726D01*
X172691347Y-96626070D01*
X172701668Y-96633795D01*
X172701669Y-96633796D01*
X172742155Y-96648896D01*
X172751523Y-96652390D01*
X172753140Y-96653060D01*
X172773200Y-96662221D01*
X172801543Y-96675165D01*
X172814300Y-96676999D01*
X172824442Y-96679587D01*
X172836517Y-96684091D01*
X172889600Y-96687887D01*
X172891312Y-96688071D01*
X172908201Y-96690500D01*
X172925248Y-96690500D01*
X172926979Y-96690561D01*
X172980073Y-96694359D01*
X172992663Y-96691620D01*
X173003080Y-96690500D01*
X180709920Y-96690500D01*
X180720336Y-96691620D01*
X180732927Y-96694359D01*
X180786020Y-96690561D01*
X180787752Y-96690500D01*
X180804795Y-96690500D01*
X180804799Y-96690500D01*
X180821689Y-96688070D01*
X180823373Y-96687889D01*
X180876483Y-96684091D01*
X180888557Y-96679587D01*
X180898699Y-96676998D01*
X180911457Y-96675165D01*
X180959869Y-96653054D01*
X180961473Y-96652391D01*
X180961476Y-96652390D01*
X180970857Y-96648891D01*
X180972486Y-96648348D01*
X180984053Y-96644953D01*
X180984056Y-96644950D01*
X180986630Y-96643775D01*
X180992631Y-96640769D01*
X181011331Y-96633796D01*
X181021653Y-96626068D01*
X181030647Y-96620731D01*
X181042373Y-96615377D01*
X181075039Y-96587070D01*
X181080626Y-96582888D01*
X181105128Y-96567143D01*
X181124205Y-96545124D01*
X181129124Y-96540205D01*
X181151143Y-96521128D01*
X181166888Y-96496626D01*
X181171070Y-96491039D01*
X181199377Y-96458373D01*
X181204731Y-96446647D01*
X181210068Y-96437653D01*
X181217796Y-96427331D01*
X181224769Y-96408631D01*
X181227775Y-96402630D01*
X181228951Y-96400056D01*
X181228950Y-96400056D01*
X181228953Y-96400053D01*
X181232348Y-96388486D01*
X181232891Y-96386857D01*
X181236392Y-96377468D01*
X181237054Y-96375869D01*
X181259165Y-96327457D01*
X181260998Y-96314699D01*
X181263587Y-96304557D01*
X181268091Y-96292483D01*
X181271889Y-96239373D01*
X181272070Y-96237689D01*
X181274500Y-96220799D01*
X181274500Y-96203752D01*
X181274561Y-96202020D01*
X181278359Y-96148927D01*
X181275619Y-96136335D01*
X181274500Y-96125920D01*
X181274500Y-88053663D01*
X181288852Y-88019015D01*
X181307328Y-88000539D01*
X181349477Y-87958390D01*
X181439456Y-87815190D01*
X181495313Y-87655559D01*
X181514249Y-87487500D01*
X181495313Y-87319441D01*
X181439456Y-87159810D01*
X181349477Y-87016610D01*
X181229890Y-86897023D01*
X181229887Y-86897021D01*
X181107430Y-86820075D01*
X181085728Y-86789489D01*
X181084500Y-86778586D01*
X181084500Y-86463114D01*
X181098852Y-86428466D01*
X181110397Y-86419903D01*
X181267538Y-86335910D01*
X181419883Y-86210883D01*
X181544910Y-86058538D01*
X181637814Y-85884727D01*
X181695024Y-85696132D01*
X181714341Y-85500000D01*
X181714031Y-85496857D01*
X181712438Y-85480681D01*
X181695024Y-85303868D01*
X181637814Y-85115273D01*
X181544910Y-84941462D01*
X181544907Y-84941458D01*
X181544905Y-84941455D01*
X181445835Y-84820740D01*
X181419883Y-84789117D01*
X181312068Y-84700635D01*
X181267544Y-84664094D01*
X181267541Y-84664092D01*
X181267539Y-84664091D01*
X181267538Y-84664090D01*
X181166066Y-84609852D01*
X181093726Y-84571185D01*
X180905132Y-84513976D01*
X180709000Y-84494659D01*
X180512867Y-84513976D01*
X180512866Y-84513976D01*
X180324273Y-84571185D01*
X180150458Y-84664092D01*
X180150455Y-84664094D01*
X179998117Y-84789117D01*
X179873094Y-84941455D01*
X179873092Y-84941458D01*
X179780185Y-85115273D01*
X179722976Y-85303866D01*
X179722976Y-85303867D01*
X179703659Y-85499999D01*
X179703659Y-85500000D01*
X179722976Y-85696132D01*
X179722976Y-85696133D01*
X179774697Y-85866633D01*
X179771021Y-85903955D01*
X179762455Y-85915505D01*
X179280314Y-86397648D01*
X179245666Y-86412000D01*
X178933499Y-86412000D01*
X178898851Y-86397648D01*
X178884499Y-86363000D01*
X178884499Y-86243482D01*
X178869646Y-86149696D01*
X178812054Y-86036664D01*
X178812049Y-86036657D01*
X178722342Y-85946950D01*
X178722335Y-85946945D01*
X178609308Y-85889355D01*
X178609305Y-85889354D01*
X178609304Y-85889354D01*
X178515519Y-85874500D01*
X178515517Y-85874500D01*
X178513617Y-85874199D01*
X178513816Y-85872942D01*
X178483720Y-85857526D01*
X178472207Y-85821834D01*
X178486399Y-85791136D01*
X178568391Y-85709144D01*
X178576233Y-85702777D01*
X178591836Y-85692584D01*
X178615070Y-85662731D01*
X178617082Y-85660454D01*
X178621519Y-85656018D01*
X178635085Y-85637016D01*
X178668809Y-85593689D01*
X178669071Y-85592924D01*
X178675542Y-85580353D01*
X178676010Y-85579699D01*
X178691671Y-85527094D01*
X178709500Y-85475160D01*
X178709500Y-85474344D01*
X178711537Y-85460365D01*
X178711670Y-85459917D01*
X178711768Y-85459589D01*
X178711627Y-85456191D01*
X178709500Y-85404744D01*
X178709500Y-85386188D01*
X178723852Y-85351540D01*
X178758602Y-85316790D01*
X178812050Y-85263342D01*
X178812054Y-85263335D01*
X178869644Y-85150309D01*
X178869644Y-85150307D01*
X178869646Y-85150304D01*
X178884500Y-85056519D01*
X178884499Y-84037076D01*
X181000475Y-84037076D01*
X181000476Y-84037077D01*
X181124456Y-84103345D01*
X181124468Y-84103350D01*
X181312961Y-84160529D01*
X181312969Y-84160531D01*
X181508999Y-84179839D01*
X181705030Y-84160531D01*
X181705038Y-84160529D01*
X181893531Y-84103350D01*
X181893543Y-84103345D01*
X182017522Y-84037077D01*
X182017523Y-84037076D01*
X181509001Y-83528553D01*
X181509000Y-83528553D01*
X181000475Y-84037076D01*
X178884499Y-84037076D01*
X178884499Y-83968482D01*
X178869646Y-83874696D01*
X178815337Y-83768109D01*
X178812394Y-83730721D01*
X178836750Y-83702204D01*
X178843589Y-83699348D01*
X178847804Y-83697951D01*
X178994539Y-83607443D01*
X179116443Y-83485539D01*
X179206952Y-83338803D01*
X179261181Y-83175148D01*
X179261196Y-83175000D01*
X180504161Y-83175000D01*
X180523468Y-83371030D01*
X180523470Y-83371038D01*
X180580649Y-83559531D01*
X180580654Y-83559543D01*
X180646921Y-83683522D01*
X180646923Y-83683522D01*
X181155446Y-83175000D01*
X181155446Y-83174999D01*
X180646923Y-82666476D01*
X180646921Y-82666476D01*
X180580654Y-82790456D01*
X180580649Y-82790468D01*
X180523470Y-82978961D01*
X180523468Y-82978969D01*
X180504161Y-83174999D01*
X180504161Y-83175000D01*
X179261196Y-83175000D01*
X179271500Y-83074149D01*
X179271500Y-83037500D01*
X178033000Y-83037500D01*
X177998352Y-83023148D01*
X177984000Y-82988500D01*
X177984000Y-82537500D01*
X178484000Y-82537500D01*
X179271499Y-82537500D01*
X179271499Y-82500851D01*
X179261181Y-82399851D01*
X179232376Y-82312923D01*
X181000476Y-82312923D01*
X181509000Y-82821446D01*
X181509001Y-82821446D01*
X182017522Y-82312923D01*
X182017522Y-82312921D01*
X181893543Y-82246654D01*
X181893531Y-82246649D01*
X181705038Y-82189470D01*
X181705030Y-82189468D01*
X181509000Y-82170161D01*
X181312969Y-82189468D01*
X181312961Y-82189470D01*
X181124468Y-82246649D01*
X181124456Y-82246654D01*
X181000476Y-82312921D01*
X181000476Y-82312923D01*
X179232376Y-82312923D01*
X179206946Y-82236178D01*
X179209671Y-82198774D01*
X179238046Y-82174252D01*
X179258698Y-82172046D01*
X179286167Y-82175000D01*
X179734000Y-82175000D01*
X179734000Y-81100000D01*
X180234000Y-81100000D01*
X180234000Y-82175000D01*
X180681834Y-82175000D01*
X180741372Y-82168598D01*
X180741373Y-82168598D01*
X180876091Y-82118351D01*
X180991188Y-82032188D01*
X181077351Y-81917091D01*
X181127598Y-81782373D01*
X181127598Y-81782372D01*
X181134000Y-81722834D01*
X181134000Y-81100000D01*
X180234000Y-81100000D01*
X179734000Y-81100000D01*
X178834000Y-81100000D01*
X178834000Y-81722834D01*
X178840401Y-81782372D01*
X178840403Y-81782380D01*
X178843917Y-81791802D01*
X178842579Y-81829281D01*
X178815131Y-81854836D01*
X178782595Y-81855439D01*
X178684150Y-81822819D01*
X178583149Y-81812500D01*
X178484000Y-81812500D01*
X178484000Y-82537500D01*
X177984000Y-82537500D01*
X177984000Y-81812500D01*
X177884851Y-81812500D01*
X177783851Y-81822818D01*
X177620196Y-81877047D01*
X177473460Y-81967556D01*
X177351556Y-82089460D01*
X177351552Y-82089465D01*
X177263885Y-82231593D01*
X177233481Y-82253548D01*
X177196457Y-82247573D01*
X177182958Y-82235236D01*
X177157616Y-82201384D01*
X177157615Y-82201383D01*
X177045280Y-82117289D01*
X177045278Y-82117288D01*
X176913799Y-82068249D01*
X176913798Y-82068248D01*
X176913796Y-82068248D01*
X176855680Y-82062000D01*
X176855674Y-82062000D01*
X176162326Y-82062000D01*
X176162317Y-82062000D01*
X176132991Y-82065152D01*
X176097008Y-82054586D01*
X176079036Y-82021669D01*
X176079036Y-82011194D01*
X176082995Y-81974367D01*
X176084500Y-81960373D01*
X176084499Y-81164628D01*
X176084499Y-81164627D01*
X176084499Y-81164620D01*
X176078092Y-81105021D01*
X176078091Y-81105017D01*
X176027796Y-80970169D01*
X175941546Y-80854954D01*
X175847843Y-80784808D01*
X175826333Y-80768705D01*
X175826331Y-80768704D01*
X175778923Y-80751022D01*
X175691479Y-80718407D01*
X175631879Y-80712000D01*
X174636120Y-80712000D01*
X174576520Y-80718408D01*
X174450623Y-80765364D01*
X174413144Y-80764025D01*
X174387589Y-80736576D01*
X174384500Y-80719453D01*
X174384500Y-80405546D01*
X174398852Y-80370898D01*
X174433500Y-80356546D01*
X174450618Y-80359634D01*
X174576517Y-80406591D01*
X174576520Y-80406592D01*
X174620177Y-80411285D01*
X174636127Y-80413000D01*
X175631872Y-80412999D01*
X175631878Y-80412999D01*
X175691478Y-80406592D01*
X175691479Y-80406591D01*
X175691483Y-80406591D01*
X175826331Y-80356296D01*
X175941546Y-80270046D01*
X176027796Y-80154831D01*
X176039089Y-80124551D01*
X176064644Y-80097103D01*
X176102123Y-80095764D01*
X176129572Y-80121319D01*
X176134000Y-80141675D01*
X176134000Y-80722834D01*
X176140401Y-80782372D01*
X176140401Y-80782373D01*
X176190648Y-80917091D01*
X176276811Y-81032188D01*
X176391908Y-81118351D01*
X176526626Y-81168598D01*
X176586166Y-81175000D01*
X177159000Y-81175000D01*
X177159000Y-80212500D01*
X177659000Y-80212500D01*
X177659000Y-81175000D01*
X178231834Y-81175000D01*
X178291372Y-81168598D01*
X178291373Y-81168598D01*
X178426091Y-81118351D01*
X178541188Y-81032188D01*
X178627351Y-80917091D01*
X178677598Y-80782373D01*
X178677598Y-80782372D01*
X178684000Y-80722834D01*
X178684000Y-80212500D01*
X177659000Y-80212500D01*
X177159000Y-80212500D01*
X177159000Y-79761500D01*
X177173352Y-79726852D01*
X177208000Y-79712500D01*
X178675000Y-79712500D01*
X178709648Y-79726852D01*
X178724000Y-79761500D01*
X178724000Y-79917514D01*
X178791909Y-79968352D01*
X178791911Y-79968353D01*
X178802122Y-79972161D01*
X178829571Y-79997714D01*
X178834000Y-80018072D01*
X178834000Y-80600000D01*
X179734000Y-80600000D01*
X179734000Y-78875000D01*
X180234000Y-78875000D01*
X180234000Y-80600000D01*
X181134000Y-80600000D01*
X181134000Y-80018072D01*
X181148352Y-79983424D01*
X181165878Y-79972161D01*
X181176088Y-79968353D01*
X181176090Y-79968352D01*
X181291188Y-79882188D01*
X181377351Y-79767091D01*
X181427598Y-79632373D01*
X181427598Y-79632372D01*
X181434000Y-79572834D01*
X181434000Y-78875000D01*
X180234000Y-78875000D01*
X179734000Y-78875000D01*
X179734000Y-77225000D01*
X180234000Y-77225000D01*
X180234000Y-78375000D01*
X181434000Y-78375000D01*
X181434000Y-77677165D01*
X181427598Y-77617627D01*
X181427598Y-77617626D01*
X181377351Y-77482908D01*
X181291188Y-77367811D01*
X181176091Y-77281648D01*
X181041373Y-77231401D01*
X180981834Y-77225000D01*
X180234000Y-77225000D01*
X179734000Y-77225000D01*
X178986166Y-77225000D01*
X178926627Y-77231401D01*
X178926623Y-77231402D01*
X178882123Y-77247999D01*
X178844644Y-77246660D01*
X178819089Y-77219211D01*
X178816000Y-77202088D01*
X178816000Y-76947910D01*
X178830352Y-76913262D01*
X178865000Y-76898910D01*
X178882125Y-76902000D01*
X178926625Y-76918598D01*
X178986165Y-76925000D01*
X179734000Y-76925000D01*
X179734000Y-76175000D01*
X180234000Y-76175000D01*
X180234000Y-76925000D01*
X180981834Y-76925000D01*
X181041372Y-76918598D01*
X181041373Y-76918598D01*
X181176091Y-76868351D01*
X181291188Y-76782188D01*
X181377351Y-76667091D01*
X181427598Y-76532373D01*
X181427598Y-76532372D01*
X181434000Y-76472834D01*
X181434000Y-76175000D01*
X180234000Y-76175000D01*
X179734000Y-76175000D01*
X179734000Y-74350000D01*
X180234000Y-74350000D01*
X180234000Y-75675000D01*
X181434000Y-75675000D01*
X181434000Y-75377165D01*
X181427598Y-75317627D01*
X181427598Y-75317626D01*
X181377351Y-75182908D01*
X181291188Y-75067811D01*
X181176086Y-74981645D01*
X181165874Y-74977836D01*
X181138427Y-74952279D01*
X181134000Y-74931926D01*
X181134000Y-74350000D01*
X180234000Y-74350000D01*
X179734000Y-74350000D01*
X178834000Y-74350000D01*
X178834000Y-74931926D01*
X178819648Y-74966574D01*
X178802126Y-74977836D01*
X178791910Y-74981646D01*
X178724000Y-75032484D01*
X178724000Y-75188500D01*
X178709648Y-75223148D01*
X178675000Y-75237500D01*
X177659000Y-75237500D01*
X177659000Y-76191000D01*
X177644648Y-76225648D01*
X177610000Y-76240000D01*
X177549000Y-76240000D01*
X177549000Y-76300500D01*
X177534648Y-76335148D01*
X177500000Y-76349500D01*
X176609322Y-76349500D01*
X176536260Y-76364033D01*
X176494790Y-76391742D01*
X176467568Y-76400000D01*
X176134000Y-76400000D01*
X176134000Y-76400500D01*
X176119648Y-76435148D01*
X176085000Y-76449500D01*
X175981855Y-76449500D01*
X175947207Y-76435148D01*
X175933163Y-76405986D01*
X175932545Y-76400500D01*
X175920313Y-76291941D01*
X175864456Y-76132310D01*
X175774477Y-75989110D01*
X175654890Y-75869523D01*
X175511690Y-75779544D01*
X175352059Y-75723687D01*
X175352055Y-75723686D01*
X175352053Y-75723686D01*
X175184000Y-75704751D01*
X175015946Y-75723686D01*
X175015937Y-75723688D01*
X174856310Y-75779544D01*
X174856308Y-75779545D01*
X174713112Y-75869521D01*
X174713108Y-75869524D01*
X174593524Y-75989108D01*
X174593521Y-75989112D01*
X174503545Y-76132308D01*
X174503544Y-76132310D01*
X174447688Y-76291937D01*
X174447686Y-76291946D01*
X174428751Y-76460000D01*
X174447686Y-76628053D01*
X174447688Y-76628062D01*
X174452313Y-76641279D01*
X174503544Y-76787690D01*
X174567078Y-76888803D01*
X174593521Y-76930887D01*
X174593524Y-76930891D01*
X174678485Y-77015852D01*
X174692837Y-77050500D01*
X174678485Y-77085148D01*
X174643837Y-77099500D01*
X174641490Y-77099500D01*
X174618463Y-77103342D01*
X174576054Y-77108628D01*
X174563976Y-77110134D01*
X174563236Y-77110496D01*
X174549802Y-77114800D01*
X174548994Y-77114934D01*
X174500726Y-77141055D01*
X174451390Y-77165175D01*
X174451387Y-77165177D01*
X174450807Y-77165758D01*
X174439507Y-77174185D01*
X174438783Y-77174576D01*
X174438774Y-77174584D01*
X174401596Y-77214970D01*
X173324609Y-78291955D01*
X173316764Y-78298327D01*
X173301161Y-78308521D01*
X173277935Y-78338363D01*
X173275925Y-78340639D01*
X173271480Y-78345085D01*
X173271479Y-78345085D01*
X173257905Y-78364099D01*
X173224192Y-78407413D01*
X173224189Y-78407418D01*
X173223924Y-78408191D01*
X173217467Y-78420735D01*
X173216992Y-78421399D01*
X173216991Y-78421402D01*
X173201329Y-78474007D01*
X173183500Y-78525942D01*
X173183500Y-78526758D01*
X173181463Y-78540739D01*
X173181231Y-78541515D01*
X173181231Y-78541516D01*
X173183500Y-78596359D01*
X173183500Y-78919837D01*
X173169148Y-78954485D01*
X173134500Y-78968837D01*
X173099852Y-78954485D01*
X173079891Y-78934524D01*
X173079887Y-78934521D01*
X172985160Y-78875000D01*
X172936690Y-78844544D01*
X172777059Y-78788687D01*
X172777055Y-78788686D01*
X172777053Y-78788686D01*
X172609000Y-78769751D01*
X172440946Y-78788686D01*
X172440937Y-78788688D01*
X172281310Y-78844544D01*
X172281308Y-78844545D01*
X172138112Y-78934521D01*
X172138108Y-78934524D01*
X172018524Y-79054108D01*
X172018521Y-79054112D01*
X171928545Y-79197308D01*
X171928544Y-79197310D01*
X171872688Y-79356937D01*
X171872686Y-79356946D01*
X171853751Y-79525000D01*
X171869074Y-79661000D01*
X171872687Y-79693059D01*
X171928544Y-79852690D01*
X172018523Y-79995890D01*
X172138110Y-80115477D01*
X172281310Y-80205456D01*
X172440941Y-80261313D01*
X172609000Y-80280249D01*
X172679014Y-80272359D01*
X172715050Y-80282741D01*
X172733192Y-80315564D01*
X172733500Y-80321051D01*
X172733500Y-84663000D01*
X172719148Y-84697648D01*
X172684500Y-84712000D01*
X172095637Y-84712000D01*
X172074929Y-84707409D01*
X172044543Y-84693240D01*
X172044544Y-84693240D01*
X172011957Y-84688950D01*
X171997139Y-84687000D01*
X171997136Y-84687000D01*
X170595867Y-84687000D01*
X170595861Y-84687001D01*
X170548454Y-84693240D01*
X170444420Y-84741753D01*
X170444418Y-84741754D01*
X170418148Y-84768025D01*
X170383500Y-84782377D01*
X170348852Y-84768025D01*
X170334500Y-84733377D01*
X170334500Y-84512000D01*
X170348852Y-84477352D01*
X170383500Y-84463000D01*
X170497363Y-84463000D01*
X170518071Y-84467591D01*
X170548455Y-84481759D01*
X170595861Y-84488000D01*
X171997138Y-84487999D01*
X172044545Y-84481759D01*
X172148579Y-84433247D01*
X172229747Y-84352079D01*
X172278259Y-84248045D01*
X172284500Y-84200639D01*
X172284499Y-83974362D01*
X172278259Y-83926955D01*
X172278258Y-83926953D01*
X172235209Y-83834635D01*
X172229747Y-83822921D01*
X172229746Y-83822920D01*
X172229745Y-83822918D01*
X172148581Y-83741754D01*
X172148579Y-83741753D01*
X172058975Y-83699970D01*
X172044546Y-83693241D01*
X172035063Y-83691992D01*
X171997139Y-83687000D01*
X171997135Y-83687000D01*
X170595867Y-83687000D01*
X170595861Y-83687001D01*
X170548456Y-83693240D01*
X170529234Y-83702204D01*
X170518071Y-83707409D01*
X170497363Y-83712000D01*
X170147105Y-83712000D01*
X170112457Y-83697648D01*
X170098105Y-83663000D01*
X170112457Y-83628352D01*
X170126396Y-83618591D01*
X170148579Y-83608247D01*
X170229747Y-83527079D01*
X170278259Y-83423045D01*
X170284500Y-83375639D01*
X170284499Y-81974362D01*
X170278259Y-81926955D01*
X170264090Y-81896571D01*
X170259500Y-81875863D01*
X170259500Y-81500833D01*
X170273852Y-81466185D01*
X170291600Y-81448437D01*
X170326248Y-81434085D01*
X170338166Y-81436110D01*
X170338260Y-81435701D01*
X170340939Y-81436312D01*
X170340941Y-81436313D01*
X170509000Y-81455249D01*
X170677059Y-81436313D01*
X170836690Y-81380456D01*
X170979890Y-81290477D01*
X171099477Y-81170890D01*
X171189456Y-81027690D01*
X171245313Y-80868059D01*
X171264249Y-80700000D01*
X171245313Y-80531941D01*
X171189456Y-80372310D01*
X171099477Y-80229110D01*
X170979890Y-80109523D01*
X170836690Y-80019544D01*
X170677059Y-79963687D01*
X170677055Y-79963686D01*
X170677053Y-79963686D01*
X170509000Y-79944751D01*
X170340946Y-79963686D01*
X170340937Y-79963688D01*
X170181310Y-80019544D01*
X170181308Y-80019545D01*
X170038112Y-80109521D01*
X170038108Y-80109524D01*
X169918524Y-80229108D01*
X169918521Y-80229112D01*
X169849988Y-80338181D01*
X169819402Y-80359883D01*
X169782429Y-80353600D01*
X169760727Y-80323014D01*
X169759499Y-80312111D01*
X169759499Y-80184671D01*
X169759499Y-79705830D01*
X169773850Y-79671186D01*
X174195850Y-75249185D01*
X174230497Y-75234834D01*
X174246680Y-75237583D01*
X174385941Y-75286313D01*
X174554000Y-75305249D01*
X174722059Y-75286313D01*
X174861559Y-75237500D01*
X176134000Y-75237500D01*
X176134000Y-75747834D01*
X176140401Y-75807375D01*
X176140402Y-75807380D01*
X176140592Y-75807889D01*
X176140592Y-75808182D01*
X176141106Y-75810357D01*
X176140592Y-75810478D01*
X176140592Y-75839521D01*
X176141106Y-75839643D01*
X176140592Y-75841817D01*
X176140592Y-75842111D01*
X176140402Y-75842619D01*
X176140401Y-75842624D01*
X176134000Y-75902165D01*
X176134000Y-75950000D01*
X177099000Y-75950000D01*
X177099000Y-75459000D01*
X177113352Y-75424352D01*
X177148000Y-75410000D01*
X177159000Y-75410000D01*
X177159000Y-75237500D01*
X176134000Y-75237500D01*
X174861559Y-75237500D01*
X174881690Y-75230456D01*
X174965020Y-75178095D01*
X174990842Y-75170586D01*
X175109000Y-75170000D01*
X175109000Y-75076662D01*
X175123352Y-75042015D01*
X175133184Y-75032183D01*
X175144477Y-75020890D01*
X175234456Y-74877690D01*
X175283510Y-74737500D01*
X176134000Y-74737500D01*
X177159000Y-74737500D01*
X177159000Y-73775000D01*
X177659000Y-73775000D01*
X177659000Y-74737500D01*
X178684000Y-74737500D01*
X178684000Y-74227165D01*
X178677598Y-74167627D01*
X178677598Y-74167626D01*
X178627351Y-74032908D01*
X178541188Y-73917811D01*
X178426091Y-73831648D01*
X178291373Y-73781401D01*
X178231834Y-73775000D01*
X177659000Y-73775000D01*
X177159000Y-73775000D01*
X176586166Y-73775000D01*
X176526627Y-73781401D01*
X176526626Y-73781401D01*
X176391908Y-73831648D01*
X176276811Y-73917811D01*
X176190648Y-74032908D01*
X176140401Y-74167626D01*
X176140401Y-74167627D01*
X176134000Y-74227165D01*
X176134000Y-74737500D01*
X175283510Y-74737500D01*
X175290313Y-74718059D01*
X175309249Y-74550000D01*
X175290313Y-74381941D01*
X175234456Y-74222310D01*
X175144477Y-74079110D01*
X175123350Y-74057982D01*
X175109000Y-74023335D01*
X175109000Y-73840000D01*
X175108999Y-73839999D01*
X174803751Y-73839393D01*
X174787665Y-73836643D01*
X174722059Y-73813687D01*
X174722055Y-73813686D01*
X174722053Y-73813686D01*
X174554000Y-73794751D01*
X174385946Y-73813686D01*
X174385942Y-73813686D01*
X174385941Y-73813687D01*
X174323151Y-73835657D01*
X174306873Y-73838406D01*
X173018618Y-73835847D01*
X173002532Y-73833097D01*
X172947065Y-73813689D01*
X172947064Y-73813688D01*
X172947059Y-73813687D01*
X172947055Y-73813686D01*
X172947053Y-73813686D01*
X172779000Y-73794751D01*
X172610946Y-73813686D01*
X172610942Y-73813686D01*
X172610941Y-73813687D01*
X172610938Y-73813687D01*
X172610934Y-73813689D01*
X172558171Y-73832151D01*
X172541891Y-73834901D01*
X171355626Y-73832545D01*
X171339539Y-73829795D01*
X171222062Y-73788688D01*
X171222061Y-73788687D01*
X171222059Y-73788687D01*
X171222055Y-73788686D01*
X171222053Y-73788686D01*
X171054000Y-73769751D01*
X170885946Y-73788686D01*
X170885942Y-73788686D01*
X170885941Y-73788687D01*
X170885938Y-73788687D01*
X170885934Y-73788689D01*
X170771864Y-73828603D01*
X170755584Y-73831353D01*
X169523785Y-73828906D01*
X169507700Y-73826157D01*
X169483217Y-73817591D01*
X169472059Y-73813687D01*
X169472055Y-73813686D01*
X169472053Y-73813686D01*
X169304000Y-73794751D01*
X169135946Y-73813686D01*
X169135942Y-73813686D01*
X169135941Y-73813687D01*
X169102782Y-73825289D01*
X169086504Y-73828038D01*
X167763792Y-73825411D01*
X167747706Y-73822661D01*
X167722059Y-73813687D01*
X167722055Y-73813686D01*
X167722053Y-73813686D01*
X167554000Y-73794751D01*
X167385946Y-73813686D01*
X167385939Y-73813687D01*
X167362660Y-73821833D01*
X167346381Y-73824582D01*
X165795878Y-73821502D01*
X165793182Y-73821348D01*
X165779002Y-73819751D01*
X165778997Y-73819751D01*
X165765404Y-73821282D01*
X165762612Y-73821436D01*
X165039000Y-73820000D01*
X165039000Y-74438285D01*
X165038846Y-74441030D01*
X165023751Y-74574999D01*
X165038846Y-74708968D01*
X165039000Y-74711713D01*
X165039000Y-75220000D01*
X165377844Y-75218316D01*
X165404154Y-75225825D01*
X165451310Y-75255456D01*
X165453546Y-75256238D01*
X165481511Y-75281224D01*
X165483618Y-75318668D01*
X165458631Y-75346634D01*
X165452779Y-75349002D01*
X165292696Y-75402047D01*
X165145960Y-75492556D01*
X165024056Y-75614460D01*
X164933547Y-75761196D01*
X164879318Y-75924851D01*
X164869000Y-76025850D01*
X164869000Y-76075000D01*
X166045000Y-76075000D01*
X166079648Y-76089352D01*
X166094000Y-76124000D01*
X166094000Y-77312499D01*
X166130648Y-77312499D01*
X166231648Y-77302181D01*
X166395303Y-77247952D01*
X166395305Y-77247951D01*
X166433775Y-77224222D01*
X166470799Y-77218247D01*
X166501204Y-77240201D01*
X166508500Y-77265926D01*
X166508500Y-77512172D01*
X166494148Y-77546820D01*
X166459500Y-77561172D01*
X166430135Y-77551398D01*
X166317780Y-77467289D01*
X166317778Y-77467288D01*
X166186299Y-77418249D01*
X166186298Y-77418248D01*
X166186296Y-77418248D01*
X166128180Y-77412000D01*
X166128174Y-77412000D01*
X165559826Y-77412000D01*
X165559820Y-77412000D01*
X165501704Y-77418248D01*
X165501703Y-77418248D01*
X165370219Y-77467289D01*
X165257884Y-77551384D01*
X165173789Y-77663719D01*
X165124748Y-77795203D01*
X165124748Y-77795204D01*
X165118500Y-77853319D01*
X165118500Y-78446680D01*
X165124748Y-78504795D01*
X165124748Y-78504796D01*
X165124748Y-78504798D01*
X165124749Y-78504799D01*
X165170831Y-78628351D01*
X165173789Y-78636280D01*
X165193238Y-78662260D01*
X165257884Y-78748616D01*
X165332914Y-78804784D01*
X165370220Y-78832711D01*
X165370221Y-78832711D01*
X165370222Y-78832712D01*
X165451624Y-78863073D01*
X165479072Y-78888627D01*
X165483500Y-78908983D01*
X165483500Y-79022503D01*
X165469148Y-79057151D01*
X165460570Y-79063992D01*
X165388112Y-79109521D01*
X165388108Y-79109524D01*
X165268524Y-79229108D01*
X165268521Y-79229112D01*
X165178545Y-79372308D01*
X165178544Y-79372310D01*
X165122688Y-79531937D01*
X165122686Y-79531946D01*
X165103751Y-79700000D01*
X165106701Y-79726184D01*
X165096318Y-79762221D01*
X165063495Y-79780362D01*
X165027458Y-79769979D01*
X165023361Y-79766318D01*
X164403852Y-79146809D01*
X164389500Y-79112161D01*
X164389500Y-76575000D01*
X164869001Y-76575000D01*
X164869001Y-76624148D01*
X164879318Y-76725148D01*
X164933547Y-76888803D01*
X165024056Y-77035539D01*
X165145960Y-77157443D01*
X165292696Y-77247952D01*
X165456351Y-77302181D01*
X165557338Y-77312498D01*
X165557362Y-77312499D01*
X165594000Y-77312498D01*
X165594000Y-76575000D01*
X164869001Y-76575000D01*
X164389500Y-76575000D01*
X164389500Y-75199024D01*
X164390543Y-75188968D01*
X164390641Y-75188500D01*
X164394367Y-75170732D01*
X164389688Y-75133194D01*
X164389500Y-75130161D01*
X164389500Y-75123884D01*
X164385657Y-75100859D01*
X164378866Y-75046374D01*
X164378510Y-75045646D01*
X164374197Y-75032183D01*
X164374065Y-75031390D01*
X164347944Y-74983122D01*
X164339854Y-74966574D01*
X164323828Y-74933792D01*
X164323824Y-74933787D01*
X164323252Y-74933215D01*
X164314804Y-74921885D01*
X164314420Y-74921176D01*
X164314419Y-74921174D01*
X164274029Y-74883992D01*
X164157437Y-74767400D01*
X164143085Y-74732752D01*
X164145111Y-74720836D01*
X164144701Y-74720743D01*
X164145312Y-74718062D01*
X164145312Y-74718061D01*
X164145313Y-74718059D01*
X164164249Y-74550000D01*
X164145313Y-74381941D01*
X164126770Y-74328949D01*
X164124022Y-74312543D01*
X164126500Y-73787500D01*
X160909000Y-73780000D01*
X160904331Y-74212252D01*
X160901584Y-74227906D01*
X160847689Y-74381934D01*
X160847686Y-74381946D01*
X160828751Y-74550000D01*
X160847686Y-74718053D01*
X160847689Y-74718065D01*
X160894497Y-74851837D01*
X160897244Y-74868549D01*
X160896499Y-74937498D01*
X160896500Y-74937499D01*
X160896500Y-74937500D01*
X161486500Y-75887500D01*
X162377312Y-75894273D01*
X162411587Y-75908624D01*
X163174148Y-76671185D01*
X163188500Y-76705833D01*
X163188500Y-79430366D01*
X163187457Y-79440421D01*
X163183633Y-79458658D01*
X163188312Y-79496195D01*
X163188500Y-79499228D01*
X163188500Y-79505505D01*
X163191753Y-79525000D01*
X163192342Y-79528531D01*
X163199133Y-79583016D01*
X163199491Y-79583748D01*
X163203800Y-79597194D01*
X163203935Y-79598001D01*
X163217917Y-79623839D01*
X163230055Y-79646269D01*
X163254171Y-79695598D01*
X163254175Y-79695603D01*
X163254748Y-79696176D01*
X163263191Y-79707497D01*
X163263581Y-79708217D01*
X163303971Y-79745399D01*
X164158572Y-80600000D01*
X164994148Y-81435576D01*
X165008500Y-81470224D01*
X165008500Y-81875863D01*
X165003909Y-81896571D01*
X164989740Y-81926955D01*
X164985341Y-81960378D01*
X164983712Y-81972755D01*
X164983500Y-81974362D01*
X164983500Y-83375632D01*
X164983501Y-83375638D01*
X164990230Y-83426763D01*
X164989202Y-83426898D01*
X164985571Y-83460036D01*
X164956322Y-83483508D01*
X164919042Y-83479423D01*
X164907965Y-83471113D01*
X164798851Y-83361998D01*
X164784499Y-83327350D01*
X164784499Y-81974366D01*
X164784499Y-81974362D01*
X164778259Y-81926955D01*
X164774042Y-81917912D01*
X164742183Y-81849590D01*
X164729747Y-81822921D01*
X164729746Y-81822920D01*
X164729745Y-81822918D01*
X164648581Y-81741754D01*
X164648579Y-81741753D01*
X164565424Y-81702977D01*
X164544546Y-81693241D01*
X164535063Y-81691992D01*
X164497139Y-81687000D01*
X164497135Y-81687000D01*
X164270865Y-81687000D01*
X164270860Y-81687001D01*
X164223454Y-81693240D01*
X164119420Y-81741753D01*
X164119418Y-81741754D01*
X164038253Y-81822920D01*
X164038251Y-81822922D01*
X164020029Y-81861998D01*
X163992378Y-81887334D01*
X163954911Y-81885696D01*
X163940973Y-81875936D01*
X163394937Y-81329899D01*
X163380585Y-81295251D01*
X163382611Y-81283333D01*
X163382201Y-81283240D01*
X163382813Y-81280557D01*
X163401749Y-81112500D01*
X163382813Y-80944441D01*
X163326956Y-80784810D01*
X163236977Y-80641610D01*
X163117390Y-80522023D01*
X162974190Y-80432044D01*
X162814559Y-80376187D01*
X162814555Y-80376186D01*
X162814553Y-80376186D01*
X162646500Y-80357251D01*
X162478447Y-80376186D01*
X162478444Y-80376186D01*
X162478441Y-80376187D01*
X162478437Y-80376188D01*
X162475764Y-80376799D01*
X162475448Y-80375417D01*
X162442476Y-80373556D01*
X162429101Y-80364063D01*
X162313852Y-80248813D01*
X162299500Y-80214165D01*
X162299500Y-79079538D01*
X162313852Y-79044890D01*
X162331373Y-79033628D01*
X162447778Y-78990212D01*
X162560116Y-78906116D01*
X162644212Y-78793778D01*
X162693251Y-78662299D01*
X162696901Y-78628351D01*
X162699500Y-78604180D01*
X162699500Y-78035819D01*
X162693251Y-77977704D01*
X162693251Y-77977703D01*
X162693251Y-77977701D01*
X162644212Y-77846222D01*
X162560116Y-77733884D01*
X162484349Y-77677165D01*
X162447780Y-77649789D01*
X162447778Y-77649788D01*
X162316299Y-77600749D01*
X162316298Y-77600748D01*
X162316296Y-77600748D01*
X162258180Y-77594500D01*
X162258174Y-77594500D01*
X161589826Y-77594500D01*
X161589820Y-77594500D01*
X161531704Y-77600748D01*
X161531703Y-77600748D01*
X161400219Y-77649789D01*
X161287884Y-77733884D01*
X161203789Y-77846219D01*
X161154748Y-77977703D01*
X161154748Y-77977704D01*
X161148500Y-78035819D01*
X161148500Y-78604180D01*
X161154748Y-78662295D01*
X161154748Y-78662296D01*
X161154748Y-78662298D01*
X161154749Y-78662299D01*
X161203788Y-78793778D01*
X161287884Y-78906116D01*
X161400222Y-78990212D01*
X161516625Y-79033627D01*
X161544072Y-79059183D01*
X161548500Y-79079538D01*
X161548500Y-80345975D01*
X161547457Y-80356030D01*
X161544044Y-80372310D01*
X161543633Y-80374268D01*
X161544217Y-80378952D01*
X161548312Y-80411804D01*
X161548500Y-80414837D01*
X161548500Y-80421114D01*
X161549446Y-80426781D01*
X161552342Y-80444140D01*
X161559133Y-80498625D01*
X161559491Y-80499357D01*
X161563800Y-80512803D01*
X161563935Y-80513610D01*
X161573853Y-80531937D01*
X161590055Y-80561878D01*
X161614171Y-80611207D01*
X161614175Y-80611212D01*
X161614748Y-80611785D01*
X161623191Y-80623106D01*
X161623581Y-80623826D01*
X161663971Y-80661008D01*
X161782360Y-80779397D01*
X161898063Y-80895100D01*
X161912415Y-80929748D01*
X161910391Y-80941669D01*
X161910799Y-80941763D01*
X161910186Y-80944446D01*
X161891251Y-81112500D01*
X161905427Y-81238319D01*
X161910187Y-81280559D01*
X161966044Y-81440190D01*
X162056023Y-81583390D01*
X162175610Y-81702977D01*
X162318810Y-81792956D01*
X162478441Y-81848813D01*
X162646500Y-81867749D01*
X162814559Y-81848813D01*
X162814561Y-81848812D01*
X162817243Y-81848201D01*
X162817560Y-81849590D01*
X162850500Y-81851432D01*
X162863900Y-81860937D01*
X163912349Y-82909386D01*
X163918721Y-82917232D01*
X163928916Y-82932836D01*
X163958775Y-82956076D01*
X163961035Y-82958072D01*
X163965481Y-82962518D01*
X163966165Y-82963097D01*
X163966276Y-82963313D01*
X163966916Y-82963953D01*
X163966711Y-82964157D01*
X163983332Y-82996439D01*
X163983500Y-83000491D01*
X163983500Y-83375632D01*
X163983501Y-83375638D01*
X163989740Y-83423044D01*
X163992136Y-83428181D01*
X163998956Y-83442808D01*
X164002109Y-83458553D01*
X164003131Y-83458426D01*
X164008312Y-83499989D01*
X164008500Y-83503022D01*
X164008500Y-83509299D01*
X164009118Y-83513000D01*
X164012342Y-83532325D01*
X164019133Y-83586810D01*
X164019491Y-83587542D01*
X164023800Y-83600988D01*
X164023935Y-83601795D01*
X164033024Y-83618591D01*
X164050055Y-83650063D01*
X164074171Y-83699392D01*
X164074175Y-83699397D01*
X164074748Y-83699970D01*
X164083191Y-83711291D01*
X164083581Y-83712011D01*
X164123971Y-83749193D01*
X164331444Y-83956666D01*
X164535117Y-84160339D01*
X164546744Y-84185661D01*
X164548332Y-84185299D01*
X164549148Y-84188874D01*
X164549148Y-84188876D01*
X164549149Y-84188878D01*
X164598763Y-84315294D01*
X164683436Y-84421470D01*
X164795642Y-84497972D01*
X164795644Y-84497972D01*
X164795645Y-84497973D01*
X164841121Y-84512000D01*
X164925413Y-84538000D01*
X169384500Y-84538000D01*
X169419148Y-84552352D01*
X169433500Y-84587000D01*
X169433500Y-89130500D01*
X169419148Y-89165148D01*
X169384500Y-89179500D01*
X164270238Y-89179500D01*
X164219975Y-89187076D01*
X164169711Y-89194652D01*
X164169704Y-89194654D01*
X164047359Y-89253573D01*
X164047357Y-89253575D01*
X164038986Y-89261342D01*
X164003824Y-89274387D01*
X163969738Y-89258748D01*
X163956693Y-89223586D01*
X163957077Y-89219038D01*
X163959500Y-89200639D01*
X163959499Y-88974362D01*
X163953259Y-88926955D01*
X163921201Y-88858207D01*
X163919565Y-88820740D01*
X163921190Y-88816815D01*
X163953259Y-88748045D01*
X163959500Y-88700639D01*
X163959499Y-88474362D01*
X163953259Y-88426955D01*
X163921201Y-88358207D01*
X163919565Y-88320740D01*
X163921190Y-88316815D01*
X163953259Y-88248045D01*
X163959500Y-88200639D01*
X163959499Y-87974362D01*
X163953259Y-87926955D01*
X163904747Y-87822921D01*
X163904746Y-87822920D01*
X163904745Y-87822918D01*
X163823581Y-87741754D01*
X163823579Y-87741753D01*
X163792874Y-87727435D01*
X163719546Y-87693241D01*
X163710063Y-87691992D01*
X163672139Y-87687000D01*
X163672135Y-87687000D01*
X162270867Y-87687000D01*
X162270861Y-87687001D01*
X162223456Y-87693240D01*
X162207890Y-87700499D01*
X162193071Y-87707409D01*
X162172363Y-87712000D01*
X158765524Y-87712000D01*
X158755469Y-87710957D01*
X158737231Y-87707133D01*
X158699696Y-87711812D01*
X158696663Y-87712000D01*
X158690386Y-87712000D01*
X158667346Y-87715844D01*
X158667347Y-87715844D01*
X158612872Y-87722635D01*
X158612867Y-87722637D01*
X158612140Y-87722993D01*
X158598698Y-87727300D01*
X158597888Y-87727435D01*
X158569813Y-87742629D01*
X158549619Y-87753557D01*
X158524953Y-87765615D01*
X158500287Y-87777674D01*
X158500282Y-87777677D01*
X158499701Y-87778259D01*
X158488397Y-87786688D01*
X158487677Y-87787077D01*
X158487672Y-87787081D01*
X158483849Y-87791234D01*
X158449821Y-87807000D01*
X158414611Y-87794088D01*
X158398845Y-87760060D01*
X158401290Y-87742629D01*
X158418681Y-87690148D01*
X158429000Y-87589149D01*
X158429000Y-87490000D01*
X156479001Y-87490000D01*
X156479001Y-87589148D01*
X156489318Y-87690148D01*
X156543547Y-87853803D01*
X156634056Y-88000539D01*
X156755960Y-88122443D01*
X156898092Y-88210112D01*
X156920047Y-88240517D01*
X156914073Y-88277541D01*
X156901734Y-88291042D01*
X156867884Y-88316383D01*
X156783789Y-88428719D01*
X156734748Y-88560203D01*
X156734748Y-88560204D01*
X156728500Y-88618319D01*
X156728500Y-89311680D01*
X156734748Y-89369795D01*
X156734748Y-89369796D01*
X156734748Y-89369798D01*
X156734749Y-89369799D01*
X156771260Y-89467690D01*
X156783789Y-89501280D01*
X156811792Y-89538687D01*
X156867884Y-89613616D01*
X156932737Y-89662165D01*
X156980220Y-89697711D01*
X156980221Y-89697711D01*
X156980222Y-89697712D01*
X157046624Y-89722478D01*
X157074072Y-89748032D01*
X157078500Y-89768388D01*
X157078500Y-89774877D01*
X157064148Y-89809525D01*
X157046624Y-89820788D01*
X156951666Y-89856205D01*
X156836454Y-89942454D01*
X156750205Y-90057666D01*
X156699907Y-90192520D01*
X156693500Y-90252120D01*
X156693500Y-90269877D01*
X156679148Y-90304525D01*
X156667823Y-90312970D01*
X156662118Y-90316058D01*
X156637453Y-90328116D01*
X156612788Y-90340174D01*
X156612783Y-90340177D01*
X156612203Y-90340758D01*
X156600903Y-90349185D01*
X156600179Y-90349576D01*
X156600170Y-90349584D01*
X156562992Y-90389970D01*
X156457648Y-90495313D01*
X156423000Y-90509665D01*
X156388352Y-90495313D01*
X156374000Y-90460665D01*
X156374000Y-90410000D01*
X155274000Y-90410000D01*
X155274000Y-91128336D01*
X155259648Y-91162984D01*
X155173524Y-91249108D01*
X155173521Y-91249112D01*
X155083545Y-91392308D01*
X155083544Y-91392310D01*
X155027688Y-91551937D01*
X155027686Y-91551946D01*
X155016729Y-91649190D01*
X154998588Y-91682013D01*
X154962550Y-91692395D01*
X154933389Y-91678351D01*
X154448686Y-91193648D01*
X154434334Y-91159000D01*
X154448686Y-91124352D01*
X154483334Y-91110000D01*
X154774000Y-91110000D01*
X154774000Y-89210000D01*
X155274000Y-89210000D01*
X155274000Y-89910000D01*
X156374000Y-89910000D01*
X156374000Y-89662165D01*
X156367598Y-89602627D01*
X156367598Y-89602626D01*
X156317351Y-89467908D01*
X156231188Y-89352811D01*
X156116091Y-89266648D01*
X155981373Y-89216401D01*
X155921834Y-89210000D01*
X155274000Y-89210000D01*
X154774000Y-89210000D01*
X154126166Y-89210000D01*
X154066627Y-89216401D01*
X154066626Y-89216401D01*
X153931908Y-89266648D01*
X153816811Y-89352811D01*
X153787726Y-89391663D01*
X153755473Y-89410799D01*
X153719135Y-89401524D01*
X153699999Y-89369271D01*
X153699500Y-89362298D01*
X153699500Y-85915832D01*
X153713850Y-85881186D01*
X153735587Y-85859448D01*
X153770233Y-85845097D01*
X153804881Y-85859448D01*
X153809460Y-85864732D01*
X153870384Y-85946116D01*
X153945414Y-86002284D01*
X153982720Y-86030211D01*
X153982724Y-86030213D01*
X153995131Y-86034841D01*
X154022579Y-86060396D01*
X154023917Y-86097875D01*
X154005231Y-86121493D01*
X153993397Y-86129400D01*
X153938034Y-86212259D01*
X153923500Y-86285322D01*
X153923500Y-87234677D01*
X153938033Y-87307739D01*
X153993398Y-87390601D01*
X154051628Y-87429508D01*
X154076260Y-87445966D01*
X154149326Y-87460500D01*
X155898674Y-87460500D01*
X155971740Y-87445966D01*
X156054601Y-87390601D01*
X156109966Y-87307740D01*
X156124500Y-87234674D01*
X156124500Y-86990000D01*
X156479000Y-86990000D01*
X157204000Y-86990000D01*
X157204000Y-86202499D01*
X157167352Y-86202500D01*
X157066351Y-86212818D01*
X156902696Y-86267047D01*
X156755960Y-86357556D01*
X156634056Y-86479460D01*
X156543547Y-86626196D01*
X156489318Y-86789851D01*
X156479000Y-86890850D01*
X156479000Y-86990000D01*
X156124500Y-86990000D01*
X156124500Y-86488832D01*
X156138850Y-86454185D01*
X156190395Y-86402640D01*
X156198233Y-86396277D01*
X156213836Y-86386084D01*
X156237070Y-86356231D01*
X156239082Y-86353954D01*
X156239926Y-86353110D01*
X156243520Y-86349517D01*
X156257088Y-86330513D01*
X156290809Y-86287189D01*
X156291071Y-86286424D01*
X156297542Y-86273853D01*
X156298010Y-86273199D01*
X156313670Y-86220596D01*
X156331500Y-86168660D01*
X156331500Y-86167844D01*
X156333537Y-86153864D01*
X156333768Y-86153087D01*
X156333083Y-86136525D01*
X156345990Y-86101313D01*
X156380016Y-86085542D01*
X156382041Y-86085500D01*
X156590680Y-86085500D01*
X156625548Y-86081750D01*
X156648799Y-86079251D01*
X156780278Y-86030212D01*
X156892616Y-85946116D01*
X156976712Y-85833778D01*
X156983048Y-85816790D01*
X157001480Y-85767376D01*
X157027035Y-85739928D01*
X157047390Y-85735500D01*
X157522583Y-85735500D01*
X157557231Y-85749852D01*
X157962490Y-86155111D01*
X157976842Y-86189759D01*
X157962490Y-86224407D01*
X157927842Y-86238759D01*
X157912430Y-86236272D01*
X157841650Y-86212819D01*
X157740649Y-86202500D01*
X157704000Y-86202500D01*
X157704000Y-86990000D01*
X158428999Y-86990000D01*
X158428999Y-86890851D01*
X158418681Y-86789851D01*
X158398705Y-86729568D01*
X158401430Y-86692164D01*
X158429805Y-86667642D01*
X158467209Y-86670367D01*
X158475314Y-86675487D01*
X158478331Y-86677835D01*
X158478332Y-86677836D01*
X158508191Y-86701076D01*
X158510451Y-86703072D01*
X158514898Y-86707519D01*
X158533899Y-86721085D01*
X158577227Y-86754809D01*
X158577988Y-86755070D01*
X158590560Y-86761541D01*
X158591217Y-86762010D01*
X158643821Y-86777671D01*
X158695756Y-86795500D01*
X158696571Y-86795500D01*
X158710551Y-86797537D01*
X158711327Y-86797768D01*
X158766171Y-86795500D01*
X159496187Y-86795500D01*
X159530835Y-86809852D01*
X160042869Y-87321886D01*
X160049241Y-87329732D01*
X160059436Y-87345336D01*
X160089295Y-87368576D01*
X160091555Y-87370572D01*
X160096003Y-87375020D01*
X160115006Y-87388588D01*
X160158331Y-87422309D01*
X160159092Y-87422570D01*
X160171664Y-87429041D01*
X160172321Y-87429510D01*
X160224932Y-87445173D01*
X160276860Y-87463000D01*
X160277672Y-87463000D01*
X160291652Y-87465036D01*
X160292432Y-87465269D01*
X160347289Y-87463000D01*
X162172363Y-87463000D01*
X162193071Y-87467591D01*
X162223455Y-87481759D01*
X162270861Y-87488000D01*
X163672138Y-87487999D01*
X163719545Y-87481759D01*
X163823579Y-87433247D01*
X163904747Y-87352079D01*
X163953259Y-87248045D01*
X163959500Y-87200639D01*
X163959499Y-86974362D01*
X163953259Y-86926955D01*
X163921201Y-86858207D01*
X163919565Y-86820740D01*
X163921190Y-86816815D01*
X163953259Y-86748045D01*
X163959500Y-86700639D01*
X163959499Y-86474362D01*
X163953259Y-86426955D01*
X163921201Y-86358207D01*
X163919565Y-86320740D01*
X163921190Y-86316815D01*
X163953259Y-86248045D01*
X163959500Y-86200639D01*
X163959499Y-85974362D01*
X163953259Y-85926955D01*
X163921201Y-85858207D01*
X163919565Y-85820740D01*
X163921190Y-85816815D01*
X163953259Y-85748045D01*
X163959500Y-85700639D01*
X163959499Y-85474362D01*
X163953259Y-85426955D01*
X163921201Y-85358207D01*
X163919565Y-85320740D01*
X163921190Y-85316815D01*
X163953259Y-85248045D01*
X163959500Y-85200639D01*
X163959499Y-84974362D01*
X163953259Y-84926955D01*
X163921201Y-84858207D01*
X163919565Y-84820740D01*
X163921190Y-84816815D01*
X163953259Y-84748045D01*
X163959500Y-84700639D01*
X163959499Y-84474362D01*
X163953259Y-84426955D01*
X163921201Y-84358207D01*
X163919565Y-84320740D01*
X163921190Y-84316815D01*
X163953259Y-84248045D01*
X163959500Y-84200639D01*
X163959499Y-83974362D01*
X163953259Y-83926955D01*
X163953258Y-83926953D01*
X163910209Y-83834635D01*
X163904747Y-83822921D01*
X163904746Y-83822920D01*
X163904745Y-83822918D01*
X163823581Y-83741754D01*
X163823579Y-83741753D01*
X163733975Y-83699970D01*
X163719546Y-83693241D01*
X163710063Y-83691992D01*
X163672139Y-83687000D01*
X163672135Y-83687000D01*
X163122333Y-83687000D01*
X163087685Y-83672648D01*
X162113867Y-82698829D01*
X162102266Y-82680367D01*
X162064456Y-82572310D01*
X162064454Y-82572307D01*
X162064454Y-82572306D01*
X162000878Y-82471126D01*
X161974477Y-82429110D01*
X161854890Y-82309523D01*
X161711690Y-82219544D01*
X161552059Y-82163687D01*
X161552055Y-82163686D01*
X161552053Y-82163686D01*
X161384000Y-82144751D01*
X161215946Y-82163686D01*
X161215937Y-82163688D01*
X161056310Y-82219544D01*
X161056308Y-82219545D01*
X160913112Y-82309521D01*
X160913108Y-82309524D01*
X160793524Y-82429108D01*
X160793521Y-82429112D01*
X160703545Y-82572308D01*
X160703544Y-82572310D01*
X160647688Y-82731937D01*
X160647686Y-82731946D01*
X160628751Y-82900000D01*
X160646997Y-83061941D01*
X160647687Y-83068059D01*
X160703544Y-83227690D01*
X160793523Y-83370890D01*
X160913110Y-83490477D01*
X161056310Y-83580456D01*
X161215941Y-83636313D01*
X161384000Y-83655249D01*
X161552059Y-83636313D01*
X161711690Y-83580456D01*
X161814771Y-83515684D01*
X161851744Y-83509402D01*
X161875489Y-83522526D01*
X162072420Y-83719457D01*
X162086772Y-83754105D01*
X162072420Y-83788753D01*
X162038254Y-83822918D01*
X162038253Y-83822920D01*
X161989742Y-83926952D01*
X161989741Y-83926953D01*
X161989741Y-83926954D01*
X161989741Y-83926955D01*
X161983501Y-83974360D01*
X161983500Y-83974364D01*
X161983501Y-84163000D01*
X161969149Y-84197648D01*
X161934501Y-84212000D01*
X161197333Y-84212000D01*
X161162685Y-84197648D01*
X160412437Y-83447399D01*
X160398085Y-83412751D01*
X160400111Y-83400833D01*
X160399701Y-83400740D01*
X160400313Y-83398057D01*
X160402839Y-83375638D01*
X160419249Y-83230000D01*
X160400313Y-83061941D01*
X160344456Y-82902310D01*
X160254477Y-82759110D01*
X160134890Y-82639523D01*
X160117492Y-82628591D01*
X160062430Y-82593992D01*
X160040728Y-82563406D01*
X160039500Y-82552503D01*
X160039500Y-82322000D01*
X160053852Y-82287352D01*
X160088500Y-82273000D01*
X160378180Y-82273000D01*
X160413048Y-82269250D01*
X160436299Y-82266751D01*
X160567778Y-82217712D01*
X160680116Y-82133616D01*
X160764212Y-82021278D01*
X160813251Y-81889799D01*
X160817376Y-81851432D01*
X160819500Y-81831680D01*
X160819500Y-81238319D01*
X160813251Y-81180204D01*
X160813251Y-81180203D01*
X160813251Y-81180201D01*
X160764212Y-81048722D01*
X160680116Y-80936384D01*
X160612612Y-80885851D01*
X160567780Y-80852289D01*
X160567778Y-80852288D01*
X160436299Y-80803249D01*
X160436298Y-80803248D01*
X160436296Y-80803248D01*
X160378180Y-80797000D01*
X160378174Y-80797000D01*
X159809826Y-80797000D01*
X159809820Y-80797000D01*
X159751704Y-80803248D01*
X159751703Y-80803248D01*
X159620219Y-80852289D01*
X159507884Y-80936384D01*
X159423789Y-81048719D01*
X159374748Y-81180203D01*
X159374748Y-81180204D01*
X159368500Y-81238319D01*
X159368500Y-81716484D01*
X159358168Y-81746580D01*
X159329192Y-81783809D01*
X159329189Y-81783814D01*
X159328924Y-81784587D01*
X159322467Y-81797131D01*
X159321992Y-81797795D01*
X159321991Y-81797798D01*
X159321990Y-81797800D01*
X159321990Y-81797801D01*
X159314512Y-81822918D01*
X159306329Y-81850403D01*
X159288500Y-81902338D01*
X159288500Y-81903154D01*
X159286463Y-81917135D01*
X159286231Y-81917911D01*
X159286231Y-81917912D01*
X159288500Y-81972755D01*
X159288500Y-82552503D01*
X159274148Y-82587151D01*
X159265570Y-82593992D01*
X159193112Y-82639521D01*
X159193108Y-82639524D01*
X159073524Y-82759108D01*
X159073521Y-82759112D01*
X158983545Y-82902308D01*
X158983544Y-82902310D01*
X158927688Y-83061937D01*
X158927686Y-83061946D01*
X158908751Y-83230000D01*
X158926558Y-83388047D01*
X158916176Y-83424084D01*
X158883352Y-83442225D01*
X158847315Y-83431843D01*
X158843222Y-83428185D01*
X158703852Y-83288814D01*
X158689500Y-83254166D01*
X158689500Y-82957017D01*
X158703852Y-82922369D01*
X158711278Y-82916275D01*
X158794601Y-82860601D01*
X158820763Y-82821446D01*
X158849966Y-82777740D01*
X158864500Y-82704674D01*
X158864500Y-80555326D01*
X158849966Y-80482260D01*
X158831918Y-80455249D01*
X158794602Y-80399399D01*
X158711277Y-80343724D01*
X158690442Y-80312542D01*
X158689500Y-80302982D01*
X158689500Y-80006680D01*
X159368500Y-80006680D01*
X159374748Y-80064795D01*
X159374748Y-80064796D01*
X159374748Y-80064798D01*
X159374749Y-80064799D01*
X159408329Y-80154832D01*
X159423789Y-80196280D01*
X159437178Y-80214165D01*
X159507884Y-80308616D01*
X159620222Y-80392712D01*
X159751701Y-80441751D01*
X159766232Y-80443313D01*
X159809820Y-80448000D01*
X159809826Y-80448000D01*
X160378180Y-80448000D01*
X160414078Y-80444140D01*
X160436299Y-80441751D01*
X160567778Y-80392712D01*
X160680116Y-80308616D01*
X160764212Y-80196278D01*
X160813251Y-80064799D01*
X160815750Y-80041549D01*
X160819500Y-80006680D01*
X160819500Y-79413319D01*
X160815090Y-79372308D01*
X160813251Y-79355201D01*
X160764212Y-79223722D01*
X160680116Y-79111384D01*
X160649789Y-79088681D01*
X160630653Y-79056428D01*
X160639928Y-79020090D01*
X160662029Y-79003545D01*
X160697778Y-78990212D01*
X160810116Y-78906116D01*
X160894212Y-78793778D01*
X160943251Y-78662299D01*
X160946901Y-78628351D01*
X160949500Y-78604180D01*
X160949500Y-78035819D01*
X160943251Y-77977704D01*
X160943251Y-77977703D01*
X160943251Y-77977701D01*
X160894212Y-77846222D01*
X160810116Y-77733884D01*
X160734349Y-77677165D01*
X160697780Y-77649789D01*
X160697778Y-77649788D01*
X160566299Y-77600749D01*
X160566298Y-77600748D01*
X160566296Y-77600748D01*
X160508180Y-77594500D01*
X160508174Y-77594500D01*
X159839826Y-77594500D01*
X159839820Y-77594500D01*
X159781704Y-77600748D01*
X159781703Y-77600748D01*
X159650219Y-77649789D01*
X159537884Y-77733884D01*
X159453789Y-77846219D01*
X159404748Y-77977703D01*
X159404748Y-77977704D01*
X159398500Y-78035819D01*
X159398500Y-78604180D01*
X159404748Y-78662295D01*
X159404748Y-78662296D01*
X159404748Y-78662298D01*
X159404749Y-78662299D01*
X159453788Y-78793778D01*
X159537884Y-78906116D01*
X159602497Y-78954485D01*
X159607585Y-78958294D01*
X159626721Y-78990547D01*
X159617446Y-79026885D01*
X159607585Y-79036746D01*
X159507884Y-79111383D01*
X159423789Y-79223719D01*
X159374748Y-79355203D01*
X159374748Y-79355204D01*
X159368500Y-79413319D01*
X159368500Y-80006680D01*
X158689500Y-80006680D01*
X158689500Y-77589832D01*
X158703852Y-77555184D01*
X159337685Y-76921352D01*
X159372333Y-76907000D01*
X159893180Y-76907000D01*
X159928049Y-76903250D01*
X159951299Y-76900751D01*
X160082778Y-76851712D01*
X160195116Y-76767616D01*
X160279212Y-76655278D01*
X160328251Y-76523799D01*
X160330750Y-76500548D01*
X160334500Y-76465680D01*
X160334500Y-75772319D01*
X160328251Y-75714204D01*
X160328251Y-75714203D01*
X160328251Y-75714201D01*
X160279212Y-75582722D01*
X160195116Y-75470384D01*
X160161265Y-75445043D01*
X160142129Y-75412790D01*
X160151404Y-75376452D01*
X160164906Y-75364112D01*
X160307040Y-75276442D01*
X160428943Y-75154539D01*
X160519452Y-75007803D01*
X160573681Y-74844148D01*
X160584000Y-74743149D01*
X160584000Y-74644000D01*
X159154000Y-74644000D01*
X159144807Y-74653192D01*
X159139648Y-74665648D01*
X159105000Y-74680000D01*
X158564000Y-74680000D01*
X158564000Y-75980000D01*
X158661834Y-75980000D01*
X158721372Y-75973598D01*
X158721380Y-75973596D01*
X158817376Y-75937792D01*
X158854855Y-75939130D01*
X158880410Y-75966578D01*
X158883500Y-75983702D01*
X158883500Y-76293165D01*
X158869148Y-76327813D01*
X158079609Y-77117351D01*
X158071764Y-77123723D01*
X158056161Y-77133917D01*
X158032935Y-77163759D01*
X158030925Y-77166035D01*
X158026480Y-77170481D01*
X158026479Y-77170481D01*
X158012905Y-77189495D01*
X157979192Y-77232809D01*
X157979189Y-77232814D01*
X157978924Y-77233587D01*
X157972467Y-77246131D01*
X157971992Y-77246795D01*
X157971991Y-77246798D01*
X157956329Y-77299403D01*
X157938500Y-77351338D01*
X157938500Y-77352154D01*
X157936463Y-77366135D01*
X157936231Y-77366911D01*
X157936231Y-77366912D01*
X157938500Y-77421755D01*
X157938500Y-80302982D01*
X157924148Y-80337630D01*
X157916723Y-80343724D01*
X157891223Y-80360763D01*
X157854441Y-80368080D01*
X157836777Y-80360763D01*
X157811277Y-80343724D01*
X157790441Y-80312541D01*
X157789500Y-80302982D01*
X157789500Y-77493023D01*
X157790543Y-77482967D01*
X157794367Y-77464731D01*
X157789688Y-77427195D01*
X157789500Y-77424162D01*
X157789500Y-77417889D01*
X157789500Y-77417888D01*
X157789500Y-77417886D01*
X157785655Y-77394847D01*
X157778865Y-77340374D01*
X157778513Y-77339654D01*
X157774197Y-77326187D01*
X157774065Y-77325390D01*
X157747942Y-77277119D01*
X157733706Y-77247999D01*
X157723828Y-77227791D01*
X157723824Y-77227786D01*
X157723249Y-77227211D01*
X157714804Y-77215886D01*
X157714419Y-77215174D01*
X157714197Y-77214970D01*
X157674041Y-77178003D01*
X156878852Y-76382813D01*
X156864500Y-76348165D01*
X156864500Y-75991162D01*
X156878852Y-75956514D01*
X156913500Y-75942162D01*
X156930624Y-75945252D01*
X157006619Y-75973596D01*
X157006627Y-75973598D01*
X157066166Y-75980000D01*
X157164000Y-75980000D01*
X157164000Y-74680000D01*
X157664000Y-74680000D01*
X157664000Y-75980000D01*
X157761835Y-75980000D01*
X157821374Y-75973598D01*
X157846875Y-75964087D01*
X157881125Y-75964087D01*
X157906625Y-75973598D01*
X157966165Y-75980000D01*
X158064000Y-75980000D01*
X158064000Y-74680000D01*
X157664000Y-74680000D01*
X157164000Y-74680000D01*
X156623000Y-74680000D01*
X156588352Y-74665648D01*
X156574000Y-74631000D01*
X156574000Y-74630000D01*
X155164001Y-74630000D01*
X155164001Y-74729148D01*
X155174318Y-74830148D01*
X155228547Y-74993803D01*
X155319056Y-75140539D01*
X155440960Y-75262443D01*
X155583092Y-75350112D01*
X155605047Y-75380517D01*
X155599073Y-75417541D01*
X155586734Y-75431042D01*
X155552884Y-75456383D01*
X155468789Y-75568719D01*
X155419748Y-75700203D01*
X155419748Y-75700204D01*
X155413500Y-75758319D01*
X155413500Y-76451680D01*
X155419748Y-76509795D01*
X155419748Y-76509796D01*
X155419748Y-76509798D01*
X155419749Y-76509799D01*
X155468788Y-76641278D01*
X155468789Y-76641279D01*
X155512494Y-76699663D01*
X155521768Y-76736001D01*
X155502631Y-76768254D01*
X155488680Y-76775540D01*
X155410196Y-76801547D01*
X155263460Y-76892056D01*
X155141556Y-77013960D01*
X155141552Y-77013965D01*
X155053885Y-77156093D01*
X155023481Y-77178048D01*
X154986457Y-77172073D01*
X154972958Y-77159736D01*
X154947616Y-77125884D01*
X154947615Y-77125883D01*
X154835280Y-77041789D01*
X154835278Y-77041788D01*
X154703799Y-76992749D01*
X154703798Y-76992748D01*
X154703796Y-76992748D01*
X154645680Y-76986500D01*
X154645674Y-76986500D01*
X153952326Y-76986500D01*
X153952320Y-76986500D01*
X153894204Y-76992748D01*
X153894203Y-76992748D01*
X153762719Y-77041789D01*
X153650384Y-77125884D01*
X153566289Y-77238219D01*
X153517248Y-77369703D01*
X153517248Y-77369704D01*
X153511000Y-77427819D01*
X153511000Y-77996180D01*
X153517248Y-78054295D01*
X153517248Y-78054296D01*
X153566289Y-78185780D01*
X153622562Y-78260951D01*
X153650384Y-78298116D01*
X153728866Y-78356867D01*
X153748001Y-78389119D01*
X153748500Y-78396092D01*
X153748500Y-78460500D01*
X153734148Y-78495148D01*
X153699500Y-78509500D01*
X153649322Y-78509500D01*
X153576260Y-78524033D01*
X153493398Y-78579398D01*
X153438033Y-78662260D01*
X153423500Y-78735322D01*
X153423500Y-78735325D01*
X153423500Y-78735326D01*
X153423500Y-80184674D01*
X153425809Y-80196280D01*
X153426736Y-80200941D01*
X153419419Y-80237723D01*
X153388236Y-80258559D01*
X153378677Y-80259500D01*
X153365550Y-80259500D01*
X153363526Y-80259416D01*
X153317563Y-80255608D01*
X153272856Y-80266928D01*
X153270875Y-80267344D01*
X153225389Y-80274935D01*
X153216813Y-80279575D01*
X153205531Y-80283977D01*
X153196080Y-80286371D01*
X153196075Y-80286373D01*
X153157470Y-80311594D01*
X153155731Y-80312631D01*
X153115178Y-80334577D01*
X153115172Y-80334582D01*
X153108568Y-80341755D01*
X153099327Y-80349581D01*
X153091164Y-80354914D01*
X153091162Y-80354917D01*
X153062841Y-80391304D01*
X153061532Y-80392849D01*
X153030297Y-80426781D01*
X153030295Y-80426784D01*
X153026380Y-80435709D01*
X153020180Y-80446114D01*
X153014192Y-80453809D01*
X153014190Y-80453813D01*
X152999217Y-80497426D01*
X152998481Y-80499312D01*
X152979958Y-80541541D01*
X152979956Y-80541550D01*
X152979151Y-80551260D01*
X152976665Y-80563116D01*
X152973500Y-80572337D01*
X152973500Y-80618450D01*
X152973416Y-80620474D01*
X152970453Y-80656243D01*
X152969608Y-80666437D01*
X152972001Y-80675886D01*
X152973500Y-80687914D01*
X152973500Y-83736470D01*
X152972457Y-83746525D01*
X152969150Y-83762299D01*
X152968633Y-83764763D01*
X152973312Y-83802299D01*
X152973500Y-83805332D01*
X152973500Y-83811609D01*
X152977342Y-83834634D01*
X152977342Y-83834635D01*
X152984133Y-83889120D01*
X152984491Y-83889852D01*
X152988800Y-83903298D01*
X152988935Y-83904105D01*
X152992372Y-83910456D01*
X153015055Y-83952373D01*
X153039171Y-84001702D01*
X153039175Y-84001707D01*
X153039747Y-84002279D01*
X153048193Y-84013606D01*
X153048578Y-84014318D01*
X153048580Y-84014320D01*
X153048581Y-84014321D01*
X153073299Y-84037076D01*
X153088969Y-84051502D01*
X153491855Y-84454388D01*
X153498227Y-84462235D01*
X153508416Y-84477829D01*
X153508421Y-84477836D01*
X153538269Y-84501067D01*
X153540545Y-84503078D01*
X153544987Y-84507520D01*
X153564000Y-84521094D01*
X153607316Y-84554809D01*
X153608077Y-84555070D01*
X153620649Y-84561541D01*
X153621306Y-84562010D01*
X153673908Y-84577670D01*
X153725845Y-84595500D01*
X153726661Y-84595500D01*
X153740641Y-84597537D01*
X153741417Y-84597768D01*
X153796261Y-84595500D01*
X153963929Y-84595500D01*
X153998577Y-84609852D01*
X154012929Y-84644500D01*
X153998577Y-84679148D01*
X153985494Y-84687555D01*
X153985797Y-84688109D01*
X153982720Y-84689788D01*
X153870384Y-84773884D01*
X153786288Y-84886220D01*
X153786287Y-84886222D01*
X153763371Y-84947661D01*
X153737816Y-84975108D01*
X153723523Y-84979160D01*
X153695494Y-84982654D01*
X153682192Y-84984312D01*
X153679162Y-84984500D01*
X153672886Y-84984500D01*
X153649859Y-84988342D01*
X153607450Y-84993628D01*
X153595372Y-84995134D01*
X153594632Y-84995496D01*
X153581198Y-84999800D01*
X153580390Y-84999934D01*
X153532122Y-85026055D01*
X153482786Y-85050175D01*
X153482783Y-85050177D01*
X153482203Y-85050758D01*
X153470903Y-85059185D01*
X153470179Y-85059576D01*
X153470170Y-85059584D01*
X153432993Y-85099969D01*
X153089609Y-85443351D01*
X153081764Y-85449723D01*
X153066161Y-85459917D01*
X153042935Y-85489759D01*
X153040925Y-85492035D01*
X153036480Y-85496481D01*
X153036479Y-85496481D01*
X153022905Y-85515495D01*
X152989192Y-85558809D01*
X152989189Y-85558814D01*
X152988924Y-85559587D01*
X152982467Y-85572131D01*
X152981992Y-85572795D01*
X152981991Y-85572798D01*
X152981990Y-85572800D01*
X152981990Y-85572801D01*
X152971300Y-85608707D01*
X152966329Y-85625403D01*
X152948500Y-85677338D01*
X152948500Y-85678154D01*
X152946463Y-85692135D01*
X152946231Y-85692911D01*
X152946231Y-85692912D01*
X152948500Y-85747755D01*
X152948500Y-90555975D01*
X152947456Y-90566030D01*
X152943633Y-90584268D01*
X152221500Y-90584268D01*
X152221500Y-74130000D01*
X155164000Y-74130000D01*
X155889000Y-74130000D01*
X155889000Y-73342499D01*
X155852352Y-73342500D01*
X155751351Y-73352818D01*
X155587696Y-73407047D01*
X155440960Y-73497556D01*
X155319056Y-73619460D01*
X155228547Y-73766196D01*
X155174318Y-73929851D01*
X155164000Y-74030850D01*
X155164000Y-74130000D01*
X152221500Y-74130000D01*
X152221500Y-72908419D01*
X152235852Y-72873771D01*
X152270498Y-72859419D01*
X156824751Y-72861762D01*
G37*
%TD.AperFunction*%
%TD*%
M02*
