%TF.GenerationSoftware,KiCad,Pcbnew,8.0.6*%
%TF.CreationDate,2025-05-05T17:48:56+05:00*%
%TF.ProjectId,Stm32Board,53746d33-3242-46f6-9172-642e6b696361,rev?*%
%TF.SameCoordinates,Original*%
%TF.FileFunction,Copper,L1,Top*%
%TF.FilePolarity,Positive*%
%FSLAX46Y46*%
G04 Gerber Fmt 4.6, Leading zero omitted, Abs format (unit mm)*
G04 Created by KiCad (PCBNEW 8.0.6) date 2025-05-05 17:48:56*
%MOMM*%
%LPD*%
G01*
G04 APERTURE LIST*
G04 Aperture macros list*
%AMRoundRect*
0 Rectangle with rounded corners*
0 $1 Rounding radius*
0 $2 $3 $4 $5 $6 $7 $8 $9 X,Y pos of 4 corners*
0 Add a 4 corners polygon primitive as box body*
4,1,4,$2,$3,$4,$5,$6,$7,$8,$9,$2,$3,0*
0 Add four circle primitives for the rounded corners*
1,1,$1+$1,$2,$3*
1,1,$1+$1,$4,$5*
1,1,$1+$1,$6,$7*
1,1,$1+$1,$8,$9*
0 Add four rect primitives between the rounded corners*
20,1,$1+$1,$2,$3,$4,$5,0*
20,1,$1+$1,$4,$5,$6,$7,0*
20,1,$1+$1,$6,$7,$8,$9,0*
20,1,$1+$1,$8,$9,$2,$3,0*%
G04 Aperture macros list end*
%TA.AperFunction,SMDPad,CuDef*%
%ADD10C,1.000000*%
%TD*%
%TA.AperFunction,SMDPad,CuDef*%
%ADD11RoundRect,0.150000X0.150000X-0.512500X0.150000X0.512500X-0.150000X0.512500X-0.150000X-0.512500X0*%
%TD*%
%TA.AperFunction,SMDPad,CuDef*%
%ADD12C,1.500000*%
%TD*%
%TA.AperFunction,SMDPad,CuDef*%
%ADD13RoundRect,0.237500X0.237500X-0.300000X0.237500X0.300000X-0.237500X0.300000X-0.237500X-0.300000X0*%
%TD*%
%TA.AperFunction,SMDPad,CuDef*%
%ADD14R,1.700000X0.900000*%
%TD*%
%TA.AperFunction,SMDPad,CuDef*%
%ADD15RoundRect,0.237500X0.300000X0.237500X-0.300000X0.237500X-0.300000X-0.237500X0.300000X-0.237500X0*%
%TD*%
%TA.AperFunction,SMDPad,CuDef*%
%ADD16RoundRect,0.237500X-0.237500X0.300000X-0.237500X-0.300000X0.237500X-0.300000X0.237500X0.300000X0*%
%TD*%
%TA.AperFunction,SMDPad,CuDef*%
%ADD17R,1.200000X1.400000*%
%TD*%
%TA.AperFunction,SMDPad,CuDef*%
%ADD18RoundRect,0.237500X-0.300000X-0.237500X0.300000X-0.237500X0.300000X0.237500X-0.300000X0.237500X0*%
%TD*%
%TA.AperFunction,SMDPad,CuDef*%
%ADD19RoundRect,0.150000X-0.150000X0.512500X-0.150000X-0.512500X0.150000X-0.512500X0.150000X0.512500X0*%
%TD*%
%TA.AperFunction,SMDPad,CuDef*%
%ADD20RoundRect,0.237500X-0.250000X-0.237500X0.250000X-0.237500X0.250000X0.237500X-0.250000X0.237500X0*%
%TD*%
%TA.AperFunction,SMDPad,CuDef*%
%ADD21RoundRect,0.250000X-0.450000X0.350000X-0.450000X-0.350000X0.450000X-0.350000X0.450000X0.350000X0*%
%TD*%
%TA.AperFunction,SMDPad,CuDef*%
%ADD22R,1.380000X0.450000*%
%TD*%
%TA.AperFunction,SMDPad,CuDef*%
%ADD23R,1.300000X1.650000*%
%TD*%
%TA.AperFunction,SMDPad,CuDef*%
%ADD24R,1.550000X1.425000*%
%TD*%
%TA.AperFunction,SMDPad,CuDef*%
%ADD25R,1.900000X1.800000*%
%TD*%
%TA.AperFunction,SMDPad,CuDef*%
%ADD26R,1.900000X1.000000*%
%TD*%
%TA.AperFunction,SMDPad,CuDef*%
%ADD27R,0.600000X2.100000*%
%TD*%
%TA.AperFunction,SMDPad,CuDef*%
%ADD28RoundRect,0.237500X-0.237500X0.250000X-0.237500X-0.250000X0.237500X-0.250000X0.237500X0.250000X0*%
%TD*%
%TA.AperFunction,SMDPad,CuDef*%
%ADD29RoundRect,0.075000X-0.662500X-0.075000X0.662500X-0.075000X0.662500X0.075000X-0.662500X0.075000X0*%
%TD*%
%TA.AperFunction,SMDPad,CuDef*%
%ADD30RoundRect,0.075000X-0.075000X-0.662500X0.075000X-0.662500X0.075000X0.662500X-0.075000X0.662500X0*%
%TD*%
%TA.AperFunction,SMDPad,CuDef*%
%ADD31RoundRect,0.237500X0.237500X-0.250000X0.237500X0.250000X-0.237500X0.250000X-0.237500X-0.250000X0*%
%TD*%
%TA.AperFunction,SMDPad,CuDef*%
%ADD32RoundRect,0.237500X0.287500X0.237500X-0.287500X0.237500X-0.287500X-0.237500X0.287500X-0.237500X0*%
%TD*%
%TA.AperFunction,Conductor*%
%ADD33C,0.250000*%
%TD*%
%TA.AperFunction,Conductor*%
%ADD34C,0.400000*%
%TD*%
%TA.AperFunction,Conductor*%
%ADD35C,0.500000*%
%TD*%
%TA.AperFunction,Conductor*%
%ADD36C,0.350000*%
%TD*%
G04 APERTURE END LIST*
D10*
%TO.P,,1,1*%
%TO.N,GND*%
X154614000Y-94110000D03*
%TD*%
D11*
%TO.P,U3,3,VI*%
%TO.N,Net-(U2-CE)*%
X176434000Y-84510000D03*
%TO.P,U3,2,VO*%
%TO.N,+3.3V*%
X177384000Y-86785000D03*
%TO.P,U3,1,GND*%
%TO.N,GND*%
X175484000Y-86785000D03*
%TD*%
D12*
%TO.P,3.3v CPU,1,1*%
%TO.N,+3.3V*%
X180709000Y-85500000D03*
%TD*%
D10*
%TO.P,ADC_VCC0,1,1*%
%TO.N,Net-(U1-VDDA)*%
X155764000Y-91720000D03*
%TD*%
%TO.P,A9,1,1*%
%TO.N,Net-(U1-PA9)*%
X177859000Y-90275000D03*
%TD*%
%TO.P,A5,1,1*%
%TO.N,Net-(U1-PA5)*%
X158039000Y-95850000D03*
%TD*%
%TO.P,,1,1*%
%TO.N,+3.3V*%
X171194000Y-82640000D03*
%TD*%
D13*
%TO.P,C1,1*%
%TO.N,Net-(U1-PC15)*%
X156139000Y-76105000D03*
%TO.P,C1,2*%
%TO.N,GND*%
X156139000Y-74380000D03*
%TD*%
D10*
%TO.P,B11,1,1*%
%TO.N,Net-(U1-PB11)*%
X170759000Y-95790000D03*
%TD*%
%TO.P,A13,1,1*%
%TO.N,Net-(U1-PA13)*%
X172609000Y-79525000D03*
%TD*%
%TO.P,A10,1,1*%
%TO.N,Net-(U1-PA10)*%
X177864000Y-88560000D03*
%TD*%
%TO.P,TP2,1,1*%
%TO.N,Net-(U1-PC13)*%
X159664000Y-83230000D03*
%TD*%
%TO.P,TP9,1,1*%
%TO.N,N/C*%
X180384000Y-93000000D03*
%TD*%
D14*
%TO.P,SW1,1,1*%
%TO.N,Net-(U1-NRST)*%
X155024000Y-86760000D03*
%TO.P,SW1,2,2*%
%TO.N,GND*%
X155024000Y-90160000D03*
%TD*%
D15*
%TO.P,C4,1*%
%TO.N,GND*%
X156024000Y-77712000D03*
%TO.P,C4,2*%
%TO.N,Net-(U1-PH1)*%
X154299000Y-77712000D03*
%TD*%
D10*
%TO.P,B7,1,1*%
%TO.N,Net-(U1-PB7)*%
X165779000Y-74575000D03*
%TD*%
D16*
%TO.P,C2,1*%
%TO.N,GND*%
X159609000Y-74394000D03*
%TO.P,C2,2*%
%TO.N,Net-(U1-PC14)*%
X159609000Y-76119000D03*
%TD*%
D17*
%TO.P,Y2,1,1*%
%TO.N,Net-(U1-PH1)*%
X154274000Y-79460000D03*
%TO.P,Y2,2,2*%
%TO.N,GND*%
X154274000Y-81660000D03*
%TO.P,Y2,3,3*%
%TO.N,Net-(U1-PH0)*%
X155974000Y-81660000D03*
%TO.P,Y2,4,4*%
%TO.N,GND*%
X155974000Y-79460000D03*
%TD*%
D18*
%TO.P,C5,1*%
%TO.N,Net-(U2-CE)*%
X176509000Y-82787500D03*
%TO.P,C5,2*%
%TO.N,GND*%
X178234000Y-82787500D03*
%TD*%
D10*
%TO.P,A6,1,1*%
%TO.N,Net-(U1-PA6)*%
X160034000Y-96270000D03*
%TD*%
%TO.P,TP36,1,1*%
%TO.N,Net-(U1-VLCD)*%
X161384000Y-82900000D03*
%TD*%
D19*
%TO.P,U2,1,VIN*%
%TO.N,Net-(U2-CE)*%
X178334000Y-84512500D03*
%TO.P,U2,2,GND*%
%TO.N,GND*%
X177384000Y-84512500D03*
%TO.P,U2,3,CE*%
%TO.N,Net-(U2-CE)*%
X176434000Y-84512500D03*
%TO.P,U2,4,NC*%
%TO.N,unconnected-(U2-NC-Pad4)*%
X176434000Y-86787500D03*
%TO.P,U2,5,VOUT*%
%TO.N,+3.3V*%
X178334000Y-86787500D03*
%TD*%
D10*
%TO.P,TP9,1,1*%
%TO.N,+3.3V*%
X180759000Y-87487500D03*
%TD*%
D20*
%TO.P,R2,1*%
%TO.N,+3.3V*%
X154469000Y-85360000D03*
%TO.P,R2,2*%
%TO.N,Net-(U1-NRST)*%
X156294000Y-85360000D03*
%TD*%
D10*
%TO.P,A2,1,1*%
%TO.N,Net-(U1-PA2)*%
X159744000Y-92590000D03*
%TD*%
D13*
%TO.P,C9,1*%
%TO.N,Net-(U1-VDDA)*%
X157454000Y-88965000D03*
%TO.P,C9,2*%
%TO.N,GND*%
X157454000Y-87240000D03*
%TD*%
D10*
%TO.P,B2,1,1*%
%TO.N,Net-(U1-PB2)*%
X167134000Y-96270000D03*
%TD*%
%TO.P,B8,1,1*%
%TO.N,Net-(U1-PB8)*%
X163409000Y-74550000D03*
%TD*%
%TO.P,TP3,1,1*%
%TO.N,Net-(U1-BOOT0)*%
X165859000Y-79700000D03*
%TD*%
%TO.P,B13,1,1*%
%TO.N,Net-(U1-PB13)*%
X175809000Y-94875000D03*
%TD*%
D15*
%TO.P,C3,1*%
%TO.N,Net-(U1-PH0)*%
X156046500Y-83420000D03*
%TO.P,C3,2*%
%TO.N,GND*%
X154321500Y-83420000D03*
%TD*%
D10*
%TO.P,TP39,1,1*%
%TO.N,+3.3V*%
X162646500Y-81112500D03*
%TD*%
%TO.P,B10,1,1*%
%TO.N,Net-(U1-PB10)*%
X169034000Y-95790000D03*
%TD*%
%TO.P,B1,1,1*%
%TO.N,Net-(U1-PB1)*%
X165359000Y-96270000D03*
%TD*%
%TO.P,B9,1,1*%
%TO.N,Net-(U1-PB9)*%
X161584000Y-74550000D03*
%TD*%
D16*
%TO.P,C6,1*%
%TO.N,+3.3V*%
X171034000Y-91450000D03*
%TO.P,C6,2*%
%TO.N,GND*%
X171034000Y-93175000D03*
%TD*%
D10*
%TO.P,B6,1,1*%
%TO.N,Net-(U1-PB6)*%
X167554000Y-74550000D03*
%TD*%
%TO.P,,1,1*%
%TO.N,GND*%
X172034000Y-81400000D03*
%TD*%
D21*
%TO.P,FB1,1*%
%TO.N,Net-(U1-VDDA)*%
X157644000Y-90650000D03*
%TO.P,FB1,2*%
%TO.N,+3.3V*%
X157644000Y-92650000D03*
%TD*%
D22*
%TO.P,J1,1,VBUS*%
%TO.N,+5V*%
X177324000Y-78775000D03*
%TO.P,J1,2,D-*%
%TO.N,Net-(J1-D-)*%
X177324000Y-78125000D03*
%TO.P,J1,3,D+*%
%TO.N,Net-(J1-D+)*%
X177324000Y-77475000D03*
%TO.P,J1,4,ID*%
%TO.N,Net-(J1-ID)*%
X177324000Y-76825000D03*
%TO.P,J1,5,GND*%
%TO.N,GND*%
X177324000Y-76175000D03*
D23*
%TO.P,J1,6,Shield*%
X179984000Y-80850000D03*
D24*
X177409000Y-79962500D03*
D25*
X179984000Y-78625000D03*
D26*
X179984000Y-75925000D03*
D24*
X177409000Y-74987500D03*
D23*
X179984000Y-74100000D03*
%TD*%
D10*
%TO.P,A4,1,1*%
%TO.N,Net-(U1-PA4)*%
X156264000Y-95875000D03*
%TD*%
D27*
%TO.P,Y1,1,1*%
%TO.N,Net-(U1-PC14)*%
X158314000Y-81630000D03*
%TO.P,Y1,2,2*%
%TO.N,GND*%
X158314000Y-74430000D03*
%TO.P,Y1,3,3*%
X157414000Y-74430000D03*
%TO.P,Y1,4,4*%
%TO.N,Net-(U1-PC15)*%
X157414000Y-81630000D03*
%TD*%
D10*
%TO.P,B5,1,1*%
%TO.N,Net-(U1-PB5)*%
X169304000Y-74550000D03*
%TD*%
%TO.P,B12,1,1*%
%TO.N,Net-(U1-PB12)*%
X174034000Y-94900000D03*
%TD*%
%TO.P,,1,1*%
%TO.N,GND*%
X153234000Y-92750000D03*
%TD*%
D28*
%TO.P,R1,1*%
%TO.N,GND*%
X165844000Y-76325000D03*
%TO.P,R1,2*%
%TO.N,Net-(U1-BOOT0)*%
X165844000Y-78150000D03*
%TD*%
D10*
%TO.P,A7,1,1*%
%TO.N,Net-(U1-PA7)*%
X161809000Y-96270000D03*
%TD*%
%TO.P,TP1,1,1*%
%TO.N,Net-(J1-ID)*%
X175184000Y-76460000D03*
%TD*%
D21*
%TO.P,FB2,1*%
%TO.N,+5V*%
X175134000Y-79562500D03*
%TO.P,FB2,2*%
%TO.N,Net-(U2-CE)*%
X175134000Y-81562500D03*
%TD*%
D29*
%TO.P,U1,1,VLCD*%
%TO.N,Net-(U1-VLCD)*%
X162971500Y-84087500D03*
%TO.P,U1,2,PC13*%
%TO.N,Net-(U1-PC13)*%
X162971500Y-84587500D03*
%TO.P,U1,3,PC14*%
%TO.N,Net-(U1-PC14)*%
X162971500Y-85087500D03*
%TO.P,U1,4,PC15*%
%TO.N,Net-(U1-PC15)*%
X162971500Y-85587500D03*
%TO.P,U1,5,PH0*%
%TO.N,Net-(U1-PH0)*%
X162971500Y-86087500D03*
%TO.P,U1,6,PH1*%
%TO.N,Net-(U1-PH1)*%
X162971500Y-86587500D03*
%TO.P,U1,7,NRST*%
%TO.N,Net-(U1-NRST)*%
X162971500Y-87087500D03*
%TO.P,U1,8,VSSA*%
%TO.N,GND*%
X162971500Y-87587500D03*
%TO.P,U1,9,VDDA*%
%TO.N,Net-(U1-VDDA)*%
X162971500Y-88087500D03*
%TO.P,U1,10,PA0*%
%TO.N,Net-(U1-PA0)*%
X162971500Y-88587500D03*
%TO.P,U1,11,PA1*%
%TO.N,Net-(U1-PA1)*%
X162971500Y-89087500D03*
%TO.P,U1,12,PA2*%
%TO.N,Net-(U1-PA2)*%
X162971500Y-89587500D03*
D30*
%TO.P,U1,13,PA3*%
%TO.N,Net-(U1-PA3)*%
X164384000Y-91000000D03*
%TO.P,U1,14,PA4*%
%TO.N,Net-(U1-PA4)*%
X164884000Y-91000000D03*
%TO.P,U1,15,PA5*%
%TO.N,Net-(U1-PA5)*%
X165384000Y-91000000D03*
%TO.P,U1,16,PA6*%
%TO.N,Net-(U1-PA6)*%
X165884000Y-91000000D03*
%TO.P,U1,17,PA7*%
%TO.N,Net-(U1-PA7)*%
X166384000Y-91000000D03*
%TO.P,U1,18,PB0*%
%TO.N,Net-(U1-PB0)*%
X166884000Y-91000000D03*
%TO.P,U1,19,PB1*%
%TO.N,Net-(U1-PB1)*%
X167384000Y-91000000D03*
%TO.P,U1,20,PB2*%
%TO.N,Net-(U1-PB2)*%
X167884000Y-91000000D03*
%TO.P,U1,21,PB10*%
%TO.N,Net-(U1-PB10)*%
X168384000Y-91000000D03*
%TO.P,U1,22,PB11*%
%TO.N,Net-(U1-PB11)*%
X168884000Y-91000000D03*
%TO.P,U1,23,VSS*%
%TO.N,GND*%
X169384000Y-91000000D03*
%TO.P,U1,24,VDD*%
%TO.N,+3.3V*%
X169884000Y-91000000D03*
D29*
%TO.P,U1,25,PB12*%
%TO.N,Net-(U1-PB12)*%
X171296500Y-89587500D03*
%TO.P,U1,26,PB13*%
%TO.N,Net-(U1-PB13)*%
X171296500Y-89087500D03*
%TO.P,U1,27,PB14*%
%TO.N,Net-(U1-PB14)*%
X171296500Y-88587500D03*
%TO.P,U1,28,PB15*%
%TO.N,Net-(U1-PB15)*%
X171296500Y-88087500D03*
%TO.P,U1,29,PA8*%
%TO.N,Net-(U1-PA8)*%
X171296500Y-87587500D03*
%TO.P,U1,30,PA9*%
%TO.N,Net-(U1-PA9)*%
X171296500Y-87087500D03*
%TO.P,U1,31,PA10*%
%TO.N,Net-(U1-PA10)*%
X171296500Y-86587500D03*
%TO.P,U1,32,PA11*%
%TO.N,Net-(J1-D-)*%
X171296500Y-86087500D03*
%TO.P,U1,33,PA12*%
%TO.N,Net-(J1-D+)*%
X171296500Y-85587500D03*
%TO.P,U1,34,PA13*%
%TO.N,Net-(U1-PA13)*%
X171296500Y-85087500D03*
%TO.P,U1,35,VSS*%
%TO.N,GND*%
X171296500Y-84587500D03*
%TO.P,U1,36,VDD*%
%TO.N,+3.3V*%
X171296500Y-84087500D03*
D30*
%TO.P,U1,37,PA14*%
%TO.N,Net-(U1-PA14)*%
X169884000Y-82675000D03*
%TO.P,U1,38,PA15*%
%TO.N,Net-(U1-PA15)*%
X169384000Y-82675000D03*
%TO.P,U1,39,PB3*%
%TO.N,Net-(U1-PB3)*%
X168884000Y-82675000D03*
%TO.P,U1,40,PB4*%
%TO.N,Net-(U1-PB4)*%
X168384000Y-82675000D03*
%TO.P,U1,41,PB5*%
%TO.N,Net-(U1-PB5)*%
X167884000Y-82675000D03*
%TO.P,U1,42,PB6*%
%TO.N,Net-(U1-PB6)*%
X167384000Y-82675000D03*
%TO.P,U1,43,PB7*%
%TO.N,Net-(U1-PB7)*%
X166884000Y-82675000D03*
%TO.P,U1,44,BOOT0*%
%TO.N,Net-(U1-BOOT0)*%
X166384000Y-82675000D03*
%TO.P,U1,45,PB8*%
%TO.N,Net-(U1-PB8)*%
X165884000Y-82675000D03*
%TO.P,U1,46,PB9*%
%TO.N,Net-(U1-PB9)*%
X165384000Y-82675000D03*
%TO.P,U1,47,VSS*%
%TO.N,GND*%
X164884000Y-82675000D03*
%TO.P,U1,48,VDD*%
%TO.N,+3.3V*%
X164384000Y-82675000D03*
%TD*%
D10*
%TO.P,A3,1,1*%
%TO.N,Net-(U1-PA3)*%
X154249000Y-96350000D03*
%TD*%
%TO.P,A0,1,1*%
%TO.N,Net-(U1-PA0)*%
X159814000Y-89140000D03*
%TD*%
D31*
%TO.P,R4,1*%
%TO.N,Net-(U1-PC13)*%
X160094000Y-81535000D03*
%TO.P,R4,2*%
%TO.N,Net-(D1-A)*%
X160094000Y-79710000D03*
%TD*%
D10*
%TO.P,A8,1,1*%
%TO.N,Net-(U1-PA8)*%
X177809000Y-92050000D03*
%TD*%
%TO.P,B4,1,1*%
%TO.N,Net-(U1-PB4)*%
X171054000Y-74525000D03*
%TD*%
D32*
%TO.P,D1,1,K*%
%TO.N,+3.3V*%
X161924000Y-78320000D03*
%TO.P,D1,2,A*%
%TO.N,Net-(D1-A)*%
X160174000Y-78320000D03*
%TD*%
D10*
%TO.P,B3,1,1*%
%TO.N,Net-(U1-PB3)*%
X172779000Y-74550000D03*
%TD*%
%TO.P,TP9,1,1*%
%TO.N,N/C*%
X180484000Y-90100000D03*
%TD*%
%TO.P,,1,1*%
%TO.N,GND*%
X153234000Y-94100000D03*
%TD*%
%TO.P,B14,1,1*%
%TO.N,Net-(U1-PB14)*%
X177559000Y-94875000D03*
%TD*%
%TO.P,TP10,1,1*%
%TO.N,GND*%
X181509000Y-83175000D03*
%TD*%
%TO.P,A15,1,1*%
%TO.N,Net-(U1-PA15)*%
X174554000Y-74550000D03*
%TD*%
%TO.P,A1,1,1*%
%TO.N,Net-(U1-PA1)*%
X159784000Y-90810000D03*
%TD*%
%TO.P,B15,1,1*%
%TO.N,Net-(U1-PB15)*%
X179309000Y-94875000D03*
%TD*%
%TO.P,TP9,1,1*%
%TO.N,N/C*%
X180434000Y-91550000D03*
%TD*%
%TO.P,B0,1,1*%
%TO.N,Net-(U1-PB0)*%
X163584000Y-96270000D03*
%TD*%
%TO.P,,1,1*%
%TO.N,+3.3V*%
X161934000Y-76800000D03*
%TD*%
%TO.P,,1,1*%
%TO.N,GND*%
X172124000Y-97060000D03*
%TD*%
%TO.P,A14,1,1*%
%TO.N,Net-(U1-PA14)*%
X170509000Y-80700000D03*
%TD*%
D33*
%TO.N,GND*%
X164884000Y-81710000D02*
X164414000Y-81240000D01*
X164884000Y-82675000D02*
X164884000Y-81710000D01*
%TO.N,Net-(U1-PA10)*%
X175614000Y-88560000D02*
X177864000Y-88560000D01*
X173641500Y-86587500D02*
X175614000Y-88560000D01*
X171296500Y-86587500D02*
X173641500Y-86587500D01*
%TO.N,Net-(U1-PA9)*%
X176670396Y-90275000D02*
X177859000Y-90275000D01*
X171296500Y-87087500D02*
X173482896Y-87087500D01*
X173482896Y-87087500D02*
X176670396Y-90275000D01*
%TO.N,GND*%
X169384000Y-92000000D02*
X170559000Y-93175000D01*
X170559000Y-93175000D02*
X171034000Y-93175000D01*
X169384000Y-91000000D02*
X169384000Y-92000000D01*
%TO.N,+3.3V*%
X171194000Y-82940000D02*
X171324000Y-83070000D01*
X171194000Y-82640000D02*
X171194000Y-82940000D01*
X171296500Y-82742500D02*
X171194000Y-82640000D01*
X171296500Y-84087500D02*
X171296500Y-82742500D01*
%TO.N,GND*%
X157801500Y-87587500D02*
X157454000Y-87240000D01*
X164511500Y-87587500D02*
X157801500Y-87587500D01*
%TO.N,+3.3V*%
X178331500Y-86785000D02*
X178334000Y-86787500D01*
X177384000Y-86785000D02*
X178331500Y-86785000D01*
%TO.N,Net-(U2-CE)*%
X179096500Y-83750000D02*
X178334000Y-84512500D01*
X179096500Y-82310424D02*
X179096500Y-83750000D01*
X177309000Y-81987500D02*
X178773576Y-81987500D01*
X176509000Y-82787500D02*
X177309000Y-81987500D01*
X178773576Y-81987500D02*
X179096500Y-82310424D01*
%TO.N,Net-(U1-PH0)*%
X160044812Y-85520000D02*
X160612312Y-86087500D01*
X155994000Y-83367500D02*
X156046500Y-83420000D01*
X160612312Y-86087500D02*
X162971500Y-86087500D01*
X155994000Y-82030000D02*
X155994000Y-83367500D01*
X157031208Y-83420000D02*
X159131208Y-85520000D01*
X159131208Y-85520000D02*
X160044812Y-85520000D01*
X156046500Y-83420000D02*
X157031208Y-83420000D01*
%TO.N,GND*%
X159609000Y-74394000D02*
X156184000Y-74394000D01*
X172359000Y-81200000D02*
X171434000Y-80275000D01*
X171434000Y-78780000D02*
X175351500Y-74862500D01*
X171296500Y-84587500D02*
X172099685Y-84587500D01*
X155974000Y-79710000D02*
X154294000Y-81390000D01*
X171434000Y-80275000D02*
X171434000Y-78780000D01*
X177384000Y-83637500D02*
X177384000Y-84512500D01*
X154294000Y-82030000D02*
X154294000Y-83392500D01*
X175351500Y-74862500D02*
X177284000Y-74862500D01*
X155974000Y-79460000D02*
X155974000Y-79710000D01*
X154294000Y-83392500D02*
X154321500Y-83420000D01*
X172359000Y-84328185D02*
X172359000Y-81200000D01*
X177284000Y-74862500D02*
X177409000Y-74987500D01*
X156199000Y-77712000D02*
X156199000Y-79625000D01*
X178234000Y-82787500D02*
X177384000Y-83637500D01*
X154294000Y-81390000D02*
X154294000Y-81780000D01*
X172099685Y-84587500D02*
X172359000Y-84328185D01*
%TO.N,Net-(U1-PH1)*%
X153739000Y-80635000D02*
X153349000Y-80635000D01*
X159858416Y-85970000D02*
X160475916Y-86587500D01*
X153788505Y-84220000D02*
X157194812Y-84220000D01*
X153349000Y-83780495D02*
X153788505Y-84220000D01*
X157194812Y-84220000D02*
X158944812Y-85970000D01*
X154294000Y-80080000D02*
X153739000Y-80635000D01*
X160475916Y-86587500D02*
X162971500Y-86587500D01*
X158944812Y-85970000D02*
X159858416Y-85970000D01*
X153349000Y-80635000D02*
X153349000Y-83780495D01*
X154124000Y-77712000D02*
X154124000Y-79660000D01*
%TO.N,Net-(U1-PC14)*%
X159504000Y-84620000D02*
X160417604Y-84620000D01*
X158314000Y-83430000D02*
X159504000Y-84620000D01*
X160417604Y-84620000D02*
X160885104Y-85087500D01*
X158314000Y-81630000D02*
X158314000Y-83430000D01*
X158314000Y-77414000D02*
X158314000Y-81630000D01*
X160885104Y-85087500D02*
X162971500Y-85087500D01*
X159609000Y-76119000D02*
X158314000Y-77414000D01*
%TO.N,Net-(U1-PC15)*%
X157414000Y-77449000D02*
X157414000Y-81630000D01*
X160748708Y-85587500D02*
X162971500Y-85587500D01*
X160231208Y-85070000D02*
X160748708Y-85587500D01*
X159317604Y-85070000D02*
X160231208Y-85070000D01*
X157414000Y-83166396D02*
X159317604Y-85070000D01*
X156134000Y-76169000D02*
X157414000Y-77449000D01*
X157414000Y-81630000D02*
X157414000Y-83166396D01*
%TO.N,Net-(U2-CE)*%
X176509000Y-82787500D02*
X175559000Y-82787500D01*
X176434000Y-82862500D02*
X176509000Y-82787500D01*
X176434000Y-84512500D02*
X176434000Y-82862500D01*
X175134000Y-82362500D02*
X175134000Y-81562500D01*
X175559000Y-82787500D02*
X175134000Y-82362500D01*
%TO.N,+3.3V*%
X161934000Y-76800000D02*
X161934000Y-78310000D01*
X153324000Y-90600000D02*
X153324000Y-85740000D01*
X169884000Y-91000000D02*
X169884000Y-89860000D01*
X161934000Y-78310000D02*
X161924000Y-78320000D01*
X179421500Y-86787500D02*
X180709000Y-85500000D01*
X153704000Y-85360000D02*
X154469000Y-85360000D01*
X161924000Y-78320000D02*
X161924000Y-80390000D01*
X153324000Y-85740000D02*
X153704000Y-85360000D01*
D34*
X169884000Y-84330000D02*
X169884000Y-89860000D01*
D33*
X161924000Y-80390000D02*
X162646500Y-81112500D01*
D35*
X171709000Y-91450000D02*
X171034000Y-91450000D01*
D34*
X169884000Y-89860000D02*
X169654000Y-89630000D01*
D35*
X180759000Y-87487500D02*
X180774000Y-87502500D01*
D36*
X161634000Y-92300000D02*
X163794000Y-90140000D01*
D35*
X172944000Y-96190000D02*
X172724000Y-95970000D01*
D33*
X178334000Y-86787500D02*
X179421500Y-86787500D01*
D35*
X172724000Y-92465000D02*
X171709000Y-91450000D01*
D33*
X171296500Y-84087500D02*
X169641500Y-84087500D01*
D34*
X164993315Y-84087500D02*
X169641500Y-84087500D01*
D33*
X164384000Y-82675000D02*
X164209000Y-82675000D01*
D35*
X172724000Y-95970000D02*
X172724000Y-92465000D01*
D33*
X164384000Y-83478185D02*
X164384000Y-82675000D01*
X164304000Y-89630000D02*
X163794000Y-90140000D01*
D34*
X169654000Y-89630000D02*
X164304000Y-89630000D01*
D33*
X180709000Y-85500000D02*
X180709000Y-87437500D01*
X157644000Y-92650000D02*
X155374000Y-92650000D01*
X180709000Y-87437500D02*
X180759000Y-87487500D01*
D36*
X157644000Y-92650000D02*
X158764000Y-93770000D01*
D33*
X169884000Y-91000000D02*
X170584000Y-91000000D01*
X155374000Y-92650000D02*
X153324000Y-90600000D01*
D36*
X161630498Y-92300000D02*
X161634000Y-92300000D01*
D34*
X169641500Y-84087500D02*
X169884000Y-84330000D01*
D35*
X180774000Y-87502500D02*
X180774000Y-96185000D01*
X180769000Y-96190000D02*
X172944000Y-96190000D01*
D36*
X158764000Y-93770000D02*
X160160498Y-93770000D01*
D33*
X164993315Y-84087500D02*
X164384000Y-83478185D01*
D36*
X160160498Y-93770000D02*
X161630498Y-92300000D01*
D35*
X180774000Y-96185000D02*
X180769000Y-96190000D01*
D33*
X164209000Y-82675000D02*
X162646500Y-81112500D01*
X170584000Y-91000000D02*
X171034000Y-91450000D01*
%TO.N,+5V*%
X177324000Y-78775000D02*
X175921500Y-78775000D01*
X175921500Y-78775000D02*
X175134000Y-79562500D01*
%TO.N,Net-(U1-VDDA)*%
X157454000Y-90460000D02*
X157644000Y-90650000D01*
X156834000Y-90650000D02*
X155764000Y-91720000D01*
X158721500Y-88087500D02*
X162971500Y-88087500D01*
X157844000Y-88965000D02*
X158721500Y-88087500D01*
X157454000Y-88965000D02*
X157454000Y-90460000D01*
X157454000Y-88965000D02*
X157844000Y-88965000D01*
X157644000Y-90650000D02*
X156834000Y-90650000D01*
%TO.N,Net-(U1-BOOT0)*%
X166384000Y-80225000D02*
X165859000Y-79700000D01*
X165859000Y-78165000D02*
X165844000Y-78150000D01*
X166384000Y-82675000D02*
X166384000Y-80225000D01*
X165859000Y-79700000D02*
X165859000Y-78165000D01*
%TO.N,Net-(U1-NRST)*%
X155956000Y-85698000D02*
X156294000Y-85360000D01*
X158758416Y-86420000D02*
X157698416Y-85360000D01*
X157698416Y-85360000D02*
X156294000Y-85360000D01*
X155956000Y-86106000D02*
X155956000Y-85698000D01*
X160339520Y-87087500D02*
X159672020Y-86420000D01*
X162971500Y-87087500D02*
X160339520Y-87087500D01*
X155302000Y-86760000D02*
X155956000Y-86106000D01*
X155024000Y-86760000D02*
X155302000Y-86760000D01*
X159672020Y-86420000D02*
X158758416Y-86420000D01*
%TO.N,Net-(J1-ID)*%
X177324000Y-76825000D02*
X175549000Y-76825000D01*
X175549000Y-76825000D02*
X175184000Y-76460000D01*
%TO.N,Net-(U1-PC13)*%
X162971500Y-84587500D02*
X161021500Y-84587500D01*
X161021500Y-84587500D02*
X159664000Y-83230000D01*
X159664000Y-81965000D02*
X160094000Y-81535000D01*
X159664000Y-83230000D02*
X159664000Y-81965000D01*
%TO.N,Net-(U1-PB0)*%
X163584000Y-96040000D02*
X163584000Y-96270000D01*
X164574000Y-95050000D02*
X163584000Y-96040000D01*
X166884000Y-91000000D02*
X166884000Y-93552792D01*
X165386792Y-95050000D02*
X164574000Y-95050000D01*
X166884000Y-93552792D02*
X165386792Y-95050000D01*
%TO.N,Net-(U1-PB1)*%
X165359000Y-96175000D02*
X165359000Y-96270000D01*
X166034000Y-95190000D02*
X166034000Y-95500000D01*
X167384000Y-93840000D02*
X166034000Y-95190000D01*
X167384000Y-91000000D02*
X167384000Y-93840000D01*
X166034000Y-95500000D02*
X165359000Y-96175000D01*
%TO.N,Net-(U1-PB2)*%
X167884000Y-91000000D02*
X167884000Y-94080000D01*
X167134000Y-94830000D02*
X167134000Y-96270000D01*
X167884000Y-94080000D02*
X167134000Y-94830000D01*
%TO.N,Net-(U1-PB3)*%
X172779000Y-75435000D02*
X172779000Y-74550000D01*
X168884000Y-82675000D02*
X168884000Y-79330000D01*
X168884000Y-79330000D02*
X172779000Y-75435000D01*
%TO.N,Net-(U1-PB4)*%
X168384000Y-82675000D02*
X168384000Y-79190000D01*
X171174000Y-76400000D02*
X171174000Y-74215000D01*
X168384000Y-79190000D02*
X171174000Y-76400000D01*
%TO.N,Net-(U1-PB5)*%
X169304000Y-77590000D02*
X169304000Y-74550000D01*
X167884000Y-82675000D02*
X167884000Y-79010000D01*
X167884000Y-79010000D02*
X169304000Y-77590000D01*
%TO.N,Net-(U1-PB6)*%
X167554000Y-74550000D02*
X167554000Y-74360000D01*
X167574000Y-78683604D02*
X167574000Y-74570000D01*
X167554000Y-74360000D02*
X167674000Y-74240000D01*
X167574000Y-74570000D02*
X167554000Y-74550000D01*
X167384000Y-82675000D02*
X167384000Y-78873604D01*
X167384000Y-78873604D02*
X167574000Y-78683604D01*
%TO.N,Net-(U1-PB7)*%
X165779000Y-74575000D02*
X166884000Y-75680000D01*
X165899000Y-74265000D02*
X165779000Y-74385000D01*
X166884000Y-75680000D02*
X166884000Y-82675000D01*
X165779000Y-74385000D02*
X165779000Y-74575000D01*
%TO.N,Net-(U1-PB8)*%
X165884000Y-81157995D02*
X164014000Y-79287995D01*
X165884000Y-82675000D02*
X165884000Y-81157995D01*
X164014000Y-75155000D02*
X163409000Y-74550000D01*
X164014000Y-79287995D02*
X164014000Y-75155000D01*
%TO.N,Net-(U1-PB9)*%
X165384000Y-81294391D02*
X163564000Y-79474391D01*
X163564000Y-79474391D02*
X163564000Y-76530000D01*
X163564000Y-76530000D02*
X161584000Y-74550000D01*
X165384000Y-82675000D02*
X165384000Y-81294391D01*
%TO.N,Net-(U1-PB10)*%
X168384000Y-95140000D02*
X169034000Y-95790000D01*
X168384000Y-91000000D02*
X168384000Y-95140000D01*
%TO.N,Net-(U1-PB11)*%
X168884000Y-93915000D02*
X170759000Y-95790000D01*
X168884000Y-91000000D02*
X168884000Y-93915000D01*
%TO.N,Net-(U1-PB12)*%
X174034000Y-91250000D02*
X174034000Y-94900000D01*
X172371500Y-89587500D02*
X174034000Y-91250000D01*
X171296500Y-89587500D02*
X172371500Y-89587500D01*
%TO.N,Net-(U1-PB13)*%
X172698093Y-89087500D02*
X175084000Y-91473407D01*
X175084000Y-91473407D02*
X175084000Y-94150000D01*
X171296500Y-89087500D02*
X172698093Y-89087500D01*
X175084000Y-94150000D02*
X175809000Y-94875000D01*
%TO.N,Net-(U1-PB14)*%
X171296500Y-88587500D02*
X173073708Y-88587500D01*
X175634000Y-92825000D02*
X177559000Y-94750000D01*
X173073708Y-88587500D02*
X175634000Y-91147792D01*
X177559000Y-94750000D02*
X177559000Y-94875000D01*
X175634000Y-91147792D02*
X175634000Y-92825000D01*
%TO.N,Net-(U1-PB15)*%
X173210104Y-88087500D02*
X176334000Y-91211396D01*
X171296500Y-88087500D02*
X173210104Y-88087500D01*
X176334000Y-91211396D02*
X176334000Y-92200000D01*
X179009000Y-94875000D02*
X179309000Y-94875000D01*
X176334000Y-92200000D02*
X179009000Y-94875000D01*
%TO.N,Net-(U1-PA15)*%
X169384000Y-79530000D02*
X174364000Y-74550000D01*
X169384000Y-82675000D02*
X169384000Y-79530000D01*
X174364000Y-74550000D02*
X174554000Y-74550000D01*
%TO.N,Net-(U1-PA14)*%
X169884000Y-81325000D02*
X170509000Y-80700000D01*
X169884000Y-82675000D02*
X169884000Y-81325000D01*
%TO.N,Net-(U1-PA13)*%
X172923708Y-85087500D02*
X173109000Y-84902208D01*
X171296500Y-85087500D02*
X172923708Y-85087500D01*
X173109000Y-80025000D02*
X172609000Y-79525000D01*
X173109000Y-84902208D02*
X173109000Y-80025000D01*
X171296500Y-85087500D02*
X171309000Y-85100000D01*
%TO.N,Net-(U1-PA8)*%
X173346500Y-87587500D02*
X177809000Y-92050000D01*
X171296500Y-87587500D02*
X173346500Y-87587500D01*
%TO.N,Net-(U1-PA7)*%
X162144000Y-96270000D02*
X161809000Y-96270000D01*
X166384000Y-93416396D02*
X165200396Y-94600000D01*
X166384000Y-91000000D02*
X166384000Y-93416396D01*
X163814000Y-94600000D02*
X162144000Y-96270000D01*
X165200396Y-94600000D02*
X163814000Y-94600000D01*
%TO.N,Net-(U1-PA6)*%
X162332604Y-95445000D02*
X161135396Y-95445000D01*
X165884000Y-91000000D02*
X165884000Y-93280000D01*
X160860396Y-95720000D02*
X160584000Y-95720000D01*
X165014000Y-94150000D02*
X163627604Y-94150000D01*
X160584000Y-95720000D02*
X160034000Y-96270000D01*
X165884000Y-93280000D02*
X165014000Y-94150000D01*
X163627604Y-94150000D02*
X162332604Y-95445000D01*
X161135396Y-95445000D02*
X160860396Y-95720000D01*
%TO.N,Net-(U1-PA5)*%
X162146208Y-94995000D02*
X160915396Y-94995000D01*
X158664000Y-95270000D02*
X158039000Y-95895000D01*
X160640396Y-95270000D02*
X158664000Y-95270000D01*
X165384000Y-93125000D02*
X164809000Y-93700000D01*
X160915396Y-94995000D02*
X160640396Y-95270000D01*
X163441208Y-93700000D02*
X162146208Y-94995000D01*
X165384000Y-91000000D02*
X165384000Y-93125000D01*
X164809000Y-93700000D02*
X163441208Y-93700000D01*
%TO.N,Net-(U1-PA4)*%
X157319000Y-94820000D02*
X156264000Y-95875000D01*
X164884000Y-91000000D02*
X164909000Y-91025000D01*
X164909000Y-91025000D02*
X164909000Y-92700000D01*
X160454000Y-94820000D02*
X157319000Y-94820000D01*
X164909000Y-92700000D02*
X164359000Y-93250000D01*
X160729000Y-94545000D02*
X160454000Y-94820000D01*
X163254812Y-93250000D02*
X161959812Y-94545000D01*
X164359000Y-93250000D02*
X163254812Y-93250000D01*
X161959812Y-94545000D02*
X160729000Y-94545000D01*
%TO.N,Net-(U1-PA3)*%
X161773416Y-94095000D02*
X160542604Y-94095000D01*
X164384000Y-91000000D02*
X164384000Y-92375000D01*
X156229000Y-94370000D02*
X154249000Y-96350000D01*
X160542604Y-94095000D02*
X160267604Y-94370000D01*
X160267604Y-94370000D02*
X156229000Y-94370000D01*
X164384000Y-92375000D02*
X163959000Y-92800000D01*
X163068416Y-92800000D02*
X161773416Y-94095000D01*
X163959000Y-92800000D02*
X163068416Y-92800000D01*
%TO.N,Net-(U1-PA2)*%
X159744000Y-92180000D02*
X159744000Y-92590000D01*
X162971500Y-89587500D02*
X162336500Y-89587500D01*
X162336500Y-89587500D02*
X159744000Y-92180000D01*
%TO.N,Net-(U1-PA1)*%
X161506500Y-89087500D02*
X159784000Y-90810000D01*
X162971500Y-89087500D02*
X161506500Y-89087500D01*
%TO.N,Net-(U1-PA0)*%
X162971500Y-88587500D02*
X160366500Y-88587500D01*
X160366500Y-88587500D02*
X159814000Y-89140000D01*
%TO.N,Net-(U1-VLCD)*%
X162971500Y-84087500D02*
X161784000Y-82900000D01*
X161784000Y-82900000D02*
X161384000Y-82900000D01*
%TO.N,Net-(J1-D-)*%
X174009000Y-85275000D02*
X173196500Y-86087500D01*
X173196500Y-86087500D02*
X171296500Y-86087500D01*
X177324000Y-78125000D02*
X174659000Y-78125000D01*
X174009000Y-78775000D02*
X174009000Y-85275000D01*
X174659000Y-78125000D02*
X174009000Y-78775000D01*
%TO.N,Net-(J1-D+)*%
X173559000Y-85088604D02*
X173060104Y-85587500D01*
X177324000Y-77475000D02*
X174672604Y-77475000D01*
X173060104Y-85587500D02*
X171296500Y-85587500D01*
X173559000Y-78588604D02*
X173559000Y-85088604D01*
X174672604Y-77475000D02*
X173559000Y-78588604D01*
%TO.N,Net-(D1-A)*%
X160094000Y-78400000D02*
X160174000Y-78320000D01*
X160094000Y-79710000D02*
X160094000Y-78400000D01*
%TD*%
%TA.AperFunction,Conductor*%
%TO.N,GND*%
G36*
X154509648Y-81424352D02*
G01*
X154524000Y-81459000D01*
X154524000Y-82402000D01*
X154525060Y-82403060D01*
X154557148Y-82416352D01*
X154571500Y-82451000D01*
X154571500Y-83621000D01*
X154557148Y-83655648D01*
X154522500Y-83670000D01*
X154120500Y-83670000D01*
X154085852Y-83655648D01*
X154071500Y-83621000D01*
X154071500Y-82903000D01*
X154070439Y-82901939D01*
X154038352Y-82888648D01*
X154024000Y-82854000D01*
X154024000Y-81459000D01*
X154038352Y-81424352D01*
X154073000Y-81410000D01*
X154475000Y-81410000D01*
X154509648Y-81424352D01*
G37*
%TD.AperFunction*%
%TA.AperFunction,Conductor*%
G36*
X182510026Y-72874974D02*
G01*
X182544666Y-72889344D01*
X182559000Y-72923974D01*
X182559000Y-82861160D01*
X182544648Y-82895808D01*
X182510000Y-82910160D01*
X182475352Y-82895808D01*
X182463110Y-82875384D01*
X182437350Y-82790467D01*
X182437347Y-82790460D01*
X182371075Y-82666476D01*
X182371075Y-82666475D01*
X181862553Y-83174999D01*
X181862553Y-83175000D01*
X182371075Y-83683523D01*
X182371075Y-83683522D01*
X182437347Y-83559539D01*
X182437350Y-83559532D01*
X182463110Y-83474615D01*
X182486902Y-83445625D01*
X182524224Y-83441949D01*
X182553214Y-83465741D01*
X182559000Y-83488839D01*
X182559000Y-97940000D01*
X182544648Y-97974648D01*
X182510000Y-97989000D01*
X152270000Y-97989000D01*
X152235352Y-97974648D01*
X152221000Y-97940000D01*
X152221000Y-85683978D01*
X152898500Y-85683978D01*
X152898500Y-90656021D01*
X152927496Y-90764235D01*
X152927497Y-90764239D01*
X152953918Y-90810000D01*
X152983515Y-90861263D01*
X155112737Y-92990485D01*
X155141886Y-93007314D01*
X155209760Y-93046502D01*
X155209762Y-93046502D01*
X155209763Y-93046503D01*
X155295111Y-93069371D01*
X155317978Y-93075499D01*
X155317979Y-93075500D01*
X155317982Y-93075500D01*
X155430019Y-93075500D01*
X155935000Y-93075500D01*
X155969648Y-93089852D01*
X155984000Y-93124500D01*
X155984000Y-93992956D01*
X155969648Y-94027604D01*
X154661604Y-95335648D01*
X154626956Y-95350000D01*
X153364000Y-95350000D01*
X153367863Y-97190710D01*
X171474708Y-97219424D01*
X171470956Y-96175828D01*
X171478467Y-96149583D01*
X171484788Y-96139523D01*
X171484789Y-96139522D01*
X171544368Y-95969255D01*
X171564565Y-95790000D01*
X171544368Y-95610745D01*
X171484789Y-95440478D01*
X171475677Y-95425976D01*
X171468167Y-95400087D01*
X171466195Y-94851101D01*
X171466194Y-94851100D01*
X171466195Y-94851100D01*
X170592840Y-94849587D01*
X170561731Y-94838375D01*
X169689088Y-94118026D01*
X169685634Y-94114886D01*
X169323852Y-93753104D01*
X169309500Y-93718456D01*
X169309500Y-91811847D01*
X169314479Y-91790327D01*
X169318032Y-91783058D01*
X169323866Y-91771125D01*
X169334500Y-91698136D01*
X169334500Y-90301864D01*
X169323866Y-90228875D01*
X169322910Y-90226920D01*
X169310249Y-90201020D01*
X169307925Y-90163589D01*
X169332750Y-90135479D01*
X169354270Y-90130500D01*
X169409500Y-90130500D01*
X169444148Y-90144852D01*
X169458500Y-90179500D01*
X169458500Y-90188152D01*
X169453521Y-90209672D01*
X169444134Y-90228872D01*
X169433500Y-90301862D01*
X169433500Y-91698137D01*
X169444134Y-91771126D01*
X169444135Y-91771128D01*
X169499172Y-91883708D01*
X169499173Y-91883710D01*
X169499174Y-91883711D01*
X169587789Y-91972326D01*
X169700375Y-92027366D01*
X169752094Y-92034901D01*
X169773362Y-92038000D01*
X169773364Y-92038000D01*
X169994638Y-92038000D01*
X170013201Y-92035295D01*
X170067625Y-92027366D01*
X170180211Y-91972326D01*
X170217495Y-91935041D01*
X170252140Y-91920691D01*
X170286789Y-91935042D01*
X170297725Y-91951715D01*
X170323139Y-92016160D01*
X170339701Y-92038000D01*
X170412500Y-92134000D01*
X170494667Y-92196309D01*
X170523008Y-92217801D01*
X170530342Y-92223362D01*
X170667923Y-92277617D01*
X170667926Y-92277617D01*
X170667928Y-92277618D01*
X170667927Y-92277618D01*
X170754379Y-92288000D01*
X170754382Y-92288000D01*
X171313621Y-92288000D01*
X171400072Y-92277618D01*
X171400073Y-92277617D01*
X171400077Y-92277617D01*
X171537658Y-92223362D01*
X171598125Y-92177508D01*
X171634402Y-92168008D01*
X171662379Y-92181904D01*
X172159148Y-92678673D01*
X172173500Y-92713321D01*
X172173500Y-96042476D01*
X172198631Y-96136262D01*
X172198631Y-96136263D01*
X172211014Y-96182481D01*
X172211017Y-96182486D01*
X172283485Y-96308008D01*
X172283488Y-96308012D01*
X172283490Y-96308015D01*
X172605985Y-96630510D01*
X172692684Y-96680565D01*
X172731512Y-96702983D01*
X172731514Y-96702983D01*
X172731515Y-96702984D01*
X172766517Y-96712363D01*
X172871522Y-96740500D01*
X172871525Y-96740500D01*
X180841477Y-96740500D01*
X180911480Y-96721742D01*
X180981485Y-96702984D01*
X181020316Y-96680565D01*
X181107015Y-96630510D01*
X181214510Y-96523015D01*
X181286984Y-96397485D01*
X181323160Y-96262475D01*
X181324500Y-96257475D01*
X181324500Y-88074374D01*
X181338852Y-88039726D01*
X181388816Y-87989762D01*
X181449555Y-87893096D01*
X181484787Y-87837026D01*
X181484787Y-87837024D01*
X181484789Y-87837022D01*
X181544368Y-87666755D01*
X181564565Y-87487500D01*
X181544368Y-87308245D01*
X181484789Y-87137978D01*
X181484788Y-87137977D01*
X181484787Y-87137973D01*
X181388817Y-86985240D01*
X181388816Y-86985238D01*
X181261262Y-86857684D01*
X181257430Y-86855276D01*
X181157430Y-86792441D01*
X181135728Y-86761855D01*
X181134500Y-86750952D01*
X181134500Y-86493084D01*
X181148852Y-86458436D01*
X181160398Y-86449871D01*
X181295450Y-86377685D01*
X181455410Y-86246410D01*
X181586685Y-86086450D01*
X181684232Y-85903954D01*
X181744300Y-85705934D01*
X181764583Y-85500000D01*
X181744300Y-85294066D01*
X181684232Y-85096046D01*
X181586685Y-84913550D01*
X181455410Y-84753590D01*
X181295450Y-84622315D01*
X181130308Y-84534044D01*
X181112956Y-84524769D01*
X181112955Y-84524768D01*
X181112954Y-84524768D01*
X180914934Y-84464700D01*
X180709000Y-84444417D01*
X180503065Y-84464700D01*
X180503064Y-84464700D01*
X180305043Y-84524769D01*
X180122548Y-84622316D01*
X179962590Y-84753590D01*
X179831316Y-84913548D01*
X179733769Y-85096043D01*
X179673700Y-85294064D01*
X179673700Y-85294065D01*
X179653417Y-85499999D01*
X179653417Y-85500000D01*
X179673700Y-85705934D01*
X179673700Y-85705935D01*
X179718150Y-85852470D01*
X179714474Y-85889793D01*
X179705908Y-85901342D01*
X179259604Y-86347648D01*
X179224956Y-86362000D01*
X178983500Y-86362000D01*
X178948852Y-86347648D01*
X178934500Y-86313000D01*
X178934500Y-86220743D01*
X178934499Y-86220724D01*
X178931646Y-86190301D01*
X178931646Y-86190300D01*
X178886795Y-86062123D01*
X178886791Y-86062114D01*
X178806150Y-85952849D01*
X178696885Y-85872208D01*
X178696876Y-85872204D01*
X178568698Y-85827353D01*
X178538275Y-85824500D01*
X178538266Y-85824500D01*
X178129734Y-85824500D01*
X178129724Y-85824500D01*
X178099301Y-85827353D01*
X178099300Y-85827353D01*
X177971123Y-85872204D01*
X177971119Y-85872205D01*
X177889790Y-85932229D01*
X177853390Y-85941256D01*
X177831596Y-85932228D01*
X177746885Y-85869708D01*
X177746876Y-85869704D01*
X177618698Y-85824853D01*
X177588275Y-85822000D01*
X177588266Y-85822000D01*
X177179734Y-85822000D01*
X177179724Y-85822000D01*
X177149301Y-85824853D01*
X177149300Y-85824853D01*
X177021123Y-85869704D01*
X177021114Y-85869708D01*
X176936403Y-85932228D01*
X176900003Y-85941256D01*
X176878209Y-85932228D01*
X176796885Y-85872208D01*
X176796876Y-85872204D01*
X176668698Y-85827353D01*
X176638275Y-85824500D01*
X176638266Y-85824500D01*
X176229734Y-85824500D01*
X176229724Y-85824500D01*
X176199301Y-85827353D01*
X176199300Y-85827353D01*
X176071123Y-85872204D01*
X176071114Y-85872208D01*
X175961849Y-85952849D01*
X175881208Y-86062114D01*
X175881204Y-86062123D01*
X175836353Y-86190300D01*
X175836353Y-86190301D01*
X175833500Y-86220724D01*
X175833500Y-87354275D01*
X175836353Y-87384698D01*
X175836353Y-87384699D01*
X175881204Y-87512876D01*
X175881208Y-87512885D01*
X175961849Y-87622150D01*
X176071114Y-87702791D01*
X176071117Y-87702792D01*
X176071118Y-87702793D01*
X176071120Y-87702793D01*
X176071123Y-87702795D01*
X176192156Y-87745146D01*
X176199301Y-87747646D01*
X176229734Y-87750500D01*
X176229744Y-87750500D01*
X176638256Y-87750500D01*
X176638266Y-87750500D01*
X176668699Y-87747646D01*
X176796882Y-87702793D01*
X176881597Y-87640270D01*
X176917996Y-87631243D01*
X176939790Y-87640271D01*
X177021114Y-87700291D01*
X177021117Y-87700292D01*
X177021118Y-87700293D01*
X177021120Y-87700293D01*
X177021123Y-87700295D01*
X177028268Y-87702795D01*
X177149301Y-87745146D01*
X177179734Y-87748000D01*
X177179744Y-87748000D01*
X177481598Y-87748000D01*
X177516246Y-87762352D01*
X177530598Y-87797000D01*
X177516246Y-87831648D01*
X177507668Y-87838489D01*
X177361740Y-87930182D01*
X177361736Y-87930185D01*
X177234182Y-88057739D01*
X177200359Y-88111570D01*
X177169773Y-88133271D01*
X177158870Y-88134500D01*
X175810543Y-88134500D01*
X175775895Y-88120148D01*
X174839750Y-87184003D01*
X173902763Y-86247015D01*
X173857226Y-86220724D01*
X173805738Y-86190997D01*
X173800180Y-86189508D01*
X173770428Y-86166676D01*
X173765534Y-86129494D01*
X173778214Y-86107532D01*
X174349485Y-85536263D01*
X174405503Y-85439237D01*
X174434499Y-85331021D01*
X174434500Y-85331021D01*
X174434500Y-82477864D01*
X174448852Y-82443216D01*
X174483500Y-82428864D01*
X174501476Y-82432281D01*
X174552429Y-82452375D01*
X174552433Y-82452376D01*
X174552436Y-82452377D01*
X174552439Y-82452377D01*
X174552442Y-82452378D01*
X174640895Y-82463000D01*
X174640898Y-82463000D01*
X174682820Y-82463000D01*
X174717468Y-82477352D01*
X174730150Y-82499318D01*
X174737496Y-82526736D01*
X174737497Y-82526738D01*
X174786867Y-82612248D01*
X174793515Y-82623763D01*
X175297737Y-83127985D01*
X175322467Y-83142263D01*
X175394760Y-83184002D01*
X175394762Y-83184002D01*
X175394763Y-83184003D01*
X175480111Y-83206871D01*
X175502978Y-83212999D01*
X175502979Y-83213000D01*
X175502982Y-83213000D01*
X175615019Y-83213000D01*
X175671467Y-83213000D01*
X175706115Y-83227352D01*
X175717049Y-83244021D01*
X175735638Y-83291158D01*
X175735639Y-83291160D01*
X175736114Y-83291786D01*
X175825000Y-83409000D01*
X175873961Y-83446128D01*
X175942840Y-83498361D01*
X175942841Y-83498361D01*
X175942842Y-83498362D01*
X175977475Y-83512019D01*
X176004443Y-83538081D01*
X176008500Y-83557603D01*
X176008500Y-83616183D01*
X175994148Y-83650831D01*
X175988599Y-83655607D01*
X175961850Y-83675350D01*
X175961845Y-83675355D01*
X175881208Y-83784614D01*
X175881204Y-83784623D01*
X175836353Y-83912800D01*
X175836353Y-83912801D01*
X175833500Y-83943224D01*
X175833500Y-85079275D01*
X175836353Y-85109698D01*
X175836353Y-85109699D01*
X175881204Y-85237876D01*
X175881208Y-85237885D01*
X175961849Y-85347150D01*
X176071114Y-85427791D01*
X176071117Y-85427792D01*
X176071118Y-85427793D01*
X176071120Y-85427793D01*
X176071123Y-85427795D01*
X176199301Y-85472646D01*
X176229734Y-85475500D01*
X176229744Y-85475500D01*
X176638256Y-85475500D01*
X176638266Y-85475500D01*
X176668699Y-85472646D01*
X176796882Y-85427793D01*
X176906150Y-85347150D01*
X176962259Y-85271125D01*
X176986791Y-85237885D01*
X176986791Y-85237884D01*
X176986793Y-85237882D01*
X177031646Y-85109699D01*
X177034500Y-85079266D01*
X177034500Y-83945734D01*
X177034500Y-83943234D01*
X177031646Y-83912801D01*
X177028521Y-83903871D01*
X176986795Y-83784623D01*
X176986791Y-83784614D01*
X176906154Y-83675355D01*
X176906152Y-83675353D01*
X176906150Y-83675350D01*
X176888062Y-83662000D01*
X176879401Y-83655607D01*
X176860047Y-83623484D01*
X176859500Y-83616183D01*
X176859500Y-83605460D01*
X176873852Y-83570812D01*
X176902655Y-83556810D01*
X176937577Y-83552617D01*
X177075158Y-83498362D01*
X177193000Y-83409000D01*
X177282362Y-83291158D01*
X177336617Y-83153577D01*
X177337977Y-83142259D01*
X177347000Y-83067121D01*
X177347000Y-82571544D01*
X177361352Y-82536896D01*
X177470896Y-82427352D01*
X177505544Y-82413000D01*
X178577032Y-82413000D01*
X178611680Y-82427352D01*
X178656648Y-82472320D01*
X178671000Y-82506968D01*
X178671000Y-83519091D01*
X178656648Y-83553739D01*
X178622000Y-83568091D01*
X178605817Y-83565342D01*
X178589244Y-83559543D01*
X178568699Y-83552354D01*
X178568697Y-83552353D01*
X178568695Y-83552353D01*
X178538275Y-83549500D01*
X178538266Y-83549500D01*
X178129734Y-83549500D01*
X178129724Y-83549500D01*
X178099301Y-83552353D01*
X178099300Y-83552353D01*
X177971123Y-83597204D01*
X177971114Y-83597208D01*
X177861849Y-83677849D01*
X177781208Y-83787114D01*
X177781204Y-83787123D01*
X177736353Y-83915300D01*
X177736353Y-83915301D01*
X177733500Y-83945724D01*
X177733500Y-85079275D01*
X177736353Y-85109698D01*
X177736353Y-85109699D01*
X177781204Y-85237876D01*
X177781208Y-85237885D01*
X177861849Y-85347150D01*
X177971114Y-85427791D01*
X177971117Y-85427792D01*
X177971118Y-85427793D01*
X177971120Y-85427793D01*
X177971123Y-85427795D01*
X178099301Y-85472646D01*
X178129734Y-85475500D01*
X178129744Y-85475500D01*
X178538256Y-85475500D01*
X178538266Y-85475500D01*
X178568699Y-85472646D01*
X178696882Y-85427793D01*
X178806150Y-85347150D01*
X178862259Y-85271125D01*
X178886791Y-85237885D01*
X178886791Y-85237884D01*
X178886793Y-85237882D01*
X178931646Y-85109699D01*
X178934500Y-85079266D01*
X178934500Y-84534044D01*
X178948852Y-84499396D01*
X179411173Y-84037075D01*
X181000475Y-84037075D01*
X181124460Y-84103347D01*
X181124467Y-84103350D01*
X181312961Y-84160529D01*
X181312969Y-84160531D01*
X181509000Y-84179839D01*
X181705030Y-84160531D01*
X181705038Y-84160529D01*
X181893532Y-84103350D01*
X181893539Y-84103347D01*
X182017522Y-84037075D01*
X182017523Y-84037075D01*
X181509000Y-83528553D01*
X181000475Y-84037075D01*
X179411173Y-84037075D01*
X179436984Y-84011264D01*
X179436985Y-84011263D01*
X179493003Y-83914237D01*
X179521999Y-83806021D01*
X179522000Y-83806021D01*
X179522000Y-83174999D01*
X180504161Y-83174999D01*
X180504161Y-83175000D01*
X180523468Y-83371030D01*
X180523470Y-83371038D01*
X180580649Y-83559531D01*
X180580654Y-83559543D01*
X180646922Y-83683522D01*
X180646923Y-83683523D01*
X181155447Y-83175000D01*
X181155447Y-83174999D01*
X180646923Y-82666475D01*
X180646922Y-82666476D01*
X180580654Y-82790456D01*
X180580649Y-82790468D01*
X180523470Y-82978961D01*
X180523468Y-82978969D01*
X180504161Y-83174999D01*
X179522000Y-83174999D01*
X179522000Y-82312923D01*
X181000475Y-82312923D01*
X181509000Y-82821447D01*
X181509001Y-82821447D01*
X182017523Y-82312923D01*
X182017522Y-82312922D01*
X181893543Y-82246654D01*
X181893531Y-82246649D01*
X181705038Y-82189470D01*
X181705030Y-82189468D01*
X181509000Y-82170161D01*
X181312969Y-82189468D01*
X181312961Y-82189470D01*
X181124468Y-82246649D01*
X181124456Y-82246654D01*
X181000476Y-82312922D01*
X181000475Y-82312923D01*
X179522000Y-82312923D01*
X179522000Y-82254403D01*
X179521999Y-82254402D01*
X179515871Y-82231535D01*
X179493003Y-82146187D01*
X179493002Y-82146186D01*
X179493002Y-82146184D01*
X179436984Y-82049160D01*
X179034839Y-81647015D01*
X178937815Y-81590997D01*
X178937811Y-81590996D01*
X178829597Y-81562000D01*
X178829594Y-81562000D01*
X177365019Y-81562000D01*
X177252982Y-81562000D01*
X177252979Y-81562000D01*
X177144764Y-81590996D01*
X177144760Y-81590997D01*
X177047736Y-81647015D01*
X177047736Y-81647016D01*
X176697104Y-81997648D01*
X176662456Y-82012000D01*
X176182964Y-82012000D01*
X176148316Y-81997648D01*
X176133964Y-81963000D01*
X176134313Y-81957163D01*
X176134500Y-81955604D01*
X176134500Y-81169394D01*
X176123878Y-81080943D01*
X176123877Y-81080942D01*
X176123877Y-81080936D01*
X176068361Y-80940158D01*
X176063122Y-80933250D01*
X176038666Y-80901000D01*
X175976922Y-80819578D01*
X175881214Y-80747000D01*
X175856344Y-80728140D01*
X175856342Y-80728139D01*
X175715564Y-80672623D01*
X175715560Y-80672622D01*
X175715556Y-80672621D01*
X175627105Y-80662000D01*
X175627102Y-80662000D01*
X174640898Y-80662000D01*
X174640895Y-80662000D01*
X174552443Y-80672621D01*
X174552434Y-80672623D01*
X174501475Y-80692719D01*
X174463978Y-80692078D01*
X174437916Y-80665110D01*
X174434500Y-80647135D01*
X174434500Y-80477864D01*
X174448852Y-80443216D01*
X174483500Y-80428864D01*
X174501476Y-80432281D01*
X174552429Y-80452375D01*
X174552433Y-80452376D01*
X174552436Y-80452377D01*
X174552439Y-80452377D01*
X174552442Y-80452378D01*
X174640895Y-80463000D01*
X174640898Y-80463000D01*
X175627105Y-80463000D01*
X175715556Y-80452378D01*
X175715556Y-80452377D01*
X175715564Y-80452377D01*
X175856342Y-80396861D01*
X175976922Y-80305422D01*
X176068361Y-80184842D01*
X176123877Y-80044064D01*
X176128914Y-80002118D01*
X176134500Y-79955605D01*
X176134500Y-79249500D01*
X176148852Y-79214852D01*
X176183500Y-79200500D01*
X176389233Y-79200500D01*
X176423881Y-79214852D01*
X176457029Y-79248000D01*
X176461235Y-79252206D01*
X176564006Y-79297584D01*
X176564009Y-79297585D01*
X176589135Y-79300500D01*
X178058864Y-79300499D01*
X178083991Y-79297585D01*
X178147251Y-79269652D01*
X178186836Y-79252175D01*
X178206628Y-79248000D01*
X178816000Y-79248000D01*
X178816000Y-75946000D01*
X178054000Y-75946000D01*
X178054000Y-76250500D01*
X178039648Y-76285148D01*
X178005000Y-76299500D01*
X176589141Y-76299500D01*
X176589131Y-76299501D01*
X176564007Y-76302415D01*
X176461235Y-76347793D01*
X176446925Y-76362104D01*
X176423880Y-76385148D01*
X176389234Y-76399500D01*
X176026537Y-76399500D01*
X175991889Y-76385148D01*
X175977845Y-76355986D01*
X175976922Y-76347793D01*
X175969368Y-76280745D01*
X175909789Y-76110478D01*
X175909788Y-76110477D01*
X175909787Y-76110473D01*
X175813817Y-75957740D01*
X175813816Y-75957738D01*
X175686262Y-75830184D01*
X175686259Y-75830182D01*
X175533526Y-75734212D01*
X175363258Y-75674633D01*
X175363257Y-75674632D01*
X175363255Y-75674632D01*
X175363251Y-75674631D01*
X175363249Y-75674631D01*
X175184000Y-75654435D01*
X175004750Y-75674631D01*
X175004741Y-75674633D01*
X174834473Y-75734212D01*
X174681740Y-75830182D01*
X174681736Y-75830185D01*
X174554185Y-75957736D01*
X174554182Y-75957740D01*
X174458212Y-76110473D01*
X174398633Y-76280741D01*
X174398631Y-76280750D01*
X174378435Y-76460000D01*
X174398631Y-76639249D01*
X174398633Y-76639258D01*
X174458212Y-76809526D01*
X174554182Y-76962259D01*
X174554185Y-76962263D01*
X174576161Y-76984239D01*
X174590513Y-77018887D01*
X174576161Y-77053535D01*
X174554195Y-77066217D01*
X174508368Y-77078496D01*
X174508364Y-77078497D01*
X174411340Y-77134515D01*
X174411340Y-77134516D01*
X173218516Y-78327340D01*
X173218515Y-78327340D01*
X173162497Y-78424364D01*
X173162496Y-78424368D01*
X173133500Y-78532582D01*
X173133500Y-78820498D01*
X173119148Y-78855146D01*
X173084500Y-78869498D01*
X173058430Y-78861987D01*
X172958526Y-78799212D01*
X172788258Y-78739633D01*
X172788257Y-78739632D01*
X172788255Y-78739632D01*
X172788251Y-78739631D01*
X172788249Y-78739631D01*
X172609000Y-78719435D01*
X172429750Y-78739631D01*
X172429741Y-78739633D01*
X172259473Y-78799212D01*
X172106740Y-78895182D01*
X172106736Y-78895185D01*
X171979185Y-79022736D01*
X171979182Y-79022740D01*
X171883212Y-79175473D01*
X171823633Y-79345741D01*
X171823631Y-79345750D01*
X171803435Y-79525000D01*
X171823631Y-79704249D01*
X171823633Y-79704258D01*
X171883212Y-79874526D01*
X171945850Y-79974212D01*
X171979184Y-80027262D01*
X172106738Y-80154816D01*
X172106740Y-80154817D01*
X172259473Y-80250787D01*
X172259477Y-80250788D01*
X172259478Y-80250789D01*
X172429745Y-80310368D01*
X172609000Y-80330565D01*
X172629014Y-80328309D01*
X172665049Y-80338690D01*
X172683192Y-80371513D01*
X172683500Y-80377001D01*
X172683500Y-84613000D01*
X172669148Y-84647648D01*
X172634500Y-84662000D01*
X172108347Y-84662000D01*
X172086827Y-84657021D01*
X172067628Y-84647635D01*
X172067626Y-84647634D01*
X172067625Y-84647634D01*
X172043295Y-84644089D01*
X171994638Y-84637000D01*
X171994636Y-84637000D01*
X170598364Y-84637000D01*
X170598362Y-84637000D01*
X170525373Y-84647634D01*
X170525368Y-84647636D01*
X170455020Y-84682027D01*
X170417590Y-84684351D01*
X170389479Y-84659526D01*
X170384500Y-84638006D01*
X170384500Y-84562000D01*
X170398852Y-84527352D01*
X170433500Y-84513000D01*
X170484653Y-84513000D01*
X170506173Y-84517979D01*
X170520061Y-84524768D01*
X170525375Y-84527366D01*
X170581893Y-84535600D01*
X170598362Y-84538000D01*
X170598364Y-84538000D01*
X171994638Y-84538000D01*
X172013201Y-84535295D01*
X172067625Y-84527366D01*
X172180211Y-84472326D01*
X172268826Y-84383711D01*
X172323866Y-84271125D01*
X172334500Y-84198136D01*
X172334500Y-83976864D01*
X172323866Y-83903875D01*
X172268826Y-83791289D01*
X172180211Y-83702674D01*
X172180210Y-83702673D01*
X172180208Y-83702672D01*
X172067628Y-83647635D01*
X172067626Y-83647634D01*
X171994638Y-83637000D01*
X171994636Y-83637000D01*
X171771000Y-83637000D01*
X171736352Y-83622648D01*
X171722000Y-83588000D01*
X171722000Y-83264374D01*
X171736352Y-83229726D01*
X171753079Y-83212999D01*
X171823816Y-83142262D01*
X171912421Y-83001248D01*
X171919787Y-82989526D01*
X171919787Y-82989524D01*
X171919789Y-82989522D01*
X171979368Y-82819255D01*
X171999565Y-82640000D01*
X171979368Y-82460745D01*
X171919789Y-82290478D01*
X171919788Y-82290477D01*
X171919787Y-82290473D01*
X171823817Y-82137740D01*
X171823816Y-82137738D01*
X171696262Y-82010184D01*
X171696259Y-82010182D01*
X171543526Y-81914212D01*
X171373258Y-81854633D01*
X171373257Y-81854632D01*
X171373255Y-81854632D01*
X171373251Y-81854631D01*
X171373249Y-81854631D01*
X171194000Y-81834435D01*
X171014750Y-81854631D01*
X171014741Y-81854633D01*
X170844473Y-81914212D01*
X170691740Y-82010182D01*
X170691736Y-82010185D01*
X170564185Y-82137736D01*
X170564182Y-82137740D01*
X170468212Y-82290473D01*
X170429750Y-82400393D01*
X170404760Y-82428357D01*
X170367316Y-82430459D01*
X170339352Y-82405469D01*
X170334500Y-82384209D01*
X170334500Y-81976862D01*
X170325372Y-81914212D01*
X170323866Y-81903875D01*
X170323865Y-81903872D01*
X170314479Y-81884672D01*
X170309500Y-81863152D01*
X170309500Y-81537918D01*
X170323852Y-81503270D01*
X170358500Y-81488918D01*
X170363986Y-81489226D01*
X170509000Y-81505565D01*
X170688255Y-81485368D01*
X170858522Y-81425789D01*
X170858524Y-81425787D01*
X170858526Y-81425787D01*
X170914596Y-81390555D01*
X171011262Y-81329816D01*
X171138816Y-81202262D01*
X171227891Y-81060500D01*
X171234787Y-81049526D01*
X171234787Y-81049524D01*
X171234789Y-81049522D01*
X171294368Y-80879255D01*
X171314565Y-80700000D01*
X171294368Y-80520745D01*
X171234789Y-80350478D01*
X171234788Y-80350477D01*
X171234787Y-80350473D01*
X171148878Y-80213752D01*
X171138816Y-80197738D01*
X171011262Y-80070184D01*
X171011259Y-80070182D01*
X170858526Y-79974212D01*
X170688258Y-79914633D01*
X170688257Y-79914632D01*
X170688255Y-79914632D01*
X170688251Y-79914631D01*
X170688249Y-79914631D01*
X170509000Y-79894435D01*
X170329750Y-79914631D01*
X170329741Y-79914633D01*
X170159473Y-79974212D01*
X170006740Y-80070182D01*
X170006736Y-80070185D01*
X169893148Y-80183774D01*
X169858500Y-80198126D01*
X169823852Y-80183774D01*
X169809500Y-80149126D01*
X169809500Y-79726543D01*
X169823851Y-79691896D01*
X174208991Y-75306755D01*
X174243638Y-75292404D01*
X174259817Y-75295153D01*
X174374745Y-75335368D01*
X174554000Y-75355565D01*
X174733255Y-75335368D01*
X174903522Y-75275789D01*
X174903524Y-75275787D01*
X174903526Y-75275787D01*
X175058592Y-75178352D01*
X175059210Y-75179337D01*
X175085326Y-75170117D01*
X175109000Y-75170000D01*
X175109000Y-75147374D01*
X175123352Y-75112726D01*
X175183817Y-75052261D01*
X175183817Y-75052260D01*
X175250269Y-74946503D01*
X175279787Y-74899526D01*
X175279787Y-74899524D01*
X175279789Y-74899522D01*
X175339368Y-74729255D01*
X175359565Y-74550000D01*
X175339368Y-74370745D01*
X175279789Y-74200478D01*
X175279788Y-74200477D01*
X175279787Y-74200473D01*
X175183817Y-74047740D01*
X175183816Y-74047738D01*
X175123352Y-73987274D01*
X175109000Y-73952626D01*
X175109000Y-73840000D01*
X175108999Y-73839999D01*
X174942140Y-73839667D01*
X174916170Y-73832157D01*
X174903530Y-73824215D01*
X174903524Y-73824212D01*
X174903522Y-73824211D01*
X174733255Y-73764632D01*
X174733251Y-73764631D01*
X174733249Y-73764631D01*
X174554000Y-73744435D01*
X174374750Y-73764631D01*
X174374746Y-73764631D01*
X174374745Y-73764632D01*
X174374742Y-73764632D01*
X174374738Y-73764634D01*
X174204481Y-73824208D01*
X174194273Y-73830622D01*
X174168110Y-73838130D01*
X173161513Y-73836131D01*
X173135543Y-73828622D01*
X173128524Y-73824212D01*
X173128523Y-73824211D01*
X173128522Y-73824211D01*
X172958255Y-73764632D01*
X172958251Y-73764631D01*
X172958249Y-73764631D01*
X172779000Y-73744435D01*
X172599750Y-73764631D01*
X172599741Y-73764633D01*
X172429480Y-73824210D01*
X172429468Y-73824216D01*
X172424865Y-73827108D01*
X172398703Y-73834616D01*
X171470957Y-73832773D01*
X171444985Y-73825263D01*
X171403526Y-73799213D01*
X171403523Y-73799211D01*
X171403522Y-73799211D01*
X171233255Y-73739632D01*
X171233251Y-73739631D01*
X171233249Y-73739631D01*
X171054000Y-73719435D01*
X170874750Y-73739631D01*
X170874741Y-73739633D01*
X170704480Y-73799210D01*
X170704473Y-73799213D01*
X170665642Y-73823612D01*
X170639476Y-73831122D01*
X169674982Y-73829206D01*
X169656194Y-73824899D01*
X169656118Y-73825119D01*
X169654154Y-73824432D01*
X169653823Y-73824356D01*
X169653518Y-73824209D01*
X169483258Y-73764633D01*
X169483257Y-73764632D01*
X169483255Y-73764632D01*
X169483251Y-73764631D01*
X169483249Y-73764631D01*
X169304000Y-73744435D01*
X169124750Y-73764631D01*
X169124746Y-73764631D01*
X169124745Y-73764632D01*
X169124742Y-73764632D01*
X169124738Y-73764634D01*
X168952251Y-73824989D01*
X168935971Y-73827739D01*
X167916044Y-73825713D01*
X167899957Y-73822963D01*
X167733258Y-73764633D01*
X167733257Y-73764632D01*
X167733255Y-73764632D01*
X167733251Y-73764631D01*
X167733249Y-73764631D01*
X167554000Y-73744435D01*
X167374750Y-73764631D01*
X167374741Y-73764633D01*
X167212130Y-73821533D01*
X167195849Y-73824283D01*
X166059058Y-73822025D01*
X166042972Y-73819275D01*
X165958261Y-73789634D01*
X165958260Y-73789633D01*
X165958255Y-73789632D01*
X165958251Y-73789631D01*
X165958249Y-73789631D01*
X165779000Y-73769435D01*
X165599750Y-73789631D01*
X165599746Y-73789631D01*
X165599745Y-73789632D01*
X165599742Y-73789632D01*
X165599738Y-73789634D01*
X165518188Y-73818169D01*
X165501908Y-73820919D01*
X165039000Y-73820000D01*
X165039000Y-74257765D01*
X165036250Y-74273949D01*
X164993633Y-74395741D01*
X164993631Y-74395750D01*
X164973435Y-74575000D01*
X164991179Y-74732489D01*
X164993632Y-74754255D01*
X165014117Y-74812799D01*
X165036250Y-74876049D01*
X165039000Y-74892233D01*
X165039000Y-75220000D01*
X165284601Y-75218779D01*
X165310911Y-75226288D01*
X165429478Y-75300789D01*
X165599745Y-75360368D01*
X165779000Y-75380565D01*
X165927852Y-75363793D01*
X165938730Y-75362568D01*
X165974767Y-75372950D01*
X165978864Y-75376612D01*
X166444148Y-75841896D01*
X166458500Y-75876544D01*
X166458500Y-77412038D01*
X166444148Y-77446686D01*
X166409500Y-77461038D01*
X166379893Y-77451082D01*
X166355227Y-77432378D01*
X166347658Y-77426638D01*
X166210077Y-77372383D01*
X166210075Y-77372382D01*
X166210071Y-77372381D01*
X166210072Y-77372381D01*
X166123621Y-77362000D01*
X166123618Y-77362000D01*
X165564382Y-77362000D01*
X165564379Y-77362000D01*
X165477927Y-77372381D01*
X165340339Y-77426639D01*
X165222500Y-77516000D01*
X165133139Y-77633839D01*
X165078881Y-77771427D01*
X165068500Y-77857878D01*
X165068500Y-78442121D01*
X165078881Y-78528572D01*
X165078883Y-78528577D01*
X165106851Y-78599500D01*
X165133139Y-78666160D01*
X165169349Y-78713910D01*
X165222500Y-78784000D01*
X165274800Y-78823660D01*
X165340340Y-78873361D01*
X165340341Y-78873361D01*
X165340342Y-78873362D01*
X165402476Y-78897863D01*
X165429443Y-78923925D01*
X165433500Y-78943447D01*
X165433500Y-78994869D01*
X165419148Y-79029517D01*
X165410570Y-79036358D01*
X165356740Y-79070182D01*
X165356736Y-79070185D01*
X165229185Y-79197736D01*
X165229182Y-79197740D01*
X165133212Y-79350473D01*
X165073633Y-79520741D01*
X165073631Y-79520751D01*
X165062226Y-79621971D01*
X165044085Y-79654795D01*
X165008048Y-79665177D01*
X164978886Y-79651133D01*
X164453852Y-79126099D01*
X164439500Y-79091451D01*
X164439500Y-75098980D01*
X164426981Y-75052262D01*
X164426981Y-75052261D01*
X164410503Y-74990764D01*
X164410503Y-74990763D01*
X164384949Y-74946503D01*
X164354485Y-74893737D01*
X164275263Y-74814515D01*
X164273557Y-74812809D01*
X164273546Y-74812799D01*
X164210612Y-74749865D01*
X164196260Y-74715217D01*
X164196568Y-74709731D01*
X164199491Y-74683780D01*
X164214565Y-74550000D01*
X164194368Y-74370745D01*
X164134789Y-74200478D01*
X164132202Y-74196361D01*
X164124695Y-74170064D01*
X164125558Y-73987274D01*
X164126500Y-73787500D01*
X163658702Y-73786409D01*
X163642633Y-73783659D01*
X163588261Y-73764634D01*
X163588260Y-73764633D01*
X163588255Y-73764632D01*
X163588251Y-73764631D01*
X163588249Y-73764631D01*
X163409000Y-73744435D01*
X163229750Y-73764631D01*
X163229746Y-73764631D01*
X163229745Y-73764632D01*
X163179749Y-73782126D01*
X163178672Y-73782503D01*
X163162375Y-73785252D01*
X161821461Y-73782126D01*
X161805393Y-73779376D01*
X161763255Y-73764632D01*
X161763251Y-73764631D01*
X161763249Y-73764631D01*
X161584000Y-73744435D01*
X161404750Y-73764631D01*
X161404746Y-73764631D01*
X161404745Y-73764632D01*
X161365749Y-73778277D01*
X161349452Y-73781026D01*
X160909000Y-73779999D01*
X160905416Y-74111756D01*
X160897909Y-74137296D01*
X160858213Y-74200473D01*
X160858210Y-74200480D01*
X160798633Y-74370741D01*
X160798631Y-74370750D01*
X160778435Y-74550000D01*
X160798631Y-74729249D01*
X160798633Y-74729258D01*
X160858212Y-74899526D01*
X160954182Y-75052259D01*
X160954183Y-75052261D01*
X160986045Y-75084123D01*
X160993023Y-75092919D01*
X161071947Y-75220000D01*
X161486500Y-75887500D01*
X162306060Y-75893732D01*
X162340335Y-75908083D01*
X163124148Y-76691896D01*
X163138500Y-76726544D01*
X163138500Y-79530412D01*
X163167496Y-79638626D01*
X163167497Y-79638630D01*
X163223515Y-79735654D01*
X164944148Y-81456287D01*
X164958500Y-81490935D01*
X164958500Y-81863152D01*
X164953521Y-81884672D01*
X164944134Y-81903872D01*
X164933500Y-81976862D01*
X164933500Y-83307641D01*
X164919148Y-83342289D01*
X164884500Y-83356641D01*
X164849852Y-83342289D01*
X164848852Y-83341289D01*
X164834500Y-83306641D01*
X164834500Y-81976862D01*
X164825933Y-81918064D01*
X164823866Y-81903875D01*
X164768826Y-81791289D01*
X164680211Y-81702674D01*
X164680210Y-81702673D01*
X164680208Y-81702672D01*
X164567628Y-81647635D01*
X164567626Y-81647634D01*
X164494638Y-81637000D01*
X164494636Y-81637000D01*
X164273364Y-81637000D01*
X164273362Y-81637000D01*
X164200373Y-81647634D01*
X164200371Y-81647635D01*
X164087791Y-81702672D01*
X164087786Y-81702676D01*
X163997753Y-81792709D01*
X163963105Y-81807061D01*
X163928457Y-81792709D01*
X163448112Y-81312364D01*
X163433760Y-81277716D01*
X163434068Y-81272230D01*
X163435293Y-81261352D01*
X163452065Y-81112500D01*
X163431868Y-80933245D01*
X163372289Y-80762978D01*
X163372288Y-80762977D01*
X163372287Y-80762973D01*
X163276317Y-80610240D01*
X163276316Y-80610238D01*
X163148762Y-80482684D01*
X163141091Y-80477864D01*
X162996026Y-80386712D01*
X162825758Y-80327133D01*
X162825757Y-80327132D01*
X162825755Y-80327132D01*
X162825751Y-80327131D01*
X162825749Y-80327131D01*
X162646500Y-80306935D01*
X162486770Y-80324932D01*
X162450733Y-80314550D01*
X162446636Y-80310888D01*
X162363852Y-80228104D01*
X162349500Y-80193456D01*
X162349500Y-79114750D01*
X162363852Y-79080102D01*
X162380521Y-79069167D01*
X162477658Y-79030862D01*
X162595500Y-78941500D01*
X162684862Y-78823658D01*
X162739117Y-78686077D01*
X162742009Y-78662000D01*
X162749500Y-78599621D01*
X162749500Y-78040378D01*
X162739118Y-77953927D01*
X162739117Y-77953925D01*
X162739117Y-77953923D01*
X162684862Y-77816342D01*
X162595500Y-77698500D01*
X162479512Y-77610544D01*
X162477657Y-77609137D01*
X162390524Y-77574775D01*
X162363556Y-77548713D01*
X162359500Y-77529192D01*
X162359500Y-77505129D01*
X162373852Y-77470481D01*
X162382426Y-77463642D01*
X162436262Y-77429816D01*
X162563816Y-77302262D01*
X162635778Y-77187736D01*
X162659787Y-77149526D01*
X162659787Y-77149524D01*
X162659789Y-77149522D01*
X162719368Y-76979255D01*
X162739565Y-76800000D01*
X162719368Y-76620745D01*
X162659789Y-76450478D01*
X162659788Y-76450477D01*
X162659787Y-76450473D01*
X162563817Y-76297740D01*
X162563816Y-76297738D01*
X162436262Y-76170184D01*
X162436259Y-76170182D01*
X162283526Y-76074212D01*
X162113258Y-76014633D01*
X162113257Y-76014632D01*
X162113255Y-76014632D01*
X162113251Y-76014631D01*
X162113249Y-76014631D01*
X161934000Y-75994435D01*
X161754750Y-76014631D01*
X161754741Y-76014633D01*
X161584473Y-76074212D01*
X161431740Y-76170182D01*
X161431736Y-76170185D01*
X161304185Y-76297736D01*
X161304182Y-76297740D01*
X161208212Y-76450473D01*
X161148633Y-76620741D01*
X161148631Y-76620750D01*
X161128435Y-76800000D01*
X161148631Y-76979249D01*
X161148633Y-76979258D01*
X161208212Y-77149526D01*
X161296651Y-77290274D01*
X161304184Y-77302262D01*
X161431738Y-77429816D01*
X161485569Y-77463640D01*
X161507271Y-77494225D01*
X161508500Y-77505129D01*
X161508500Y-77521305D01*
X161494148Y-77555953D01*
X161477476Y-77566888D01*
X161370342Y-77609137D01*
X161252500Y-77698500D01*
X161163139Y-77816339D01*
X161108881Y-77953927D01*
X161098500Y-78040378D01*
X161098500Y-78599621D01*
X161108881Y-78686072D01*
X161108883Y-78686077D01*
X161153497Y-78799211D01*
X161163139Y-78823660D01*
X161175088Y-78839417D01*
X161252500Y-78941500D01*
X161322878Y-78994869D01*
X161365226Y-79026983D01*
X161370342Y-79030862D01*
X161467477Y-79069167D01*
X161494443Y-79095228D01*
X161498500Y-79114750D01*
X161498500Y-80446021D01*
X161527496Y-80554235D01*
X161527497Y-80554239D01*
X161583515Y-80651263D01*
X161844888Y-80912636D01*
X161859240Y-80947284D01*
X161858932Y-80952770D01*
X161840935Y-81112500D01*
X161861131Y-81291749D01*
X161861133Y-81291758D01*
X161920712Y-81462026D01*
X162001751Y-81590997D01*
X162016684Y-81614762D01*
X162144238Y-81742316D01*
X162144240Y-81742317D01*
X162296973Y-81838287D01*
X162296977Y-81838288D01*
X162296978Y-81838289D01*
X162467245Y-81897868D01*
X162646500Y-81918065D01*
X162795352Y-81901293D01*
X162806230Y-81900068D01*
X162842267Y-81910450D01*
X162846364Y-81914112D01*
X163919148Y-82986896D01*
X163933500Y-83021544D01*
X163933500Y-83373137D01*
X163935918Y-83389730D01*
X163944134Y-83446125D01*
X163944134Y-83446126D01*
X163944135Y-83446128D01*
X163953521Y-83465327D01*
X163958500Y-83486847D01*
X163958500Y-83534206D01*
X163987496Y-83642420D01*
X163987497Y-83642424D01*
X164043515Y-83739448D01*
X164496472Y-84192405D01*
X164509154Y-84214371D01*
X164526922Y-84280685D01*
X164526923Y-84280688D01*
X164586403Y-84383708D01*
X164592815Y-84394814D01*
X164686001Y-84488000D01*
X164727772Y-84512117D01*
X164800126Y-84553891D01*
X164800128Y-84553891D01*
X164800129Y-84553892D01*
X164824735Y-84560485D01*
X164927419Y-84587999D01*
X164927420Y-84588000D01*
X164927423Y-84588000D01*
X169334500Y-84588000D01*
X169369148Y-84602352D01*
X169383500Y-84637000D01*
X169383500Y-89080500D01*
X169369148Y-89115148D01*
X169334500Y-89129500D01*
X164238105Y-89129500D01*
X164110818Y-89163606D01*
X164110814Y-89163608D01*
X164082998Y-89179667D01*
X164045817Y-89184561D01*
X164016064Y-89161730D01*
X164009500Y-89137231D01*
X164009500Y-88976862D01*
X164007100Y-88960393D01*
X163998866Y-88903875D01*
X163976936Y-88859018D01*
X163974613Y-88821590D01*
X163976931Y-88815993D01*
X163998866Y-88771125D01*
X164009500Y-88698136D01*
X164009500Y-88476864D01*
X163998866Y-88403875D01*
X163976936Y-88359018D01*
X163974613Y-88321590D01*
X163976931Y-88315993D01*
X163998866Y-88271125D01*
X164009500Y-88198136D01*
X164009500Y-87976864D01*
X163998866Y-87903875D01*
X163943826Y-87791289D01*
X163855211Y-87702674D01*
X163855210Y-87702673D01*
X163855208Y-87702672D01*
X163742628Y-87647635D01*
X163742626Y-87647634D01*
X163669638Y-87637000D01*
X163669636Y-87637000D01*
X162273364Y-87637000D01*
X162273362Y-87637000D01*
X162200375Y-87647634D01*
X162200371Y-87647635D01*
X162181173Y-87657021D01*
X162159653Y-87662000D01*
X158665478Y-87662000D01*
X158557264Y-87690996D01*
X158557260Y-87690997D01*
X158460236Y-87747015D01*
X158460236Y-87747016D01*
X158020829Y-88186421D01*
X157986181Y-88200773D01*
X157961104Y-88192338D01*
X157960576Y-88193279D01*
X157957660Y-88191639D01*
X157957658Y-88191638D01*
X157820077Y-88137383D01*
X157820075Y-88137382D01*
X157820071Y-88137381D01*
X157820072Y-88137381D01*
X157733621Y-88127000D01*
X157733618Y-88127000D01*
X157174382Y-88127000D01*
X157174379Y-88127000D01*
X157087927Y-88137381D01*
X156950339Y-88191639D01*
X156832500Y-88281000D01*
X156743139Y-88398839D01*
X156688881Y-88536427D01*
X156678500Y-88622878D01*
X156678500Y-89307121D01*
X156688881Y-89393572D01*
X156688883Y-89393577D01*
X156735977Y-89513000D01*
X156743139Y-89531160D01*
X156779349Y-89578910D01*
X156832500Y-89649000D01*
X156889561Y-89692271D01*
X156938131Y-89729103D01*
X156957067Y-89761474D01*
X156947566Y-89797754D01*
X156926501Y-89813729D01*
X156921656Y-89815639D01*
X156801078Y-89907078D01*
X156709640Y-90027655D01*
X156699901Y-90052352D01*
X156656035Y-90163589D01*
X156654123Y-90168437D01*
X156654121Y-90168444D01*
X156644904Y-90245198D01*
X156626524Y-90277888D01*
X156620755Y-90281791D01*
X156572740Y-90309513D01*
X156572733Y-90309518D01*
X155963863Y-90918387D01*
X155929215Y-90932739D01*
X155923729Y-90932431D01*
X155764000Y-90914435D01*
X155584750Y-90934631D01*
X155584741Y-90934633D01*
X155414473Y-90994212D01*
X155261740Y-91090182D01*
X155261736Y-91090185D01*
X155134185Y-91217736D01*
X155134182Y-91217740D01*
X155038212Y-91370473D01*
X154978633Y-91540741D01*
X154978019Y-91543432D01*
X154977120Y-91543226D01*
X154960516Y-91573250D01*
X154924476Y-91583622D01*
X154895328Y-91569580D01*
X153763852Y-90438104D01*
X153749500Y-90403456D01*
X153749500Y-86014296D01*
X153763852Y-85979648D01*
X153798500Y-85965296D01*
X153833148Y-85979648D01*
X153834998Y-85981498D01*
X153835000Y-85981500D01*
X153852998Y-85995148D01*
X153928155Y-86052142D01*
X153947091Y-86084513D01*
X153937590Y-86120793D01*
X153933196Y-86125832D01*
X153921796Y-86137232D01*
X153921792Y-86137238D01*
X153876415Y-86240006D01*
X153873500Y-86265134D01*
X153873500Y-87254858D01*
X153873501Y-87254868D01*
X153876415Y-87279992D01*
X153921794Y-87382766D01*
X154001233Y-87462205D01*
X154104006Y-87507584D01*
X154104009Y-87507585D01*
X154129135Y-87510500D01*
X155918864Y-87510499D01*
X155943991Y-87507585D01*
X156046765Y-87462206D01*
X156126206Y-87382765D01*
X156171585Y-87279991D01*
X156174500Y-87254865D01*
X156174499Y-86509543D01*
X156188851Y-86474896D01*
X156213877Y-86449870D01*
X156296485Y-86367263D01*
X156352503Y-86270237D01*
X156365770Y-86220724D01*
X156378875Y-86171818D01*
X156401705Y-86142065D01*
X156426205Y-86135500D01*
X156586121Y-86135500D01*
X156672572Y-86125118D01*
X156672573Y-86125117D01*
X156672577Y-86125117D01*
X156810158Y-86070862D01*
X156928000Y-85981500D01*
X157017362Y-85863658D01*
X157035949Y-85816523D01*
X157062011Y-85789557D01*
X157081533Y-85785500D01*
X157501872Y-85785500D01*
X157536520Y-85799852D01*
X158416215Y-86679546D01*
X158416220Y-86679552D01*
X158417931Y-86681263D01*
X158497153Y-86760485D01*
X158593338Y-86816017D01*
X158593338Y-86816018D01*
X158593823Y-86816297D01*
X158594179Y-86816503D01*
X158594181Y-86816503D01*
X158594182Y-86816504D01*
X158702393Y-86845499D01*
X158702394Y-86845500D01*
X158702397Y-86845500D01*
X158702398Y-86845500D01*
X159475476Y-86845500D01*
X159510124Y-86859852D01*
X159999035Y-87348763D01*
X160078257Y-87427985D01*
X160113769Y-87448488D01*
X160175280Y-87484002D01*
X160175282Y-87484002D01*
X160175283Y-87484003D01*
X160260631Y-87506871D01*
X160283498Y-87512999D01*
X160283499Y-87513000D01*
X160283502Y-87513000D01*
X162159653Y-87513000D01*
X162181173Y-87517979D01*
X162198058Y-87526233D01*
X162200375Y-87527366D01*
X162256893Y-87535600D01*
X162273362Y-87538000D01*
X162273364Y-87538000D01*
X163669638Y-87538000D01*
X163688201Y-87535295D01*
X163742625Y-87527366D01*
X163855211Y-87472326D01*
X163943826Y-87383711D01*
X163998866Y-87271125D01*
X164009500Y-87198136D01*
X164009500Y-86976864D01*
X163998866Y-86903875D01*
X163976936Y-86859018D01*
X163974613Y-86821590D01*
X163976931Y-86815993D01*
X163998866Y-86771125D01*
X164009500Y-86698136D01*
X164009500Y-86476864D01*
X164009213Y-86474896D01*
X164005567Y-86449870D01*
X163998866Y-86403875D01*
X163976936Y-86359018D01*
X163974613Y-86321590D01*
X163976931Y-86315993D01*
X163998866Y-86271125D01*
X164009500Y-86198136D01*
X164009500Y-85976864D01*
X163998866Y-85903875D01*
X163976936Y-85859018D01*
X163974613Y-85821590D01*
X163976931Y-85815993D01*
X163998866Y-85771125D01*
X164009500Y-85698136D01*
X164009500Y-85476864D01*
X164009301Y-85475500D01*
X164004018Y-85439237D01*
X163998866Y-85403875D01*
X163976936Y-85359018D01*
X163974613Y-85321590D01*
X163976931Y-85315993D01*
X163998866Y-85271125D01*
X164009500Y-85198136D01*
X164009500Y-84976864D01*
X163998866Y-84903875D01*
X163976936Y-84859018D01*
X163974613Y-84821590D01*
X163976931Y-84815993D01*
X163998866Y-84771125D01*
X164009500Y-84698136D01*
X164009500Y-84476864D01*
X163998866Y-84403875D01*
X163976936Y-84359018D01*
X163974613Y-84321590D01*
X163976931Y-84315993D01*
X163998866Y-84271125D01*
X164009500Y-84198136D01*
X164009500Y-83976864D01*
X163998866Y-83903875D01*
X163943826Y-83791289D01*
X163855211Y-83702674D01*
X163855210Y-83702673D01*
X163855208Y-83702672D01*
X163742628Y-83647635D01*
X163742626Y-83647634D01*
X163669638Y-83637000D01*
X163669636Y-83637000D01*
X163143044Y-83637000D01*
X163108396Y-83622648D01*
X162157293Y-82671545D01*
X162145691Y-82653081D01*
X162140465Y-82638147D01*
X162109789Y-82550478D01*
X162109788Y-82550477D01*
X162109787Y-82550473D01*
X162018674Y-82405469D01*
X162013816Y-82397738D01*
X161886262Y-82270184D01*
X161886259Y-82270182D01*
X161733526Y-82174212D01*
X161563258Y-82114633D01*
X161563257Y-82114632D01*
X161563255Y-82114632D01*
X161563251Y-82114631D01*
X161563249Y-82114631D01*
X161384000Y-82094435D01*
X161204750Y-82114631D01*
X161204741Y-82114633D01*
X161034473Y-82174212D01*
X160881740Y-82270182D01*
X160881736Y-82270185D01*
X160754185Y-82397736D01*
X160754182Y-82397740D01*
X160658212Y-82550473D01*
X160598633Y-82720741D01*
X160598631Y-82720750D01*
X160578435Y-82900000D01*
X160598631Y-83079249D01*
X160598633Y-83079258D01*
X160658212Y-83249526D01*
X160749757Y-83395216D01*
X160754184Y-83402262D01*
X160881738Y-83529816D01*
X160881740Y-83529817D01*
X161034473Y-83625787D01*
X161034477Y-83625788D01*
X161034478Y-83625789D01*
X161204745Y-83685368D01*
X161384000Y-83705565D01*
X161563255Y-83685368D01*
X161733522Y-83625789D01*
X161807610Y-83579234D01*
X161844583Y-83572952D01*
X161868328Y-83586076D01*
X162001708Y-83719456D01*
X162016060Y-83754104D01*
X162001715Y-83788746D01*
X161999177Y-83791284D01*
X161999173Y-83791289D01*
X161944135Y-83903871D01*
X161944134Y-83903873D01*
X161933500Y-83976862D01*
X161933500Y-84113000D01*
X161919148Y-84147648D01*
X161884500Y-84162000D01*
X161218044Y-84162000D01*
X161183396Y-84147648D01*
X160465612Y-83429864D01*
X160451260Y-83395216D01*
X160451568Y-83389730D01*
X160460817Y-83307641D01*
X160469565Y-83230000D01*
X160449368Y-83050745D01*
X160389789Y-82880478D01*
X160389788Y-82880477D01*
X160389787Y-82880473D01*
X160310519Y-82754321D01*
X160293816Y-82727738D01*
X160166262Y-82600184D01*
X160166259Y-82600182D01*
X160112430Y-82566358D01*
X160090728Y-82535772D01*
X160089500Y-82524869D01*
X160089500Y-82372000D01*
X160103852Y-82337352D01*
X160138500Y-82323000D01*
X160373621Y-82323000D01*
X160460072Y-82312618D01*
X160460073Y-82312617D01*
X160460077Y-82312617D01*
X160597658Y-82258362D01*
X160715500Y-82169000D01*
X160804862Y-82051158D01*
X160859117Y-81913577D01*
X160859670Y-81908978D01*
X160869500Y-81827121D01*
X160869500Y-81242878D01*
X160859118Y-81156427D01*
X160859117Y-81156425D01*
X160859117Y-81156423D01*
X160804862Y-81018842D01*
X160715500Y-80901000D01*
X160608129Y-80819578D01*
X160597660Y-80811639D01*
X160597658Y-80811638D01*
X160460077Y-80757383D01*
X160460075Y-80757382D01*
X160460071Y-80757381D01*
X160460072Y-80757381D01*
X160373621Y-80747000D01*
X160373618Y-80747000D01*
X159814382Y-80747000D01*
X159814379Y-80747000D01*
X159727927Y-80757381D01*
X159590339Y-80811639D01*
X159472500Y-80901000D01*
X159383139Y-81018839D01*
X159328881Y-81156427D01*
X159318500Y-81242878D01*
X159318500Y-81699293D01*
X159311935Y-81723793D01*
X159267497Y-81800760D01*
X159267496Y-81800764D01*
X159238500Y-81908978D01*
X159238500Y-82524869D01*
X159224148Y-82559517D01*
X159215570Y-82566358D01*
X159161740Y-82600182D01*
X159161736Y-82600185D01*
X159034185Y-82727736D01*
X159034182Y-82727740D01*
X159002081Y-82778827D01*
X158971494Y-82800529D01*
X158934522Y-82794246D01*
X158912820Y-82763659D01*
X158911919Y-82747108D01*
X158914499Y-82724877D01*
X158914499Y-82724873D01*
X158914500Y-82724865D01*
X158914499Y-80535136D01*
X158911585Y-80510009D01*
X158866206Y-80407235D01*
X158866205Y-80407234D01*
X158866205Y-80407233D01*
X158786765Y-80327793D01*
X158768706Y-80319819D01*
X158742808Y-80292694D01*
X158739500Y-80274995D01*
X158739500Y-79417878D01*
X159318500Y-79417878D01*
X159318500Y-80002121D01*
X159328881Y-80088572D01*
X159328883Y-80088577D01*
X159371931Y-80197740D01*
X159383139Y-80226160D01*
X159401816Y-80250789D01*
X159472500Y-80344000D01*
X159590342Y-80433362D01*
X159727923Y-80487617D01*
X159727926Y-80487617D01*
X159727928Y-80487618D01*
X159727927Y-80487618D01*
X159814379Y-80498000D01*
X159814382Y-80498000D01*
X160373621Y-80498000D01*
X160460072Y-80487618D01*
X160460073Y-80487617D01*
X160460077Y-80487617D01*
X160597658Y-80433362D01*
X160715500Y-80344000D01*
X160804862Y-80226158D01*
X160859117Y-80088577D01*
X160866481Y-80027263D01*
X160869500Y-80002121D01*
X160869500Y-79417878D01*
X160859118Y-79331427D01*
X160859117Y-79331425D01*
X160859117Y-79331423D01*
X160804862Y-79193842D01*
X160790932Y-79175473D01*
X160744885Y-79114750D01*
X160727813Y-79092238D01*
X160718313Y-79055959D01*
X160737248Y-79023589D01*
X160845500Y-78941500D01*
X160934862Y-78823658D01*
X160989117Y-78686077D01*
X160992009Y-78662000D01*
X160999500Y-78599621D01*
X160999500Y-78040378D01*
X160989118Y-77953927D01*
X160989117Y-77953925D01*
X160989117Y-77953923D01*
X160934862Y-77816342D01*
X160845500Y-77698500D01*
X160760235Y-77633842D01*
X160727660Y-77609139D01*
X160727658Y-77609138D01*
X160590077Y-77554883D01*
X160590075Y-77554882D01*
X160590071Y-77554881D01*
X160590072Y-77554881D01*
X160503621Y-77544500D01*
X160503618Y-77544500D01*
X159844382Y-77544500D01*
X159844379Y-77544500D01*
X159757927Y-77554881D01*
X159620339Y-77609139D01*
X159502500Y-77698500D01*
X159413139Y-77816339D01*
X159358881Y-77953927D01*
X159348500Y-78040378D01*
X159348500Y-78599621D01*
X159358881Y-78686072D01*
X159358883Y-78686077D01*
X159403497Y-78799211D01*
X159413139Y-78823660D01*
X159425088Y-78839417D01*
X159502500Y-78941500D01*
X159521168Y-78955656D01*
X159524696Y-78958332D01*
X159543632Y-78990703D01*
X159534131Y-79026983D01*
X159524696Y-79036418D01*
X159472500Y-79076000D01*
X159383139Y-79193839D01*
X159328881Y-79331427D01*
X159318500Y-79417878D01*
X158739500Y-79417878D01*
X158739500Y-77610544D01*
X158753852Y-77575896D01*
X159358396Y-76971352D01*
X159393044Y-76957000D01*
X159888621Y-76957000D01*
X159975072Y-76946618D01*
X159975073Y-76946617D01*
X159975077Y-76946617D01*
X160112658Y-76892362D01*
X160230500Y-76803000D01*
X160319862Y-76685158D01*
X160374117Y-76547577D01*
X160375799Y-76533577D01*
X160384500Y-76461121D01*
X160384500Y-75776878D01*
X160374118Y-75690427D01*
X160374117Y-75690425D01*
X160374117Y-75690423D01*
X160319862Y-75552842D01*
X160230500Y-75435000D01*
X160153504Y-75376612D01*
X160112660Y-75345639D01*
X160112658Y-75345638D01*
X159975077Y-75291383D01*
X159975075Y-75291382D01*
X159975071Y-75291381D01*
X159975072Y-75291381D01*
X159888621Y-75281000D01*
X159888618Y-75281000D01*
X159329382Y-75281000D01*
X159329379Y-75281000D01*
X159242927Y-75291381D01*
X159105339Y-75345639D01*
X158987500Y-75435000D01*
X158898139Y-75552839D01*
X158843881Y-75690427D01*
X158833500Y-75776878D01*
X158833500Y-76272456D01*
X158819148Y-76307104D01*
X157973516Y-77152736D01*
X157973515Y-77152736D01*
X157917497Y-77249760D01*
X157917497Y-77249762D01*
X157906640Y-77290278D01*
X157883809Y-77320031D01*
X157846627Y-77324925D01*
X157816874Y-77302094D01*
X157811980Y-77290278D01*
X157810503Y-77284763D01*
X157790721Y-77250500D01*
X157754485Y-77187737D01*
X157675263Y-77108515D01*
X157673557Y-77106809D01*
X157673546Y-77106799D01*
X156928852Y-76362104D01*
X156914500Y-76327456D01*
X156914500Y-75762878D01*
X156904118Y-75676427D01*
X156904117Y-75676425D01*
X156904117Y-75676423D01*
X156849862Y-75538842D01*
X156760500Y-75421000D01*
X156674211Y-75355565D01*
X156642660Y-75331639D01*
X156642658Y-75331638D01*
X156505077Y-75277383D01*
X156505075Y-75277382D01*
X156505071Y-75277381D01*
X156505072Y-75277381D01*
X156418621Y-75267000D01*
X156418618Y-75267000D01*
X155859382Y-75267000D01*
X155859379Y-75267000D01*
X155772927Y-75277381D01*
X155635339Y-75331639D01*
X155517500Y-75421000D01*
X155428139Y-75538839D01*
X155373881Y-75676427D01*
X155363500Y-75762878D01*
X155363500Y-76447121D01*
X155373881Y-76533572D01*
X155428139Y-76671160D01*
X155438754Y-76685158D01*
X155517500Y-76789000D01*
X155635342Y-76878362D01*
X155772923Y-76932617D01*
X155772926Y-76932617D01*
X155772928Y-76932618D01*
X155772927Y-76932618D01*
X155859379Y-76943000D01*
X155859382Y-76943000D01*
X156285956Y-76943000D01*
X156320604Y-76957352D01*
X156974148Y-77610895D01*
X156988500Y-77645543D01*
X156988500Y-78347824D01*
X156974148Y-78382472D01*
X156939500Y-78396824D01*
X156910135Y-78387050D01*
X156816091Y-78316648D01*
X156681373Y-78266401D01*
X156621834Y-78260000D01*
X156224000Y-78260000D01*
X156224000Y-79661000D01*
X156209648Y-79695648D01*
X156175000Y-79710000D01*
X155773000Y-79710000D01*
X155738352Y-79695648D01*
X155724000Y-79661000D01*
X155724000Y-78260000D01*
X155326166Y-78260000D01*
X155266627Y-78266401D01*
X155266626Y-78266401D01*
X155131909Y-78316648D01*
X155096000Y-78343529D01*
X155059662Y-78352803D01*
X155027409Y-78333666D01*
X155018135Y-78297328D01*
X155027592Y-78274696D01*
X155072362Y-78215658D01*
X155126617Y-78078077D01*
X155131145Y-78040378D01*
X155137000Y-77991621D01*
X155137000Y-77432378D01*
X155126618Y-77345927D01*
X155126617Y-77345925D01*
X155126617Y-77345923D01*
X155072362Y-77208342D01*
X154983000Y-77090500D01*
X154888564Y-77018887D01*
X154865160Y-77001139D01*
X154865158Y-77001138D01*
X154727577Y-76946883D01*
X154727575Y-76946882D01*
X154727571Y-76946881D01*
X154727572Y-76946881D01*
X154641121Y-76936500D01*
X154641118Y-76936500D01*
X153956882Y-76936500D01*
X153956879Y-76936500D01*
X153870427Y-76946881D01*
X153732839Y-77001139D01*
X153615000Y-77090500D01*
X153525639Y-77208339D01*
X153471381Y-77345927D01*
X153461000Y-77432378D01*
X153461000Y-77991621D01*
X153471381Y-78078072D01*
X153471383Y-78078077D01*
X153523053Y-78209104D01*
X153525639Y-78215660D01*
X153614999Y-78333499D01*
X153615000Y-78333500D01*
X153665054Y-78371456D01*
X153683991Y-78403827D01*
X153674491Y-78440107D01*
X153642120Y-78459044D01*
X153635453Y-78459500D01*
X153629143Y-78459500D01*
X153629133Y-78459501D01*
X153604007Y-78462415D01*
X153501233Y-78507794D01*
X153421794Y-78587233D01*
X153376415Y-78690006D01*
X153373500Y-78715134D01*
X153373500Y-78715137D01*
X153373501Y-80160500D01*
X153359149Y-80195148D01*
X153324501Y-80209500D01*
X153292979Y-80209500D01*
X153184764Y-80238496D01*
X153184760Y-80238497D01*
X153087736Y-80294515D01*
X153087736Y-80294516D01*
X153008516Y-80373736D01*
X153008515Y-80373736D01*
X152952497Y-80470760D01*
X152952496Y-80470764D01*
X152923500Y-80578978D01*
X152923500Y-83836516D01*
X152952496Y-83944730D01*
X152952497Y-83944734D01*
X152994478Y-84017446D01*
X153008515Y-84041758D01*
X153527242Y-84560485D01*
X153562754Y-84580988D01*
X153624265Y-84616502D01*
X153624267Y-84616502D01*
X153624268Y-84616503D01*
X153645963Y-84622316D01*
X153732483Y-84645499D01*
X153732484Y-84645500D01*
X153732487Y-84645500D01*
X153811929Y-84645500D01*
X153846577Y-84659852D01*
X153860929Y-84694500D01*
X153846577Y-84729148D01*
X153841537Y-84733543D01*
X153835000Y-84738500D01*
X153745639Y-84856339D01*
X153740865Y-84868445D01*
X153727050Y-84903476D01*
X153700989Y-84930443D01*
X153681467Y-84934500D01*
X153647978Y-84934500D01*
X153539764Y-84963496D01*
X153539760Y-84963497D01*
X153442736Y-85019515D01*
X153442736Y-85019516D01*
X152983516Y-85478736D01*
X152983515Y-85478736D01*
X152927497Y-85575760D01*
X152927496Y-85575764D01*
X152898500Y-85683978D01*
X152221000Y-85683978D01*
X152221000Y-72908419D01*
X152235352Y-72873771D01*
X152269999Y-72859419D01*
X182510026Y-72874974D01*
G37*
%TD.AperFunction*%
%TD*%
M02*
