<?xml version="1.0" standalone="no"?>
 <!DOCTYPE svg PUBLIC "-//W3C//DTD SVG 1.1//EN" 
 "http://www.w3.org/Graphics/SVG/1.1/DTD/svg11.dtd"> 
<svg
  xmlns:svg="http://www.w3.org/2000/svg"
  xmlns="http://www.w3.org/2000/svg"
  xmlns:xlink="http://www.w3.org/1999/xlink"
  version="1.1"
  width="297.002200mm" height="210.007200mm" viewBox="0.000000 0.000000 297.002200 210.007200">
<title>SVG Image created as Stm32Board-F_Mask.svg date 2025/03/21 18:00:27 </title>
  <desc>Image generated by PCBNEW </desc>
<g style="fill:#000000; fill-opacity:1.000000;stroke:#000000; stroke-opacity:1.000000;
stroke-linecap:round; stroke-linejoin:round;"
 transform="translate(0 0) scale(1 1)">
</g>
<g style="fill:#000000; fill-opacity:1.000000; stroke:none;">
<circle cx="161.934000" cy="76.800000" r="0.500000" /> 
</g>
<g style="fill:#000000; fill-opacity:1.000000; stroke:none;">
<circle cx="172.034000" cy="82.650000" r="0.500000" /> 
</g>
<g style="fill:#000000; fill-opacity:1.000000; stroke:none;">
<circle cx="172.034000" cy="81.400000" r="0.500000" /> 
</g>
<g style="fill:#000000; fill-opacity:1.000000; stroke:none;">
<circle cx="180.384000" cy="93.000000" r="0.500000" /> 
</g>
<g style="fill:#000000; fill-opacity:1.000000; stroke:none;">
<circle cx="180.434000" cy="91.550000" r="0.500000" /> 
</g>
<g style="fill:#000000; fill-opacity:1.000000; stroke:none;">
<circle cx="180.484000" cy="90.100000" r="0.500000" /> 
</g>
<g style="fill:#000000; fill-opacity:1.000000; stroke:none;">
<circle cx="172.584000" cy="97.300000" r="0.500000" /> 
</g>
<g style="fill:#000000; fill-opacity:1.000000; stroke:none;">
<circle cx="153.234000" cy="94.100000" r="0.500000" /> 
</g>
<g style="fill:#000000; fill-opacity:1.000000; stroke:none;">
<circle cx="153.234000" cy="92.750000" r="0.500000" /> 
</g>
<g style="fill:#000000; fill-opacity:1.000000; stroke:none;">
<circle cx="180.709000" cy="85.500000" r="0.750000" /> 
</g>
<g style="fill:#000000; fill-opacity:1.000000; stroke:none;">
<circle cx="155.764000" cy="91.720000" r="0.500000" /> 
</g>
<g style="fill:#000000; fill-opacity:1.000000; stroke:none;">
<circle cx="177.859000" cy="90.275000" r="0.500000" /> 
</g>
<g style="fill:#000000; fill-opacity:1.000000; stroke:none;">
<circle cx="158.039000" cy="95.850000" r="0.500000" /> 
<path style="fill:#000000; fill-opacity:1.000000; stroke:none;fill-rule:evenodd;"
d="M 155.901500,76.642500
155.810613,76.624421
155.733562,76.572938
155.682079,76.495887
155.664000,76.405000
155.664000,75.805000
155.682079,75.714113
155.733562,75.637062
155.810613,75.585579
155.901500,75.567500
156.376500,75.567500
156.467387,75.585579
156.544438,75.637062
156.595921,75.714113
156.614000,75.805000
156.614000,76.405000
156.595921,76.495887
156.544438,76.572938
156.467387,76.624421
156.376500,76.642500
Z" /> 
<path style="fill:#000000; fill-opacity:1.000000; stroke:none;fill-rule:evenodd;"
d="M 155.901500,74.917500
155.810613,74.899421
155.733562,74.847938
155.682079,74.770887
155.664000,74.680000
155.664000,74.080000
155.682079,73.989113
155.733562,73.912062
155.810613,73.860579
155.901500,73.842500
156.376500,73.842500
156.467387,73.860579
156.544438,73.912062
156.595921,73.989113
156.614000,74.080000
156.614000,74.680000
156.595921,74.770887
156.544438,74.847938
156.467387,74.899421
156.376500,74.917500
Z" /> 
</g>
<g style="fill:#000000; fill-opacity:1.000000; stroke:none;">
<circle cx="170.759000" cy="95.790000" r="0.500000" /> 
</g>
<g style="fill:#000000; fill-opacity:1.000000; stroke:none;">
<circle cx="172.609000" cy="79.525000" r="0.500000" /> 
</g>
<g style="fill:#000000; fill-opacity:1.000000; stroke:none;">
<circle cx="177.864000" cy="88.560000" r="0.500000" /> 
</g>
<g style="fill:#000000; fill-opacity:1.000000; stroke:none;">
<circle cx="159.664000" cy="83.230000" r="0.500000" /> 
<path style="fill:#000000; fill-opacity:1.000000; stroke:none;fill-rule:evenodd;"
d="M 154.174000,86.310000
155.874000,86.310000
155.874000,87.210000
154.174000,87.210000
Z" /> 
<path style="fill:#000000; fill-opacity:1.000000; stroke:none;fill-rule:evenodd;"
d="M 154.174000,89.710000
155.874000,89.710000
155.874000,90.610000
154.174000,90.610000
Z" /> 
<path style="fill:#000000; fill-opacity:1.000000; stroke:none;fill-rule:evenodd;"
d="M 156.561500,77.949500
156.543421,78.040387
156.491938,78.117438
156.414887,78.168921
156.324000,78.187000
155.724000,78.187000
155.633113,78.168921
155.556062,78.117438
155.504579,78.040387
155.486500,77.949500
155.486500,77.474500
155.504579,77.383613
155.556062,77.306562
155.633113,77.255079
155.724000,77.237000
156.324000,77.237000
156.414887,77.255079
156.491938,77.306562
156.543421,77.383613
156.561500,77.474500
Z" /> 
<path style="fill:#000000; fill-opacity:1.000000; stroke:none;fill-rule:evenodd;"
d="M 154.836500,77.949500
154.818421,78.040387
154.766938,78.117438
154.689887,78.168921
154.599000,78.187000
153.999000,78.187000
153.908113,78.168921
153.831062,78.117438
153.779579,78.040387
153.761500,77.949500
153.761500,77.474500
153.779579,77.383613
153.831062,77.306562
153.908113,77.255079
153.999000,77.237000
154.599000,77.237000
154.689887,77.255079
154.766938,77.306562
154.818421,77.383613
154.836500,77.474500
Z" /> 
</g>
<g style="fill:#000000; fill-opacity:1.000000; stroke:none;">
<circle cx="165.779000" cy="74.575000" r="0.500000" /> 
<path style="fill:#000000; fill-opacity:1.000000; stroke:none;fill-rule:evenodd;"
d="M 159.846500,73.856500
159.937387,73.874579
160.014438,73.926062
160.065921,74.003113
160.084000,74.094000
160.084000,74.694000
160.065921,74.784887
160.014438,74.861938
159.937387,74.913421
159.846500,74.931500
159.371500,74.931500
159.280613,74.913421
159.203562,74.861938
159.152079,74.784887
159.134000,74.694000
159.134000,74.094000
159.152079,74.003113
159.203562,73.926062
159.280613,73.874579
159.371500,73.856500
Z" /> 
<path style="fill:#000000; fill-opacity:1.000000; stroke:none;fill-rule:evenodd;"
d="M 159.846500,75.581500
159.937387,75.599579
160.014438,75.651062
160.065921,75.728113
160.084000,75.819000
160.084000,76.419000
160.065921,76.509887
160.014438,76.586938
159.937387,76.638421
159.846500,76.656500
159.371500,76.656500
159.280613,76.638421
159.203562,76.586938
159.152079,76.509887
159.134000,76.419000
159.134000,75.819000
159.152079,75.728113
159.203562,75.651062
159.280613,75.599579
159.371500,75.581500
Z" /> 
<path style="fill:#000000; fill-opacity:1.000000; stroke:none;fill-rule:evenodd;"
d="M 153.674000,78.760000
154.874000,78.760000
154.874000,80.160000
153.674000,80.160000
Z" /> 
<path style="fill:#000000; fill-opacity:1.000000; stroke:none;fill-rule:evenodd;"
d="M 153.674000,80.960000
154.874000,80.960000
154.874000,82.360000
153.674000,82.360000
Z" /> 
<path style="fill:#000000; fill-opacity:1.000000; stroke:none;fill-rule:evenodd;"
d="M 155.374000,80.960000
156.574000,80.960000
156.574000,82.360000
155.374000,82.360000
Z" /> 
<path style="fill:#000000; fill-opacity:1.000000; stroke:none;fill-rule:evenodd;"
d="M 155.374000,78.760000
156.574000,78.760000
156.574000,80.160000
155.374000,80.160000
Z" /> 
<path style="fill:#000000; fill-opacity:1.000000; stroke:none;fill-rule:evenodd;"
d="M 175.971500,82.550000
175.989579,82.459113
176.041062,82.382062
176.118113,82.330579
176.209000,82.312500
176.809000,82.312500
176.899887,82.330579
176.976938,82.382062
177.028421,82.459113
177.046500,82.550000
177.046500,83.025000
177.028421,83.115887
176.976938,83.192938
176.899887,83.244421
176.809000,83.262500
176.209000,83.262500
176.118113,83.244421
176.041062,83.192938
175.989579,83.115887
175.971500,83.025000
Z" /> 
<path style="fill:#000000; fill-opacity:1.000000; stroke:none;fill-rule:evenodd;"
d="M 177.696500,82.550000
177.714579,82.459113
177.766062,82.382062
177.843113,82.330579
177.934000,82.312500
178.534000,82.312500
178.624887,82.330579
178.701938,82.382062
178.753421,82.459113
178.771500,82.550000
178.771500,83.025000
178.753421,83.115887
178.701938,83.192938
178.624887,83.244421
178.534000,83.262500
177.934000,83.262500
177.843113,83.244421
177.766062,83.192938
177.714579,83.115887
177.696500,83.025000
Z" /> 
</g>
<g style="fill:#000000; fill-opacity:1.000000; stroke:none;">
<circle cx="160.034000" cy="96.270000" r="0.500000" /> 
</g>
<g style="fill:#000000; fill-opacity:1.000000; stroke:none;">
<circle cx="161.384000" cy="82.900000" r="0.500000" /> 
<path style="fill:#000000; fill-opacity:1.000000; stroke:none;fill-rule:evenodd;"
d="M 178.484000,83.850000
178.541403,83.861418
178.590066,83.893934
178.622582,83.942597
178.634000,84.000000
178.634000,85.025000
178.622582,85.082403
178.590066,85.131066
178.541403,85.163582
178.484000,85.175000
178.184000,85.175000
178.126597,85.163582
178.077934,85.131066
178.045418,85.082403
178.034000,85.025000
178.034000,84.000000
178.045418,83.942597
178.077934,83.893934
178.126597,83.861418
178.184000,83.850000
Z" /> 
<path style="fill:#000000; fill-opacity:1.000000; stroke:none;fill-rule:evenodd;"
d="M 177.534000,83.850000
177.591403,83.861418
177.640066,83.893934
177.672582,83.942597
177.684000,84.000000
177.684000,85.025000
177.672582,85.082403
177.640066,85.131066
177.591403,85.163582
177.534000,85.175000
177.234000,85.175000
177.176597,85.163582
177.127934,85.131066
177.095418,85.082403
177.084000,85.025000
177.084000,84.000000
177.095418,83.942597
177.127934,83.893934
177.176597,83.861418
177.234000,83.850000
Z" /> 
<path style="fill:#000000; fill-opacity:1.000000; stroke:none;fill-rule:evenodd;"
d="M 176.584000,83.850000
176.641403,83.861418
176.690066,83.893934
176.722582,83.942597
176.734000,84.000000
176.734000,85.025000
176.722582,85.082403
176.690066,85.131066
176.641403,85.163582
176.584000,85.175000
176.284000,85.175000
176.226597,85.163582
176.177934,85.131066
176.145418,85.082403
176.134000,85.025000
176.134000,84.000000
176.145418,83.942597
176.177934,83.893934
176.226597,83.861418
176.284000,83.850000
Z" /> 
<path style="fill:#000000; fill-opacity:1.000000; stroke:none;fill-rule:evenodd;"
d="M 176.584000,86.125000
176.641403,86.136418
176.690066,86.168934
176.722582,86.217597
176.734000,86.275000
176.734000,87.300000
176.722582,87.357403
176.690066,87.406066
176.641403,87.438582
176.584000,87.450000
176.284000,87.450000
176.226597,87.438582
176.177934,87.406066
176.145418,87.357403
176.134000,87.300000
176.134000,86.275000
176.145418,86.217597
176.177934,86.168934
176.226597,86.136418
176.284000,86.125000
Z" /> 
<path style="fill:#000000; fill-opacity:1.000000; stroke:none;fill-rule:evenodd;"
d="M 178.484000,86.125000
178.541403,86.136418
178.590066,86.168934
178.622582,86.217597
178.634000,86.275000
178.634000,87.300000
178.622582,87.357403
178.590066,87.406066
178.541403,87.438582
178.484000,87.450000
178.184000,87.450000
178.126597,87.438582
178.077934,87.406066
178.045418,87.357403
178.034000,87.300000
178.034000,86.275000
178.045418,86.217597
178.077934,86.168934
178.126597,86.136418
178.184000,86.125000
Z" /> 
</g>
<g style="fill:#000000; fill-opacity:1.000000; stroke:none;">
<circle cx="180.759000" cy="87.487500" r="0.500000" /> 
<path style="fill:#000000; fill-opacity:1.000000; stroke:none;fill-rule:evenodd;"
d="M 153.981500,85.122500
153.999579,85.031613
154.051062,84.954562
154.128113,84.903079
154.219000,84.885000
154.719000,84.885000
154.809887,84.903079
154.886938,84.954562
154.938421,85.031613
154.956500,85.122500
154.956500,85.597500
154.938421,85.688387
154.886938,85.765438
154.809887,85.816921
154.719000,85.835000
154.219000,85.835000
154.128113,85.816921
154.051062,85.765438
153.999579,85.688387
153.981500,85.597500
Z" /> 
<path style="fill:#000000; fill-opacity:1.000000; stroke:none;fill-rule:evenodd;"
d="M 155.806500,85.122500
155.824579,85.031613
155.876062,84.954562
155.953113,84.903079
156.044000,84.885000
156.544000,84.885000
156.634887,84.903079
156.711938,84.954562
156.763421,85.031613
156.781500,85.122500
156.781500,85.597500
156.763421,85.688387
156.711938,85.765438
156.634887,85.816921
156.544000,85.835000
156.044000,85.835000
155.953113,85.816921
155.876062,85.765438
155.824579,85.688387
155.806500,85.597500
Z" /> 
</g>
<g style="fill:#000000; fill-opacity:1.000000; stroke:none;">
<circle cx="159.744000" cy="92.590000" r="0.500000" /> 
<path style="fill:#000000; fill-opacity:1.000000; stroke:none;fill-rule:evenodd;"
d="M 157.216500,89.502500
157.125613,89.484421
157.048562,89.432938
156.997079,89.355887
156.979000,89.265000
156.979000,88.665000
156.997079,88.574113
157.048562,88.497062
157.125613,88.445579
157.216500,88.427500
157.691500,88.427500
157.782387,88.445579
157.859438,88.497062
157.910921,88.574113
157.929000,88.665000
157.929000,89.265000
157.910921,89.355887
157.859438,89.432938
157.782387,89.484421
157.691500,89.502500
Z" /> 
<path style="fill:#000000; fill-opacity:1.000000; stroke:none;fill-rule:evenodd;"
d="M 157.216500,87.777500
157.125613,87.759421
157.048562,87.707938
156.997079,87.630887
156.979000,87.540000
156.979000,86.940000
156.997079,86.849113
157.048562,86.772062
157.125613,86.720579
157.216500,86.702500
157.691500,86.702500
157.782387,86.720579
157.859438,86.772062
157.910921,86.849113
157.929000,86.940000
157.929000,87.540000
157.910921,87.630887
157.859438,87.707938
157.782387,87.759421
157.691500,87.777500
Z" /> 
</g>
<g style="fill:#000000; fill-opacity:1.000000; stroke:none;">
<circle cx="167.134000" cy="96.270000" r="0.500000" /> 
</g>
<g style="fill:#000000; fill-opacity:1.000000; stroke:none;">
<circle cx="163.409000" cy="74.550000" r="0.500000" /> 
</g>
<g style="fill:#000000; fill-opacity:1.000000; stroke:none;">
<circle cx="165.859000" cy="79.700000" r="0.500000" /> 
</g>
<g style="fill:#000000; fill-opacity:1.000000; stroke:none;">
<circle cx="175.809000" cy="94.875000" r="0.500000" /> 
<path style="fill:#000000; fill-opacity:1.000000; stroke:none;fill-rule:evenodd;"
d="M 156.584000,83.657500
156.565921,83.748387
156.514438,83.825438
156.437387,83.876921
156.346500,83.895000
155.746500,83.895000
155.655613,83.876921
155.578562,83.825438
155.527079,83.748387
155.509000,83.657500
155.509000,83.182500
155.527079,83.091613
155.578562,83.014562
155.655613,82.963079
155.746500,82.945000
156.346500,82.945000
156.437387,82.963079
156.514438,83.014562
156.565921,83.091613
156.584000,83.182500
Z" /> 
<path style="fill:#000000; fill-opacity:1.000000; stroke:none;fill-rule:evenodd;"
d="M 154.859000,83.657500
154.840921,83.748387
154.789438,83.825438
154.712387,83.876921
154.621500,83.895000
154.021500,83.895000
153.930613,83.876921
153.853562,83.825438
153.802079,83.748387
153.784000,83.657500
153.784000,83.182500
153.802079,83.091613
153.853562,83.014562
153.930613,82.963079
154.021500,82.945000
154.621500,82.945000
154.712387,82.963079
154.789438,83.014562
154.840921,83.091613
154.859000,83.182500
Z" /> 
</g>
<g style="fill:#000000; fill-opacity:1.000000; stroke:none;">
<circle cx="162.646500" cy="81.112500" r="0.500000" /> 
</g>
<g style="fill:#000000; fill-opacity:1.000000; stroke:none;">
<circle cx="169.034000" cy="95.790000" r="0.500000" /> 
</g>
<g style="fill:#000000; fill-opacity:1.000000; stroke:none;">
<circle cx="165.359000" cy="96.270000" r="0.500000" /> 
</g>
<g style="fill:#000000; fill-opacity:1.000000; stroke:none;">
<circle cx="161.584000" cy="74.550000" r="0.500000" /> 
<path style="fill:#000000; fill-opacity:1.000000; stroke:none;fill-rule:evenodd;"
d="M 171.271500,90.912500
171.362387,90.930579
171.439438,90.982062
171.490921,91.059113
171.509000,91.150000
171.509000,91.750000
171.490921,91.840887
171.439438,91.917938
171.362387,91.969421
171.271500,91.987500
170.796500,91.987500
170.705613,91.969421
170.628562,91.917938
170.577079,91.840887
170.559000,91.750000
170.559000,91.150000
170.577079,91.059113
170.628562,90.982062
170.705613,90.930579
170.796500,90.912500
Z" /> 
<path style="fill:#000000; fill-opacity:1.000000; stroke:none;fill-rule:evenodd;"
d="M 171.271500,92.637500
171.362387,92.655579
171.439438,92.707062
171.490921,92.784113
171.509000,92.875000
171.509000,93.475000
171.490921,93.565887
171.439438,93.642938
171.362387,93.694421
171.271500,93.712500
170.796500,93.712500
170.705613,93.694421
170.628562,93.642938
170.577079,93.565887
170.559000,93.475000
170.559000,92.875000
170.577079,92.784113
170.628562,92.707062
170.705613,92.655579
170.796500,92.637500
Z" /> 
</g>
<g style="fill:#000000; fill-opacity:1.000000; stroke:none;">
<circle cx="167.554000" cy="74.550000" r="0.500000" /> 
<path style="fill:#000000; fill-opacity:1.000000; stroke:none;fill-rule:evenodd;"
d="M 158.094000,90.050000
158.189671,90.069030
158.270777,90.123223
158.324970,90.204329
158.344000,90.300000
158.344000,91.000000
158.324970,91.095671
158.270777,91.176777
158.189671,91.230970
158.094000,91.250000
157.194000,91.250000
157.098329,91.230970
157.017223,91.176777
156.963030,91.095671
156.944000,91.000000
156.944000,90.300000
156.963030,90.204329
157.017223,90.123223
157.098329,90.069030
157.194000,90.050000
Z" /> 
<path style="fill:#000000; fill-opacity:1.000000; stroke:none;fill-rule:evenodd;"
d="M 158.094000,92.050000
158.189671,92.069030
158.270777,92.123223
158.324970,92.204329
158.344000,92.300000
158.344000,93.000000
158.324970,93.095671
158.270777,93.176777
158.189671,93.230970
158.094000,93.250000
157.194000,93.250000
157.098329,93.230970
157.017223,93.176777
156.963030,93.095671
156.944000,93.000000
156.944000,92.300000
156.963030,92.204329
157.017223,92.123223
157.098329,92.069030
157.194000,92.050000
Z" /> 
<path style="fill:#000000; fill-opacity:1.000000; stroke:none;fill-rule:evenodd;"
d="M 178.014000,79.000000
176.634000,79.000000
176.634000,78.550000
178.014000,78.550000
Z" /> 
<path style="fill:#000000; fill-opacity:1.000000; stroke:none;fill-rule:evenodd;"
d="M 178.014000,78.350000
176.634000,78.350000
176.634000,77.900000
178.014000,77.900000
Z" /> 
<path style="fill:#000000; fill-opacity:1.000000; stroke:none;fill-rule:evenodd;"
d="M 178.014000,77.700000
176.634000,77.700000
176.634000,77.250000
178.014000,77.250000
Z" /> 
<path style="fill:#000000; fill-opacity:1.000000; stroke:none;fill-rule:evenodd;"
d="M 178.014000,77.050000
176.634000,77.050000
176.634000,76.600000
178.014000,76.600000
Z" /> 
<path style="fill:#000000; fill-opacity:1.000000; stroke:none;fill-rule:evenodd;"
d="M 178.014000,76.400000
176.634000,76.400000
176.634000,75.950000
178.014000,75.950000
Z" /> 
<path style="fill:#000000; fill-opacity:1.000000; stroke:none;fill-rule:evenodd;"
d="M 180.634000,81.675000
179.334000,81.675000
179.334000,80.025000
180.634000,80.025000
Z" /> 
<path style="fill:#000000; fill-opacity:1.000000; stroke:none;fill-rule:evenodd;"
d="M 178.184000,80.675000
176.634000,80.675000
176.634000,79.250000
178.184000,79.250000
Z" /> 
<path style="fill:#000000; fill-opacity:1.000000; stroke:none;fill-rule:evenodd;"
d="M 180.934000,79.525000
179.034000,79.525000
179.034000,77.725000
180.934000,77.725000
Z" /> 
<path style="fill:#000000; fill-opacity:1.000000; stroke:none;fill-rule:evenodd;"
d="M 180.934000,76.425000
179.034000,76.425000
179.034000,75.425000
180.934000,75.425000
Z" /> 
<path style="fill:#000000; fill-opacity:1.000000; stroke:none;fill-rule:evenodd;"
d="M 178.184000,75.700000
176.634000,75.700000
176.634000,74.275000
178.184000,74.275000
Z" /> 
<path style="fill:#000000; fill-opacity:1.000000; stroke:none;fill-rule:evenodd;"
d="M 180.634000,74.925000
179.334000,74.925000
179.334000,73.275000
180.634000,73.275000
Z" /> 
</g>
<g style="fill:#000000; fill-opacity:1.000000; stroke:none;">
<circle cx="156.264000" cy="95.875000" r="0.500000" /> 
<path style="fill:#000000; fill-opacity:1.000000; stroke:none;fill-rule:evenodd;"
d="M 158.614000,82.680000
158.014000,82.680000
158.014000,80.580000
158.614000,80.580000
Z" /> 
<path style="fill:#000000; fill-opacity:1.000000; stroke:none;fill-rule:evenodd;"
d="M 158.614000,75.480000
158.014000,75.480000
158.014000,73.380000
158.614000,73.380000
Z" /> 
<path style="fill:#000000; fill-opacity:1.000000; stroke:none;fill-rule:evenodd;"
d="M 157.714000,75.480000
157.114000,75.480000
157.114000,73.380000
157.714000,73.380000
Z" /> 
<path style="fill:#000000; fill-opacity:1.000000; stroke:none;fill-rule:evenodd;"
d="M 157.714000,82.680000
157.114000,82.680000
157.114000,80.580000
157.714000,80.580000
Z" /> 
</g>
<g style="fill:#000000; fill-opacity:1.000000; stroke:none;">
<circle cx="169.304000" cy="74.550000" r="0.500000" /> 
</g>
<g style="fill:#000000; fill-opacity:1.000000; stroke:none;">
<circle cx="174.034000" cy="94.900000" r="0.500000" /> 
<path style="fill:#000000; fill-opacity:1.000000; stroke:none;fill-rule:evenodd;"
d="M 166.081500,75.837500
166.172387,75.855579
166.249438,75.907062
166.300921,75.984113
166.319000,76.075000
166.319000,76.575000
166.300921,76.665887
166.249438,76.742938
166.172387,76.794421
166.081500,76.812500
165.606500,76.812500
165.515613,76.794421
165.438562,76.742938
165.387079,76.665887
165.369000,76.575000
165.369000,76.075000
165.387079,75.984113
165.438562,75.907062
165.515613,75.855579
165.606500,75.837500
Z" /> 
<path style="fill:#000000; fill-opacity:1.000000; stroke:none;fill-rule:evenodd;"
d="M 166.081500,77.662500
166.172387,77.680579
166.249438,77.732062
166.300921,77.809113
166.319000,77.900000
166.319000,78.400000
166.300921,78.490887
166.249438,78.567938
166.172387,78.619421
166.081500,78.637500
165.606500,78.637500
165.515613,78.619421
165.438562,78.567938
165.387079,78.490887
165.369000,78.400000
165.369000,77.900000
165.387079,77.809113
165.438562,77.732062
165.515613,77.680579
165.606500,77.662500
Z" /> 
</g>
<g style="fill:#000000; fill-opacity:1.000000; stroke:none;">
<circle cx="161.809000" cy="96.270000" r="0.500000" /> 
</g>
<g style="fill:#000000; fill-opacity:1.000000; stroke:none;">
<circle cx="175.184000" cy="76.460000" r="0.500000" /> 
<path style="fill:#000000; fill-opacity:1.000000; stroke:none;fill-rule:evenodd;"
d="M 175.584000,78.962500
175.679671,78.981530
175.760777,79.035723
175.814970,79.116829
175.834000,79.212500
175.834000,79.912500
175.814970,80.008171
175.760777,80.089277
175.679671,80.143470
175.584000,80.162500
174.684000,80.162500
174.588329,80.143470
174.507223,80.089277
174.453030,80.008171
174.434000,79.912500
174.434000,79.212500
174.453030,79.116829
174.507223,79.035723
174.588329,78.981530
174.684000,78.962500
Z" /> 
<path style="fill:#000000; fill-opacity:1.000000; stroke:none;fill-rule:evenodd;"
d="M 175.584000,80.962500
175.679671,80.981530
175.760777,81.035723
175.814970,81.116829
175.834000,81.212500
175.834000,81.912500
175.814970,82.008171
175.760777,82.089277
175.679671,82.143470
175.584000,82.162500
174.684000,82.162500
174.588329,82.143470
174.507223,82.089277
174.453030,82.008171
174.434000,81.912500
174.434000,81.212500
174.453030,81.116829
174.507223,81.035723
174.588329,80.981530
174.684000,80.962500
Z" /> 
<path style="fill:#000000; fill-opacity:1.000000; stroke:none;fill-rule:evenodd;"
d="M 162.234000,84.012500
162.239709,83.983799
162.255967,83.959467
162.280299,83.943209
162.309000,83.937500
163.634000,83.937500
163.662701,83.943209
163.687033,83.959467
163.703291,83.983799
163.709000,84.012500
163.709000,84.162500
163.703291,84.191201
163.687033,84.215533
163.662701,84.231791
163.634000,84.237500
162.309000,84.237500
162.280299,84.231791
162.255967,84.215533
162.239709,84.191201
162.234000,84.162500
Z" /> 
<path style="fill:#000000; fill-opacity:1.000000; stroke:none;fill-rule:evenodd;"
d="M 162.234000,84.512500
162.239709,84.483799
162.255967,84.459467
162.280299,84.443209
162.309000,84.437500
163.634000,84.437500
163.662701,84.443209
163.687033,84.459467
163.703291,84.483799
163.709000,84.512500
163.709000,84.662500
163.703291,84.691201
163.687033,84.715533
163.662701,84.731791
163.634000,84.737500
162.309000,84.737500
162.280299,84.731791
162.255967,84.715533
162.239709,84.691201
162.234000,84.662500
Z" /> 
<path style="fill:#000000; fill-opacity:1.000000; stroke:none;fill-rule:evenodd;"
d="M 162.234000,85.012500
162.239709,84.983799
162.255967,84.959467
162.280299,84.943209
162.309000,84.937500
163.634000,84.937500
163.662701,84.943209
163.687033,84.959467
163.703291,84.983799
163.709000,85.012500
163.709000,85.162500
163.703291,85.191201
163.687033,85.215533
163.662701,85.231791
163.634000,85.237500
162.309000,85.237500
162.280299,85.231791
162.255967,85.215533
162.239709,85.191201
162.234000,85.162500
Z" /> 
<path style="fill:#000000; fill-opacity:1.000000; stroke:none;fill-rule:evenodd;"
d="M 162.234000,85.512500
162.239709,85.483799
162.255967,85.459467
162.280299,85.443209
162.309000,85.437500
163.634000,85.437500
163.662701,85.443209
163.687033,85.459467
163.703291,85.483799
163.709000,85.512500
163.709000,85.662500
163.703291,85.691201
163.687033,85.715533
163.662701,85.731791
163.634000,85.737500
162.309000,85.737500
162.280299,85.731791
162.255967,85.715533
162.239709,85.691201
162.234000,85.662500
Z" /> 
<path style="fill:#000000; fill-opacity:1.000000; stroke:none;fill-rule:evenodd;"
d="M 162.234000,86.012500
162.239709,85.983799
162.255967,85.959467
162.280299,85.943209
162.309000,85.937500
163.634000,85.937500
163.662701,85.943209
163.687033,85.959467
163.703291,85.983799
163.709000,86.012500
163.709000,86.162500
163.703291,86.191201
163.687033,86.215533
163.662701,86.231791
163.634000,86.237500
162.309000,86.237500
162.280299,86.231791
162.255967,86.215533
162.239709,86.191201
162.234000,86.162500
Z" /> 
<path style="fill:#000000; fill-opacity:1.000000; stroke:none;fill-rule:evenodd;"
d="M 162.234000,86.512500
162.239709,86.483799
162.255967,86.459467
162.280299,86.443209
162.309000,86.437500
163.634000,86.437500
163.662701,86.443209
163.687033,86.459467
163.703291,86.483799
163.709000,86.512500
163.709000,86.662500
163.703291,86.691201
163.687033,86.715533
163.662701,86.731791
163.634000,86.737500
162.309000,86.737500
162.280299,86.731791
162.255967,86.715533
162.239709,86.691201
162.234000,86.662500
Z" /> 
<path style="fill:#000000; fill-opacity:1.000000; stroke:none;fill-rule:evenodd;"
d="M 162.234000,87.012500
162.239709,86.983799
162.255967,86.959467
162.280299,86.943209
162.309000,86.937500
163.634000,86.937500
163.662701,86.943209
163.687033,86.959467
163.703291,86.983799
163.709000,87.012500
163.709000,87.162500
163.703291,87.191201
163.687033,87.215533
163.662701,87.231791
163.634000,87.237500
162.309000,87.237500
162.280299,87.231791
162.255967,87.215533
162.239709,87.191201
162.234000,87.162500
Z" /> 
<path style="fill:#000000; fill-opacity:1.000000; stroke:none;fill-rule:evenodd;"
d="M 162.234000,87.512500
162.239709,87.483799
162.255967,87.459467
162.280299,87.443209
162.309000,87.437500
163.634000,87.437500
163.662701,87.443209
163.687033,87.459467
163.703291,87.483799
163.709000,87.512500
163.709000,87.662500
163.703291,87.691201
163.687033,87.715533
163.662701,87.731791
163.634000,87.737500
162.309000,87.737500
162.280299,87.731791
162.255967,87.715533
162.239709,87.691201
162.234000,87.662500
Z" /> 
<path style="fill:#000000; fill-opacity:1.000000; stroke:none;fill-rule:evenodd;"
d="M 162.234000,88.012500
162.239709,87.983799
162.255967,87.959467
162.280299,87.943209
162.309000,87.937500
163.634000,87.937500
163.662701,87.943209
163.687033,87.959467
163.703291,87.983799
163.709000,88.012500
163.709000,88.162500
163.703291,88.191201
163.687033,88.215533
163.662701,88.231791
163.634000,88.237500
162.309000,88.237500
162.280299,88.231791
162.255967,88.215533
162.239709,88.191201
162.234000,88.162500
Z" /> 
<path style="fill:#000000; fill-opacity:1.000000; stroke:none;fill-rule:evenodd;"
d="M 162.234000,88.512500
162.239709,88.483799
162.255967,88.459467
162.280299,88.443209
162.309000,88.437500
163.634000,88.437500
163.662701,88.443209
163.687033,88.459467
163.703291,88.483799
163.709000,88.512500
163.709000,88.662500
163.703291,88.691201
163.687033,88.715533
163.662701,88.731791
163.634000,88.737500
162.309000,88.737500
162.280299,88.731791
162.255967,88.715533
162.239709,88.691201
162.234000,88.662500
Z" /> 
<path style="fill:#000000; fill-opacity:1.000000; stroke:none;fill-rule:evenodd;"
d="M 162.234000,89.012500
162.239709,88.983799
162.255967,88.959467
162.280299,88.943209
162.309000,88.937500
163.634000,88.937500
163.662701,88.943209
163.687033,88.959467
163.703291,88.983799
163.709000,89.012500
163.709000,89.162500
163.703291,89.191201
163.687033,89.215533
163.662701,89.231791
163.634000,89.237500
162.309000,89.237500
162.280299,89.231791
162.255967,89.215533
162.239709,89.191201
162.234000,89.162500
Z" /> 
<path style="fill:#000000; fill-opacity:1.000000; stroke:none;fill-rule:evenodd;"
d="M 162.234000,89.512500
162.239709,89.483799
162.255967,89.459467
162.280299,89.443209
162.309000,89.437500
163.634000,89.437500
163.662701,89.443209
163.687033,89.459467
163.703291,89.483799
163.709000,89.512500
163.709000,89.662500
163.703291,89.691201
163.687033,89.715533
163.662701,89.731791
163.634000,89.737500
162.309000,89.737500
162.280299,89.731791
162.255967,89.715533
162.239709,89.691201
162.234000,89.662500
Z" /> 
<path style="fill:#000000; fill-opacity:1.000000; stroke:none;fill-rule:evenodd;"
d="M 164.234000,90.337500
164.239709,90.308799
164.255967,90.284467
164.280299,90.268209
164.309000,90.262500
164.459000,90.262500
164.487701,90.268209
164.512033,90.284467
164.528291,90.308799
164.534000,90.337500
164.534000,91.662500
164.528291,91.691201
164.512033,91.715533
164.487701,91.731791
164.459000,91.737500
164.309000,91.737500
164.280299,91.731791
164.255967,91.715533
164.239709,91.691201
164.234000,91.662500
Z" /> 
<path style="fill:#000000; fill-opacity:1.000000; stroke:none;fill-rule:evenodd;"
d="M 164.734000,90.337500
164.739709,90.308799
164.755967,90.284467
164.780299,90.268209
164.809000,90.262500
164.959000,90.262500
164.987701,90.268209
165.012033,90.284467
165.028291,90.308799
165.034000,90.337500
165.034000,91.662500
165.028291,91.691201
165.012033,91.715533
164.987701,91.731791
164.959000,91.737500
164.809000,91.737500
164.780299,91.731791
164.755967,91.715533
164.739709,91.691201
164.734000,91.662500
Z" /> 
<path style="fill:#000000; fill-opacity:1.000000; stroke:none;fill-rule:evenodd;"
d="M 165.234000,90.337500
165.239709,90.308799
165.255967,90.284467
165.280299,90.268209
165.309000,90.262500
165.459000,90.262500
165.487701,90.268209
165.512033,90.284467
165.528291,90.308799
165.534000,90.337500
165.534000,91.662500
165.528291,91.691201
165.512033,91.715533
165.487701,91.731791
165.459000,91.737500
165.309000,91.737500
165.280299,91.731791
165.255967,91.715533
165.239709,91.691201
165.234000,91.662500
Z" /> 
<path style="fill:#000000; fill-opacity:1.000000; stroke:none;fill-rule:evenodd;"
d="M 165.734000,90.337500
165.739709,90.308799
165.755967,90.284467
165.780299,90.268209
165.809000,90.262500
165.959000,90.262500
165.987701,90.268209
166.012033,90.284467
166.028291,90.308799
166.034000,90.337500
166.034000,91.662500
166.028291,91.691201
166.012033,91.715533
165.987701,91.731791
165.959000,91.737500
165.809000,91.737500
165.780299,91.731791
165.755967,91.715533
165.739709,91.691201
165.734000,91.662500
Z" /> 
<path style="fill:#000000; fill-opacity:1.000000; stroke:none;fill-rule:evenodd;"
d="M 166.234000,90.337500
166.239709,90.308799
166.255967,90.284467
166.280299,90.268209
166.309000,90.262500
166.459000,90.262500
166.487701,90.268209
166.512033,90.284467
166.528291,90.308799
166.534000,90.337500
166.534000,91.662500
166.528291,91.691201
166.512033,91.715533
166.487701,91.731791
166.459000,91.737500
166.309000,91.737500
166.280299,91.731791
166.255967,91.715533
166.239709,91.691201
166.234000,91.662500
Z" /> 
<path style="fill:#000000; fill-opacity:1.000000; stroke:none;fill-rule:evenodd;"
d="M 166.734000,90.337500
166.739709,90.308799
166.755967,90.284467
166.780299,90.268209
166.809000,90.262500
166.959000,90.262500
166.987701,90.268209
167.012033,90.284467
167.028291,90.308799
167.034000,90.337500
167.034000,91.662500
167.028291,91.691201
167.012033,91.715533
166.987701,91.731791
166.959000,91.737500
166.809000,91.737500
166.780299,91.731791
166.755967,91.715533
166.739709,91.691201
166.734000,91.662500
Z" /> 
<path style="fill:#000000; fill-opacity:1.000000; stroke:none;fill-rule:evenodd;"
d="M 167.234000,90.337500
167.239709,90.308799
167.255967,90.284467
167.280299,90.268209
167.309000,90.262500
167.459000,90.262500
167.487701,90.268209
167.512033,90.284467
167.528291,90.308799
167.534000,90.337500
167.534000,91.662500
167.528291,91.691201
167.512033,91.715533
167.487701,91.731791
167.459000,91.737500
167.309000,91.737500
167.280299,91.731791
167.255967,91.715533
167.239709,91.691201
167.234000,91.662500
Z" /> 
<path style="fill:#000000; fill-opacity:1.000000; stroke:none;fill-rule:evenodd;"
d="M 167.734000,90.337500
167.739709,90.308799
167.755967,90.284467
167.780299,90.268209
167.809000,90.262500
167.959000,90.262500
167.987701,90.268209
168.012033,90.284467
168.028291,90.308799
168.034000,90.337500
168.034000,91.662500
168.028291,91.691201
168.012033,91.715533
167.987701,91.731791
167.959000,91.737500
167.809000,91.737500
167.780299,91.731791
167.755967,91.715533
167.739709,91.691201
167.734000,91.662500
Z" /> 
<path style="fill:#000000; fill-opacity:1.000000; stroke:none;fill-rule:evenodd;"
d="M 168.234000,90.337500
168.239709,90.308799
168.255967,90.284467
168.280299,90.268209
168.309000,90.262500
168.459000,90.262500
168.487701,90.268209
168.512033,90.284467
168.528291,90.308799
168.534000,90.337500
168.534000,91.662500
168.528291,91.691201
168.512033,91.715533
168.487701,91.731791
168.459000,91.737500
168.309000,91.737500
168.280299,91.731791
168.255967,91.715533
168.239709,91.691201
168.234000,91.662500
Z" /> 
<path style="fill:#000000; fill-opacity:1.000000; stroke:none;fill-rule:evenodd;"
d="M 168.734000,90.337500
168.739709,90.308799
168.755967,90.284467
168.780299,90.268209
168.809000,90.262500
168.959000,90.262500
168.987701,90.268209
169.012033,90.284467
169.028291,90.308799
169.034000,90.337500
169.034000,91.662500
169.028291,91.691201
169.012033,91.715533
168.987701,91.731791
168.959000,91.737500
168.809000,91.737500
168.780299,91.731791
168.755967,91.715533
168.739709,91.691201
168.734000,91.662500
Z" /> 
<path style="fill:#000000; fill-opacity:1.000000; stroke:none;fill-rule:evenodd;"
d="M 169.234000,90.337500
169.239709,90.308799
169.255967,90.284467
169.280299,90.268209
169.309000,90.262500
169.459000,90.262500
169.487701,90.268209
169.512033,90.284467
169.528291,90.308799
169.534000,90.337500
169.534000,91.662500
169.528291,91.691201
169.512033,91.715533
169.487701,91.731791
169.459000,91.737500
169.309000,91.737500
169.280299,91.731791
169.255967,91.715533
169.239709,91.691201
169.234000,91.662500
Z" /> 
<path style="fill:#000000; fill-opacity:1.000000; stroke:none;fill-rule:evenodd;"
d="M 169.734000,90.337500
169.739709,90.308799
169.755967,90.284467
169.780299,90.268209
169.809000,90.262500
169.959000,90.262500
169.987701,90.268209
170.012033,90.284467
170.028291,90.308799
170.034000,90.337500
170.034000,91.662500
170.028291,91.691201
170.012033,91.715533
169.987701,91.731791
169.959000,91.737500
169.809000,91.737500
169.780299,91.731791
169.755967,91.715533
169.739709,91.691201
169.734000,91.662500
Z" /> 
<path style="fill:#000000; fill-opacity:1.000000; stroke:none;fill-rule:evenodd;"
d="M 170.559000,89.512500
170.564709,89.483799
170.580967,89.459467
170.605299,89.443209
170.634000,89.437500
171.959000,89.437500
171.987701,89.443209
172.012033,89.459467
172.028291,89.483799
172.034000,89.512500
172.034000,89.662500
172.028291,89.691201
172.012033,89.715533
171.987701,89.731791
171.959000,89.737500
170.634000,89.737500
170.605299,89.731791
170.580967,89.715533
170.564709,89.691201
170.559000,89.662500
Z" /> 
<path style="fill:#000000; fill-opacity:1.000000; stroke:none;fill-rule:evenodd;"
d="M 170.559000,89.012500
170.564709,88.983799
170.580967,88.959467
170.605299,88.943209
170.634000,88.937500
171.959000,88.937500
171.987701,88.943209
172.012033,88.959467
172.028291,88.983799
172.034000,89.012500
172.034000,89.162500
172.028291,89.191201
172.012033,89.215533
171.987701,89.231791
171.959000,89.237500
170.634000,89.237500
170.605299,89.231791
170.580967,89.215533
170.564709,89.191201
170.559000,89.162500
Z" /> 
<path style="fill:#000000; fill-opacity:1.000000; stroke:none;fill-rule:evenodd;"
d="M 170.559000,88.512500
170.564709,88.483799
170.580967,88.459467
170.605299,88.443209
170.634000,88.437500
171.959000,88.437500
171.987701,88.443209
172.012033,88.459467
172.028291,88.483799
172.034000,88.512500
172.034000,88.662500
172.028291,88.691201
172.012033,88.715533
171.987701,88.731791
171.959000,88.737500
170.634000,88.737500
170.605299,88.731791
170.580967,88.715533
170.564709,88.691201
170.559000,88.662500
Z" /> 
<path style="fill:#000000; fill-opacity:1.000000; stroke:none;fill-rule:evenodd;"
d="M 170.559000,88.012500
170.564709,87.983799
170.580967,87.959467
170.605299,87.943209
170.634000,87.937500
171.959000,87.937500
171.987701,87.943209
172.012033,87.959467
172.028291,87.983799
172.034000,88.012500
172.034000,88.162500
172.028291,88.191201
172.012033,88.215533
171.987701,88.231791
171.959000,88.237500
170.634000,88.237500
170.605299,88.231791
170.580967,88.215533
170.564709,88.191201
170.559000,88.162500
Z" /> 
<path style="fill:#000000; fill-opacity:1.000000; stroke:none;fill-rule:evenodd;"
d="M 170.559000,87.512500
170.564709,87.483799
170.580967,87.459467
170.605299,87.443209
170.634000,87.437500
171.959000,87.437500
171.987701,87.443209
172.012033,87.459467
172.028291,87.483799
172.034000,87.512500
172.034000,87.662500
172.028291,87.691201
172.012033,87.715533
171.987701,87.731791
171.959000,87.737500
170.634000,87.737500
170.605299,87.731791
170.580967,87.715533
170.564709,87.691201
170.559000,87.662500
Z" /> 
<path style="fill:#000000; fill-opacity:1.000000; stroke:none;fill-rule:evenodd;"
d="M 170.559000,87.012500
170.564709,86.983799
170.580967,86.959467
170.605299,86.943209
170.634000,86.937500
171.959000,86.937500
171.987701,86.943209
172.012033,86.959467
172.028291,86.983799
172.034000,87.012500
172.034000,87.162500
172.028291,87.191201
172.012033,87.215533
171.987701,87.231791
171.959000,87.237500
170.634000,87.237500
170.605299,87.231791
170.580967,87.215533
170.564709,87.191201
170.559000,87.162500
Z" /> 
<path style="fill:#000000; fill-opacity:1.000000; stroke:none;fill-rule:evenodd;"
d="M 170.559000,86.512500
170.564709,86.483799
170.580967,86.459467
170.605299,86.443209
170.634000,86.437500
171.959000,86.437500
171.987701,86.443209
172.012033,86.459467
172.028291,86.483799
172.034000,86.512500
172.034000,86.662500
172.028291,86.691201
172.012033,86.715533
171.987701,86.731791
171.959000,86.737500
170.634000,86.737500
170.605299,86.731791
170.580967,86.715533
170.564709,86.691201
170.559000,86.662500
Z" /> 
<path style="fill:#000000; fill-opacity:1.000000; stroke:none;fill-rule:evenodd;"
d="M 170.559000,86.012500
170.564709,85.983799
170.580967,85.959467
170.605299,85.943209
170.634000,85.937500
171.959000,85.937500
171.987701,85.943209
172.012033,85.959467
172.028291,85.983799
172.034000,86.012500
172.034000,86.162500
172.028291,86.191201
172.012033,86.215533
171.987701,86.231791
171.959000,86.237500
170.634000,86.237500
170.605299,86.231791
170.580967,86.215533
170.564709,86.191201
170.559000,86.162500
Z" /> 
<path style="fill:#000000; fill-opacity:1.000000; stroke:none;fill-rule:evenodd;"
d="M 170.559000,85.512500
170.564709,85.483799
170.580967,85.459467
170.605299,85.443209
170.634000,85.437500
171.959000,85.437500
171.987701,85.443209
172.012033,85.459467
172.028291,85.483799
172.034000,85.512500
172.034000,85.662500
172.028291,85.691201
172.012033,85.715533
171.987701,85.731791
171.959000,85.737500
170.634000,85.737500
170.605299,85.731791
170.580967,85.715533
170.564709,85.691201
170.559000,85.662500
Z" /> 
<path style="fill:#000000; fill-opacity:1.000000; stroke:none;fill-rule:evenodd;"
d="M 170.559000,85.012500
170.564709,84.983799
170.580967,84.959467
170.605299,84.943209
170.634000,84.937500
171.959000,84.937500
171.987701,84.943209
172.012033,84.959467
172.028291,84.983799
172.034000,85.012500
172.034000,85.162500
172.028291,85.191201
172.012033,85.215533
171.987701,85.231791
171.959000,85.237500
170.634000,85.237500
170.605299,85.231791
170.580967,85.215533
170.564709,85.191201
170.559000,85.162500
Z" /> 
<path style="fill:#000000; fill-opacity:1.000000; stroke:none;fill-rule:evenodd;"
d="M 170.559000,84.512500
170.564709,84.483799
170.580967,84.459467
170.605299,84.443209
170.634000,84.437500
171.959000,84.437500
171.987701,84.443209
172.012033,84.459467
172.028291,84.483799
172.034000,84.512500
172.034000,84.662500
172.028291,84.691201
172.012033,84.715533
171.987701,84.731791
171.959000,84.737500
170.634000,84.737500
170.605299,84.731791
170.580967,84.715533
170.564709,84.691201
170.559000,84.662500
Z" /> 
<path style="fill:#000000; fill-opacity:1.000000; stroke:none;fill-rule:evenodd;"
d="M 170.559000,84.012500
170.564709,83.983799
170.580967,83.959467
170.605299,83.943209
170.634000,83.937500
171.959000,83.937500
171.987701,83.943209
172.012033,83.959467
172.028291,83.983799
172.034000,84.012500
172.034000,84.162500
172.028291,84.191201
172.012033,84.215533
171.987701,84.231791
171.959000,84.237500
170.634000,84.237500
170.605299,84.231791
170.580967,84.215533
170.564709,84.191201
170.559000,84.162500
Z" /> 
<path style="fill:#000000; fill-opacity:1.000000; stroke:none;fill-rule:evenodd;"
d="M 169.734000,82.012500
169.739709,81.983799
169.755967,81.959467
169.780299,81.943209
169.809000,81.937500
169.959000,81.937500
169.987701,81.943209
170.012033,81.959467
170.028291,81.983799
170.034000,82.012500
170.034000,83.337500
170.028291,83.366201
170.012033,83.390533
169.987701,83.406791
169.959000,83.412500
169.809000,83.412500
169.780299,83.406791
169.755967,83.390533
169.739709,83.366201
169.734000,83.337500
Z" /> 
<path style="fill:#000000; fill-opacity:1.000000; stroke:none;fill-rule:evenodd;"
d="M 169.234000,82.012500
169.239709,81.983799
169.255967,81.959467
169.280299,81.943209
169.309000,81.937500
169.459000,81.937500
169.487701,81.943209
169.512033,81.959467
169.528291,81.983799
169.534000,82.012500
169.534000,83.337500
169.528291,83.366201
169.512033,83.390533
169.487701,83.406791
169.459000,83.412500
169.309000,83.412500
169.280299,83.406791
169.255967,83.390533
169.239709,83.366201
169.234000,83.337500
Z" /> 
<path style="fill:#000000; fill-opacity:1.000000; stroke:none;fill-rule:evenodd;"
d="M 168.734000,82.012500
168.739709,81.983799
168.755967,81.959467
168.780299,81.943209
168.809000,81.937500
168.959000,81.937500
168.987701,81.943209
169.012033,81.959467
169.028291,81.983799
169.034000,82.012500
169.034000,83.337500
169.028291,83.366201
169.012033,83.390533
168.987701,83.406791
168.959000,83.412500
168.809000,83.412500
168.780299,83.406791
168.755967,83.390533
168.739709,83.366201
168.734000,83.337500
Z" /> 
<path style="fill:#000000; fill-opacity:1.000000; stroke:none;fill-rule:evenodd;"
d="M 168.234000,82.012500
168.239709,81.983799
168.255967,81.959467
168.280299,81.943209
168.309000,81.937500
168.459000,81.937500
168.487701,81.943209
168.512033,81.959467
168.528291,81.983799
168.534000,82.012500
168.534000,83.337500
168.528291,83.366201
168.512033,83.390533
168.487701,83.406791
168.459000,83.412500
168.309000,83.412500
168.280299,83.406791
168.255967,83.390533
168.239709,83.366201
168.234000,83.337500
Z" /> 
<path style="fill:#000000; fill-opacity:1.000000; stroke:none;fill-rule:evenodd;"
d="M 167.734000,82.012500
167.739709,81.983799
167.755967,81.959467
167.780299,81.943209
167.809000,81.937500
167.959000,81.937500
167.987701,81.943209
168.012033,81.959467
168.028291,81.983799
168.034000,82.012500
168.034000,83.337500
168.028291,83.366201
168.012033,83.390533
167.987701,83.406791
167.959000,83.412500
167.809000,83.412500
167.780299,83.406791
167.755967,83.390533
167.739709,83.366201
167.734000,83.337500
Z" /> 
<path style="fill:#000000; fill-opacity:1.000000; stroke:none;fill-rule:evenodd;"
d="M 167.234000,82.012500
167.239709,81.983799
167.255967,81.959467
167.280299,81.943209
167.309000,81.937500
167.459000,81.937500
167.487701,81.943209
167.512033,81.959467
167.528291,81.983799
167.534000,82.012500
167.534000,83.337500
167.528291,83.366201
167.512033,83.390533
167.487701,83.406791
167.459000,83.412500
167.309000,83.412500
167.280299,83.406791
167.255967,83.390533
167.239709,83.366201
167.234000,83.337500
Z" /> 
<path style="fill:#000000; fill-opacity:1.000000; stroke:none;fill-rule:evenodd;"
d="M 166.734000,82.012500
166.739709,81.983799
166.755967,81.959467
166.780299,81.943209
166.809000,81.937500
166.959000,81.937500
166.987701,81.943209
167.012033,81.959467
167.028291,81.983799
167.034000,82.012500
167.034000,83.337500
167.028291,83.366201
167.012033,83.390533
166.987701,83.406791
166.959000,83.412500
166.809000,83.412500
166.780299,83.406791
166.755967,83.390533
166.739709,83.366201
166.734000,83.337500
Z" /> 
<path style="fill:#000000; fill-opacity:1.000000; stroke:none;fill-rule:evenodd;"
d="M 166.234000,82.012500
166.239709,81.983799
166.255967,81.959467
166.280299,81.943209
166.309000,81.937500
166.459000,81.937500
166.487701,81.943209
166.512033,81.959467
166.528291,81.983799
166.534000,82.012500
166.534000,83.337500
166.528291,83.366201
166.512033,83.390533
166.487701,83.406791
166.459000,83.412500
166.309000,83.412500
166.280299,83.406791
166.255967,83.390533
166.239709,83.366201
166.234000,83.337500
Z" /> 
<path style="fill:#000000; fill-opacity:1.000000; stroke:none;fill-rule:evenodd;"
d="M 165.734000,82.012500
165.739709,81.983799
165.755967,81.959467
165.780299,81.943209
165.809000,81.937500
165.959000,81.937500
165.987701,81.943209
166.012033,81.959467
166.028291,81.983799
166.034000,82.012500
166.034000,83.337500
166.028291,83.366201
166.012033,83.390533
165.987701,83.406791
165.959000,83.412500
165.809000,83.412500
165.780299,83.406791
165.755967,83.390533
165.739709,83.366201
165.734000,83.337500
Z" /> 
<path style="fill:#000000; fill-opacity:1.000000; stroke:none;fill-rule:evenodd;"
d="M 165.234000,82.012500
165.239709,81.983799
165.255967,81.959467
165.280299,81.943209
165.309000,81.937500
165.459000,81.937500
165.487701,81.943209
165.512033,81.959467
165.528291,81.983799
165.534000,82.012500
165.534000,83.337500
165.528291,83.366201
165.512033,83.390533
165.487701,83.406791
165.459000,83.412500
165.309000,83.412500
165.280299,83.406791
165.255967,83.390533
165.239709,83.366201
165.234000,83.337500
Z" /> 
<path style="fill:#000000; fill-opacity:1.000000; stroke:none;fill-rule:evenodd;"
d="M 164.734000,82.012500
164.739709,81.983799
164.755967,81.959467
164.780299,81.943209
164.809000,81.937500
164.959000,81.937500
164.987701,81.943209
165.012033,81.959467
165.028291,81.983799
165.034000,82.012500
165.034000,83.337500
165.028291,83.366201
165.012033,83.390533
164.987701,83.406791
164.959000,83.412500
164.809000,83.412500
164.780299,83.406791
164.755967,83.390533
164.739709,83.366201
164.734000,83.337500
Z" /> 
<path style="fill:#000000; fill-opacity:1.000000; stroke:none;fill-rule:evenodd;"
d="M 164.234000,82.012500
164.239709,81.983799
164.255967,81.959467
164.280299,81.943209
164.309000,81.937500
164.459000,81.937500
164.487701,81.943209
164.512033,81.959467
164.528291,81.983799
164.534000,82.012500
164.534000,83.337500
164.528291,83.366201
164.512033,83.390533
164.487701,83.406791
164.459000,83.412500
164.309000,83.412500
164.280299,83.406791
164.255967,83.390533
164.239709,83.366201
164.234000,83.337500
Z" /> 
</g>
<g style="fill:#000000; fill-opacity:1.000000; stroke:none;">
<circle cx="154.249000" cy="96.350000" r="0.500000" /> 
</g>
<g style="fill:#000000; fill-opacity:1.000000; stroke:none;">
<circle cx="159.814000" cy="89.140000" r="0.500000" /> 
<path style="fill:#000000; fill-opacity:1.000000; stroke:none;fill-rule:evenodd;"
d="M 159.856500,82.022500
159.765613,82.004421
159.688562,81.952938
159.637079,81.875887
159.619000,81.785000
159.619000,81.285000
159.637079,81.194113
159.688562,81.117062
159.765613,81.065579
159.856500,81.047500
160.331500,81.047500
160.422387,81.065579
160.499438,81.117062
160.550921,81.194113
160.569000,81.285000
160.569000,81.785000
160.550921,81.875887
160.499438,81.952938
160.422387,82.004421
160.331500,82.022500
Z" /> 
<path style="fill:#000000; fill-opacity:1.000000; stroke:none;fill-rule:evenodd;"
d="M 159.856500,80.197500
159.765613,80.179421
159.688562,80.127938
159.637079,80.050887
159.619000,79.960000
159.619000,79.460000
159.637079,79.369113
159.688562,79.292062
159.765613,79.240579
159.856500,79.222500
160.331500,79.222500
160.422387,79.240579
160.499438,79.292062
160.550921,79.369113
160.569000,79.460000
160.569000,79.960000
160.550921,80.050887
160.499438,80.127938
160.422387,80.179421
160.331500,80.197500
Z" /> 
</g>
<g style="fill:#000000; fill-opacity:1.000000; stroke:none;">
<circle cx="177.809000" cy="92.050000" r="0.500000" /> 
</g>
<g style="fill:#000000; fill-opacity:1.000000; stroke:none;">
<circle cx="171.054000" cy="74.525000" r="0.500000" /> 
<path style="fill:#000000; fill-opacity:1.000000; stroke:none;fill-rule:evenodd;"
d="M 162.449000,78.557500
162.430921,78.648387
162.379438,78.725438
162.302387,78.776921
162.211500,78.795000
161.636500,78.795000
161.545613,78.776921
161.468562,78.725438
161.417079,78.648387
161.399000,78.557500
161.399000,78.082500
161.417079,77.991613
161.468562,77.914562
161.545613,77.863079
161.636500,77.845000
162.211500,77.845000
162.302387,77.863079
162.379438,77.914562
162.430921,77.991613
162.449000,78.082500
Z" /> 
<path style="fill:#000000; fill-opacity:1.000000; stroke:none;fill-rule:evenodd;"
d="M 160.699000,78.557500
160.680921,78.648387
160.629438,78.725438
160.552387,78.776921
160.461500,78.795000
159.886500,78.795000
159.795613,78.776921
159.718562,78.725438
159.667079,78.648387
159.649000,78.557500
159.649000,78.082500
159.667079,77.991613
159.718562,77.914562
159.795613,77.863079
159.886500,77.845000
160.461500,77.845000
160.552387,77.863079
160.629438,77.914562
160.680921,77.991613
160.699000,78.082500
Z" /> 
</g>
<g style="fill:#000000; fill-opacity:1.000000; stroke:none;">
<circle cx="172.779000" cy="74.550000" r="0.500000" /> 
</g>
<g style="fill:#000000; fill-opacity:1.000000; stroke:none;">
<circle cx="177.559000" cy="94.875000" r="0.500000" /> 
</g>
<g style="fill:#000000; fill-opacity:1.000000; stroke:none;">
<circle cx="181.509000" cy="83.175000" r="0.500000" /> 
</g>
<g style="fill:#000000; fill-opacity:1.000000; stroke:none;">
<circle cx="174.554000" cy="74.550000" r="0.500000" /> 
</g>
<g style="fill:#000000; fill-opacity:1.000000; stroke:none;">
<circle cx="159.784000" cy="90.810000" r="0.500000" /> 
</g>
<g style="fill:#000000; fill-opacity:1.000000; stroke:none;">
<circle cx="179.309000" cy="94.875000" r="0.500000" /> 
</g>
<g style="fill:#000000; fill-opacity:1.000000; stroke:none;">
<circle cx="163.584000" cy="96.270000" r="0.500000" /> 
</g>
<g style="fill:#000000; fill-opacity:1.000000; stroke:none;">
<circle cx="170.509000" cy="80.700000" r="0.500000" /> 
</g> 
</svg>
