%TF.GenerationSoftware,KiCad,Pcbnew,8.0.6*%
%TF.CreationDate,2025-05-08T22:43:10+05:00*%
%TF.ProjectId,PowerSW,506f7765-7253-4572-9e6b-696361645f70,rev?*%
%TF.SameCoordinates,Original*%
%TF.FileFunction,Soldermask,Top*%
%TF.FilePolarity,Negative*%
%FSLAX46Y46*%
G04 Gerber Fmt 4.6, Leading zero omitted, Abs format (unit mm)*
G04 Created by KiCad (PCBNEW 8.0.6) date 2025-05-08 22:43:10*
%MOMM*%
%LPD*%
G01*
G04 APERTURE LIST*
G04 Aperture macros list*
%AMRoundRect*
0 Rectangle with rounded corners*
0 $1 Rounding radius*
0 $2 $3 $4 $5 $6 $7 $8 $9 X,Y pos of 4 corners*
0 Add a 4 corners polygon primitive as box body*
4,1,4,$2,$3,$4,$5,$6,$7,$8,$9,$2,$3,0*
0 Add four circle primitives for the rounded corners*
1,1,$1+$1,$2,$3*
1,1,$1+$1,$4,$5*
1,1,$1+$1,$6,$7*
1,1,$1+$1,$8,$9*
0 Add four rect primitives between the rounded corners*
20,1,$1+$1,$2,$3,$4,$5,0*
20,1,$1+$1,$4,$5,$6,$7,0*
20,1,$1+$1,$6,$7,$8,$9,0*
20,1,$1+$1,$8,$9,$2,$3,0*%
%AMFreePoly0*
4,1,9,3.862500,-0.866500,0.737500,-0.866500,0.737500,-0.450000,-0.737500,-0.450000,-0.737500,0.450000,0.737500,0.450000,0.737500,0.866500,3.862500,0.866500,3.862500,-0.866500,3.862500,-0.866500,$1*%
G04 Aperture macros list end*
%ADD10R,1.000000X1.000000*%
%ADD11RoundRect,0.225000X0.425000X0.225000X-0.425000X0.225000X-0.425000X-0.225000X0.425000X-0.225000X0*%
%ADD12FreePoly0,180.000000*%
%ADD13RoundRect,0.150000X-0.150000X0.512500X-0.150000X-0.512500X0.150000X-0.512500X0.150000X0.512500X0*%
%ADD14R,1.700000X0.900000*%
%ADD15RoundRect,0.237500X0.250000X0.237500X-0.250000X0.237500X-0.250000X-0.237500X0.250000X-0.237500X0*%
%ADD16RoundRect,0.237500X0.237500X-0.250000X0.237500X0.250000X-0.237500X0.250000X-0.237500X-0.250000X0*%
%ADD17RoundRect,0.237500X-0.237500X0.250000X-0.237500X-0.250000X0.237500X-0.250000X0.237500X0.250000X0*%
%ADD18RoundRect,0.237500X-0.250000X-0.237500X0.250000X-0.237500X0.250000X0.237500X-0.250000X0.237500X0*%
%ADD19RoundRect,0.150000X0.150000X-0.587500X0.150000X0.587500X-0.150000X0.587500X-0.150000X-0.587500X0*%
%ADD20RoundRect,0.150000X-0.587500X-0.150000X0.587500X-0.150000X0.587500X0.150000X-0.587500X0.150000X0*%
%ADD21RoundRect,0.250000X-0.475000X-0.700000X0.475000X-0.700000X0.475000X0.700000X-0.475000X0.700000X0*%
%ADD22RoundRect,0.237500X-0.237500X0.287500X-0.237500X-0.287500X0.237500X-0.287500X0.237500X0.287500X0*%
%ADD23RoundRect,0.237500X0.237500X-0.287500X0.237500X0.287500X-0.237500X0.287500X-0.237500X-0.287500X0*%
%ADD24RoundRect,0.237500X-0.300000X-0.237500X0.300000X-0.237500X0.300000X0.237500X-0.300000X0.237500X0*%
%ADD25RoundRect,0.237500X0.237500X-0.300000X0.237500X0.300000X-0.237500X0.300000X-0.237500X-0.300000X0*%
%ADD26RoundRect,0.237500X-0.237500X0.300000X-0.237500X-0.300000X0.237500X-0.300000X0.237500X0.300000X0*%
G04 APERTURE END LIST*
D10*
%TO.C,*%
X118450000Y-99140000D03*
%TD*%
%TO.C,TP5*%
X118030000Y-92310000D03*
%TD*%
%TO.C,*%
X104105000Y-92285000D03*
%TD*%
%TO.C,*%
X102555000Y-91445000D03*
%TD*%
D11*
%TO.C,U2*%
X122160000Y-97512500D03*
D12*
X122072500Y-96012500D03*
D11*
X122160000Y-94512500D03*
%TD*%
D13*
%TO.C,U1*%
X101105000Y-93675000D03*
X100155000Y-93675000D03*
X99205000Y-93675000D03*
X99205000Y-95950000D03*
X101105000Y-95950000D03*
%TD*%
D10*
%TO.C,TP8*%
X116440000Y-99120000D03*
%TD*%
%TO.C,TP7*%
X111610000Y-99330000D03*
%TD*%
%TO.C,TP6*%
X104195000Y-100235000D03*
%TD*%
%TO.C,TP5*%
X116410000Y-92250000D03*
%TD*%
%TO.C,TP4*%
X106840000Y-97650000D03*
%TD*%
%TO.C,TP3*%
X99285000Y-100365000D03*
%TD*%
%TO.C,TP2*%
X122090000Y-99370000D03*
%TD*%
%TO.C,TP1*%
X106860000Y-94850000D03*
%TD*%
D14*
%TO.C,SW2*%
X109070000Y-99380000D03*
X109070000Y-95980000D03*
%TD*%
%TO.C,SW1*%
X109050000Y-90260000D03*
X109050000Y-93660000D03*
%TD*%
D15*
%TO.C,R7*%
X114900000Y-99350000D03*
X113075000Y-99350000D03*
%TD*%
D16*
%TO.C,R6*%
X111520000Y-96725000D03*
X111520000Y-94900000D03*
%TD*%
D17*
%TO.C,R5*%
X106600000Y-90795000D03*
X106600000Y-92620000D03*
%TD*%
D16*
%TO.C,R4*%
X111477500Y-93142500D03*
X111477500Y-91317500D03*
%TD*%
D17*
%TO.C,R3*%
X104035000Y-96725000D03*
X104035000Y-98550000D03*
%TD*%
D18*
%TO.C,R2*%
X100120000Y-97455000D03*
X101945000Y-97455000D03*
%TD*%
%TO.C,R1*%
X101110000Y-98835000D03*
X102935000Y-98835000D03*
%TD*%
D19*
%TO.C,Q2*%
X113000000Y-98015000D03*
X114900000Y-98015000D03*
X113950000Y-96140000D03*
%TD*%
D20*
%TO.C,Q1*%
X112820000Y-91310000D03*
X112820000Y-93210000D03*
X114695000Y-92260000D03*
%TD*%
D21*
%TO.C,FB1*%
X119240000Y-92300000D03*
X123640000Y-92300000D03*
%TD*%
D22*
%TO.C,D2*%
X104035000Y-93585000D03*
X104035000Y-95335000D03*
%TD*%
D23*
%TO.C,D1*%
X102575000Y-95305000D03*
X102575000Y-93555000D03*
%TD*%
D24*
%TO.C,C4*%
X99395000Y-92005000D03*
X101120000Y-92005000D03*
%TD*%
%TO.C,C3*%
X101090000Y-100335000D03*
X102815000Y-100335000D03*
%TD*%
D25*
%TO.C,C2*%
X123850000Y-98775000D03*
X123850000Y-97050000D03*
%TD*%
D26*
%TO.C,C1*%
X123810000Y-94297500D03*
X123810000Y-96022500D03*
%TD*%
M02*
