%TF.GenerationSoftware,KiCad,Pcbnew,8.0.6*%
%TF.CreationDate,2025-05-08T22:43:10+05:00*%
%TF.ProjectId,PowerSW,506f7765-7253-4572-9e6b-696361645f70,rev?*%
%TF.SameCoordinates,Original*%
%TF.FileFunction,Copper,L1,Top*%
%TF.FilePolarity,Positive*%
%FSLAX46Y46*%
G04 Gerber Fmt 4.6, Leading zero omitted, Abs format (unit mm)*
G04 Created by KiCad (PCBNEW 8.0.6) date 2025-05-08 22:43:10*
%MOMM*%
%LPD*%
G01*
G04 APERTURE LIST*
G04 Aperture macros list*
%AMRoundRect*
0 Rectangle with rounded corners*
0 $1 Rounding radius*
0 $2 $3 $4 $5 $6 $7 $8 $9 X,Y pos of 4 corners*
0 Add a 4 corners polygon primitive as box body*
4,1,4,$2,$3,$4,$5,$6,$7,$8,$9,$2,$3,0*
0 Add four circle primitives for the rounded corners*
1,1,$1+$1,$2,$3*
1,1,$1+$1,$4,$5*
1,1,$1+$1,$6,$7*
1,1,$1+$1,$8,$9*
0 Add four rect primitives between the rounded corners*
20,1,$1+$1,$2,$3,$4,$5,0*
20,1,$1+$1,$4,$5,$6,$7,0*
20,1,$1+$1,$6,$7,$8,$9,0*
20,1,$1+$1,$8,$9,$2,$3,0*%
%AMFreePoly0*
4,1,9,3.862500,-0.866500,0.737500,-0.866500,0.737500,-0.450000,-0.737500,-0.450000,-0.737500,0.450000,0.737500,0.450000,0.737500,0.866500,3.862500,0.866500,3.862500,-0.866500,3.862500,-0.866500,$1*%
G04 Aperture macros list end*
%TA.AperFunction,SMDPad,CuDef*%
%ADD10R,1.000000X1.000000*%
%TD*%
%TA.AperFunction,SMDPad,CuDef*%
%ADD11RoundRect,0.225000X0.425000X0.225000X-0.425000X0.225000X-0.425000X-0.225000X0.425000X-0.225000X0*%
%TD*%
%TA.AperFunction,SMDPad,CuDef*%
%ADD12FreePoly0,180.000000*%
%TD*%
%TA.AperFunction,SMDPad,CuDef*%
%ADD13RoundRect,0.150000X-0.150000X0.512500X-0.150000X-0.512500X0.150000X-0.512500X0.150000X0.512500X0*%
%TD*%
%TA.AperFunction,SMDPad,CuDef*%
%ADD14R,1.700000X0.900000*%
%TD*%
%TA.AperFunction,SMDPad,CuDef*%
%ADD15RoundRect,0.237500X0.250000X0.237500X-0.250000X0.237500X-0.250000X-0.237500X0.250000X-0.237500X0*%
%TD*%
%TA.AperFunction,SMDPad,CuDef*%
%ADD16RoundRect,0.237500X0.237500X-0.250000X0.237500X0.250000X-0.237500X0.250000X-0.237500X-0.250000X0*%
%TD*%
%TA.AperFunction,SMDPad,CuDef*%
%ADD17RoundRect,0.237500X-0.237500X0.250000X-0.237500X-0.250000X0.237500X-0.250000X0.237500X0.250000X0*%
%TD*%
%TA.AperFunction,SMDPad,CuDef*%
%ADD18RoundRect,0.237500X-0.250000X-0.237500X0.250000X-0.237500X0.250000X0.237500X-0.250000X0.237500X0*%
%TD*%
%TA.AperFunction,SMDPad,CuDef*%
%ADD19RoundRect,0.150000X0.150000X-0.587500X0.150000X0.587500X-0.150000X0.587500X-0.150000X-0.587500X0*%
%TD*%
%TA.AperFunction,SMDPad,CuDef*%
%ADD20RoundRect,0.150000X-0.587500X-0.150000X0.587500X-0.150000X0.587500X0.150000X-0.587500X0.150000X0*%
%TD*%
%TA.AperFunction,SMDPad,CuDef*%
%ADD21RoundRect,0.250000X-0.475000X-0.700000X0.475000X-0.700000X0.475000X0.700000X-0.475000X0.700000X0*%
%TD*%
%TA.AperFunction,SMDPad,CuDef*%
%ADD22RoundRect,0.237500X-0.237500X0.287500X-0.237500X-0.287500X0.237500X-0.287500X0.237500X0.287500X0*%
%TD*%
%TA.AperFunction,SMDPad,CuDef*%
%ADD23RoundRect,0.237500X0.237500X-0.287500X0.237500X0.287500X-0.237500X0.287500X-0.237500X-0.287500X0*%
%TD*%
%TA.AperFunction,SMDPad,CuDef*%
%ADD24RoundRect,0.237500X-0.300000X-0.237500X0.300000X-0.237500X0.300000X0.237500X-0.300000X0.237500X0*%
%TD*%
%TA.AperFunction,SMDPad,CuDef*%
%ADD25RoundRect,0.237500X0.237500X-0.300000X0.237500X0.300000X-0.237500X0.300000X-0.237500X-0.300000X0*%
%TD*%
%TA.AperFunction,SMDPad,CuDef*%
%ADD26RoundRect,0.237500X-0.237500X0.300000X-0.237500X-0.300000X0.237500X-0.300000X0.237500X0.300000X0*%
%TD*%
%TA.AperFunction,Conductor*%
%ADD27C,0.400000*%
%TD*%
%TA.AperFunction,Conductor*%
%ADD28C,0.500000*%
%TD*%
%TA.AperFunction,Conductor*%
%ADD29C,0.200000*%
%TD*%
%TA.AperFunction,Conductor*%
%ADD30C,0.600000*%
%TD*%
%TA.AperFunction,Conductor*%
%ADD31C,0.300000*%
%TD*%
%TA.AperFunction,Conductor*%
%ADD32C,0.700000*%
%TD*%
G04 APERTURE END LIST*
D10*
%TO.P,,1,1*%
%TO.N,GND*%
X118450000Y-99140000D03*
%TD*%
%TO.P,TP5,1,1*%
%TO.N,N/C*%
X118030000Y-92310000D03*
%TD*%
%TO.P,,1,1*%
%TO.N,GND*%
X104105000Y-92285000D03*
%TD*%
%TO.P,,1,1*%
%TO.N,Net-(Q1-S)*%
X102555000Y-91445000D03*
%TD*%
D11*
%TO.P,U2,1,OUT*%
%TO.N,+3.3V*%
X122160000Y-97512500D03*
D12*
%TO.P,U2,2,GND*%
%TO.N,GND*%
X122072500Y-96012500D03*
D11*
%TO.P,U2,3,IN*%
%TO.N,Net-(U2-IN)*%
X122160000Y-94512500D03*
%TD*%
D13*
%TO.P,U1,1,STAT*%
%TO.N,Net-(D1-A)*%
X101105000Y-93675000D03*
%TO.P,U1,2,V_{SS}*%
%TO.N,GND*%
X100155000Y-93675000D03*
%TO.P,U1,3,V_{BAT}*%
%TO.N,Net-(Q1-S)*%
X99205000Y-93675000D03*
%TO.P,U1,4,V_{DD}*%
%TO.N,+5V*%
X99205000Y-95950000D03*
%TO.P,U1,5,PROG*%
%TO.N,Net-(U1-PROG)*%
X101105000Y-95950000D03*
%TD*%
D10*
%TO.P,TP8,1,1*%
%TO.N,GND*%
X116440000Y-99120000D03*
%TD*%
%TO.P,TP7,1,1*%
%TO.N,Net-(Q2-G)*%
X111610000Y-99330000D03*
%TD*%
%TO.P,TP6,1,1*%
%TO.N,GND*%
X104195000Y-100235000D03*
%TD*%
%TO.P,TP5,1,1*%
%TO.N,VCC*%
X116410000Y-92250000D03*
%TD*%
%TO.P,TP4,1,1*%
%TO.N,GND*%
X106840000Y-97650000D03*
%TD*%
%TO.P,TP3,1,1*%
%TO.N,+5V*%
X99285000Y-100365000D03*
%TD*%
%TO.P,TP2,1,1*%
%TO.N,+3.3V*%
X122090000Y-99370000D03*
%TD*%
%TO.P,TP1,1,1*%
%TO.N,Net-(Q1-S)*%
X106860000Y-94850000D03*
%TD*%
D14*
%TO.P,SW2,1,1*%
%TO.N,GND*%
X109070000Y-99380000D03*
%TO.P,SW2,2,2*%
%TO.N,Net-(Q2-D)*%
X109070000Y-95980000D03*
%TD*%
%TO.P,SW1,1,1*%
%TO.N,Net-(Q1-G)*%
X109050000Y-90260000D03*
%TO.P,SW1,2,2*%
%TO.N,Net-(Q1-S)*%
X109050000Y-93660000D03*
%TD*%
D15*
%TO.P,R7,1*%
%TO.N,GND*%
X114900000Y-99350000D03*
%TO.P,R7,2*%
%TO.N,Net-(Q2-G)*%
X113075000Y-99350000D03*
%TD*%
D16*
%TO.P,R6,1*%
%TO.N,Net-(Q2-G)*%
X111520000Y-96725000D03*
%TO.P,R6,2*%
%TO.N,VCC*%
X111520000Y-94900000D03*
%TD*%
D17*
%TO.P,R5,1*%
%TO.N,Net-(Q1-G)*%
X106600000Y-90795000D03*
%TO.P,R5,2*%
%TO.N,Net-(Q2-D)*%
X106600000Y-92620000D03*
%TD*%
D16*
%TO.P,R4,1*%
%TO.N,Net-(Q1-S)*%
X111477500Y-93142500D03*
%TO.P,R4,2*%
%TO.N,Net-(Q1-G)*%
X111477500Y-91317500D03*
%TD*%
D17*
%TO.P,R3,1*%
%TO.N,Net-(D2-A)*%
X104035000Y-96725000D03*
%TO.P,R3,2*%
%TO.N,GND*%
X104035000Y-98550000D03*
%TD*%
D18*
%TO.P,R2,1*%
%TO.N,+5V*%
X100120000Y-97455000D03*
%TO.P,R2,2*%
%TO.N,Net-(D1-K)*%
X101945000Y-97455000D03*
%TD*%
%TO.P,R1,1*%
%TO.N,Net-(U1-PROG)*%
X101110000Y-98835000D03*
%TO.P,R1,2*%
%TO.N,GND*%
X102935000Y-98835000D03*
%TD*%
D19*
%TO.P,Q2,1,G*%
%TO.N,Net-(Q2-G)*%
X113000000Y-98015000D03*
%TO.P,Q2,2,S*%
%TO.N,GND*%
X114900000Y-98015000D03*
%TO.P,Q2,3,D*%
%TO.N,Net-(Q2-D)*%
X113950000Y-96140000D03*
%TD*%
D20*
%TO.P,Q1,1,G*%
%TO.N,Net-(Q1-G)*%
X112820000Y-91310000D03*
%TO.P,Q1,2,S*%
%TO.N,Net-(Q1-S)*%
X112820000Y-93210000D03*
%TO.P,Q1,3,D*%
%TO.N,VCC*%
X114695000Y-92260000D03*
%TD*%
D21*
%TO.P,FB1,1*%
%TO.N,VCC*%
X119240000Y-92300000D03*
%TO.P,FB1,2*%
%TO.N,Net-(U2-IN)*%
X123640000Y-92300000D03*
%TD*%
D22*
%TO.P,D2,1,K*%
%TO.N,Net-(D1-A)*%
X104035000Y-93585000D03*
%TO.P,D2,2,A*%
%TO.N,Net-(D2-A)*%
X104035000Y-95335000D03*
%TD*%
D23*
%TO.P,D1,1,K*%
%TO.N,Net-(D1-K)*%
X102575000Y-95305000D03*
%TO.P,D1,2,A*%
%TO.N,Net-(D1-A)*%
X102575000Y-93555000D03*
%TD*%
D24*
%TO.P,C4,1*%
%TO.N,Net-(Q1-S)*%
X99395000Y-92005000D03*
%TO.P,C4,2*%
%TO.N,GND*%
X101120000Y-92005000D03*
%TD*%
%TO.P,C3,1*%
%TO.N,+5V*%
X101090000Y-100335000D03*
%TO.P,C3,2*%
%TO.N,GND*%
X102815000Y-100335000D03*
%TD*%
D25*
%TO.P,C2,1*%
%TO.N,+3.3V*%
X123850000Y-98775000D03*
%TO.P,C2,2*%
%TO.N,GND*%
X123850000Y-97050000D03*
%TD*%
D26*
%TO.P,C1,1*%
%TO.N,Net-(U2-IN)*%
X123810000Y-94297500D03*
%TO.P,C1,2*%
%TO.N,GND*%
X123810000Y-96022500D03*
%TD*%
D27*
%TO.N,Net-(Q1-S)*%
X104955000Y-91130000D02*
X105492500Y-91667500D01*
X100270000Y-91130000D02*
X104955000Y-91130000D01*
X99395000Y-92005000D02*
X100270000Y-91130000D01*
D28*
%TO.N,+5V*%
X99255000Y-100335000D02*
X101090000Y-100335000D01*
X99205000Y-97345000D02*
X99205000Y-100285000D01*
X99205000Y-100285000D02*
X99255000Y-100335000D01*
D27*
%TO.N,Net-(Q1-S)*%
X105812500Y-91682500D02*
X108682500Y-91682500D01*
X108682500Y-91682500D02*
X109050000Y-92050000D01*
X109050000Y-92050000D02*
X109050000Y-93660000D01*
%TO.N,VCC*%
X114695000Y-93755000D02*
X114695000Y-92260000D01*
X114100000Y-94350000D02*
X114695000Y-93755000D01*
X112070000Y-94350000D02*
X114100000Y-94350000D01*
X111520000Y-94900000D02*
X112070000Y-94350000D01*
D29*
%TO.N,Net-(Q1-G)*%
X107135000Y-90260000D02*
X106600000Y-90795000D01*
X109050000Y-90260000D02*
X107135000Y-90260000D01*
D27*
%TO.N,Net-(Q2-D)*%
X105960000Y-93260000D02*
X106600000Y-92620000D01*
X109070000Y-95980000D02*
X106190000Y-95980000D01*
X106190000Y-95980000D02*
X105960000Y-95750000D01*
X105960000Y-95750000D02*
X105960000Y-93260000D01*
D30*
%TO.N,Net-(Q1-S)*%
X110387500Y-93142500D02*
X111477500Y-93142500D01*
X108050000Y-93660000D02*
X109870000Y-93660000D01*
X109870000Y-93660000D02*
X110387500Y-93142500D01*
X106860000Y-94850000D02*
X108050000Y-93660000D01*
D28*
%TO.N,Net-(Q2-G)*%
X113000000Y-99330000D02*
X113000000Y-98015000D01*
X111610000Y-99330000D02*
X113000000Y-99330000D01*
X111610000Y-99330000D02*
X111710000Y-99230000D01*
X111710000Y-99230000D02*
X111710000Y-96725000D01*
%TO.N,+5V*%
X99315000Y-97455000D02*
X100120000Y-97455000D01*
X99205000Y-95950000D02*
X99205000Y-97345000D01*
X99205000Y-97345000D02*
X99315000Y-97455000D01*
D29*
%TO.N,Net-(D2-A)*%
X104035000Y-95335000D02*
X104035000Y-96725000D01*
%TO.N,Net-(D1-A)*%
X103945000Y-93675000D02*
X104035000Y-93585000D01*
X101105000Y-93675000D02*
X103945000Y-93675000D01*
%TO.N,Net-(D1-K)*%
X102575000Y-96825000D02*
X101945000Y-97455000D01*
X102575000Y-95305000D02*
X102575000Y-96825000D01*
%TO.N,Net-(U1-PROG)*%
X101105000Y-98830000D02*
X101110000Y-98835000D01*
D31*
X101105000Y-95950000D02*
X101105000Y-98830000D01*
D27*
%TO.N,Net-(Q1-S)*%
X99205000Y-92195000D02*
X99205000Y-93675000D01*
X99395000Y-92005000D02*
X99205000Y-92195000D01*
D32*
%TO.N,+3.3V*%
X122070000Y-98775000D02*
X123422500Y-98775000D01*
X122070000Y-99500000D02*
X122070000Y-98775000D01*
X122160000Y-99410000D02*
X122070000Y-99500000D01*
X122160000Y-97512500D02*
X122160000Y-99410000D01*
%TO.N,Net-(U2-IN)*%
X122160000Y-94512500D02*
X123640000Y-94512500D01*
X123640000Y-94512500D02*
X123640000Y-92300000D01*
D29*
%TO.N,Net-(Q1-G)*%
X112812500Y-91317500D02*
X112820000Y-91310000D01*
X111477500Y-91317500D02*
X112812500Y-91317500D01*
X110420000Y-90260000D02*
X111477500Y-91317500D01*
X109050000Y-90260000D02*
X110420000Y-90260000D01*
D30*
%TO.N,Net-(Q1-S)*%
X112752500Y-93142500D02*
X111477500Y-93142500D01*
D29*
X112820000Y-93210000D02*
X112752500Y-93142500D01*
%TO.N,Net-(Q2-G)*%
X111710000Y-96725000D02*
X111520000Y-96725000D01*
D31*
%TO.N,Net-(Q2-D)*%
X113650000Y-95840000D02*
X109210000Y-95840000D01*
D29*
X113950000Y-96140000D02*
X113650000Y-95840000D01*
X109210000Y-95840000D02*
X109070000Y-95980000D01*
%TO.N,VCC*%
X119200000Y-92260000D02*
X119240000Y-92300000D01*
D32*
X114695000Y-92260000D02*
X119200000Y-92260000D01*
D29*
%TO.N,Net-(D1-A)*%
X101275000Y-93845000D02*
X101105000Y-93675000D01*
%TD*%
%TA.AperFunction,Conductor*%
%TO.N,GND*%
G36*
X124307539Y-90035185D02*
G01*
X124353294Y-90087989D01*
X124364500Y-90139500D01*
X124364500Y-90934503D01*
X124344815Y-91001542D01*
X124292011Y-91047297D01*
X124225718Y-91057619D01*
X124185651Y-91052808D01*
X124158102Y-91049500D01*
X123121898Y-91049500D01*
X123082853Y-91054188D01*
X123033438Y-91060122D01*
X122892656Y-91115639D01*
X122772077Y-91207077D01*
X122680639Y-91327656D01*
X122625122Y-91468438D01*
X122619842Y-91512413D01*
X122614500Y-91556898D01*
X122614500Y-93043102D01*
X122620126Y-93089954D01*
X122625122Y-93131561D01*
X122625122Y-93131563D01*
X122625123Y-93131564D01*
X122628025Y-93138923D01*
X122680639Y-93272343D01*
X122772077Y-93392922D01*
X122867075Y-93464961D01*
X122892658Y-93484361D01*
X122910988Y-93491589D01*
X122966132Y-93534493D01*
X122989327Y-93600401D01*
X122989500Y-93606944D01*
X122989500Y-93699936D01*
X122969815Y-93766975D01*
X122917011Y-93812730D01*
X122847853Y-93822674D01*
X122820010Y-93815291D01*
X122710588Y-93772140D01*
X122667242Y-93766935D01*
X122626144Y-93762000D01*
X121693856Y-93762000D01*
X121655841Y-93766565D01*
X121609411Y-93772140D01*
X121475023Y-93825136D01*
X121359921Y-93912421D01*
X121272636Y-94027523D01*
X121219640Y-94161911D01*
X121214065Y-94208341D01*
X121209500Y-94246356D01*
X121209500Y-94778644D01*
X121213851Y-94814872D01*
X121219640Y-94863088D01*
X121272636Y-94997476D01*
X121359921Y-95112578D01*
X121475023Y-95199863D01*
X121475024Y-95199863D01*
X121475025Y-95199864D01*
X121609410Y-95252859D01*
X121693856Y-95263000D01*
X121693862Y-95263000D01*
X122626138Y-95263000D01*
X122626144Y-95263000D01*
X122710590Y-95252859D01*
X122844975Y-95199864D01*
X122860359Y-95188198D01*
X122925670Y-95163373D01*
X122935286Y-95163000D01*
X123704071Y-95163000D01*
X123830339Y-95137883D01*
X123854531Y-95135500D01*
X124089619Y-95135500D01*
X124111232Y-95132904D01*
X124176077Y-95125117D01*
X124195009Y-95117650D01*
X124264596Y-95111369D01*
X124326532Y-95143705D01*
X124361154Y-95204394D01*
X124364500Y-95233005D01*
X124364500Y-97825656D01*
X124344815Y-97892695D01*
X124292011Y-97938450D01*
X124223982Y-97948231D01*
X124223971Y-97948331D01*
X124223600Y-97948286D01*
X124222853Y-97948394D01*
X124220302Y-97947890D01*
X124129619Y-97937000D01*
X124129618Y-97937000D01*
X123570382Y-97937000D01*
X123570381Y-97937000D01*
X123483925Y-97947382D01*
X123483924Y-97947382D01*
X123381925Y-97987605D01*
X123346342Y-98001638D01*
X123346341Y-98001638D01*
X123346340Y-98001639D01*
X123270105Y-98059449D01*
X123204794Y-98084271D01*
X123136430Y-98069842D01*
X123086719Y-98020744D01*
X123071444Y-97952565D01*
X123079825Y-97915159D01*
X123100359Y-97863090D01*
X123110500Y-97778644D01*
X123110500Y-97246356D01*
X123100359Y-97161910D01*
X123047364Y-97027525D01*
X123047363Y-97027524D01*
X123047363Y-97027523D01*
X122960078Y-96912421D01*
X122844976Y-96825136D01*
X122710588Y-96772140D01*
X122667242Y-96766935D01*
X122626144Y-96762000D01*
X121693856Y-96762000D01*
X121655841Y-96766565D01*
X121609411Y-96772140D01*
X121475023Y-96825136D01*
X121359921Y-96912421D01*
X121272636Y-97027523D01*
X121219640Y-97161911D01*
X121215418Y-97197074D01*
X121209500Y-97246356D01*
X121209500Y-97778644D01*
X121214596Y-97821077D01*
X121219640Y-97863088D01*
X121272636Y-97997476D01*
X121359921Y-98112578D01*
X121375643Y-98124500D01*
X121460425Y-98188792D01*
X121501948Y-98244984D01*
X121509500Y-98287596D01*
X121509500Y-98405944D01*
X121495668Y-98461165D01*
X121495866Y-98461247D01*
X121495314Y-98462578D01*
X121494860Y-98464393D01*
X121493539Y-98466864D01*
X121493535Y-98466871D01*
X121493535Y-98466873D01*
X121492685Y-98468925D01*
X121450207Y-98571474D01*
X121423328Y-98611701D01*
X121337793Y-98697236D01*
X121292415Y-98800006D01*
X121292415Y-98800008D01*
X121289500Y-98825131D01*
X121289500Y-99914856D01*
X121289502Y-99914882D01*
X121292413Y-99939987D01*
X121292415Y-99939991D01*
X121337793Y-100042764D01*
X121337794Y-100042765D01*
X121417235Y-100122206D01*
X121520009Y-100167585D01*
X121545135Y-100170500D01*
X122634864Y-100170499D01*
X122634879Y-100170497D01*
X122634882Y-100170497D01*
X122659987Y-100167586D01*
X122659988Y-100167585D01*
X122659991Y-100167585D01*
X122762765Y-100122206D01*
X122842206Y-100042765D01*
X122887585Y-99939991D01*
X122890500Y-99914865D01*
X122890500Y-99549500D01*
X122910185Y-99482461D01*
X122962989Y-99436706D01*
X123014500Y-99425500D01*
X123143638Y-99425500D01*
X123210677Y-99445185D01*
X123221635Y-99454015D01*
X123221742Y-99453875D01*
X123343907Y-99546516D01*
X123346342Y-99548362D01*
X123483923Y-99602617D01*
X123541562Y-99609539D01*
X123570381Y-99613000D01*
X123570382Y-99613000D01*
X124129619Y-99613000D01*
X124223971Y-99601669D01*
X124224331Y-99604666D01*
X124279921Y-99606776D01*
X124337224Y-99646752D01*
X124363819Y-99711362D01*
X124364500Y-99724343D01*
X124364500Y-100580500D01*
X124344815Y-100647539D01*
X124292011Y-100693294D01*
X124240500Y-100704500D01*
X102052000Y-100704500D01*
X101984961Y-100684815D01*
X101939206Y-100632011D01*
X101928000Y-100580500D01*
X101928000Y-100055381D01*
X101917617Y-99968925D01*
X101917617Y-99968924D01*
X101906208Y-99939993D01*
X101863362Y-99831342D01*
X101822115Y-99776949D01*
X101774000Y-99713499D01*
X101719840Y-99672429D01*
X101678317Y-99616237D01*
X101673765Y-99546516D01*
X101707630Y-99485401D01*
X101719841Y-99474820D01*
X101731915Y-99465664D01*
X101744000Y-99456500D01*
X101833362Y-99338658D01*
X101887617Y-99201077D01*
X101898000Y-99114618D01*
X101898000Y-98555382D01*
X101887617Y-98468923D01*
X101860432Y-98399988D01*
X101854152Y-98330403D01*
X101886489Y-98268467D01*
X101947178Y-98233846D01*
X101975788Y-98230500D01*
X102237119Y-98230500D01*
X102258732Y-98227904D01*
X102323577Y-98220117D01*
X102461158Y-98165862D01*
X102579000Y-98076500D01*
X102668362Y-97958658D01*
X102722617Y-97821077D01*
X102733000Y-97734618D01*
X102733000Y-97284754D01*
X102752685Y-97217715D01*
X102769318Y-97197074D01*
X102810700Y-97155691D01*
X102810705Y-97155687D01*
X102820911Y-97145480D01*
X102820913Y-97145480D01*
X102895480Y-97070913D01*
X102948207Y-96979587D01*
X102966204Y-96912422D01*
X102975501Y-96877727D01*
X102975501Y-96772273D01*
X102975501Y-96764678D01*
X102975500Y-96764660D01*
X102975500Y-96190936D01*
X102995185Y-96123897D01*
X103047989Y-96078142D01*
X103053996Y-96075587D01*
X103078658Y-96065862D01*
X103192632Y-95979432D01*
X103257941Y-95954611D01*
X103326305Y-95969039D01*
X103376016Y-96018136D01*
X103391292Y-96086316D01*
X103367282Y-96151930D01*
X103366360Y-96153162D01*
X103324139Y-96208839D01*
X103269882Y-96346424D01*
X103269882Y-96346425D01*
X103259500Y-96432881D01*
X103259500Y-97017118D01*
X103269882Y-97103574D01*
X103269882Y-97103575D01*
X103286407Y-97145480D01*
X103321075Y-97233392D01*
X103324139Y-97241160D01*
X103413499Y-97359000D01*
X103432270Y-97373234D01*
X103531342Y-97448362D01*
X103668923Y-97502617D01*
X103726562Y-97509539D01*
X103755381Y-97513000D01*
X103755382Y-97513000D01*
X104314619Y-97513000D01*
X104336232Y-97510404D01*
X104401077Y-97502617D01*
X104538658Y-97448362D01*
X104656500Y-97359000D01*
X104745862Y-97241158D01*
X104800117Y-97103577D01*
X104810500Y-97017118D01*
X104810500Y-96432882D01*
X104808292Y-96414500D01*
X104801793Y-96360378D01*
X104800117Y-96346423D01*
X104745862Y-96208842D01*
X104681277Y-96123674D01*
X104656455Y-96058364D01*
X104670883Y-95990000D01*
X104681278Y-95973825D01*
X104704445Y-95943275D01*
X104745862Y-95888658D01*
X104800117Y-95751077D01*
X104810500Y-95664618D01*
X104810500Y-95005382D01*
X104809550Y-94997475D01*
X104800117Y-94918925D01*
X104800117Y-94918924D01*
X104795597Y-94907461D01*
X104745862Y-94781342D01*
X104743811Y-94778637D01*
X104656500Y-94663499D01*
X104538660Y-94574139D01*
X104531266Y-94569982D01*
X104532353Y-94568047D01*
X104486601Y-94532453D01*
X104463405Y-94466546D01*
X104479523Y-94398561D01*
X104529838Y-94350082D01*
X104536833Y-94346887D01*
X104538652Y-94345864D01*
X104538658Y-94345862D01*
X104656500Y-94256500D01*
X104745862Y-94138658D01*
X104800117Y-94001077D01*
X104810500Y-93914618D01*
X104810500Y-93255382D01*
X104800117Y-93168923D01*
X104745862Y-93031342D01*
X104726443Y-93005734D01*
X104656500Y-92913499D01*
X104538660Y-92824139D01*
X104538658Y-92824138D01*
X104401077Y-92769883D01*
X104401076Y-92769882D01*
X104401074Y-92769882D01*
X104314619Y-92759500D01*
X104314618Y-92759500D01*
X103755382Y-92759500D01*
X103755381Y-92759500D01*
X103668925Y-92769882D01*
X103668924Y-92769882D01*
X103531339Y-92824139D01*
X103413497Y-92913501D01*
X103407502Y-92919497D01*
X103406044Y-92918039D01*
X103358966Y-92952816D01*
X103289244Y-92957356D01*
X103228136Y-92923481D01*
X103217569Y-92911284D01*
X103196500Y-92883500D01*
X103196499Y-92883499D01*
X103078660Y-92794139D01*
X103078658Y-92794138D01*
X102941077Y-92739883D01*
X102941076Y-92739882D01*
X102941074Y-92739882D01*
X102854619Y-92729500D01*
X102854618Y-92729500D01*
X102295382Y-92729500D01*
X102295381Y-92729500D01*
X102208925Y-92739882D01*
X102208924Y-92739882D01*
X102071339Y-92794139D01*
X101953499Y-92883499D01*
X101874889Y-92987164D01*
X101818697Y-93028687D01*
X101748975Y-93033239D01*
X101687861Y-92999374D01*
X101659045Y-92953196D01*
X101657793Y-92949618D01*
X101577150Y-92840350D01*
X101467882Y-92759707D01*
X101467880Y-92759706D01*
X101339700Y-92714853D01*
X101309270Y-92712000D01*
X101309266Y-92712000D01*
X100900734Y-92712000D01*
X100900730Y-92712000D01*
X100870300Y-92714853D01*
X100870298Y-92714853D01*
X100742119Y-92759706D01*
X100742117Y-92759707D01*
X100632850Y-92840350D01*
X100552207Y-92949617D01*
X100552206Y-92949619D01*
X100507353Y-93077798D01*
X100507353Y-93077800D01*
X100504500Y-93108230D01*
X100504500Y-94241769D01*
X100507353Y-94272199D01*
X100507353Y-94272201D01*
X100552114Y-94400117D01*
X100552207Y-94400382D01*
X100632850Y-94509650D01*
X100742118Y-94590293D01*
X100784845Y-94605244D01*
X100870299Y-94635146D01*
X100900730Y-94638000D01*
X100900734Y-94638000D01*
X101309270Y-94638000D01*
X101339699Y-94635146D01*
X101339701Y-94635146D01*
X101417618Y-94607881D01*
X101467882Y-94590293D01*
X101577150Y-94509650D01*
X101657793Y-94400382D01*
X101685891Y-94320082D01*
X101702646Y-94272201D01*
X101702646Y-94272198D01*
X101704320Y-94254352D01*
X101730177Y-94189443D01*
X101787022Y-94148817D01*
X101856806Y-94145374D01*
X101917375Y-94180205D01*
X101926583Y-94191004D01*
X101953500Y-94226500D01*
X101990228Y-94254352D01*
X102071342Y-94315862D01*
X102071343Y-94315862D01*
X102078734Y-94320018D01*
X102077647Y-94321951D01*
X102123403Y-94357554D01*
X102146595Y-94423463D01*
X102130472Y-94491447D01*
X102080154Y-94539922D01*
X102073163Y-94543113D01*
X102071339Y-94544139D01*
X101953499Y-94633499D01*
X101864139Y-94751339D01*
X101809882Y-94888924D01*
X101809882Y-94888925D01*
X101799500Y-94975381D01*
X101799500Y-95039792D01*
X101779815Y-95106831D01*
X101727011Y-95152586D01*
X101657853Y-95162530D01*
X101594297Y-95133505D01*
X101581913Y-95120113D01*
X101577151Y-95115351D01*
X101516870Y-95070862D01*
X101467882Y-95034707D01*
X101467880Y-95034706D01*
X101339700Y-94989853D01*
X101309270Y-94987000D01*
X101309266Y-94987000D01*
X100900734Y-94987000D01*
X100900730Y-94987000D01*
X100870300Y-94989853D01*
X100870298Y-94989853D01*
X100742119Y-95034706D01*
X100742117Y-95034707D01*
X100632850Y-95115350D01*
X100552207Y-95224617D01*
X100552206Y-95224619D01*
X100507353Y-95352798D01*
X100507353Y-95352800D01*
X100504500Y-95383230D01*
X100504500Y-96516771D01*
X100507046Y-96543924D01*
X100493706Y-96612508D01*
X100445405Y-96662993D01*
X100383588Y-96679500D01*
X99926412Y-96679500D01*
X99859373Y-96659815D01*
X99813618Y-96607011D01*
X99802954Y-96543924D01*
X99805500Y-96516771D01*
X99805500Y-95383230D01*
X99802646Y-95352800D01*
X99802646Y-95352798D01*
X99764500Y-95243785D01*
X99757793Y-95224618D01*
X99677150Y-95115350D01*
X99567882Y-95034707D01*
X99567880Y-95034706D01*
X99439700Y-94989853D01*
X99409270Y-94987000D01*
X99409266Y-94987000D01*
X99000734Y-94987000D01*
X99000730Y-94987000D01*
X98970300Y-94989853D01*
X98970298Y-94989853D01*
X98842119Y-95034706D01*
X98833899Y-95039051D01*
X98833137Y-95037609D01*
X98777499Y-95057929D01*
X98709330Y-95042610D01*
X98660264Y-94992868D01*
X98645500Y-94934187D01*
X98645500Y-94690812D01*
X98665185Y-94623773D01*
X98717989Y-94578018D01*
X98787147Y-94568074D01*
X98833331Y-94587022D01*
X98833899Y-94585949D01*
X98842115Y-94590291D01*
X98842118Y-94590293D01*
X98884845Y-94605244D01*
X98970299Y-94635146D01*
X99000730Y-94638000D01*
X99000734Y-94638000D01*
X99409270Y-94638000D01*
X99439699Y-94635146D01*
X99439701Y-94635146D01*
X99517618Y-94607881D01*
X99567882Y-94590293D01*
X99677150Y-94509650D01*
X99757793Y-94400382D01*
X99785891Y-94320082D01*
X99802646Y-94272201D01*
X99802646Y-94272199D01*
X99805500Y-94241769D01*
X99805500Y-93108230D01*
X99802646Y-93077800D01*
X99802646Y-93077798D01*
X99757794Y-92949621D01*
X99757793Y-92949619D01*
X99757793Y-92949618D01*
X99757790Y-92949615D01*
X99755362Y-92945020D01*
X99741440Y-92876551D01*
X99766744Y-92811425D01*
X99819502Y-92771723D01*
X99823573Y-92770117D01*
X99823577Y-92770117D01*
X99961158Y-92715862D01*
X100079000Y-92626500D01*
X100168362Y-92508658D01*
X100222617Y-92371077D01*
X100233000Y-92284618D01*
X100233000Y-91926176D01*
X100252685Y-91859137D01*
X100269319Y-91838495D01*
X100440995Y-91666819D01*
X100502318Y-91633334D01*
X100528676Y-91630500D01*
X101630501Y-91630500D01*
X101697540Y-91650185D01*
X101743295Y-91702989D01*
X101754501Y-91754500D01*
X101754501Y-91989856D01*
X101754502Y-91989882D01*
X101757413Y-92014987D01*
X101757415Y-92014991D01*
X101802793Y-92117764D01*
X101802794Y-92117765D01*
X101882235Y-92197206D01*
X101985009Y-92242585D01*
X102010135Y-92245500D01*
X103099864Y-92245499D01*
X103099879Y-92245497D01*
X103099882Y-92245497D01*
X103124987Y-92242586D01*
X103124988Y-92242585D01*
X103124991Y-92242585D01*
X103227765Y-92197206D01*
X103307206Y-92117765D01*
X103352585Y-92014991D01*
X103355500Y-91989865D01*
X103355500Y-91754500D01*
X103375185Y-91687461D01*
X103427989Y-91641706D01*
X103479500Y-91630500D01*
X104696324Y-91630500D01*
X104763363Y-91650185D01*
X104784005Y-91666819D01*
X105185186Y-92068000D01*
X105299314Y-92133892D01*
X105426608Y-92168000D01*
X105426610Y-92168000D01*
X105558390Y-92168000D01*
X105558393Y-92168000D01*
X105592418Y-92158883D01*
X105656601Y-92158883D01*
X105735088Y-92179913D01*
X105794749Y-92216278D01*
X105825278Y-92279125D01*
X105826110Y-92314467D01*
X105824500Y-92327882D01*
X105824500Y-92327887D01*
X105824500Y-92636324D01*
X105804815Y-92703363D01*
X105788181Y-92724005D01*
X105559502Y-92952683D01*
X105559500Y-92952686D01*
X105493608Y-93066812D01*
X105463419Y-93179481D01*
X105459500Y-93194108D01*
X105459500Y-95684108D01*
X105459500Y-95815892D01*
X105470959Y-95858658D01*
X105493608Y-95943187D01*
X105500204Y-95954611D01*
X105559500Y-96057314D01*
X105882686Y-96380500D01*
X105996814Y-96446392D01*
X106124107Y-96480500D01*
X106124108Y-96480500D01*
X107833011Y-96480500D01*
X107900050Y-96500185D01*
X107945805Y-96552989D01*
X107946392Y-96554295D01*
X107967794Y-96602765D01*
X108047235Y-96682206D01*
X108150009Y-96727585D01*
X108175135Y-96730500D01*
X109964864Y-96730499D01*
X109964879Y-96730497D01*
X109964882Y-96730497D01*
X109989987Y-96727586D01*
X109989988Y-96727585D01*
X109989991Y-96727585D01*
X110092765Y-96682206D01*
X110172206Y-96602765D01*
X110217585Y-96499991D01*
X110220500Y-96474865D01*
X110220500Y-96414500D01*
X110240185Y-96347461D01*
X110292989Y-96301706D01*
X110344500Y-96290500D01*
X110621817Y-96290500D01*
X110688856Y-96310185D01*
X110734611Y-96362989D01*
X110744932Y-96429287D01*
X110744500Y-96432883D01*
X110744500Y-97017118D01*
X110754882Y-97103574D01*
X110754882Y-97103575D01*
X110771407Y-97145480D01*
X110806075Y-97233392D01*
X110809139Y-97241160D01*
X110898499Y-97359000D01*
X110917270Y-97373234D01*
X111016342Y-97448362D01*
X111080992Y-97473856D01*
X111136134Y-97516761D01*
X111159327Y-97582669D01*
X111159500Y-97589210D01*
X111159500Y-98408106D01*
X111139815Y-98475145D01*
X111087011Y-98520900D01*
X111049789Y-98531280D01*
X111040010Y-98532414D01*
X111040008Y-98532415D01*
X110937235Y-98577793D01*
X110857794Y-98657234D01*
X110812415Y-98760006D01*
X110812415Y-98760008D01*
X110809500Y-98785131D01*
X110809500Y-99874856D01*
X110809502Y-99874882D01*
X110812413Y-99899987D01*
X110812415Y-99899991D01*
X110857793Y-100002764D01*
X110857794Y-100002765D01*
X110937235Y-100082206D01*
X111040009Y-100127585D01*
X111065135Y-100130500D01*
X112154864Y-100130499D01*
X112154879Y-100130497D01*
X112154882Y-100130497D01*
X112179987Y-100127586D01*
X112179988Y-100127585D01*
X112179991Y-100127585D01*
X112282765Y-100082206D01*
X112337518Y-100027452D01*
X112398837Y-99993970D01*
X112468529Y-99998954D01*
X112500119Y-100016331D01*
X112514788Y-100027455D01*
X112551615Y-100055382D01*
X112558842Y-100060862D01*
X112696423Y-100115117D01*
X112754062Y-100122039D01*
X112782881Y-100125500D01*
X112782882Y-100125500D01*
X113367119Y-100125500D01*
X113394555Y-100122205D01*
X113453577Y-100115117D01*
X113591158Y-100060862D01*
X113709000Y-99971500D01*
X113798362Y-99853658D01*
X113852617Y-99716077D01*
X113863000Y-99629618D01*
X113863000Y-99070382D01*
X113852617Y-98983923D01*
X113798362Y-98846342D01*
X113798360Y-98846339D01*
X113709000Y-98728499D01*
X113649575Y-98683436D01*
X113608051Y-98627243D01*
X113600500Y-98584632D01*
X113600500Y-97373230D01*
X113597646Y-97342801D01*
X113596845Y-97340511D01*
X113596753Y-97338710D01*
X113596036Y-97335427D01*
X113596579Y-97335308D01*
X113593284Y-97270732D01*
X113628013Y-97210105D01*
X113690007Y-97177878D01*
X113725464Y-97176099D01*
X113745734Y-97178000D01*
X114154270Y-97178000D01*
X114184699Y-97175146D01*
X114184701Y-97175146D01*
X114248790Y-97152719D01*
X114312882Y-97130293D01*
X114422150Y-97049650D01*
X114502793Y-96940382D01*
X114525219Y-96876290D01*
X114547646Y-96812201D01*
X114547646Y-96812199D01*
X114550500Y-96781769D01*
X114550500Y-95498230D01*
X114547646Y-95467800D01*
X114547646Y-95467798D01*
X114507406Y-95352801D01*
X114502793Y-95339618D01*
X114422150Y-95230350D01*
X114312882Y-95149707D01*
X114312880Y-95149706D01*
X114184700Y-95104853D01*
X114154270Y-95102000D01*
X114154266Y-95102000D01*
X113745734Y-95102000D01*
X113745730Y-95102000D01*
X113715300Y-95104853D01*
X113715298Y-95104853D01*
X113587119Y-95149706D01*
X113587117Y-95149707D01*
X113477850Y-95230350D01*
X113397564Y-95339134D01*
X113341916Y-95381384D01*
X113297794Y-95389500D01*
X112411578Y-95389500D01*
X112344539Y-95369815D01*
X112298784Y-95317011D01*
X112288463Y-95250715D01*
X112295500Y-95192118D01*
X112295500Y-94974500D01*
X112315185Y-94907461D01*
X112367989Y-94861706D01*
X112419500Y-94850500D01*
X114165890Y-94850500D01*
X114165892Y-94850500D01*
X114293186Y-94816392D01*
X114407314Y-94750500D01*
X115095500Y-94062314D01*
X115161392Y-93948186D01*
X115195500Y-93820893D01*
X115195500Y-93689108D01*
X115195500Y-93034500D01*
X115215185Y-92967461D01*
X115267989Y-92921706D01*
X115319500Y-92910500D01*
X115594167Y-92910500D01*
X115661206Y-92930185D01*
X115681848Y-92946819D01*
X115737235Y-93002206D01*
X115840009Y-93047585D01*
X115865135Y-93050500D01*
X116954864Y-93050499D01*
X116954879Y-93050497D01*
X116954882Y-93050497D01*
X116979987Y-93047586D01*
X116979988Y-93047585D01*
X116979991Y-93047585D01*
X117082765Y-93002206D01*
X117102319Y-92982652D01*
X117163642Y-92949167D01*
X117233334Y-92954151D01*
X117277681Y-92982652D01*
X117277794Y-92982765D01*
X117357235Y-93062206D01*
X117460009Y-93107585D01*
X117485135Y-93110500D01*
X118132421Y-93110499D01*
X118199460Y-93130183D01*
X118245215Y-93182987D01*
X118247775Y-93189008D01*
X118280638Y-93272341D01*
X118372077Y-93392922D01*
X118492656Y-93484360D01*
X118492657Y-93484360D01*
X118492658Y-93484361D01*
X118633436Y-93539877D01*
X118721898Y-93550500D01*
X118721903Y-93550500D01*
X119758097Y-93550500D01*
X119758102Y-93550500D01*
X119846564Y-93539877D01*
X119987342Y-93484361D01*
X120107922Y-93392922D01*
X120199361Y-93272342D01*
X120254877Y-93131564D01*
X120265500Y-93043102D01*
X120265500Y-91556898D01*
X120254877Y-91468436D01*
X120199361Y-91327658D01*
X120199360Y-91327657D01*
X120199360Y-91327656D01*
X120107922Y-91207077D01*
X119987343Y-91115639D01*
X119891192Y-91077722D01*
X119846564Y-91060123D01*
X119846563Y-91060122D01*
X119846561Y-91060122D01*
X119800926Y-91054642D01*
X119758102Y-91049500D01*
X118721898Y-91049500D01*
X118682853Y-91054188D01*
X118633438Y-91060122D01*
X118492656Y-91115639D01*
X118372077Y-91207077D01*
X118280638Y-91327658D01*
X118280637Y-91327660D01*
X118239889Y-91430990D01*
X118196983Y-91486134D01*
X118131076Y-91509327D01*
X118124535Y-91509500D01*
X117485143Y-91509500D01*
X117485117Y-91509502D01*
X117460012Y-91512413D01*
X117460008Y-91512415D01*
X117357235Y-91557793D01*
X117357234Y-91557794D01*
X117341848Y-91573181D01*
X117280525Y-91606666D01*
X117254167Y-91609500D01*
X117245833Y-91609500D01*
X117178794Y-91589815D01*
X117158152Y-91573181D01*
X117082765Y-91497794D01*
X116979992Y-91452415D01*
X116954865Y-91449500D01*
X115865143Y-91449500D01*
X115865117Y-91449502D01*
X115840012Y-91452413D01*
X115840008Y-91452415D01*
X115737235Y-91497793D01*
X115737234Y-91497794D01*
X115661848Y-91573181D01*
X115600525Y-91606666D01*
X115574167Y-91609500D01*
X114630929Y-91609500D01*
X114505261Y-91634497D01*
X114505251Y-91634500D01*
X114467685Y-91650061D01*
X114420233Y-91659500D01*
X114053230Y-91659500D01*
X114022800Y-91662353D01*
X114022798Y-91662354D01*
X114020500Y-91663158D01*
X114018696Y-91663249D01*
X114015427Y-91663964D01*
X114015308Y-91663422D01*
X113950721Y-91666712D01*
X113890097Y-91631978D01*
X113857876Y-91569981D01*
X113856099Y-91534534D01*
X113858000Y-91514266D01*
X113858000Y-91105734D01*
X113857942Y-91105118D01*
X113855146Y-91075300D01*
X113855146Y-91075298D01*
X113810293Y-90947119D01*
X113810292Y-90947117D01*
X113729650Y-90837850D01*
X113620382Y-90757207D01*
X113620380Y-90757206D01*
X113492200Y-90712353D01*
X113461770Y-90709500D01*
X113461766Y-90709500D01*
X112178234Y-90709500D01*
X112175335Y-90709500D01*
X112175335Y-90708084D01*
X112112787Y-90692776D01*
X112100081Y-90684319D01*
X111981160Y-90594139D01*
X111981158Y-90594138D01*
X111843577Y-90539883D01*
X111843576Y-90539882D01*
X111843574Y-90539882D01*
X111757119Y-90529500D01*
X111757118Y-90529500D01*
X111307255Y-90529500D01*
X111240216Y-90509815D01*
X111219574Y-90493181D01*
X110953574Y-90227181D01*
X110920089Y-90165858D01*
X110925073Y-90096166D01*
X110966945Y-90040233D01*
X111032409Y-90015816D01*
X111041255Y-90015500D01*
X124240500Y-90015500D01*
X124307539Y-90035185D01*
G37*
%TD.AperFunction*%
%TD*%
M02*
