<?xml version="1.0" standalone="no"?>
 <!DOCTYPE svg PUBLIC "-//W3C//DTD SVG 1.1//EN" 
 "http://www.w3.org/Graphics/SVG/1.1/DTD/svg11.dtd"> 
<svg
  xmlns:svg="http://www.w3.org/2000/svg"
  xmlns="http://www.w3.org/2000/svg"
  xmlns:xlink="http://www.w3.org/1999/xlink"
  version="1.1"
  width="297.0022mm" height="210.0072mm" viewBox="0.0000 0.0000 297.0022 210.0072">
<title>SVG Image created as MT3608-F_Mask.svg date 2025/03/25 14:41:31 </title>
  <desc>Image generated by PCBNEW </desc>
<g style="fill:#000000; fill-opacity:1.0000;stroke:#000000; stroke-opacity:1.0000;
stroke-linecap:round; stroke-linejoin:round;"
 transform="translate(0 0) scale(1 1)">
</g>
<g style="fill:#000000; fill-opacity:1.0000; stroke:none;">
<circle cx="149.6500" cy="106.1000" r="0.7500" /> 
</g>
<g style="fill:#000000; fill-opacity:1.0000; stroke:none;">
<circle cx="138.1500" cy="94.4500" r="0.7500" /> 
<path style="fill:#000000; fill-opacity:1.0000; stroke:none;fill-rule:evenodd;"
d="M 151.7000,106.9500
151.7000,105.4500
153.2000,105.4500
153.2000,106.9500
Z" /> 
<path style="fill:#000000; fill-opacity:1.0000; stroke:none;fill-rule:evenodd;"
d="M 137.5500,91.6500
137.5500,90.1500
139.0500,90.1500
139.0500,91.6500
Z" /> 
<path style="fill:#000000; fill-opacity:1.0000; stroke:none;fill-rule:evenodd;"
d="M 144.0000,90.8500
144.0000,89.8500
145.0000,89.8500
145.0000,90.8500
Z" /> 
<path style="fill:#000000; fill-opacity:1.0000; stroke:none;fill-rule:evenodd;"
d="M 145.8875,96.8000
145.8761,96.8574
145.8436,96.9061
145.7949,96.9386
145.7375,96.9500
144.7125,96.9500
144.6551,96.9386
144.6064,96.9061
144.5739,96.8574
144.5625,96.8000
144.5625,96.5000
144.5739,96.4426
144.6064,96.3939
144.6551,96.3614
144.7125,96.3500
145.7375,96.3500
145.7949,96.3614
145.8436,96.3939
145.8761,96.4426
145.8875,96.5000
Z" /> 
<path style="fill:#000000; fill-opacity:1.0000; stroke:none;fill-rule:evenodd;"
d="M 145.8875,95.8500
145.8761,95.9074
145.8436,95.9561
145.7949,95.9886
145.7375,96.0000
144.7125,96.0000
144.6551,95.9886
144.6064,95.9561
144.5739,95.9074
144.5625,95.8500
144.5625,95.5500
144.5739,95.4926
144.6064,95.4439
144.6551,95.4114
144.7125,95.4000
145.7375,95.4000
145.7949,95.4114
145.8436,95.4439
145.8761,95.4926
145.8875,95.5500
Z" /> 
<path style="fill:#000000; fill-opacity:1.0000; stroke:none;fill-rule:evenodd;"
d="M 145.8875,94.9000
145.8761,94.9574
145.8436,95.0061
145.7949,95.0386
145.7375,95.0500
144.7125,95.0500
144.6551,95.0386
144.6064,95.0061
144.5739,94.9574
144.5625,94.9000
144.5625,94.6000
144.5739,94.5426
144.6064,94.4939
144.6551,94.4614
144.7125,94.4500
145.7375,94.4500
145.7949,94.4614
145.8436,94.4939
145.8761,94.5426
145.8875,94.6000
Z" /> 
<path style="fill:#000000; fill-opacity:1.0000; stroke:none;fill-rule:evenodd;"
d="M 143.6125,94.9000
143.6011,94.9574
143.5686,95.0061
143.5199,95.0386
143.4625,95.0500
142.4375,95.0500
142.3801,95.0386
142.3314,95.0061
142.2989,94.9574
142.2875,94.9000
142.2875,94.6000
142.2989,94.5426
142.3314,94.4939
142.3801,94.4614
142.4375,94.4500
143.4625,94.4500
143.5199,94.4614
143.5686,94.4939
143.6011,94.5426
143.6125,94.6000
Z" /> 
<path style="fill:#000000; fill-opacity:1.0000; stroke:none;fill-rule:evenodd;"
d="M 143.6125,95.8500
143.6011,95.9074
143.5686,95.9561
143.5199,95.9886
143.4625,96.0000
142.4375,96.0000
142.3801,95.9886
142.3314,95.9561
142.2989,95.9074
142.2875,95.8500
142.2875,95.5500
142.2989,95.4926
142.3314,95.4439
142.3801,95.4114
142.4375,95.4000
143.4625,95.4000
143.5199,95.4114
143.5686,95.4439
143.6011,95.4926
143.6125,95.5500
Z" /> 
<path style="fill:#000000; fill-opacity:1.0000; stroke:none;fill-rule:evenodd;"
d="M 143.6125,96.8000
143.6011,96.8574
143.5686,96.9061
143.5199,96.9386
143.4625,96.9500
142.4375,96.9500
142.3801,96.9386
142.3314,96.9061
142.2989,96.8574
142.2875,96.8000
142.2875,96.5000
142.2989,96.4426
142.3314,96.3939
142.3801,96.3614
142.4375,96.3500
143.4625,96.3500
143.5199,96.3614
143.5686,96.3939
143.6011,96.4426
143.6125,96.5000
Z" /> 
</g>
<g style="fill:#000000; fill-opacity:1.0000; stroke:none;">
<circle cx="147.5500" cy="92.1000" r="0.5000" /> 
<path style="fill:#000000; fill-opacity:1.0000; stroke:none;fill-rule:evenodd;"
d="M 140.5250,97.1625
140.4293,97.1435
140.3482,97.0893
140.2940,97.0082
140.2750,96.9125
140.2750,96.2375
140.2940,96.1418
140.3482,96.0607
140.4293,96.0065
140.5250,95.9875
141.4750,95.9875
141.5707,96.0065
141.6518,96.0607
141.7060,96.1418
141.7250,96.2375
141.7250,96.9125
141.7060,97.0082
141.6518,97.0893
141.5707,97.1435
141.4750,97.1625
Z" /> 
<path style="fill:#000000; fill-opacity:1.0000; stroke:none;fill-rule:evenodd;"
d="M 140.5250,95.0875
140.4293,95.0685
140.3482,95.0143
140.2940,94.9332
140.2750,94.8375
140.2750,94.1625
140.2940,94.0668
140.3482,93.9857
140.4293,93.9315
140.5250,93.9125
141.4750,93.9125
141.5707,93.9315
141.6518,93.9857
141.7060,94.0668
141.7250,94.1625
141.7250,94.8375
141.7060,94.9332
141.6518,95.0143
141.5707,95.0685
141.4750,95.0875
Z" /> 
<path style="fill:#000000; fill-opacity:1.0000; stroke:none;fill-rule:evenodd;"
d="M 148.9625,96.1625
148.8716,96.1444
148.7946,96.0929
148.7431,96.0159
148.7250,95.9250
148.7250,95.4250
148.7431,95.3341
148.7946,95.2571
148.8716,95.2056
148.9625,95.1875
149.4375,95.1875
149.5284,95.2056
149.6054,95.2571
149.6569,95.3341
149.6750,95.4250
149.6750,95.9250
149.6569,96.0159
149.6054,96.0929
149.5284,96.1444
149.4375,96.1625
Z" /> 
<path style="fill:#000000; fill-opacity:1.0000; stroke:none;fill-rule:evenodd;"
d="M 148.9625,94.3375
148.8716,94.3194
148.7946,94.2679
148.7431,94.1909
148.7250,94.1000
148.7250,93.6000
148.7431,93.5091
148.7946,93.4321
148.8716,93.3806
148.9625,93.3625
149.4375,93.3625
149.5284,93.3806
149.6054,93.4321
149.6569,93.5091
149.6750,93.6000
149.6750,94.1000
149.6569,94.1909
149.6054,94.2679
149.5284,94.3194
149.4375,94.3375
Z" /> 
<path style="fill:#000000; fill-opacity:1.0000; stroke:none;fill-rule:evenodd;"
d="M 148.6125,97.0750
148.6315,96.9793
148.6857,96.8982
148.7668,96.8440
148.8625,96.8250
149.5375,96.8250
149.6332,96.8440
149.7143,96.8982
149.7685,96.9793
149.7875,97.0750
149.7875,98.0250
149.7685,98.1207
149.7143,98.2018
149.6332,98.2560
149.5375,98.2750
148.8625,98.2750
148.7668,98.2560
148.6857,98.2018
148.6315,98.1207
148.6125,98.0250
Z" /> 
<path style="fill:#000000; fill-opacity:1.0000; stroke:none;fill-rule:evenodd;"
d="M 150.6875,97.0750
150.7065,96.9793
150.7607,96.8982
150.8418,96.8440
150.9375,96.8250
151.6125,96.8250
151.7082,96.8440
151.7893,96.8982
151.8435,96.9793
151.8625,97.0750
151.8625,98.0250
151.8435,98.1207
151.7893,98.2018
151.7082,98.2560
151.6125,98.2750
150.9375,98.2750
150.8418,98.2560
150.7607,98.2018
150.7065,98.1207
150.6875,98.0250
Z" /> 
</g>
<g style="fill:#000000; fill-opacity:1.0000; stroke:none;">
<circle cx="142.3500" cy="92.4000" r="0.5000" /> 
<path style="fill:#000000; fill-opacity:1.0000; stroke:none;fill-rule:evenodd;"
d="M 145.2000,104.6500
145.2000,101.0500
147.9000,101.0500
147.9000,104.6500
Z" /> 
<path style="fill:#000000; fill-opacity:1.0000; stroke:none;fill-rule:evenodd;"
d="M 136.9000,104.6500
136.9000,101.0500
139.6000,101.0500
139.6000,104.6500
Z" /> 
<path style="fill:#000000; fill-opacity:1.0000; stroke:none;fill-rule:evenodd;"
d="M 150.0750,99.0375
150.1707,99.0565
150.2518,99.1107
150.3060,99.1918
150.3250,99.2875
150.3250,100.2125
150.3060,100.3082
150.2518,100.3893
150.1707,100.4435
150.0750,100.4625
148.8250,100.4625
148.7293,100.4435
148.6482,100.3893
148.5940,100.3082
148.5750,100.2125
148.5750,99.2875
148.5940,99.1918
148.6482,99.1107
148.7293,99.0565
148.8250,99.0375
Z" /> 
<path style="fill:#000000; fill-opacity:1.0000; stroke:none;fill-rule:evenodd;"
d="M 150.0750,102.0125
150.1707,102.0315
150.2518,102.0857
150.3060,102.1668
150.3250,102.2625
150.3250,103.1875
150.3060,103.2832
150.2518,103.3643
150.1707,103.4185
150.0750,103.4375
148.8250,103.4375
148.7293,103.4185
148.6482,103.3643
148.5940,103.2832
148.5750,103.1875
148.5750,102.2625
148.5940,102.1668
148.6482,102.0857
148.7293,102.0315
148.8250,102.0125
Z" /> 
<path style="fill:#000000; fill-opacity:1.0000; stroke:none;fill-rule:evenodd;"
d="M 148.8000,89.6750
148.8190,89.5793
148.8732,89.4982
148.9543,89.4440
149.0500,89.4250
149.8500,89.4250
149.9457,89.4440
150.0268,89.4982
150.0810,89.5793
150.1000,89.6750
150.1000,90.9250
150.0810,91.0207
150.0268,91.1018
149.9457,91.1560
149.8500,91.1750
149.0500,91.1750
148.9543,91.1560
148.8732,91.1018
148.8190,91.0207
148.8000,90.9250
Z" /> 
<path style="fill:#000000; fill-opacity:1.0000; stroke:none;fill-rule:evenodd;"
d="M 151.9000,89.6750
151.9190,89.5793
151.9732,89.4982
152.0543,89.4440
152.1500,89.4250
152.9500,89.4250
153.0457,89.4440
153.1268,89.4982
153.1810,89.5793
153.2000,89.6750
153.2000,90.9250
153.1810,91.0207
153.1268,91.1018
153.0457,91.1560
152.9500,91.1750
152.1500,91.1750
152.0543,91.1560
151.9732,91.1018
151.9190,91.0207
151.9000,90.9250
Z" /> 
<path style="fill:#000000; fill-opacity:1.0000; stroke:none;fill-rule:evenodd;"
d="M 143.0375,92.9125
143.0556,92.8216
143.1071,92.7446
143.1841,92.6931
143.2750,92.6750
143.7750,92.6750
143.8659,92.6931
143.9429,92.7446
143.9944,92.8216
144.0125,92.9125
144.0125,93.3875
143.9944,93.4784
143.9429,93.5554
143.8659,93.6069
143.7750,93.6250
143.2750,93.6250
143.1841,93.6069
143.1071,93.5554
143.0556,93.4784
143.0375,93.3875
Z" /> 
<path style="fill:#000000; fill-opacity:1.0000; stroke:none;fill-rule:evenodd;"
d="M 144.8625,92.9125
144.8806,92.8216
144.9321,92.7446
145.0091,92.6931
145.1000,92.6750
145.6000,92.6750
145.6909,92.6931
145.7679,92.7446
145.8194,92.8216
145.8375,92.9125
145.8375,93.3875
145.8194,93.4784
145.7679,93.5554
145.6909,93.6069
145.6000,93.6250
145.1000,93.6250
145.0091,93.6069
144.9321,93.5554
144.8806,93.4784
144.8625,93.3875
Z" /> 
<path style="fill:#000000; fill-opacity:1.0000; stroke:none;fill-rule:evenodd;"
d="M 147.8375,93.3625
147.9284,93.3806
148.0054,93.4321
148.0569,93.5091
148.0750,93.6000
148.0750,94.1000
148.0569,94.1909
148.0054,94.2679
147.9284,94.3194
147.8375,94.3375
147.3625,94.3375
147.2716,94.3194
147.1946,94.2679
147.1431,94.1909
147.1250,94.1000
147.1250,93.6000
147.1431,93.5091
147.1946,93.4321
147.2716,93.3806
147.3625,93.3625
Z" /> 
<path style="fill:#000000; fill-opacity:1.0000; stroke:none;fill-rule:evenodd;"
d="M 147.8375,95.1875
147.9284,95.2056
148.0054,95.2571
148.0569,95.3341
148.0750,95.4250
148.0750,95.9250
148.0569,96.0159
148.0054,96.0929
147.9284,96.1444
147.8375,96.1625
147.3625,96.1625
147.2716,96.1444
147.1946,96.0929
147.1431,96.0159
147.1250,95.9250
147.1250,95.4250
147.1431,95.3341
147.1946,95.2571
147.2716,95.2056
147.3625,95.1875
Z" /> 
</g> 
</svg>
