%TF.GenerationSoftware,KiCad,Pcbnew,8.0.6*%
%TF.CreationDate,2025-03-18T02:13:05+05:00*%
%TF.ProjectId,Stm32_LORA_TEMP_PWM,53746d33-325f-44c4-9f52-415f54454d50,rev?*%
%TF.SameCoordinates,Original*%
%TF.FileFunction,Copper,L1,Top*%
%TF.FilePolarity,Positive*%
%FSLAX46Y46*%
G04 Gerber Fmt 4.6, Leading zero omitted, Abs format (unit mm)*
G04 Created by KiCad (PCBNEW 8.0.6) date 2025-03-18 02:13:05*
%MOMM*%
%LPD*%
G01*
G04 APERTURE LIST*
G04 Aperture macros list*
%AMRoundRect*
0 Rectangle with rounded corners*
0 $1 Rounding radius*
0 $2 $3 $4 $5 $6 $7 $8 $9 X,Y pos of 4 corners*
0 Add a 4 corners polygon primitive as box body*
4,1,4,$2,$3,$4,$5,$6,$7,$8,$9,$2,$3,0*
0 Add four circle primitives for the rounded corners*
1,1,$1+$1,$2,$3*
1,1,$1+$1,$4,$5*
1,1,$1+$1,$6,$7*
1,1,$1+$1,$8,$9*
0 Add four rect primitives between the rounded corners*
20,1,$1+$1,$2,$3,$4,$5,0*
20,1,$1+$1,$4,$5,$6,$7,0*
20,1,$1+$1,$6,$7,$8,$9,0*
20,1,$1+$1,$8,$9,$2,$3,0*%
%AMFreePoly0*
4,1,9,3.862500,-0.866500,0.737500,-0.866500,0.737500,-0.450000,-0.737500,-0.450000,-0.737500,0.450000,0.737500,0.450000,0.737500,0.866500,3.862500,0.866500,3.862500,-0.866500,3.862500,-0.866500,$1*%
G04 Aperture macros list end*
%TA.AperFunction,SMDPad,CuDef*%
%ADD10RoundRect,0.250000X0.475000X0.700000X-0.475000X0.700000X-0.475000X-0.700000X0.475000X-0.700000X0*%
%TD*%
%TA.AperFunction,SMDPad,CuDef*%
%ADD11R,2.100000X0.600000*%
%TD*%
%TA.AperFunction,SMDPad,CuDef*%
%ADD12R,1.000000X1.000000*%
%TD*%
%TA.AperFunction,SMDPad,CuDef*%
%ADD13RoundRect,0.237500X-0.300000X-0.237500X0.300000X-0.237500X0.300000X0.237500X-0.300000X0.237500X0*%
%TD*%
%TA.AperFunction,SMDPad,CuDef*%
%ADD14R,1.380000X0.450000*%
%TD*%
%TA.AperFunction,SMDPad,CuDef*%
%ADD15R,1.300000X1.650000*%
%TD*%
%TA.AperFunction,SMDPad,CuDef*%
%ADD16R,1.550000X1.425000*%
%TD*%
%TA.AperFunction,SMDPad,CuDef*%
%ADD17R,1.900000X1.800000*%
%TD*%
%TA.AperFunction,SMDPad,CuDef*%
%ADD18R,1.900000X1.000000*%
%TD*%
%TA.AperFunction,SMDPad,CuDef*%
%ADD19RoundRect,0.317500X-1.157500X-0.317500X1.157500X-0.317500X1.157500X0.317500X-1.157500X0.317500X0*%
%TD*%
%TA.AperFunction,SMDPad,CuDef*%
%ADD20C,1.000000*%
%TD*%
%TA.AperFunction,SMDPad,CuDef*%
%ADD21RoundRect,0.237500X-0.237500X0.250000X-0.237500X-0.250000X0.237500X-0.250000X0.237500X0.250000X0*%
%TD*%
%TA.AperFunction,SMDPad,CuDef*%
%ADD22RoundRect,0.237500X-0.237500X0.300000X-0.237500X-0.300000X0.237500X-0.300000X0.237500X0.300000X0*%
%TD*%
%TA.AperFunction,SMDPad,CuDef*%
%ADD23C,2.000000*%
%TD*%
%TA.AperFunction,SMDPad,CuDef*%
%ADD24RoundRect,0.237500X-0.250000X-0.237500X0.250000X-0.237500X0.250000X0.237500X-0.250000X0.237500X0*%
%TD*%
%TA.AperFunction,SMDPad,CuDef*%
%ADD25RoundRect,0.237500X0.300000X0.237500X-0.300000X0.237500X-0.300000X-0.237500X0.300000X-0.237500X0*%
%TD*%
%TA.AperFunction,SMDPad,CuDef*%
%ADD26R,1.400000X1.200000*%
%TD*%
%TA.AperFunction,SMDPad,CuDef*%
%ADD27RoundRect,0.237500X-0.237500X0.287500X-0.237500X-0.287500X0.237500X-0.287500X0.237500X0.287500X0*%
%TD*%
%TA.AperFunction,SMDPad,CuDef*%
%ADD28RoundRect,0.150000X-0.512500X-0.150000X0.512500X-0.150000X0.512500X0.150000X-0.512500X0.150000X0*%
%TD*%
%TA.AperFunction,SMDPad,CuDef*%
%ADD29RoundRect,0.237500X0.237500X-0.287500X0.237500X0.287500X-0.237500X0.287500X-0.237500X-0.287500X0*%
%TD*%
%TA.AperFunction,SMDPad,CuDef*%
%ADD30RoundRect,0.237500X0.237500X-0.300000X0.237500X0.300000X-0.237500X0.300000X-0.237500X-0.300000X0*%
%TD*%
%TA.AperFunction,SMDPad,CuDef*%
%ADD31RoundRect,0.237500X0.250000X0.237500X-0.250000X0.237500X-0.250000X-0.237500X0.250000X-0.237500X0*%
%TD*%
%TA.AperFunction,SMDPad,CuDef*%
%ADD32RoundRect,0.237500X0.237500X-0.250000X0.237500X0.250000X-0.237500X0.250000X-0.237500X-0.250000X0*%
%TD*%
%TA.AperFunction,SMDPad,CuDef*%
%ADD33RoundRect,0.150000X-0.587500X-0.150000X0.587500X-0.150000X0.587500X0.150000X-0.587500X0.150000X0*%
%TD*%
%TA.AperFunction,SMDPad,CuDef*%
%ADD34R,0.900000X1.700000*%
%TD*%
%TA.AperFunction,SMDPad,CuDef*%
%ADD35RoundRect,0.250000X0.700000X-0.475000X0.700000X0.475000X-0.700000X0.475000X-0.700000X-0.475000X0*%
%TD*%
%TA.AperFunction,SMDPad,CuDef*%
%ADD36RoundRect,0.225000X-0.225000X0.425000X-0.225000X-0.425000X0.225000X-0.425000X0.225000X0.425000X0*%
%TD*%
%TA.AperFunction,SMDPad,CuDef*%
%ADD37FreePoly0,270.000000*%
%TD*%
%TA.AperFunction,SMDPad,CuDef*%
%ADD38RoundRect,0.075000X-0.662500X-0.075000X0.662500X-0.075000X0.662500X0.075000X-0.662500X0.075000X0*%
%TD*%
%TA.AperFunction,SMDPad,CuDef*%
%ADD39RoundRect,0.075000X-0.075000X-0.662500X0.075000X-0.662500X0.075000X0.662500X-0.075000X0.662500X0*%
%TD*%
%TA.AperFunction,SMDPad,CuDef*%
%ADD40RoundRect,0.250000X-0.475000X-0.700000X0.475000X-0.700000X0.475000X0.700000X-0.475000X0.700000X0*%
%TD*%
%TA.AperFunction,Conductor*%
%ADD41C,0.250000*%
%TD*%
%TA.AperFunction,Conductor*%
%ADD42C,0.300000*%
%TD*%
%TA.AperFunction,Conductor*%
%ADD43C,0.400000*%
%TD*%
%TA.AperFunction,Conductor*%
%ADD44C,0.700000*%
%TD*%
%TA.AperFunction,Conductor*%
%ADD45C,0.500000*%
%TD*%
%TA.AperFunction,Conductor*%
%ADD46C,1.000000*%
%TD*%
%TA.AperFunction,Conductor*%
%ADD47C,0.450000*%
%TD*%
G04 APERTURE END LIST*
D10*
%TO.P,FB1,1*%
%TO.N,+3.3VA*%
X129800000Y-108800000D03*
%TO.P,FB1,2*%
%TO.N,+3.3V*%
X125400000Y-108800000D03*
%TD*%
D11*
%TO.P,Y1,1,1*%
%TO.N,Net-(U1-PC14)*%
X133400000Y-99650000D03*
%TO.P,Y1,2,2*%
%TO.N,GND*%
X126200000Y-99650000D03*
%TO.P,Y1,3,3*%
X126200000Y-100550000D03*
%TO.P,Y1,4,4*%
%TO.N,Net-(U1-PC15)*%
X133400000Y-100550000D03*
%TD*%
D12*
%TO.P,TP15,1,1*%
%TO.N,Net-(R21-Pad1)*%
X132000000Y-117500000D03*
%TD*%
D13*
%TO.P,C2,1*%
%TO.N,GND*%
X126225000Y-98300000D03*
%TO.P,C2,2*%
%TO.N,Net-(U1-PC14)*%
X127950000Y-98300000D03*
%TD*%
D14*
%TO.P,J1,1,VBUS*%
%TO.N,Net-(J1-VBUS)*%
X171040000Y-91425000D03*
%TO.P,J1,2,D-*%
%TO.N,Net-(J1-D-)*%
X171040000Y-90775000D03*
%TO.P,J1,3,D+*%
%TO.N,Net-(J1-D+)*%
X171040000Y-90125000D03*
%TO.P,J1,4,ID*%
%TO.N,unconnected-(J1-ID-Pad4)*%
X171040000Y-89475000D03*
%TO.P,J1,5,GND*%
%TO.N,GND*%
X171040000Y-88825000D03*
D15*
%TO.P,J1,6,Shield*%
X173700000Y-93500000D03*
D16*
X171125000Y-92612500D03*
D17*
X173700000Y-91275000D03*
D18*
X173700000Y-88575000D03*
D16*
X171125000Y-87637500D03*
D15*
X173700000Y-86750000D03*
%TD*%
D19*
%TO.P,U2,1,GND*%
%TO.N,GND*%
X157400000Y-96100000D03*
%TO.P,U2,2,MISO*%
%TO.N,MISO*%
X157400000Y-98100000D03*
%TO.P,U2,3,MOSI*%
%TO.N,MOSI*%
X157400000Y-100100000D03*
%TO.P,U2,4,SCK*%
%TO.N,SCK*%
X157400000Y-102100000D03*
%TO.P,U2,5,NSS*%
%TO.N,RFCS*%
X157400000Y-104100000D03*
%TO.P,U2,6,RESET*%
%TO.N,RST*%
X157400000Y-106100000D03*
%TO.P,U2,7,DIO5*%
%TO.N,unconnected-(U2-DIO5-Pad7)*%
X157400000Y-108100000D03*
%TO.P,U2,8,GND*%
%TO.N,GND*%
X157400000Y-110100000D03*
%TO.P,U2,9,ANT*%
%TO.N,Net-(U2-ANT)*%
X172450000Y-110100000D03*
%TO.P,U2,10,GND*%
%TO.N,GND*%
X172450000Y-108100000D03*
%TO.P,U2,11,DIO3*%
%TO.N,unconnected-(U2-DIO3-Pad11)*%
X172450000Y-106100000D03*
%TO.P,U2,12,DIO4*%
%TO.N,unconnected-(U2-DIO4-Pad12)*%
X172450000Y-104100000D03*
%TO.P,U2,13,3.3V*%
%TO.N,+3.3V*%
X172450000Y-102100000D03*
%TO.P,U2,14,DIO0*%
%TO.N,DIO*%
X172450000Y-100100000D03*
%TO.P,U2,15,DIO1*%
%TO.N,unconnected-(U2-DIO1-Pad15)*%
X172450000Y-98100000D03*
%TO.P,U2,16,DIO2*%
%TO.N,unconnected-(U2-DIO2-Pad16)*%
X172450000Y-96100000D03*
%TD*%
D20*
%TO.P,TP11,1,1*%
%TO.N,GND*%
X167150000Y-120050000D03*
%TD*%
%TO.P,A10,1,1*%
%TO.N,Net-(U1-PA10)*%
X153350000Y-98950000D03*
%TD*%
D21*
%TO.P,R3,1*%
%TO.N,PWM3*%
X154800000Y-117650000D03*
%TO.P,R3,2*%
%TO.N,GND*%
X154800000Y-119475000D03*
%TD*%
D13*
%TO.P,C12,1*%
%TO.N,ADC1*%
X130775000Y-112550000D03*
%TO.P,C12,2*%
%TO.N,GND*%
X132500000Y-112550000D03*
%TD*%
D20*
%TO.P,B3,1,1*%
%TO.N,Net-(U1-PB3)*%
X147066000Y-88138000D03*
%TD*%
D22*
%TO.P,C7,1*%
%TO.N,Net-(U4-IN)*%
X167600000Y-116025000D03*
%TO.P,C7,2*%
%TO.N,GND*%
X167600000Y-117750000D03*
%TD*%
D23*
%TO.P,TP4,1,1*%
%TO.N,Net-(U2-ANT)*%
X175000000Y-110100000D03*
%TD*%
D12*
%TO.P,TP3,1,1*%
%TO.N,VCC*%
X164800000Y-120100000D03*
%TD*%
D24*
%TO.P,R8,1*%
%TO.N,Net-(R8-Pad1)*%
X126300000Y-115800000D03*
%TO.P,R8,2*%
%TO.N,Net-(R10-Pad2)*%
X128125000Y-115800000D03*
%TD*%
D25*
%TO.P,C1,1*%
%TO.N,Net-(U1-PC15)*%
X127925000Y-101900000D03*
%TO.P,C1,2*%
%TO.N,GND*%
X126200000Y-101900000D03*
%TD*%
D26*
%TO.P,Y2,1,1*%
%TO.N,Net-(U1-PH1)*%
X131400000Y-103700000D03*
%TO.P,Y2,2,2*%
%TO.N,GND*%
X133600000Y-103700000D03*
%TO.P,Y2,3,3*%
%TO.N,Net-(U1-PH0)*%
X133600000Y-102000000D03*
%TO.P,Y2,4,4*%
%TO.N,GND*%
X131400000Y-102000000D03*
%TD*%
D27*
%TO.P,D9,1,K*%
%TO.N,Net-(D8-A)*%
X147090000Y-117650000D03*
%TO.P,D9,2,A*%
%TO.N,LP*%
X147090000Y-119400000D03*
%TD*%
D20*
%TO.P,ADC_VCC0,1,1*%
%TO.N,+3.3VA*%
X123500000Y-112500000D03*
%TD*%
D27*
%TO.P,D15,1,K*%
%TO.N,Net-(D14-A)*%
X139750000Y-117650000D03*
%TO.P,D15,2,A*%
%TO.N,LP*%
X139750000Y-119400000D03*
%TD*%
D28*
%TO.P,U5,1,GND*%
%TO.N,GND*%
X152750000Y-89350000D03*
%TO.P,U5,2,VO*%
%TO.N,+3.3V*%
X152750000Y-91250000D03*
%TO.P,U5,3,VI*%
%TO.N,+5V*%
X155025000Y-90300000D03*
%TD*%
D21*
%TO.P,R9,1*%
%TO.N,Net-(D7-A)*%
X175000000Y-99025000D03*
%TO.P,R9,2*%
%TO.N,DIO*%
X175000000Y-100850000D03*
%TD*%
D29*
%TO.P,D14,1,K*%
%TO.N,LP*%
X138250000Y-119400000D03*
%TO.P,D14,2,A*%
%TO.N,Net-(D14-A)*%
X138250000Y-117650000D03*
%TD*%
D12*
%TO.P,TP8,1,1*%
%TO.N,VCC*%
X163300000Y-114800000D03*
%TD*%
D21*
%TO.P,R17,1*%
%TO.N,L3*%
X142750000Y-113875000D03*
%TO.P,R17,2*%
%TO.N,Net-(D10-A)*%
X142750000Y-115700000D03*
%TD*%
D30*
%TO.P,C9,1*%
%TO.N,+3.3VA*%
X134700000Y-108375000D03*
%TO.P,C9,2*%
%TO.N,GND*%
X134700000Y-106650000D03*
%TD*%
D22*
%TO.P,C3,1*%
%TO.N,Net-(U1-PH0)*%
X135350000Y-102100000D03*
%TO.P,C3,2*%
%TO.N,GND*%
X135350000Y-103825000D03*
%TD*%
D21*
%TO.P,R18,1*%
%TO.N,L2*%
X139000000Y-113875000D03*
%TO.P,R18,2*%
%TO.N,Net-(D14-A)*%
X139000000Y-115700000D03*
%TD*%
D22*
%TO.P,C4,1*%
%TO.N,GND*%
X129500000Y-102000000D03*
%TO.P,C4,2*%
%TO.N,Net-(U1-PH1)*%
X129500000Y-103725000D03*
%TD*%
D20*
%TO.P,TP2,1,1*%
%TO.N,Net-(U1-PC13)*%
X136700000Y-98650000D03*
%TD*%
D12*
%TO.P,TP6,1,1*%
%TO.N,GND*%
X125900000Y-120200000D03*
%TD*%
D20*
%TO.P,A3,1,1*%
%TO.N,Net-(U1-PA3)*%
X140500000Y-111050000D03*
%TD*%
D22*
%TO.P,C8,1*%
%TO.N,+3.3V*%
X174050000Y-115750000D03*
%TO.P,C8,2*%
%TO.N,GND*%
X174050000Y-117475000D03*
%TD*%
D20*
%TO.P,A15,1,1*%
%TO.N,Net-(U1-PA15)*%
X148844000Y-88138000D03*
%TD*%
D25*
%TO.P,C11,1*%
%TO.N,ADC0*%
X127150000Y-112600000D03*
%TO.P,C11,2*%
%TO.N,GND*%
X125425000Y-112600000D03*
%TD*%
D31*
%TO.P,R6,1*%
%TO.N,Net-(R10-Pad2)*%
X127200000Y-114400000D03*
%TO.P,R6,2*%
%TO.N,GND*%
X125375000Y-114400000D03*
%TD*%
D20*
%TO.P,TP1,1,1*%
%TO.N,GND*%
X149600000Y-97700000D03*
%TD*%
D24*
%TO.P,R2,1*%
%TO.N,+3.3V*%
X126075000Y-106750000D03*
%TO.P,R2,2*%
%TO.N,Net-(U1-NRST)*%
X127900000Y-106750000D03*
%TD*%
D27*
%TO.P,D17,1,K*%
%TO.N,Net-(D16-A)*%
X135950000Y-117650000D03*
%TO.P,D17,2,A*%
%TO.N,LP*%
X135950000Y-119400000D03*
%TD*%
D21*
%TO.P,R19,1*%
%TO.N,L1*%
X135200000Y-113950000D03*
%TO.P,R19,2*%
%TO.N,Net-(D16-A)*%
X135200000Y-115775000D03*
%TD*%
D24*
%TO.P,R7,1*%
%TO.N,Net-(R12-Pad2)*%
X130700000Y-114400000D03*
%TO.P,R7,2*%
%TO.N,GND*%
X132525000Y-114400000D03*
%TD*%
D29*
%TO.P,D8,1,K*%
%TO.N,LP*%
X145600000Y-119400000D03*
%TO.P,D8,2,A*%
%TO.N,Net-(D8-A)*%
X145600000Y-117650000D03*
%TD*%
D32*
%TO.P,R11,1*%
%TO.N,Net-(R10-Pad2)*%
X128150000Y-114400000D03*
%TO.P,R11,2*%
%TO.N,ADC0*%
X128150000Y-112575000D03*
%TD*%
D12*
%TO.P,TP13,1,1*%
%TO.N,Net-(Q3-D)*%
X160600000Y-114817000D03*
%TD*%
D27*
%TO.P,D13,1,K*%
%TO.N,Net-(D12-A)*%
X150800000Y-117650000D03*
%TO.P,D13,2,A*%
%TO.N,LP*%
X150800000Y-119400000D03*
%TD*%
D20*
%TO.P,A13,1,1*%
%TO.N,Net-(U1-PA13)*%
X151150000Y-97700000D03*
%TD*%
%TO.P,B7,1,1*%
%TO.N,Net-(U1-PB7)*%
X139954000Y-88138000D03*
%TD*%
D25*
%TO.P,C5,1*%
%TO.N,+5V*%
X154950000Y-87850000D03*
%TO.P,C5,2*%
%TO.N,GND*%
X153225000Y-87850000D03*
%TD*%
D32*
%TO.P,R14,1*%
%TO.N,+3.3V*%
X136550000Y-95950000D03*
%TO.P,R14,2*%
%TO.N,Net-(U1-PB9)*%
X136550000Y-94125000D03*
%TD*%
D21*
%TO.P,R5,1*%
%TO.N,PWM4*%
X154850000Y-113792000D03*
%TO.P,R5,2*%
%TO.N,GND*%
X154850000Y-115617000D03*
%TD*%
D30*
%TO.P,C6,1*%
%TO.N,+3.3V*%
X151100000Y-91250000D03*
%TO.P,C6,2*%
%TO.N,GND*%
X151100000Y-89525000D03*
%TD*%
D20*
%TO.P,B6,1,1*%
%TO.N,Net-(U1-PB6)*%
X141732000Y-88138000D03*
%TD*%
%TO.P,TP9,1,1*%
%TO.N,+3.3V*%
X126850000Y-96150000D03*
%TD*%
D12*
%TO.P,TP5,1,1*%
%TO.N,Net-(R8-Pad1)*%
X125900000Y-117400000D03*
%TD*%
D20*
%TO.P,B8,1,1*%
%TO.N,Net-(U1-PB8)*%
X126850000Y-91200000D03*
%TD*%
D21*
%TO.P,R15,1*%
%TO.N,+3.3V*%
X136550000Y-89975000D03*
%TO.P,R15,2*%
%TO.N,Net-(U1-PB8)*%
X136550000Y-91800000D03*
%TD*%
D27*
%TO.P,D1,1,K*%
%TO.N,+3.3V*%
X138550000Y-97200000D03*
%TO.P,D1,2,A*%
%TO.N,Net-(D1-A)*%
X138550000Y-98950000D03*
%TD*%
D32*
%TO.P,R13,1*%
%TO.N,Net-(R12-Pad2)*%
X129650000Y-114400000D03*
%TO.P,R13,2*%
%TO.N,ADC1*%
X129650000Y-112575000D03*
%TD*%
D27*
%TO.P,D11,1,K*%
%TO.N,Net-(D10-A)*%
X141950000Y-117650000D03*
%TO.P,D11,2,A*%
%TO.N,LP*%
X141950000Y-119400000D03*
%TD*%
D20*
%TO.P,B4,1,1*%
%TO.N,Net-(U1-PB4)*%
X145288000Y-88138000D03*
%TD*%
D21*
%TO.P,R16,1*%
%TO.N,L4*%
X146350000Y-113925000D03*
%TO.P,R16,2*%
%TO.N,Net-(D8-A)*%
X146350000Y-115750000D03*
%TD*%
D29*
%TO.P,D10,1,K*%
%TO.N,LP*%
X143450000Y-119400000D03*
%TO.P,D10,2,A*%
%TO.N,Net-(D10-A)*%
X143450000Y-117650000D03*
%TD*%
D33*
%TO.P,Q2,1,G*%
%TO.N,PWM3*%
X156600000Y-117600000D03*
%TO.P,Q2,2,S*%
%TO.N,GND*%
X156600000Y-119500000D03*
%TO.P,Q2,3,D*%
%TO.N,Net-(Q2-D)*%
X158475000Y-118550000D03*
%TD*%
D12*
%TO.P,TP12,1,1*%
%TO.N,Net-(Q2-D)*%
X160550000Y-118450000D03*
%TD*%
D21*
%TO.P,R20,1*%
%TO.N,L5*%
X150100000Y-113975000D03*
%TO.P,R20,2*%
%TO.N,Net-(D12-A)*%
X150100000Y-115800000D03*
%TD*%
D34*
%TO.P,SW1,1,1*%
%TO.N,Net-(U1-NRST)*%
X128000000Y-104350000D03*
%TO.P,SW1,2,2*%
%TO.N,GND*%
X124600000Y-104350000D03*
%TD*%
D29*
%TO.P,D16,1,K*%
%TO.N,LP*%
X134450000Y-119400000D03*
%TO.P,D16,2,A*%
%TO.N,Net-(D16-A)*%
X134450000Y-117650000D03*
%TD*%
D35*
%TO.P,FB2,1*%
%TO.N,Net-(J1-VBUS)*%
X164050000Y-92550000D03*
%TO.P,FB2,2*%
%TO.N,+5V*%
X164050000Y-88150000D03*
%TD*%
D32*
%TO.P,R12,1*%
%TO.N,+3.3VA*%
X129650000Y-118975000D03*
%TO.P,R12,2*%
%TO.N,Net-(R12-Pad2)*%
X129650000Y-117150000D03*
%TD*%
D36*
%TO.P,U4,1,OUT*%
%TO.N,+3.3V*%
X172350000Y-115850000D03*
D37*
%TO.P,U4,2,GND*%
%TO.N,GND*%
X170850000Y-115937500D03*
D36*
%TO.P,U4,3,IN*%
%TO.N,Net-(U4-IN)*%
X169350000Y-115850000D03*
%TD*%
D20*
%TO.P,B2,1,1*%
%TO.N,Net-(U1-PB2)*%
X145600000Y-111700000D03*
%TD*%
D32*
%TO.P,R10,1*%
%TO.N,+3.3VA*%
X128150000Y-118975000D03*
%TO.P,R10,2*%
%TO.N,Net-(R10-Pad2)*%
X128150000Y-117150000D03*
%TD*%
D38*
%TO.P,U1,1,VLCD*%
%TO.N,unconnected-(U1-VLCD-Pad1)*%
X140350000Y-102200000D03*
%TO.P,U1,2,PC13*%
%TO.N,Net-(U1-PC13)*%
X140350000Y-102700000D03*
%TO.P,U1,3,PC14*%
%TO.N,Net-(U1-PC14)*%
X140350000Y-103200000D03*
%TO.P,U1,4,PC15*%
%TO.N,Net-(U1-PC15)*%
X140350000Y-103700000D03*
%TO.P,U1,5,PH0*%
%TO.N,Net-(U1-PH0)*%
X140350000Y-104200000D03*
%TO.P,U1,6,PH1*%
%TO.N,Net-(U1-PH1)*%
X140350000Y-104700000D03*
%TO.P,U1,7,NRST*%
%TO.N,Net-(U1-NRST)*%
X140350000Y-105200000D03*
%TO.P,U1,8,VSSA*%
%TO.N,GND*%
X140350000Y-105700000D03*
%TO.P,U1,9,VDDA*%
%TO.N,+3.3VA*%
X140350000Y-106200000D03*
%TO.P,U1,10,PA0*%
%TO.N,ADC0*%
X140350000Y-106700000D03*
%TO.P,U1,11,PA1*%
%TO.N,ADC1*%
X140350000Y-107200000D03*
%TO.P,U1,12,PA2*%
%TO.N,Net-(U1-PA2)*%
X140350000Y-107700000D03*
D39*
%TO.P,U1,13,PA3*%
%TO.N,Net-(U1-PA3)*%
X141762500Y-109112500D03*
%TO.P,U1,14,PA4*%
%TO.N,L1*%
X142262500Y-109112500D03*
%TO.P,U1,15,PA5*%
%TO.N,L2*%
X142762500Y-109112500D03*
%TO.P,U1,16,PA6*%
%TO.N,L3*%
X143262500Y-109112500D03*
%TO.P,U1,17,PA7*%
%TO.N,L4*%
X143762500Y-109112500D03*
%TO.P,U1,18,PB0*%
%TO.N,L5*%
X144262500Y-109112500D03*
%TO.P,U1,19,PB1*%
%TO.N,LP*%
X144762500Y-109112500D03*
%TO.P,U1,20,PB2*%
%TO.N,Net-(U1-PB2)*%
X145262500Y-109112500D03*
%TO.P,U1,21,PB10*%
%TO.N,PWM3*%
X145762500Y-109112500D03*
%TO.P,U1,22,PB11*%
%TO.N,PWM4*%
X146262500Y-109112500D03*
%TO.P,U1,23,VSS*%
%TO.N,GND*%
X146762500Y-109112500D03*
%TO.P,U1,24,VDD*%
%TO.N,+3.3V*%
X147262500Y-109112500D03*
D38*
%TO.P,U1,25,PB12*%
%TO.N,RST*%
X148675000Y-107700000D03*
%TO.P,U1,26,PB13*%
%TO.N,SCK*%
X148675000Y-107200000D03*
%TO.P,U1,27,PB14*%
%TO.N,MISO*%
X148675000Y-106700000D03*
%TO.P,U1,28,PB15*%
%TO.N,MOSI*%
X148675000Y-106200000D03*
%TO.P,U1,29,PA8*%
%TO.N,RFCS*%
X148675000Y-105700000D03*
%TO.P,U1,30,PA9*%
%TO.N,DIO*%
X148675000Y-105200000D03*
%TO.P,U1,31,PA10*%
%TO.N,Net-(U1-PA10)*%
X148675000Y-104700000D03*
%TO.P,U1,32,PA11*%
%TO.N,Net-(J1-D-)*%
X148675000Y-104200000D03*
%TO.P,U1,33,PA12*%
%TO.N,Net-(J1-D+)*%
X148675000Y-103700000D03*
%TO.P,U1,34,PA13*%
%TO.N,Net-(U1-PA13)*%
X148675000Y-103200000D03*
%TO.P,U1,35,VSS*%
%TO.N,GND*%
X148675000Y-102700000D03*
%TO.P,U1,36,VDD*%
%TO.N,+3.3V*%
X148675000Y-102200000D03*
D39*
%TO.P,U1,37,PA14*%
%TO.N,Net-(U1-PA14)*%
X147262500Y-100787500D03*
%TO.P,U1,38,PA15*%
%TO.N,Net-(U1-PA15)*%
X146762500Y-100787500D03*
%TO.P,U1,39,PB3*%
%TO.N,Net-(U1-PB3)*%
X146262500Y-100787500D03*
%TO.P,U1,40,PB4*%
%TO.N,Net-(U1-PB4)*%
X145762500Y-100787500D03*
%TO.P,U1,41,PB5*%
%TO.N,Net-(U1-PB5)*%
X145262500Y-100787500D03*
%TO.P,U1,42,PB6*%
%TO.N,Net-(U1-PB6)*%
X144762500Y-100787500D03*
%TO.P,U1,43,PB7*%
%TO.N,Net-(U1-PB7)*%
X144262500Y-100787500D03*
%TO.P,U1,44,BOOT0*%
%TO.N,Net-(U1-BOOT0)*%
X143762500Y-100787500D03*
%TO.P,U1,45,PB8*%
%TO.N,Net-(U1-PB8)*%
X143262500Y-100787500D03*
%TO.P,U1,46,PB9*%
%TO.N,Net-(U1-PB9)*%
X142762500Y-100787500D03*
%TO.P,U1,47,VSS*%
%TO.N,GND*%
X142262500Y-100787500D03*
%TO.P,U1,48,VDD*%
%TO.N,+3.3V*%
X141762500Y-100787500D03*
%TD*%
D29*
%TO.P,D12,1,K*%
%TO.N,LP*%
X149300000Y-119400000D03*
%TO.P,D12,2,A*%
%TO.N,Net-(D12-A)*%
X149300000Y-117650000D03*
%TD*%
D12*
%TO.P,TP7,1,1*%
%TO.N,VCC*%
X163200000Y-118500000D03*
%TD*%
D20*
%TO.P,B5,1,1*%
%TO.N,Net-(U1-PB5)*%
X143510000Y-88138000D03*
%TD*%
%TO.P,A14,1,1*%
%TO.N,Net-(U1-PA14)*%
X147750000Y-97650000D03*
%TD*%
D40*
%TO.P,FB3,1*%
%TO.N,VCC*%
X166650000Y-113700000D03*
%TO.P,FB3,2*%
%TO.N,Net-(U4-IN)*%
X171050000Y-113700000D03*
%TD*%
D20*
%TO.P,TP10,1,1*%
%TO.N,GND*%
X126850000Y-88300000D03*
%TD*%
%TO.P,A2,1,1*%
%TO.N,Net-(U1-PA2)*%
X138150000Y-109150000D03*
%TD*%
D21*
%TO.P,R1,1*%
%TO.N,GND*%
X141224000Y-92456000D03*
%TO.P,R1,2*%
%TO.N,Net-(U1-BOOT0)*%
X141224000Y-94281000D03*
%TD*%
D22*
%TO.P,C10,1*%
%TO.N,+3.3V*%
X175000000Y-102975000D03*
%TO.P,C10,2*%
%TO.N,GND*%
X175000000Y-104700000D03*
%TD*%
D27*
%TO.P,D7,1,K*%
%TO.N,GND*%
X175000000Y-96350000D03*
%TO.P,D7,2,A*%
%TO.N,Net-(D7-A)*%
X175000000Y-98100000D03*
%TD*%
D20*
%TO.P,B9,1,1*%
%TO.N,Net-(U1-PB9)*%
X126850000Y-93300000D03*
%TD*%
D32*
%TO.P,R4,1*%
%TO.N,Net-(U1-PC13)*%
X138600000Y-101700000D03*
%TO.P,R4,2*%
%TO.N,Net-(D1-A)*%
X138600000Y-99875000D03*
%TD*%
D33*
%TO.P,Q3,1,G*%
%TO.N,PWM4*%
X156612500Y-113767000D03*
%TO.P,Q3,2,S*%
%TO.N,GND*%
X156612500Y-115667000D03*
%TO.P,Q3,3,D*%
%TO.N,Net-(Q3-D)*%
X158487500Y-114717000D03*
%TD*%
D31*
%TO.P,R21,1*%
%TO.N,Net-(R21-Pad1)*%
X131425000Y-115750000D03*
%TO.P,R21,2*%
%TO.N,Net-(R12-Pad2)*%
X129600000Y-115750000D03*
%TD*%
D12*
%TO.P,TP16,1,1*%
%TO.N,GND*%
X132000000Y-120150000D03*
%TD*%
D41*
%TO.N,Net-(U1-PA2)*%
X140350000Y-107700000D02*
X139150000Y-107700000D01*
X139150000Y-107700000D02*
X137800000Y-109050000D01*
%TO.N,Net-(U1-PA3)*%
X141762500Y-109112500D02*
X141762500Y-109787500D01*
X141762500Y-109787500D02*
X140500000Y-111050000D01*
%TO.N,Net-(U1-PA10)*%
X150409188Y-104700000D02*
X153350000Y-101759188D01*
X148675000Y-104700000D02*
X150409188Y-104700000D01*
X153350000Y-101759188D02*
X153350000Y-98950000D01*
%TO.N,Net-(U1-PA13)*%
X148675000Y-103200000D02*
X150000000Y-103200000D01*
X151050000Y-102150000D02*
X151050000Y-97700000D01*
X150000000Y-103200000D02*
X151050000Y-102150000D01*
%TO.N,Net-(U1-PA14)*%
X147262500Y-100787500D02*
X147262500Y-98137500D01*
X147262500Y-98137500D02*
X147750000Y-97650000D01*
%TO.N,Net-(U1-PA15)*%
X146787500Y-90194500D02*
X148844000Y-88138000D01*
X146762500Y-100787500D02*
X146787500Y-100762500D01*
X146787500Y-100762500D02*
X146787500Y-90194500D01*
D42*
%TO.N,+3.3VA*%
X138150000Y-106200000D02*
X140350000Y-106200000D01*
D43*
X123500000Y-112500000D02*
X123500000Y-111600000D01*
D41*
X127750000Y-119050000D02*
X127775000Y-119025000D01*
D43*
X124100000Y-111000000D02*
X128407538Y-111000000D01*
D41*
X127775000Y-119025000D02*
X129650000Y-119025000D01*
D43*
X128407538Y-111000000D02*
X130257538Y-109150000D01*
D41*
X123500000Y-112500000D02*
X123500000Y-118250000D01*
X124300000Y-119050000D02*
X127750000Y-119050000D01*
D43*
X133250000Y-109150000D02*
X133900000Y-108500000D01*
X130257538Y-109150000D02*
X133250000Y-109150000D01*
X123500000Y-111600000D02*
X124100000Y-111000000D01*
X138100000Y-106200000D02*
X138150000Y-106200000D01*
X133900000Y-108500000D02*
X135800000Y-108500000D01*
X135800000Y-108500000D02*
X138100000Y-106200000D01*
D41*
X123500000Y-118250000D02*
X124300000Y-119050000D01*
%TO.N,Net-(U1-PB5)*%
X145262500Y-100787500D02*
X145262500Y-89890500D01*
X145262500Y-89890500D02*
X143510000Y-88138000D01*
%TO.N,Net-(U1-PB6)*%
X144762500Y-91168500D02*
X141732000Y-88138000D01*
X144762500Y-100787500D02*
X144762500Y-91168500D01*
%TO.N,Net-(U1-PB7)*%
X144262500Y-100787500D02*
X144262500Y-92446500D01*
X144262500Y-92446500D02*
X139954000Y-88138000D01*
D42*
%TO.N,Net-(U1-PB8)*%
X143262500Y-98533500D02*
X136550000Y-91821000D01*
X136350000Y-91600000D02*
X127150000Y-91600000D01*
X127150000Y-91600000D02*
X126750000Y-91200000D01*
X143262500Y-100787500D02*
X143262500Y-98533500D01*
X136550000Y-91800000D02*
X136350000Y-91600000D01*
X136550000Y-91821000D02*
X136550000Y-91800000D01*
%TO.N,Net-(U1-PB9)*%
X137925000Y-94125000D02*
X136550000Y-94125000D01*
X142762500Y-100787500D02*
X142762500Y-98962500D01*
X136550000Y-94125000D02*
X135725000Y-93300000D01*
X142762500Y-98962500D02*
X137925000Y-94125000D01*
X135725000Y-93300000D02*
X126850000Y-93300000D01*
%TO.N,Net-(U1-PC15)*%
X137275000Y-102639212D02*
X138335788Y-103700000D01*
X137275000Y-102332106D02*
X137275000Y-102639212D01*
X127925000Y-101900000D02*
X129275000Y-100550000D01*
X129275000Y-100550000D02*
X133400000Y-100550000D01*
X135492894Y-100550000D02*
X137275000Y-102332106D01*
X138335788Y-103700000D02*
X140350000Y-103700000D01*
X133400000Y-100550000D02*
X135492894Y-100550000D01*
%TO.N,GND*%
X133600000Y-103700000D02*
X135525000Y-103700000D01*
D41*
X126225000Y-99625000D02*
X126200000Y-99650000D01*
D42*
X126200000Y-99650000D02*
X126200000Y-101900000D01*
X126225000Y-98300000D02*
X126225000Y-99625000D01*
X131650000Y-102000000D02*
X133350000Y-103700000D01*
%TO.N,Net-(U1-PC14)*%
X137775000Y-102432106D02*
X138542894Y-103200000D01*
X133350000Y-99700000D02*
X133400000Y-99650000D01*
X135300000Y-99650000D02*
X137775000Y-102125000D01*
D41*
X133400000Y-99650000D02*
X134700000Y-99650000D01*
D42*
X137775000Y-102125000D02*
X137775000Y-102432106D01*
X127950000Y-98300000D02*
X129350000Y-99700000D01*
X129350000Y-99700000D02*
X133350000Y-99700000D01*
X134700000Y-99650000D02*
X135300000Y-99650000D01*
X138542894Y-103200000D02*
X140350000Y-103200000D01*
%TO.N,Net-(U1-PH0)*%
X133600000Y-102000000D02*
X135550000Y-102000000D01*
X135350000Y-102100000D02*
X137450000Y-104200000D01*
X137450000Y-104200000D02*
X140350000Y-104200000D01*
%TO.N,Net-(U1-PH1)*%
X129500000Y-103725000D02*
X131375000Y-103725000D01*
D41*
X130475000Y-104700000D02*
X140350000Y-104700000D01*
X129500000Y-103725000D02*
X130475000Y-104700000D01*
D44*
%TO.N,+3.3V*%
X174050000Y-115750000D02*
X174050000Y-113400000D01*
X138550000Y-97050000D02*
X136650000Y-97050000D01*
D43*
X150100000Y-91300000D02*
X150100000Y-87450000D01*
D41*
X124450000Y-107900000D02*
X126075000Y-107900000D01*
X136550000Y-95950000D02*
X136550000Y-96950000D01*
D44*
X142051538Y-102200000D02*
X141500000Y-101648462D01*
D43*
X147300000Y-108150000D02*
X147300000Y-107700000D01*
D44*
X148624000Y-109474000D02*
X147500000Y-108350000D01*
X154160000Y-111760000D02*
X151874000Y-109474000D01*
X172410000Y-111760000D02*
X167386000Y-111760000D01*
D41*
X172500000Y-102050000D02*
X172450000Y-102100000D01*
D44*
X141500000Y-101648462D02*
X141500000Y-100525000D01*
D43*
X148675000Y-101850000D02*
X148675000Y-94967462D01*
D45*
X172350000Y-115850000D02*
X172450000Y-115750000D01*
D44*
X124450000Y-107900000D02*
X123300000Y-106750000D01*
D43*
X150100000Y-93542462D02*
X150100000Y-91300000D01*
D44*
X172450000Y-102100000D02*
X172400000Y-102050000D01*
D43*
X150100000Y-87450000D02*
X149550000Y-86900000D01*
D44*
X147250000Y-102200000D02*
X142051538Y-102200000D01*
X167386000Y-102870000D02*
X167386000Y-111760000D01*
X167386000Y-111760000D02*
X154160000Y-111760000D01*
X151874000Y-109474000D02*
X148624000Y-109474000D01*
X174050000Y-113400000D02*
X172410000Y-111760000D01*
X123300000Y-106750000D02*
X123300000Y-96800000D01*
D41*
X148675000Y-102200000D02*
X148675000Y-101850000D01*
X173540000Y-102050000D02*
X172500000Y-102050000D01*
D44*
X124450000Y-107900000D02*
X125150000Y-108600000D01*
X140550000Y-99050000D02*
X138550000Y-97050000D01*
D43*
X147832000Y-101850000D02*
X147469500Y-102212500D01*
D45*
X174725000Y-102975000D02*
X173800000Y-102050000D01*
D43*
X149550000Y-86900000D02*
X138950000Y-86900000D01*
D44*
X147262500Y-102212500D02*
X147250000Y-102200000D01*
D43*
X150100000Y-91300000D02*
X152700000Y-91300000D01*
D44*
X140550000Y-99575000D02*
X140550000Y-99050000D01*
D45*
X172450000Y-115750000D02*
X174050000Y-115750000D01*
D41*
X147500000Y-108350000D02*
X147300000Y-108150000D01*
D44*
X123300000Y-96800000D02*
X136400000Y-96800000D01*
D41*
X126075000Y-107900000D02*
X126075000Y-106750000D01*
D44*
X172400000Y-102050000D02*
X168206000Y-102050000D01*
X147262500Y-102212500D02*
X147262500Y-107412500D01*
D41*
X136550000Y-96950000D02*
X136650000Y-97050000D01*
D44*
X147262500Y-107412500D02*
X147350000Y-107500000D01*
X125200000Y-108600000D02*
X125400000Y-108800000D01*
D45*
X173800000Y-102050000D02*
X172500000Y-102050000D01*
D44*
X168206000Y-102050000D02*
X167386000Y-102870000D01*
D43*
X138950000Y-86900000D02*
X136550000Y-89300000D01*
X147469500Y-102212500D02*
X147262500Y-102212500D01*
D45*
X175000000Y-102975000D02*
X174725000Y-102975000D01*
D44*
X125150000Y-108600000D02*
X125200000Y-108600000D01*
D43*
X136550000Y-89300000D02*
X136550000Y-89975000D01*
D44*
X141500000Y-100525000D02*
X140550000Y-99575000D01*
D43*
X152700000Y-91300000D02*
X152750000Y-91250000D01*
D45*
X148675000Y-101850000D02*
X147832000Y-101850000D01*
D44*
X136400000Y-96800000D02*
X136650000Y-97050000D01*
D43*
X148675000Y-94967462D02*
X150100000Y-93542462D01*
D45*
%TO.N,Net-(U4-IN)*%
X167600000Y-116025000D02*
X169425000Y-116025000D01*
X171050000Y-113700000D02*
X170400000Y-113700000D01*
X169350000Y-114750000D02*
X169350000Y-115850000D01*
X170400000Y-113700000D02*
X169350000Y-114750000D01*
D41*
%TO.N,ADC0*%
X128150000Y-112575000D02*
X126875000Y-112575000D01*
X136400000Y-108646877D02*
X138346877Y-106700000D01*
X128150000Y-112575000D02*
X128275000Y-112575000D01*
X135500000Y-110650000D02*
X136400000Y-109750000D01*
X138346877Y-106700000D02*
X140350000Y-106700000D01*
X136400000Y-109750000D02*
X136400000Y-108646877D01*
X128275000Y-112575000D02*
X130200000Y-110650000D01*
X130200000Y-110650000D02*
X135500000Y-110650000D01*
%TO.N,ADC1*%
X130700000Y-111100000D02*
X135686396Y-111100000D01*
X136850000Y-108833273D02*
X138483273Y-107200000D01*
X129925000Y-112050000D02*
X129925000Y-111875000D01*
X130775000Y-112550000D02*
X129650000Y-112550000D01*
X136850000Y-109936396D02*
X136850000Y-108833273D01*
X135686396Y-111100000D02*
X136850000Y-109936396D01*
X129925000Y-111875000D02*
X130700000Y-111100000D01*
X138483273Y-107200000D02*
X140350000Y-107200000D01*
D45*
%TO.N,+5V*%
X164050000Y-88150000D02*
X164038000Y-88138000D01*
X155025000Y-88138000D02*
X155025000Y-90300000D01*
X164038000Y-88138000D02*
X155025000Y-88138000D01*
D46*
%TO.N,VCC*%
X164800000Y-114800000D02*
X163300000Y-114800000D01*
D41*
X164850000Y-113700000D02*
X164800000Y-113750000D01*
D46*
X164800000Y-114800000D02*
X164800000Y-116900000D01*
X164800000Y-118500000D02*
X163200000Y-118500000D01*
X164800000Y-116900000D02*
X164800000Y-120100000D01*
X166650000Y-113700000D02*
X164850000Y-113700000D01*
X164800000Y-113750000D02*
X164800000Y-114800000D01*
D41*
%TO.N,Net-(J1-D-)*%
X155566000Y-93784000D02*
X152500000Y-96850000D01*
X165572182Y-91300000D02*
X162350000Y-91300000D01*
X166097182Y-90775000D02*
X165572182Y-91300000D01*
X162350000Y-91300000D02*
X159866000Y-93784000D01*
X152500000Y-96850000D02*
X152500000Y-101972792D01*
X171040000Y-90775000D02*
X166097182Y-90775000D01*
X150272792Y-104200000D02*
X148675000Y-104200000D01*
X159866000Y-93784000D02*
X155566000Y-93784000D01*
X152500000Y-101972792D02*
X150272792Y-104200000D01*
%TO.N,Net-(J1-D+)*%
X155379604Y-93334000D02*
X152050000Y-96663604D01*
X148700000Y-103725000D02*
X148750000Y-103725000D01*
X165435786Y-90800000D02*
X162213604Y-90800000D01*
X159679604Y-93334000D02*
X155379604Y-93334000D01*
X171040000Y-90125000D02*
X166110786Y-90125000D01*
X166110786Y-90125000D02*
X165435786Y-90800000D01*
X148675000Y-103700000D02*
X148700000Y-103725000D01*
X150136396Y-103700000D02*
X148675000Y-103700000D01*
X162213604Y-90800000D02*
X159679604Y-93334000D01*
X152050000Y-101786396D02*
X150136396Y-103700000D01*
X152050000Y-96663604D02*
X152050000Y-101786396D01*
%TO.N,Net-(Q2-D)*%
X160450000Y-118550000D02*
X160550000Y-118450000D01*
D46*
X158475000Y-118550000D02*
X160450000Y-118550000D01*
D41*
%TO.N,PWM3*%
X145762500Y-109112500D02*
X145762500Y-110612500D01*
X153670000Y-116520000D02*
X154800000Y-117650000D01*
X154850000Y-117600000D02*
X154800000Y-117650000D01*
X153670000Y-113920000D02*
X153670000Y-116520000D01*
X145762500Y-110612500D02*
X146900000Y-111750000D01*
X146900000Y-111750000D02*
X151500000Y-111750000D01*
X151500000Y-111750000D02*
X153670000Y-113920000D01*
X156600000Y-117600000D02*
X154850000Y-117600000D01*
%TO.N,PWM4*%
X146262500Y-109112500D02*
X146262500Y-110412500D01*
X147150000Y-111300000D02*
X151686396Y-111300000D01*
X151686396Y-111300000D02*
X154120000Y-113733604D01*
X154850000Y-113792000D02*
X156587500Y-113792000D01*
X154120000Y-113733604D02*
X154120000Y-113792000D01*
X156587500Y-113792000D02*
X156612500Y-113767000D01*
X146262500Y-110412500D02*
X147150000Y-111300000D01*
X154120000Y-113792000D02*
X154850000Y-113792000D01*
%TO.N,Net-(Q3-D)*%
X160500000Y-114717000D02*
X160600000Y-114817000D01*
D46*
X158487500Y-114717000D02*
X160500000Y-114717000D01*
D41*
%TO.N,Net-(U1-BOOT0)*%
X143762500Y-100787500D02*
X143762500Y-96819500D01*
X143762500Y-96819500D02*
X141224000Y-94281000D01*
%TO.N,Net-(U1-NRST)*%
X140350000Y-105200000D02*
X128850000Y-105200000D01*
X127900000Y-106750000D02*
X127900000Y-104450000D01*
X127900000Y-104450000D02*
X128000000Y-104350000D01*
X128850000Y-105200000D02*
X128000000Y-104350000D01*
D42*
%TO.N,Net-(U1-PC13)*%
X138600000Y-101700000D02*
X138300000Y-101700000D01*
X138750000Y-102700000D02*
X138600000Y-102550000D01*
X138600000Y-102550000D02*
X138600000Y-101700000D01*
X136700000Y-100100000D02*
X136700000Y-98650000D01*
X138300000Y-101700000D02*
X136700000Y-100100000D01*
X140350000Y-102700000D02*
X138750000Y-102700000D01*
D41*
%TO.N,DIO*%
X155900000Y-94450000D02*
X163350000Y-94450000D01*
X163350000Y-94450000D02*
X169000000Y-100100000D01*
X169000000Y-100100000D02*
X173650000Y-100100000D01*
X154200000Y-101550000D02*
X154200000Y-96150000D01*
X154200000Y-96150000D02*
X155900000Y-94450000D01*
X174400000Y-100850000D02*
X175000000Y-100850000D01*
X150550000Y-105200000D02*
X154200000Y-101550000D01*
X173650000Y-100100000D02*
X174400000Y-100850000D01*
X148675000Y-105200000D02*
X150550000Y-105200000D01*
%TO.N,Net-(R10-Pad2)*%
X128150000Y-114400000D02*
X128150000Y-117150000D01*
X127100000Y-114400000D02*
X128150000Y-114400000D01*
%TO.N,Net-(R12-Pad2)*%
X129625000Y-114400000D02*
X130700000Y-114400000D01*
X129650000Y-114400000D02*
X129650000Y-117150000D01*
D45*
%TO.N,Net-(U2-ANT)*%
X172450000Y-110100000D02*
X175000000Y-110100000D01*
D41*
%TO.N,SCK*%
X151109188Y-107200000D02*
X148675000Y-107200000D01*
X156209188Y-102100000D02*
X151109188Y-107200000D01*
X157400000Y-102100000D02*
X156209188Y-102100000D01*
%TO.N,RFCS*%
X155700000Y-97100000D02*
X154650000Y-98150000D01*
X150700000Y-105700000D02*
X148675000Y-105700000D01*
X159000000Y-104100000D02*
X159950000Y-103150000D01*
X158950000Y-97100000D02*
X155700000Y-97100000D01*
X154650000Y-101750000D02*
X150700000Y-105700000D01*
X159950000Y-98100000D02*
X158950000Y-97100000D01*
X154650000Y-98150000D02*
X154650000Y-101750000D01*
X157400000Y-104100000D02*
X159000000Y-104100000D01*
X159950000Y-103150000D02*
X159950000Y-98100000D01*
%TO.N,RST*%
X157350000Y-106050000D02*
X152895584Y-106050000D01*
X152895584Y-106050000D02*
X151245584Y-107700000D01*
X157400000Y-106100000D02*
X157350000Y-106050000D01*
X151245584Y-107700000D02*
X148675000Y-107700000D01*
%TO.N,MOSI*%
X150836396Y-106200000D02*
X155100000Y-101936396D01*
X155100000Y-100550000D02*
X155550000Y-100100000D01*
X155100000Y-101936396D02*
X155100000Y-100550000D01*
X148675000Y-106200000D02*
X150836396Y-106200000D01*
X155550000Y-100100000D02*
X157400000Y-100100000D01*
%TO.N,MISO*%
X148675000Y-106700000D02*
X150972792Y-106700000D01*
X158750000Y-98100000D02*
X157400000Y-98100000D01*
X159000000Y-101100000D02*
X159400000Y-100700000D01*
X155550000Y-101400000D02*
X155850000Y-101100000D01*
X157650000Y-98350000D02*
X157400000Y-98100000D01*
X155550000Y-102122792D02*
X155550000Y-101400000D01*
X155850000Y-101100000D02*
X159000000Y-101100000D01*
X150972792Y-106700000D02*
X155550000Y-102122792D01*
X159400000Y-98750000D02*
X158750000Y-98100000D01*
X159400000Y-100700000D02*
X159400000Y-98750000D01*
D45*
%TO.N,Net-(D8-A)*%
X146350000Y-115750000D02*
X146350000Y-117600000D01*
X147050000Y-117650000D02*
X145550000Y-117650000D01*
D41*
%TO.N,LP*%
X144762500Y-109112500D02*
X144762500Y-112312500D01*
X151500000Y-119400000D02*
X150800000Y-119400000D01*
X144972000Y-112522000D02*
X150822000Y-112522000D01*
D45*
X150800000Y-119400000D02*
X134450000Y-119400000D01*
D41*
X151900000Y-113600000D02*
X151900000Y-119000000D01*
X150822000Y-112522000D02*
X151900000Y-113600000D01*
X151900000Y-119000000D02*
X151500000Y-119400000D01*
X144762500Y-112312500D02*
X144972000Y-112522000D01*
D45*
%TO.N,Net-(D10-A)*%
X142750000Y-115700000D02*
X142750000Y-117600000D01*
X143450000Y-117650000D02*
X141950000Y-117650000D01*
X142750000Y-117600000D02*
X142700000Y-117650000D01*
%TO.N,Net-(D12-A)*%
X150800000Y-117650000D02*
X149300000Y-117650000D01*
X150100000Y-115800000D02*
X150100000Y-117600000D01*
%TO.N,Net-(D14-A)*%
X139000000Y-115700000D02*
X139000000Y-117650000D01*
X139750000Y-117650000D02*
X138250000Y-117650000D01*
%TO.N,Net-(D16-A)*%
X135950000Y-117650000D02*
X135150000Y-117650000D01*
X135200000Y-115775000D02*
X135200000Y-117600000D01*
X135150000Y-117650000D02*
X134450000Y-117650000D01*
X135200000Y-117600000D02*
X135150000Y-117650000D01*
D41*
%TO.N,L4*%
X146350000Y-113925000D02*
X146217000Y-113792000D01*
X143762500Y-112962500D02*
X143762500Y-109112500D01*
X146217000Y-113792000D02*
X144592000Y-113792000D01*
X144592000Y-113792000D02*
X143762500Y-112962500D01*
%TO.N,L3*%
X143262500Y-112260292D02*
X143262500Y-109112500D01*
X142750000Y-113875000D02*
X142750000Y-112772792D01*
X142750000Y-112772792D02*
X143262500Y-112260292D01*
%TO.N,L2*%
X141536396Y-113350000D02*
X142762500Y-112123896D01*
X142762500Y-112123896D02*
X142762500Y-109112500D01*
X139000000Y-113875000D02*
X139525000Y-113350000D01*
X139525000Y-113350000D02*
X141536396Y-113350000D01*
%TO.N,L1*%
X141600000Y-112650000D02*
X142262500Y-111987500D01*
X137350000Y-112650000D02*
X141600000Y-112650000D01*
X142262500Y-111987500D02*
X142262500Y-109112500D01*
X136050000Y-113950000D02*
X137350000Y-112650000D01*
X135200000Y-113950000D02*
X136050000Y-113950000D01*
%TO.N,L5*%
X144630000Y-113030000D02*
X144262500Y-112662500D01*
X144262500Y-112662500D02*
X144262500Y-109112500D01*
X150100000Y-113975000D02*
X149155000Y-113030000D01*
X149155000Y-113030000D02*
X144630000Y-113030000D01*
%TO.N,Net-(U1-PB2)*%
X145262500Y-111362500D02*
X145600000Y-111700000D01*
X145262500Y-109112500D02*
X145262500Y-111362500D01*
%TO.N,Net-(U1-PB3)*%
X146262500Y-88941500D02*
X147066000Y-88138000D01*
X146262500Y-100787500D02*
X146262500Y-88941500D01*
%TO.N,Net-(U1-PB4)*%
X145762500Y-100787500D02*
X145762500Y-88612500D01*
X145762500Y-88612500D02*
X145288000Y-88138000D01*
D47*
%TO.N,Net-(J1-VBUS)*%
X171040000Y-91425000D02*
X166225000Y-91425000D01*
X166225000Y-91425000D02*
X165100000Y-92550000D01*
X165100000Y-92550000D02*
X164050000Y-92550000D01*
D41*
%TO.N,Net-(R8-Pad1)*%
X126300000Y-117000000D02*
X125900000Y-117400000D01*
X126300000Y-115800000D02*
X126300000Y-117000000D01*
%TO.N,Net-(R21-Pad1)*%
X131425000Y-116925000D02*
X132000000Y-117500000D01*
X131425000Y-115750000D02*
X131425000Y-116925000D01*
%TD*%
%TA.AperFunction,Conductor*%
%TO.N,GND*%
G36*
X134786039Y-103469685D02*
G01*
X134831794Y-103522489D01*
X134843000Y-103574000D01*
X134843000Y-103575000D01*
X136277956Y-103575000D01*
X136344995Y-103594685D01*
X136365637Y-103611319D01*
X136917137Y-104162819D01*
X136950622Y-104224142D01*
X136945638Y-104293834D01*
X136903766Y-104349767D01*
X136838302Y-104374184D01*
X136829456Y-104374500D01*
X136441845Y-104374500D01*
X136374806Y-104354815D01*
X136329051Y-104302011D01*
X136318487Y-104237897D01*
X136324999Y-104174154D01*
X136325000Y-104174141D01*
X136325000Y-104075000D01*
X134456000Y-104075000D01*
X134388961Y-104055315D01*
X134343206Y-104002511D01*
X134332000Y-103951000D01*
X134332000Y-103950000D01*
X133474000Y-103950000D01*
X133406961Y-103930315D01*
X133361206Y-103877511D01*
X133350000Y-103826000D01*
X133350000Y-103574000D01*
X133369685Y-103506961D01*
X133422489Y-103461206D01*
X133474000Y-103450000D01*
X134719000Y-103450000D01*
X134786039Y-103469685D01*
G37*
%TD.AperFunction*%
%TA.AperFunction,Conductor*%
G36*
X131593039Y-101769685D02*
G01*
X131638794Y-101822489D01*
X131650000Y-101874000D01*
X131650000Y-102126000D01*
X131630315Y-102193039D01*
X131577511Y-102238794D01*
X131526000Y-102250000D01*
X129374000Y-102250000D01*
X129306961Y-102230315D01*
X129261206Y-102177511D01*
X129250000Y-102126000D01*
X129250000Y-101874000D01*
X129269685Y-101806961D01*
X129322489Y-101761206D01*
X129374000Y-101750000D01*
X131526000Y-101750000D01*
X131593039Y-101769685D01*
G37*
%TD.AperFunction*%
%TA.AperFunction,Conductor*%
G36*
X176968039Y-85369685D02*
G01*
X177013794Y-85422489D01*
X177025000Y-85474000D01*
X177025000Y-121076000D01*
X177005315Y-121143039D01*
X176952511Y-121188794D01*
X176901000Y-121200000D01*
X132960573Y-121200000D01*
X132893534Y-121180315D01*
X132847779Y-121127511D01*
X132837835Y-121058353D01*
X132861306Y-121001689D01*
X132943353Y-120892088D01*
X132943354Y-120892086D01*
X132993596Y-120757379D01*
X132993598Y-120757372D01*
X132999999Y-120697844D01*
X133000000Y-120697827D01*
X133000000Y-120400000D01*
X131000000Y-120400000D01*
X131000000Y-120697844D01*
X131006401Y-120757372D01*
X131006403Y-120757379D01*
X131056645Y-120892086D01*
X131056646Y-120892088D01*
X131138694Y-121001689D01*
X131163111Y-121067153D01*
X131148260Y-121135426D01*
X131098855Y-121184832D01*
X131039427Y-121200000D01*
X126898003Y-121200000D01*
X126830964Y-121180315D01*
X126785209Y-121127511D01*
X126775265Y-121058353D01*
X126798737Y-121001689D01*
X126843350Y-120942093D01*
X126843354Y-120942086D01*
X126893596Y-120807379D01*
X126893598Y-120807372D01*
X126899999Y-120747844D01*
X126900000Y-120747827D01*
X126900000Y-120450000D01*
X124900000Y-120450000D01*
X124900000Y-120747844D01*
X124906401Y-120807372D01*
X124906403Y-120807379D01*
X124956645Y-120942086D01*
X124956649Y-120942093D01*
X125001263Y-121001689D01*
X125025681Y-121067153D01*
X125010830Y-121135426D01*
X124961425Y-121184832D01*
X124901997Y-121200000D01*
X121899000Y-121200000D01*
X121831961Y-121180315D01*
X121786206Y-121127511D01*
X121775000Y-121076000D01*
X121775000Y-112500000D01*
X122794355Y-112500000D01*
X122814859Y-112668869D01*
X122814860Y-112668874D01*
X122875182Y-112827931D01*
X122937475Y-112918177D01*
X122971817Y-112967929D01*
X123099148Y-113080734D01*
X123108124Y-113085445D01*
X123158337Y-113134027D01*
X123174500Y-113195242D01*
X123174500Y-118292852D01*
X123196682Y-118375640D01*
X123217553Y-118411788D01*
X123239535Y-118449862D01*
X124100138Y-119310465D01*
X124174361Y-119353318D01*
X124257147Y-119375500D01*
X124342853Y-119375500D01*
X124808791Y-119375500D01*
X124875830Y-119395185D01*
X124921585Y-119447989D01*
X124931529Y-119517147D01*
X124924973Y-119542834D01*
X124906402Y-119592623D01*
X124906401Y-119592627D01*
X124900000Y-119652155D01*
X124900000Y-119950000D01*
X126900000Y-119950000D01*
X126900000Y-119652172D01*
X126899999Y-119652155D01*
X126893598Y-119592627D01*
X126893597Y-119592623D01*
X126875027Y-119542834D01*
X126870043Y-119473142D01*
X126903528Y-119411819D01*
X126964851Y-119378334D01*
X126991209Y-119375500D01*
X127416606Y-119375500D01*
X127483645Y-119395185D01*
X127516376Y-119425867D01*
X127599288Y-119538210D01*
X127599289Y-119538211D01*
X127705523Y-119616615D01*
X127705524Y-119616615D01*
X127705525Y-119616616D01*
X127830151Y-119660225D01*
X127830150Y-119660225D01*
X127859740Y-119663000D01*
X127859744Y-119663000D01*
X128440260Y-119663000D01*
X128469849Y-119660225D01*
X128492911Y-119652155D01*
X128594475Y-119616616D01*
X128700711Y-119538211D01*
X128779116Y-119431975D01*
X128779116Y-119431972D01*
X128783458Y-119423760D01*
X128784999Y-119424574D01*
X128819291Y-119376767D01*
X128884245Y-119351022D01*
X128895608Y-119350500D01*
X128904392Y-119350500D01*
X128971431Y-119370185D01*
X129017186Y-119422989D01*
X129020539Y-119431323D01*
X129020884Y-119431976D01*
X129099288Y-119538210D01*
X129099289Y-119538211D01*
X129205523Y-119616615D01*
X129205524Y-119616615D01*
X129205525Y-119616616D01*
X129330151Y-119660225D01*
X129330150Y-119660225D01*
X129359740Y-119663000D01*
X129359744Y-119663000D01*
X129940260Y-119663000D01*
X129969849Y-119660225D01*
X129992911Y-119652155D01*
X130094475Y-119616616D01*
X130114069Y-119602155D01*
X131000000Y-119602155D01*
X131000000Y-119900000D01*
X131750000Y-119900000D01*
X132250000Y-119900000D01*
X133000000Y-119900000D01*
X133000000Y-119602172D01*
X132999999Y-119602155D01*
X132993598Y-119542627D01*
X132993596Y-119542620D01*
X132943354Y-119407913D01*
X132943350Y-119407906D01*
X132857190Y-119292812D01*
X132857187Y-119292809D01*
X132742093Y-119206649D01*
X132742086Y-119206645D01*
X132607379Y-119156403D01*
X132607372Y-119156401D01*
X132547844Y-119150000D01*
X132250000Y-119150000D01*
X132250000Y-119900000D01*
X131750000Y-119900000D01*
X131750000Y-119150000D01*
X131452155Y-119150000D01*
X131392627Y-119156401D01*
X131392620Y-119156403D01*
X131257913Y-119206645D01*
X131257906Y-119206649D01*
X131142812Y-119292809D01*
X131142809Y-119292812D01*
X131056649Y-119407906D01*
X131056645Y-119407913D01*
X131006403Y-119542620D01*
X131006401Y-119542627D01*
X131000000Y-119602155D01*
X130114069Y-119602155D01*
X130200711Y-119538211D01*
X130279116Y-119431975D01*
X130322725Y-119307349D01*
X130324088Y-119292812D01*
X130325500Y-119277760D01*
X130325500Y-119059739D01*
X133774500Y-119059739D01*
X133774500Y-119740260D01*
X133777274Y-119769849D01*
X133820884Y-119894476D01*
X133899288Y-120000710D01*
X133899289Y-120000711D01*
X134005523Y-120079115D01*
X134005524Y-120079115D01*
X134005525Y-120079116D01*
X134130151Y-120122725D01*
X134130150Y-120122725D01*
X134159740Y-120125500D01*
X134159744Y-120125500D01*
X134740260Y-120125500D01*
X134769849Y-120122725D01*
X134894475Y-120079116D01*
X135000711Y-120000711D01*
X135074399Y-119900867D01*
X135130046Y-119858616D01*
X135174169Y-119850500D01*
X135225831Y-119850500D01*
X135292870Y-119870185D01*
X135325601Y-119900867D01*
X135399288Y-120000710D01*
X135399289Y-120000711D01*
X135505523Y-120079115D01*
X135505524Y-120079115D01*
X135505525Y-120079116D01*
X135630151Y-120122725D01*
X135630150Y-120122725D01*
X135659740Y-120125500D01*
X135659744Y-120125500D01*
X136240260Y-120125500D01*
X136269849Y-120122725D01*
X136394475Y-120079116D01*
X136500711Y-120000711D01*
X136574399Y-119900867D01*
X136630046Y-119858616D01*
X136674169Y-119850500D01*
X137525831Y-119850500D01*
X137592870Y-119870185D01*
X137625601Y-119900867D01*
X137699288Y-120000710D01*
X137699289Y-120000711D01*
X137805523Y-120079115D01*
X137805524Y-120079115D01*
X137805525Y-120079116D01*
X137930151Y-120122725D01*
X137930150Y-120122725D01*
X137959740Y-120125500D01*
X137959744Y-120125500D01*
X138540260Y-120125500D01*
X138569849Y-120122725D01*
X138694475Y-120079116D01*
X138800711Y-120000711D01*
X138874399Y-119900867D01*
X138930046Y-119858616D01*
X138974169Y-119850500D01*
X139025831Y-119850500D01*
X139092870Y-119870185D01*
X139125601Y-119900867D01*
X139199288Y-120000710D01*
X139199289Y-120000711D01*
X139305523Y-120079115D01*
X139305524Y-120079115D01*
X139305525Y-120079116D01*
X139430151Y-120122725D01*
X139430150Y-120122725D01*
X139459740Y-120125500D01*
X139459744Y-120125500D01*
X140040260Y-120125500D01*
X140069849Y-120122725D01*
X140194475Y-120079116D01*
X140300711Y-120000711D01*
X140374399Y-119900867D01*
X140430046Y-119858616D01*
X140474169Y-119850500D01*
X141225831Y-119850500D01*
X141292870Y-119870185D01*
X141325601Y-119900867D01*
X141399288Y-120000710D01*
X141399289Y-120000711D01*
X141505523Y-120079115D01*
X141505524Y-120079115D01*
X141505525Y-120079116D01*
X141630151Y-120122725D01*
X141630150Y-120122725D01*
X141659740Y-120125500D01*
X141659744Y-120125500D01*
X142240260Y-120125500D01*
X142269849Y-120122725D01*
X142394475Y-120079116D01*
X142500711Y-120000711D01*
X142574399Y-119900867D01*
X142630046Y-119858616D01*
X142674169Y-119850500D01*
X142725831Y-119850500D01*
X142792870Y-119870185D01*
X142825601Y-119900867D01*
X142899288Y-120000710D01*
X142899289Y-120000711D01*
X143005523Y-120079115D01*
X143005524Y-120079115D01*
X143005525Y-120079116D01*
X143130151Y-120122725D01*
X143130150Y-120122725D01*
X143159740Y-120125500D01*
X143159744Y-120125500D01*
X143740260Y-120125500D01*
X143769849Y-120122725D01*
X143894475Y-120079116D01*
X144000711Y-120000711D01*
X144074399Y-119900867D01*
X144130046Y-119858616D01*
X144174169Y-119850500D01*
X144875831Y-119850500D01*
X144942870Y-119870185D01*
X144975601Y-119900867D01*
X145049288Y-120000710D01*
X145049289Y-120000711D01*
X145155523Y-120079115D01*
X145155524Y-120079115D01*
X145155525Y-120079116D01*
X145280151Y-120122725D01*
X145280150Y-120122725D01*
X145309740Y-120125500D01*
X145309744Y-120125500D01*
X145890260Y-120125500D01*
X145919849Y-120122725D01*
X146044475Y-120079116D01*
X146150711Y-120000711D01*
X146224399Y-119900867D01*
X146280046Y-119858616D01*
X146324169Y-119850500D01*
X146365831Y-119850500D01*
X146432870Y-119870185D01*
X146465601Y-119900867D01*
X146539288Y-120000710D01*
X146539289Y-120000711D01*
X146645523Y-120079115D01*
X146645524Y-120079115D01*
X146645525Y-120079116D01*
X146770151Y-120122725D01*
X146770150Y-120122725D01*
X146799740Y-120125500D01*
X146799744Y-120125500D01*
X147380260Y-120125500D01*
X147409849Y-120122725D01*
X147534475Y-120079116D01*
X147640711Y-120000711D01*
X147714399Y-119900867D01*
X147770046Y-119858616D01*
X147814169Y-119850500D01*
X148575831Y-119850500D01*
X148642870Y-119870185D01*
X148675601Y-119900867D01*
X148749288Y-120000710D01*
X148749289Y-120000711D01*
X148855523Y-120079115D01*
X148855524Y-120079115D01*
X148855525Y-120079116D01*
X148980151Y-120122725D01*
X148980150Y-120122725D01*
X149009740Y-120125500D01*
X149009744Y-120125500D01*
X149590260Y-120125500D01*
X149619849Y-120122725D01*
X149744475Y-120079116D01*
X149850711Y-120000711D01*
X149924399Y-119900867D01*
X149980046Y-119858616D01*
X150024169Y-119850500D01*
X150075831Y-119850500D01*
X150142870Y-119870185D01*
X150175601Y-119900867D01*
X150249288Y-120000710D01*
X150249289Y-120000711D01*
X150355523Y-120079115D01*
X150355524Y-120079115D01*
X150355525Y-120079116D01*
X150480151Y-120122725D01*
X150480150Y-120122725D01*
X150509740Y-120125500D01*
X150509744Y-120125500D01*
X151090260Y-120125500D01*
X151119849Y-120122725D01*
X151244475Y-120079116D01*
X151350711Y-120000711D01*
X151429116Y-119894475D01*
X151460949Y-119803503D01*
X151501670Y-119746727D01*
X151545893Y-119724685D01*
X151625639Y-119703318D01*
X151699862Y-119660465D01*
X152160465Y-119199862D01*
X152177258Y-119170775D01*
X152203318Y-119125638D01*
X152225500Y-119042853D01*
X152225500Y-118366739D01*
X157537000Y-118366739D01*
X157537000Y-118733260D01*
X157546926Y-118801391D01*
X157598303Y-118906485D01*
X157681014Y-118989196D01*
X157681015Y-118989196D01*
X157681017Y-118989198D01*
X157786107Y-119040573D01*
X157801742Y-119042851D01*
X157854239Y-119050500D01*
X157854240Y-119050500D01*
X157933481Y-119050500D01*
X158000520Y-119070185D01*
X158021162Y-119086819D01*
X158028454Y-119094111D01*
X158028458Y-119094114D01*
X158143182Y-119170771D01*
X158143195Y-119170778D01*
X158270667Y-119223578D01*
X158270672Y-119223580D01*
X158270676Y-119223580D01*
X158270677Y-119223581D01*
X158406004Y-119250500D01*
X158406007Y-119250500D01*
X160518995Y-119250500D01*
X160610041Y-119232389D01*
X160654328Y-119223580D01*
X160712091Y-119199653D01*
X160781812Y-119170775D01*
X160787181Y-119167905D01*
X160787876Y-119169205D01*
X160847562Y-119150520D01*
X160849770Y-119150500D01*
X161069750Y-119150500D01*
X161069751Y-119150499D01*
X161084568Y-119147552D01*
X161128229Y-119138868D01*
X161128229Y-119138867D01*
X161128231Y-119138867D01*
X161194552Y-119094552D01*
X161238867Y-119028231D01*
X161238867Y-119028229D01*
X161238868Y-119028229D01*
X161250499Y-118969752D01*
X161250500Y-118969750D01*
X161250500Y-117930249D01*
X161250499Y-117930247D01*
X161238868Y-117871770D01*
X161238867Y-117871769D01*
X161194552Y-117805447D01*
X161128230Y-117761132D01*
X161128229Y-117761131D01*
X161069752Y-117749500D01*
X161069748Y-117749500D01*
X160030252Y-117749500D01*
X160030247Y-117749500D01*
X159971770Y-117761131D01*
X159971769Y-117761132D01*
X159905446Y-117805448D01*
X159897714Y-117813181D01*
X159836391Y-117846666D01*
X159810033Y-117849500D01*
X158406005Y-117849500D01*
X158270677Y-117876418D01*
X158270667Y-117876421D01*
X158143195Y-117929221D01*
X158143182Y-117929228D01*
X158028458Y-118005885D01*
X158028454Y-118005888D01*
X158021162Y-118013181D01*
X157959839Y-118046666D01*
X157933481Y-118049500D01*
X157854239Y-118049500D01*
X157786108Y-118059426D01*
X157681014Y-118110803D01*
X157598303Y-118193514D01*
X157546926Y-118298608D01*
X157537000Y-118366739D01*
X152225500Y-118366739D01*
X152225500Y-113557147D01*
X152217185Y-113526113D01*
X152203318Y-113474361D01*
X152160465Y-113400138D01*
X151047508Y-112287181D01*
X151014023Y-112225858D01*
X151019007Y-112156166D01*
X151060879Y-112100233D01*
X151126343Y-112075816D01*
X151135189Y-112075500D01*
X151313811Y-112075500D01*
X151380850Y-112095185D01*
X151401492Y-112111819D01*
X153308181Y-114018508D01*
X153341666Y-114079831D01*
X153344500Y-114106189D01*
X153344500Y-116477147D01*
X153344500Y-116562853D01*
X153345499Y-116566582D01*
X153366682Y-116645640D01*
X153383922Y-116675500D01*
X153409535Y-116719862D01*
X153409537Y-116719864D01*
X154088181Y-117398508D01*
X154121666Y-117459831D01*
X154124500Y-117486189D01*
X154124500Y-117952760D01*
X154127274Y-117982349D01*
X154170884Y-118106976D01*
X154249288Y-118213210D01*
X154249289Y-118213211D01*
X154355523Y-118291615D01*
X154355524Y-118291615D01*
X154355525Y-118291616D01*
X154480151Y-118335225D01*
X154480150Y-118335225D01*
X154509740Y-118338000D01*
X154509744Y-118338000D01*
X155090260Y-118338000D01*
X155119849Y-118335225D01*
X155151019Y-118324318D01*
X155244475Y-118291616D01*
X155350711Y-118213211D01*
X155429116Y-118106975D01*
X155459638Y-118019750D01*
X155463559Y-118008545D01*
X155504281Y-117951769D01*
X155569234Y-117926022D01*
X155580600Y-117925500D01*
X155640956Y-117925500D01*
X155707995Y-117945185D01*
X155728637Y-117961819D01*
X155806014Y-118039196D01*
X155806015Y-118039196D01*
X155806017Y-118039198D01*
X155911107Y-118090573D01*
X155945173Y-118095536D01*
X155979239Y-118100500D01*
X155979240Y-118100500D01*
X157220761Y-118100500D01*
X157243471Y-118097191D01*
X157288893Y-118090573D01*
X157393983Y-118039198D01*
X157476698Y-117956483D01*
X157528073Y-117851393D01*
X157538000Y-117783260D01*
X157538000Y-117416740D01*
X157528073Y-117348607D01*
X157476698Y-117243517D01*
X157476696Y-117243515D01*
X157476696Y-117243514D01*
X157393985Y-117160803D01*
X157288891Y-117109426D01*
X157220761Y-117099500D01*
X157220760Y-117099500D01*
X155979240Y-117099500D01*
X155979239Y-117099500D01*
X155911108Y-117109426D01*
X155806014Y-117160803D01*
X155728637Y-117238181D01*
X155667314Y-117271666D01*
X155640956Y-117274500D01*
X155545608Y-117274500D01*
X155478569Y-117254815D01*
X155432814Y-117202011D01*
X155429460Y-117193676D01*
X155429115Y-117193023D01*
X155350711Y-117086789D01*
X155350710Y-117086788D01*
X155244476Y-117008384D01*
X155119848Y-116964774D01*
X155119849Y-116964774D01*
X155090260Y-116962000D01*
X155090256Y-116962000D01*
X154623689Y-116962000D01*
X154556650Y-116942315D01*
X154536008Y-116925681D01*
X154031819Y-116421492D01*
X153998334Y-116360169D01*
X153995500Y-116333811D01*
X153995500Y-114533739D01*
X157549500Y-114533739D01*
X157549500Y-114900260D01*
X157559426Y-114968391D01*
X157610803Y-115073485D01*
X157693514Y-115156196D01*
X157693515Y-115156196D01*
X157693517Y-115156198D01*
X157798607Y-115207573D01*
X157827536Y-115211788D01*
X157866739Y-115217500D01*
X157866740Y-115217500D01*
X157945981Y-115217500D01*
X158013020Y-115237185D01*
X158033662Y-115253819D01*
X158040954Y-115261111D01*
X158040958Y-115261114D01*
X158155682Y-115337771D01*
X158155695Y-115337778D01*
X158283167Y-115390578D01*
X158283172Y-115390580D01*
X158283176Y-115390580D01*
X158283177Y-115390581D01*
X158418504Y-115417500D01*
X158418507Y-115417500D01*
X159860033Y-115417500D01*
X159927072Y-115437185D01*
X159947714Y-115453819D01*
X159955446Y-115461551D01*
X160021769Y-115505867D01*
X160021770Y-115505868D01*
X160080247Y-115517499D01*
X160080250Y-115517500D01*
X160080252Y-115517500D01*
X161119750Y-115517500D01*
X161119751Y-115517499D01*
X161134568Y-115514552D01*
X161178229Y-115505868D01*
X161178229Y-115505867D01*
X161178231Y-115505867D01*
X161244552Y-115461552D01*
X161288867Y-115395231D01*
X161288867Y-115395229D01*
X161288868Y-115395229D01*
X161300296Y-115337775D01*
X161300500Y-115336748D01*
X161300500Y-114297252D01*
X161300500Y-114297249D01*
X161300499Y-114297247D01*
X161288868Y-114238770D01*
X161288867Y-114238769D01*
X161244552Y-114172447D01*
X161178230Y-114128132D01*
X161178229Y-114128131D01*
X161119752Y-114116500D01*
X161119748Y-114116500D01*
X160899770Y-114116500D01*
X160837630Y-114098253D01*
X160837181Y-114099095D01*
X160833140Y-114096935D01*
X160832731Y-114096815D01*
X160831912Y-114096278D01*
X160831809Y-114096223D01*
X160704332Y-114043421D01*
X160704322Y-114043418D01*
X160568995Y-114016500D01*
X160568993Y-114016500D01*
X158418507Y-114016500D01*
X158418505Y-114016500D01*
X158283177Y-114043418D01*
X158283167Y-114043421D01*
X158155695Y-114096221D01*
X158155682Y-114096228D01*
X158040958Y-114172885D01*
X158040954Y-114172888D01*
X158033662Y-114180181D01*
X157972339Y-114213666D01*
X157945981Y-114216500D01*
X157866739Y-114216500D01*
X157798608Y-114226426D01*
X157693514Y-114277803D01*
X157610803Y-114360514D01*
X157559426Y-114465608D01*
X157549500Y-114533739D01*
X153995500Y-114533739D01*
X153995500Y-114320421D01*
X154015185Y-114253382D01*
X154067989Y-114207627D01*
X154137147Y-114197683D01*
X154200703Y-114226708D01*
X154219271Y-114246788D01*
X154220883Y-114248972D01*
X154220884Y-114248975D01*
X154299289Y-114355211D01*
X154335553Y-114381975D01*
X154405523Y-114433615D01*
X154405524Y-114433615D01*
X154405525Y-114433616D01*
X154530151Y-114477225D01*
X154530150Y-114477225D01*
X154559740Y-114480000D01*
X154559744Y-114480000D01*
X155140260Y-114480000D01*
X155169849Y-114477225D01*
X155203048Y-114465608D01*
X155294475Y-114433616D01*
X155400711Y-114355211D01*
X155479116Y-114248975D01*
X155496063Y-114200544D01*
X155536785Y-114143769D01*
X155601738Y-114118022D01*
X155613104Y-114117500D01*
X155678457Y-114117500D01*
X155745496Y-114137185D01*
X155766133Y-114153814D01*
X155818517Y-114206198D01*
X155923607Y-114257573D01*
X155957673Y-114262536D01*
X155991739Y-114267500D01*
X155991740Y-114267500D01*
X157233261Y-114267500D01*
X157255971Y-114264191D01*
X157301393Y-114257573D01*
X157406483Y-114206198D01*
X157489198Y-114123483D01*
X157540573Y-114018393D01*
X157550500Y-113950260D01*
X157550500Y-113583740D01*
X157540573Y-113515607D01*
X157489198Y-113410517D01*
X157489196Y-113410515D01*
X157489196Y-113410514D01*
X157406485Y-113327803D01*
X157301391Y-113276426D01*
X157233261Y-113266500D01*
X157233260Y-113266500D01*
X155991740Y-113266500D01*
X155991739Y-113266500D01*
X155923608Y-113276426D01*
X155818514Y-113327803D01*
X155735805Y-113410512D01*
X155732923Y-113414550D01*
X155677949Y-113457674D01*
X155632003Y-113466500D01*
X155613104Y-113466500D01*
X155546065Y-113446815D01*
X155500310Y-113394011D01*
X155496063Y-113383456D01*
X155487093Y-113357821D01*
X155479116Y-113335025D01*
X155473785Y-113327802D01*
X155400711Y-113228789D01*
X155400710Y-113228788D01*
X155294476Y-113150384D01*
X155169848Y-113106774D01*
X155169849Y-113106774D01*
X155140260Y-113104000D01*
X155140256Y-113104000D01*
X154559744Y-113104000D01*
X154559740Y-113104000D01*
X154530150Y-113106774D01*
X154405523Y-113150384D01*
X154299290Y-113228787D01*
X154289827Y-113241610D01*
X154234178Y-113283859D01*
X154164522Y-113289316D01*
X154102973Y-113256248D01*
X154102377Y-113255655D01*
X153047232Y-112200510D01*
X151886258Y-111039535D01*
X151849146Y-111018108D01*
X151812036Y-110996682D01*
X151770642Y-110985591D01*
X151729249Y-110974500D01*
X151729248Y-110974500D01*
X147336188Y-110974500D01*
X147269149Y-110954815D01*
X147248507Y-110938181D01*
X146624319Y-110313992D01*
X146590834Y-110252669D01*
X146588000Y-110226311D01*
X146588000Y-109928924D01*
X146594844Y-109894516D01*
X146594633Y-109894474D01*
X146612999Y-109802137D01*
X146613000Y-109802133D01*
X146612999Y-108422868D01*
X146597015Y-108342505D01*
X146565518Y-108295367D01*
X146536124Y-108251375D01*
X146481495Y-108214874D01*
X146444995Y-108190485D01*
X146444993Y-108190484D01*
X146444990Y-108190483D01*
X146364635Y-108174500D01*
X146160370Y-108174500D01*
X146100367Y-108186434D01*
X146080005Y-108190485D01*
X146080004Y-108190485D01*
X146080001Y-108190486D01*
X146068720Y-108195159D01*
X146068121Y-108193714D01*
X146014704Y-108210436D01*
X145956561Y-108194481D01*
X145956281Y-108195159D01*
X145950883Y-108192923D01*
X145947325Y-108191947D01*
X145945148Y-108190547D01*
X145944994Y-108190484D01*
X145864635Y-108174500D01*
X145660370Y-108174500D01*
X145600367Y-108186434D01*
X145580005Y-108190485D01*
X145580004Y-108190485D01*
X145580001Y-108190486D01*
X145568720Y-108195159D01*
X145568121Y-108193714D01*
X145514704Y-108210436D01*
X145456561Y-108194481D01*
X145456281Y-108195159D01*
X145450883Y-108192923D01*
X145447325Y-108191947D01*
X145445148Y-108190547D01*
X145444994Y-108190484D01*
X145364635Y-108174500D01*
X145160370Y-108174500D01*
X145100367Y-108186434D01*
X145080005Y-108190485D01*
X145080004Y-108190485D01*
X145080001Y-108190486D01*
X145068720Y-108195159D01*
X145068121Y-108193714D01*
X145014704Y-108210436D01*
X144956561Y-108194481D01*
X144956281Y-108195159D01*
X144950883Y-108192923D01*
X144947325Y-108191947D01*
X144945148Y-108190547D01*
X144944994Y-108190484D01*
X144864635Y-108174500D01*
X144660370Y-108174500D01*
X144600367Y-108186434D01*
X144580005Y-108190485D01*
X144580004Y-108190485D01*
X144580001Y-108190486D01*
X144568720Y-108195159D01*
X144568121Y-108193714D01*
X144514704Y-108210436D01*
X144456561Y-108194481D01*
X144456281Y-108195159D01*
X144450883Y-108192923D01*
X144447325Y-108191947D01*
X144445148Y-108190547D01*
X144444994Y-108190484D01*
X144364635Y-108174500D01*
X144160370Y-108174500D01*
X144100367Y-108186434D01*
X144080005Y-108190485D01*
X144080004Y-108190485D01*
X144080001Y-108190486D01*
X144068720Y-108195159D01*
X144068121Y-108193714D01*
X144014704Y-108210436D01*
X143956561Y-108194481D01*
X143956281Y-108195159D01*
X143950883Y-108192923D01*
X143947325Y-108191947D01*
X143945148Y-108190547D01*
X143944994Y-108190484D01*
X143864635Y-108174500D01*
X143660370Y-108174500D01*
X143600367Y-108186434D01*
X143580005Y-108190485D01*
X143580004Y-108190485D01*
X143580001Y-108190486D01*
X143568720Y-108195159D01*
X143568121Y-108193714D01*
X143514704Y-108210436D01*
X143456561Y-108194481D01*
X143456281Y-108195159D01*
X143450883Y-108192923D01*
X143447325Y-108191947D01*
X143445148Y-108190547D01*
X143444994Y-108190484D01*
X143364635Y-108174500D01*
X143160370Y-108174500D01*
X143100367Y-108186434D01*
X143080005Y-108190485D01*
X143080004Y-108190485D01*
X143080001Y-108190486D01*
X143068720Y-108195159D01*
X143068121Y-108193714D01*
X143014704Y-108210436D01*
X142956561Y-108194481D01*
X142956281Y-108195159D01*
X142950883Y-108192923D01*
X142947325Y-108191947D01*
X142945148Y-108190547D01*
X142944994Y-108190484D01*
X142864635Y-108174500D01*
X142660370Y-108174500D01*
X142600367Y-108186434D01*
X142580005Y-108190485D01*
X142580004Y-108190485D01*
X142580001Y-108190486D01*
X142568720Y-108195159D01*
X142568121Y-108193714D01*
X142514704Y-108210436D01*
X142456561Y-108194481D01*
X142456281Y-108195159D01*
X142450883Y-108192923D01*
X142447325Y-108191947D01*
X142445148Y-108190547D01*
X142444994Y-108190484D01*
X142364635Y-108174500D01*
X142160370Y-108174500D01*
X142100367Y-108186434D01*
X142080005Y-108190485D01*
X142080004Y-108190485D01*
X142080001Y-108190486D01*
X142068720Y-108195159D01*
X142068121Y-108193714D01*
X142014704Y-108210436D01*
X141956561Y-108194481D01*
X141956281Y-108195159D01*
X141950883Y-108192923D01*
X141947325Y-108191947D01*
X141945148Y-108190547D01*
X141944994Y-108190484D01*
X141864635Y-108174500D01*
X141660370Y-108174500D01*
X141580004Y-108190485D01*
X141488875Y-108251375D01*
X141427985Y-108342505D01*
X141427983Y-108342509D01*
X141412000Y-108422862D01*
X141412000Y-109626310D01*
X141392315Y-109693349D01*
X141375681Y-109713991D01*
X140758952Y-110330719D01*
X140697629Y-110364204D01*
X140641598Y-110363435D01*
X140585059Y-110349500D01*
X140585056Y-110349500D01*
X140414944Y-110349500D01*
X140249773Y-110390210D01*
X140099150Y-110469263D01*
X139971816Y-110582072D01*
X139875182Y-110722068D01*
X139814860Y-110881125D01*
X139814859Y-110881130D01*
X139794355Y-111050000D01*
X139814859Y-111218869D01*
X139814860Y-111218874D01*
X139875182Y-111377931D01*
X139915830Y-111436819D01*
X139971817Y-111517929D01*
X140069376Y-111604358D01*
X140099150Y-111630736D01*
X140231122Y-111700000D01*
X140249775Y-111709790D01*
X140414944Y-111750500D01*
X140585056Y-111750500D01*
X140750225Y-111709790D01*
X140839720Y-111662819D01*
X140900849Y-111630736D01*
X140900850Y-111630734D01*
X140900852Y-111630734D01*
X141028183Y-111517929D01*
X141124818Y-111377930D01*
X141185140Y-111218872D01*
X141205645Y-111050000D01*
X141186360Y-110891176D01*
X141197820Y-110822254D01*
X141221772Y-110788553D01*
X141725319Y-110285007D01*
X141786642Y-110251522D01*
X141856334Y-110256506D01*
X141912267Y-110298378D01*
X141936684Y-110363842D01*
X141937000Y-110372688D01*
X141937000Y-111801311D01*
X141917315Y-111868350D01*
X141900681Y-111888992D01*
X141501492Y-112288181D01*
X141440169Y-112321666D01*
X141413811Y-112324500D01*
X137400465Y-112324500D01*
X137400449Y-112324499D01*
X137392853Y-112324499D01*
X137307147Y-112324499D01*
X137282401Y-112331130D01*
X137224359Y-112346682D01*
X137224358Y-112346683D01*
X137150141Y-112389532D01*
X137150136Y-112389536D01*
X137089533Y-112450140D01*
X136023135Y-113516537D01*
X135961812Y-113550022D01*
X135892120Y-113545038D01*
X135836187Y-113503166D01*
X135833694Y-113499227D01*
X135750711Y-113386789D01*
X135750710Y-113386788D01*
X135644476Y-113308384D01*
X135519848Y-113264774D01*
X135519849Y-113264774D01*
X135490260Y-113262000D01*
X135490256Y-113262000D01*
X134909744Y-113262000D01*
X134909740Y-113262000D01*
X134880150Y-113264774D01*
X134755523Y-113308384D01*
X134649289Y-113386788D01*
X134649288Y-113386789D01*
X134570884Y-113493023D01*
X134527274Y-113617650D01*
X134524500Y-113647239D01*
X134524500Y-114252760D01*
X134527274Y-114282349D01*
X134570884Y-114406976D01*
X134649288Y-114513210D01*
X134649289Y-114513211D01*
X134755523Y-114591615D01*
X134755524Y-114591615D01*
X134755525Y-114591616D01*
X134880151Y-114635225D01*
X134880150Y-114635225D01*
X134909740Y-114638000D01*
X134909744Y-114638000D01*
X135490260Y-114638000D01*
X135519849Y-114635225D01*
X135644475Y-114591616D01*
X135750711Y-114513211D01*
X135829116Y-114406975D01*
X135846063Y-114358544D01*
X135886785Y-114301769D01*
X135951738Y-114276022D01*
X135963104Y-114275500D01*
X136092851Y-114275500D01*
X136092853Y-114275500D01*
X136175639Y-114253318D01*
X136249862Y-114210465D01*
X137448507Y-113011818D01*
X137509830Y-112978334D01*
X137536188Y-112975500D01*
X138562703Y-112975500D01*
X138629742Y-112995185D01*
X138675497Y-113047989D01*
X138685441Y-113117147D01*
X138656416Y-113180703D01*
X138603658Y-113216541D01*
X138555524Y-113233384D01*
X138555523Y-113233384D01*
X138449289Y-113311788D01*
X138449288Y-113311789D01*
X138370884Y-113418023D01*
X138327274Y-113542650D01*
X138324500Y-113572239D01*
X138324500Y-114177760D01*
X138327274Y-114207349D01*
X138370884Y-114331976D01*
X138449288Y-114438210D01*
X138449289Y-114438211D01*
X138555523Y-114516615D01*
X138555524Y-114516615D01*
X138555525Y-114516616D01*
X138680151Y-114560225D01*
X138680150Y-114560225D01*
X138709740Y-114563000D01*
X138709744Y-114563000D01*
X139290260Y-114563000D01*
X139319849Y-114560225D01*
X139444475Y-114516616D01*
X139550711Y-114438211D01*
X139629116Y-114331975D01*
X139672725Y-114207349D01*
X139673363Y-114200544D01*
X139675500Y-114177760D01*
X139675500Y-113799500D01*
X139695185Y-113732461D01*
X139747989Y-113686706D01*
X139799500Y-113675500D01*
X141579247Y-113675500D01*
X141579249Y-113675500D01*
X141662035Y-113653318D01*
X141736258Y-113610465D01*
X141862819Y-113483904D01*
X141924142Y-113450419D01*
X141993834Y-113455403D01*
X142049767Y-113497275D01*
X142074184Y-113562739D01*
X142074500Y-113571585D01*
X142074500Y-114177760D01*
X142077274Y-114207349D01*
X142120884Y-114331976D01*
X142199288Y-114438210D01*
X142199289Y-114438211D01*
X142305523Y-114516615D01*
X142305524Y-114516615D01*
X142305525Y-114516616D01*
X142430151Y-114560225D01*
X142430150Y-114560225D01*
X142459740Y-114563000D01*
X142459744Y-114563000D01*
X143040260Y-114563000D01*
X143069849Y-114560225D01*
X143194475Y-114516616D01*
X143300711Y-114438211D01*
X143379116Y-114331975D01*
X143422725Y-114207349D01*
X143423363Y-114200544D01*
X143425500Y-114177760D01*
X143425500Y-113572239D01*
X143422725Y-113542650D01*
X143379115Y-113418023D01*
X143300711Y-113311789D01*
X143300710Y-113311788D01*
X143194476Y-113233384D01*
X143194477Y-113233384D01*
X143158544Y-113220811D01*
X143101769Y-113180089D01*
X143076022Y-113115136D01*
X143075500Y-113103770D01*
X143075500Y-112958981D01*
X143095185Y-112891942D01*
X143111819Y-112871300D01*
X143225319Y-112757800D01*
X143286642Y-112724315D01*
X143356334Y-112729299D01*
X143412267Y-112771171D01*
X143436684Y-112836635D01*
X143437000Y-112845481D01*
X143437000Y-112919647D01*
X143437000Y-113005353D01*
X143447483Y-113044476D01*
X143459182Y-113088140D01*
X143474769Y-113115136D01*
X143502035Y-113162362D01*
X144392138Y-114052465D01*
X144466361Y-114095318D01*
X144549147Y-114117500D01*
X144634853Y-114117500D01*
X145551245Y-114117500D01*
X145618284Y-114137185D01*
X145664039Y-114189989D01*
X145674703Y-114229924D01*
X145677274Y-114257348D01*
X145720884Y-114381976D01*
X145799288Y-114488210D01*
X145799289Y-114488211D01*
X145905523Y-114566615D01*
X145905524Y-114566615D01*
X145905525Y-114566616D01*
X146030151Y-114610225D01*
X146030150Y-114610225D01*
X146059740Y-114613000D01*
X146059744Y-114613000D01*
X146640260Y-114613000D01*
X146669849Y-114610225D01*
X146794475Y-114566616D01*
X146900711Y-114488211D01*
X146979116Y-114381975D01*
X147022725Y-114257349D01*
X147024467Y-114238770D01*
X147025500Y-114227760D01*
X147025500Y-113622239D01*
X147022725Y-113592650D01*
X147022725Y-113592648D01*
X146997463Y-113520455D01*
X146993901Y-113450676D01*
X147028629Y-113390049D01*
X147090622Y-113357821D01*
X147114504Y-113355500D01*
X148968811Y-113355500D01*
X149035850Y-113375185D01*
X149056492Y-113391819D01*
X149388181Y-113723507D01*
X149421666Y-113784830D01*
X149424500Y-113811188D01*
X149424500Y-114277760D01*
X149427274Y-114307349D01*
X149470884Y-114431976D01*
X149549288Y-114538210D01*
X149549289Y-114538211D01*
X149655523Y-114616615D01*
X149655524Y-114616615D01*
X149655525Y-114616616D01*
X149780151Y-114660225D01*
X149780150Y-114660225D01*
X149809740Y-114663000D01*
X149809744Y-114663000D01*
X150390260Y-114663000D01*
X150419849Y-114660225D01*
X150438570Y-114653674D01*
X150544475Y-114616616D01*
X150650711Y-114538211D01*
X150729116Y-114431975D01*
X150772725Y-114307349D01*
X150773672Y-114297247D01*
X150775500Y-114277760D01*
X150775500Y-113672239D01*
X150772725Y-113642650D01*
X150748088Y-113572244D01*
X150729116Y-113518025D01*
X150727332Y-113515608D01*
X150650711Y-113411789D01*
X150650710Y-113411788D01*
X150544476Y-113333384D01*
X150419848Y-113289774D01*
X150419849Y-113289774D01*
X150390260Y-113287000D01*
X150390256Y-113287000D01*
X149923688Y-113287000D01*
X149856649Y-113267315D01*
X149836007Y-113250681D01*
X149644508Y-113059181D01*
X149611023Y-112997858D01*
X149616007Y-112928166D01*
X149657879Y-112872233D01*
X149723343Y-112847816D01*
X149732189Y-112847500D01*
X150635811Y-112847500D01*
X150702850Y-112867185D01*
X150723492Y-112883819D01*
X151538181Y-113698508D01*
X151571666Y-113759831D01*
X151574500Y-113786189D01*
X151574500Y-116975681D01*
X151554815Y-117042720D01*
X151502011Y-117088475D01*
X151432853Y-117098419D01*
X151369297Y-117069394D01*
X151350732Y-117049317D01*
X151350712Y-117049290D01*
X151350710Y-117049288D01*
X151244476Y-116970884D01*
X151119848Y-116927274D01*
X151119849Y-116927274D01*
X151090260Y-116924500D01*
X151090256Y-116924500D01*
X150674500Y-116924500D01*
X150607461Y-116904815D01*
X150561706Y-116852011D01*
X150550500Y-116800500D01*
X150550500Y-116499767D01*
X150570185Y-116432728D01*
X150600863Y-116399999D01*
X150650711Y-116363211D01*
X150729116Y-116256975D01*
X150772725Y-116132349D01*
X150773897Y-116119849D01*
X150775500Y-116102760D01*
X150775500Y-115497239D01*
X150772725Y-115467650D01*
X150748088Y-115397244D01*
X150729116Y-115343025D01*
X150725241Y-115337775D01*
X150650711Y-115236789D01*
X150650710Y-115236788D01*
X150544476Y-115158384D01*
X150419848Y-115114774D01*
X150419849Y-115114774D01*
X150390260Y-115112000D01*
X150390256Y-115112000D01*
X149809744Y-115112000D01*
X149809740Y-115112000D01*
X149780150Y-115114774D01*
X149655523Y-115158384D01*
X149549289Y-115236788D01*
X149549288Y-115236789D01*
X149470884Y-115343023D01*
X149427274Y-115467650D01*
X149424500Y-115497239D01*
X149424500Y-116102760D01*
X149427274Y-116132349D01*
X149470884Y-116256976D01*
X149524881Y-116330139D01*
X149549289Y-116363211D01*
X149599134Y-116399998D01*
X149641384Y-116455643D01*
X149649500Y-116499767D01*
X149649500Y-116800500D01*
X149629815Y-116867539D01*
X149577011Y-116913294D01*
X149525500Y-116924500D01*
X149009740Y-116924500D01*
X148980150Y-116927274D01*
X148855523Y-116970884D01*
X148749289Y-117049288D01*
X148749288Y-117049289D01*
X148670884Y-117155523D01*
X148627274Y-117280150D01*
X148624500Y-117309739D01*
X148624500Y-117990260D01*
X148627274Y-118019849D01*
X148670884Y-118144476D01*
X148749288Y-118250710D01*
X148749289Y-118250711D01*
X148855523Y-118329115D01*
X148855524Y-118329115D01*
X148855525Y-118329116D01*
X148980151Y-118372725D01*
X148980150Y-118372725D01*
X149009740Y-118375500D01*
X149009744Y-118375500D01*
X149590260Y-118375500D01*
X149619849Y-118372725D01*
X149636956Y-118366739D01*
X149744475Y-118329116D01*
X149850711Y-118250711D01*
X149896354Y-118188867D01*
X149924399Y-118150867D01*
X149980046Y-118108616D01*
X150024169Y-118100500D01*
X150075831Y-118100500D01*
X150142870Y-118120185D01*
X150175601Y-118150867D01*
X150249288Y-118250710D01*
X150249289Y-118250711D01*
X150355523Y-118329115D01*
X150355524Y-118329115D01*
X150355525Y-118329116D01*
X150480151Y-118372725D01*
X150480150Y-118372725D01*
X150509740Y-118375500D01*
X150509744Y-118375500D01*
X151090260Y-118375500D01*
X151119849Y-118372725D01*
X151136956Y-118366739D01*
X151244475Y-118329116D01*
X151350711Y-118250711D01*
X151350729Y-118250686D01*
X151350756Y-118250665D01*
X151357282Y-118244140D01*
X151358174Y-118245032D01*
X151406373Y-118208435D01*
X151476029Y-118202974D01*
X151537579Y-118236039D01*
X151571483Y-118297132D01*
X151574500Y-118324318D01*
X151574500Y-118725681D01*
X151554815Y-118792720D01*
X151502011Y-118838475D01*
X151432853Y-118848419D01*
X151369297Y-118819394D01*
X151350732Y-118799317D01*
X151350712Y-118799290D01*
X151350710Y-118799288D01*
X151244476Y-118720884D01*
X151119848Y-118677274D01*
X151119849Y-118677274D01*
X151090260Y-118674500D01*
X151090256Y-118674500D01*
X150509744Y-118674500D01*
X150509740Y-118674500D01*
X150480150Y-118677274D01*
X150355523Y-118720884D01*
X150249289Y-118799288D01*
X150249288Y-118799289D01*
X150175601Y-118899133D01*
X150119954Y-118941384D01*
X150075831Y-118949500D01*
X150024169Y-118949500D01*
X149957130Y-118929815D01*
X149924399Y-118899133D01*
X149850711Y-118799289D01*
X149850710Y-118799288D01*
X149744476Y-118720884D01*
X149619848Y-118677274D01*
X149619849Y-118677274D01*
X149590260Y-118674500D01*
X149590256Y-118674500D01*
X149009744Y-118674500D01*
X149009740Y-118674500D01*
X148980150Y-118677274D01*
X148855523Y-118720884D01*
X148749289Y-118799288D01*
X148749288Y-118799289D01*
X148675601Y-118899133D01*
X148619954Y-118941384D01*
X148575831Y-118949500D01*
X147814169Y-118949500D01*
X147747130Y-118929815D01*
X147714399Y-118899133D01*
X147640711Y-118799289D01*
X147640710Y-118799288D01*
X147534476Y-118720884D01*
X147409848Y-118677274D01*
X147409849Y-118677274D01*
X147380260Y-118674500D01*
X147380256Y-118674500D01*
X146799744Y-118674500D01*
X146799740Y-118674500D01*
X146770150Y-118677274D01*
X146645523Y-118720884D01*
X146539289Y-118799288D01*
X146539288Y-118799289D01*
X146465601Y-118899133D01*
X146409954Y-118941384D01*
X146365831Y-118949500D01*
X146324169Y-118949500D01*
X146257130Y-118929815D01*
X146224399Y-118899133D01*
X146150711Y-118799289D01*
X146150710Y-118799288D01*
X146044476Y-118720884D01*
X145919848Y-118677274D01*
X145919849Y-118677274D01*
X145890260Y-118674500D01*
X145890256Y-118674500D01*
X145309744Y-118674500D01*
X145309740Y-118674500D01*
X145280150Y-118677274D01*
X145155523Y-118720884D01*
X145049289Y-118799288D01*
X145049288Y-118799289D01*
X144975601Y-118899133D01*
X144919954Y-118941384D01*
X144875831Y-118949500D01*
X144174169Y-118949500D01*
X144107130Y-118929815D01*
X144074399Y-118899133D01*
X144000711Y-118799289D01*
X144000710Y-118799288D01*
X143894476Y-118720884D01*
X143769848Y-118677274D01*
X143769849Y-118677274D01*
X143740260Y-118674500D01*
X143740256Y-118674500D01*
X143159744Y-118674500D01*
X143159740Y-118674500D01*
X143130150Y-118677274D01*
X143005523Y-118720884D01*
X142899289Y-118799288D01*
X142899288Y-118799289D01*
X142825601Y-118899133D01*
X142769954Y-118941384D01*
X142725831Y-118949500D01*
X142674169Y-118949500D01*
X142607130Y-118929815D01*
X142574399Y-118899133D01*
X142500711Y-118799289D01*
X142500710Y-118799288D01*
X142394476Y-118720884D01*
X142269848Y-118677274D01*
X142269849Y-118677274D01*
X142240260Y-118674500D01*
X142240256Y-118674500D01*
X141659744Y-118674500D01*
X141659740Y-118674500D01*
X141630150Y-118677274D01*
X141505523Y-118720884D01*
X141399289Y-118799288D01*
X141399288Y-118799289D01*
X141325601Y-118899133D01*
X141269954Y-118941384D01*
X141225831Y-118949500D01*
X140474169Y-118949500D01*
X140407130Y-118929815D01*
X140374399Y-118899133D01*
X140300711Y-118799289D01*
X140300710Y-118799288D01*
X140194476Y-118720884D01*
X140069848Y-118677274D01*
X140069849Y-118677274D01*
X140040260Y-118674500D01*
X140040256Y-118674500D01*
X139459744Y-118674500D01*
X139459740Y-118674500D01*
X139430150Y-118677274D01*
X139305523Y-118720884D01*
X139199289Y-118799288D01*
X139199288Y-118799289D01*
X139125601Y-118899133D01*
X139069954Y-118941384D01*
X139025831Y-118949500D01*
X138974169Y-118949500D01*
X138907130Y-118929815D01*
X138874399Y-118899133D01*
X138800711Y-118799289D01*
X138800710Y-118799288D01*
X138694476Y-118720884D01*
X138569848Y-118677274D01*
X138569849Y-118677274D01*
X138540260Y-118674500D01*
X138540256Y-118674500D01*
X137959744Y-118674500D01*
X137959740Y-118674500D01*
X137930150Y-118677274D01*
X137805523Y-118720884D01*
X137699289Y-118799288D01*
X137699288Y-118799289D01*
X137625601Y-118899133D01*
X137569954Y-118941384D01*
X137525831Y-118949500D01*
X136674169Y-118949500D01*
X136607130Y-118929815D01*
X136574399Y-118899133D01*
X136500711Y-118799289D01*
X136500710Y-118799288D01*
X136394476Y-118720884D01*
X136269848Y-118677274D01*
X136269849Y-118677274D01*
X136240260Y-118674500D01*
X136240256Y-118674500D01*
X135659744Y-118674500D01*
X135659740Y-118674500D01*
X135630150Y-118677274D01*
X135505523Y-118720884D01*
X135399289Y-118799288D01*
X135399288Y-118799289D01*
X135325601Y-118899133D01*
X135269954Y-118941384D01*
X135225831Y-118949500D01*
X135174169Y-118949500D01*
X135107130Y-118929815D01*
X135074399Y-118899133D01*
X135000711Y-118799289D01*
X135000710Y-118799288D01*
X134894476Y-118720884D01*
X134769848Y-118677274D01*
X134769849Y-118677274D01*
X134740260Y-118674500D01*
X134740256Y-118674500D01*
X134159744Y-118674500D01*
X134159740Y-118674500D01*
X134130150Y-118677274D01*
X134005523Y-118720884D01*
X133899289Y-118799288D01*
X133899288Y-118799289D01*
X133820884Y-118905523D01*
X133777274Y-119030150D01*
X133774500Y-119059739D01*
X130325500Y-119059739D01*
X130325500Y-118672239D01*
X130322725Y-118642650D01*
X130279115Y-118518023D01*
X130200711Y-118411789D01*
X130200710Y-118411788D01*
X130094476Y-118333384D01*
X129969848Y-118289774D01*
X129969849Y-118289774D01*
X129940260Y-118287000D01*
X129940256Y-118287000D01*
X129359744Y-118287000D01*
X129359740Y-118287000D01*
X129330150Y-118289774D01*
X129205523Y-118333384D01*
X129099289Y-118411788D01*
X129099288Y-118411789D01*
X129020885Y-118518022D01*
X129017041Y-118529008D01*
X128976318Y-118585783D01*
X128911365Y-118611529D01*
X128842803Y-118598072D01*
X128792401Y-118549683D01*
X128782959Y-118529008D01*
X128779116Y-118518025D01*
X128700711Y-118411789D01*
X128700710Y-118411788D01*
X128594476Y-118333384D01*
X128469848Y-118289774D01*
X128469849Y-118289774D01*
X128440260Y-118287000D01*
X128440256Y-118287000D01*
X127859744Y-118287000D01*
X127859740Y-118287000D01*
X127830150Y-118289774D01*
X127705523Y-118333384D01*
X127599289Y-118411788D01*
X127599288Y-118411789D01*
X127520884Y-118518023D01*
X127520884Y-118518024D01*
X127477693Y-118641455D01*
X127436971Y-118698231D01*
X127372018Y-118723978D01*
X127360652Y-118724500D01*
X124486189Y-118724500D01*
X124419150Y-118704815D01*
X124398508Y-118688181D01*
X123861819Y-118151492D01*
X123828334Y-118090169D01*
X123825500Y-118063811D01*
X123825500Y-116880247D01*
X125199500Y-116880247D01*
X125199500Y-117919752D01*
X125211131Y-117978229D01*
X125211132Y-117978230D01*
X125255447Y-118044552D01*
X125321769Y-118088867D01*
X125321770Y-118088868D01*
X125380247Y-118100499D01*
X125380250Y-118100500D01*
X125380252Y-118100500D01*
X126419750Y-118100500D01*
X126419751Y-118100499D01*
X126434568Y-118097552D01*
X126478229Y-118088868D01*
X126478229Y-118088867D01*
X126478231Y-118088867D01*
X126544552Y-118044552D01*
X126588867Y-117978231D01*
X126588867Y-117978229D01*
X126588868Y-117978229D01*
X126600499Y-117919752D01*
X126600500Y-117919750D01*
X126600500Y-117152480D01*
X126604725Y-117120387D01*
X126607662Y-117109426D01*
X126625500Y-117042853D01*
X126625500Y-116563103D01*
X126645185Y-116496064D01*
X126697989Y-116450309D01*
X126708522Y-116446070D01*
X126756975Y-116429116D01*
X126863211Y-116350711D01*
X126941616Y-116244475D01*
X126985225Y-116119849D01*
X126986397Y-116107349D01*
X126988000Y-116090260D01*
X126988000Y-115509739D01*
X126985225Y-115480150D01*
X126956214Y-115397244D01*
X126941616Y-115355525D01*
X126941615Y-115355523D01*
X126880809Y-115273133D01*
X126856838Y-115207504D01*
X126872154Y-115139334D01*
X126921894Y-115090266D01*
X126980579Y-115075500D01*
X127444421Y-115075500D01*
X127511460Y-115095185D01*
X127557215Y-115147989D01*
X127567159Y-115217147D01*
X127544191Y-115273133D01*
X127483384Y-115355523D01*
X127439774Y-115480150D01*
X127437000Y-115509739D01*
X127437000Y-116090260D01*
X127439774Y-116119849D01*
X127483384Y-116244476D01*
X127561787Y-116350709D01*
X127561788Y-116350709D01*
X127561789Y-116350711D01*
X127600274Y-116379114D01*
X127605293Y-116382818D01*
X127647543Y-116438465D01*
X127653002Y-116508122D01*
X127619934Y-116569671D01*
X127605294Y-116582357D01*
X127599288Y-116586789D01*
X127520884Y-116693023D01*
X127477274Y-116817650D01*
X127474500Y-116847239D01*
X127474500Y-117452760D01*
X127477274Y-117482349D01*
X127520884Y-117606976D01*
X127599288Y-117713210D01*
X127599289Y-117713211D01*
X127705523Y-117791615D01*
X127705524Y-117791615D01*
X127705525Y-117791616D01*
X127830151Y-117835225D01*
X127830150Y-117835225D01*
X127859740Y-117838000D01*
X127859744Y-117838000D01*
X128440260Y-117838000D01*
X128469849Y-117835225D01*
X128532846Y-117813181D01*
X128594475Y-117791616D01*
X128700711Y-117713211D01*
X128779116Y-117606975D01*
X128782959Y-117595993D01*
X128823681Y-117539217D01*
X128888634Y-117513470D01*
X128957195Y-117526927D01*
X129007598Y-117575314D01*
X129017041Y-117595993D01*
X129020884Y-117606975D01*
X129020884Y-117606976D01*
X129099288Y-117713210D01*
X129099289Y-117713211D01*
X129205523Y-117791615D01*
X129205524Y-117791615D01*
X129205525Y-117791616D01*
X129330151Y-117835225D01*
X129330150Y-117835225D01*
X129359740Y-117838000D01*
X129359744Y-117838000D01*
X129940260Y-117838000D01*
X129969849Y-117835225D01*
X130032846Y-117813181D01*
X130094475Y-117791616D01*
X130200711Y-117713211D01*
X130279116Y-117606975D01*
X130322725Y-117482349D01*
X130325500Y-117452756D01*
X130325500Y-116847244D01*
X130323977Y-116831007D01*
X130322725Y-116817650D01*
X130287371Y-116716616D01*
X130279116Y-116693025D01*
X130275624Y-116688294D01*
X130200712Y-116586790D01*
X130200709Y-116586788D01*
X130153214Y-116551735D01*
X130123332Y-116529681D01*
X130081082Y-116474033D01*
X130075623Y-116404377D01*
X130108691Y-116342828D01*
X130123316Y-116330154D01*
X130163211Y-116300711D01*
X130241616Y-116194475D01*
X130285225Y-116069849D01*
X130288000Y-116040260D01*
X130288000Y-115459739D01*
X130285225Y-115430150D01*
X130252542Y-115336750D01*
X130241616Y-115305525D01*
X130241615Y-115305523D01*
X130204817Y-115255663D01*
X130180846Y-115190034D01*
X130196162Y-115121864D01*
X130245902Y-115072796D01*
X130314274Y-115058409D01*
X130345541Y-115064988D01*
X130367651Y-115072725D01*
X130373569Y-115073280D01*
X130397240Y-115075500D01*
X130707520Y-115075500D01*
X130774559Y-115095185D01*
X130820314Y-115147989D01*
X130830258Y-115217147D01*
X130807290Y-115273132D01*
X130787831Y-115299500D01*
X130783384Y-115305525D01*
X130739774Y-115430150D01*
X130737000Y-115459739D01*
X130737000Y-116040260D01*
X130739774Y-116069849D01*
X130783384Y-116194476D01*
X130861788Y-116300710D01*
X130861789Y-116300711D01*
X130966187Y-116377760D01*
X130968025Y-116379116D01*
X131016457Y-116396063D01*
X131073230Y-116436782D01*
X131098978Y-116501735D01*
X131099500Y-116513103D01*
X131099500Y-116882147D01*
X131099500Y-116967853D01*
X131102822Y-116980252D01*
X131121682Y-117050640D01*
X131132510Y-117069394D01*
X131161951Y-117120387D01*
X131164536Y-117124863D01*
X131263181Y-117223507D01*
X131296666Y-117284830D01*
X131299500Y-117311189D01*
X131299500Y-118019752D01*
X131311131Y-118078229D01*
X131311132Y-118078230D01*
X131355447Y-118144552D01*
X131421769Y-118188867D01*
X131421770Y-118188868D01*
X131480247Y-118200499D01*
X131480250Y-118200500D01*
X131480252Y-118200500D01*
X132519750Y-118200500D01*
X132519751Y-118200499D01*
X132534568Y-118197552D01*
X132578229Y-118188868D01*
X132578229Y-118188867D01*
X132578231Y-118188867D01*
X132644552Y-118144552D01*
X132688867Y-118078231D01*
X132688867Y-118078229D01*
X132688868Y-118078229D01*
X132700499Y-118019752D01*
X132700500Y-118019750D01*
X132700500Y-117309739D01*
X133774500Y-117309739D01*
X133774500Y-117990260D01*
X133777274Y-118019849D01*
X133820884Y-118144476D01*
X133899288Y-118250710D01*
X133899289Y-118250711D01*
X134005523Y-118329115D01*
X134005524Y-118329115D01*
X134005525Y-118329116D01*
X134130151Y-118372725D01*
X134130150Y-118372725D01*
X134159740Y-118375500D01*
X134159744Y-118375500D01*
X134740260Y-118375500D01*
X134769849Y-118372725D01*
X134786956Y-118366739D01*
X134894475Y-118329116D01*
X135000711Y-118250711D01*
X135046354Y-118188867D01*
X135074399Y-118150867D01*
X135130046Y-118108616D01*
X135174169Y-118100500D01*
X135225831Y-118100500D01*
X135292870Y-118120185D01*
X135325601Y-118150867D01*
X135399288Y-118250710D01*
X135399289Y-118250711D01*
X135505523Y-118329115D01*
X135505524Y-118329115D01*
X135505525Y-118329116D01*
X135630151Y-118372725D01*
X135630150Y-118372725D01*
X135659740Y-118375500D01*
X135659744Y-118375500D01*
X136240260Y-118375500D01*
X136269849Y-118372725D01*
X136286956Y-118366739D01*
X136394475Y-118329116D01*
X136500711Y-118250711D01*
X136579116Y-118144475D01*
X136622725Y-118019849D01*
X136624034Y-118005888D01*
X136625500Y-117990260D01*
X136625500Y-117309739D01*
X137574500Y-117309739D01*
X137574500Y-117990260D01*
X137577274Y-118019849D01*
X137620884Y-118144476D01*
X137699288Y-118250710D01*
X137699289Y-118250711D01*
X137805523Y-118329115D01*
X137805524Y-118329115D01*
X137805525Y-118329116D01*
X137930151Y-118372725D01*
X137930150Y-118372725D01*
X137959740Y-118375500D01*
X137959744Y-118375500D01*
X138540260Y-118375500D01*
X138569849Y-118372725D01*
X138586956Y-118366739D01*
X138694475Y-118329116D01*
X138800711Y-118250711D01*
X138846354Y-118188867D01*
X138874399Y-118150867D01*
X138930046Y-118108616D01*
X138974169Y-118100500D01*
X139025831Y-118100500D01*
X139092870Y-118120185D01*
X139125601Y-118150867D01*
X139199288Y-118250710D01*
X139199289Y-118250711D01*
X139305523Y-118329115D01*
X139305524Y-118329115D01*
X139305525Y-118329116D01*
X139430151Y-118372725D01*
X139430150Y-118372725D01*
X139459740Y-118375500D01*
X139459744Y-118375500D01*
X140040260Y-118375500D01*
X140069849Y-118372725D01*
X140086956Y-118366739D01*
X140194475Y-118329116D01*
X140300711Y-118250711D01*
X140379116Y-118144475D01*
X140422725Y-118019849D01*
X140424034Y-118005888D01*
X140425500Y-117990260D01*
X140425500Y-117309739D01*
X141274500Y-117309739D01*
X141274500Y-117990260D01*
X141277274Y-118019849D01*
X141320884Y-118144476D01*
X141399288Y-118250710D01*
X141399289Y-118250711D01*
X141505523Y-118329115D01*
X141505524Y-118329115D01*
X141505525Y-118329116D01*
X141630151Y-118372725D01*
X141630150Y-118372725D01*
X141659740Y-118375500D01*
X141659744Y-118375500D01*
X142240260Y-118375500D01*
X142269849Y-118372725D01*
X142286956Y-118366739D01*
X142394475Y-118329116D01*
X142500711Y-118250711D01*
X142546354Y-118188867D01*
X142574399Y-118150867D01*
X142630046Y-118108616D01*
X142674169Y-118100500D01*
X142725831Y-118100500D01*
X142792870Y-118120185D01*
X142825601Y-118150867D01*
X142899288Y-118250710D01*
X142899289Y-118250711D01*
X143005523Y-118329115D01*
X143005524Y-118329115D01*
X143005525Y-118329116D01*
X143130151Y-118372725D01*
X143130150Y-118372725D01*
X143159740Y-118375500D01*
X143159744Y-118375500D01*
X143740260Y-118375500D01*
X143769849Y-118372725D01*
X143786956Y-118366739D01*
X143894475Y-118329116D01*
X144000711Y-118250711D01*
X144079116Y-118144475D01*
X144122725Y-118019849D01*
X144124034Y-118005888D01*
X144125500Y-117990260D01*
X144125500Y-117309739D01*
X144924500Y-117309739D01*
X144924500Y-117990260D01*
X144927274Y-118019849D01*
X144970884Y-118144476D01*
X145049288Y-118250710D01*
X145049289Y-118250711D01*
X145155523Y-118329115D01*
X145155524Y-118329115D01*
X145155525Y-118329116D01*
X145280151Y-118372725D01*
X145280150Y-118372725D01*
X145309740Y-118375500D01*
X145309744Y-118375500D01*
X145890260Y-118375500D01*
X145919849Y-118372725D01*
X145936956Y-118366739D01*
X146044475Y-118329116D01*
X146150711Y-118250711D01*
X146196354Y-118188867D01*
X146224399Y-118150867D01*
X146280046Y-118108616D01*
X146324169Y-118100500D01*
X146365831Y-118100500D01*
X146432870Y-118120185D01*
X146465601Y-118150867D01*
X146539288Y-118250710D01*
X146539289Y-118250711D01*
X146645523Y-118329115D01*
X146645524Y-118329115D01*
X146645525Y-118329116D01*
X146770151Y-118372725D01*
X146770150Y-118372725D01*
X146799740Y-118375500D01*
X146799744Y-118375500D01*
X147380260Y-118375500D01*
X147409849Y-118372725D01*
X147426956Y-118366739D01*
X147534475Y-118329116D01*
X147640711Y-118250711D01*
X147719116Y-118144475D01*
X147762725Y-118019849D01*
X147764034Y-118005888D01*
X147765500Y-117990260D01*
X147765500Y-117309739D01*
X147762725Y-117280150D01*
X147720963Y-117160803D01*
X147719116Y-117155525D01*
X147700660Y-117130518D01*
X147640711Y-117049289D01*
X147640710Y-117049288D01*
X147534476Y-116970884D01*
X147409848Y-116927274D01*
X147409849Y-116927274D01*
X147380260Y-116924500D01*
X147380256Y-116924500D01*
X146924500Y-116924500D01*
X146857461Y-116904815D01*
X146811706Y-116852011D01*
X146800500Y-116800500D01*
X146800500Y-116449767D01*
X146820185Y-116382728D01*
X146850863Y-116349999D01*
X146900711Y-116313211D01*
X146979116Y-116206975D01*
X147022725Y-116082349D01*
X147025500Y-116052756D01*
X147025500Y-115447244D01*
X147025069Y-115442651D01*
X147022725Y-115417650D01*
X146994416Y-115336750D01*
X146979116Y-115293025D01*
X146978269Y-115291878D01*
X146900711Y-115186789D01*
X146900710Y-115186788D01*
X146794476Y-115108384D01*
X146669848Y-115064774D01*
X146669849Y-115064774D01*
X146640260Y-115062000D01*
X146640256Y-115062000D01*
X146059744Y-115062000D01*
X146059740Y-115062000D01*
X146030150Y-115064774D01*
X145905523Y-115108384D01*
X145799289Y-115186788D01*
X145799288Y-115186789D01*
X145720884Y-115293023D01*
X145677274Y-115417650D01*
X145674500Y-115447239D01*
X145674500Y-116052760D01*
X145677274Y-116082349D01*
X145720884Y-116206976D01*
X145781658Y-116289321D01*
X145799289Y-116313211D01*
X145849134Y-116349998D01*
X145891384Y-116405643D01*
X145899500Y-116449767D01*
X145899500Y-116800500D01*
X145879815Y-116867539D01*
X145827011Y-116913294D01*
X145775500Y-116924500D01*
X145309740Y-116924500D01*
X145280150Y-116927274D01*
X145155523Y-116970884D01*
X145049289Y-117049288D01*
X145049288Y-117049289D01*
X144970884Y-117155523D01*
X144927274Y-117280150D01*
X144924500Y-117309739D01*
X144125500Y-117309739D01*
X144122725Y-117280150D01*
X144080963Y-117160803D01*
X144079116Y-117155525D01*
X144060660Y-117130518D01*
X144000711Y-117049289D01*
X144000710Y-117049288D01*
X143894476Y-116970884D01*
X143769848Y-116927274D01*
X143769849Y-116927274D01*
X143740260Y-116924500D01*
X143740256Y-116924500D01*
X143324500Y-116924500D01*
X143257461Y-116904815D01*
X143211706Y-116852011D01*
X143200500Y-116800500D01*
X143200500Y-116399767D01*
X143220185Y-116332728D01*
X143250863Y-116299999D01*
X143300711Y-116263211D01*
X143379116Y-116156975D01*
X143422725Y-116032349D01*
X143425500Y-116002756D01*
X143425500Y-115397244D01*
X143425311Y-115395231D01*
X143422725Y-115367650D01*
X143394504Y-115287000D01*
X143379116Y-115243025D01*
X143360017Y-115217147D01*
X143300711Y-115136789D01*
X143300710Y-115136788D01*
X143194476Y-115058384D01*
X143069848Y-115014774D01*
X143069849Y-115014774D01*
X143040260Y-115012000D01*
X143040256Y-115012000D01*
X142459744Y-115012000D01*
X142459740Y-115012000D01*
X142430150Y-115014774D01*
X142305523Y-115058384D01*
X142199289Y-115136788D01*
X142199288Y-115136789D01*
X142120884Y-115243023D01*
X142077274Y-115367650D01*
X142074500Y-115397239D01*
X142074500Y-116002760D01*
X142077274Y-116032349D01*
X142120884Y-116156976D01*
X142169400Y-116222713D01*
X142199289Y-116263211D01*
X142249134Y-116299998D01*
X142291384Y-116355643D01*
X142299500Y-116399767D01*
X142299500Y-116800500D01*
X142279815Y-116867539D01*
X142227011Y-116913294D01*
X142175500Y-116924500D01*
X141659740Y-116924500D01*
X141630150Y-116927274D01*
X141505523Y-116970884D01*
X141399289Y-117049288D01*
X141399288Y-117049289D01*
X141320884Y-117155523D01*
X141277274Y-117280150D01*
X141274500Y-117309739D01*
X140425500Y-117309739D01*
X140422725Y-117280150D01*
X140380963Y-117160803D01*
X140379116Y-117155525D01*
X140360660Y-117130518D01*
X140300711Y-117049289D01*
X140300710Y-117049288D01*
X140194476Y-116970884D01*
X140069848Y-116927274D01*
X140069849Y-116927274D01*
X140040260Y-116924500D01*
X140040256Y-116924500D01*
X139574500Y-116924500D01*
X139507461Y-116904815D01*
X139461706Y-116852011D01*
X139450500Y-116800500D01*
X139450500Y-116399767D01*
X139470185Y-116332728D01*
X139500863Y-116299999D01*
X139550711Y-116263211D01*
X139629116Y-116156975D01*
X139672725Y-116032349D01*
X139675500Y-116002756D01*
X139675500Y-115397244D01*
X139675311Y-115395231D01*
X139672725Y-115367650D01*
X139644504Y-115287000D01*
X139629116Y-115243025D01*
X139610017Y-115217147D01*
X139550711Y-115136789D01*
X139550710Y-115136788D01*
X139444476Y-115058384D01*
X139319848Y-115014774D01*
X139319849Y-115014774D01*
X139290260Y-115012000D01*
X139290256Y-115012000D01*
X138709744Y-115012000D01*
X138709740Y-115012000D01*
X138680150Y-115014774D01*
X138555523Y-115058384D01*
X138449289Y-115136788D01*
X138449288Y-115136789D01*
X138370884Y-115243023D01*
X138327274Y-115367650D01*
X138324500Y-115397239D01*
X138324500Y-116002760D01*
X138327274Y-116032349D01*
X138370884Y-116156976D01*
X138419400Y-116222713D01*
X138449289Y-116263211D01*
X138499134Y-116299998D01*
X138541384Y-116355643D01*
X138549500Y-116399767D01*
X138549500Y-116800500D01*
X138529815Y-116867539D01*
X138477011Y-116913294D01*
X138425500Y-116924500D01*
X137959740Y-116924500D01*
X137930150Y-116927274D01*
X137805523Y-116970884D01*
X137699289Y-117049288D01*
X137699288Y-117049289D01*
X137620884Y-117155523D01*
X137577274Y-117280150D01*
X137574500Y-117309739D01*
X136625500Y-117309739D01*
X136622725Y-117280150D01*
X136580963Y-117160803D01*
X136579116Y-117155525D01*
X136560660Y-117130518D01*
X136500711Y-117049289D01*
X136500710Y-117049288D01*
X136394476Y-116970884D01*
X136269848Y-116927274D01*
X136269849Y-116927274D01*
X136240260Y-116924500D01*
X136240256Y-116924500D01*
X135774500Y-116924500D01*
X135707461Y-116904815D01*
X135661706Y-116852011D01*
X135650500Y-116800500D01*
X135650500Y-116474767D01*
X135670185Y-116407728D01*
X135700863Y-116374999D01*
X135750711Y-116338211D01*
X135829116Y-116231975D01*
X135872725Y-116107349D01*
X135873156Y-116102756D01*
X135875500Y-116077760D01*
X135875500Y-115472239D01*
X135872725Y-115442650D01*
X135846481Y-115367650D01*
X135829116Y-115318025D01*
X135819889Y-115305523D01*
X135750711Y-115211789D01*
X135750710Y-115211788D01*
X135644476Y-115133384D01*
X135519848Y-115089774D01*
X135519849Y-115089774D01*
X135490260Y-115087000D01*
X135490256Y-115087000D01*
X134909744Y-115087000D01*
X134909740Y-115087000D01*
X134880150Y-115089774D01*
X134755523Y-115133384D01*
X134649289Y-115211788D01*
X134649288Y-115211789D01*
X134570884Y-115318023D01*
X134527274Y-115442650D01*
X134524500Y-115472239D01*
X134524500Y-116077760D01*
X134527274Y-116107349D01*
X134570884Y-116231976D01*
X134593937Y-116263211D01*
X134649289Y-116338211D01*
X134699134Y-116374998D01*
X134741384Y-116430643D01*
X134749500Y-116474767D01*
X134749500Y-116800500D01*
X134729815Y-116867539D01*
X134677011Y-116913294D01*
X134625500Y-116924500D01*
X134159740Y-116924500D01*
X134130150Y-116927274D01*
X134005523Y-116970884D01*
X133899289Y-117049288D01*
X133899288Y-117049289D01*
X133820884Y-117155523D01*
X133777274Y-117280150D01*
X133774500Y-117309739D01*
X132700500Y-117309739D01*
X132700500Y-116980249D01*
X132700499Y-116980247D01*
X132688868Y-116921770D01*
X132688867Y-116921769D01*
X132644552Y-116855447D01*
X132578230Y-116811132D01*
X132578229Y-116811131D01*
X132519752Y-116799500D01*
X132519748Y-116799500D01*
X131874500Y-116799500D01*
X131807461Y-116779815D01*
X131761706Y-116727011D01*
X131750500Y-116675500D01*
X131750500Y-116513103D01*
X131770185Y-116446064D01*
X131822989Y-116400309D01*
X131833522Y-116396070D01*
X131881975Y-116379116D01*
X131988211Y-116300711D01*
X132066616Y-116194475D01*
X132110225Y-116069849D01*
X132113000Y-116040260D01*
X132113000Y-115459739D01*
X132110225Y-115430150D01*
X132077542Y-115336750D01*
X132066616Y-115305525D01*
X132062169Y-115299500D01*
X131988211Y-115199289D01*
X131988210Y-115199288D01*
X131881976Y-115120884D01*
X131757348Y-115077274D01*
X131757349Y-115077274D01*
X131727760Y-115074500D01*
X131727756Y-115074500D01*
X131417480Y-115074500D01*
X131350441Y-115054815D01*
X131304686Y-115002011D01*
X131294742Y-114932853D01*
X131317709Y-114876867D01*
X131341616Y-114844475D01*
X131385225Y-114719849D01*
X131387037Y-114700529D01*
X131388000Y-114690260D01*
X131388000Y-114109739D01*
X131385225Y-114080150D01*
X131360952Y-114010783D01*
X131341616Y-113955525D01*
X131340496Y-113954008D01*
X131263211Y-113849289D01*
X131263210Y-113849288D01*
X131156976Y-113770884D01*
X131032348Y-113727274D01*
X131032349Y-113727274D01*
X131002760Y-113724500D01*
X131002756Y-113724500D01*
X130397244Y-113724500D01*
X130397240Y-113724500D01*
X130367651Y-113727274D01*
X130243022Y-113770885D01*
X130235207Y-113775015D01*
X130166737Y-113788930D01*
X130103645Y-113765151D01*
X130094479Y-113758386D01*
X130094473Y-113758383D01*
X129969848Y-113714774D01*
X129969849Y-113714774D01*
X129940260Y-113712000D01*
X129940256Y-113712000D01*
X129359744Y-113712000D01*
X129359740Y-113712000D01*
X129330150Y-113714774D01*
X129205523Y-113758384D01*
X129099289Y-113836788D01*
X129099288Y-113836789D01*
X129020885Y-113943022D01*
X129017041Y-113954008D01*
X128976318Y-114010783D01*
X128911365Y-114036529D01*
X128842803Y-114023072D01*
X128792401Y-113974683D01*
X128782959Y-113954008D01*
X128779116Y-113943025D01*
X128700711Y-113836789D01*
X128700710Y-113836788D01*
X128594476Y-113758384D01*
X128469848Y-113714774D01*
X128469849Y-113714774D01*
X128440260Y-113712000D01*
X128440256Y-113712000D01*
X127859744Y-113712000D01*
X127859740Y-113712000D01*
X127830151Y-113714774D01*
X127704342Y-113758797D01*
X127634564Y-113762358D01*
X127622433Y-113758796D01*
X127532351Y-113727275D01*
X127532349Y-113727274D01*
X127502760Y-113724500D01*
X127502756Y-113724500D01*
X126897244Y-113724500D01*
X126897240Y-113724500D01*
X126867650Y-113727274D01*
X126743023Y-113770884D01*
X126636789Y-113849288D01*
X126636788Y-113849289D01*
X126558384Y-113955523D01*
X126514774Y-114080150D01*
X126512000Y-114109739D01*
X126512000Y-114690260D01*
X126514774Y-114719849D01*
X126558384Y-114844476D01*
X126619191Y-114926867D01*
X126643162Y-114992496D01*
X126627846Y-115060666D01*
X126578106Y-115109734D01*
X126519421Y-115124500D01*
X125997240Y-115124500D01*
X125967650Y-115127274D01*
X125843023Y-115170884D01*
X125736789Y-115249288D01*
X125736788Y-115249289D01*
X125658384Y-115355523D01*
X125614774Y-115480150D01*
X125612000Y-115509739D01*
X125612000Y-116090260D01*
X125614774Y-116119849D01*
X125658384Y-116244476D01*
X125736788Y-116350710D01*
X125736789Y-116350711D01*
X125832694Y-116421492D01*
X125843025Y-116429116D01*
X125891457Y-116446063D01*
X125948230Y-116486782D01*
X125973978Y-116551735D01*
X125974500Y-116563103D01*
X125974500Y-116575500D01*
X125954815Y-116642539D01*
X125902011Y-116688294D01*
X125850500Y-116699500D01*
X125380247Y-116699500D01*
X125321770Y-116711131D01*
X125321769Y-116711132D01*
X125255447Y-116755447D01*
X125211132Y-116821769D01*
X125211131Y-116821770D01*
X125199500Y-116880247D01*
X123825500Y-116880247D01*
X123825500Y-113195242D01*
X123845185Y-113128203D01*
X123891875Y-113085445D01*
X123900852Y-113080734D01*
X124028183Y-112967929D01*
X124124818Y-112827930D01*
X124185140Y-112668872D01*
X124205645Y-112500000D01*
X124185140Y-112331128D01*
X124184782Y-112330185D01*
X124146845Y-112230151D01*
X124124818Y-112172070D01*
X124113396Y-112155523D01*
X124058160Y-112075500D01*
X124028183Y-112032071D01*
X123991179Y-111999288D01*
X123942273Y-111955961D01*
X123905146Y-111896772D01*
X123900500Y-111863146D01*
X123900500Y-111817255D01*
X123920185Y-111750216D01*
X123936819Y-111729574D01*
X124229574Y-111436819D01*
X124290897Y-111403334D01*
X124317255Y-111400500D01*
X128460263Y-111400500D01*
X128460265Y-111400500D01*
X128562126Y-111373207D01*
X128653451Y-111320480D01*
X129987112Y-109986819D01*
X130048435Y-109953334D01*
X130074793Y-109950500D01*
X130329270Y-109950500D01*
X130359699Y-109947646D01*
X130359701Y-109947646D01*
X130423790Y-109925219D01*
X130487882Y-109902793D01*
X130597150Y-109822150D01*
X130677793Y-109712882D01*
X130699274Y-109651492D01*
X130705555Y-109633544D01*
X130746277Y-109576769D01*
X130811230Y-109551022D01*
X130822596Y-109550500D01*
X133302725Y-109550500D01*
X133302727Y-109550500D01*
X133404588Y-109523207D01*
X133495913Y-109470480D01*
X133976056Y-108990336D01*
X134037377Y-108956853D01*
X134107068Y-108961837D01*
X134141074Y-108983691D01*
X134141812Y-108982693D01*
X134255523Y-109066615D01*
X134255524Y-109066615D01*
X134255525Y-109066616D01*
X134380151Y-109110225D01*
X134380150Y-109110225D01*
X134409740Y-109113000D01*
X134409744Y-109113000D01*
X134990260Y-109113000D01*
X135019849Y-109110225D01*
X135144475Y-109066616D01*
X135250711Y-108988211D01*
X135278272Y-108950865D01*
X135333919Y-108908616D01*
X135378042Y-108900500D01*
X135852725Y-108900500D01*
X135852727Y-108900500D01*
X135918408Y-108882901D01*
X135988257Y-108884564D01*
X136046119Y-108923727D01*
X136073623Y-108987955D01*
X136074500Y-109002676D01*
X136074500Y-109563811D01*
X136054815Y-109630850D01*
X136038181Y-109651492D01*
X135401492Y-110288181D01*
X135340169Y-110321666D01*
X135313811Y-110324500D01*
X130157147Y-110324500D01*
X130074359Y-110346682D01*
X130000138Y-110389535D01*
X130000135Y-110389537D01*
X128538540Y-111851131D01*
X128477217Y-111884616D01*
X128443173Y-111886675D01*
X128443152Y-111887135D01*
X128440267Y-111887000D01*
X128440256Y-111887000D01*
X127859744Y-111887000D01*
X127859740Y-111887000D01*
X127830150Y-111889774D01*
X127705526Y-111933383D01*
X127697308Y-111937727D01*
X127696277Y-111935778D01*
X127642522Y-111955403D01*
X127593582Y-111948701D01*
X127532356Y-111927276D01*
X127532344Y-111927274D01*
X127502760Y-111924500D01*
X127502756Y-111924500D01*
X126797244Y-111924500D01*
X126797240Y-111924500D01*
X126767650Y-111927274D01*
X126643023Y-111970884D01*
X126536789Y-112049288D01*
X126536788Y-112049289D01*
X126458384Y-112155523D01*
X126414774Y-112280150D01*
X126412000Y-112309739D01*
X126412000Y-112890260D01*
X126414774Y-112919849D01*
X126458384Y-113044476D01*
X126536788Y-113150710D01*
X126536789Y-113150711D01*
X126643023Y-113229115D01*
X126643024Y-113229115D01*
X126643025Y-113229116D01*
X126767651Y-113272725D01*
X126767650Y-113272725D01*
X126797240Y-113275500D01*
X126797244Y-113275500D01*
X127502760Y-113275500D01*
X127526430Y-113273280D01*
X127532349Y-113272725D01*
X127656975Y-113229116D01*
X127656977Y-113229113D01*
X127658155Y-113228702D01*
X127727934Y-113225139D01*
X127740045Y-113228695D01*
X127830151Y-113260225D01*
X127836069Y-113260780D01*
X127859740Y-113263000D01*
X127859744Y-113263000D01*
X128440260Y-113263000D01*
X128469849Y-113260225D01*
X128482909Y-113255655D01*
X128594475Y-113216616D01*
X128700711Y-113138211D01*
X128779116Y-113031975D01*
X128782959Y-113020993D01*
X128823681Y-112964217D01*
X128888634Y-112938470D01*
X128957195Y-112951927D01*
X129007598Y-113000314D01*
X129017041Y-113020993D01*
X129020884Y-113031975D01*
X129020884Y-113031976D01*
X129099288Y-113138210D01*
X129099289Y-113138211D01*
X129205523Y-113216615D01*
X129205524Y-113216615D01*
X129205525Y-113216616D01*
X129330151Y-113260225D01*
X129330150Y-113260225D01*
X129359740Y-113263000D01*
X129359744Y-113263000D01*
X129940260Y-113263000D01*
X129969849Y-113260225D01*
X129982909Y-113255655D01*
X130094475Y-113216616D01*
X130133815Y-113187581D01*
X130199441Y-113163611D01*
X130259136Y-113176385D01*
X130259255Y-113176047D01*
X130261929Y-113176982D01*
X130265393Y-113177724D01*
X130268022Y-113179113D01*
X130268025Y-113179116D01*
X130292028Y-113187515D01*
X130392651Y-113222725D01*
X130392650Y-113222725D01*
X130422240Y-113225500D01*
X130422244Y-113225500D01*
X131127760Y-113225500D01*
X131157349Y-113222725D01*
X131174810Y-113216615D01*
X131281975Y-113179116D01*
X131388211Y-113100711D01*
X131466616Y-112994475D01*
X131510225Y-112869849D01*
X131513000Y-112840256D01*
X131513000Y-112259744D01*
X131510225Y-112230151D01*
X131466616Y-112105525D01*
X131462710Y-112100233D01*
X131388211Y-111999289D01*
X131388210Y-111999288D01*
X131281976Y-111920884D01*
X131157348Y-111877274D01*
X131157349Y-111877274D01*
X131127760Y-111874500D01*
X131127756Y-111874500D01*
X130685188Y-111874500D01*
X130618149Y-111854815D01*
X130572394Y-111802011D01*
X130562450Y-111732853D01*
X130591475Y-111669297D01*
X130597507Y-111662819D01*
X130798507Y-111461819D01*
X130859830Y-111428334D01*
X130886188Y-111425500D01*
X135729247Y-111425500D01*
X135729249Y-111425500D01*
X135812035Y-111403318D01*
X135886258Y-111360465D01*
X137039652Y-110207068D01*
X137039657Y-110207065D01*
X137049860Y-110196861D01*
X137049862Y-110196861D01*
X137110465Y-110136258D01*
X137153318Y-110062034D01*
X137175501Y-109979248D01*
X137175501Y-109893543D01*
X137175501Y-109885948D01*
X137175500Y-109885930D01*
X137175500Y-109019461D01*
X137195185Y-108952422D01*
X137211818Y-108931781D01*
X137220099Y-108923500D01*
X137252561Y-108891037D01*
X137313881Y-108857553D01*
X137383573Y-108862537D01*
X137439507Y-108904407D01*
X137463925Y-108969871D01*
X137463337Y-108993665D01*
X137445827Y-109137874D01*
X137444355Y-109150000D01*
X137447643Y-109177080D01*
X137464859Y-109318869D01*
X137464860Y-109318874D01*
X137525182Y-109477931D01*
X137575273Y-109550499D01*
X137621817Y-109617929D01*
X137706949Y-109693349D01*
X137749150Y-109730736D01*
X137899773Y-109809789D01*
X137899775Y-109809790D01*
X138064944Y-109850500D01*
X138235056Y-109850500D01*
X138400225Y-109809790D01*
X138529488Y-109741947D01*
X138550849Y-109730736D01*
X138550850Y-109730734D01*
X138550852Y-109730734D01*
X138678183Y-109617929D01*
X138774818Y-109477930D01*
X138835140Y-109318872D01*
X138855645Y-109150000D01*
X138835140Y-108981128D01*
X138774818Y-108822070D01*
X138773720Y-108820480D01*
X138716498Y-108737579D01*
X138694615Y-108671225D01*
X138712080Y-108603573D01*
X138730863Y-108579463D01*
X139248508Y-108061819D01*
X139309831Y-108028334D01*
X139336189Y-108025500D01*
X139533575Y-108025500D01*
X139567984Y-108032344D01*
X139568027Y-108032133D01*
X139636089Y-108045670D01*
X139660367Y-108050500D01*
X141039632Y-108050499D01*
X141119995Y-108034515D01*
X141211124Y-107973624D01*
X141272015Y-107882495D01*
X141288000Y-107802133D01*
X141287999Y-107597868D01*
X141272015Y-107517505D01*
X141272013Y-107517502D01*
X141267341Y-107506222D01*
X141268785Y-107505623D01*
X141252063Y-107452211D01*
X141268017Y-107394056D01*
X141267342Y-107393777D01*
X141269570Y-107388396D01*
X141270549Y-107384831D01*
X141271952Y-107382647D01*
X141272016Y-107382493D01*
X141287999Y-107302136D01*
X141288000Y-107302133D01*
X141287999Y-107097868D01*
X141272015Y-107017505D01*
X141272013Y-107017502D01*
X141267341Y-107006222D01*
X141268785Y-107005623D01*
X141252063Y-106952211D01*
X141268017Y-106894056D01*
X141267342Y-106893777D01*
X141269570Y-106888396D01*
X141270549Y-106884831D01*
X141271952Y-106882647D01*
X141272016Y-106882493D01*
X141287999Y-106802136D01*
X141288000Y-106802133D01*
X141287999Y-106597868D01*
X141272015Y-106517505D01*
X141272013Y-106517502D01*
X141267341Y-106506222D01*
X141268785Y-106505623D01*
X141252063Y-106452211D01*
X141268017Y-106394056D01*
X141267342Y-106393777D01*
X141269570Y-106388396D01*
X141270549Y-106384831D01*
X141271952Y-106382647D01*
X141272016Y-106382493D01*
X141287325Y-106305525D01*
X141288000Y-106302133D01*
X141287999Y-106097868D01*
X141272015Y-106017505D01*
X141251563Y-105986896D01*
X141211124Y-105926375D01*
X141156495Y-105889874D01*
X141119995Y-105865485D01*
X141119993Y-105865484D01*
X141119990Y-105865483D01*
X141039637Y-105849500D01*
X141039633Y-105849500D01*
X140396145Y-105849500D01*
X140396144Y-105849500D01*
X138377142Y-105849500D01*
X138315142Y-105832887D01*
X138304589Y-105826794D01*
X138304588Y-105826793D01*
X138304587Y-105826793D01*
X138202727Y-105799500D01*
X138152727Y-105799500D01*
X138047273Y-105799500D01*
X137945410Y-105826793D01*
X137854087Y-105879520D01*
X137854084Y-105879522D01*
X135670426Y-108063181D01*
X135609103Y-108096666D01*
X135582745Y-108099500D01*
X135495661Y-108099500D01*
X135428622Y-108079815D01*
X135382867Y-108027011D01*
X135375585Y-107999746D01*
X135374335Y-108000020D01*
X135372725Y-107992651D01*
X135366067Y-107973624D01*
X135329116Y-107868025D01*
X135262564Y-107777850D01*
X135250711Y-107761789D01*
X135250710Y-107761788D01*
X135144476Y-107683384D01*
X135019848Y-107639774D01*
X135019849Y-107639774D01*
X134990260Y-107637000D01*
X134990256Y-107637000D01*
X134409744Y-107637000D01*
X134409740Y-107637000D01*
X134380150Y-107639774D01*
X134255523Y-107683384D01*
X134149289Y-107761788D01*
X134149288Y-107761789D01*
X134070884Y-107868023D01*
X134027274Y-107992651D01*
X134025665Y-108000020D01*
X134022885Y-107999412D01*
X134001933Y-108051995D01*
X133945084Y-108092615D01*
X133904339Y-108099500D01*
X133847273Y-108099500D01*
X133745410Y-108126793D01*
X133654087Y-108179520D01*
X133654084Y-108179522D01*
X133120426Y-108713181D01*
X133059103Y-108746666D01*
X133032745Y-108749500D01*
X130849500Y-108749500D01*
X130782461Y-108729815D01*
X130736706Y-108677011D01*
X130725500Y-108625500D01*
X130725500Y-108045730D01*
X130722646Y-108015300D01*
X130722646Y-108015298D01*
X130677793Y-107887119D01*
X130677792Y-107887117D01*
X130672087Y-107879387D01*
X130597150Y-107777850D01*
X130487882Y-107697207D01*
X130487880Y-107697206D01*
X130359700Y-107652353D01*
X130329270Y-107649500D01*
X130329266Y-107649500D01*
X129270734Y-107649500D01*
X129270730Y-107649500D01*
X129240300Y-107652353D01*
X129240298Y-107652353D01*
X129112119Y-107697206D01*
X129112117Y-107697207D01*
X129002850Y-107777850D01*
X128922207Y-107887117D01*
X128922206Y-107887119D01*
X128877353Y-108015298D01*
X128877353Y-108015300D01*
X128874500Y-108045730D01*
X128874500Y-109554269D01*
X128877353Y-109584699D01*
X128877353Y-109584701D01*
X128922206Y-109712880D01*
X128922209Y-109712885D01*
X128946339Y-109745581D01*
X128970309Y-109811210D01*
X128954993Y-109879380D01*
X128934249Y-109906894D01*
X128277964Y-110563181D01*
X128216641Y-110596666D01*
X128190283Y-110599500D01*
X124047273Y-110599500D01*
X123945410Y-110626793D01*
X123854087Y-110679520D01*
X123854084Y-110679522D01*
X123179522Y-111354084D01*
X123179518Y-111354090D01*
X123126792Y-111445413D01*
X123126791Y-111445414D01*
X123112130Y-111500136D01*
X123112130Y-111500137D01*
X123099500Y-111547273D01*
X123099500Y-111863146D01*
X123079815Y-111930185D01*
X123057727Y-111955961D01*
X122971818Y-112032069D01*
X122875182Y-112172068D01*
X122814860Y-112331125D01*
X122814859Y-112331130D01*
X122794355Y-112500000D01*
X121775000Y-112500000D01*
X121775000Y-96727525D01*
X122749500Y-96727525D01*
X122749500Y-106822475D01*
X122783634Y-106949862D01*
X122787016Y-106962485D01*
X122830533Y-107037859D01*
X122859489Y-107088014D01*
X122859491Y-107088016D01*
X124005149Y-108233673D01*
X124005170Y-108233696D01*
X124438181Y-108666705D01*
X124471666Y-108728028D01*
X124474500Y-108754386D01*
X124474500Y-109554269D01*
X124477353Y-109584699D01*
X124477353Y-109584701D01*
X124515372Y-109693349D01*
X124522207Y-109712882D01*
X124602850Y-109822150D01*
X124712118Y-109902793D01*
X124754845Y-109917744D01*
X124840299Y-109947646D01*
X124870730Y-109950500D01*
X124870734Y-109950500D01*
X125929270Y-109950500D01*
X125959699Y-109947646D01*
X125959701Y-109947646D01*
X126023790Y-109925219D01*
X126087882Y-109902793D01*
X126197150Y-109822150D01*
X126277793Y-109712882D01*
X126300219Y-109648790D01*
X126322646Y-109584701D01*
X126322646Y-109584699D01*
X126325500Y-109554269D01*
X126325500Y-108150347D01*
X126342113Y-108088347D01*
X126349685Y-108075232D01*
X126378318Y-108025638D01*
X126400500Y-107942853D01*
X126400500Y-107513103D01*
X126420185Y-107446064D01*
X126472989Y-107400309D01*
X126483522Y-107396070D01*
X126531975Y-107379116D01*
X126638211Y-107300711D01*
X126716616Y-107194475D01*
X126760225Y-107069849D01*
X126763000Y-107040260D01*
X126763000Y-106459739D01*
X126760225Y-106430150D01*
X126716615Y-106305523D01*
X126638211Y-106199289D01*
X126638210Y-106199288D01*
X126531976Y-106120884D01*
X126407348Y-106077274D01*
X126407349Y-106077274D01*
X126377760Y-106074500D01*
X126377756Y-106074500D01*
X125772244Y-106074500D01*
X125772240Y-106074500D01*
X125742650Y-106077274D01*
X125618023Y-106120884D01*
X125511789Y-106199288D01*
X125511788Y-106199289D01*
X125433384Y-106305523D01*
X125389774Y-106430150D01*
X125387000Y-106459739D01*
X125387000Y-107040260D01*
X125389774Y-107069849D01*
X125433384Y-107194476D01*
X125511787Y-107300709D01*
X125511788Y-107300709D01*
X125511789Y-107300711D01*
X125547051Y-107326735D01*
X125579563Y-107350730D01*
X125621813Y-107406377D01*
X125627272Y-107476034D01*
X125594204Y-107537583D01*
X125533110Y-107571484D01*
X125505929Y-107574500D01*
X124954387Y-107574500D01*
X124887348Y-107554815D01*
X124866710Y-107538185D01*
X124788015Y-107459490D01*
X124788014Y-107459489D01*
X124783684Y-107455159D01*
X124783673Y-107455149D01*
X123886819Y-106558294D01*
X123853334Y-106496971D01*
X123850500Y-106470613D01*
X123850500Y-105800533D01*
X123870185Y-105733494D01*
X123922989Y-105687739D01*
X123992147Y-105677795D01*
X124017836Y-105684352D01*
X124042622Y-105693597D01*
X124042627Y-105693598D01*
X124102155Y-105699999D01*
X124102172Y-105700000D01*
X124350000Y-105700000D01*
X124850000Y-105700000D01*
X125097828Y-105700000D01*
X125097844Y-105699999D01*
X125157372Y-105693598D01*
X125157379Y-105693596D01*
X125292086Y-105643354D01*
X125292093Y-105643350D01*
X125407187Y-105557190D01*
X125407190Y-105557187D01*
X125493350Y-105442093D01*
X125493354Y-105442086D01*
X125543596Y-105307379D01*
X125543598Y-105307372D01*
X125549999Y-105247844D01*
X125550000Y-105247827D01*
X125550000Y-104600000D01*
X124850000Y-104600000D01*
X124850000Y-105700000D01*
X124350000Y-105700000D01*
X124350000Y-104100000D01*
X124850000Y-104100000D01*
X125550000Y-104100000D01*
X125550000Y-103452172D01*
X125549999Y-103452155D01*
X125543598Y-103392627D01*
X125543596Y-103392620D01*
X125493354Y-103257913D01*
X125493350Y-103257906D01*
X125407190Y-103142812D01*
X125407187Y-103142809D01*
X125292093Y-103056649D01*
X125292086Y-103056645D01*
X125157379Y-103006403D01*
X125157372Y-103006401D01*
X125097844Y-103000000D01*
X124850000Y-103000000D01*
X124850000Y-104100000D01*
X124350000Y-104100000D01*
X124350000Y-103000000D01*
X124102155Y-103000000D01*
X124042627Y-103006401D01*
X124042617Y-103006403D01*
X124017832Y-103015648D01*
X123948141Y-103020632D01*
X123886818Y-102987146D01*
X123853334Y-102925823D01*
X123850500Y-102899466D01*
X123850500Y-102186654D01*
X125162501Y-102186654D01*
X125172819Y-102287652D01*
X125227046Y-102451300D01*
X125227051Y-102451311D01*
X125317552Y-102598034D01*
X125317555Y-102598038D01*
X125439461Y-102719944D01*
X125439465Y-102719947D01*
X125586188Y-102810448D01*
X125586199Y-102810453D01*
X125749847Y-102864680D01*
X125850851Y-102874999D01*
X125950000Y-102874998D01*
X125950000Y-102150000D01*
X125162501Y-102150000D01*
X125162501Y-102186654D01*
X123850500Y-102186654D01*
X123850500Y-100897844D01*
X124650000Y-100897844D01*
X124656401Y-100957372D01*
X124656403Y-100957379D01*
X124706645Y-101092086D01*
X124706649Y-101092093D01*
X124792809Y-101207187D01*
X124792812Y-101207190D01*
X124907906Y-101293350D01*
X124907913Y-101293354D01*
X125042620Y-101343596D01*
X125042627Y-101343598D01*
X125069549Y-101346493D01*
X125134100Y-101373231D01*
X125173948Y-101430624D01*
X125176441Y-101500449D01*
X125174000Y-101508782D01*
X125172819Y-101512345D01*
X125162500Y-101613345D01*
X125162500Y-101650000D01*
X125950000Y-101650000D01*
X125950000Y-100800000D01*
X124650000Y-100800000D01*
X124650000Y-100897844D01*
X123850500Y-100897844D01*
X123850500Y-99997844D01*
X124650000Y-99997844D01*
X124656401Y-100057375D01*
X124658186Y-100064927D01*
X124656754Y-100065265D01*
X124661119Y-100126370D01*
X124656632Y-100141649D01*
X124656401Y-100142624D01*
X124650000Y-100202155D01*
X124650000Y-100300000D01*
X125950000Y-100300000D01*
X126450000Y-100300000D01*
X127750000Y-100300000D01*
X127750000Y-100202172D01*
X127749999Y-100202155D01*
X127743597Y-100142622D01*
X127741813Y-100135067D01*
X127743250Y-100134727D01*
X127738874Y-100073658D01*
X127743364Y-100058366D01*
X127743597Y-100057377D01*
X127749999Y-99997844D01*
X127750000Y-99997827D01*
X127750000Y-99900000D01*
X126450000Y-99900000D01*
X126450000Y-100300000D01*
X125950000Y-100300000D01*
X125950000Y-99900000D01*
X124650000Y-99900000D01*
X124650000Y-99997844D01*
X123850500Y-99997844D01*
X123850500Y-99302155D01*
X124650000Y-99302155D01*
X124650000Y-99400000D01*
X125950000Y-99400000D01*
X125950000Y-98883362D01*
X125969685Y-98816323D01*
X125975000Y-98809727D01*
X125975000Y-98550000D01*
X125187501Y-98550000D01*
X125187501Y-98586654D01*
X125197819Y-98687651D01*
X125198140Y-98688620D01*
X125198161Y-98689252D01*
X125199237Y-98694276D01*
X125198340Y-98694467D01*
X125200540Y-98758448D01*
X125164808Y-98818490D01*
X125102287Y-98849681D01*
X125093690Y-98850911D01*
X125042626Y-98856401D01*
X125042620Y-98856403D01*
X124907913Y-98906645D01*
X124907906Y-98906649D01*
X124792812Y-98992809D01*
X124792809Y-98992812D01*
X124706649Y-99107906D01*
X124706645Y-99107913D01*
X124656403Y-99242620D01*
X124656401Y-99242627D01*
X124650000Y-99302155D01*
X123850500Y-99302155D01*
X123850500Y-97474500D01*
X123870185Y-97407461D01*
X123922989Y-97361706D01*
X123974500Y-97350500D01*
X125294655Y-97350500D01*
X125361694Y-97370185D01*
X125407449Y-97422989D01*
X125417393Y-97492147D01*
X125388368Y-97555703D01*
X125382336Y-97562181D01*
X125342555Y-97601961D01*
X125342552Y-97601965D01*
X125252051Y-97748688D01*
X125252046Y-97748699D01*
X125197819Y-97912347D01*
X125187500Y-98013345D01*
X125187500Y-98050000D01*
X126351000Y-98050000D01*
X126418039Y-98069685D01*
X126463794Y-98122489D01*
X126475000Y-98174000D01*
X126475000Y-99241638D01*
X126455315Y-99308677D01*
X126450000Y-99315272D01*
X126450000Y-99400000D01*
X127750000Y-99400000D01*
X127750000Y-99302172D01*
X127749999Y-99302155D01*
X127743598Y-99242627D01*
X127743596Y-99242619D01*
X127706379Y-99142833D01*
X127701395Y-99073141D01*
X127734880Y-99011818D01*
X127796204Y-98978334D01*
X127822561Y-98975500D01*
X128078456Y-98975500D01*
X128145495Y-98995185D01*
X128166136Y-99011818D01*
X129134788Y-99980470D01*
X129134789Y-99980471D01*
X129134791Y-99980472D01*
X129164464Y-99997603D01*
X129212680Y-100048169D01*
X129225905Y-100116775D01*
X129199938Y-100181641D01*
X129146866Y-100219434D01*
X129147216Y-100220278D01*
X129143549Y-100221796D01*
X129143025Y-100222170D01*
X129141569Y-100222616D01*
X129139706Y-100223388D01*
X129059794Y-100269526D01*
X129059785Y-100269533D01*
X128141137Y-101188181D01*
X128079814Y-101221666D01*
X128053456Y-101224500D01*
X127822561Y-101224500D01*
X127755522Y-101204815D01*
X127709767Y-101152011D01*
X127699823Y-101082853D01*
X127706379Y-101057167D01*
X127743596Y-100957380D01*
X127743598Y-100957372D01*
X127749999Y-100897844D01*
X127750000Y-100897827D01*
X127750000Y-100800000D01*
X126450000Y-100800000D01*
X126450000Y-102874999D01*
X126549140Y-102874999D01*
X126549154Y-102874998D01*
X126650152Y-102864680D01*
X126813800Y-102810453D01*
X126813811Y-102810448D01*
X126960534Y-102719947D01*
X126960538Y-102719944D01*
X127082445Y-102598037D01*
X127145888Y-102495180D01*
X127197836Y-102448455D01*
X127266798Y-102437232D01*
X127325058Y-102460504D01*
X127414596Y-102526585D01*
X127418025Y-102529116D01*
X127542651Y-102572725D01*
X127542650Y-102572725D01*
X127572240Y-102575500D01*
X127572244Y-102575500D01*
X128277760Y-102575500D01*
X128301430Y-102573280D01*
X128307349Y-102572725D01*
X128429026Y-102530147D01*
X128498803Y-102526585D01*
X128559431Y-102561314D01*
X128587686Y-102608186D01*
X128589545Y-102613798D01*
X128589551Y-102613811D01*
X128680052Y-102760534D01*
X128680055Y-102760538D01*
X128801960Y-102882443D01*
X128904820Y-102945888D01*
X128951544Y-102997836D01*
X128962767Y-103066799D01*
X128939494Y-103125060D01*
X128870883Y-103218025D01*
X128826427Y-103345071D01*
X128785705Y-103401847D01*
X128720752Y-103427593D01*
X128652190Y-103414136D01*
X128606283Y-103373005D01*
X128594551Y-103355447D01*
X128528230Y-103311132D01*
X128528229Y-103311131D01*
X128469752Y-103299500D01*
X128469748Y-103299500D01*
X127530252Y-103299500D01*
X127530247Y-103299500D01*
X127471770Y-103311131D01*
X127471769Y-103311132D01*
X127405447Y-103355447D01*
X127361132Y-103421769D01*
X127361131Y-103421770D01*
X127349500Y-103480247D01*
X127349500Y-105219752D01*
X127361131Y-105278229D01*
X127361132Y-105278230D01*
X127405447Y-105344552D01*
X127471767Y-105388866D01*
X127471769Y-105388867D01*
X127474684Y-105389447D01*
X127480461Y-105392467D01*
X127483054Y-105393542D01*
X127482957Y-105393773D01*
X127536597Y-105421827D01*
X127571175Y-105482541D01*
X127574500Y-105511065D01*
X127574500Y-105986896D01*
X127554815Y-106053935D01*
X127502011Y-106099690D01*
X127491456Y-106103937D01*
X127443023Y-106120884D01*
X127336789Y-106199288D01*
X127336788Y-106199289D01*
X127258384Y-106305523D01*
X127214774Y-106430150D01*
X127212000Y-106459739D01*
X127212000Y-107040260D01*
X127214774Y-107069849D01*
X127258384Y-107194476D01*
X127336788Y-107300710D01*
X127336789Y-107300711D01*
X127443023Y-107379115D01*
X127443024Y-107379115D01*
X127443025Y-107379116D01*
X127567651Y-107422725D01*
X127567650Y-107422725D01*
X127597240Y-107425500D01*
X127597244Y-107425500D01*
X128202760Y-107425500D01*
X128232349Y-107422725D01*
X128279068Y-107406377D01*
X128356975Y-107379116D01*
X128463211Y-107300711D01*
X128541616Y-107194475D01*
X128585225Y-107069849D01*
X128588000Y-107040260D01*
X128588000Y-106459739D01*
X128585225Y-106430150D01*
X128541615Y-106305523D01*
X128463211Y-106199289D01*
X128463210Y-106199288D01*
X128356976Y-106120884D01*
X128308544Y-106103937D01*
X128251769Y-106063215D01*
X128226022Y-105998262D01*
X128225500Y-105986896D01*
X128225500Y-105524500D01*
X128245185Y-105457461D01*
X128297989Y-105411706D01*
X128349500Y-105400500D01*
X128469749Y-105400500D01*
X128505186Y-105393451D01*
X128574777Y-105399678D01*
X128617058Y-105427386D01*
X128647134Y-105457461D01*
X128650138Y-105460465D01*
X128718854Y-105500138D01*
X128724362Y-105503318D01*
X128807148Y-105525501D01*
X128807150Y-105525501D01*
X128900449Y-105525501D01*
X128900465Y-105525500D01*
X139533575Y-105525500D01*
X139567984Y-105532344D01*
X139568027Y-105532133D01*
X139636089Y-105545670D01*
X139660367Y-105550500D01*
X141039632Y-105550499D01*
X141119995Y-105534515D01*
X141211124Y-105473624D01*
X141272015Y-105382495D01*
X141288000Y-105302133D01*
X141287999Y-105097868D01*
X141272015Y-105017505D01*
X141272013Y-105017502D01*
X141267341Y-105006222D01*
X141268785Y-105005623D01*
X141252063Y-104952211D01*
X141268017Y-104894056D01*
X141267342Y-104893777D01*
X141269570Y-104888396D01*
X141270549Y-104884831D01*
X141271952Y-104882647D01*
X141272016Y-104882493D01*
X141287999Y-104802136D01*
X141288000Y-104802133D01*
X141287999Y-104597868D01*
X141272015Y-104517505D01*
X141272013Y-104517502D01*
X141267341Y-104506222D01*
X141268785Y-104505623D01*
X141252063Y-104452211D01*
X141268017Y-104394056D01*
X141267342Y-104393777D01*
X141269570Y-104388396D01*
X141270549Y-104384831D01*
X141271952Y-104382647D01*
X141272016Y-104382493D01*
X141287999Y-104302136D01*
X141288000Y-104302133D01*
X141287999Y-104097868D01*
X141272015Y-104017505D01*
X141272013Y-104017502D01*
X141267341Y-104006222D01*
X141268785Y-104005623D01*
X141252063Y-103952211D01*
X141268017Y-103894056D01*
X141267342Y-103893777D01*
X141269570Y-103888396D01*
X141270549Y-103884831D01*
X141271952Y-103882647D01*
X141272016Y-103882493D01*
X141282494Y-103829815D01*
X141288000Y-103802133D01*
X141287999Y-103597868D01*
X141272015Y-103517505D01*
X141272013Y-103517502D01*
X141267341Y-103506222D01*
X141268785Y-103505623D01*
X141252063Y-103452211D01*
X141268017Y-103394056D01*
X141267342Y-103393777D01*
X141269570Y-103388396D01*
X141270549Y-103384831D01*
X141271952Y-103382647D01*
X141272016Y-103382493D01*
X141283106Y-103326735D01*
X141288000Y-103302133D01*
X141287999Y-103097868D01*
X141272015Y-103017505D01*
X141272013Y-103017502D01*
X141267341Y-103006222D01*
X141268785Y-103005623D01*
X141252063Y-102952211D01*
X141268017Y-102894056D01*
X141267342Y-102893777D01*
X141269570Y-102888396D01*
X141270549Y-102884831D01*
X141271952Y-102882647D01*
X141272016Y-102882493D01*
X141286346Y-102810448D01*
X141288000Y-102802133D01*
X141287999Y-102597868D01*
X141272676Y-102520829D01*
X141278905Y-102451240D01*
X141321768Y-102396064D01*
X141387658Y-102372820D01*
X141455655Y-102388889D01*
X141481972Y-102408959D01*
X141713524Y-102640510D01*
X141713526Y-102640511D01*
X141713530Y-102640514D01*
X141742970Y-102657511D01*
X141742973Y-102657512D01*
X141742978Y-102657515D01*
X141839053Y-102712984D01*
X141979063Y-102750500D01*
X141979064Y-102750500D01*
X142124013Y-102750500D01*
X146588000Y-102750500D01*
X146655039Y-102770185D01*
X146700794Y-102822989D01*
X146712000Y-102874500D01*
X146712000Y-107484974D01*
X146741931Y-107596681D01*
X146749513Y-107624978D01*
X146749516Y-107624985D01*
X146821990Y-107750516D01*
X146821992Y-107750518D01*
X146863180Y-107791705D01*
X146896666Y-107853028D01*
X146899500Y-107879387D01*
X146899500Y-108202727D01*
X146915430Y-108262180D01*
X146924323Y-108295367D01*
X146926165Y-108351651D01*
X146912000Y-108422862D01*
X146912000Y-109802129D01*
X146927985Y-109882495D01*
X146988875Y-109973624D01*
X147008869Y-109986983D01*
X147080005Y-110034515D01*
X147080008Y-110034515D01*
X147080009Y-110034516D01*
X147107033Y-110039891D01*
X147160367Y-110050500D01*
X147364632Y-110050499D01*
X147444995Y-110034515D01*
X147536124Y-109973624D01*
X147597015Y-109882495D01*
X147613000Y-109802133D01*
X147612999Y-109540884D01*
X147632683Y-109473847D01*
X147685487Y-109428092D01*
X147754646Y-109418148D01*
X147818201Y-109447173D01*
X147824680Y-109453205D01*
X148285985Y-109914510D01*
X148411515Y-109986984D01*
X148551525Y-110024500D01*
X148551526Y-110024500D01*
X148696474Y-110024500D01*
X151594613Y-110024500D01*
X151661652Y-110044185D01*
X151682294Y-110060819D01*
X153821985Y-112200510D01*
X153927685Y-112261535D01*
X153947515Y-112272984D01*
X154087525Y-112310500D01*
X166051667Y-112310500D01*
X166118706Y-112330185D01*
X166164461Y-112382989D01*
X166174405Y-112452147D01*
X166145380Y-112515703D01*
X166092622Y-112551541D01*
X165962119Y-112597206D01*
X165962117Y-112597207D01*
X165852850Y-112677850D01*
X165772207Y-112787117D01*
X165726949Y-112916456D01*
X165686227Y-112973231D01*
X165621274Y-112998978D01*
X165609908Y-112999500D01*
X164781005Y-112999500D01*
X164645677Y-113026418D01*
X164645667Y-113026421D01*
X164518195Y-113079221D01*
X164518182Y-113079228D01*
X164403458Y-113155885D01*
X164403456Y-113155887D01*
X164372344Y-113187000D01*
X164353458Y-113205886D01*
X164325960Y-113233384D01*
X164255884Y-113303459D01*
X164179228Y-113418182D01*
X164179221Y-113418195D01*
X164126421Y-113545667D01*
X164126418Y-113545677D01*
X164099500Y-113681004D01*
X164099500Y-113975500D01*
X164079815Y-114042539D01*
X164027011Y-114088294D01*
X163975500Y-114099500D01*
X162780247Y-114099500D01*
X162721770Y-114111131D01*
X162721769Y-114111132D01*
X162655447Y-114155447D01*
X162611132Y-114221769D01*
X162611131Y-114221770D01*
X162599500Y-114280247D01*
X162599500Y-115319752D01*
X162611131Y-115378229D01*
X162611132Y-115378230D01*
X162655447Y-115444552D01*
X162721769Y-115488867D01*
X162721770Y-115488868D01*
X162780247Y-115500499D01*
X162780250Y-115500500D01*
X162780252Y-115500500D01*
X163231007Y-115500500D01*
X163975500Y-115500500D01*
X164042539Y-115520185D01*
X164088294Y-115572989D01*
X164099500Y-115624500D01*
X164099500Y-117675500D01*
X164079815Y-117742539D01*
X164027011Y-117788294D01*
X163975500Y-117799500D01*
X162680247Y-117799500D01*
X162621770Y-117811131D01*
X162621769Y-117811132D01*
X162555447Y-117855447D01*
X162511132Y-117921769D01*
X162511131Y-117921770D01*
X162499500Y-117980247D01*
X162499500Y-119019752D01*
X162511131Y-119078229D01*
X162511132Y-119078230D01*
X162555447Y-119144552D01*
X162621769Y-119188867D01*
X162621770Y-119188868D01*
X162680247Y-119200499D01*
X162680250Y-119200500D01*
X162680252Y-119200500D01*
X163131007Y-119200500D01*
X163975500Y-119200500D01*
X164042539Y-119220185D01*
X164088294Y-119272989D01*
X164099500Y-119324500D01*
X164099500Y-120619752D01*
X164111131Y-120678229D01*
X164111132Y-120678230D01*
X164155447Y-120744552D01*
X164221769Y-120788867D01*
X164221770Y-120788868D01*
X164280247Y-120800499D01*
X164280250Y-120800500D01*
X164280252Y-120800500D01*
X165319750Y-120800500D01*
X165319751Y-120800499D01*
X165334568Y-120797552D01*
X165378229Y-120788868D01*
X165378229Y-120788867D01*
X165378231Y-120788867D01*
X165444552Y-120744552D01*
X165488867Y-120678231D01*
X165488867Y-120678229D01*
X165488868Y-120678229D01*
X165500499Y-120619752D01*
X165500500Y-120619750D01*
X165500500Y-114566199D01*
X165520185Y-114499160D01*
X165572989Y-114453405D01*
X165642147Y-114443461D01*
X165705703Y-114472486D01*
X165741541Y-114525244D01*
X165764765Y-114591616D01*
X165772207Y-114612882D01*
X165852850Y-114722150D01*
X165962118Y-114802793D01*
X166004845Y-114817744D01*
X166090299Y-114847646D01*
X166120730Y-114850500D01*
X166120734Y-114850500D01*
X167179270Y-114850500D01*
X167209699Y-114847646D01*
X167209701Y-114847646D01*
X167273790Y-114825219D01*
X167337882Y-114802793D01*
X167447150Y-114722150D01*
X167527793Y-114612882D01*
X167550219Y-114548790D01*
X167572646Y-114484701D01*
X167572646Y-114484699D01*
X167575500Y-114454269D01*
X167575500Y-112945730D01*
X167572646Y-112915300D01*
X167572646Y-112915298D01*
X167527793Y-112787119D01*
X167527792Y-112787117D01*
X167447150Y-112677850D01*
X167337882Y-112597207D01*
X167337880Y-112597206D01*
X167207378Y-112551541D01*
X167150602Y-112510819D01*
X167124855Y-112445866D01*
X167138312Y-112377305D01*
X167186699Y-112326902D01*
X167248333Y-112310500D01*
X167313525Y-112310500D01*
X167458475Y-112310500D01*
X170451667Y-112310500D01*
X170518706Y-112330185D01*
X170564461Y-112382989D01*
X170574405Y-112452147D01*
X170545380Y-112515703D01*
X170492622Y-112551541D01*
X170362119Y-112597206D01*
X170362117Y-112597207D01*
X170252850Y-112677850D01*
X170172207Y-112787117D01*
X170172206Y-112787119D01*
X170127353Y-112915298D01*
X170127353Y-112915300D01*
X170124500Y-112945730D01*
X170124500Y-113287034D01*
X170104815Y-113354073D01*
X170088181Y-113374715D01*
X168989513Y-114473383D01*
X168989511Y-114473386D01*
X168930200Y-114576113D01*
X168930200Y-114576114D01*
X168926046Y-114591615D01*
X168926047Y-114591616D01*
X168899500Y-114690691D01*
X168899500Y-114997389D01*
X168879815Y-115064428D01*
X168863181Y-115085070D01*
X168776476Y-115171774D01*
X168776473Y-115171778D01*
X168776472Y-115171780D01*
X168716351Y-115289775D01*
X168715279Y-115291878D01*
X168699500Y-115391506D01*
X168699500Y-115450500D01*
X168679815Y-115517539D01*
X168627011Y-115563294D01*
X168575500Y-115574500D01*
X168333394Y-115574500D01*
X168266355Y-115554815D01*
X168233624Y-115524133D01*
X168150711Y-115411789D01*
X168150710Y-115411788D01*
X168044476Y-115333384D01*
X167919848Y-115289774D01*
X167919849Y-115289774D01*
X167890260Y-115287000D01*
X167890256Y-115287000D01*
X167309744Y-115287000D01*
X167309740Y-115287000D01*
X167280150Y-115289774D01*
X167155523Y-115333384D01*
X167049289Y-115411788D01*
X167049288Y-115411789D01*
X166970884Y-115518023D01*
X166927274Y-115642650D01*
X166924500Y-115672239D01*
X166924500Y-116377760D01*
X166927274Y-116407349D01*
X166970884Y-116531976D01*
X167049288Y-116638210D01*
X167049289Y-116638211D01*
X167155523Y-116716615D01*
X167155524Y-116716615D01*
X167155525Y-116716616D01*
X167280151Y-116760225D01*
X167280150Y-116760225D01*
X167309740Y-116763000D01*
X167309744Y-116763000D01*
X167890260Y-116763000D01*
X167919849Y-116760225D01*
X167933501Y-116755448D01*
X168044475Y-116716616D01*
X168150711Y-116638211D01*
X168229116Y-116531975D01*
X168229115Y-116531975D01*
X168233624Y-116525867D01*
X168289271Y-116483616D01*
X168333394Y-116475500D01*
X168674988Y-116475500D01*
X168742027Y-116495185D01*
X168775311Y-116526621D01*
X168776476Y-116528225D01*
X168871774Y-116623523D01*
X168871778Y-116623526D01*
X168871780Y-116623528D01*
X168991874Y-116684719D01*
X168991876Y-116684719D01*
X168991878Y-116684720D01*
X169091507Y-116700500D01*
X169091512Y-116700500D01*
X169608493Y-116700500D01*
X169708121Y-116684720D01*
X169708121Y-116684719D01*
X169708126Y-116684719D01*
X169828220Y-116623528D01*
X169923528Y-116528220D01*
X169984719Y-116408126D01*
X169984782Y-116407728D01*
X170000500Y-116308493D01*
X170000500Y-115391506D01*
X169984720Y-115291878D01*
X169984719Y-115291876D01*
X169984719Y-115291874D01*
X169923528Y-115171780D01*
X169923526Y-115171778D01*
X169923523Y-115171774D01*
X169836819Y-115085070D01*
X169803334Y-115023747D01*
X169800500Y-114997389D01*
X169800500Y-114987964D01*
X169820185Y-114920925D01*
X169836815Y-114900287D01*
X170049944Y-114687157D01*
X170111265Y-114653674D01*
X170180956Y-114658658D01*
X170236890Y-114700529D01*
X170237349Y-114701147D01*
X170252850Y-114722150D01*
X170362118Y-114802793D01*
X170404845Y-114817744D01*
X170490299Y-114847646D01*
X170520730Y-114850500D01*
X170520734Y-114850500D01*
X171579270Y-114850500D01*
X171609699Y-114847646D01*
X171609701Y-114847646D01*
X171673790Y-114825219D01*
X171737882Y-114802793D01*
X171847150Y-114722150D01*
X171927793Y-114612882D01*
X171950219Y-114548790D01*
X171972646Y-114484701D01*
X171972646Y-114484699D01*
X171975500Y-114454269D01*
X171975500Y-112945730D01*
X171972646Y-112915300D01*
X171972646Y-112915298D01*
X171927793Y-112787119D01*
X171927792Y-112787117D01*
X171847150Y-112677850D01*
X171737882Y-112597207D01*
X171737880Y-112597206D01*
X171607378Y-112551541D01*
X171550602Y-112510819D01*
X171524855Y-112445866D01*
X171538312Y-112377305D01*
X171586699Y-112326902D01*
X171648333Y-112310500D01*
X172130613Y-112310500D01*
X172197652Y-112330185D01*
X172218294Y-112346819D01*
X173463181Y-113591706D01*
X173496666Y-113653029D01*
X173499500Y-113679387D01*
X173499500Y-115095700D01*
X173479815Y-115162739D01*
X173475275Y-115169326D01*
X173420884Y-115243025D01*
X173420883Y-115243027D01*
X173416377Y-115249133D01*
X173360730Y-115291384D01*
X173316606Y-115299500D01*
X173064592Y-115299500D01*
X172997553Y-115279815D01*
X172954108Y-115231795D01*
X172923530Y-115171783D01*
X172923523Y-115171774D01*
X172828225Y-115076476D01*
X172828221Y-115076473D01*
X172828220Y-115076472D01*
X172708126Y-115015281D01*
X172708124Y-115015280D01*
X172708121Y-115015279D01*
X172608493Y-114999500D01*
X172608488Y-114999500D01*
X172091512Y-114999500D01*
X172091507Y-114999500D01*
X171991878Y-115015279D01*
X171871778Y-115076473D01*
X171871774Y-115076476D01*
X171776476Y-115171774D01*
X171776473Y-115171778D01*
X171776472Y-115171780D01*
X171716351Y-115289775D01*
X171715279Y-115291878D01*
X171699500Y-115391506D01*
X171699500Y-116308493D01*
X171715279Y-116408121D01*
X171715280Y-116408124D01*
X171715281Y-116408126D01*
X171776472Y-116528220D01*
X171776473Y-116528221D01*
X171776476Y-116528225D01*
X171871774Y-116623523D01*
X171871778Y-116623526D01*
X171871780Y-116623528D01*
X171991874Y-116684719D01*
X171991876Y-116684719D01*
X171991878Y-116684720D01*
X172091507Y-116700500D01*
X172091512Y-116700500D01*
X172608493Y-116700500D01*
X172708121Y-116684720D01*
X172708121Y-116684719D01*
X172708126Y-116684719D01*
X172828220Y-116623528D01*
X172923528Y-116528220D01*
X172984719Y-116408126D01*
X172984782Y-116407728D01*
X173001037Y-116305102D01*
X173030966Y-116241967D01*
X173090278Y-116205036D01*
X173123510Y-116200500D01*
X173316606Y-116200500D01*
X173383645Y-116220185D01*
X173416376Y-116250867D01*
X173499288Y-116363210D01*
X173499289Y-116363211D01*
X173605523Y-116441615D01*
X173605524Y-116441615D01*
X173605525Y-116441616D01*
X173730151Y-116485225D01*
X173730150Y-116485225D01*
X173759740Y-116488000D01*
X173759744Y-116488000D01*
X174340260Y-116488000D01*
X174369849Y-116485225D01*
X174397641Y-116475500D01*
X174494475Y-116441616D01*
X174600711Y-116363211D01*
X174679116Y-116256975D01*
X174722725Y-116132349D01*
X174723897Y-116119849D01*
X174725500Y-116102760D01*
X174725500Y-115397239D01*
X174722725Y-115367650D01*
X174679116Y-115243025D01*
X174652951Y-115207573D01*
X174624728Y-115169332D01*
X174600759Y-115103704D01*
X174600500Y-115095700D01*
X174600500Y-113327527D01*
X174600500Y-113327525D01*
X174562984Y-113187515D01*
X174562982Y-113187512D01*
X174562982Y-113187510D01*
X174562981Y-113187509D01*
X174544724Y-113155887D01*
X174544722Y-113155885D01*
X174541734Y-113150710D01*
X174490510Y-113061985D01*
X172748015Y-111319490D01*
X172622485Y-111247016D01*
X172622480Y-111247014D01*
X172566711Y-111232070D01*
X172566711Y-111232071D01*
X172517440Y-111218869D01*
X172482475Y-111209500D01*
X172482474Y-111209500D01*
X168060500Y-111209500D01*
X167993461Y-111189815D01*
X167947706Y-111137011D01*
X167936500Y-111085500D01*
X167936500Y-108463418D01*
X170475000Y-108463418D01*
X170490451Y-108600553D01*
X170490452Y-108600559D01*
X170551296Y-108774443D01*
X170649308Y-108930428D01*
X170779571Y-109060691D01*
X170935557Y-109158704D01*
X170938052Y-109159577D01*
X170939448Y-109160578D01*
X170941831Y-109161726D01*
X170941630Y-109162143D01*
X170994830Y-109200296D01*
X171020580Y-109265247D01*
X171007127Y-109333809D01*
X170972029Y-109375423D01*
X170922775Y-109412773D01*
X170836736Y-109526233D01*
X170784496Y-109658704D01*
X170774500Y-109741947D01*
X170774500Y-110458052D01*
X170784496Y-110541295D01*
X170836736Y-110673766D01*
X170922774Y-110787225D01*
X171029752Y-110868348D01*
X171036236Y-110873265D01*
X171168703Y-110925503D01*
X171251948Y-110935500D01*
X173648052Y-110935500D01*
X173731297Y-110925503D01*
X173863764Y-110873265D01*
X173901999Y-110844270D01*
X173967306Y-110819448D01*
X174035670Y-110833875D01*
X174075876Y-110868348D01*
X174109020Y-110912237D01*
X174273437Y-111062123D01*
X174273439Y-111062125D01*
X174462595Y-111179245D01*
X174462596Y-111179245D01*
X174462599Y-111179247D01*
X174670060Y-111259618D01*
X174888757Y-111300500D01*
X174888759Y-111300500D01*
X175111241Y-111300500D01*
X175111243Y-111300500D01*
X175329940Y-111259618D01*
X175537401Y-111179247D01*
X175726562Y-111062124D01*
X175890981Y-110912236D01*
X176025058Y-110734689D01*
X176124229Y-110535528D01*
X176185115Y-110321536D01*
X176205643Y-110100000D01*
X176185115Y-109878464D01*
X176124229Y-109664472D01*
X176121357Y-109658704D01*
X176025061Y-109465316D01*
X176025056Y-109465308D01*
X175890979Y-109287761D01*
X175726562Y-109137876D01*
X175726560Y-109137874D01*
X175537404Y-109020754D01*
X175537398Y-109020752D01*
X175329940Y-108940382D01*
X175111243Y-108899500D01*
X174888757Y-108899500D01*
X174670060Y-108940382D01*
X174546597Y-108988212D01*
X174457253Y-109022824D01*
X174456377Y-109020563D01*
X174397861Y-109030979D01*
X174333373Y-109004089D01*
X174293660Y-108946603D01*
X174291330Y-108876772D01*
X174306413Y-108841748D01*
X174348702Y-108774445D01*
X174409547Y-108600559D01*
X174409548Y-108600553D01*
X174424999Y-108463418D01*
X174425000Y-108463414D01*
X174425000Y-108350000D01*
X170475000Y-108350000D01*
X170475000Y-108463418D01*
X167936500Y-108463418D01*
X167936500Y-103149387D01*
X167956185Y-103082348D01*
X167972819Y-103061706D01*
X168397706Y-102636819D01*
X168459029Y-102603334D01*
X168485387Y-102600500D01*
X170723449Y-102600500D01*
X170790488Y-102620185D01*
X170831187Y-102667154D01*
X170832579Y-102666372D01*
X170836736Y-102673766D01*
X170922774Y-102787225D01*
X171036233Y-102873263D01*
X171036236Y-102873265D01*
X171168703Y-102925503D01*
X171251948Y-102935500D01*
X173648052Y-102935500D01*
X173731297Y-102925503D01*
X173863764Y-102873265D01*
X173863764Y-102873264D01*
X173871655Y-102870153D01*
X173872556Y-102872439D01*
X173928219Y-102859600D01*
X173993984Y-102883197D01*
X174008601Y-102895704D01*
X174288181Y-103175284D01*
X174321666Y-103236607D01*
X174324500Y-103262965D01*
X174324500Y-103327760D01*
X174327274Y-103357349D01*
X174370883Y-103481974D01*
X174439494Y-103574939D01*
X174463464Y-103640568D01*
X174448148Y-103708738D01*
X174404820Y-103754110D01*
X174311208Y-103811851D01*
X174243816Y-103830292D01*
X174177152Y-103809370D01*
X174132383Y-103755728D01*
X174122996Y-103721098D01*
X174115503Y-103658703D01*
X174063265Y-103526236D01*
X174056644Y-103517505D01*
X173977225Y-103412774D01*
X173863766Y-103326736D01*
X173863764Y-103326735D01*
X173731297Y-103274497D01*
X173731296Y-103274496D01*
X173731295Y-103274496D01*
X173648052Y-103264500D01*
X171251948Y-103264500D01*
X171168704Y-103274496D01*
X171036233Y-103326736D01*
X170922774Y-103412774D01*
X170836736Y-103526233D01*
X170784496Y-103658704D01*
X170774500Y-103741947D01*
X170774500Y-104458052D01*
X170784496Y-104541295D01*
X170836736Y-104673766D01*
X170922774Y-104787225D01*
X171032244Y-104870238D01*
X171036236Y-104873265D01*
X171168703Y-104925503D01*
X171251948Y-104935500D01*
X173648052Y-104935500D01*
X173731297Y-104925503D01*
X173855510Y-104876520D01*
X173925097Y-104870238D01*
X173987033Y-104902575D01*
X174021654Y-104963264D01*
X174025000Y-104991872D01*
X174025000Y-105049138D01*
X174025001Y-105049155D01*
X174035319Y-105150153D01*
X174045744Y-105181614D01*
X174048146Y-105251442D01*
X174012414Y-105311484D01*
X173949893Y-105342676D01*
X173880434Y-105335115D01*
X173867267Y-105328705D01*
X173863764Y-105326735D01*
X173814680Y-105307379D01*
X173731297Y-105274497D01*
X173731296Y-105274496D01*
X173731295Y-105274496D01*
X173648052Y-105264500D01*
X171251948Y-105264500D01*
X171168704Y-105274496D01*
X171036233Y-105326736D01*
X170922774Y-105412774D01*
X170836736Y-105526233D01*
X170784496Y-105658704D01*
X170774500Y-105741947D01*
X170774500Y-106458052D01*
X170784496Y-106541295D01*
X170836736Y-106673766D01*
X170922774Y-106787225D01*
X170972028Y-106824575D01*
X171013551Y-106880767D01*
X171018103Y-106950489D01*
X170984238Y-107011603D01*
X170941754Y-107038114D01*
X170941831Y-107038274D01*
X170940379Y-107038973D01*
X170938064Y-107040418D01*
X170935559Y-107041294D01*
X170779571Y-107139308D01*
X170649308Y-107269571D01*
X170551296Y-107425556D01*
X170490452Y-107599440D01*
X170490451Y-107599446D01*
X170475000Y-107736581D01*
X170475000Y-107850000D01*
X174425000Y-107850000D01*
X174425000Y-107736585D01*
X174424999Y-107736581D01*
X174409548Y-107599446D01*
X174409547Y-107599440D01*
X174348703Y-107425556D01*
X174250691Y-107269571D01*
X174120428Y-107139308D01*
X173964443Y-107041296D01*
X173961939Y-107040420D01*
X173960537Y-107039414D01*
X173958169Y-107038274D01*
X173958368Y-107037859D01*
X173905164Y-106999697D01*
X173879418Y-106934744D01*
X173892875Y-106866183D01*
X173927970Y-106824575D01*
X173977225Y-106787225D01*
X174063265Y-106673764D01*
X174115503Y-106541297D01*
X174125500Y-106458052D01*
X174125500Y-105741948D01*
X174121358Y-105707460D01*
X174132908Y-105638554D01*
X174179879Y-105586829D01*
X174247358Y-105568710D01*
X174309570Y-105587138D01*
X174448688Y-105672948D01*
X174448699Y-105672953D01*
X174612347Y-105727180D01*
X174713352Y-105737499D01*
X174750000Y-105737499D01*
X175250000Y-105737499D01*
X175286640Y-105737499D01*
X175286654Y-105737498D01*
X175387652Y-105727180D01*
X175551300Y-105672953D01*
X175551311Y-105672948D01*
X175698034Y-105582447D01*
X175698038Y-105582444D01*
X175819944Y-105460538D01*
X175819947Y-105460534D01*
X175910448Y-105313811D01*
X175910453Y-105313800D01*
X175964680Y-105150152D01*
X175974999Y-105049154D01*
X175975000Y-105049141D01*
X175975000Y-104950000D01*
X175250000Y-104950000D01*
X175250000Y-105737499D01*
X174750000Y-105737499D01*
X174750000Y-104574000D01*
X174769685Y-104506961D01*
X174822489Y-104461206D01*
X174874000Y-104450000D01*
X175974999Y-104450000D01*
X175974999Y-104350860D01*
X175974998Y-104350845D01*
X175964680Y-104249847D01*
X175910453Y-104086199D01*
X175910448Y-104086188D01*
X175819947Y-103939465D01*
X175819944Y-103939461D01*
X175698038Y-103817555D01*
X175698034Y-103817552D01*
X175595179Y-103754110D01*
X175548454Y-103702162D01*
X175537233Y-103633200D01*
X175560506Y-103574939D01*
X175629116Y-103481975D01*
X175672725Y-103357349D01*
X175675500Y-103327756D01*
X175675500Y-102622244D01*
X175674709Y-102613811D01*
X175672725Y-102592650D01*
X175629115Y-102468023D01*
X175550711Y-102361789D01*
X175550710Y-102361788D01*
X175444476Y-102283384D01*
X175319848Y-102239774D01*
X175319849Y-102239774D01*
X175290260Y-102237000D01*
X175290256Y-102237000D01*
X174709744Y-102237000D01*
X174697885Y-102238111D01*
X174689480Y-102238900D01*
X174620896Y-102225558D01*
X174590225Y-102203122D01*
X174155336Y-101768233D01*
X174121851Y-101706910D01*
X174119904Y-101695353D01*
X174115503Y-101658703D01*
X174063265Y-101526236D01*
X174052731Y-101512345D01*
X173977225Y-101412774D01*
X173863766Y-101326736D01*
X173863764Y-101326735D01*
X173731297Y-101274497D01*
X173731296Y-101274496D01*
X173731295Y-101274496D01*
X173648052Y-101264500D01*
X171251948Y-101264500D01*
X171168704Y-101274496D01*
X171036233Y-101326736D01*
X170922779Y-101412771D01*
X170922775Y-101412774D01*
X170913125Y-101425500D01*
X170894224Y-101450425D01*
X170838033Y-101491948D01*
X170795421Y-101499500D01*
X168133525Y-101499500D01*
X168033745Y-101526236D01*
X168033744Y-101526235D01*
X167993519Y-101537014D01*
X167993514Y-101537016D01*
X167867986Y-101609489D01*
X167867983Y-101609491D01*
X166945489Y-102531985D01*
X166934800Y-102550500D01*
X166897844Y-102614511D01*
X166886896Y-102633472D01*
X166873017Y-102657512D01*
X166873016Y-102657513D01*
X166867465Y-102678231D01*
X166835500Y-102797525D01*
X166835500Y-102797527D01*
X166835500Y-111085500D01*
X166815815Y-111152539D01*
X166763011Y-111198294D01*
X166711500Y-111209500D01*
X159220982Y-111209500D01*
X159153943Y-111189815D01*
X159108188Y-111137011D01*
X159098244Y-111067853D01*
X159127269Y-111004297D01*
X159133301Y-110997819D01*
X159200691Y-110930428D01*
X159298703Y-110774443D01*
X159359547Y-110600559D01*
X159359548Y-110600553D01*
X159374999Y-110463418D01*
X159375000Y-110463414D01*
X159375000Y-110350000D01*
X155425000Y-110350000D01*
X155425000Y-110463418D01*
X155440451Y-110600553D01*
X155440452Y-110600559D01*
X155501296Y-110774443D01*
X155599308Y-110930428D01*
X155666699Y-110997819D01*
X155700184Y-111059142D01*
X155695200Y-111128834D01*
X155653328Y-111184767D01*
X155587864Y-111209184D01*
X155579018Y-111209500D01*
X154439387Y-111209500D01*
X154372348Y-111189815D01*
X154351706Y-111173181D01*
X152915106Y-109736581D01*
X155425000Y-109736581D01*
X155425000Y-109850000D01*
X159375000Y-109850000D01*
X159375000Y-109736585D01*
X159374999Y-109736581D01*
X159359548Y-109599446D01*
X159359547Y-109599440D01*
X159298703Y-109425556D01*
X159200691Y-109269571D01*
X159070428Y-109139308D01*
X158914443Y-109041296D01*
X158911939Y-109040420D01*
X158910537Y-109039414D01*
X158908169Y-109038274D01*
X158908368Y-109037859D01*
X158855164Y-108999697D01*
X158829418Y-108934744D01*
X158842875Y-108866183D01*
X158877970Y-108824575D01*
X158927225Y-108787225D01*
X159013265Y-108673764D01*
X159065503Y-108541297D01*
X159075500Y-108458052D01*
X159075500Y-107741948D01*
X159074855Y-107736581D01*
X159065503Y-107658704D01*
X159062999Y-107652354D01*
X159013265Y-107526236D01*
X159006644Y-107517505D01*
X158927225Y-107412774D01*
X158813766Y-107326736D01*
X158813764Y-107326735D01*
X158681297Y-107274497D01*
X158681296Y-107274496D01*
X158681295Y-107274496D01*
X158598052Y-107264500D01*
X156201948Y-107264500D01*
X156118704Y-107274496D01*
X155986233Y-107326736D01*
X155872774Y-107412774D01*
X155786736Y-107526233D01*
X155734496Y-107658704D01*
X155724500Y-107741947D01*
X155724500Y-108458052D01*
X155734496Y-108541295D01*
X155786736Y-108673766D01*
X155872774Y-108787225D01*
X155922028Y-108824575D01*
X155963551Y-108880767D01*
X155968103Y-108950489D01*
X155934238Y-109011603D01*
X155891754Y-109038114D01*
X155891831Y-109038274D01*
X155890379Y-109038973D01*
X155888064Y-109040418D01*
X155885559Y-109041294D01*
X155729571Y-109139308D01*
X155599308Y-109269571D01*
X155501296Y-109425556D01*
X155440452Y-109599440D01*
X155440451Y-109599446D01*
X155425000Y-109736581D01*
X152915106Y-109736581D01*
X152212016Y-109033491D01*
X152212015Y-109033490D01*
X152086485Y-108961016D01*
X152086480Y-108961014D01*
X152046102Y-108950194D01*
X152046102Y-108950195D01*
X151988438Y-108934744D01*
X151946475Y-108923500D01*
X151946474Y-108923500D01*
X148903387Y-108923500D01*
X148836348Y-108903815D01*
X148815706Y-108887181D01*
X148190705Y-108262180D01*
X148157220Y-108200857D01*
X148162204Y-108131165D01*
X148204076Y-108075232D01*
X148269540Y-108050815D01*
X148278363Y-108050499D01*
X149364632Y-108050499D01*
X149444995Y-108034515D01*
X149444996Y-108034514D01*
X149456973Y-108032132D01*
X149457015Y-108032344D01*
X149491424Y-108025500D01*
X151288435Y-108025500D01*
X151288437Y-108025500D01*
X151371223Y-108003318D01*
X151445446Y-107960465D01*
X152994092Y-106411819D01*
X153055415Y-106378334D01*
X153081773Y-106375500D01*
X155604587Y-106375500D01*
X155671626Y-106395185D01*
X155717381Y-106447989D01*
X155727702Y-106484715D01*
X155734496Y-106541295D01*
X155786736Y-106673766D01*
X155872774Y-106787225D01*
X155922028Y-106824575D01*
X155986236Y-106873265D01*
X156118703Y-106925503D01*
X156201948Y-106935500D01*
X158598052Y-106935500D01*
X158681297Y-106925503D01*
X158813764Y-106873265D01*
X158927225Y-106787225D01*
X159013265Y-106673764D01*
X159065503Y-106541297D01*
X159075500Y-106458052D01*
X159075500Y-105741948D01*
X159073726Y-105727180D01*
X159065503Y-105658704D01*
X159062864Y-105652011D01*
X159013265Y-105526236D01*
X159003091Y-105512819D01*
X158927225Y-105412774D01*
X158813766Y-105326736D01*
X158813764Y-105326735D01*
X158681297Y-105274497D01*
X158681296Y-105274496D01*
X158681295Y-105274496D01*
X158598052Y-105264500D01*
X156201948Y-105264500D01*
X156118704Y-105274496D01*
X155986233Y-105326736D01*
X155872774Y-105412774D01*
X155786736Y-105526233D01*
X155783470Y-105534515D01*
X155739509Y-105645991D01*
X155696605Y-105701134D01*
X155630697Y-105724327D01*
X155624156Y-105724500D01*
X153344377Y-105724500D01*
X153277338Y-105704815D01*
X153231583Y-105652011D01*
X153221639Y-105582853D01*
X153250664Y-105519297D01*
X153256696Y-105512819D01*
X153899277Y-104870238D01*
X155864190Y-102905323D01*
X155925511Y-102871840D01*
X155995203Y-102876824D01*
X155997328Y-102877639D01*
X156118703Y-102925503D01*
X156201948Y-102935500D01*
X158598052Y-102935500D01*
X158681297Y-102925503D01*
X158813764Y-102873265D01*
X158927225Y-102787225D01*
X159013265Y-102673764D01*
X159065503Y-102541297D01*
X159075500Y-102458052D01*
X159075500Y-101741948D01*
X159065503Y-101658703D01*
X159031149Y-101571589D01*
X159024868Y-101502004D01*
X159057205Y-101440067D01*
X159114411Y-101406326D01*
X159125639Y-101403318D01*
X159199862Y-101360465D01*
X159412819Y-101147508D01*
X159474142Y-101114023D01*
X159543834Y-101119007D01*
X159599767Y-101160879D01*
X159624184Y-101226343D01*
X159624500Y-101235189D01*
X159624500Y-102963810D01*
X159604815Y-103030849D01*
X159588181Y-103051491D01*
X159157023Y-103482648D01*
X159095700Y-103516133D01*
X159026008Y-103511149D01*
X158970538Y-103469892D01*
X158927225Y-103412774D01*
X158813766Y-103326736D01*
X158813764Y-103326735D01*
X158681297Y-103274497D01*
X158681296Y-103274496D01*
X158681295Y-103274496D01*
X158598052Y-103264500D01*
X156201948Y-103264500D01*
X156118704Y-103274496D01*
X155986233Y-103326736D01*
X155872774Y-103412774D01*
X155786736Y-103526233D01*
X155734496Y-103658704D01*
X155724500Y-103741947D01*
X155724500Y-104458052D01*
X155734496Y-104541295D01*
X155786736Y-104673766D01*
X155872774Y-104787225D01*
X155982244Y-104870238D01*
X155986236Y-104873265D01*
X156118703Y-104925503D01*
X156201948Y-104935500D01*
X158598052Y-104935500D01*
X158681297Y-104925503D01*
X158813764Y-104873265D01*
X158927225Y-104787225D01*
X159013265Y-104673764D01*
X159065503Y-104541297D01*
X159071431Y-104491931D01*
X159098968Y-104427718D01*
X159132546Y-104399330D01*
X159151484Y-104388396D01*
X159199862Y-104360465D01*
X160210465Y-103349862D01*
X160253318Y-103275639D01*
X160275500Y-103192853D01*
X160275500Y-103107147D01*
X160275500Y-98152855D01*
X160275501Y-98152842D01*
X160275501Y-98057149D01*
X160275501Y-98057148D01*
X160253318Y-97974362D01*
X160245007Y-97959967D01*
X160239332Y-97950137D01*
X160210467Y-97900141D01*
X160210466Y-97900140D01*
X160210465Y-97900138D01*
X160149862Y-97839535D01*
X160149861Y-97839534D01*
X160145531Y-97835204D01*
X160145520Y-97835194D01*
X159286074Y-96975747D01*
X159252589Y-96914424D01*
X159257573Y-96844732D01*
X159268763Y-96822091D01*
X159298703Y-96774443D01*
X159359547Y-96600559D01*
X159359548Y-96600553D01*
X159374999Y-96463418D01*
X159375000Y-96463414D01*
X159375000Y-96350000D01*
X155425000Y-96350000D01*
X155425000Y-96463418D01*
X155440451Y-96600553D01*
X155440452Y-96600559D01*
X155492135Y-96748262D01*
X155495696Y-96818041D01*
X155462774Y-96876897D01*
X154737181Y-97602491D01*
X154675858Y-97635976D01*
X154606167Y-97630992D01*
X154550233Y-97589120D01*
X154525816Y-97523656D01*
X154525500Y-97514810D01*
X154525500Y-96336189D01*
X154545185Y-96269150D01*
X154561819Y-96248508D01*
X154860189Y-95950138D01*
X155219026Y-95591300D01*
X155280347Y-95557817D01*
X155350038Y-95562801D01*
X155405972Y-95604672D01*
X155430389Y-95670137D01*
X155429926Y-95692865D01*
X155425000Y-95736591D01*
X155425000Y-95850000D01*
X159375000Y-95850000D01*
X159375000Y-95736585D01*
X159374999Y-95736581D01*
X159359548Y-95599446D01*
X159359547Y-95599440D01*
X159298703Y-95425556D01*
X159200691Y-95269571D01*
X159070428Y-95139308D01*
X158914443Y-95041296D01*
X158843698Y-95016542D01*
X158786922Y-94975820D01*
X158761174Y-94910868D01*
X158774630Y-94842306D01*
X158823017Y-94791903D01*
X158884652Y-94775500D01*
X163163811Y-94775500D01*
X163230850Y-94795185D01*
X163251492Y-94811819D01*
X168735194Y-100295520D01*
X168735204Y-100295531D01*
X168800139Y-100360466D01*
X168824177Y-100374344D01*
X168856534Y-100393025D01*
X168856536Y-100393026D01*
X168874360Y-100403317D01*
X168874361Y-100403317D01*
X168874362Y-100403318D01*
X168957147Y-100425501D01*
X168957149Y-100425501D01*
X169050449Y-100425501D01*
X169050465Y-100425500D01*
X170660592Y-100425500D01*
X170727631Y-100445185D01*
X170773386Y-100497989D01*
X170783706Y-100534711D01*
X170784497Y-100541297D01*
X170805901Y-100595573D01*
X170836736Y-100673766D01*
X170922774Y-100787225D01*
X170991756Y-100839535D01*
X171036236Y-100873265D01*
X171168703Y-100925503D01*
X171251948Y-100935500D01*
X173648052Y-100935500D01*
X173731297Y-100925503D01*
X173859230Y-100875052D01*
X173928816Y-100868772D01*
X173990752Y-100901109D01*
X173992400Y-100902727D01*
X174200138Y-101110465D01*
X174264298Y-101147508D01*
X174281400Y-101157382D01*
X174280570Y-101158818D01*
X174327497Y-101196625D01*
X174342690Y-101226402D01*
X174370884Y-101306975D01*
X174370884Y-101306976D01*
X174449288Y-101413210D01*
X174449289Y-101413211D01*
X174555523Y-101491615D01*
X174555524Y-101491615D01*
X174555525Y-101491616D01*
X174680151Y-101535225D01*
X174680150Y-101535225D01*
X174709740Y-101538000D01*
X174709744Y-101538000D01*
X175290260Y-101538000D01*
X175319849Y-101535225D01*
X175444475Y-101491616D01*
X175550711Y-101413211D01*
X175629116Y-101306975D01*
X175672725Y-101182349D01*
X175674154Y-101167113D01*
X175675500Y-101152760D01*
X175675500Y-100547239D01*
X175672725Y-100517650D01*
X175640480Y-100425501D01*
X175629116Y-100393025D01*
X175584059Y-100331975D01*
X175550711Y-100286789D01*
X175550710Y-100286788D01*
X175444476Y-100208384D01*
X175319848Y-100164774D01*
X175319849Y-100164774D01*
X175290260Y-100162000D01*
X175290256Y-100162000D01*
X174709744Y-100162000D01*
X174709740Y-100162000D01*
X174680150Y-100164774D01*
X174555525Y-100208383D01*
X174447592Y-100288041D01*
X174381963Y-100312011D01*
X174313792Y-100296695D01*
X174286278Y-100275951D01*
X174161819Y-100151492D01*
X174128334Y-100090169D01*
X174125500Y-100063811D01*
X174125500Y-99741947D01*
X174115503Y-99658704D01*
X174115502Y-99658701D01*
X174063265Y-99526236D01*
X174008349Y-99453818D01*
X173977225Y-99412774D01*
X173863766Y-99326736D01*
X173863764Y-99326735D01*
X173731297Y-99274497D01*
X173731296Y-99274496D01*
X173731295Y-99274496D01*
X173648052Y-99264500D01*
X171251948Y-99264500D01*
X171168704Y-99274496D01*
X171036233Y-99326736D01*
X170922774Y-99412774D01*
X170836736Y-99526233D01*
X170836735Y-99526236D01*
X170784497Y-99658703D01*
X170783706Y-99665285D01*
X170756172Y-99729497D01*
X170698290Y-99768631D01*
X170660592Y-99774500D01*
X169186188Y-99774500D01*
X169119149Y-99754815D01*
X169098507Y-99738181D01*
X166339657Y-96979331D01*
X165102273Y-95741947D01*
X170774500Y-95741947D01*
X170774500Y-96458052D01*
X170784496Y-96541295D01*
X170784497Y-96541297D01*
X170815829Y-96620751D01*
X170836736Y-96673766D01*
X170922774Y-96787225D01*
X171036233Y-96873263D01*
X171036236Y-96873265D01*
X171168703Y-96925503D01*
X171251948Y-96935500D01*
X173648052Y-96935500D01*
X173731297Y-96925503D01*
X173863764Y-96873265D01*
X173885429Y-96856835D01*
X173950740Y-96832013D01*
X174019104Y-96846441D01*
X174068815Y-96895538D01*
X174078060Y-96916636D01*
X174089546Y-96951300D01*
X174089551Y-96951311D01*
X174180052Y-97098034D01*
X174180055Y-97098038D01*
X174301961Y-97219944D01*
X174301965Y-97219947D01*
X174432383Y-97300391D01*
X174479108Y-97352339D01*
X174490329Y-97421302D01*
X174462486Y-97485383D01*
X174454971Y-97493607D01*
X174449286Y-97499291D01*
X174370885Y-97605522D01*
X174351007Y-97662328D01*
X174310284Y-97719103D01*
X174245331Y-97744849D01*
X174176769Y-97731392D01*
X174126368Y-97683004D01*
X174119392Y-97665715D01*
X174118419Y-97666099D01*
X174115503Y-97658704D01*
X174115503Y-97658703D01*
X174063265Y-97526236D01*
X174061309Y-97523656D01*
X173977225Y-97412774D01*
X173863766Y-97326736D01*
X173863764Y-97326735D01*
X173731297Y-97274497D01*
X173731296Y-97274496D01*
X173731295Y-97274496D01*
X173648052Y-97264500D01*
X171251948Y-97264500D01*
X171168704Y-97274496D01*
X171036233Y-97326736D01*
X170922774Y-97412774D01*
X170836736Y-97526233D01*
X170784496Y-97658704D01*
X170774500Y-97741947D01*
X170774500Y-98458052D01*
X170784496Y-98541295D01*
X170799819Y-98580151D01*
X170816402Y-98622204D01*
X170836736Y-98673766D01*
X170922774Y-98787225D01*
X171013997Y-98856401D01*
X171036236Y-98873265D01*
X171168703Y-98925503D01*
X171251948Y-98935500D01*
X173648052Y-98935500D01*
X173731297Y-98925503D01*
X173863764Y-98873265D01*
X173977225Y-98787225D01*
X174063265Y-98673764D01*
X174115503Y-98541297D01*
X174115503Y-98541294D01*
X174118419Y-98533901D01*
X174121514Y-98535121D01*
X174149164Y-98488159D01*
X174211537Y-98456673D01*
X174281031Y-98463907D01*
X174335583Y-98507564D01*
X174351014Y-98537692D01*
X174351931Y-98540314D01*
X174355482Y-98610094D01*
X174351925Y-98622204D01*
X174327275Y-98692647D01*
X174327274Y-98692655D01*
X174324500Y-98722239D01*
X174324500Y-99327760D01*
X174327274Y-99357349D01*
X174370884Y-99481976D01*
X174449288Y-99588210D01*
X174449289Y-99588211D01*
X174555523Y-99666615D01*
X174555524Y-99666615D01*
X174555525Y-99666616D01*
X174680151Y-99710225D01*
X174680150Y-99710225D01*
X174709740Y-99713000D01*
X174709744Y-99713000D01*
X175290260Y-99713000D01*
X175319849Y-99710225D01*
X175444475Y-99666616D01*
X175550711Y-99588211D01*
X175629116Y-99481975D01*
X175672725Y-99357349D01*
X175673461Y-99349500D01*
X175675500Y-99327760D01*
X175675500Y-98722239D01*
X175672726Y-98692660D01*
X175672725Y-98692655D01*
X175672725Y-98692651D01*
X175648073Y-98622204D01*
X175644511Y-98552427D01*
X175648071Y-98540303D01*
X175672725Y-98469849D01*
X175674068Y-98455525D01*
X175675500Y-98440260D01*
X175675500Y-97759739D01*
X175672725Y-97730150D01*
X175629115Y-97605523D01*
X175550711Y-97499289D01*
X175545032Y-97493610D01*
X175511547Y-97432287D01*
X175516531Y-97362595D01*
X175558403Y-97306662D01*
X175567616Y-97300391D01*
X175698034Y-97219947D01*
X175698038Y-97219944D01*
X175819944Y-97098038D01*
X175819947Y-97098034D01*
X175910448Y-96951311D01*
X175910453Y-96951300D01*
X175964680Y-96787652D01*
X175974999Y-96686654D01*
X175975000Y-96686641D01*
X175975000Y-96600000D01*
X174874000Y-96600000D01*
X174806961Y-96580315D01*
X174761206Y-96527511D01*
X174750000Y-96476000D01*
X174750000Y-96100000D01*
X175250000Y-96100000D01*
X175974999Y-96100000D01*
X175974999Y-96013360D01*
X175974998Y-96013345D01*
X175964680Y-95912347D01*
X175910453Y-95748699D01*
X175910448Y-95748688D01*
X175819947Y-95601965D01*
X175819944Y-95601961D01*
X175698038Y-95480055D01*
X175698034Y-95480052D01*
X175551311Y-95389551D01*
X175551300Y-95389546D01*
X175387652Y-95335319D01*
X175286654Y-95325000D01*
X175250000Y-95325000D01*
X175250000Y-96100000D01*
X174750000Y-96100000D01*
X174750000Y-95325000D01*
X174713361Y-95325000D01*
X174713343Y-95325001D01*
X174612347Y-95335319D01*
X174448699Y-95389546D01*
X174448688Y-95389551D01*
X174301965Y-95480052D01*
X174246848Y-95535168D01*
X174185524Y-95568652D01*
X174115833Y-95563666D01*
X174060364Y-95522410D01*
X173977225Y-95412774D01*
X173863766Y-95326736D01*
X173863764Y-95326735D01*
X173731297Y-95274497D01*
X173731296Y-95274496D01*
X173731295Y-95274496D01*
X173648052Y-95264500D01*
X171251948Y-95264500D01*
X171168704Y-95274496D01*
X171036233Y-95326736D01*
X170922774Y-95412774D01*
X170836736Y-95526233D01*
X170784496Y-95658704D01*
X170774500Y-95741947D01*
X165102273Y-95741947D01*
X163549862Y-94189535D01*
X163512750Y-94168108D01*
X163475640Y-94146682D01*
X163434246Y-94135591D01*
X163392853Y-94124500D01*
X160285189Y-94124500D01*
X160218150Y-94104815D01*
X160172395Y-94052011D01*
X160162451Y-93982853D01*
X160191476Y-93919297D01*
X160197508Y-93912819D01*
X162448508Y-91661819D01*
X162509831Y-91628334D01*
X162536189Y-91625500D01*
X162876209Y-91625500D01*
X162943248Y-91645185D01*
X162989003Y-91697989D01*
X162998947Y-91767147D01*
X162975979Y-91823131D01*
X162964367Y-91838867D01*
X162947207Y-91862117D01*
X162947206Y-91862119D01*
X162902353Y-91990298D01*
X162902353Y-91990300D01*
X162899500Y-92020730D01*
X162899500Y-93079269D01*
X162902353Y-93109699D01*
X162902353Y-93109701D01*
X162947206Y-93237880D01*
X162947207Y-93237882D01*
X163027850Y-93347150D01*
X163137118Y-93427793D01*
X163171358Y-93439774D01*
X163265299Y-93472646D01*
X163295730Y-93475500D01*
X163295734Y-93475500D01*
X164804270Y-93475500D01*
X164834699Y-93472646D01*
X164834701Y-93472646D01*
X164901195Y-93449378D01*
X164962882Y-93427793D01*
X165072150Y-93347150D01*
X165152793Y-93237882D01*
X165190149Y-93131125D01*
X165197646Y-93109701D01*
X165197646Y-93109699D01*
X165200500Y-93079269D01*
X165200500Y-93054892D01*
X165220185Y-92987853D01*
X165262501Y-92947504D01*
X165264232Y-92946504D01*
X165264237Y-92946503D01*
X165361263Y-92890485D01*
X166364928Y-91886818D01*
X166426251Y-91853334D01*
X166452609Y-91850500D01*
X171749750Y-91850500D01*
X171749751Y-91850499D01*
X171764568Y-91847552D01*
X171808229Y-91838868D01*
X171808229Y-91838867D01*
X171808231Y-91838867D01*
X171874552Y-91794552D01*
X171918867Y-91728231D01*
X171918867Y-91728229D01*
X171918868Y-91728229D01*
X171930499Y-91669752D01*
X171930500Y-91669750D01*
X171930500Y-91180249D01*
X171919349Y-91124192D01*
X171919349Y-91075808D01*
X171930500Y-91019750D01*
X171930500Y-90530249D01*
X171919349Y-90474192D01*
X171919349Y-90425808D01*
X171930500Y-90369750D01*
X171930500Y-89880249D01*
X171919349Y-89824192D01*
X171919349Y-89775808D01*
X171930500Y-89719750D01*
X171930500Y-89586556D01*
X171950185Y-89519517D01*
X171980189Y-89487290D01*
X172087187Y-89407190D01*
X172087190Y-89407187D01*
X172173350Y-89292093D01*
X172173354Y-89292086D01*
X172223596Y-89157379D01*
X172223598Y-89157372D01*
X172229999Y-89097844D01*
X172230000Y-89097827D01*
X172230000Y-89050000D01*
X171760916Y-89050000D01*
X171750738Y-89049500D01*
X171749748Y-89049500D01*
X170330252Y-89049500D01*
X170329262Y-89049500D01*
X170319084Y-89050000D01*
X169850000Y-89050000D01*
X169850000Y-89097844D01*
X169856401Y-89157372D01*
X169856403Y-89157379D01*
X169906645Y-89292086D01*
X169906649Y-89292093D01*
X169992809Y-89407187D01*
X169992812Y-89407190D01*
X170099811Y-89487290D01*
X170141682Y-89543223D01*
X170149500Y-89586556D01*
X170149500Y-89675500D01*
X170129815Y-89742539D01*
X170077011Y-89788294D01*
X170025500Y-89799500D01*
X166067933Y-89799500D01*
X165985145Y-89821682D01*
X165910924Y-89864535D01*
X165910921Y-89864537D01*
X165337278Y-90438181D01*
X165275955Y-90471666D01*
X165249597Y-90474500D01*
X162170751Y-90474500D01*
X162087963Y-90496682D01*
X162013742Y-90539535D01*
X162013739Y-90539537D01*
X159581096Y-92972181D01*
X159519773Y-93005666D01*
X159493415Y-93008500D01*
X155336751Y-93008500D01*
X155253963Y-93030682D01*
X155179742Y-93073535D01*
X155179739Y-93073537D01*
X151789537Y-96463739D01*
X151789535Y-96463742D01*
X151746682Y-96537963D01*
X151733405Y-96587516D01*
X151724500Y-96620747D01*
X151724500Y-97005282D01*
X151704815Y-97072321D01*
X151652011Y-97118076D01*
X151582853Y-97128020D01*
X151542874Y-97115078D01*
X151400226Y-97040210D01*
X151235056Y-96999500D01*
X151064944Y-96999500D01*
X150899773Y-97040210D01*
X150749150Y-97119263D01*
X150621816Y-97232072D01*
X150525182Y-97372068D01*
X150464860Y-97531125D01*
X150464859Y-97531130D01*
X150444355Y-97700000D01*
X150464859Y-97868869D01*
X150464860Y-97868874D01*
X150525182Y-98027931D01*
X150621817Y-98167930D01*
X150682726Y-98221889D01*
X150719853Y-98281078D01*
X150724500Y-98314705D01*
X150724500Y-101963811D01*
X150704815Y-102030850D01*
X150688181Y-102051492D01*
X149901492Y-102838181D01*
X149840169Y-102871666D01*
X149813811Y-102874500D01*
X149491425Y-102874500D01*
X149457015Y-102867655D01*
X149456973Y-102867867D01*
X149364636Y-102849500D01*
X147985368Y-102849500D01*
X147985367Y-102849501D01*
X147961188Y-102854310D01*
X147891597Y-102848081D01*
X147836420Y-102805216D01*
X147813178Y-102739326D01*
X147813000Y-102732692D01*
X147813000Y-102667308D01*
X147832685Y-102600269D01*
X147885489Y-102554514D01*
X147954647Y-102544570D01*
X147961169Y-102545686D01*
X147985367Y-102550500D01*
X149364632Y-102550499D01*
X149444995Y-102534515D01*
X149536124Y-102473624D01*
X149597015Y-102382495D01*
X149613000Y-102302133D01*
X149612999Y-102097868D01*
X149597015Y-102017505D01*
X149576809Y-101987266D01*
X149536124Y-101926375D01*
X149457738Y-101874000D01*
X149444995Y-101865485D01*
X149444993Y-101865484D01*
X149444990Y-101865483D01*
X149364637Y-101849500D01*
X149364633Y-101849500D01*
X149236406Y-101849500D01*
X149169367Y-101829815D01*
X149123612Y-101777011D01*
X149116633Y-101757600D01*
X149094799Y-101676114D01*
X149092111Y-101671458D01*
X149075500Y-101609461D01*
X149075500Y-95184717D01*
X149095185Y-95117678D01*
X149111819Y-95097036D01*
X149764044Y-94444811D01*
X150420480Y-93788375D01*
X150447747Y-93741147D01*
X150473207Y-93697049D01*
X150500500Y-93595189D01*
X150500500Y-92062131D01*
X150520185Y-91995092D01*
X150572989Y-91949337D01*
X150642147Y-91939393D01*
X150665446Y-91945087D01*
X150780151Y-91985225D01*
X150780150Y-91985225D01*
X150809740Y-91988000D01*
X150809744Y-91988000D01*
X151390260Y-91988000D01*
X151419849Y-91985225D01*
X151423210Y-91984049D01*
X151544475Y-91941616D01*
X151650711Y-91863211D01*
X151729116Y-91756975D01*
X151729115Y-91756975D01*
X151733624Y-91750867D01*
X151789271Y-91708616D01*
X151833394Y-91700500D01*
X152025448Y-91700500D01*
X152079907Y-91713098D01*
X152136107Y-91740573D01*
X152169655Y-91745461D01*
X152204239Y-91750500D01*
X152204240Y-91750500D01*
X153295761Y-91750500D01*
X153330317Y-91745465D01*
X153363893Y-91740573D01*
X153468983Y-91689198D01*
X153551698Y-91606483D01*
X153603073Y-91501393D01*
X153613000Y-91433260D01*
X153613000Y-91066740D01*
X153603073Y-90998607D01*
X153551698Y-90893517D01*
X153551696Y-90893515D01*
X153551696Y-90893514D01*
X153468985Y-90810803D01*
X153363891Y-90759426D01*
X153295761Y-90749500D01*
X153295760Y-90749500D01*
X152204240Y-90749500D01*
X152204239Y-90749500D01*
X152136108Y-90759426D01*
X152031016Y-90810802D01*
X152014808Y-90827011D01*
X151978636Y-90863182D01*
X151917316Y-90896666D01*
X151890957Y-90899500D01*
X151871852Y-90899500D01*
X151804813Y-90879815D01*
X151759058Y-90827011D01*
X151754811Y-90816455D01*
X151734855Y-90759426D01*
X151729116Y-90743025D01*
X151660504Y-90650059D01*
X151636535Y-90584431D01*
X151651851Y-90516261D01*
X151695180Y-90470888D01*
X151798037Y-90407445D01*
X151919944Y-90285538D01*
X151919947Y-90285534D01*
X152010448Y-90138811D01*
X152010453Y-90138800D01*
X152064680Y-89975152D01*
X152074999Y-89874154D01*
X152075000Y-89874141D01*
X152075000Y-89775000D01*
X150974000Y-89775000D01*
X150906961Y-89755315D01*
X150861206Y-89702511D01*
X150850000Y-89651000D01*
X150850000Y-89275000D01*
X151350000Y-89275000D01*
X152074999Y-89275000D01*
X152074999Y-89175860D01*
X152074998Y-89175845D01*
X152064680Y-89074847D01*
X152010453Y-88911199D01*
X152010448Y-88911188D01*
X151919947Y-88764465D01*
X151919944Y-88764461D01*
X151798038Y-88642555D01*
X151798034Y-88642552D01*
X151651311Y-88552051D01*
X151651300Y-88552046D01*
X151487652Y-88497819D01*
X151386654Y-88487500D01*
X151350000Y-88487500D01*
X151350000Y-89275000D01*
X150850000Y-89275000D01*
X150850000Y-88487500D01*
X150813361Y-88487500D01*
X150813343Y-88487501D01*
X150712347Y-88497819D01*
X150663501Y-88514004D01*
X150593673Y-88516404D01*
X150533632Y-88480671D01*
X150502441Y-88418150D01*
X150500500Y-88396297D01*
X150500500Y-88136654D01*
X152187501Y-88136654D01*
X152197819Y-88237652D01*
X152252046Y-88401300D01*
X152252051Y-88401311D01*
X152342552Y-88548034D01*
X152342555Y-88548038D01*
X152464461Y-88669944D01*
X152464465Y-88669947D01*
X152611188Y-88760448D01*
X152611199Y-88760453D01*
X152774847Y-88814680D01*
X152875851Y-88824999D01*
X153475000Y-88824999D01*
X153574140Y-88824999D01*
X153574154Y-88824998D01*
X153675152Y-88814680D01*
X153838800Y-88760453D01*
X153838811Y-88760448D01*
X153985534Y-88669947D01*
X153985538Y-88669944D01*
X154107445Y-88548037D01*
X154170888Y-88445180D01*
X154222836Y-88398455D01*
X154291798Y-88387232D01*
X154350058Y-88410504D01*
X154443025Y-88479116D01*
X154491457Y-88496063D01*
X154548230Y-88536782D01*
X154573978Y-88601735D01*
X154574500Y-88613103D01*
X154574500Y-89678378D01*
X154554815Y-89745417D01*
X154502011Y-89791172D01*
X154468378Y-89801082D01*
X154411108Y-89809426D01*
X154306014Y-89860803D01*
X154223303Y-89943514D01*
X154171926Y-90048608D01*
X154162000Y-90116739D01*
X154162000Y-90483260D01*
X154171926Y-90551391D01*
X154223303Y-90656485D01*
X154306014Y-90739196D01*
X154306015Y-90739196D01*
X154306017Y-90739198D01*
X154411107Y-90790573D01*
X154445173Y-90795536D01*
X154479239Y-90800500D01*
X154479240Y-90800500D01*
X155570761Y-90800500D01*
X155593471Y-90797191D01*
X155638893Y-90790573D01*
X155743983Y-90739198D01*
X155826698Y-90656483D01*
X155878073Y-90551393D01*
X155888000Y-90483260D01*
X155888000Y-90116740D01*
X155878073Y-90048607D01*
X155826698Y-89943517D01*
X155826696Y-89943515D01*
X155826696Y-89943514D01*
X155743985Y-89860803D01*
X155638891Y-89809426D01*
X155581622Y-89801082D01*
X155518121Y-89771938D01*
X155480457Y-89713088D01*
X155475500Y-89678378D01*
X155475500Y-88712500D01*
X155495185Y-88645461D01*
X155547989Y-88599706D01*
X155599500Y-88588500D01*
X162778073Y-88588500D01*
X162845112Y-88608185D01*
X162890867Y-88660989D01*
X162901530Y-88700921D01*
X162902074Y-88706723D01*
X162902354Y-88709703D01*
X162942699Y-88824999D01*
X162947207Y-88837882D01*
X163027850Y-88947150D01*
X163137118Y-89027793D01*
X163172024Y-89040007D01*
X163265299Y-89072646D01*
X163295730Y-89075500D01*
X163295734Y-89075500D01*
X164804270Y-89075500D01*
X164834699Y-89072646D01*
X164834701Y-89072646D01*
X164900847Y-89049500D01*
X164962882Y-89027793D01*
X165072150Y-88947150D01*
X165152793Y-88837882D01*
X165178484Y-88764461D01*
X165197646Y-88709701D01*
X165197646Y-88709699D01*
X165200500Y-88679269D01*
X165200500Y-88552155D01*
X169850000Y-88552155D01*
X169850000Y-88600000D01*
X170815000Y-88600000D01*
X171265000Y-88600000D01*
X172230000Y-88600000D01*
X172230000Y-88552172D01*
X172229999Y-88552155D01*
X172223598Y-88492627D01*
X172223596Y-88492620D01*
X172173354Y-88357913D01*
X172173350Y-88357906D01*
X172087190Y-88242812D01*
X172087187Y-88242809D01*
X171972093Y-88156649D01*
X171972086Y-88156645D01*
X171837379Y-88106403D01*
X171837372Y-88106401D01*
X171777844Y-88100000D01*
X171265000Y-88100000D01*
X171265000Y-88600000D01*
X170815000Y-88600000D01*
X170815000Y-88100000D01*
X170302155Y-88100000D01*
X170242627Y-88106401D01*
X170242620Y-88106403D01*
X170107913Y-88156645D01*
X170107906Y-88156649D01*
X169992812Y-88242809D01*
X169992809Y-88242812D01*
X169906649Y-88357906D01*
X169906645Y-88357913D01*
X169856403Y-88492620D01*
X169856401Y-88492627D01*
X169850000Y-88552155D01*
X165200500Y-88552155D01*
X165200500Y-87620730D01*
X165197646Y-87590300D01*
X165197646Y-87590298D01*
X165164006Y-87494163D01*
X165152793Y-87462118D01*
X165072150Y-87352850D01*
X164962882Y-87272207D01*
X164962880Y-87272206D01*
X164834700Y-87227353D01*
X164804270Y-87224500D01*
X164804266Y-87224500D01*
X163295734Y-87224500D01*
X163295730Y-87224500D01*
X163265300Y-87227353D01*
X163265298Y-87227353D01*
X163137119Y-87272206D01*
X163137117Y-87272207D01*
X163027850Y-87352850D01*
X162947207Y-87462117D01*
X162947206Y-87462119D01*
X162899861Y-87597423D01*
X162898588Y-87596977D01*
X162868890Y-87651256D01*
X162807539Y-87684689D01*
X162781284Y-87687500D01*
X155812000Y-87687500D01*
X155744961Y-87667815D01*
X155699206Y-87615011D01*
X155688000Y-87563500D01*
X155688000Y-87559739D01*
X155685225Y-87530150D01*
X155641615Y-87405523D01*
X155563211Y-87299289D01*
X155563210Y-87299288D01*
X155456976Y-87220884D01*
X155332348Y-87177274D01*
X155332349Y-87177274D01*
X155302760Y-87174500D01*
X155302756Y-87174500D01*
X154597244Y-87174500D01*
X154597240Y-87174500D01*
X154567650Y-87177274D01*
X154443025Y-87220883D01*
X154350060Y-87289494D01*
X154284430Y-87313464D01*
X154216260Y-87298148D01*
X154170888Y-87254820D01*
X154107443Y-87151960D01*
X153985538Y-87030055D01*
X153985534Y-87030052D01*
X153838811Y-86939551D01*
X153838800Y-86939546D01*
X153675152Y-86885319D01*
X153574154Y-86875000D01*
X153475000Y-86875000D01*
X153475000Y-88824999D01*
X152875851Y-88824999D01*
X152975000Y-88824998D01*
X152975000Y-88100000D01*
X152187501Y-88100000D01*
X152187501Y-88136654D01*
X150500500Y-88136654D01*
X150500500Y-87563345D01*
X152187500Y-87563345D01*
X152187500Y-87600000D01*
X152975000Y-87600000D01*
X152975000Y-86874999D01*
X152875860Y-86875000D01*
X152875844Y-86875001D01*
X152774847Y-86885319D01*
X152611199Y-86939546D01*
X152611188Y-86939551D01*
X152464465Y-87030052D01*
X152464461Y-87030055D01*
X152342555Y-87151961D01*
X152342552Y-87151965D01*
X152252051Y-87298688D01*
X152252046Y-87298699D01*
X152197819Y-87462347D01*
X152187500Y-87563345D01*
X150500500Y-87563345D01*
X150500500Y-87397275D01*
X150500500Y-87397273D01*
X150473207Y-87295413D01*
X150420480Y-87204087D01*
X150345913Y-87129520D01*
X149795913Y-86579520D01*
X149750250Y-86553156D01*
X149704589Y-86526793D01*
X149653657Y-86513146D01*
X149602727Y-86499500D01*
X149602726Y-86499500D01*
X139010339Y-86499500D01*
X139010323Y-86499499D01*
X139002727Y-86499499D01*
X138897273Y-86499499D01*
X138829366Y-86517695D01*
X138795412Y-86526793D01*
X138704084Y-86579522D01*
X136229522Y-89054084D01*
X136229518Y-89054090D01*
X136176792Y-89145412D01*
X136176793Y-89145413D01*
X136149499Y-89247276D01*
X136148556Y-89254438D01*
X136120285Y-89318332D01*
X136099252Y-89338013D01*
X135999287Y-89411790D01*
X135920884Y-89518023D01*
X135877274Y-89642650D01*
X135874500Y-89672239D01*
X135874500Y-90277760D01*
X135877274Y-90307349D01*
X135920884Y-90431976D01*
X135999288Y-90538210D01*
X135999289Y-90538211D01*
X136105523Y-90616615D01*
X136105524Y-90616615D01*
X136105525Y-90616616D01*
X136230151Y-90660225D01*
X136230150Y-90660225D01*
X136259740Y-90663000D01*
X136259744Y-90663000D01*
X136840260Y-90663000D01*
X136869849Y-90660225D01*
X136880543Y-90656483D01*
X136994475Y-90616616D01*
X137100711Y-90538211D01*
X137179116Y-90431975D01*
X137222725Y-90307349D01*
X137224070Y-90293007D01*
X137225500Y-90277760D01*
X137225500Y-89672239D01*
X137222725Y-89642650D01*
X137187933Y-89543223D01*
X137179116Y-89518025D01*
X137123265Y-89442349D01*
X137099295Y-89376722D01*
X137114611Y-89308551D01*
X137135351Y-89281040D01*
X139079573Y-87336819D01*
X139140896Y-87303334D01*
X139167254Y-87300500D01*
X139539286Y-87300500D01*
X139606325Y-87320185D01*
X139652080Y-87372989D01*
X139662024Y-87442147D01*
X139632999Y-87505703D01*
X139596912Y-87534296D01*
X139553150Y-87557263D01*
X139425816Y-87670072D01*
X139329182Y-87810068D01*
X139268860Y-87969125D01*
X139268859Y-87969130D01*
X139248355Y-88138000D01*
X139268859Y-88306869D01*
X139268860Y-88306874D01*
X139329182Y-88465931D01*
X139374828Y-88532059D01*
X139425817Y-88605929D01*
X139518261Y-88687827D01*
X139553150Y-88718736D01*
X139693875Y-88792594D01*
X139703775Y-88797790D01*
X139868944Y-88838500D01*
X140039058Y-88838500D01*
X140039058Y-88838499D01*
X140095595Y-88824564D01*
X140165396Y-88827631D01*
X140212952Y-88857279D01*
X143900681Y-92545008D01*
X143934166Y-92606331D01*
X143937000Y-92632689D01*
X143937000Y-96234311D01*
X143917315Y-96301350D01*
X143864511Y-96347105D01*
X143795353Y-96357049D01*
X143731797Y-96328024D01*
X143725319Y-96321992D01*
X141935819Y-94532492D01*
X141902334Y-94471169D01*
X141899500Y-94444811D01*
X141899500Y-93978239D01*
X141896725Y-93948650D01*
X141853115Y-93824023D01*
X141774711Y-93717789D01*
X141774710Y-93717788D01*
X141668479Y-93639387D01*
X141668475Y-93639384D01*
X141668470Y-93639382D01*
X141663852Y-93636941D01*
X141613781Y-93588210D01*
X141598004Y-93520145D01*
X141621531Y-93454355D01*
X141676891Y-93411729D01*
X141682794Y-93409606D01*
X141775298Y-93378954D01*
X141775311Y-93378948D01*
X141922034Y-93288447D01*
X141922038Y-93288444D01*
X142043944Y-93166538D01*
X142043947Y-93166534D01*
X142134448Y-93019811D01*
X142134453Y-93019800D01*
X142188680Y-92856152D01*
X142198999Y-92755154D01*
X142199000Y-92755141D01*
X142199000Y-92706000D01*
X140249001Y-92706000D01*
X140249001Y-92755154D01*
X140259319Y-92856152D01*
X140313546Y-93019800D01*
X140313551Y-93019811D01*
X140404052Y-93166534D01*
X140404055Y-93166538D01*
X140525961Y-93288444D01*
X140525965Y-93288447D01*
X140672688Y-93378948D01*
X140672701Y-93378954D01*
X140765205Y-93409606D01*
X140822650Y-93449378D01*
X140849474Y-93513893D01*
X140837160Y-93582669D01*
X140789617Y-93633870D01*
X140784150Y-93636939D01*
X140779523Y-93639384D01*
X140673289Y-93717788D01*
X140673288Y-93717789D01*
X140594884Y-93824023D01*
X140551274Y-93948650D01*
X140548500Y-93978239D01*
X140548500Y-94583760D01*
X140551274Y-94613349D01*
X140594884Y-94737976D01*
X140673288Y-94844210D01*
X140673289Y-94844211D01*
X140779523Y-94922615D01*
X140779524Y-94922615D01*
X140779525Y-94922616D01*
X140904151Y-94966225D01*
X140904150Y-94966225D01*
X140933740Y-94969000D01*
X140933744Y-94969000D01*
X141400311Y-94969000D01*
X141467350Y-94988685D01*
X141487992Y-95005319D01*
X143400681Y-96918008D01*
X143434166Y-96979331D01*
X143437000Y-97005689D01*
X143437000Y-97912956D01*
X143417315Y-97979995D01*
X143364511Y-98025750D01*
X143295353Y-98035694D01*
X143231797Y-98006669D01*
X143225319Y-98000637D01*
X137381527Y-92156845D01*
X140249000Y-92156845D01*
X140249000Y-92206000D01*
X140974000Y-92206000D01*
X141474000Y-92206000D01*
X142198999Y-92206000D01*
X142198999Y-92156860D01*
X142198998Y-92156845D01*
X142188680Y-92055847D01*
X142134453Y-91892199D01*
X142134448Y-91892188D01*
X142043947Y-91745465D01*
X142043944Y-91745461D01*
X141922038Y-91623555D01*
X141922034Y-91623552D01*
X141775311Y-91533051D01*
X141775300Y-91533046D01*
X141611652Y-91478819D01*
X141510654Y-91468500D01*
X141474000Y-91468500D01*
X141474000Y-92206000D01*
X140974000Y-92206000D01*
X140974000Y-91468500D01*
X140937361Y-91468500D01*
X140937343Y-91468501D01*
X140836347Y-91478819D01*
X140672699Y-91533046D01*
X140672688Y-91533051D01*
X140525965Y-91623552D01*
X140525961Y-91623555D01*
X140404055Y-91745461D01*
X140404052Y-91745465D01*
X140313551Y-91892188D01*
X140313546Y-91892199D01*
X140259319Y-92055847D01*
X140249000Y-92156845D01*
X137381527Y-92156845D01*
X137261819Y-92037137D01*
X137228334Y-91975814D01*
X137225500Y-91949456D01*
X137225500Y-91497239D01*
X137222725Y-91467650D01*
X137179115Y-91343023D01*
X137100711Y-91236789D01*
X137100710Y-91236788D01*
X136994476Y-91158384D01*
X136869848Y-91114774D01*
X136869849Y-91114774D01*
X136840260Y-91112000D01*
X136840256Y-91112000D01*
X136259744Y-91112000D01*
X136259740Y-91112000D01*
X136230150Y-91114774D01*
X136105525Y-91158383D01*
X136049137Y-91200000D01*
X136014894Y-91225271D01*
X135949267Y-91249241D01*
X135941263Y-91249500D01*
X127671510Y-91249500D01*
X127604471Y-91229815D01*
X127558716Y-91177011D01*
X127548414Y-91140447D01*
X127535140Y-91031130D01*
X127535139Y-91031125D01*
X127484146Y-90896666D01*
X127474818Y-90872070D01*
X127468682Y-90863181D01*
X127418564Y-90790573D01*
X127378183Y-90732071D01*
X127283316Y-90648026D01*
X127250849Y-90619263D01*
X127100226Y-90540210D01*
X126935056Y-90499500D01*
X126764944Y-90499500D01*
X126599773Y-90540210D01*
X126449150Y-90619263D01*
X126321816Y-90732072D01*
X126225182Y-90872068D01*
X126164860Y-91031125D01*
X126164859Y-91031130D01*
X126144355Y-91200000D01*
X126164859Y-91368869D01*
X126164860Y-91368874D01*
X126225182Y-91527931D01*
X126279404Y-91606483D01*
X126321817Y-91667929D01*
X126415021Y-91750500D01*
X126449150Y-91780736D01*
X126587474Y-91853334D01*
X126599775Y-91859790D01*
X126764944Y-91900500D01*
X126936256Y-91900500D01*
X126998253Y-91917111D01*
X127014712Y-91926614D01*
X127103856Y-91950500D01*
X135750500Y-91950500D01*
X135817539Y-91970185D01*
X135863294Y-92022989D01*
X135874500Y-92074500D01*
X135874500Y-92102760D01*
X135877274Y-92132349D01*
X135920884Y-92256976D01*
X135999288Y-92363210D01*
X135999289Y-92363211D01*
X136105523Y-92441615D01*
X136105524Y-92441615D01*
X136105525Y-92441616D01*
X136230151Y-92485225D01*
X136230150Y-92485225D01*
X136259740Y-92488000D01*
X136259744Y-92488000D01*
X136669956Y-92488000D01*
X136736995Y-92507685D01*
X136757637Y-92524319D01*
X137796137Y-93562819D01*
X137829622Y-93624142D01*
X137824638Y-93693834D01*
X137782766Y-93749767D01*
X137717302Y-93774184D01*
X137708456Y-93774500D01*
X137304356Y-93774500D01*
X137237317Y-93754815D01*
X137191562Y-93702011D01*
X137187315Y-93691456D01*
X137179115Y-93668023D01*
X137100711Y-93561789D01*
X137100710Y-93561788D01*
X136994476Y-93483384D01*
X136869848Y-93439774D01*
X136869849Y-93439774D01*
X136840260Y-93437000D01*
X136840256Y-93437000D01*
X136409044Y-93437000D01*
X136342005Y-93417315D01*
X136321363Y-93400681D01*
X135940213Y-93019531D01*
X135940208Y-93019527D01*
X135860290Y-92973387D01*
X135860289Y-92973386D01*
X135860288Y-92973386D01*
X135771144Y-92949500D01*
X135771143Y-92949500D01*
X127524319Y-92949500D01*
X127457280Y-92929815D01*
X127422270Y-92895942D01*
X127378183Y-92832071D01*
X127250852Y-92719266D01*
X127250849Y-92719263D01*
X127100226Y-92640210D01*
X126935056Y-92599500D01*
X126764944Y-92599500D01*
X126599773Y-92640210D01*
X126449150Y-92719263D01*
X126321816Y-92832072D01*
X126225182Y-92972068D01*
X126164860Y-93131125D01*
X126164859Y-93131130D01*
X126144355Y-93300000D01*
X126164859Y-93468869D01*
X126164860Y-93468874D01*
X126225182Y-93627931D01*
X126272891Y-93697048D01*
X126321817Y-93767929D01*
X126385137Y-93824025D01*
X126449150Y-93880736D01*
X126599773Y-93959789D01*
X126599775Y-93959790D01*
X126764944Y-94000500D01*
X126935056Y-94000500D01*
X127100225Y-93959790D01*
X127197257Y-93908863D01*
X127250849Y-93880736D01*
X127250850Y-93880734D01*
X127250852Y-93880734D01*
X127378183Y-93767929D01*
X127422270Y-93704057D01*
X127476552Y-93660069D01*
X127524319Y-93650500D01*
X135528456Y-93650500D01*
X135595495Y-93670185D01*
X135616137Y-93686819D01*
X135838181Y-93908863D01*
X135871666Y-93970186D01*
X135874500Y-93996544D01*
X135874500Y-94427760D01*
X135877274Y-94457349D01*
X135920884Y-94581976D01*
X135999288Y-94688210D01*
X135999289Y-94688211D01*
X136105523Y-94766615D01*
X136105524Y-94766615D01*
X136105525Y-94766616D01*
X136230151Y-94810225D01*
X136230150Y-94810225D01*
X136259740Y-94813000D01*
X136259744Y-94813000D01*
X136840260Y-94813000D01*
X136869849Y-94810225D01*
X136912830Y-94795185D01*
X136994475Y-94766616D01*
X137100711Y-94688211D01*
X137179116Y-94581975D01*
X137187315Y-94558543D01*
X137228037Y-94501769D01*
X137292990Y-94476022D01*
X137304356Y-94475500D01*
X137728456Y-94475500D01*
X137795495Y-94495185D01*
X137816137Y-94511819D01*
X142375681Y-99071363D01*
X142409166Y-99132686D01*
X142412000Y-99159044D01*
X142412000Y-101482576D01*
X142392315Y-101549615D01*
X142339511Y-101595370D01*
X142270353Y-101605314D01*
X142206797Y-101576289D01*
X142200319Y-101570257D01*
X142149318Y-101519256D01*
X142115833Y-101457933D01*
X142112999Y-101431583D01*
X142112999Y-100097868D01*
X142097015Y-100017505D01*
X142072269Y-99980470D01*
X142036124Y-99926375D01*
X141981495Y-99889874D01*
X141944995Y-99865485D01*
X141944993Y-99865484D01*
X141944990Y-99865483D01*
X141864636Y-99849500D01*
X141654387Y-99849500D01*
X141587348Y-99829815D01*
X141566706Y-99813181D01*
X141136819Y-99383294D01*
X141103334Y-99321971D01*
X141100500Y-99295613D01*
X141100500Y-98977527D01*
X141100500Y-98977525D01*
X141062984Y-98837515D01*
X141054445Y-98822725D01*
X140990510Y-98711985D01*
X139261819Y-96983294D01*
X139228334Y-96921971D01*
X139225500Y-96895613D01*
X139225500Y-96859739D01*
X139222725Y-96830150D01*
X139179115Y-96705523D01*
X139100711Y-96599289D01*
X139100710Y-96599288D01*
X138994476Y-96520884D01*
X138869848Y-96477274D01*
X138869849Y-96477274D01*
X138840260Y-96474500D01*
X138840256Y-96474500D01*
X138259744Y-96474500D01*
X138259740Y-96474500D01*
X138230155Y-96477274D01*
X138230146Y-96477276D01*
X138186524Y-96492541D01*
X138145568Y-96499500D01*
X137321502Y-96499500D01*
X137254463Y-96479815D01*
X137208708Y-96427011D01*
X137198764Y-96357853D01*
X137204461Y-96334544D01*
X137216076Y-96301350D01*
X137222725Y-96282349D01*
X137225500Y-96252756D01*
X137225500Y-95647244D01*
X137222725Y-95617651D01*
X137218183Y-95604672D01*
X137179115Y-95493023D01*
X137100711Y-95386789D01*
X137100710Y-95386788D01*
X136994476Y-95308384D01*
X136869848Y-95264774D01*
X136869849Y-95264774D01*
X136840260Y-95262000D01*
X136840256Y-95262000D01*
X136259744Y-95262000D01*
X136259740Y-95262000D01*
X136230150Y-95264774D01*
X136105523Y-95308384D01*
X135999289Y-95386788D01*
X135999288Y-95386789D01*
X135920884Y-95493023D01*
X135877274Y-95617650D01*
X135874500Y-95647239D01*
X135874500Y-96125500D01*
X135854815Y-96192539D01*
X135802011Y-96238294D01*
X135750500Y-96249500D01*
X127677581Y-96249500D01*
X127610542Y-96229815D01*
X127564787Y-96177011D01*
X127554485Y-96140447D01*
X127549574Y-96100000D01*
X127535140Y-95981128D01*
X127474818Y-95822070D01*
X127378183Y-95682071D01*
X127250852Y-95569266D01*
X127250849Y-95569263D01*
X127100226Y-95490210D01*
X126935056Y-95449500D01*
X126764944Y-95449500D01*
X126599773Y-95490210D01*
X126449150Y-95569263D01*
X126321816Y-95682072D01*
X126225182Y-95822068D01*
X126164860Y-95981125D01*
X126164859Y-95981130D01*
X126145515Y-96140447D01*
X126117893Y-96204625D01*
X126059959Y-96243681D01*
X126022419Y-96249500D01*
X123372475Y-96249500D01*
X123227525Y-96249500D01*
X123104936Y-96282348D01*
X123087511Y-96287017D01*
X122961988Y-96359488D01*
X122961982Y-96359493D01*
X122859493Y-96461982D01*
X122859488Y-96461988D01*
X122787017Y-96587511D01*
X122787016Y-96587515D01*
X122749500Y-96727525D01*
X121775000Y-96727525D01*
X121775000Y-89162075D01*
X126341476Y-89162075D01*
X126465462Y-89228348D01*
X126653969Y-89285531D01*
X126653965Y-89285531D01*
X126850000Y-89304838D01*
X127046032Y-89285531D01*
X127234537Y-89228348D01*
X127358523Y-89162076D01*
X127358523Y-89162075D01*
X126850001Y-88653553D01*
X126850000Y-88653553D01*
X126341476Y-89162075D01*
X121775000Y-89162075D01*
X121775000Y-88300000D01*
X125845161Y-88300000D01*
X125864468Y-88496032D01*
X125921651Y-88684537D01*
X125987923Y-88808522D01*
X126496447Y-88300000D01*
X126496446Y-88299999D01*
X127203553Y-88299999D01*
X127203553Y-88300000D01*
X127712076Y-88808523D01*
X127778348Y-88684537D01*
X127835531Y-88496032D01*
X127854838Y-88300000D01*
X127835531Y-88103967D01*
X127778348Y-87915462D01*
X127712075Y-87791476D01*
X127203553Y-88299999D01*
X126496446Y-88299999D01*
X125987923Y-87791476D01*
X125921649Y-87915466D01*
X125864468Y-88103967D01*
X125845161Y-88300000D01*
X121775000Y-88300000D01*
X121775000Y-87437923D01*
X126341476Y-87437923D01*
X126850000Y-87946447D01*
X126850001Y-87946447D01*
X127358522Y-87437923D01*
X127234537Y-87371651D01*
X127046030Y-87314468D01*
X127046034Y-87314468D01*
X126850000Y-87295161D01*
X126653967Y-87314468D01*
X126465466Y-87371649D01*
X126341476Y-87437923D01*
X121775000Y-87437923D01*
X121775000Y-85547482D01*
X121794685Y-85480443D01*
X121847489Y-85434688D01*
X121898280Y-85423484D01*
X134571350Y-85350001D01*
X134572069Y-85350000D01*
X176901000Y-85350000D01*
X176968039Y-85369685D01*
G37*
%TD.AperFunction*%
%TD*%
M02*
